<?xml version="1.0" encoding="utf-8"?>
<svg xmlns="http://www.w3.org/2000/svg" xmlns:xlink="http://www.w3.org/1999/xlink" width="450" height="150" viewBox="0 0 1800 600">
<defs>
  <clipPath id="clip050">
    <rect x="0" y="0" width="1800" height="600"/>
  </clipPath>
</defs>
<path clip-path="url(#clip050)" d="M0 600 L1800 600 L1800 3.33067e-14 L0 3.33067e-14  Z" fill="#ffffff" fill-rule="evenodd" fill-opacity="1"/>
<defs>
  <clipPath id="clip051">
    <rect x="360" y="0" width="1261" height="600"/>
  </clipPath>
</defs>
<path clip-path="url(#clip050)" d="M70.8661 529.134 L529.134 529.134 L529.134 70.8661 L70.8661 70.8661  Z" fill="#ffffff" fill-rule="evenodd" fill-opacity="1"/>
<defs>
  <clipPath id="clip052">
    <rect x="70" y="70" width="459" height="459"/>
  </clipPath>
</defs>
<polyline clip-path="url(#clip050)" style="stroke:#000000; stroke-linecap:round; stroke-linejoin:round; stroke-width:6; stroke-opacity:1; fill:none" points="70.8661,529.134 529.134,529.134 "/>
<polyline clip-path="url(#clip050)" style="stroke:#000000; stroke-linecap:round; stroke-linejoin:round; stroke-width:6; stroke-opacity:1; fill:none" points="300,529.134 300,70.8661 "/>
<path clip-path="url(#clip052)" d="M96.0717 515.535 L96.0717 529.134 L118.118 529.134 L118.118 515.535 L96.0717 515.535 L96.0717 515.535  Z" fill="#83d89e" fill-rule="evenodd" fill-opacity="1"/>
<polyline clip-path="url(#clip052)" style="stroke:#000000; stroke-linecap:round; stroke-linejoin:round; stroke-width:6; stroke-opacity:1; fill:none" points="96.0717,515.535 96.0717,529.134 118.118,529.134 118.118,515.535 96.0717,515.535 "/>
<path clip-path="url(#clip052)" d="M123.63 509.083 L123.63 529.134 L145.676 529.134 L145.676 509.083 L123.63 509.083 L123.63 509.083  Z" fill="#83d89e" fill-rule="evenodd" fill-opacity="1"/>
<polyline clip-path="url(#clip052)" style="stroke:#000000; stroke-linecap:round; stroke-linejoin:round; stroke-width:6; stroke-opacity:1; fill:none" points="123.63,509.083 123.63,529.134 145.676,529.134 145.676,509.083 123.63,509.083 "/>
<path clip-path="url(#clip052)" d="M151.187 499.029 L151.187 529.134 L173.234 529.134 L173.234 499.029 L151.187 499.029 L151.187 499.029  Z" fill="#83d89e" fill-rule="evenodd" fill-opacity="1"/>
<polyline clip-path="url(#clip052)" style="stroke:#000000; stroke-linecap:round; stroke-linejoin:round; stroke-width:6; stroke-opacity:1; fill:none" points="151.187,499.029 151.187,529.134 173.234,529.134 173.234,499.029 151.187,499.029 "/>
<path clip-path="url(#clip052)" d="M178.745 483.325 L178.745 529.134 L200.792 529.134 L200.792 483.325 L178.745 483.325 L178.745 483.325  Z" fill="#83d89e" fill-rule="evenodd" fill-opacity="1"/>
<polyline clip-path="url(#clip052)" style="stroke:#000000; stroke-linecap:round; stroke-linejoin:round; stroke-width:6; stroke-opacity:1; fill:none" points="178.745,483.325 178.745,529.134 200.792,529.134 200.792,483.325 178.745,483.325 "/>
<path clip-path="url(#clip052)" d="M206.303 458.755 L206.303 529.134 L228.35 529.134 L228.35 458.755 L206.303 458.755 L206.303 458.755  Z" fill="#83d89e" fill-rule="evenodd" fill-opacity="1"/>
<polyline clip-path="url(#clip052)" style="stroke:#000000; stroke-linecap:round; stroke-linejoin:round; stroke-width:6; stroke-opacity:1; fill:none" points="206.303,458.755 206.303,529.134 228.35,529.134 228.35,458.755 206.303,458.755 "/>
<path clip-path="url(#clip052)" d="M233.861 422.28 L233.861 529.134 L255.907 529.134 L255.907 422.28 L233.861 422.28 L233.861 422.28  Z" fill="#83d89e" fill-rule="evenodd" fill-opacity="1"/>
<polyline clip-path="url(#clip052)" style="stroke:#000000; stroke-linecap:round; stroke-linejoin:round; stroke-width:6; stroke-opacity:1; fill:none" points="233.861,422.28 233.861,529.134 255.907,529.134 255.907,422.28 233.861,422.28 "/>
<path clip-path="url(#clip052)" d="M261.419 382.894 L261.419 529.134 L283.465 529.134 L283.465 382.894 L261.419 382.894 L261.419 382.894  Z" fill="#83d89e" fill-rule="evenodd" fill-opacity="1"/>
<polyline clip-path="url(#clip052)" style="stroke:#000000; stroke-linecap:round; stroke-linejoin:round; stroke-width:6; stroke-opacity:1; fill:none" points="261.419,382.894 261.419,529.134 283.465,529.134 283.465,382.894 261.419,382.894 "/>
<path clip-path="url(#clip052)" d="M288.977 402.369 L288.977 529.134 L311.023 529.134 L311.023 402.369 L288.977 402.369 L288.977 402.369  Z" fill="#83d89e" fill-rule="evenodd" fill-opacity="1"/>
<polyline clip-path="url(#clip052)" style="stroke:#000000; stroke-linecap:round; stroke-linejoin:round; stroke-width:6; stroke-opacity:1; fill:none" points="288.977,402.369 288.977,529.134 311.023,529.134 311.023,402.369 288.977,402.369 "/>
<path clip-path="url(#clip052)" d="M316.535 446.523 L316.535 529.134 L338.581 529.134 L338.581 446.523 L316.535 446.523 L316.535 446.523  Z" fill="#83d89e" fill-rule="evenodd" fill-opacity="1"/>
<polyline clip-path="url(#clip052)" style="stroke:#000000; stroke-linecap:round; stroke-linejoin:round; stroke-width:6; stroke-opacity:1; fill:none" points="316.535,446.523 316.535,529.134 338.581,529.134 338.581,446.523 316.535,446.523 "/>
<path clip-path="url(#clip052)" d="M344.093 519.605 L344.093 529.134 L366.139 529.134 L366.139 519.605 L344.093 519.605 L344.093 519.605  Z" fill="#83d89e" fill-rule="evenodd" fill-opacity="1"/>
<polyline clip-path="url(#clip052)" style="stroke:#000000; stroke-linecap:round; stroke-linejoin:round; stroke-width:6; stroke-opacity:1; fill:none" points="344.093,519.605 344.093,529.134 366.139,529.134 366.139,519.605 344.093,519.605 "/>
<path clip-path="url(#clip052)" d="M371.65 527.163 L371.65 529.134 L393.697 529.134 L393.697 527.163 L371.65 527.163 L371.65 527.163  Z" fill="#83d89e" fill-rule="evenodd" fill-opacity="1"/>
<polyline clip-path="url(#clip052)" style="stroke:#000000; stroke-linecap:round; stroke-linejoin:round; stroke-width:6; stroke-opacity:1; fill:none" points="371.65,527.163 371.65,529.134 393.697,529.134 393.697,527.163 371.65,527.163 "/>
<path clip-path="url(#clip052)" d="M399.208 528.61 L399.208 529.134 L421.255 529.134 L421.255 528.61 L399.208 528.61 L399.208 528.61  Z" fill="#83d89e" fill-rule="evenodd" fill-opacity="1"/>
<polyline clip-path="url(#clip052)" style="stroke:#000000; stroke-linecap:round; stroke-linejoin:round; stroke-width:6; stroke-opacity:1; fill:none" points="399.208,528.61 399.208,529.134 421.255,529.134 421.255,528.61 399.208,528.61 "/>
<path clip-path="url(#clip052)" d="M426.766 528.978 L426.766 529.134 L448.813 529.134 L448.813 528.978 L426.766 528.978 L426.766 528.978  Z" fill="#83d89e" fill-rule="evenodd" fill-opacity="1"/>
<polyline clip-path="url(#clip052)" style="stroke:#000000; stroke-linecap:round; stroke-linejoin:round; stroke-width:6; stroke-opacity:1; fill:none" points="426.766,528.978 426.766,529.134 448.813,529.134 448.813,528.978 426.766,528.978 "/>
<path clip-path="url(#clip052)" d="M454.324 529.078 L454.324 529.134 L476.37 529.134 L476.37 529.078 L454.324 529.078 L454.324 529.078  Z" fill="#83d89e" fill-rule="evenodd" fill-opacity="1"/>
<polyline clip-path="url(#clip052)" style="stroke:#000000; stroke-linecap:round; stroke-linejoin:round; stroke-width:6; stroke-opacity:1; fill:none" points="454.324,529.078 454.324,529.134 476.37,529.134 476.37,529.078 454.324,529.078 "/>
<path clip-path="url(#clip052)" d="M481.882 529.112 L481.882 529.134 L503.928 529.134 L503.928 529.112 L481.882 529.112 L481.882 529.112  Z" fill="#83d89e" fill-rule="evenodd" fill-opacity="1"/>
<polyline clip-path="url(#clip052)" style="stroke:#000000; stroke-linecap:round; stroke-linejoin:round; stroke-width:6; stroke-opacity:1; fill:none" points="481.882,529.112 481.882,529.134 503.928,529.134 503.928,529.112 481.882,529.112 "/>
<circle clip-path="url(#clip052)" style="fill:#83d89e; stroke:none; fill-opacity:0" cx="107.095" cy="515.535" r="2"/>
<circle clip-path="url(#clip052)" style="fill:#83d89e; stroke:none; fill-opacity:0" cx="134.653" cy="509.083" r="2"/>
<circle clip-path="url(#clip052)" style="fill:#83d89e; stroke:none; fill-opacity:0" cx="162.211" cy="499.029" r="2"/>
<circle clip-path="url(#clip052)" style="fill:#83d89e; stroke:none; fill-opacity:0" cx="189.768" cy="483.325" r="2"/>
<circle clip-path="url(#clip052)" style="fill:#83d89e; stroke:none; fill-opacity:0" cx="217.326" cy="458.755" r="2"/>
<circle clip-path="url(#clip052)" style="fill:#83d89e; stroke:none; fill-opacity:0" cx="244.884" cy="422.28" r="2"/>
<circle clip-path="url(#clip052)" style="fill:#83d89e; stroke:none; fill-opacity:0" cx="272.442" cy="382.894" r="2"/>
<circle clip-path="url(#clip052)" style="fill:#83d89e; stroke:none; fill-opacity:0" cx="300" cy="402.369" r="2"/>
<circle clip-path="url(#clip052)" style="fill:#83d89e; stroke:none; fill-opacity:0" cx="327.558" cy="446.523" r="2"/>
<circle clip-path="url(#clip052)" style="fill:#83d89e; stroke:none; fill-opacity:0" cx="355.116" cy="519.605" r="2"/>
<circle clip-path="url(#clip052)" style="fill:#83d89e; stroke:none; fill-opacity:0" cx="382.674" cy="527.163" r="2"/>
<circle clip-path="url(#clip052)" style="fill:#83d89e; stroke:none; fill-opacity:0" cx="410.232" cy="528.61" r="2"/>
<circle clip-path="url(#clip052)" style="fill:#83d89e; stroke:none; fill-opacity:0" cx="437.789" cy="528.978" r="2"/>
<circle clip-path="url(#clip052)" style="fill:#83d89e; stroke:none; fill-opacity:0" cx="465.347" cy="529.078" r="2"/>
<circle clip-path="url(#clip052)" style="fill:#83d89e; stroke:none; fill-opacity:0" cx="492.905" cy="529.112" r="2"/>
<path clip-path="url(#clip050)" d="M100.247 99.3925 Q100.247 100.078 99.9568 101.395 Q99.0346 105.111 95.5827 107.666 Q95.003 108.141 93.9753 108.747 Q95.2138 109.564 96.2941 111.066 Q97.9015 113.543 97.9015 116.889 Q97.9015 118.444 97.4799 120.341 Q96.2941 124.741 92.1308 127.903 Q87.9411 130.986 82.9609 130.986 Q80.2732 130.986 78.4287 129.564 Q76.6105 128.114 75.899 125.69 L72.2364 140.473 Q72.1573 140.841 71.683 140.841 L71.4195 140.841 Q70.8661 140.841 70.8661 140.209 L79.1928 107.008 Q79.7462 104.768 80.6421 102.66 Q81.538 100.552 82.7765 98.6547 Q84.0413 96.7575 85.4905 95.3609 Q86.9398 93.938 88.7316 93.1212 Q90.5234 92.278 92.4206 92.278 Q96.3995 92.278 98.6657 94.992 Q100.247 96.9156 100.247 99.3925 M97.2164 98.4439 Q97.2164 96.8102 96.5576 95.6771 Q95.2138 93.5164 92.3679 93.5164 Q90.6552 93.5164 89.0215 94.3069 Q87.4141 95.0711 86.1229 96.3886 Q84.8318 97.7061 83.7251 99.4979 Q82.6184 101.29 81.8015 103.24 Q81.011 105.163 80.484 107.271 L77.2429 120.341 Q76.9267 121.738 76.9267 122.976 Q76.9267 125.927 78.5604 127.851 Q80.1941 129.774 83.0136 129.774 Q86.7553 129.774 89.9701 126.981 Q92.7632 124.478 93.9226 120.077 Q94.5814 117.311 94.5814 115.387 Q94.5814 113.279 93.8172 111.645 Q93.2639 110.328 92.1835 109.537 Q90.1809 110.249 88.1519 110.249 Q87.1769 110.249 86.6499 110.222 Q86.1493 110.196 85.4115 110.091 Q84.7 109.985 84.3575 109.695 Q84.0413 109.406 84.0413 108.958 Q84.0413 108.694 84.094 108.589 Q84.1994 108.167 84.5419 107.877 Q84.8845 107.587 85.2797 107.456 Q85.675 107.298 86.3337 107.219 Q87.0188 107.139 87.4668 107.139 Q87.9148 107.113 88.6789 107.113 Q90.4707 107.113 92.2889 107.825 Q92.974 107.456 93.7118 106.797 Q96.057 104.61 96.8475 101.132 Q97.2164 99.8405 97.2164 98.4439 M90.5761 108.641 Q89.4694 108.352 88.6262 108.352 Q85.5432 108.352 85.3851 108.852 Q85.3851 108.905 85.4905 108.958 Q85.5959 108.984 85.8331 109.01 Q86.0966 109.01 86.3074 109.037 Q86.5445 109.063 86.9398 109.063 Q87.335 109.063 87.5459 109.063 Q87.783 109.063 88.2046 109.063 Q89.2586 109.063 90.5761 108.641 Z" fill="#83d89e" fill-rule="nonzero" fill-opacity="1" /><path clip-path="url(#clip050)" d="M116.085 122.185 Q116.138 121.527 117.166 121.527 L150.235 121.527 Q151.79 121.527 151.816 122.133 Q151.816 122.792 150.341 122.765 L117.534 122.765 Q116.085 122.792 116.085 122.185 M116.085 111.645 Q116.085 110.987 117.218 111.013 L150.182 111.013 Q151.79 111.013 151.816 111.645 Q151.816 112.251 150.446 112.251 L117.166 112.251 Q116.085 112.251 116.085 111.645 Z" fill="#83d89e" fill-rule="nonzero" fill-opacity="1" /><path clip-path="url(#clip050)" d="M172.631 113.121 Q172.631 105.19 174.634 100.868 Q177.427 94.4387 184.014 94.4387 Q185.411 94.4387 186.86 94.8339 Q188.336 95.2028 190.18 96.6521 Q192.051 98.1014 193.184 100.473 Q195.345 105.058 195.345 113.121 Q195.345 121 193.342 125.295 Q190.417 131.566 183.962 131.566 Q181.537 131.566 179.06 130.328 Q176.61 129.089 175.055 126.112 Q172.631 121.658 172.631 113.121 M177.11 112.462 Q177.11 120.604 177.69 123.846 Q178.349 127.35 180.141 128.878 Q181.959 130.38 183.962 130.38 Q186.122 130.38 187.914 128.773 Q189.732 127.139 190.286 123.635 Q190.892 120.183 190.865 112.462 Q190.865 104.952 190.338 101.948 Q189.627 98.4439 187.73 97.0473 Q185.859 95.6244 183.962 95.6244 Q183.25 95.6244 182.486 95.8352 Q181.748 96.046 180.668 96.6521 Q179.587 97.2581 178.744 98.7601 Q177.927 100.262 177.532 102.528 Q177.11 105.453 177.11 112.462 Z" fill="#83d89e" fill-rule="nonzero" fill-opacity="1" /><path clip-path="url(#clip050)" d="M200.172 129.511 Q199.356 128.641 199.356 127.508 Q199.356 126.375 200.172 125.558 Q200.989 124.715 202.228 124.715 Q203.413 124.715 204.204 125.506 Q205.021 126.27 205.021 127.535 Q205.021 128.773 204.151 129.59 Q203.308 130.38 202.228 130.38 Q200.989 130.38 200.172 129.511 Z" fill="#83d89e" fill-rule="nonzero" fill-opacity="1" /><path clip-path="url(#clip050)" d="M214.205 113.121 Q214.205 105.19 216.208 100.868 Q219.001 94.4387 225.589 94.4387 Q226.985 94.4387 228.435 94.8339 Q229.91 95.2028 231.755 96.6521 Q233.626 98.1014 234.759 100.473 Q236.919 105.058 236.919 113.121 Q236.919 121 234.917 125.295 Q231.992 131.566 225.536 131.566 Q223.112 131.566 220.635 130.328 Q218.184 129.089 216.63 126.112 Q214.205 121.658 214.205 113.121 M218.685 112.462 Q218.685 120.604 219.265 123.846 Q219.923 127.35 221.715 128.878 Q223.533 130.38 225.536 130.38 Q227.697 130.38 229.489 128.773 Q231.307 127.139 231.86 123.635 Q232.466 120.183 232.44 112.462 Q232.44 104.952 231.913 101.948 Q231.201 98.4439 229.304 97.0473 Q227.433 95.6244 225.536 95.6244 Q224.825 95.6244 224.06 95.8352 Q223.323 96.046 222.242 96.6521 Q221.162 97.2581 220.319 98.7601 Q219.502 100.262 219.107 102.528 Q218.685 105.453 218.685 112.462 Z" fill="#83d89e" fill-rule="nonzero" fill-opacity="1" /><path clip-path="url(#clip050)" d="M670.866 529.134 L1129.13 529.134 L1129.13 70.8661 L670.866 70.8661  Z" fill="#ffffff" fill-rule="evenodd" fill-opacity="1"/>
<defs>
  <clipPath id="clip053">
    <rect x="670" y="70" width="459" height="459"/>
  </clipPath>
</defs>
<polyline clip-path="url(#clip050)" style="stroke:#000000; stroke-linecap:round; stroke-linejoin:round; stroke-width:6; stroke-opacity:1; fill:none" points="670.866,529.134 1129.13,529.134 "/>
<polyline clip-path="url(#clip050)" style="stroke:#000000; stroke-linecap:round; stroke-linejoin:round; stroke-width:6; stroke-opacity:1; fill:none" points="900,529.134 900,70.8661 "/>
<path clip-path="url(#clip053)" d="M696.072 527.622 L696.072 529.134 L718.118 529.134 L718.118 527.622 L696.072 527.622 L696.072 527.622  Z" fill="#5fa3b4" fill-rule="evenodd" fill-opacity="0.3"/>
<polyline clip-path="url(#clip053)" style="stroke:#000000; stroke-linecap:round; stroke-linejoin:round; stroke-width:6; stroke-opacity:0.3; fill:none" points="696.072,527.622 696.072,529.134 718.118,529.134 718.118,527.622 696.072,527.622 "/>
<path clip-path="url(#clip053)" d="M723.63 526.533 L723.63 529.134 L745.676 529.134 L745.676 526.533 L723.63 526.533 L723.63 526.533  Z" fill="#5fa3b4" fill-rule="evenodd" fill-opacity="0.3"/>
<polyline clip-path="url(#clip053)" style="stroke:#000000; stroke-linecap:round; stroke-linejoin:round; stroke-width:6; stroke-opacity:0.3; fill:none" points="723.63,526.533 723.63,529.134 745.676,529.134 745.676,526.533 723.63,526.533 "/>
<path clip-path="url(#clip053)" d="M751.187 524.448 L751.187 529.134 L773.234 529.134 L773.234 524.448 L751.187 524.448 L751.187 524.448  Z" fill="#5fa3b4" fill-rule="evenodd" fill-opacity="0.3"/>
<polyline clip-path="url(#clip053)" style="stroke:#000000; stroke-linecap:round; stroke-linejoin:round; stroke-width:6; stroke-opacity:0.3; fill:none" points="751.187,524.448 751.187,529.134 773.234,529.134 773.234,524.448 751.187,524.448 "/>
<path clip-path="url(#clip053)" d="M778.745 520.221 L778.745 529.134 L800.792 529.134 L800.792 520.221 L778.745 520.221 L778.745 520.221  Z" fill="#5fa3b4" fill-rule="evenodd" fill-opacity="0.3"/>
<polyline clip-path="url(#clip053)" style="stroke:#000000; stroke-linecap:round; stroke-linejoin:round; stroke-width:6; stroke-opacity:0.3; fill:none" points="778.745,520.221 778.745,529.134 800.792,529.134 800.792,520.221 778.745,520.221 "/>
<path clip-path="url(#clip053)" d="M806.303 510.875 L806.303 529.134 L828.35 529.134 L828.35 510.875 L806.303 510.875 L806.303 510.875  Z" fill="#5fa3b4" fill-rule="evenodd" fill-opacity="0.3"/>
<polyline clip-path="url(#clip053)" style="stroke:#000000; stroke-linecap:round; stroke-linejoin:round; stroke-width:6; stroke-opacity:0.3; fill:none" points="806.303,510.875 806.303,529.134 828.35,529.134 828.35,510.875 806.303,510.875 "/>
<path clip-path="url(#clip053)" d="M833.861 487.552 L833.861 529.134 L855.907 529.134 L855.907 487.552 L833.861 487.552 L833.861 487.552  Z" fill="#5fa3b4" fill-rule="evenodd" fill-opacity="0.3"/>
<polyline clip-path="url(#clip053)" style="stroke:#000000; stroke-linecap:round; stroke-linejoin:round; stroke-width:6; stroke-opacity:0.3; fill:none" points="833.861,487.552 833.861,529.134 855.907,529.134 855.907,487.552 833.861,487.552 "/>
<path clip-path="url(#clip053)" d="M861.419 415.316 L861.419 529.134 L883.465 529.134 L883.465 415.316 L861.419 415.316 L861.419 415.316  Z" fill="#5fa3b4" fill-rule="evenodd" fill-opacity="0.3"/>
<polyline clip-path="url(#clip053)" style="stroke:#000000; stroke-linecap:round; stroke-linejoin:round; stroke-width:6; stroke-opacity:0.3; fill:none" points="861.419,415.316 861.419,529.134 883.465,529.134 883.465,415.316 861.419,415.316 "/>
<path clip-path="url(#clip053)" d="M888.977 134.488 L888.977 529.134 L911.023 529.134 L911.023 134.488 L888.977 134.488 L888.977 134.488  Z" fill="#5fa3b4" fill-rule="evenodd" fill-opacity="0.3"/>
<polyline clip-path="url(#clip053)" style="stroke:#000000; stroke-linecap:round; stroke-linejoin:round; stroke-width:6; stroke-opacity:0.3; fill:none" points="888.977,134.488 888.977,529.134 911.023,529.134 911.023,134.488 888.977,134.488 "/>
<path clip-path="url(#clip053)" d="M916.535 464.838 L916.535 529.134 L938.581 529.134 L938.581 464.838 L916.535 464.838 L916.535 464.838  Z" fill="#5fa3b4" fill-rule="evenodd" fill-opacity="0.3"/>
<polyline clip-path="url(#clip053)" style="stroke:#000000; stroke-linecap:round; stroke-linejoin:round; stroke-width:6; stroke-opacity:0.3; fill:none" points="916.535,464.838 916.535,529.134 938.581,529.134 938.581,464.838 916.535,464.838 "/>
<path clip-path="url(#clip053)" d="M944.093 525.426 L944.093 529.134 L966.139 529.134 L966.139 525.426 L944.093 525.426 L944.093 525.426  Z" fill="#5fa3b4" fill-rule="evenodd" fill-opacity="0.3"/>
<polyline clip-path="url(#clip053)" style="stroke:#000000; stroke-linecap:round; stroke-linejoin:round; stroke-width:6; stroke-opacity:0.3; fill:none" points="944.093,525.426 944.093,529.134 966.139,529.134 966.139,525.426 944.093,525.426 "/>
<path clip-path="url(#clip053)" d="M971.65 528.623 L971.65 529.134 L993.697 529.134 L993.697 528.623 L971.65 528.623 L971.65 528.623  Z" fill="#5fa3b4" fill-rule="evenodd" fill-opacity="0.3"/>
<polyline clip-path="url(#clip053)" style="stroke:#000000; stroke-linecap:round; stroke-linejoin:round; stroke-width:6; stroke-opacity:0.3; fill:none" points="971.65,528.623 971.65,529.134 993.697,529.134 993.697,528.623 971.65,528.623 "/>
<path clip-path="url(#clip053)" d="M999.208 529.032 L999.208 529.134 L1021.25 529.134 L1021.25 529.032 L999.208 529.032 L999.208 529.032  Z" fill="#5fa3b4" fill-rule="evenodd" fill-opacity="0.3"/>
<polyline clip-path="url(#clip053)" style="stroke:#000000; stroke-linecap:round; stroke-linejoin:round; stroke-width:6; stroke-opacity:0.3; fill:none" points="999.208,529.032 999.208,529.134 1021.25,529.134 1021.25,529.032 999.208,529.032 "/>
<path clip-path="url(#clip053)" d="M1026.77 529.11 L1026.77 529.134 L1048.81 529.134 L1048.81 529.11 L1026.77 529.11 L1026.77 529.11  Z" fill="#5fa3b4" fill-rule="evenodd" fill-opacity="0.3"/>
<polyline clip-path="url(#clip053)" style="stroke:#000000; stroke-linecap:round; stroke-linejoin:round; stroke-width:6; stroke-opacity:0.3; fill:none" points="1026.77,529.11 1026.77,529.134 1048.81,529.134 1048.81,529.11 1026.77,529.11 "/>
<path clip-path="url(#clip053)" d="M1054.32 529.127 L1054.32 529.134 L1076.37 529.134 L1076.37 529.127 L1054.32 529.127 L1054.32 529.127  Z" fill="#5fa3b4" fill-rule="evenodd" fill-opacity="0.3"/>
<polyline clip-path="url(#clip053)" style="stroke:#000000; stroke-linecap:round; stroke-linejoin:round; stroke-width:6; stroke-opacity:0.3; fill:none" points="1054.32,529.127 1054.32,529.134 1076.37,529.134 1076.37,529.127 1054.32,529.127 "/>
<path clip-path="url(#clip053)" d="M1081.88 529.131 L1081.88 529.134 L1103.93 529.134 L1103.93 529.131 L1081.88 529.131 L1081.88 529.131  Z" fill="#5fa3b4" fill-rule="evenodd" fill-opacity="0.3"/>
<polyline clip-path="url(#clip053)" style="stroke:#000000; stroke-linecap:round; stroke-linejoin:round; stroke-width:6; stroke-opacity:0.3; fill:none" points="1081.88,529.131 1081.88,529.134 1103.93,529.134 1103.93,529.131 1081.88,529.131 "/>
<circle clip-path="url(#clip053)" style="fill:#5fa3b4; stroke:none; fill-opacity:0" cx="707.095" cy="527.622" r="2"/>
<circle clip-path="url(#clip053)" style="fill:#5fa3b4; stroke:none; fill-opacity:0" cx="734.653" cy="526.533" r="2"/>
<circle clip-path="url(#clip053)" style="fill:#5fa3b4; stroke:none; fill-opacity:0" cx="762.211" cy="524.448" r="2"/>
<circle clip-path="url(#clip053)" style="fill:#5fa3b4; stroke:none; fill-opacity:0" cx="789.768" cy="520.221" r="2"/>
<circle clip-path="url(#clip053)" style="fill:#5fa3b4; stroke:none; fill-opacity:0" cx="817.326" cy="510.875" r="2"/>
<circle clip-path="url(#clip053)" style="fill:#5fa3b4; stroke:none; fill-opacity:0" cx="844.884" cy="487.552" r="2"/>
<circle clip-path="url(#clip053)" style="fill:#5fa3b4; stroke:none; fill-opacity:0" cx="872.442" cy="415.316" r="2"/>
<circle clip-path="url(#clip053)" style="fill:#5fa3b4; stroke:none; fill-opacity:0" cx="900" cy="134.488" r="2"/>
<circle clip-path="url(#clip053)" style="fill:#5fa3b4; stroke:none; fill-opacity:0" cx="927.558" cy="464.838" r="2"/>
<circle clip-path="url(#clip053)" style="fill:#5fa3b4; stroke:none; fill-opacity:0" cx="955.116" cy="525.426" r="2"/>
<circle clip-path="url(#clip053)" style="fill:#5fa3b4; stroke:none; fill-opacity:0" cx="982.674" cy="528.623" r="2"/>
<circle clip-path="url(#clip053)" style="fill:#5fa3b4; stroke:none; fill-opacity:0" cx="1010.23" cy="529.032" r="2"/>
<circle clip-path="url(#clip053)" style="fill:#5fa3b4; stroke:none; fill-opacity:0" cx="1037.79" cy="529.11" r="2"/>
<circle clip-path="url(#clip053)" style="fill:#5fa3b4; stroke:none; fill-opacity:0" cx="1065.35" cy="529.127" r="2"/>
<circle clip-path="url(#clip053)" style="fill:#5fa3b4; stroke:none; fill-opacity:0" cx="1092.91" cy="529.131" r="2"/>
<path clip-path="url(#clip053)" d="M696.072 529.132 L696.072 529.134 L718.118 529.134 L718.118 529.132 L696.072 529.132 L696.072 529.132  Z" fill="#4ab467" fill-rule="evenodd" fill-opacity="1"/>
<polyline clip-path="url(#clip053)" style="stroke:#000000; stroke-linecap:round; stroke-linejoin:round; stroke-width:6; stroke-opacity:1; fill:none" points="696.072,529.132 696.072,529.134 718.118,529.134 718.118,529.132 696.072,529.132 "/>
<path clip-path="url(#clip053)" d="M723.63 529.129 L723.63 529.134 L745.676 529.134 L745.676 529.129 L723.63 529.129 L723.63 529.129  Z" fill="#4ab467" fill-rule="evenodd" fill-opacity="1"/>
<polyline clip-path="url(#clip053)" style="stroke:#000000; stroke-linecap:round; stroke-linejoin:round; stroke-width:6; stroke-opacity:1; fill:none" points="723.63,529.129 723.63,529.134 745.676,529.134 745.676,529.129 723.63,529.129 "/>
<path clip-path="url(#clip053)" d="M751.187 529.121 L751.187 529.134 L773.234 529.134 L773.234 529.121 L751.187 529.121 L751.187 529.121  Z" fill="#4ab467" fill-rule="evenodd" fill-opacity="1"/>
<polyline clip-path="url(#clip053)" style="stroke:#000000; stroke-linecap:round; stroke-linejoin:round; stroke-width:6; stroke-opacity:1; fill:none" points="751.187,529.121 751.187,529.134 773.234,529.134 773.234,529.121 751.187,529.121 "/>
<path clip-path="url(#clip053)" d="M778.745 529.095 L778.745 529.134 L800.792 529.134 L800.792 529.095 L778.745 529.095 L778.745 529.095  Z" fill="#4ab467" fill-rule="evenodd" fill-opacity="1"/>
<polyline clip-path="url(#clip053)" style="stroke:#000000; stroke-linecap:round; stroke-linejoin:round; stroke-width:6; stroke-opacity:1; fill:none" points="778.745,529.095 778.745,529.134 800.792,529.134 800.792,529.095 778.745,529.095 "/>
<path clip-path="url(#clip053)" d="M806.303 528.973 L806.303 529.134 L828.35 529.134 L828.35 528.973 L806.303 528.973 L806.303 528.973  Z" fill="#4ab467" fill-rule="evenodd" fill-opacity="1"/>
<polyline clip-path="url(#clip053)" style="stroke:#000000; stroke-linecap:round; stroke-linejoin:round; stroke-width:6; stroke-opacity:1; fill:none" points="806.303,528.973 806.303,529.134 828.35,529.134 828.35,528.973 806.303,528.973 "/>
<path clip-path="url(#clip053)" d="M833.861 528.115 L833.861 529.134 L855.907 529.134 L855.907 528.115 L833.861 528.115 L833.861 528.115  Z" fill="#4ab467" fill-rule="evenodd" fill-opacity="1"/>
<polyline clip-path="url(#clip053)" style="stroke:#000000; stroke-linecap:round; stroke-linejoin:round; stroke-width:6; stroke-opacity:1; fill:none" points="833.861,528.115 833.861,529.134 855.907,529.134 855.907,528.115 833.861,528.115 "/>
<path clip-path="url(#clip053)" d="M861.419 516.308 L861.419 529.134 L883.465 529.134 L883.465 516.308 L861.419 516.308 L861.419 516.308  Z" fill="#4ab467" fill-rule="evenodd" fill-opacity="1"/>
<polyline clip-path="url(#clip053)" style="stroke:#000000; stroke-linecap:round; stroke-linejoin:round; stroke-width:6; stroke-opacity:1; fill:none" points="861.419,516.308 861.419,529.134 883.465,529.134 883.465,516.308 861.419,516.308 "/>
<path clip-path="url(#clip053)" d="M888.977 139.122 L888.977 529.134 L911.023 529.134 L911.023 139.122 L888.977 139.122 L888.977 139.122  Z" fill="#4ab467" fill-rule="evenodd" fill-opacity="1"/>
<polyline clip-path="url(#clip053)" style="stroke:#000000; stroke-linecap:round; stroke-linejoin:round; stroke-width:6; stroke-opacity:1; fill:none" points="888.977,139.122 888.977,529.134 911.023,529.134 911.023,139.122 888.977,139.122 "/>
<path clip-path="url(#clip053)" d="M916.535 307.187 L916.535 529.134 L938.581 529.134 L938.581 307.187 L916.535 307.187 L916.535 307.187  Z" fill="#4ab467" fill-rule="evenodd" fill-opacity="1"/>
<polyline clip-path="url(#clip053)" style="stroke:#000000; stroke-linecap:round; stroke-linejoin:round; stroke-width:6; stroke-opacity:1; fill:none" points="916.535,307.187 916.535,529.134 938.581,529.134 938.581,307.187 916.535,307.187 "/>
<path clip-path="url(#clip053)" d="M944.093 505.828 L944.093 529.134 L966.139 529.134 L966.139 505.828 L944.093 505.828 L944.093 505.828  Z" fill="#4ab467" fill-rule="evenodd" fill-opacity="1"/>
<polyline clip-path="url(#clip053)" style="stroke:#000000; stroke-linecap:round; stroke-linejoin:round; stroke-width:6; stroke-opacity:1; fill:none" points="944.093,505.828 944.093,529.134 966.139,529.134 966.139,505.828 944.093,505.828 "/>
<path clip-path="url(#clip053)" d="M971.65 525.084 L971.65 529.134 L993.697 529.134 L993.697 525.084 L971.65 525.084 L971.65 525.084  Z" fill="#4ab467" fill-rule="evenodd" fill-opacity="1"/>
<polyline clip-path="url(#clip053)" style="stroke:#000000; stroke-linecap:round; stroke-linejoin:round; stroke-width:6; stroke-opacity:1; fill:none" points="971.65,525.084 971.65,529.134 993.697,529.134 993.697,525.084 971.65,525.084 "/>
<path clip-path="url(#clip053)" d="M999.208 528.208 L999.208 529.134 L1021.25 529.134 L1021.25 528.208 L999.208 528.208 L999.208 528.208  Z" fill="#4ab467" fill-rule="evenodd" fill-opacity="1"/>
<polyline clip-path="url(#clip053)" style="stroke:#000000; stroke-linecap:round; stroke-linejoin:round; stroke-width:6; stroke-opacity:1; fill:none" points="999.208,528.208 999.208,529.134 1021.25,529.134 1021.25,528.208 999.208,528.208 "/>
<path clip-path="url(#clip053)" d="M1026.77 528.878 L1026.77 529.134 L1048.81 529.134 L1048.81 528.878 L1026.77 528.878 L1026.77 528.878  Z" fill="#4ab467" fill-rule="evenodd" fill-opacity="1"/>
<polyline clip-path="url(#clip053)" style="stroke:#000000; stroke-linecap:round; stroke-linejoin:round; stroke-width:6; stroke-opacity:1; fill:none" points="1026.77,528.878 1026.77,529.134 1048.81,529.134 1048.81,528.878 1026.77,528.878 "/>
<path clip-path="url(#clip053)" d="M1054.32 529.052 L1054.32 529.134 L1076.37 529.134 L1076.37 529.052 L1054.32 529.052 L1054.32 529.052  Z" fill="#4ab467" fill-rule="evenodd" fill-opacity="1"/>
<polyline clip-path="url(#clip053)" style="stroke:#000000; stroke-linecap:round; stroke-linejoin:round; stroke-width:6; stroke-opacity:1; fill:none" points="1054.32,529.052 1054.32,529.134 1076.37,529.134 1076.37,529.052 1054.32,529.052 "/>
<path clip-path="url(#clip053)" d="M1081.88 529.107 L1081.88 529.134 L1103.93 529.134 L1103.93 529.107 L1081.88 529.107 L1081.88 529.107  Z" fill="#4ab467" fill-rule="evenodd" fill-opacity="1"/>
<polyline clip-path="url(#clip053)" style="stroke:#000000; stroke-linecap:round; stroke-linejoin:round; stroke-width:6; stroke-opacity:1; fill:none" points="1081.88,529.107 1081.88,529.134 1103.93,529.134 1103.93,529.107 1081.88,529.107 "/>
<circle clip-path="url(#clip053)" style="fill:#4ab467; stroke:none; fill-opacity:0" cx="707.095" cy="529.132" r="2"/>
<circle clip-path="url(#clip053)" style="fill:#4ab467; stroke:none; fill-opacity:0" cx="734.653" cy="529.129" r="2"/>
<circle clip-path="url(#clip053)" style="fill:#4ab467; stroke:none; fill-opacity:0" cx="762.211" cy="529.121" r="2"/>
<circle clip-path="url(#clip053)" style="fill:#4ab467; stroke:none; fill-opacity:0" cx="789.768" cy="529.095" r="2"/>
<circle clip-path="url(#clip053)" style="fill:#4ab467; stroke:none; fill-opacity:0" cx="817.326" cy="528.973" r="2"/>
<circle clip-path="url(#clip053)" style="fill:#4ab467; stroke:none; fill-opacity:0" cx="844.884" cy="528.115" r="2"/>
<circle clip-path="url(#clip053)" style="fill:#4ab467; stroke:none; fill-opacity:0" cx="872.442" cy="516.308" r="2"/>
<circle clip-path="url(#clip053)" style="fill:#4ab467; stroke:none; fill-opacity:0" cx="900" cy="139.122" r="2"/>
<circle clip-path="url(#clip053)" style="fill:#4ab467; stroke:none; fill-opacity:0" cx="927.558" cy="307.187" r="2"/>
<circle clip-path="url(#clip053)" style="fill:#4ab467; stroke:none; fill-opacity:0" cx="955.116" cy="505.828" r="2"/>
<circle clip-path="url(#clip053)" style="fill:#4ab467; stroke:none; fill-opacity:0" cx="982.674" cy="525.084" r="2"/>
<circle clip-path="url(#clip053)" style="fill:#4ab467; stroke:none; fill-opacity:0" cx="1010.23" cy="528.208" r="2"/>
<circle clip-path="url(#clip053)" style="fill:#4ab467; stroke:none; fill-opacity:0" cx="1037.79" cy="528.878" r="2"/>
<circle clip-path="url(#clip053)" style="fill:#4ab467; stroke:none; fill-opacity:0" cx="1065.35" cy="529.052" r="2"/>
<circle clip-path="url(#clip053)" style="fill:#4ab467; stroke:none; fill-opacity:0" cx="1092.91" cy="529.107" r="2"/>
<path clip-path="url(#clip050)" d="M701.143 113.249 Q701.09 113.513 700.984 113.987 Q700.879 114.435 700.405 115.858 Q699.93 117.281 699.298 118.73 Q698.692 120.153 697.506 122.156 Q696.347 124.132 694.924 125.924 Q694.529 126.398 694.45 126.688 Q694.397 126.951 694.397 127.821 Q694.397 133.302 696.057 133.302 Q696.136 133.302 696.268 133.302 Q696.426 133.275 696.821 133.144 Q697.243 132.985 697.612 132.748 Q697.981 132.485 698.402 131.958 Q698.824 131.404 699.087 130.667 Q699.324 130.14 699.799 130.14 Q700.431 130.14 700.431 130.667 Q700.431 131.615 699.114 133.065 Q697.796 134.514 695.899 134.514 Q694.081 134.514 692.79 133.328 Q691.525 132.116 690.998 129.955 Q685.306 134.514 679.614 134.514 Q675.609 134.514 673.238 131.905 Q670.866 129.27 670.866 125.37 Q670.866 121.629 672.921 118.071 Q675.003 114.514 678.376 112.301 Q681.775 110.061 685.385 110.061 Q686.65 110.061 687.862 110.403 Q689.074 110.72 690.286 111.536 Q691.498 112.353 692.394 113.592 Q693.29 114.83 693.844 116.78 Q694.397 118.73 694.397 121.181 L694.397 124.527 Q697.875 120.127 699.693 113.829 Q699.957 112.88 700.115 112.775 Q700.22 112.696 700.484 112.696 Q700.747 112.696 700.905 112.854 Q701.09 112.986 701.116 113.117 L701.143 113.249 M690.787 128.559 Q690.682 127.636 690.682 122.524 Q690.682 121.549 690.682 121.022 Q690.682 120.469 690.629 119.415 Q690.576 118.361 690.471 117.702 Q690.392 117.044 690.207 116.095 Q690.023 115.146 689.759 114.54 Q689.496 113.934 689.074 113.249 Q688.679 112.564 688.152 112.169 Q687.651 111.774 686.913 111.51 Q686.202 111.247 685.332 111.247 Q684.252 111.247 683.119 111.642 Q682.012 112.011 680.589 113.196 Q679.166 114.356 677.981 116.2 Q676.742 118.15 675.794 121.734 Q674.871 125.291 674.871 127.426 Q674.871 130.113 676.11 131.721 Q677.348 133.302 679.72 133.302 Q685.385 133.302 690.787 128.559 Z" fill="#4ab467" fill-rule="nonzero" fill-opacity="1" /><path clip-path="url(#clip050)" d="M720.026 125.713 Q720.079 125.054 721.106 125.054 L754.176 125.054 Q755.731 125.054 755.757 125.66 Q755.757 126.319 754.281 126.293 L721.475 126.293 Q720.026 126.319 720.026 125.713 M720.026 115.173 Q720.026 114.514 721.159 114.54 L754.123 114.54 Q755.731 114.54 755.757 115.173 Q755.757 115.779 754.387 115.779 L721.106 115.779 Q720.026 115.779 720.026 115.173 Z" fill="#4ab467" fill-rule="nonzero" fill-opacity="1" /><path clip-path="url(#clip050)" d="M776.572 116.648 Q776.572 108.717 778.574 104.395 Q781.368 97.966 787.955 97.966 Q789.352 97.966 790.801 98.3613 Q792.277 98.7302 794.121 100.179 Q795.992 101.629 797.125 104 Q799.286 108.585 799.286 116.648 Q799.286 124.527 797.283 128.822 Q794.358 135.094 787.902 135.094 Q785.478 135.094 783.001 133.855 Q780.551 132.617 778.996 129.639 Q776.572 125.186 776.572 116.648 M781.051 115.99 Q781.051 124.132 781.631 127.373 Q782.29 130.877 784.082 132.406 Q785.9 133.908 787.902 133.908 Q790.063 133.908 791.855 132.3 Q793.673 130.667 794.226 127.162 Q794.832 123.71 794.806 115.99 Q794.806 108.48 794.279 105.476 Q793.568 101.971 791.67 100.575 Q789.8 99.1518 787.902 99.1518 Q787.191 99.1518 786.427 99.3626 Q785.689 99.5734 784.609 100.179 Q783.528 100.785 782.685 102.287 Q781.868 103.789 781.473 106.056 Q781.051 108.98 781.051 115.99 Z" fill="#4ab467" fill-rule="nonzero" fill-opacity="1" /><path clip-path="url(#clip050)" d="M804.113 133.038 Q803.296 132.169 803.296 131.036 Q803.296 129.903 804.113 129.086 Q804.93 128.242 806.169 128.242 Q807.354 128.242 808.145 129.033 Q808.962 129.797 808.962 131.062 Q808.962 132.3 808.092 133.117 Q807.249 133.908 806.169 133.908 Q804.93 133.908 804.113 133.038 Z" fill="#4ab467" fill-rule="nonzero" fill-opacity="1" /><path clip-path="url(#clip050)" d="M818.146 110.113 Q818.146 107.241 818.989 105.291 Q819.833 103.315 821.598 101.365 Q824.839 97.966 829.53 97.966 Q831.532 97.966 833.298 98.8092 Q835.089 99.6524 836.776 101.576 Q838.489 103.473 839.516 107.241 Q840.544 110.983 840.544 116.148 Q840.544 124.501 836.486 129.797 Q832.454 135.094 827 135.094 Q823.548 135.094 821.519 133.539 Q819.49 131.958 819.49 129.27 Q819.49 127.874 820.281 127.294 Q821.071 126.688 821.967 126.688 Q822.942 126.688 823.706 127.347 Q824.47 127.979 824.47 129.165 Q824.47 130.14 823.838 130.904 Q823.232 131.642 821.651 131.642 Q823.206 133.592 826.947 133.592 Q828.291 133.592 829.635 132.985 Q830.979 132.353 832.428 130.851 Q833.904 129.323 834.8 126.134 Q835.696 122.946 835.696 118.467 L835.696 116.754 Q833.535 122.156 828.95 122.156 Q824.418 122.156 821.282 118.677 Q818.146 115.199 818.146 110.113 M822.995 110.166 Q822.995 115.515 823.97 117.492 Q825.63 120.891 829.003 120.891 Q832.296 120.891 833.93 117.966 Q835.59 115.015 835.59 111.194 Q835.59 105.897 834.721 103.579 Q833.113 99.3099 829.53 99.3099 Q825.972 99.3099 824.128 102.709 Q822.995 104.712 822.995 110.166 Z" fill="#4ab467" fill-rule="nonzero" fill-opacity="1" /><path clip-path="url(#clip050)" d="M845.087 125.212 Q845.087 123.605 845.956 122.999 Q846.826 122.366 847.748 122.366 Q848.987 122.366 849.698 123.157 Q850.436 123.921 850.436 125.001 Q850.436 126.082 849.698 126.872 Q848.987 127.636 847.748 127.636 Q847.142 127.636 846.826 127.531 Q847.537 130.008 849.698 131.8 Q851.885 133.592 854.757 133.592 Q858.367 133.592 860.528 130.087 Q861.819 127.821 861.819 122.683 Q861.819 118.15 860.844 115.884 Q859.342 112.432 856.259 112.432 Q851.885 112.432 849.303 116.2 Q848.987 116.675 848.618 116.701 Q848.091 116.701 847.959 116.411 Q847.854 116.095 847.854 115.278 L847.854 99.3099 Q847.854 98.0187 848.381 98.0187 Q848.591 98.0187 849.039 98.1768 Q852.439 99.6788 856.207 99.7051 Q860.08 99.7051 863.558 98.1241 Q863.822 97.966 863.98 97.966 Q864.507 97.966 864.533 98.5721 Q864.533 98.7829 864.085 99.4153 Q863.664 100.021 862.742 100.838 Q861.819 101.629 860.634 102.393 Q859.448 103.157 857.709 103.684 Q855.996 104.185 854.099 104.185 Q851.833 104.185 849.514 103.473 L849.514 113.987 Q852.307 111.247 856.365 111.247 Q860.686 111.247 863.664 114.725 Q866.641 118.203 866.641 123.051 Q866.641 128.137 863.11 131.615 Q859.606 135.094 854.863 135.094 Q850.541 135.094 847.801 132.011 Q845.087 128.928 845.087 125.212 Z" fill="#4ab467" fill-rule="nonzero" fill-opacity="1" /><path clip-path="url(#clip050)" d="M1270.87 529.134 L1729.13 529.134 L1729.13 70.8661 L1270.87 70.8661  Z" fill="#ffffff" fill-rule="evenodd" fill-opacity="1"/>
<defs>
  <clipPath id="clip054">
    <rect x="1270" y="70" width="459" height="459"/>
  </clipPath>
</defs>
<polyline clip-path="url(#clip050)" style="stroke:#000000; stroke-linecap:round; stroke-linejoin:round; stroke-width:6; stroke-opacity:1; fill:none" points="1270.87,453.015 1729.13,453.015 "/>
<polyline clip-path="url(#clip050)" style="stroke:#000000; stroke-linecap:round; stroke-linejoin:round; stroke-width:6; stroke-opacity:1; fill:none" points="1346.99,529.134 1346.99,70.8661 "/>
<path clip-path="url(#clip054)" d="M1664.3 111.699 L1658.66 127.923 L1641.48 128.283 L1655.18 138.675 L1650.19 155.115 L1664.3 145.299 L1678.41 155.115 L1673.42 138.675 L1687.13 128.283 L1669.94 127.923 L1664.3 111.699 Z" fill="#000000" fill-rule="evenodd" fill-opacity="1" stroke="none"/>
<polyline clip-path="url(#clip054)" style="stroke:#000000; stroke-linecap:round; stroke-linejoin:round; stroke-width:4.2; stroke-opacity:1; fill:none" points="1286.03,390.305 1289.89,389.028 1293.58,387.656 1297.11,386.277 1300.49,384.792 1303.73,383.254 1306.85,381.671 1309.86,379.985 1312.75,378.249 1315.55,376.459 1318.25,374.611 1320.87,372.682 1323.41,370.655 1325.88,368.56 1328.28,366.497 1330.63,364.29 1332.91,362.02 1335.15,359.714 1337.35,357.35 1339.5,354.927 1341.62,352.503 1343.71,349.899 1345.77,347.338 1347.8,344.68 1349.82,342.117 1351.82,339.382 1353.81,336.627 1355.8,333.842 1357.77,331.004 1359.75,328.175 1361.74,325.28 1363.73,322.426 1365.73,319.547 1367.75,316.657 1369.79,313.806 1371.86,310.856 1373.95,307.921 1376.09,305.12 1378.27,302.091 1380.49,299.203 1382.77,296.391 1385.11,293.533 1387.52,290.648 1390,287.865 1392.58,284.981 1395.25,282.226 1398.02,279.464 1400.91,276.766 1403.93,274.077 1407.1,271.435 1410.42,268.579 1413.92,266.01 1417.61,263.428 1421.51,260.801 1425.63,258.5 1430.01,256.097 1434.67,253.587 1439.63,251.194 1444.91,248.926 1450.56,246.623 1456.6,244.379 1463.05,241.964 1469.97,239.876 1477.39,237.632 1485.33,235.596 1493.86,233.324 1502.99,231.493 1512.78,229.452 1523.27,227.444 1534.5,225.576 1546.49,223.768 1559.3,221.783 1572.95,220.133 1587.47,218.254 1602.88,216.773 1619.18,214.889 1636.4,213.225 1654.51,211.637 1673.49,209.745 1693.33,208.486 1713.97,206.818 "/>
<circle clip-path="url(#clip054)" cx="1286.03" cy="390.305" r="16.2" fill="#000000" fill-rule="evenodd" fill-opacity="1" stroke="none"/>
</svg>
