<?xml version="1.0" encoding="utf-8"?>
<svg xmlns="http://www.w3.org/2000/svg" xmlns:xlink="http://www.w3.org/1999/xlink" width="450" height="150" viewBox="0 0 1800 600">
<defs>
  <clipPath id="clip600">
    <rect x="0" y="0" width="1800" height="600"/>
  </clipPath>
</defs>
<path clip-path="url(#clip600)" d="M0 600 L1800 600 L1800 3.33067e-14 L0 3.33067e-14  Z" fill="#ffffff" fill-rule="evenodd" fill-opacity="1"/>
<defs>
  <clipPath id="clip601">
    <rect x="360" y="0" width="1261" height="600"/>
  </clipPath>
</defs>
<path clip-path="url(#clip600)" d="M70.8661 529.134 L529.134 529.134 L529.134 70.8661 L70.8661 70.8661  Z" fill="#ffffff" fill-rule="evenodd" fill-opacity="1"/>
<defs>
  <clipPath id="clip602">
    <rect x="70" y="70" width="459" height="459"/>
  </clipPath>
</defs>
<polyline clip-path="url(#clip600)" style="stroke:#000000; stroke-linecap:round; stroke-linejoin:round; stroke-width:6; stroke-opacity:1; fill:none" points="70.8661,529.134 529.134,529.134 "/>
<polyline clip-path="url(#clip600)" style="stroke:#000000; stroke-linecap:round; stroke-linejoin:round; stroke-width:6; stroke-opacity:1; fill:none" points="300,529.134 300,70.8661 "/>
<path clip-path="url(#clip602)" d="M96.0717 528.734 L96.0717 529.134 L118.118 529.134 L118.118 528.734 L96.0717 528.734 L96.0717 528.734  Z" fill="#5fa3b4" fill-rule="evenodd" fill-opacity="0.2"/>
<polyline clip-path="url(#clip602)" style="stroke:#000000; stroke-linecap:round; stroke-linejoin:round; stroke-width:6; stroke-opacity:0.2; fill:none" points="96.0717,528.734 96.0717,529.134 118.118,529.134 118.118,528.734 96.0717,528.734 "/>
<path clip-path="url(#clip602)" d="M123.63 527.103 L123.63 529.134 L145.676 529.134 L145.676 527.103 L123.63 527.103 L123.63 527.103  Z" fill="#5fa3b4" fill-rule="evenodd" fill-opacity="0.2"/>
<polyline clip-path="url(#clip602)" style="stroke:#000000; stroke-linecap:round; stroke-linejoin:round; stroke-width:6; stroke-opacity:0.2; fill:none" points="123.63,527.103 123.63,529.134 145.676,529.134 145.676,527.103 123.63,527.103 "/>
<path clip-path="url(#clip602)" d="M151.187 521.1 L151.187 529.134 L173.234 529.134 L173.234 521.1 L151.187 521.1 L151.187 521.1  Z" fill="#5fa3b4" fill-rule="evenodd" fill-opacity="0.2"/>
<polyline clip-path="url(#clip602)" style="stroke:#000000; stroke-linecap:round; stroke-linejoin:round; stroke-width:6; stroke-opacity:0.2; fill:none" points="151.187,521.1 151.187,529.134 173.234,529.134 173.234,521.1 151.187,521.1 "/>
<path clip-path="url(#clip602)" d="M178.745 504.388 L178.745 529.134 L200.792 529.134 L200.792 504.388 L178.745 504.388 L178.745 504.388  Z" fill="#5fa3b4" fill-rule="evenodd" fill-opacity="0.2"/>
<polyline clip-path="url(#clip602)" style="stroke:#000000; stroke-linecap:round; stroke-linejoin:round; stroke-width:6; stroke-opacity:0.2; fill:none" points="178.745,504.388 178.745,529.134 200.792,529.134 200.792,504.388 178.745,504.388 "/>
<path clip-path="url(#clip602)" d="M206.303 469.771 L206.303 529.134 L228.35 529.134 L228.35 469.771 L206.303 469.771 L206.303 469.771  Z" fill="#5fa3b4" fill-rule="evenodd" fill-opacity="0.2"/>
<polyline clip-path="url(#clip602)" style="stroke:#000000; stroke-linecap:round; stroke-linejoin:round; stroke-width:6; stroke-opacity:0.2; fill:none" points="206.303,469.771 206.303,529.134 228.35,529.134 228.35,469.771 206.303,469.771 "/>
<path clip-path="url(#clip602)" d="M233.861 418.23 L233.861 529.134 L255.907 529.134 L255.907 418.23 L233.861 418.23 L233.861 418.23  Z" fill="#5fa3b4" fill-rule="evenodd" fill-opacity="0.2"/>
<polyline clip-path="url(#clip602)" style="stroke:#000000; stroke-linecap:round; stroke-linejoin:round; stroke-width:6; stroke-opacity:0.2; fill:none" points="233.861,418.23 233.861,529.134 255.907,529.134 255.907,418.23 233.861,418.23 "/>
<path clip-path="url(#clip602)" d="M261.419 367.769 L261.419 529.134 L283.465 529.134 L283.465 367.769 L261.419 367.769 L261.419 367.769  Z" fill="#5fa3b4" fill-rule="evenodd" fill-opacity="0.2"/>
<polyline clip-path="url(#clip602)" style="stroke:#000000; stroke-linecap:round; stroke-linejoin:round; stroke-width:6; stroke-opacity:0.2; fill:none" points="261.419,367.769 261.419,529.134 283.465,529.134 283.465,367.769 261.419,367.769 "/>
<path clip-path="url(#clip602)" d="M288.977 346.284 L288.977 529.134 L311.023 529.134 L311.023 346.284 L288.977 346.284 L288.977 346.284  Z" fill="#5fa3b4" fill-rule="evenodd" fill-opacity="0.2"/>
<polyline clip-path="url(#clip602)" style="stroke:#000000; stroke-linecap:round; stroke-linejoin:round; stroke-width:6; stroke-opacity:0.2; fill:none" points="288.977,346.284 288.977,529.134 311.023,529.134 311.023,346.284 288.977,346.284 "/>
<path clip-path="url(#clip602)" d="M316.535 367.769 L316.535 529.134 L338.581 529.134 L338.581 367.769 L316.535 367.769 L316.535 367.769  Z" fill="#5fa3b4" fill-rule="evenodd" fill-opacity="0.2"/>
<polyline clip-path="url(#clip602)" style="stroke:#000000; stroke-linecap:round; stroke-linejoin:round; stroke-width:6; stroke-opacity:0.2; fill:none" points="316.535,367.769 316.535,529.134 338.581,529.134 338.581,367.769 316.535,367.769 "/>
<path clip-path="url(#clip602)" d="M344.093 418.23 L344.093 529.134 L366.139 529.134 L366.139 418.23 L344.093 418.23 L344.093 418.23  Z" fill="#5fa3b4" fill-rule="evenodd" fill-opacity="0.2"/>
<polyline clip-path="url(#clip602)" style="stroke:#000000; stroke-linecap:round; stroke-linejoin:round; stroke-width:6; stroke-opacity:0.2; fill:none" points="344.093,418.23 344.093,529.134 366.139,529.134 366.139,418.23 344.093,418.23 "/>
<path clip-path="url(#clip602)" d="M371.65 469.771 L371.65 529.134 L393.697 529.134 L393.697 469.771 L371.65 469.771 L371.65 469.771  Z" fill="#5fa3b4" fill-rule="evenodd" fill-opacity="0.2"/>
<polyline clip-path="url(#clip602)" style="stroke:#000000; stroke-linecap:round; stroke-linejoin:round; stroke-width:6; stroke-opacity:0.2; fill:none" points="371.65,469.771 371.65,529.134 393.697,529.134 393.697,469.771 371.65,469.771 "/>
<path clip-path="url(#clip602)" d="M399.208 504.388 L399.208 529.134 L421.255 529.134 L421.255 504.388 L399.208 504.388 L399.208 504.388  Z" fill="#5fa3b4" fill-rule="evenodd" fill-opacity="0.2"/>
<polyline clip-path="url(#clip602)" style="stroke:#000000; stroke-linecap:round; stroke-linejoin:round; stroke-width:6; stroke-opacity:0.2; fill:none" points="399.208,504.388 399.208,529.134 421.255,529.134 421.255,504.388 399.208,504.388 "/>
<path clip-path="url(#clip602)" d="M426.766 521.1 L426.766 529.134 L448.813 529.134 L448.813 521.1 L426.766 521.1 L426.766 521.1  Z" fill="#5fa3b4" fill-rule="evenodd" fill-opacity="0.2"/>
<polyline clip-path="url(#clip602)" style="stroke:#000000; stroke-linecap:round; stroke-linejoin:round; stroke-width:6; stroke-opacity:0.2; fill:none" points="426.766,521.1 426.766,529.134 448.813,529.134 448.813,521.1 426.766,521.1 "/>
<path clip-path="url(#clip602)" d="M454.324 527.103 L454.324 529.134 L476.37 529.134 L476.37 527.103 L454.324 527.103 L454.324 527.103  Z" fill="#5fa3b4" fill-rule="evenodd" fill-opacity="0.2"/>
<polyline clip-path="url(#clip602)" style="stroke:#000000; stroke-linecap:round; stroke-linejoin:round; stroke-width:6; stroke-opacity:0.2; fill:none" points="454.324,527.103 454.324,529.134 476.37,529.134 476.37,527.103 454.324,527.103 "/>
<path clip-path="url(#clip602)" d="M481.882 528.734 L481.882 529.134 L503.928 529.134 L503.928 528.734 L481.882 528.734 L481.882 528.734  Z" fill="#5fa3b4" fill-rule="evenodd" fill-opacity="0.2"/>
<polyline clip-path="url(#clip602)" style="stroke:#000000; stroke-linecap:round; stroke-linejoin:round; stroke-width:6; stroke-opacity:0.2; fill:none" points="481.882,528.734 481.882,529.134 503.928,529.134 503.928,528.734 481.882,528.734 "/>
<circle clip-path="url(#clip602)" style="fill:#5fa3b4; stroke:none; fill-opacity:0" cx="107.095" cy="528.734" r="2"/>
<circle clip-path="url(#clip602)" style="fill:#5fa3b4; stroke:none; fill-opacity:0" cx="134.653" cy="527.103" r="2"/>
<circle clip-path="url(#clip602)" style="fill:#5fa3b4; stroke:none; fill-opacity:0" cx="162.211" cy="521.1" r="2"/>
<circle clip-path="url(#clip602)" style="fill:#5fa3b4; stroke:none; fill-opacity:0" cx="189.768" cy="504.388" r="2"/>
<circle clip-path="url(#clip602)" style="fill:#5fa3b4; stroke:none; fill-opacity:0" cx="217.326" cy="469.771" r="2"/>
<circle clip-path="url(#clip602)" style="fill:#5fa3b4; stroke:none; fill-opacity:0" cx="244.884" cy="418.23" r="2"/>
<circle clip-path="url(#clip602)" style="fill:#5fa3b4; stroke:none; fill-opacity:0" cx="272.442" cy="367.769" r="2"/>
<circle clip-path="url(#clip602)" style="fill:#5fa3b4; stroke:none; fill-opacity:0" cx="300" cy="346.284" r="2"/>
<circle clip-path="url(#clip602)" style="fill:#5fa3b4; stroke:none; fill-opacity:0" cx="327.558" cy="367.769" r="2"/>
<circle clip-path="url(#clip602)" style="fill:#5fa3b4; stroke:none; fill-opacity:0" cx="355.116" cy="418.23" r="2"/>
<circle clip-path="url(#clip602)" style="fill:#5fa3b4; stroke:none; fill-opacity:0" cx="382.674" cy="469.771" r="2"/>
<circle clip-path="url(#clip602)" style="fill:#5fa3b4; stroke:none; fill-opacity:0" cx="410.232" cy="504.388" r="2"/>
<circle clip-path="url(#clip602)" style="fill:#5fa3b4; stroke:none; fill-opacity:0" cx="437.789" cy="521.1" r="2"/>
<circle clip-path="url(#clip602)" style="fill:#5fa3b4; stroke:none; fill-opacity:0" cx="465.347" cy="527.103" r="2"/>
<circle clip-path="url(#clip602)" style="fill:#5fa3b4; stroke:none; fill-opacity:0" cx="492.905" cy="528.734" r="2"/>
<path clip-path="url(#clip602)" d="M96.0717 529.057 L96.0717 529.134 L118.118 529.134 L118.118 529.057 L96.0717 529.057 L96.0717 529.057  Z" fill="#4ab467" fill-rule="evenodd" fill-opacity="1"/>
<polyline clip-path="url(#clip602)" style="stroke:#000000; stroke-linecap:round; stroke-linejoin:round; stroke-width:6; stroke-opacity:1; fill:none" points="96.0717,529.057 96.0717,529.134 118.118,529.134 118.118,529.057 96.0717,529.057 "/>
<path clip-path="url(#clip602)" d="M123.63 528.706 L123.63 529.134 L145.676 529.134 L145.676 528.706 L123.63 528.706 L123.63 528.706  Z" fill="#4ab467" fill-rule="evenodd" fill-opacity="1"/>
<polyline clip-path="url(#clip602)" style="stroke:#000000; stroke-linecap:round; stroke-linejoin:round; stroke-width:6; stroke-opacity:1; fill:none" points="123.63,528.706 123.63,529.134 145.676,529.134 145.676,528.706 123.63,528.706 "/>
<path clip-path="url(#clip602)" d="M151.187 527.264 L151.187 529.134 L173.234 529.134 L173.234 527.264 L151.187 527.264 L151.187 527.264  Z" fill="#4ab467" fill-rule="evenodd" fill-opacity="1"/>
<polyline clip-path="url(#clip602)" style="stroke:#000000; stroke-linecap:round; stroke-linejoin:round; stroke-width:6; stroke-opacity:1; fill:none" points="151.187,527.264 151.187,529.134 173.234,529.134 173.234,527.264 151.187,527.264 "/>
<path clip-path="url(#clip602)" d="M178.745 522.627 L178.745 529.134 L200.792 529.134 L200.792 522.627 L178.745 522.627 L178.745 522.627  Z" fill="#4ab467" fill-rule="evenodd" fill-opacity="1"/>
<polyline clip-path="url(#clip602)" style="stroke:#000000; stroke-linecap:round; stroke-linejoin:round; stroke-width:6; stroke-opacity:1; fill:none" points="178.745,522.627 178.745,529.134 200.792,529.134 200.792,522.627 178.745,522.627 "/>
<path clip-path="url(#clip602)" d="M206.303 510.964 L206.303 529.134 L228.35 529.134 L228.35 510.964 L206.303 510.964 L206.303 510.964  Z" fill="#4ab467" fill-rule="evenodd" fill-opacity="1"/>
<polyline clip-path="url(#clip602)" style="stroke:#000000; stroke-linecap:round; stroke-linejoin:round; stroke-width:6; stroke-opacity:1; fill:none" points="206.303,510.964 206.303,529.134 228.35,529.134 228.35,510.964 206.303,510.964 "/>
<path clip-path="url(#clip602)" d="M233.861 488.09 L233.861 529.134 L255.907 529.134 L255.907 488.09 L233.861 488.09 L233.861 488.09  Z" fill="#4ab467" fill-rule="evenodd" fill-opacity="1"/>
<polyline clip-path="url(#clip602)" style="stroke:#000000; stroke-linecap:round; stroke-linejoin:round; stroke-width:6; stroke-opacity:1; fill:none" points="233.861,488.09 233.861,529.134 255.907,529.134 255.907,488.09 233.861,488.09 "/>
<path clip-path="url(#clip602)" d="M261.419 452.633 L261.419 529.134 L283.465 529.134 L283.465 452.633 L261.419 452.633 L261.419 452.633  Z" fill="#4ab467" fill-rule="evenodd" fill-opacity="1"/>
<polyline clip-path="url(#clip602)" style="stroke:#000000; stroke-linecap:round; stroke-linejoin:round; stroke-width:6; stroke-opacity:1; fill:none" points="261.419,452.633 261.419,529.134 283.465,529.134 283.465,452.633 261.419,452.633 "/>
<path clip-path="url(#clip602)" d="M288.977 410.853 L288.977 529.134 L311.023 529.134 L311.023 410.853 L288.977 410.853 L288.977 410.853  Z" fill="#4ab467" fill-rule="evenodd" fill-opacity="1"/>
<polyline clip-path="url(#clip602)" style="stroke:#000000; stroke-linecap:round; stroke-linejoin:round; stroke-width:6; stroke-opacity:1; fill:none" points="288.977,410.853 288.977,529.134 311.023,529.134 311.023,410.853 288.977,410.853 "/>
<path clip-path="url(#clip602)" d="M316.535 375.884 L316.535 529.134 L338.581 529.134 L338.581 375.884 L316.535 375.884 L316.535 375.884  Z" fill="#4ab467" fill-rule="evenodd" fill-opacity="1"/>
<polyline clip-path="url(#clip602)" style="stroke:#000000; stroke-linecap:round; stroke-linejoin:round; stroke-width:6; stroke-opacity:1; fill:none" points="316.535,375.884 316.535,529.134 338.581,529.134 338.581,375.884 316.535,375.884 "/>
<path clip-path="url(#clip602)" d="M344.093 363.358 L344.093 529.134 L366.139 529.134 L366.139 363.358 L344.093 363.358 L344.093 363.358  Z" fill="#4ab467" fill-rule="evenodd" fill-opacity="1"/>
<polyline clip-path="url(#clip602)" style="stroke:#000000; stroke-linecap:round; stroke-linejoin:round; stroke-width:6; stroke-opacity:1; fill:none" points="344.093,363.358 344.093,529.134 366.139,529.134 366.139,363.358 344.093,363.358 "/>
<path clip-path="url(#clip602)" d="M371.65 382.135 L371.65 529.134 L393.697 529.134 L393.697 382.135 L371.65 382.135 L371.65 382.135  Z" fill="#4ab467" fill-rule="evenodd" fill-opacity="1"/>
<polyline clip-path="url(#clip602)" style="stroke:#000000; stroke-linecap:round; stroke-linejoin:round; stroke-width:6; stroke-opacity:1; fill:none" points="371.65,382.135 371.65,529.134 393.697,529.134 393.697,382.135 371.65,382.135 "/>
<path clip-path="url(#clip602)" d="M399.208 425.77 L399.208 529.134 L421.255 529.134 L421.255 425.77 L399.208 425.77 L399.208 425.77  Z" fill="#4ab467" fill-rule="evenodd" fill-opacity="1"/>
<polyline clip-path="url(#clip602)" style="stroke:#000000; stroke-linecap:round; stroke-linejoin:round; stroke-width:6; stroke-opacity:1; fill:none" points="399.208,425.77 399.208,529.134 421.255,529.134 421.255,425.77 399.208,425.77 "/>
<path clip-path="url(#clip602)" d="M426.766 473.68 L426.766 529.134 L448.813 529.134 L448.813 473.68 L426.766 473.68 L426.766 473.68  Z" fill="#4ab467" fill-rule="evenodd" fill-opacity="1"/>
<polyline clip-path="url(#clip602)" style="stroke:#000000; stroke-linecap:round; stroke-linejoin:round; stroke-width:6; stroke-opacity:1; fill:none" points="426.766,473.68 426.766,529.134 448.813,529.134 448.813,473.68 426.766,473.68 "/>
<path clip-path="url(#clip602)" d="M454.324 506.902 L454.324 529.134 L476.37 529.134 L476.37 506.902 L454.324 506.902 L454.324 506.902  Z" fill="#4ab467" fill-rule="evenodd" fill-opacity="1"/>
<polyline clip-path="url(#clip602)" style="stroke:#000000; stroke-linecap:round; stroke-linejoin:round; stroke-width:6; stroke-opacity:1; fill:none" points="454.324,506.902 454.324,529.134 476.37,529.134 476.37,506.902 454.324,506.902 "/>
<path clip-path="url(#clip602)" d="M481.882 522.552 L481.882 529.134 L503.928 529.134 L503.928 522.552 L481.882 522.552 L481.882 522.552  Z" fill="#4ab467" fill-rule="evenodd" fill-opacity="1"/>
<polyline clip-path="url(#clip602)" style="stroke:#000000; stroke-linecap:round; stroke-linejoin:round; stroke-width:6; stroke-opacity:1; fill:none" points="481.882,522.552 481.882,529.134 503.928,529.134 503.928,522.552 481.882,522.552 "/>
<circle clip-path="url(#clip602)" style="fill:#4ab467; stroke:none; fill-opacity:0" cx="107.095" cy="529.057" r="2"/>
<circle clip-path="url(#clip602)" style="fill:#4ab467; stroke:none; fill-opacity:0" cx="134.653" cy="528.706" r="2"/>
<circle clip-path="url(#clip602)" style="fill:#4ab467; stroke:none; fill-opacity:0" cx="162.211" cy="527.264" r="2"/>
<circle clip-path="url(#clip602)" style="fill:#4ab467; stroke:none; fill-opacity:0" cx="189.768" cy="522.627" r="2"/>
<circle clip-path="url(#clip602)" style="fill:#4ab467; stroke:none; fill-opacity:0" cx="217.326" cy="510.964" r="2"/>
<circle clip-path="url(#clip602)" style="fill:#4ab467; stroke:none; fill-opacity:0" cx="244.884" cy="488.09" r="2"/>
<circle clip-path="url(#clip602)" style="fill:#4ab467; stroke:none; fill-opacity:0" cx="272.442" cy="452.633" r="2"/>
<circle clip-path="url(#clip602)" style="fill:#4ab467; stroke:none; fill-opacity:0" cx="300" cy="410.853" r="2"/>
<circle clip-path="url(#clip602)" style="fill:#4ab467; stroke:none; fill-opacity:0" cx="327.558" cy="375.884" r="2"/>
<circle clip-path="url(#clip602)" style="fill:#4ab467; stroke:none; fill-opacity:0" cx="355.116" cy="363.358" r="2"/>
<circle clip-path="url(#clip602)" style="fill:#4ab467; stroke:none; fill-opacity:0" cx="382.674" cy="382.135" r="2"/>
<circle clip-path="url(#clip602)" style="fill:#4ab467; stroke:none; fill-opacity:0" cx="410.232" cy="425.77" r="2"/>
<circle clip-path="url(#clip602)" style="fill:#4ab467; stroke:none; fill-opacity:0" cx="437.789" cy="473.68" r="2"/>
<circle clip-path="url(#clip602)" style="fill:#4ab467; stroke:none; fill-opacity:0" cx="465.347" cy="506.902" r="2"/>
<circle clip-path="url(#clip602)" style="fill:#4ab467; stroke:none; fill-opacity:0" cx="492.905" cy="522.552" r="2"/>
<path clip-path="url(#clip600)" d="M124.056 113.507 Q124.003 113.77 123.898 114.245 Q123.792 114.693 123.318 116.116 Q122.844 117.539 122.211 118.988 Q121.605 120.411 120.42 122.413 Q119.26 124.39 117.837 126.181 Q117.442 126.656 117.363 126.946 Q117.31 127.209 117.31 128.079 Q117.31 133.56 118.97 133.56 Q119.049 133.56 119.181 133.56 Q119.339 133.533 119.735 133.401 Q120.156 133.243 120.525 133.006 Q120.894 132.743 121.316 132.216 Q121.737 131.662 122.001 130.924 Q122.238 130.397 122.712 130.397 Q123.345 130.397 123.345 130.924 Q123.345 131.873 122.027 133.322 Q120.709 134.772 118.812 134.772 Q116.994 134.772 115.703 133.586 Q114.438 132.374 113.911 130.213 Q108.219 134.772 102.528 134.772 Q98.5226 134.772 96.1511 132.163 Q93.7795 129.528 93.7795 125.628 Q93.7795 121.886 95.8348 118.329 Q97.9165 114.772 101.289 112.558 Q104.689 110.319 108.299 110.319 Q109.563 110.319 110.775 110.661 Q111.988 110.977 113.2 111.794 Q114.412 112.611 115.308 113.85 Q116.204 115.088 116.757 117.038 Q117.31 118.988 117.31 121.438 L117.31 124.785 Q120.789 120.384 122.607 114.087 Q122.87 113.138 123.028 113.033 Q123.134 112.954 123.397 112.954 Q123.661 112.954 123.819 113.112 Q124.003 113.243 124.03 113.375 L124.056 113.507 M113.7 128.816 Q113.595 127.894 113.595 122.782 Q113.595 121.807 113.595 121.28 Q113.595 120.727 113.542 119.673 Q113.49 118.619 113.384 117.96 Q113.305 117.301 113.121 116.353 Q112.936 115.404 112.673 114.798 Q112.409 114.192 111.988 113.507 Q111.592 112.822 111.065 112.427 Q110.565 112.031 109.827 111.768 Q109.115 111.504 108.246 111.504 Q107.165 111.504 106.032 111.9 Q104.926 112.269 103.503 113.454 Q102.08 114.614 100.894 116.458 Q99.6556 118.408 98.707 121.992 Q97.7848 125.549 97.7848 127.683 Q97.7848 130.371 99.0232 131.978 Q100.262 133.56 102.633 133.56 Q108.299 133.56 113.7 128.816 Z" fill="#4ab467" fill-rule="nonzero" fill-opacity="1" /><path clip-path="url(#clip600)" d="M142.939 125.971 Q142.992 125.312 144.02 125.312 L177.089 125.312 Q178.644 125.312 178.67 125.918 Q178.67 126.577 177.195 126.55 L144.389 126.55 Q142.939 126.577 142.939 125.971 M142.939 115.431 Q142.939 114.772 144.072 114.798 L177.037 114.798 Q178.644 114.798 178.67 115.431 Q178.67 116.037 177.3 116.037 L144.02 116.037 Q142.939 116.037 142.939 115.431 Z" fill="#4ab467" fill-rule="nonzero" fill-opacity="1" /><path clip-path="url(#clip600)" d="M199.485 116.906 Q199.485 108.975 201.488 104.653 Q204.281 98.2238 210.868 98.2238 Q212.265 98.2238 213.714 98.6191 Q215.19 98.988 217.034 100.437 Q218.905 101.887 220.038 104.258 Q222.199 108.843 222.199 116.906 Q222.199 124.785 220.196 129.08 Q217.272 135.351 210.816 135.351 Q208.392 135.351 205.915 134.113 Q203.464 132.874 201.909 129.897 Q199.485 125.444 199.485 116.906 M203.965 116.247 Q203.965 124.39 204.544 127.631 Q205.203 131.135 206.995 132.664 Q208.813 134.166 210.816 134.166 Q212.976 134.166 214.768 132.558 Q216.586 130.924 217.14 127.42 Q217.746 123.968 217.72 116.247 Q217.72 108.738 217.193 105.734 Q216.481 102.229 214.584 100.833 Q212.713 99.4096 210.816 99.4096 Q210.104 99.4096 209.34 99.6204 Q208.602 99.8312 207.522 100.437 Q206.442 101.043 205.598 102.545 Q204.782 104.047 204.386 106.313 Q203.965 109.238 203.965 116.247 Z" fill="#4ab467" fill-rule="nonzero" fill-opacity="1" /><path clip-path="url(#clip600)" d="M227.027 133.296 Q226.21 132.426 226.21 131.293 Q226.21 130.16 227.027 129.343 Q227.843 128.5 229.082 128.5 Q230.268 128.5 231.058 129.291 Q231.875 130.055 231.875 131.32 Q231.875 132.558 231.005 133.375 Q230.162 134.166 229.082 134.166 Q227.843 134.166 227.027 133.296 Z" fill="#4ab467" fill-rule="nonzero" fill-opacity="1" /><path clip-path="url(#clip600)" d="M241.06 108.79 L242.825 97.6968 L244.169 97.6968 Q244.327 98.3556 244.591 98.6454 Q244.88 98.9353 246.409 99.1724 Q247.963 99.4096 251.099 99.4096 L264.195 99.4096 Q264.195 100.648 263.721 101.307 L256.422 111.557 Q254.103 114.798 253.075 120.78 Q252.469 124.785 252.496 129.633 L252.496 132.374 Q252.496 135.351 249.992 135.351 Q247.515 135.351 247.515 132.374 Q247.515 122.071 254.156 112.084 Q254.867 111.056 257.476 107.394 Q260.111 103.731 260.216 103.573 L249.044 103.573 Q244.143 103.573 243.747 103.889 Q243.22 104.363 242.404 108.79 L241.06 108.79 Z" fill="#4ab467" fill-rule="nonzero" fill-opacity="1" /><path clip-path="url(#clip600)" d="M670.866 529.134 L1129.13 529.134 L1129.13 70.8661 L670.866 70.8661  Z" fill="#ffffff" fill-rule="evenodd" fill-opacity="1"/>
<defs>
  <clipPath id="clip603">
    <rect x="670" y="70" width="459" height="459"/>
  </clipPath>
</defs>
<polyline clip-path="url(#clip600)" style="stroke:#000000; stroke-linecap:round; stroke-linejoin:round; stroke-width:6; stroke-opacity:1; fill:none" points="670.866,529.134 1129.13,529.134 "/>
<polyline clip-path="url(#clip600)" style="stroke:#000000; stroke-linecap:round; stroke-linejoin:round; stroke-width:6; stroke-opacity:1; fill:none" points="900,529.134 900,70.8661 "/>
<polyline clip-path="url(#clip603)" style="stroke:#5fa3b4; stroke-linecap:round; stroke-linejoin:round; stroke-width:3; stroke-opacity:1; fill:none" points="212.598,501.286 1587.4,501.286 "/>
<polyline clip-path="url(#clip603)" style="stroke:#000000; stroke-linecap:round; stroke-linejoin:round; stroke-width:4.2; stroke-opacity:1; fill:none" points="683.836,523.788 714.717,523.263 745.597,522.651 776.478,521.811 807.358,520.61 838.239,518.828 869.119,515.931 900,511.119 930.881,502.686 961.761,487.507 992.642,460.173 1023.52,412.812 1054.4,336.911 1085.28,224.339 1116.16,70.8661 "/>
<polyline clip-path="url(#clip603)" style="stroke:#e1c67c; stroke-linecap:round; stroke-linejoin:round; stroke-width:4.2; stroke-opacity:1; fill:none" stroke-dasharray="2, 4" points="683.836,528.406 714.717,527.981 745.597,527.306 776.478,526.238 807.358,524.544 838.239,521.861 869.119,517.609 900,510.871 930.881,500.193 961.761,483.273 992.642,456.46 1023.52,413.971 1054.4,346.64 1085.28,239.944 1116.16,70.8661 "/>
<path clip-path="url(#clip600)" d="M723.16 99.3925 Q723.16 100.078 722.87 101.395 Q721.948 105.111 718.496 107.666 Q717.916 108.141 716.889 108.747 Q718.127 109.564 719.208 111.066 Q720.815 113.543 720.815 116.889 Q720.815 118.444 720.393 120.341 Q719.208 124.741 715.044 127.903 Q710.854 130.986 705.874 130.986 Q703.187 130.986 701.342 129.564 Q699.524 128.114 698.812 125.69 L695.15 140.473 Q695.071 140.841 694.596 140.841 L694.333 140.841 Q693.78 140.841 693.78 140.209 L702.106 107.008 Q702.66 104.768 703.555 102.66 Q704.451 100.552 705.69 98.6547 Q706.955 96.7575 708.404 95.3609 Q709.853 93.938 711.645 93.1212 Q713.437 92.278 715.334 92.278 Q719.313 92.278 721.579 94.992 Q723.16 96.9156 723.16 99.3925 M720.13 98.4439 Q720.13 96.8102 719.471 95.6771 Q718.127 93.5164 715.281 93.5164 Q713.569 93.5164 711.935 94.3069 Q710.327 95.0711 709.036 96.3886 Q707.745 97.7061 706.638 99.4979 Q705.532 101.29 704.715 103.24 Q703.924 105.163 703.397 107.271 L700.156 120.341 Q699.84 121.738 699.84 122.976 Q699.84 125.927 701.474 127.851 Q703.108 129.774 705.927 129.774 Q709.669 129.774 712.883 126.981 Q715.677 124.478 716.836 120.077 Q717.495 117.311 717.495 115.387 Q717.495 113.279 716.731 111.645 Q716.177 110.328 715.097 109.537 Q713.094 110.249 711.065 110.249 Q710.09 110.249 709.563 110.222 Q709.063 110.196 708.325 110.091 Q707.613 109.985 707.271 109.695 Q706.955 109.406 706.955 108.958 Q706.955 108.694 707.007 108.589 Q707.113 108.167 707.455 107.877 Q707.798 107.587 708.193 107.456 Q708.588 107.298 709.247 107.219 Q709.932 107.139 710.38 107.139 Q710.828 107.113 711.592 107.113 Q713.384 107.113 715.202 107.825 Q715.887 107.456 716.625 106.797 Q718.97 104.61 719.761 101.132 Q720.13 99.8405 720.13 98.4439 M713.49 108.641 Q712.383 108.352 711.54 108.352 Q708.457 108.352 708.299 108.852 Q708.299 108.905 708.404 108.958 Q708.509 108.984 708.746 109.01 Q709.01 109.01 709.221 109.037 Q709.458 109.063 709.853 109.063 Q710.248 109.063 710.459 109.063 Q710.696 109.063 711.118 109.063 Q712.172 109.063 713.49 108.641 Z" fill="#e1c67c" fill-rule="nonzero" fill-opacity="1" /><path clip-path="url(#clip600)" d="M738.999 122.185 Q739.051 121.527 740.079 121.527 L773.149 121.527 Q774.703 121.527 774.73 122.133 Q774.73 122.792 773.254 122.765 L740.448 122.765 Q738.999 122.792 738.999 122.185 M738.999 111.645 Q738.999 110.987 740.132 111.013 L773.096 111.013 Q774.703 111.013 774.73 111.645 Q774.73 112.251 773.359 112.251 L740.079 112.251 Q738.999 112.251 738.999 111.645 Z" fill="#e1c67c" fill-rule="nonzero" fill-opacity="1" /><path clip-path="url(#clip600)" d="M795.544 113.121 Q795.544 105.19 797.547 100.868 Q800.34 94.4387 806.928 94.4387 Q808.324 94.4387 809.773 94.8339 Q811.249 95.2028 813.094 96.6521 Q814.964 98.1014 816.097 100.473 Q818.258 105.058 818.258 113.121 Q818.258 121 816.256 125.295 Q813.331 131.566 806.875 131.566 Q804.451 131.566 801.974 130.328 Q799.523 129.089 797.969 126.112 Q795.544 121.658 795.544 113.121 M800.024 112.462 Q800.024 120.604 800.604 123.846 Q801.262 127.35 803.054 128.878 Q804.872 130.38 806.875 130.38 Q809.036 130.38 810.827 128.773 Q812.646 127.139 813.199 123.635 Q813.805 120.183 813.779 112.462 Q813.779 104.952 813.252 101.948 Q812.54 98.4439 810.643 97.0473 Q808.772 95.6244 806.875 95.6244 Q806.163 95.6244 805.399 95.8352 Q804.661 96.046 803.581 96.6521 Q802.501 97.2581 801.658 98.7601 Q800.841 100.262 800.445 102.528 Q800.024 105.453 800.024 112.462 Z" fill="#e1c67c" fill-rule="nonzero" fill-opacity="1" /><path clip-path="url(#clip600)" d="M823.086 129.511 Q822.269 128.641 822.269 127.508 Q822.269 126.375 823.086 125.558 Q823.903 124.715 825.141 124.715 Q826.327 124.715 827.117 125.506 Q827.934 126.27 827.934 127.535 Q827.934 128.773 827.065 129.59 Q826.221 130.38 825.141 130.38 Q823.903 130.38 823.086 129.511 Z" fill="#e1c67c" fill-rule="nonzero" fill-opacity="1" /><path clip-path="url(#clip600)" d="M837.119 121.685 Q837.119 120.077 837.988 119.471 Q838.858 118.839 839.78 118.839 Q841.019 118.839 841.73 119.63 Q842.468 120.394 842.468 121.474 Q842.468 122.554 841.73 123.345 Q841.019 124.109 839.78 124.109 Q839.174 124.109 838.858 124.004 Q839.569 126.481 841.73 128.272 Q843.917 130.064 846.789 130.064 Q850.399 130.064 852.56 126.56 Q853.851 124.294 853.851 119.155 Q853.851 114.623 852.876 112.357 Q851.374 108.905 848.291 108.905 Q843.917 108.905 841.335 112.673 Q841.019 113.147 840.65 113.174 Q840.123 113.174 839.991 112.884 Q839.886 112.568 839.886 111.751 L839.886 95.7825 Q839.886 94.4914 840.413 94.4914 Q840.623 94.4914 841.071 94.6495 Q844.471 96.1514 848.239 96.1778 Q852.112 96.1778 855.59 94.5968 Q855.854 94.4387 856.012 94.4387 Q856.539 94.4387 856.565 95.0447 Q856.565 95.2555 856.117 95.8879 Q855.696 96.494 854.773 97.3108 Q853.851 98.1014 852.665 98.8655 Q851.48 99.6297 849.741 100.157 Q848.028 100.657 846.131 100.657 Q843.864 100.657 841.546 99.9459 L841.546 110.46 Q844.339 107.719 848.397 107.719 Q852.718 107.719 855.696 111.197 Q858.673 114.676 858.673 119.524 Q858.673 124.61 855.142 128.088 Q851.638 131.566 846.895 131.566 Q842.573 131.566 839.833 128.483 Q837.119 125.4 837.119 121.685 Z" fill="#e1c67c" fill-rule="nonzero" fill-opacity="1" /><path clip-path="url(#clip600)" d="M1270.87 529.134 L1729.13 529.134 L1729.13 70.8661 L1270.87 70.8661  Z" fill="#ffffff" fill-rule="evenodd" fill-opacity="1"/>
<defs>
  <clipPath id="clip604">
    <rect x="1270" y="70" width="459" height="459"/>
  </clipPath>
</defs>
<polyline clip-path="url(#clip600)" style="stroke:#000000; stroke-linecap:round; stroke-linejoin:round; stroke-width:6; stroke-opacity:1; fill:none" points="1270.87,529.134 1729.13,529.134 "/>
<polyline clip-path="url(#clip600)" style="stroke:#000000; stroke-linecap:round; stroke-linejoin:round; stroke-width:6; stroke-opacity:1; fill:none" points="1500,529.134 1500,70.8661 "/>
<path clip-path="url(#clip604)" d="M1296.07 528.734 L1296.07 529.134 L1318.12 529.134 L1318.12 528.734 L1296.07 528.734 L1296.07 528.734  Z" fill="#5fa3b4" fill-rule="evenodd" fill-opacity="0.2"/>
<polyline clip-path="url(#clip604)" style="stroke:#000000; stroke-linecap:round; stroke-linejoin:round; stroke-width:6; stroke-opacity:0.2; fill:none" points="1296.07,528.734 1296.07,529.134 1318.12,529.134 1318.12,528.734 1296.07,528.734 "/>
<path clip-path="url(#clip604)" d="M1323.63 527.103 L1323.63 529.134 L1345.68 529.134 L1345.68 527.103 L1323.63 527.103 L1323.63 527.103  Z" fill="#5fa3b4" fill-rule="evenodd" fill-opacity="0.2"/>
<polyline clip-path="url(#clip604)" style="stroke:#000000; stroke-linecap:round; stroke-linejoin:round; stroke-width:6; stroke-opacity:0.2; fill:none" points="1323.63,527.103 1323.63,529.134 1345.68,529.134 1345.68,527.103 1323.63,527.103 "/>
<path clip-path="url(#clip604)" d="M1351.19 521.1 L1351.19 529.134 L1373.23 529.134 L1373.23 521.1 L1351.19 521.1 L1351.19 521.1  Z" fill="#5fa3b4" fill-rule="evenodd" fill-opacity="0.2"/>
<polyline clip-path="url(#clip604)" style="stroke:#000000; stroke-linecap:round; stroke-linejoin:round; stroke-width:6; stroke-opacity:0.2; fill:none" points="1351.19,521.1 1351.19,529.134 1373.23,529.134 1373.23,521.1 1351.19,521.1 "/>
<path clip-path="url(#clip604)" d="M1378.75 504.388 L1378.75 529.134 L1400.79 529.134 L1400.79 504.388 L1378.75 504.388 L1378.75 504.388  Z" fill="#5fa3b4" fill-rule="evenodd" fill-opacity="0.2"/>
<polyline clip-path="url(#clip604)" style="stroke:#000000; stroke-linecap:round; stroke-linejoin:round; stroke-width:6; stroke-opacity:0.2; fill:none" points="1378.75,504.388 1378.75,529.134 1400.79,529.134 1400.79,504.388 1378.75,504.388 "/>
<path clip-path="url(#clip604)" d="M1406.3 469.771 L1406.3 529.134 L1428.35 529.134 L1428.35 469.771 L1406.3 469.771 L1406.3 469.771  Z" fill="#5fa3b4" fill-rule="evenodd" fill-opacity="0.2"/>
<polyline clip-path="url(#clip604)" style="stroke:#000000; stroke-linecap:round; stroke-linejoin:round; stroke-width:6; stroke-opacity:0.2; fill:none" points="1406.3,469.771 1406.3,529.134 1428.35,529.134 1428.35,469.771 1406.3,469.771 "/>
<path clip-path="url(#clip604)" d="M1433.86 418.23 L1433.86 529.134 L1455.91 529.134 L1455.91 418.23 L1433.86 418.23 L1433.86 418.23  Z" fill="#5fa3b4" fill-rule="evenodd" fill-opacity="0.2"/>
<polyline clip-path="url(#clip604)" style="stroke:#000000; stroke-linecap:round; stroke-linejoin:round; stroke-width:6; stroke-opacity:0.2; fill:none" points="1433.86,418.23 1433.86,529.134 1455.91,529.134 1455.91,418.23 1433.86,418.23 "/>
<path clip-path="url(#clip604)" d="M1461.42 367.769 L1461.42 529.134 L1483.47 529.134 L1483.47 367.769 L1461.42 367.769 L1461.42 367.769  Z" fill="#5fa3b4" fill-rule="evenodd" fill-opacity="0.2"/>
<polyline clip-path="url(#clip604)" style="stroke:#000000; stroke-linecap:round; stroke-linejoin:round; stroke-width:6; stroke-opacity:0.2; fill:none" points="1461.42,367.769 1461.42,529.134 1483.47,529.134 1483.47,367.769 1461.42,367.769 "/>
<path clip-path="url(#clip604)" d="M1488.98 346.284 L1488.98 529.134 L1511.02 529.134 L1511.02 346.284 L1488.98 346.284 L1488.98 346.284  Z" fill="#5fa3b4" fill-rule="evenodd" fill-opacity="0.2"/>
<polyline clip-path="url(#clip604)" style="stroke:#000000; stroke-linecap:round; stroke-linejoin:round; stroke-width:6; stroke-opacity:0.2; fill:none" points="1488.98,346.284 1488.98,529.134 1511.02,529.134 1511.02,346.284 1488.98,346.284 "/>
<path clip-path="url(#clip604)" d="M1516.53 367.769 L1516.53 529.134 L1538.58 529.134 L1538.58 367.769 L1516.53 367.769 L1516.53 367.769  Z" fill="#5fa3b4" fill-rule="evenodd" fill-opacity="0.2"/>
<polyline clip-path="url(#clip604)" style="stroke:#000000; stroke-linecap:round; stroke-linejoin:round; stroke-width:6; stroke-opacity:0.2; fill:none" points="1516.53,367.769 1516.53,529.134 1538.58,529.134 1538.58,367.769 1516.53,367.769 "/>
<path clip-path="url(#clip604)" d="M1544.09 418.23 L1544.09 529.134 L1566.14 529.134 L1566.14 418.23 L1544.09 418.23 L1544.09 418.23  Z" fill="#5fa3b4" fill-rule="evenodd" fill-opacity="0.2"/>
<polyline clip-path="url(#clip604)" style="stroke:#000000; stroke-linecap:round; stroke-linejoin:round; stroke-width:6; stroke-opacity:0.2; fill:none" points="1544.09,418.23 1544.09,529.134 1566.14,529.134 1566.14,418.23 1544.09,418.23 "/>
<path clip-path="url(#clip604)" d="M1571.65 469.771 L1571.65 529.134 L1593.7 529.134 L1593.7 469.771 L1571.65 469.771 L1571.65 469.771  Z" fill="#5fa3b4" fill-rule="evenodd" fill-opacity="0.2"/>
<polyline clip-path="url(#clip604)" style="stroke:#000000; stroke-linecap:round; stroke-linejoin:round; stroke-width:6; stroke-opacity:0.2; fill:none" points="1571.65,469.771 1571.65,529.134 1593.7,529.134 1593.7,469.771 1571.65,469.771 "/>
<path clip-path="url(#clip604)" d="M1599.21 504.388 L1599.21 529.134 L1621.25 529.134 L1621.25 504.388 L1599.21 504.388 L1599.21 504.388  Z" fill="#5fa3b4" fill-rule="evenodd" fill-opacity="0.2"/>
<polyline clip-path="url(#clip604)" style="stroke:#000000; stroke-linecap:round; stroke-linejoin:round; stroke-width:6; stroke-opacity:0.2; fill:none" points="1599.21,504.388 1599.21,529.134 1621.25,529.134 1621.25,504.388 1599.21,504.388 "/>
<path clip-path="url(#clip604)" d="M1626.77 521.1 L1626.77 529.134 L1648.81 529.134 L1648.81 521.1 L1626.77 521.1 L1626.77 521.1  Z" fill="#5fa3b4" fill-rule="evenodd" fill-opacity="0.2"/>
<polyline clip-path="url(#clip604)" style="stroke:#000000; stroke-linecap:round; stroke-linejoin:round; stroke-width:6; stroke-opacity:0.2; fill:none" points="1626.77,521.1 1626.77,529.134 1648.81,529.134 1648.81,521.1 1626.77,521.1 "/>
<path clip-path="url(#clip604)" d="M1654.32 527.103 L1654.32 529.134 L1676.37 529.134 L1676.37 527.103 L1654.32 527.103 L1654.32 527.103  Z" fill="#5fa3b4" fill-rule="evenodd" fill-opacity="0.2"/>
<polyline clip-path="url(#clip604)" style="stroke:#000000; stroke-linecap:round; stroke-linejoin:round; stroke-width:6; stroke-opacity:0.2; fill:none" points="1654.32,527.103 1654.32,529.134 1676.37,529.134 1676.37,527.103 1654.32,527.103 "/>
<path clip-path="url(#clip604)" d="M1681.88 528.734 L1681.88 529.134 L1703.93 529.134 L1703.93 528.734 L1681.88 528.734 L1681.88 528.734  Z" fill="#5fa3b4" fill-rule="evenodd" fill-opacity="0.2"/>
<polyline clip-path="url(#clip604)" style="stroke:#000000; stroke-linecap:round; stroke-linejoin:round; stroke-width:6; stroke-opacity:0.2; fill:none" points="1681.88,528.734 1681.88,529.134 1703.93,529.134 1703.93,528.734 1681.88,528.734 "/>
<circle clip-path="url(#clip604)" style="fill:#5fa3b4; stroke:none; fill-opacity:0" cx="1307.09" cy="528.734" r="2"/>
<circle clip-path="url(#clip604)" style="fill:#5fa3b4; stroke:none; fill-opacity:0" cx="1334.65" cy="527.103" r="2"/>
<circle clip-path="url(#clip604)" style="fill:#5fa3b4; stroke:none; fill-opacity:0" cx="1362.21" cy="521.1" r="2"/>
<circle clip-path="url(#clip604)" style="fill:#5fa3b4; stroke:none; fill-opacity:0" cx="1389.77" cy="504.388" r="2"/>
<circle clip-path="url(#clip604)" style="fill:#5fa3b4; stroke:none; fill-opacity:0" cx="1417.33" cy="469.771" r="2"/>
<circle clip-path="url(#clip604)" style="fill:#5fa3b4; stroke:none; fill-opacity:0" cx="1444.88" cy="418.23" r="2"/>
<circle clip-path="url(#clip604)" style="fill:#5fa3b4; stroke:none; fill-opacity:0" cx="1472.44" cy="367.769" r="2"/>
<circle clip-path="url(#clip604)" style="fill:#5fa3b4; stroke:none; fill-opacity:0" cx="1500" cy="346.284" r="2"/>
<circle clip-path="url(#clip604)" style="fill:#5fa3b4; stroke:none; fill-opacity:0" cx="1527.56" cy="367.769" r="2"/>
<circle clip-path="url(#clip604)" style="fill:#5fa3b4; stroke:none; fill-opacity:0" cx="1555.12" cy="418.23" r="2"/>
<circle clip-path="url(#clip604)" style="fill:#5fa3b4; stroke:none; fill-opacity:0" cx="1582.67" cy="469.771" r="2"/>
<circle clip-path="url(#clip604)" style="fill:#5fa3b4; stroke:none; fill-opacity:0" cx="1610.23" cy="504.388" r="2"/>
<circle clip-path="url(#clip604)" style="fill:#5fa3b4; stroke:none; fill-opacity:0" cx="1637.79" cy="521.1" r="2"/>
<circle clip-path="url(#clip604)" style="fill:#5fa3b4; stroke:none; fill-opacity:0" cx="1665.35" cy="527.103" r="2"/>
<circle clip-path="url(#clip604)" style="fill:#5fa3b4; stroke:none; fill-opacity:0" cx="1692.91" cy="528.734" r="2"/>
<path clip-path="url(#clip604)" d="M1296.07 529.123 L1296.07 529.134 L1318.12 529.134 L1318.12 529.123 L1296.07 529.123 L1296.07 529.123  Z" fill="#83d89e" fill-rule="evenodd" fill-opacity="1"/>
<polyline clip-path="url(#clip604)" style="stroke:#000000; stroke-linecap:round; stroke-linejoin:round; stroke-width:6; stroke-opacity:1; fill:none" points="1296.07,529.123 1296.07,529.134 1318.12,529.134 1318.12,529.123 1296.07,529.123 "/>
<path clip-path="url(#clip604)" d="M1323.63 529.05 L1323.63 529.134 L1345.68 529.134 L1345.68 529.05 L1323.63 529.05 L1323.63 529.05  Z" fill="#83d89e" fill-rule="evenodd" fill-opacity="1"/>
<polyline clip-path="url(#clip604)" style="stroke:#000000; stroke-linecap:round; stroke-linejoin:round; stroke-width:6; stroke-opacity:1; fill:none" points="1323.63,529.05 1323.63,529.134 1345.68,529.134 1345.68,529.05 1323.63,529.05 "/>
<path clip-path="url(#clip604)" d="M1351.19 528.607 L1351.19 529.134 L1373.23 529.134 L1373.23 528.607 L1351.19 528.607 L1351.19 528.607  Z" fill="#83d89e" fill-rule="evenodd" fill-opacity="1"/>
<polyline clip-path="url(#clip604)" style="stroke:#000000; stroke-linecap:round; stroke-linejoin:round; stroke-width:6; stroke-opacity:1; fill:none" points="1351.19,528.607 1351.19,529.134 1373.23,529.134 1373.23,528.607 1351.19,528.607 "/>
<path clip-path="url(#clip604)" d="M1378.75 526.56 L1378.75 529.134 L1400.79 529.134 L1400.79 526.56 L1378.75 526.56 L1378.75 526.56  Z" fill="#83d89e" fill-rule="evenodd" fill-opacity="1"/>
<polyline clip-path="url(#clip604)" style="stroke:#000000; stroke-linecap:round; stroke-linejoin:round; stroke-width:6; stroke-opacity:1; fill:none" points="1378.75,526.56 1378.75,529.134 1400.79,529.134 1400.79,526.56 1378.75,526.56 "/>
<path clip-path="url(#clip604)" d="M1406.3 519.351 L1406.3 529.134 L1428.35 529.134 L1428.35 519.351 L1406.3 519.351 L1406.3 519.351  Z" fill="#83d89e" fill-rule="evenodd" fill-opacity="1"/>
<polyline clip-path="url(#clip604)" style="stroke:#000000; stroke-linecap:round; stroke-linejoin:round; stroke-width:6; stroke-opacity:1; fill:none" points="1406.3,519.351 1406.3,529.134 1428.35,529.134 1428.35,519.351 1406.3,519.351 "/>
<path clip-path="url(#clip604)" d="M1433.86 500.171 L1433.86 529.134 L1455.91 529.134 L1455.91 500.171 L1433.86 500.171 L1433.86 500.171  Z" fill="#83d89e" fill-rule="evenodd" fill-opacity="1"/>
<polyline clip-path="url(#clip604)" style="stroke:#000000; stroke-linecap:round; stroke-linejoin:round; stroke-width:6; stroke-opacity:1; fill:none" points="1433.86,500.171 1433.86,529.134 1455.91,529.134 1455.91,500.171 1433.86,500.171 "/>
<path clip-path="url(#clip604)" d="M1461.42 462.354 L1461.42 529.134 L1483.47 529.134 L1483.47 462.354 L1461.42 462.354 L1461.42 462.354  Z" fill="#83d89e" fill-rule="evenodd" fill-opacity="1"/>
<polyline clip-path="url(#clip604)" style="stroke:#000000; stroke-linecap:round; stroke-linejoin:round; stroke-width:6; stroke-opacity:1; fill:none" points="1461.42,462.354 1461.42,529.134 1483.47,529.134 1483.47,462.354 1461.42,462.354 "/>
<path clip-path="url(#clip604)" d="M1488.98 409.221 L1488.98 529.134 L1511.02 529.134 L1511.02 409.221 L1488.98 409.221 L1488.98 409.221  Z" fill="#83d89e" fill-rule="evenodd" fill-opacity="1"/>
<polyline clip-path="url(#clip604)" style="stroke:#000000; stroke-linecap:round; stroke-linejoin:round; stroke-width:6; stroke-opacity:1; fill:none" points="1488.98,409.221 1488.98,529.134 1511.02,529.134 1511.02,409.221 1488.98,409.221 "/>
<path clip-path="url(#clip604)" d="M1516.53 361.441 L1516.53 529.134 L1538.58 529.134 L1538.58 361.441 L1516.53 361.441 L1516.53 361.441  Z" fill="#83d89e" fill-rule="evenodd" fill-opacity="1"/>
<polyline clip-path="url(#clip604)" style="stroke:#000000; stroke-linecap:round; stroke-linejoin:round; stroke-width:6; stroke-opacity:1; fill:none" points="1516.53,361.441 1516.53,529.134 1538.58,529.134 1538.58,361.441 1516.53,361.441 "/>
<path clip-path="url(#clip604)" d="M1544.09 346.496 L1544.09 529.134 L1566.14 529.134 L1566.14 346.496 L1544.09 346.496 L1544.09 346.496  Z" fill="#83d89e" fill-rule="evenodd" fill-opacity="1"/>
<polyline clip-path="url(#clip604)" style="stroke:#000000; stroke-linecap:round; stroke-linejoin:round; stroke-width:6; stroke-opacity:1; fill:none" points="1544.09,346.496 1544.09,529.134 1566.14,529.134 1566.14,346.496 1544.09,346.496 "/>
<path clip-path="url(#clip604)" d="M1571.65 374.22 L1571.65 529.134 L1593.7 529.134 L1593.7 374.22 L1571.65 374.22 L1571.65 374.22  Z" fill="#83d89e" fill-rule="evenodd" fill-opacity="1"/>
<polyline clip-path="url(#clip604)" style="stroke:#000000; stroke-linecap:round; stroke-linejoin:round; stroke-width:6; stroke-opacity:1; fill:none" points="1571.65,374.22 1571.65,529.134 1593.7,529.134 1593.7,374.22 1571.65,374.22 "/>
<path clip-path="url(#clip604)" d="M1599.21 426.8 L1599.21 529.134 L1621.25 529.134 L1621.25 426.8 L1599.21 426.8 L1599.21 426.8  Z" fill="#83d89e" fill-rule="evenodd" fill-opacity="1"/>
<polyline clip-path="url(#clip604)" style="stroke:#000000; stroke-linecap:round; stroke-linejoin:round; stroke-width:6; stroke-opacity:1; fill:none" points="1599.21,426.8 1599.21,529.134 1621.25,529.134 1621.25,426.8 1599.21,426.8 "/>
<path clip-path="url(#clip604)" d="M1626.77 476.487 L1626.77 529.134 L1648.81 529.134 L1648.81 476.487 L1626.77 476.487 L1626.77 476.487  Z" fill="#83d89e" fill-rule="evenodd" fill-opacity="1"/>
<polyline clip-path="url(#clip604)" style="stroke:#000000; stroke-linecap:round; stroke-linejoin:round; stroke-width:6; stroke-opacity:1; fill:none" points="1626.77,476.487 1626.77,529.134 1648.81,529.134 1648.81,476.487 1626.77,476.487 "/>
<path clip-path="url(#clip604)" d="M1654.32 508.04 L1654.32 529.134 L1676.37 529.134 L1676.37 508.04 L1654.32 508.04 L1654.32 508.04  Z" fill="#83d89e" fill-rule="evenodd" fill-opacity="1"/>
<polyline clip-path="url(#clip604)" style="stroke:#000000; stroke-linecap:round; stroke-linejoin:round; stroke-width:6; stroke-opacity:1; fill:none" points="1654.32,508.04 1654.32,529.134 1676.37,529.134 1676.37,508.04 1654.32,508.04 "/>
<path clip-path="url(#clip604)" d="M1681.88 522.552 L1681.88 529.134 L1703.93 529.134 L1703.93 522.552 L1681.88 522.552 L1681.88 522.552  Z" fill="#83d89e" fill-rule="evenodd" fill-opacity="1"/>
<polyline clip-path="url(#clip604)" style="stroke:#000000; stroke-linecap:round; stroke-linejoin:round; stroke-width:6; stroke-opacity:1; fill:none" points="1681.88,522.552 1681.88,529.134 1703.93,529.134 1703.93,522.552 1681.88,522.552 "/>
<circle clip-path="url(#clip604)" style="fill:#83d89e; stroke:none; fill-opacity:0" cx="1307.09" cy="529.123" r="2"/>
<circle clip-path="url(#clip604)" style="fill:#83d89e; stroke:none; fill-opacity:0" cx="1334.65" cy="529.05" r="2"/>
<circle clip-path="url(#clip604)" style="fill:#83d89e; stroke:none; fill-opacity:0" cx="1362.21" cy="528.607" r="2"/>
<circle clip-path="url(#clip604)" style="fill:#83d89e; stroke:none; fill-opacity:0" cx="1389.77" cy="526.56" r="2"/>
<circle clip-path="url(#clip604)" style="fill:#83d89e; stroke:none; fill-opacity:0" cx="1417.33" cy="519.351" r="2"/>
<circle clip-path="url(#clip604)" style="fill:#83d89e; stroke:none; fill-opacity:0" cx="1444.88" cy="500.171" r="2"/>
<circle clip-path="url(#clip604)" style="fill:#83d89e; stroke:none; fill-opacity:0" cx="1472.44" cy="462.354" r="2"/>
<circle clip-path="url(#clip604)" style="fill:#83d89e; stroke:none; fill-opacity:0" cx="1500" cy="409.221" r="2"/>
<circle clip-path="url(#clip604)" style="fill:#83d89e; stroke:none; fill-opacity:0" cx="1527.56" cy="361.441" r="2"/>
<circle clip-path="url(#clip604)" style="fill:#83d89e; stroke:none; fill-opacity:0" cx="1555.12" cy="346.496" r="2"/>
<circle clip-path="url(#clip604)" style="fill:#83d89e; stroke:none; fill-opacity:0" cx="1582.67" cy="374.22" r="2"/>
<circle clip-path="url(#clip604)" style="fill:#83d89e; stroke:none; fill-opacity:0" cx="1610.23" cy="426.8" r="2"/>
<circle clip-path="url(#clip604)" style="fill:#83d89e; stroke:none; fill-opacity:0" cx="1637.79" cy="476.487" r="2"/>
<circle clip-path="url(#clip604)" style="fill:#83d89e; stroke:none; fill-opacity:0" cx="1665.35" cy="508.04" r="2"/>
<circle clip-path="url(#clip604)" style="fill:#83d89e; stroke:none; fill-opacity:0" cx="1692.91" cy="522.552" r="2"/>
</svg>
