<?xml version="1.0" encoding="utf-8"?>
<svg xmlns="http://www.w3.org/2000/svg" xmlns:xlink="http://www.w3.org/1999/xlink" width="450" height="150" viewBox="0 0 1800 600">
<defs>
  <clipPath id="clip290">
    <rect x="0" y="0" width="1800" height="600"/>
  </clipPath>
</defs>
<path clip-path="url(#clip290)" d="M0 600 L1800 600 L1800 3.33067e-14 L0 3.33067e-14  Z" fill="#ffffff" fill-rule="evenodd" fill-opacity="1"/>
<defs>
  <clipPath id="clip291">
    <rect x="360" y="0" width="1261" height="600"/>
  </clipPath>
</defs>
<path clip-path="url(#clip290)" d="M70.8661 529.134 L529.134 529.134 L529.134 70.8661 L70.8661 70.8661  Z" fill="#ffffff" fill-rule="evenodd" fill-opacity="1"/>
<defs>
  <clipPath id="clip292">
    <rect x="70" y="70" width="459" height="459"/>
  </clipPath>
</defs>
<polyline clip-path="url(#clip290)" style="stroke:#000000; stroke-linecap:round; stroke-linejoin:round; stroke-width:6; stroke-opacity:1; fill:none" points="70.8661,529.134 529.134,529.134 "/>
<polyline clip-path="url(#clip290)" style="stroke:#000000; stroke-linecap:round; stroke-linejoin:round; stroke-width:6; stroke-opacity:1; fill:none" points="300,529.134 300,70.8661 "/>
<path clip-path="url(#clip292)" d="M96.0717 528.734 L96.0717 529.134 L118.118 529.134 L118.118 528.734 L96.0717 528.734 L96.0717 528.734  Z" fill="#5fa3b4" fill-rule="evenodd" fill-opacity="0.2"/>
<polyline clip-path="url(#clip292)" style="stroke:#000000; stroke-linecap:round; stroke-linejoin:round; stroke-width:6; stroke-opacity:0.2; fill:none" points="96.0717,528.734 96.0717,529.134 118.118,529.134 118.118,528.734 96.0717,528.734 "/>
<path clip-path="url(#clip292)" d="M123.63 527.103 L123.63 529.134 L145.676 529.134 L145.676 527.103 L123.63 527.103 L123.63 527.103  Z" fill="#5fa3b4" fill-rule="evenodd" fill-opacity="0.2"/>
<polyline clip-path="url(#clip292)" style="stroke:#000000; stroke-linecap:round; stroke-linejoin:round; stroke-width:6; stroke-opacity:0.2; fill:none" points="123.63,527.103 123.63,529.134 145.676,529.134 145.676,527.103 123.63,527.103 "/>
<path clip-path="url(#clip292)" d="M151.187 521.1 L151.187 529.134 L173.234 529.134 L173.234 521.1 L151.187 521.1 L151.187 521.1  Z" fill="#5fa3b4" fill-rule="evenodd" fill-opacity="0.2"/>
<polyline clip-path="url(#clip292)" style="stroke:#000000; stroke-linecap:round; stroke-linejoin:round; stroke-width:6; stroke-opacity:0.2; fill:none" points="151.187,521.1 151.187,529.134 173.234,529.134 173.234,521.1 151.187,521.1 "/>
<path clip-path="url(#clip292)" d="M178.745 504.388 L178.745 529.134 L200.792 529.134 L200.792 504.388 L178.745 504.388 L178.745 504.388  Z" fill="#5fa3b4" fill-rule="evenodd" fill-opacity="0.2"/>
<polyline clip-path="url(#clip292)" style="stroke:#000000; stroke-linecap:round; stroke-linejoin:round; stroke-width:6; stroke-opacity:0.2; fill:none" points="178.745,504.388 178.745,529.134 200.792,529.134 200.792,504.388 178.745,504.388 "/>
<path clip-path="url(#clip292)" d="M206.303 469.771 L206.303 529.134 L228.35 529.134 L228.35 469.771 L206.303 469.771 L206.303 469.771  Z" fill="#5fa3b4" fill-rule="evenodd" fill-opacity="0.2"/>
<polyline clip-path="url(#clip292)" style="stroke:#000000; stroke-linecap:round; stroke-linejoin:round; stroke-width:6; stroke-opacity:0.2; fill:none" points="206.303,469.771 206.303,529.134 228.35,529.134 228.35,469.771 206.303,469.771 "/>
<path clip-path="url(#clip292)" d="M233.861 418.23 L233.861 529.134 L255.907 529.134 L255.907 418.23 L233.861 418.23 L233.861 418.23  Z" fill="#5fa3b4" fill-rule="evenodd" fill-opacity="0.2"/>
<polyline clip-path="url(#clip292)" style="stroke:#000000; stroke-linecap:round; stroke-linejoin:round; stroke-width:6; stroke-opacity:0.2; fill:none" points="233.861,418.23 233.861,529.134 255.907,529.134 255.907,418.23 233.861,418.23 "/>
<path clip-path="url(#clip292)" d="M261.419 367.769 L261.419 529.134 L283.465 529.134 L283.465 367.769 L261.419 367.769 L261.419 367.769  Z" fill="#5fa3b4" fill-rule="evenodd" fill-opacity="0.2"/>
<polyline clip-path="url(#clip292)" style="stroke:#000000; stroke-linecap:round; stroke-linejoin:round; stroke-width:6; stroke-opacity:0.2; fill:none" points="261.419,367.769 261.419,529.134 283.465,529.134 283.465,367.769 261.419,367.769 "/>
<path clip-path="url(#clip292)" d="M288.977 346.284 L288.977 529.134 L311.023 529.134 L311.023 346.284 L288.977 346.284 L288.977 346.284  Z" fill="#5fa3b4" fill-rule="evenodd" fill-opacity="0.2"/>
<polyline clip-path="url(#clip292)" style="stroke:#000000; stroke-linecap:round; stroke-linejoin:round; stroke-width:6; stroke-opacity:0.2; fill:none" points="288.977,346.284 288.977,529.134 311.023,529.134 311.023,346.284 288.977,346.284 "/>
<path clip-path="url(#clip292)" d="M316.535 367.769 L316.535 529.134 L338.581 529.134 L338.581 367.769 L316.535 367.769 L316.535 367.769  Z" fill="#5fa3b4" fill-rule="evenodd" fill-opacity="0.2"/>
<polyline clip-path="url(#clip292)" style="stroke:#000000; stroke-linecap:round; stroke-linejoin:round; stroke-width:6; stroke-opacity:0.2; fill:none" points="316.535,367.769 316.535,529.134 338.581,529.134 338.581,367.769 316.535,367.769 "/>
<path clip-path="url(#clip292)" d="M344.093 418.23 L344.093 529.134 L366.139 529.134 L366.139 418.23 L344.093 418.23 L344.093 418.23  Z" fill="#5fa3b4" fill-rule="evenodd" fill-opacity="0.2"/>
<polyline clip-path="url(#clip292)" style="stroke:#000000; stroke-linecap:round; stroke-linejoin:round; stroke-width:6; stroke-opacity:0.2; fill:none" points="344.093,418.23 344.093,529.134 366.139,529.134 366.139,418.23 344.093,418.23 "/>
<path clip-path="url(#clip292)" d="M371.65 469.771 L371.65 529.134 L393.697 529.134 L393.697 469.771 L371.65 469.771 L371.65 469.771  Z" fill="#5fa3b4" fill-rule="evenodd" fill-opacity="0.2"/>
<polyline clip-path="url(#clip292)" style="stroke:#000000; stroke-linecap:round; stroke-linejoin:round; stroke-width:6; stroke-opacity:0.2; fill:none" points="371.65,469.771 371.65,529.134 393.697,529.134 393.697,469.771 371.65,469.771 "/>
<path clip-path="url(#clip292)" d="M399.208 504.388 L399.208 529.134 L421.255 529.134 L421.255 504.388 L399.208 504.388 L399.208 504.388  Z" fill="#5fa3b4" fill-rule="evenodd" fill-opacity="0.2"/>
<polyline clip-path="url(#clip292)" style="stroke:#000000; stroke-linecap:round; stroke-linejoin:round; stroke-width:6; stroke-opacity:0.2; fill:none" points="399.208,504.388 399.208,529.134 421.255,529.134 421.255,504.388 399.208,504.388 "/>
<path clip-path="url(#clip292)" d="M426.766 521.1 L426.766 529.134 L448.813 529.134 L448.813 521.1 L426.766 521.1 L426.766 521.1  Z" fill="#5fa3b4" fill-rule="evenodd" fill-opacity="0.2"/>
<polyline clip-path="url(#clip292)" style="stroke:#000000; stroke-linecap:round; stroke-linejoin:round; stroke-width:6; stroke-opacity:0.2; fill:none" points="426.766,521.1 426.766,529.134 448.813,529.134 448.813,521.1 426.766,521.1 "/>
<path clip-path="url(#clip292)" d="M454.324 527.103 L454.324 529.134 L476.37 529.134 L476.37 527.103 L454.324 527.103 L454.324 527.103  Z" fill="#5fa3b4" fill-rule="evenodd" fill-opacity="0.2"/>
<polyline clip-path="url(#clip292)" style="stroke:#000000; stroke-linecap:round; stroke-linejoin:round; stroke-width:6; stroke-opacity:0.2; fill:none" points="454.324,527.103 454.324,529.134 476.37,529.134 476.37,527.103 454.324,527.103 "/>
<path clip-path="url(#clip292)" d="M481.882 528.734 L481.882 529.134 L503.928 529.134 L503.928 528.734 L481.882 528.734 L481.882 528.734  Z" fill="#5fa3b4" fill-rule="evenodd" fill-opacity="0.2"/>
<polyline clip-path="url(#clip292)" style="stroke:#000000; stroke-linecap:round; stroke-linejoin:round; stroke-width:6; stroke-opacity:0.2; fill:none" points="481.882,528.734 481.882,529.134 503.928,529.134 503.928,528.734 481.882,528.734 "/>
<circle clip-path="url(#clip292)" style="fill:#5fa3b4; stroke:none; fill-opacity:0" cx="107.095" cy="528.734" r="2"/>
<circle clip-path="url(#clip292)" style="fill:#5fa3b4; stroke:none; fill-opacity:0" cx="134.653" cy="527.103" r="2"/>
<circle clip-path="url(#clip292)" style="fill:#5fa3b4; stroke:none; fill-opacity:0" cx="162.211" cy="521.1" r="2"/>
<circle clip-path="url(#clip292)" style="fill:#5fa3b4; stroke:none; fill-opacity:0" cx="189.768" cy="504.388" r="2"/>
<circle clip-path="url(#clip292)" style="fill:#5fa3b4; stroke:none; fill-opacity:0" cx="217.326" cy="469.771" r="2"/>
<circle clip-path="url(#clip292)" style="fill:#5fa3b4; stroke:none; fill-opacity:0" cx="244.884" cy="418.23" r="2"/>
<circle clip-path="url(#clip292)" style="fill:#5fa3b4; stroke:none; fill-opacity:0" cx="272.442" cy="367.769" r="2"/>
<circle clip-path="url(#clip292)" style="fill:#5fa3b4; stroke:none; fill-opacity:0" cx="300" cy="346.284" r="2"/>
<circle clip-path="url(#clip292)" style="fill:#5fa3b4; stroke:none; fill-opacity:0" cx="327.558" cy="367.769" r="2"/>
<circle clip-path="url(#clip292)" style="fill:#5fa3b4; stroke:none; fill-opacity:0" cx="355.116" cy="418.23" r="2"/>
<circle clip-path="url(#clip292)" style="fill:#5fa3b4; stroke:none; fill-opacity:0" cx="382.674" cy="469.771" r="2"/>
<circle clip-path="url(#clip292)" style="fill:#5fa3b4; stroke:none; fill-opacity:0" cx="410.232" cy="504.388" r="2"/>
<circle clip-path="url(#clip292)" style="fill:#5fa3b4; stroke:none; fill-opacity:0" cx="437.789" cy="521.1" r="2"/>
<circle clip-path="url(#clip292)" style="fill:#5fa3b4; stroke:none; fill-opacity:0" cx="465.347" cy="527.103" r="2"/>
<circle clip-path="url(#clip292)" style="fill:#5fa3b4; stroke:none; fill-opacity:0" cx="492.905" cy="528.734" r="2"/>
<path clip-path="url(#clip292)" d="M96.0717 529.097 L96.0717 529.134 L118.118 529.134 L118.118 529.097 L96.0717 529.097 L96.0717 529.097  Z" fill="#4ab467" fill-rule="evenodd" fill-opacity="1"/>
<polyline clip-path="url(#clip292)" style="stroke:#000000; stroke-linecap:round; stroke-linejoin:round; stroke-width:6; stroke-opacity:1; fill:none" points="96.0717,529.097 96.0717,529.134 118.118,529.134 118.118,529.097 96.0717,529.097 "/>
<path clip-path="url(#clip292)" d="M123.63 528.93 L123.63 529.134 L145.676 529.134 L145.676 528.93 L123.63 528.93 L123.63 528.93  Z" fill="#4ab467" fill-rule="evenodd" fill-opacity="1"/>
<polyline clip-path="url(#clip292)" style="stroke:#000000; stroke-linecap:round; stroke-linejoin:round; stroke-width:6; stroke-opacity:1; fill:none" points="123.63,528.93 123.63,529.134 145.676,529.134 145.676,528.93 123.63,528.93 "/>
<path clip-path="url(#clip292)" d="M151.187 528.231 L151.187 529.134 L173.234 529.134 L173.234 528.231 L151.187 528.231 L151.187 528.231  Z" fill="#4ab467" fill-rule="evenodd" fill-opacity="1"/>
<polyline clip-path="url(#clip292)" style="stroke:#000000; stroke-linecap:round; stroke-linejoin:round; stroke-width:6; stroke-opacity:1; fill:none" points="151.187,528.231 151.187,529.134 173.234,529.134 173.234,528.231 151.187,528.231 "/>
<path clip-path="url(#clip292)" d="M178.745 525.922 L178.745 529.134 L200.792 529.134 L200.792 525.922 L178.745 525.922 L178.745 525.922  Z" fill="#4ab467" fill-rule="evenodd" fill-opacity="1"/>
<polyline clip-path="url(#clip292)" style="stroke:#000000; stroke-linecap:round; stroke-linejoin:round; stroke-width:6; stroke-opacity:1; fill:none" points="178.745,525.922 178.745,529.134 200.792,529.134 200.792,525.922 178.745,525.922 "/>
<path clip-path="url(#clip292)" d="M206.303 520.071 L206.303 529.134 L228.35 529.134 L228.35 520.071 L206.303 520.071 L206.303 520.071  Z" fill="#4ab467" fill-rule="evenodd" fill-opacity="1"/>
<polyline clip-path="url(#clip292)" style="stroke:#000000; stroke-linecap:round; stroke-linejoin:round; stroke-width:6; stroke-opacity:1; fill:none" points="206.303,520.071 206.303,529.134 228.35,529.134 228.35,520.071 206.303,520.071 "/>
<path clip-path="url(#clip292)" d="M233.861 507.96 L233.861 529.134 L255.907 529.134 L255.907 507.96 L233.861 507.96 L233.861 507.96  Z" fill="#4ab467" fill-rule="evenodd" fill-opacity="1"/>
<polyline clip-path="url(#clip292)" style="stroke:#000000; stroke-linecap:round; stroke-linejoin:round; stroke-width:6; stroke-opacity:1; fill:none" points="233.861,507.96 233.861,529.134 255.907,529.134 255.907,507.96 233.861,507.96 "/>
<path clip-path="url(#clip292)" d="M261.419 487.433 L261.419 529.134 L283.465 529.134 L283.465 487.433 L261.419 487.433 L261.419 487.433  Z" fill="#4ab467" fill-rule="evenodd" fill-opacity="1"/>
<polyline clip-path="url(#clip292)" style="stroke:#000000; stroke-linecap:round; stroke-linejoin:round; stroke-width:6; stroke-opacity:1; fill:none" points="261.419,487.433 261.419,529.134 283.465,529.134 283.465,487.433 261.419,487.433 "/>
<path clip-path="url(#clip292)" d="M288.977 459.435 L288.977 529.134 L311.023 529.134 L311.023 459.435 L288.977 459.435 L288.977 459.435  Z" fill="#4ab467" fill-rule="evenodd" fill-opacity="1"/>
<polyline clip-path="url(#clip292)" style="stroke:#000000; stroke-linecap:round; stroke-linejoin:round; stroke-width:6; stroke-opacity:1; fill:none" points="288.977,459.435 288.977,529.134 311.023,529.134 311.023,459.435 288.977,459.435 "/>
<path clip-path="url(#clip292)" d="M316.535 428.693 L316.535 529.134 L338.581 529.134 L338.581 428.693 L316.535 428.693 L316.535 428.693  Z" fill="#4ab467" fill-rule="evenodd" fill-opacity="1"/>
<polyline clip-path="url(#clip292)" style="stroke:#000000; stroke-linecap:round; stroke-linejoin:round; stroke-width:6; stroke-opacity:1; fill:none" points="316.535,428.693 316.535,529.134 338.581,529.134 338.581,428.693 316.535,428.693 "/>
<path clip-path="url(#clip292)" d="M344.093 403.901 L344.093 529.134 L366.139 529.134 L366.139 403.901 L344.093 403.901 L344.093 403.901  Z" fill="#4ab467" fill-rule="evenodd" fill-opacity="1"/>
<polyline clip-path="url(#clip292)" style="stroke:#000000; stroke-linecap:round; stroke-linejoin:round; stroke-width:6; stroke-opacity:1; fill:none" points="344.093,403.901 344.093,529.134 366.139,529.134 366.139,403.901 344.093,403.901 "/>
<path clip-path="url(#clip292)" d="M371.65 391.62 L371.65 529.134 L393.697 529.134 L393.697 391.62 L371.65 391.62 L371.65 391.62  Z" fill="#4ab467" fill-rule="evenodd" fill-opacity="1"/>
<polyline clip-path="url(#clip292)" style="stroke:#000000; stroke-linecap:round; stroke-linejoin:round; stroke-width:6; stroke-opacity:1; fill:none" points="371.65,391.62 371.65,529.134 393.697,529.134 393.697,391.62 371.65,391.62 "/>
<path clip-path="url(#clip292)" d="M399.208 396.194 L399.208 529.134 L421.255 529.134 L421.255 396.194 L399.208 396.194 L399.208 396.194  Z" fill="#4ab467" fill-rule="evenodd" fill-opacity="1"/>
<polyline clip-path="url(#clip292)" style="stroke:#000000; stroke-linecap:round; stroke-linejoin:round; stroke-width:6; stroke-opacity:1; fill:none" points="399.208,396.194 399.208,529.134 421.255,529.134 421.255,396.194 399.208,396.194 "/>
<path clip-path="url(#clip292)" d="M426.766 412.958 L426.766 529.134 L448.813 529.134 L448.813 412.958 L426.766 412.958 L426.766 412.958  Z" fill="#4ab467" fill-rule="evenodd" fill-opacity="1"/>
<polyline clip-path="url(#clip292)" style="stroke:#000000; stroke-linecap:round; stroke-linejoin:round; stroke-width:6; stroke-opacity:1; fill:none" points="426.766,412.958 426.766,529.134 448.813,529.134 448.813,412.958 426.766,412.958 "/>
<path clip-path="url(#clip292)" d="M454.324 433.177 L454.324 529.134 L476.37 529.134 L476.37 433.177 L454.324 433.177 L454.324 433.177  Z" fill="#4ab467" fill-rule="evenodd" fill-opacity="1"/>
<polyline clip-path="url(#clip292)" style="stroke:#000000; stroke-linecap:round; stroke-linejoin:round; stroke-width:6; stroke-opacity:1; fill:none" points="454.324,433.177 454.324,529.134 476.37,529.134 476.37,433.177 454.324,433.177 "/>
<path clip-path="url(#clip292)" d="M481.882 466.851 L481.882 529.134 L503.928 529.134 L503.928 466.851 L481.882 466.851 L481.882 466.851  Z" fill="#4ab467" fill-rule="evenodd" fill-opacity="1"/>
<polyline clip-path="url(#clip292)" style="stroke:#000000; stroke-linecap:round; stroke-linejoin:round; stroke-width:6; stroke-opacity:1; fill:none" points="481.882,466.851 481.882,529.134 503.928,529.134 503.928,466.851 481.882,466.851 "/>
<circle clip-path="url(#clip292)" style="fill:#4ab467; stroke:none; fill-opacity:0" cx="107.095" cy="529.097" r="2"/>
<circle clip-path="url(#clip292)" style="fill:#4ab467; stroke:none; fill-opacity:0" cx="134.653" cy="528.93" r="2"/>
<circle clip-path="url(#clip292)" style="fill:#4ab467; stroke:none; fill-opacity:0" cx="162.211" cy="528.231" r="2"/>
<circle clip-path="url(#clip292)" style="fill:#4ab467; stroke:none; fill-opacity:0" cx="189.768" cy="525.922" r="2"/>
<circle clip-path="url(#clip292)" style="fill:#4ab467; stroke:none; fill-opacity:0" cx="217.326" cy="520.071" r="2"/>
<circle clip-path="url(#clip292)" style="fill:#4ab467; stroke:none; fill-opacity:0" cx="244.884" cy="507.96" r="2"/>
<circle clip-path="url(#clip292)" style="fill:#4ab467; stroke:none; fill-opacity:0" cx="272.442" cy="487.433" r="2"/>
<circle clip-path="url(#clip292)" style="fill:#4ab467; stroke:none; fill-opacity:0" cx="300" cy="459.435" r="2"/>
<circle clip-path="url(#clip292)" style="fill:#4ab467; stroke:none; fill-opacity:0" cx="327.558" cy="428.693" r="2"/>
<circle clip-path="url(#clip292)" style="fill:#4ab467; stroke:none; fill-opacity:0" cx="355.116" cy="403.901" r="2"/>
<circle clip-path="url(#clip292)" style="fill:#4ab467; stroke:none; fill-opacity:0" cx="382.674" cy="391.62" r="2"/>
<circle clip-path="url(#clip292)" style="fill:#4ab467; stroke:none; fill-opacity:0" cx="410.232" cy="396.194" r="2"/>
<circle clip-path="url(#clip292)" style="fill:#4ab467; stroke:none; fill-opacity:0" cx="437.789" cy="412.958" r="2"/>
<circle clip-path="url(#clip292)" style="fill:#4ab467; stroke:none; fill-opacity:0" cx="465.347" cy="433.177" r="2"/>
<circle clip-path="url(#clip292)" style="fill:#4ab467; stroke:none; fill-opacity:0" cx="492.905" cy="466.851" r="2"/>
<path clip-path="url(#clip290)" d="M124.056 113.249 Q124.003 113.513 123.898 113.987 Q123.792 114.435 123.318 115.858 Q122.844 117.281 122.211 118.73 Q121.605 120.153 120.42 122.156 Q119.26 124.132 117.837 125.924 Q117.442 126.398 117.363 126.688 Q117.31 126.951 117.31 127.821 Q117.31 133.302 118.97 133.302 Q119.049 133.302 119.181 133.302 Q119.339 133.275 119.735 133.144 Q120.156 132.985 120.525 132.748 Q120.894 132.485 121.316 131.958 Q121.737 131.404 122.001 130.667 Q122.238 130.14 122.712 130.14 Q123.345 130.14 123.345 130.667 Q123.345 131.615 122.027 133.065 Q120.709 134.514 118.812 134.514 Q116.994 134.514 115.703 133.328 Q114.438 132.116 113.911 129.955 Q108.219 134.514 102.528 134.514 Q98.5226 134.514 96.1511 131.905 Q93.7795 129.27 93.7795 125.37 Q93.7795 121.629 95.8348 118.071 Q97.9165 114.514 101.289 112.301 Q104.689 110.061 108.299 110.061 Q109.563 110.061 110.775 110.403 Q111.988 110.72 113.2 111.536 Q114.412 112.353 115.308 113.592 Q116.204 114.83 116.757 116.78 Q117.31 118.73 117.31 121.181 L117.31 124.527 Q120.789 120.127 122.607 113.829 Q122.87 112.88 123.028 112.775 Q123.134 112.696 123.397 112.696 Q123.661 112.696 123.819 112.854 Q124.003 112.986 124.03 113.117 L124.056 113.249 M113.7 128.559 Q113.595 127.636 113.595 122.524 Q113.595 121.549 113.595 121.022 Q113.595 120.469 113.542 119.415 Q113.49 118.361 113.384 117.702 Q113.305 117.044 113.121 116.095 Q112.936 115.146 112.673 114.54 Q112.409 113.934 111.988 113.249 Q111.592 112.564 111.065 112.169 Q110.565 111.774 109.827 111.51 Q109.115 111.247 108.246 111.247 Q107.165 111.247 106.032 111.642 Q104.926 112.011 103.503 113.196 Q102.08 114.356 100.894 116.2 Q99.6556 118.15 98.707 121.734 Q97.7848 125.291 97.7848 127.426 Q97.7848 130.113 99.0232 131.721 Q100.262 133.302 102.633 133.302 Q108.299 133.302 113.7 128.559 Z" fill="#4ab467" fill-rule="nonzero" fill-opacity="1" /><path clip-path="url(#clip290)" d="M142.939 125.713 Q142.992 125.054 144.02 125.054 L177.089 125.054 Q178.644 125.054 178.67 125.66 Q178.67 126.319 177.195 126.293 L144.389 126.293 Q142.939 126.319 142.939 125.713 M142.939 115.173 Q142.939 114.514 144.072 114.54 L177.037 114.54 Q178.644 114.54 178.67 115.173 Q178.67 115.779 177.3 115.779 L144.02 115.779 Q142.939 115.779 142.939 115.173 Z" fill="#4ab467" fill-rule="nonzero" fill-opacity="1" /><path clip-path="url(#clip290)" d="M199.485 116.648 Q199.485 108.717 201.488 104.395 Q204.281 97.966 210.868 97.966 Q212.265 97.966 213.714 98.3613 Q215.19 98.7302 217.034 100.179 Q218.905 101.629 220.038 104 Q222.199 108.585 222.199 116.648 Q222.199 124.527 220.196 128.822 Q217.272 135.094 210.816 135.094 Q208.392 135.094 205.915 133.855 Q203.464 132.617 201.909 129.639 Q199.485 125.186 199.485 116.648 M203.965 115.99 Q203.965 124.132 204.544 127.373 Q205.203 130.877 206.995 132.406 Q208.813 133.908 210.816 133.908 Q212.976 133.908 214.768 132.3 Q216.586 130.667 217.14 127.162 Q217.746 123.71 217.72 115.99 Q217.72 108.48 217.193 105.476 Q216.481 101.971 214.584 100.575 Q212.713 99.1518 210.816 99.1518 Q210.104 99.1518 209.34 99.3626 Q208.602 99.5734 207.522 100.179 Q206.442 100.785 205.598 102.287 Q204.782 103.789 204.386 106.056 Q203.965 108.98 203.965 115.99 Z" fill="#4ab467" fill-rule="nonzero" fill-opacity="1" /><path clip-path="url(#clip290)" d="M227.027 133.038 Q226.21 132.169 226.21 131.036 Q226.21 129.903 227.027 129.086 Q227.843 128.242 229.082 128.242 Q230.268 128.242 231.058 129.033 Q231.875 129.797 231.875 131.062 Q231.875 132.3 231.005 133.117 Q230.162 133.908 229.082 133.908 Q227.843 133.908 227.027 133.038 Z" fill="#4ab467" fill-rule="nonzero" fill-opacity="1" /><path clip-path="url(#clip290)" d="M241.06 125.766 Q241.06 119.731 248.833 115.831 Q245.486 113.565 244.88 112.907 Q242.509 110.272 242.509 106.978 Q242.509 103.21 245.355 100.601 Q248.227 97.966 252.285 97.966 Q256.158 97.966 259.083 100.206 Q262.008 102.446 262.008 106.003 Q262.008 111.009 255.473 114.382 Q259.795 117.07 260.822 118.203 Q263.457 121.128 263.457 124.843 Q263.457 129.165 260.137 132.142 Q256.817 135.094 252.232 135.094 Q247.753 135.094 244.406 132.485 Q241.06 129.876 241.06 125.766 M243.747 125.766 Q243.747 129.112 246.251 131.352 Q248.78 133.592 252.285 133.592 Q255.684 133.592 258.214 131.642 Q260.77 129.692 260.77 126.793 Q260.77 125.66 260.374 124.685 Q260.005 123.71 259.241 122.946 Q258.504 122.156 258.029 121.813 Q257.581 121.444 256.712 120.838 L250.071 116.648 Q243.747 120.153 243.747 125.766 M244.88 104.87 Q244.88 107.452 247.595 109.244 L254.287 113.565 Q259.637 110.43 259.637 106.003 Q259.637 103.131 257.45 101.233 Q255.262 99.3099 252.232 99.3099 Q249.255 99.3099 247.068 100.891 Q244.88 102.446 244.88 104.87 Z" fill="#4ab467" fill-rule="nonzero" fill-opacity="1" /><path clip-path="url(#clip290)" d="M670.866 529.134 L1129.13 529.134 L1129.13 70.8661 L670.866 70.8661  Z" fill="#ffffff" fill-rule="evenodd" fill-opacity="1"/>
<defs>
  <clipPath id="clip293">
    <rect x="670" y="70" width="459" height="459"/>
  </clipPath>
</defs>
<polyline clip-path="url(#clip290)" style="stroke:#000000; stroke-linecap:round; stroke-linejoin:round; stroke-width:6; stroke-opacity:1; fill:none" points="670.866,529.134 1129.13,529.134 "/>
<polyline clip-path="url(#clip290)" style="stroke:#000000; stroke-linecap:round; stroke-linejoin:round; stroke-width:6; stroke-opacity:1; fill:none" points="900,529.134 900,70.8661 "/>
<polyline clip-path="url(#clip293)" style="stroke:#5fa3b4; stroke-linecap:round; stroke-linejoin:round; stroke-width:3; stroke-opacity:1; fill:none" points="212.598,526.191 1587.4,526.191 "/>
<polyline clip-path="url(#clip293)" style="stroke:#000000; stroke-linecap:round; stroke-linejoin:round; stroke-width:4.2; stroke-opacity:1; fill:none" points="683.836,528.86 714.717,528.838 745.597,528.803 776.478,528.752 807.358,528.685 838.239,528.572 869.119,528.373 900,528.012 930.881,527.302 961.761,525.811 992.642,522.316 1023.52,513.324 1054.4,486.576 1085.28,390.108 1116.16,70.8661 "/>
<polyline clip-path="url(#clip293)" style="stroke:#e1c67c; stroke-linecap:round; stroke-linejoin:round; stroke-width:4.2; stroke-opacity:1; fill:none" stroke-dasharray="2, 4" points="683.836,529.133 714.717,529.133 745.597,529.131 776.478,529.126 807.358,529.114 838.239,529.079 869.119,528.984 900,528.724 930.881,528.017 961.761,526.089 992.642,520.834 1023.52,506.51 1054.4,467.462 1085.28,361.021 1116.16,70.8662 "/>
<path clip-path="url(#clip290)" d="M723.16 99.3925 Q723.16 100.078 722.87 101.395 Q721.948 105.111 718.496 107.666 Q717.916 108.141 716.889 108.747 Q718.127 109.564 719.208 111.066 Q720.815 113.543 720.815 116.889 Q720.815 118.444 720.393 120.341 Q719.208 124.741 715.044 127.903 Q710.854 130.986 705.874 130.986 Q703.187 130.986 701.342 129.564 Q699.524 128.114 698.812 125.69 L695.15 140.473 Q695.071 140.841 694.596 140.841 L694.333 140.841 Q693.78 140.841 693.78 140.209 L702.106 107.008 Q702.66 104.768 703.555 102.66 Q704.451 100.552 705.69 98.6547 Q706.955 96.7575 708.404 95.3609 Q709.853 93.938 711.645 93.1212 Q713.437 92.278 715.334 92.278 Q719.313 92.278 721.579 94.992 Q723.16 96.9156 723.16 99.3925 M720.13 98.4439 Q720.13 96.8102 719.471 95.6771 Q718.127 93.5164 715.281 93.5164 Q713.569 93.5164 711.935 94.3069 Q710.327 95.0711 709.036 96.3886 Q707.745 97.7061 706.638 99.4979 Q705.532 101.29 704.715 103.24 Q703.924 105.163 703.397 107.271 L700.156 120.341 Q699.84 121.738 699.84 122.976 Q699.84 125.927 701.474 127.851 Q703.108 129.774 705.927 129.774 Q709.669 129.774 712.883 126.981 Q715.677 124.478 716.836 120.077 Q717.495 117.311 717.495 115.387 Q717.495 113.279 716.731 111.645 Q716.177 110.328 715.097 109.537 Q713.094 110.249 711.065 110.249 Q710.09 110.249 709.563 110.222 Q709.063 110.196 708.325 110.091 Q707.613 109.985 707.271 109.695 Q706.955 109.406 706.955 108.958 Q706.955 108.694 707.007 108.589 Q707.113 108.167 707.455 107.877 Q707.798 107.587 708.193 107.456 Q708.588 107.298 709.247 107.219 Q709.932 107.139 710.38 107.139 Q710.828 107.113 711.592 107.113 Q713.384 107.113 715.202 107.825 Q715.887 107.456 716.625 106.797 Q718.97 104.61 719.761 101.132 Q720.13 99.8405 720.13 98.4439 M713.49 108.641 Q712.383 108.352 711.54 108.352 Q708.457 108.352 708.299 108.852 Q708.299 108.905 708.404 108.958 Q708.509 108.984 708.746 109.01 Q709.01 109.01 709.221 109.037 Q709.458 109.063 709.853 109.063 Q710.248 109.063 710.459 109.063 Q710.696 109.063 711.118 109.063 Q712.172 109.063 713.49 108.641 Z" fill="#e1c67c" fill-rule="nonzero" fill-opacity="1" /><path clip-path="url(#clip290)" d="M738.999 122.185 Q739.051 121.527 740.079 121.527 L773.149 121.527 Q774.703 121.527 774.73 122.133 Q774.73 122.792 773.254 122.765 L740.448 122.765 Q738.999 122.792 738.999 122.185 M738.999 111.645 Q738.999 110.987 740.132 111.013 L773.096 111.013 Q774.703 111.013 774.73 111.645 Q774.73 112.251 773.359 112.251 L740.079 112.251 Q738.999 112.251 738.999 111.645 Z" fill="#e1c67c" fill-rule="nonzero" fill-opacity="1" /><path clip-path="url(#clip290)" d="M795.544 99.577 L795.544 97.8906 Q802.026 97.8906 805.373 94.4387 Q806.295 94.4387 806.453 94.6495 Q806.611 94.8603 806.611 95.8352 L806.611 126.112 Q806.611 127.719 807.402 128.22 Q808.192 128.72 811.644 128.72 L813.357 128.72 L813.357 130.38 Q811.46 130.222 804.609 130.222 Q797.758 130.222 795.887 130.38 L795.887 128.72 L797.6 128.72 Q800.999 128.72 801.816 128.246 Q802.633 127.745 802.633 126.112 L802.633 98.1541 Q799.813 99.577 795.544 99.577 Z" fill="#e1c67c" fill-rule="nonzero" fill-opacity="1" /><path clip-path="url(#clip290)" d="M817.648 129.511 Q816.831 128.641 816.831 127.508 Q816.831 126.375 817.648 125.558 Q818.465 124.715 819.704 124.715 Q820.889 124.715 821.68 125.506 Q822.497 126.27 822.497 127.535 Q822.497 128.773 821.627 129.59 Q820.784 130.38 819.704 130.38 Q818.465 130.38 817.648 129.511 Z" fill="#e1c67c" fill-rule="nonzero" fill-opacity="1" /><path clip-path="url(#clip290)" d="M831.681 113.121 Q831.681 105.19 833.684 100.868 Q836.477 94.4387 843.065 94.4387 Q844.461 94.4387 845.91 94.8339 Q847.386 95.2028 849.231 96.6521 Q851.101 98.1014 852.235 100.473 Q854.395 105.058 854.395 113.121 Q854.395 121 852.393 125.295 Q849.468 131.566 843.012 131.566 Q840.588 131.566 838.111 130.328 Q835.66 129.089 834.106 126.112 Q831.681 121.658 831.681 113.121 M836.161 112.462 Q836.161 120.604 836.741 123.846 Q837.399 127.35 839.191 128.878 Q841.009 130.38 843.012 130.38 Q845.173 130.38 846.964 128.773 Q848.783 127.139 849.336 123.635 Q849.942 120.183 849.916 112.462 Q849.916 104.952 849.389 101.948 Q848.677 98.4439 846.78 97.0473 Q844.909 95.6244 843.012 95.6244 Q842.3 95.6244 841.536 95.8352 Q840.798 96.046 839.718 96.6521 Q838.638 97.2581 837.795 98.7601 Q836.978 100.262 836.582 102.528 Q836.161 105.453 836.161 112.462 Z" fill="#e1c67c" fill-rule="nonzero" fill-opacity="1" /><path clip-path="url(#clip290)" d="M1270.87 529.134 L1729.13 529.134 L1729.13 70.8661 L1270.87 70.8661  Z" fill="#ffffff" fill-rule="evenodd" fill-opacity="1"/>
<defs>
  <clipPath id="clip294">
    <rect x="1270" y="70" width="459" height="459"/>
  </clipPath>
</defs>
<polyline clip-path="url(#clip290)" style="stroke:#000000; stroke-linecap:round; stroke-linejoin:round; stroke-width:6; stroke-opacity:1; fill:none" points="1270.87,529.134 1729.13,529.134 "/>
<polyline clip-path="url(#clip290)" style="stroke:#000000; stroke-linecap:round; stroke-linejoin:round; stroke-width:6; stroke-opacity:1; fill:none" points="1500,529.134 1500,70.8661 "/>
<path clip-path="url(#clip294)" d="M1296.07 528.734 L1296.07 529.134 L1318.12 529.134 L1318.12 528.734 L1296.07 528.734 L1296.07 528.734  Z" fill="#5fa3b4" fill-rule="evenodd" fill-opacity="0.2"/>
<polyline clip-path="url(#clip294)" style="stroke:#000000; stroke-linecap:round; stroke-linejoin:round; stroke-width:6; stroke-opacity:0.2; fill:none" points="1296.07,528.734 1296.07,529.134 1318.12,529.134 1318.12,528.734 1296.07,528.734 "/>
<path clip-path="url(#clip294)" d="M1323.63 527.103 L1323.63 529.134 L1345.68 529.134 L1345.68 527.103 L1323.63 527.103 L1323.63 527.103  Z" fill="#5fa3b4" fill-rule="evenodd" fill-opacity="0.2"/>
<polyline clip-path="url(#clip294)" style="stroke:#000000; stroke-linecap:round; stroke-linejoin:round; stroke-width:6; stroke-opacity:0.2; fill:none" points="1323.63,527.103 1323.63,529.134 1345.68,529.134 1345.68,527.103 1323.63,527.103 "/>
<path clip-path="url(#clip294)" d="M1351.19 521.1 L1351.19 529.134 L1373.23 529.134 L1373.23 521.1 L1351.19 521.1 L1351.19 521.1  Z" fill="#5fa3b4" fill-rule="evenodd" fill-opacity="0.2"/>
<polyline clip-path="url(#clip294)" style="stroke:#000000; stroke-linecap:round; stroke-linejoin:round; stroke-width:6; stroke-opacity:0.2; fill:none" points="1351.19,521.1 1351.19,529.134 1373.23,529.134 1373.23,521.1 1351.19,521.1 "/>
<path clip-path="url(#clip294)" d="M1378.75 504.388 L1378.75 529.134 L1400.79 529.134 L1400.79 504.388 L1378.75 504.388 L1378.75 504.388  Z" fill="#5fa3b4" fill-rule="evenodd" fill-opacity="0.2"/>
<polyline clip-path="url(#clip294)" style="stroke:#000000; stroke-linecap:round; stroke-linejoin:round; stroke-width:6; stroke-opacity:0.2; fill:none" points="1378.75,504.388 1378.75,529.134 1400.79,529.134 1400.79,504.388 1378.75,504.388 "/>
<path clip-path="url(#clip294)" d="M1406.3 469.771 L1406.3 529.134 L1428.35 529.134 L1428.35 469.771 L1406.3 469.771 L1406.3 469.771  Z" fill="#5fa3b4" fill-rule="evenodd" fill-opacity="0.2"/>
<polyline clip-path="url(#clip294)" style="stroke:#000000; stroke-linecap:round; stroke-linejoin:round; stroke-width:6; stroke-opacity:0.2; fill:none" points="1406.3,469.771 1406.3,529.134 1428.35,529.134 1428.35,469.771 1406.3,469.771 "/>
<path clip-path="url(#clip294)" d="M1433.86 418.23 L1433.86 529.134 L1455.91 529.134 L1455.91 418.23 L1433.86 418.23 L1433.86 418.23  Z" fill="#5fa3b4" fill-rule="evenodd" fill-opacity="0.2"/>
<polyline clip-path="url(#clip294)" style="stroke:#000000; stroke-linecap:round; stroke-linejoin:round; stroke-width:6; stroke-opacity:0.2; fill:none" points="1433.86,418.23 1433.86,529.134 1455.91,529.134 1455.91,418.23 1433.86,418.23 "/>
<path clip-path="url(#clip294)" d="M1461.42 367.769 L1461.42 529.134 L1483.47 529.134 L1483.47 367.769 L1461.42 367.769 L1461.42 367.769  Z" fill="#5fa3b4" fill-rule="evenodd" fill-opacity="0.2"/>
<polyline clip-path="url(#clip294)" style="stroke:#000000; stroke-linecap:round; stroke-linejoin:round; stroke-width:6; stroke-opacity:0.2; fill:none" points="1461.42,367.769 1461.42,529.134 1483.47,529.134 1483.47,367.769 1461.42,367.769 "/>
<path clip-path="url(#clip294)" d="M1488.98 346.284 L1488.98 529.134 L1511.02 529.134 L1511.02 346.284 L1488.98 346.284 L1488.98 346.284  Z" fill="#5fa3b4" fill-rule="evenodd" fill-opacity="0.2"/>
<polyline clip-path="url(#clip294)" style="stroke:#000000; stroke-linecap:round; stroke-linejoin:round; stroke-width:6; stroke-opacity:0.2; fill:none" points="1488.98,346.284 1488.98,529.134 1511.02,529.134 1511.02,346.284 1488.98,346.284 "/>
<path clip-path="url(#clip294)" d="M1516.53 367.769 L1516.53 529.134 L1538.58 529.134 L1538.58 367.769 L1516.53 367.769 L1516.53 367.769  Z" fill="#5fa3b4" fill-rule="evenodd" fill-opacity="0.2"/>
<polyline clip-path="url(#clip294)" style="stroke:#000000; stroke-linecap:round; stroke-linejoin:round; stroke-width:6; stroke-opacity:0.2; fill:none" points="1516.53,367.769 1516.53,529.134 1538.58,529.134 1538.58,367.769 1516.53,367.769 "/>
<path clip-path="url(#clip294)" d="M1544.09 418.23 L1544.09 529.134 L1566.14 529.134 L1566.14 418.23 L1544.09 418.23 L1544.09 418.23  Z" fill="#5fa3b4" fill-rule="evenodd" fill-opacity="0.2"/>
<polyline clip-path="url(#clip294)" style="stroke:#000000; stroke-linecap:round; stroke-linejoin:round; stroke-width:6; stroke-opacity:0.2; fill:none" points="1544.09,418.23 1544.09,529.134 1566.14,529.134 1566.14,418.23 1544.09,418.23 "/>
<path clip-path="url(#clip294)" d="M1571.65 469.771 L1571.65 529.134 L1593.7 529.134 L1593.7 469.771 L1571.65 469.771 L1571.65 469.771  Z" fill="#5fa3b4" fill-rule="evenodd" fill-opacity="0.2"/>
<polyline clip-path="url(#clip294)" style="stroke:#000000; stroke-linecap:round; stroke-linejoin:round; stroke-width:6; stroke-opacity:0.2; fill:none" points="1571.65,469.771 1571.65,529.134 1593.7,529.134 1593.7,469.771 1571.65,469.771 "/>
<path clip-path="url(#clip294)" d="M1599.21 504.388 L1599.21 529.134 L1621.25 529.134 L1621.25 504.388 L1599.21 504.388 L1599.21 504.388  Z" fill="#5fa3b4" fill-rule="evenodd" fill-opacity="0.2"/>
<polyline clip-path="url(#clip294)" style="stroke:#000000; stroke-linecap:round; stroke-linejoin:round; stroke-width:6; stroke-opacity:0.2; fill:none" points="1599.21,504.388 1599.21,529.134 1621.25,529.134 1621.25,504.388 1599.21,504.388 "/>
<path clip-path="url(#clip294)" d="M1626.77 521.1 L1626.77 529.134 L1648.81 529.134 L1648.81 521.1 L1626.77 521.1 L1626.77 521.1  Z" fill="#5fa3b4" fill-rule="evenodd" fill-opacity="0.2"/>
<polyline clip-path="url(#clip294)" style="stroke:#000000; stroke-linecap:round; stroke-linejoin:round; stroke-width:6; stroke-opacity:0.2; fill:none" points="1626.77,521.1 1626.77,529.134 1648.81,529.134 1648.81,521.1 1626.77,521.1 "/>
<path clip-path="url(#clip294)" d="M1654.32 527.103 L1654.32 529.134 L1676.37 529.134 L1676.37 527.103 L1654.32 527.103 L1654.32 527.103  Z" fill="#5fa3b4" fill-rule="evenodd" fill-opacity="0.2"/>
<polyline clip-path="url(#clip294)" style="stroke:#000000; stroke-linecap:round; stroke-linejoin:round; stroke-width:6; stroke-opacity:0.2; fill:none" points="1654.32,527.103 1654.32,529.134 1676.37,529.134 1676.37,527.103 1654.32,527.103 "/>
<path clip-path="url(#clip294)" d="M1681.88 528.734 L1681.88 529.134 L1703.93 529.134 L1703.93 528.734 L1681.88 528.734 L1681.88 528.734  Z" fill="#5fa3b4" fill-rule="evenodd" fill-opacity="0.2"/>
<polyline clip-path="url(#clip294)" style="stroke:#000000; stroke-linecap:round; stroke-linejoin:round; stroke-width:6; stroke-opacity:0.2; fill:none" points="1681.88,528.734 1681.88,529.134 1703.93,529.134 1703.93,528.734 1681.88,528.734 "/>
<circle clip-path="url(#clip294)" style="fill:#5fa3b4; stroke:none; fill-opacity:0" cx="1307.09" cy="528.734" r="2"/>
<circle clip-path="url(#clip294)" style="fill:#5fa3b4; stroke:none; fill-opacity:0" cx="1334.65" cy="527.103" r="2"/>
<circle clip-path="url(#clip294)" style="fill:#5fa3b4; stroke:none; fill-opacity:0" cx="1362.21" cy="521.1" r="2"/>
<circle clip-path="url(#clip294)" style="fill:#5fa3b4; stroke:none; fill-opacity:0" cx="1389.77" cy="504.388" r="2"/>
<circle clip-path="url(#clip294)" style="fill:#5fa3b4; stroke:none; fill-opacity:0" cx="1417.33" cy="469.771" r="2"/>
<circle clip-path="url(#clip294)" style="fill:#5fa3b4; stroke:none; fill-opacity:0" cx="1444.88" cy="418.23" r="2"/>
<circle clip-path="url(#clip294)" style="fill:#5fa3b4; stroke:none; fill-opacity:0" cx="1472.44" cy="367.769" r="2"/>
<circle clip-path="url(#clip294)" style="fill:#5fa3b4; stroke:none; fill-opacity:0" cx="1500" cy="346.284" r="2"/>
<circle clip-path="url(#clip294)" style="fill:#5fa3b4; stroke:none; fill-opacity:0" cx="1527.56" cy="367.769" r="2"/>
<circle clip-path="url(#clip294)" style="fill:#5fa3b4; stroke:none; fill-opacity:0" cx="1555.12" cy="418.23" r="2"/>
<circle clip-path="url(#clip294)" style="fill:#5fa3b4; stroke:none; fill-opacity:0" cx="1582.67" cy="469.771" r="2"/>
<circle clip-path="url(#clip294)" style="fill:#5fa3b4; stroke:none; fill-opacity:0" cx="1610.23" cy="504.388" r="2"/>
<circle clip-path="url(#clip294)" style="fill:#5fa3b4; stroke:none; fill-opacity:0" cx="1637.79" cy="521.1" r="2"/>
<circle clip-path="url(#clip294)" style="fill:#5fa3b4; stroke:none; fill-opacity:0" cx="1665.35" cy="527.103" r="2"/>
<circle clip-path="url(#clip294)" style="fill:#5fa3b4; stroke:none; fill-opacity:0" cx="1692.91" cy="528.734" r="2"/>
<path clip-path="url(#clip294)" d="M1296.07 529.134 L1296.07 529.134 L1318.12 529.134 L1318.12 529.134 L1296.07 529.134 L1296.07 529.134  Z" fill="#83d89e" fill-rule="evenodd" fill-opacity="1"/>
<polyline clip-path="url(#clip294)" style="stroke:#000000; stroke-linecap:round; stroke-linejoin:round; stroke-width:6; stroke-opacity:1; fill:none" points="1296.07,529.134 1296.07,529.134 1318.12,529.134 1318.12,529.134 1296.07,529.134 "/>
<path clip-path="url(#clip294)" d="M1323.63 529.133 L1323.63 529.134 L1345.68 529.134 L1345.68 529.133 L1323.63 529.133 L1323.63 529.133  Z" fill="#83d89e" fill-rule="evenodd" fill-opacity="1"/>
<polyline clip-path="url(#clip294)" style="stroke:#000000; stroke-linecap:round; stroke-linejoin:round; stroke-width:6; stroke-opacity:1; fill:none" points="1323.63,529.133 1323.63,529.134 1345.68,529.134 1345.68,529.133 1323.63,529.133 "/>
<path clip-path="url(#clip294)" d="M1351.19 529.126 L1351.19 529.134 L1373.23 529.134 L1373.23 529.126 L1351.19 529.126 L1351.19 529.126  Z" fill="#83d89e" fill-rule="evenodd" fill-opacity="1"/>
<polyline clip-path="url(#clip294)" style="stroke:#000000; stroke-linecap:round; stroke-linejoin:round; stroke-width:6; stroke-opacity:1; fill:none" points="1351.19,529.126 1351.19,529.134 1373.23,529.134 1373.23,529.126 1351.19,529.126 "/>
<path clip-path="url(#clip294)" d="M1378.75 529.071 L1378.75 529.134 L1400.79 529.134 L1400.79 529.071 L1378.75 529.071 L1378.75 529.071  Z" fill="#83d89e" fill-rule="evenodd" fill-opacity="1"/>
<polyline clip-path="url(#clip294)" style="stroke:#000000; stroke-linecap:round; stroke-linejoin:round; stroke-width:6; stroke-opacity:1; fill:none" points="1378.75,529.071 1378.75,529.134 1400.79,529.134 1400.79,529.071 1378.75,529.071 "/>
<path clip-path="url(#clip294)" d="M1406.3 528.726 L1406.3 529.134 L1428.35 529.134 L1428.35 528.726 L1406.3 528.726 L1406.3 528.726  Z" fill="#83d89e" fill-rule="evenodd" fill-opacity="1"/>
<polyline clip-path="url(#clip294)" style="stroke:#000000; stroke-linecap:round; stroke-linejoin:round; stroke-width:6; stroke-opacity:1; fill:none" points="1406.3,528.726 1406.3,529.134 1428.35,529.134 1428.35,528.726 1406.3,528.726 "/>
<path clip-path="url(#clip294)" d="M1433.86 527.056 L1433.86 529.134 L1455.91 529.134 L1455.91 527.056 L1433.86 527.056 L1433.86 527.056  Z" fill="#83d89e" fill-rule="evenodd" fill-opacity="1"/>
<polyline clip-path="url(#clip294)" style="stroke:#000000; stroke-linecap:round; stroke-linejoin:round; stroke-width:6; stroke-opacity:1; fill:none" points="1433.86,527.056 1433.86,529.134 1455.91,529.134 1455.91,527.056 1433.86,527.056 "/>
<path clip-path="url(#clip294)" d="M1461.42 520.893 L1461.42 529.134 L1483.47 529.134 L1483.47 520.893 L1461.42 520.893 L1461.42 520.893  Z" fill="#83d89e" fill-rule="evenodd" fill-opacity="1"/>
<polyline clip-path="url(#clip294)" style="stroke:#000000; stroke-linecap:round; stroke-linejoin:round; stroke-width:6; stroke-opacity:1; fill:none" points="1461.42,520.893 1461.42,529.134 1483.47,529.134 1483.47,520.893 1461.42,520.893 "/>
<path clip-path="url(#clip294)" d="M1488.98 503.677 L1488.98 529.134 L1511.02 529.134 L1511.02 503.677 L1488.98 503.677 L1488.98 503.677  Z" fill="#83d89e" fill-rule="evenodd" fill-opacity="1"/>
<polyline clip-path="url(#clip294)" style="stroke:#000000; stroke-linecap:round; stroke-linejoin:round; stroke-width:6; stroke-opacity:1; fill:none" points="1488.98,503.677 1488.98,529.134 1511.02,529.134 1511.02,503.677 1488.98,503.677 "/>
<path clip-path="url(#clip294)" d="M1516.53 467.894 L1516.53 529.134 L1538.58 529.134 L1538.58 467.894 L1516.53 467.894 L1516.53 467.894  Z" fill="#83d89e" fill-rule="evenodd" fill-opacity="1"/>
<polyline clip-path="url(#clip294)" style="stroke:#000000; stroke-linecap:round; stroke-linejoin:round; stroke-width:6; stroke-opacity:1; fill:none" points="1516.53,467.894 1516.53,529.134 1538.58,529.134 1538.58,467.894 1516.53,467.894 "/>
<path clip-path="url(#clip294)" d="M1544.09 414.4 L1544.09 529.134 L1566.14 529.134 L1566.14 414.4 L1544.09 414.4 L1544.09 414.4  Z" fill="#83d89e" fill-rule="evenodd" fill-opacity="1"/>
<polyline clip-path="url(#clip294)" style="stroke:#000000; stroke-linecap:round; stroke-linejoin:round; stroke-width:6; stroke-opacity:1; fill:none" points="1544.09,414.4 1544.09,529.134 1566.14,529.134 1566.14,414.4 1544.09,414.4 "/>
<path clip-path="url(#clip294)" d="M1571.65 361.727 L1571.65 529.134 L1593.7 529.134 L1593.7 361.727 L1571.65 361.727 L1571.65 361.727  Z" fill="#83d89e" fill-rule="evenodd" fill-opacity="1"/>
<polyline clip-path="url(#clip294)" style="stroke:#000000; stroke-linecap:round; stroke-linejoin:round; stroke-width:6; stroke-opacity:1; fill:none" points="1571.65,361.727 1571.65,529.134 1593.7,529.134 1593.7,361.727 1571.65,361.727 "/>
<path clip-path="url(#clip294)" d="M1599.21 338.902 L1599.21 529.134 L1621.25 529.134 L1621.25 338.902 L1599.21 338.902 L1599.21 338.902  Z" fill="#83d89e" fill-rule="evenodd" fill-opacity="1"/>
<polyline clip-path="url(#clip294)" style="stroke:#000000; stroke-linecap:round; stroke-linejoin:round; stroke-width:6; stroke-opacity:1; fill:none" points="1599.21,338.902 1599.21,529.134 1621.25,529.134 1621.25,338.902 1599.21,338.902 "/>
<path clip-path="url(#clip294)" d="M1626.77 360.781 L1626.77 529.134 L1648.81 529.134 L1648.81 360.781 L1626.77 360.781 L1626.77 360.781  Z" fill="#83d89e" fill-rule="evenodd" fill-opacity="1"/>
<polyline clip-path="url(#clip294)" style="stroke:#000000; stroke-linecap:round; stroke-linejoin:round; stroke-width:6; stroke-opacity:1; fill:none" points="1626.77,360.781 1626.77,529.134 1648.81,529.134 1648.81,360.781 1626.77,360.781 "/>
<path clip-path="url(#clip294)" d="M1654.32 413.101 L1654.32 529.134 L1676.37 529.134 L1676.37 413.101 L1654.32 413.101 L1654.32 413.101  Z" fill="#83d89e" fill-rule="evenodd" fill-opacity="1"/>
<polyline clip-path="url(#clip294)" style="stroke:#000000; stroke-linecap:round; stroke-linejoin:round; stroke-width:6; stroke-opacity:1; fill:none" points="1654.32,413.101 1654.32,529.134 1676.37,529.134 1676.37,413.101 1654.32,413.101 "/>
<path clip-path="url(#clip294)" d="M1681.88 466.851 L1681.88 529.134 L1703.93 529.134 L1703.93 466.851 L1681.88 466.851 L1681.88 466.851  Z" fill="#83d89e" fill-rule="evenodd" fill-opacity="1"/>
<polyline clip-path="url(#clip294)" style="stroke:#000000; stroke-linecap:round; stroke-linejoin:round; stroke-width:6; stroke-opacity:1; fill:none" points="1681.88,466.851 1681.88,529.134 1703.93,529.134 1703.93,466.851 1681.88,466.851 "/>
<circle clip-path="url(#clip294)" style="fill:#83d89e; stroke:none; fill-opacity:0" cx="1307.09" cy="529.134" r="2"/>
<circle clip-path="url(#clip294)" style="fill:#83d89e; stroke:none; fill-opacity:0" cx="1334.65" cy="529.133" r="2"/>
<circle clip-path="url(#clip294)" style="fill:#83d89e; stroke:none; fill-opacity:0" cx="1362.21" cy="529.126" r="2"/>
<circle clip-path="url(#clip294)" style="fill:#83d89e; stroke:none; fill-opacity:0" cx="1389.77" cy="529.071" r="2"/>
<circle clip-path="url(#clip294)" style="fill:#83d89e; stroke:none; fill-opacity:0" cx="1417.33" cy="528.726" r="2"/>
<circle clip-path="url(#clip294)" style="fill:#83d89e; stroke:none; fill-opacity:0" cx="1444.88" cy="527.056" r="2"/>
<circle clip-path="url(#clip294)" style="fill:#83d89e; stroke:none; fill-opacity:0" cx="1472.44" cy="520.893" r="2"/>
<circle clip-path="url(#clip294)" style="fill:#83d89e; stroke:none; fill-opacity:0" cx="1500" cy="503.677" r="2"/>
<circle clip-path="url(#clip294)" style="fill:#83d89e; stroke:none; fill-opacity:0" cx="1527.56" cy="467.894" r="2"/>
<circle clip-path="url(#clip294)" style="fill:#83d89e; stroke:none; fill-opacity:0" cx="1555.12" cy="414.4" r="2"/>
<circle clip-path="url(#clip294)" style="fill:#83d89e; stroke:none; fill-opacity:0" cx="1582.67" cy="361.727" r="2"/>
<circle clip-path="url(#clip294)" style="fill:#83d89e; stroke:none; fill-opacity:0" cx="1610.23" cy="338.902" r="2"/>
<circle clip-path="url(#clip294)" style="fill:#83d89e; stroke:none; fill-opacity:0" cx="1637.79" cy="360.781" r="2"/>
<circle clip-path="url(#clip294)" style="fill:#83d89e; stroke:none; fill-opacity:0" cx="1665.35" cy="413.101" r="2"/>
<circle clip-path="url(#clip294)" style="fill:#83d89e; stroke:none; fill-opacity:0" cx="1692.91" cy="466.851" r="2"/>
</svg>
