<?xml version="1.0" encoding="utf-8"?>
<svg xmlns="http://www.w3.org/2000/svg" xmlns:xlink="http://www.w3.org/1999/xlink" width="450" height="150" viewBox="0 0 1800 600">
<defs>
  <clipPath id="clip160">
    <rect x="0" y="0" width="1800" height="600"/>
  </clipPath>
</defs>
<path clip-path="url(#clip160)" d="M0 600 L1800 600 L1800 3.33067e-14 L0 3.33067e-14  Z" fill="#ffffff" fill-rule="evenodd" fill-opacity="1"/>
<defs>
  <clipPath id="clip161">
    <rect x="360" y="0" width="1261" height="600"/>
  </clipPath>
</defs>
<path clip-path="url(#clip160)" d="M70.8661 529.134 L529.134 529.134 L529.134 70.8661 L70.8661 70.8661  Z" fill="#ffffff" fill-rule="evenodd" fill-opacity="1"/>
<defs>
  <clipPath id="clip162">
    <rect x="70" y="70" width="459" height="459"/>
  </clipPath>
</defs>
<polyline clip-path="url(#clip160)" style="stroke:#000000; stroke-linecap:round; stroke-linejoin:round; stroke-width:6; stroke-opacity:1; fill:none" points="70.8661,529.134 529.134,529.134 "/>
<polyline clip-path="url(#clip160)" style="stroke:#000000; stroke-linecap:round; stroke-linejoin:round; stroke-width:6; stroke-opacity:1; fill:none" points="300,529.134 300,70.8661 "/>
<path clip-path="url(#clip162)" d="M96.0717 528.734 L96.0717 529.134 L118.118 529.134 L118.118 528.734 L96.0717 528.734 L96.0717 528.734  Z" fill="#5fa3b4" fill-rule="evenodd" fill-opacity="0.2"/>
<polyline clip-path="url(#clip162)" style="stroke:#000000; stroke-linecap:round; stroke-linejoin:round; stroke-width:6; stroke-opacity:0.2; fill:none" points="96.0717,528.734 96.0717,529.134 118.118,529.134 118.118,528.734 96.0717,528.734 "/>
<path clip-path="url(#clip162)" d="M123.63 527.103 L123.63 529.134 L145.676 529.134 L145.676 527.103 L123.63 527.103 L123.63 527.103  Z" fill="#5fa3b4" fill-rule="evenodd" fill-opacity="0.2"/>
<polyline clip-path="url(#clip162)" style="stroke:#000000; stroke-linecap:round; stroke-linejoin:round; stroke-width:6; stroke-opacity:0.2; fill:none" points="123.63,527.103 123.63,529.134 145.676,529.134 145.676,527.103 123.63,527.103 "/>
<path clip-path="url(#clip162)" d="M151.187 521.1 L151.187 529.134 L173.234 529.134 L173.234 521.1 L151.187 521.1 L151.187 521.1  Z" fill="#5fa3b4" fill-rule="evenodd" fill-opacity="0.2"/>
<polyline clip-path="url(#clip162)" style="stroke:#000000; stroke-linecap:round; stroke-linejoin:round; stroke-width:6; stroke-opacity:0.2; fill:none" points="151.187,521.1 151.187,529.134 173.234,529.134 173.234,521.1 151.187,521.1 "/>
<path clip-path="url(#clip162)" d="M178.745 504.388 L178.745 529.134 L200.792 529.134 L200.792 504.388 L178.745 504.388 L178.745 504.388  Z" fill="#5fa3b4" fill-rule="evenodd" fill-opacity="0.2"/>
<polyline clip-path="url(#clip162)" style="stroke:#000000; stroke-linecap:round; stroke-linejoin:round; stroke-width:6; stroke-opacity:0.2; fill:none" points="178.745,504.388 178.745,529.134 200.792,529.134 200.792,504.388 178.745,504.388 "/>
<path clip-path="url(#clip162)" d="M206.303 469.771 L206.303 529.134 L228.35 529.134 L228.35 469.771 L206.303 469.771 L206.303 469.771  Z" fill="#5fa3b4" fill-rule="evenodd" fill-opacity="0.2"/>
<polyline clip-path="url(#clip162)" style="stroke:#000000; stroke-linecap:round; stroke-linejoin:round; stroke-width:6; stroke-opacity:0.2; fill:none" points="206.303,469.771 206.303,529.134 228.35,529.134 228.35,469.771 206.303,469.771 "/>
<path clip-path="url(#clip162)" d="M233.861 418.23 L233.861 529.134 L255.907 529.134 L255.907 418.23 L233.861 418.23 L233.861 418.23  Z" fill="#5fa3b4" fill-rule="evenodd" fill-opacity="0.2"/>
<polyline clip-path="url(#clip162)" style="stroke:#000000; stroke-linecap:round; stroke-linejoin:round; stroke-width:6; stroke-opacity:0.2; fill:none" points="233.861,418.23 233.861,529.134 255.907,529.134 255.907,418.23 233.861,418.23 "/>
<path clip-path="url(#clip162)" d="M261.419 367.769 L261.419 529.134 L283.465 529.134 L283.465 367.769 L261.419 367.769 L261.419 367.769  Z" fill="#5fa3b4" fill-rule="evenodd" fill-opacity="0.2"/>
<polyline clip-path="url(#clip162)" style="stroke:#000000; stroke-linecap:round; stroke-linejoin:round; stroke-width:6; stroke-opacity:0.2; fill:none" points="261.419,367.769 261.419,529.134 283.465,529.134 283.465,367.769 261.419,367.769 "/>
<path clip-path="url(#clip162)" d="M288.977 346.284 L288.977 529.134 L311.023 529.134 L311.023 346.284 L288.977 346.284 L288.977 346.284  Z" fill="#5fa3b4" fill-rule="evenodd" fill-opacity="0.2"/>
<polyline clip-path="url(#clip162)" style="stroke:#000000; stroke-linecap:round; stroke-linejoin:round; stroke-width:6; stroke-opacity:0.2; fill:none" points="288.977,346.284 288.977,529.134 311.023,529.134 311.023,346.284 288.977,346.284 "/>
<path clip-path="url(#clip162)" d="M316.535 367.769 L316.535 529.134 L338.581 529.134 L338.581 367.769 L316.535 367.769 L316.535 367.769  Z" fill="#5fa3b4" fill-rule="evenodd" fill-opacity="0.2"/>
<polyline clip-path="url(#clip162)" style="stroke:#000000; stroke-linecap:round; stroke-linejoin:round; stroke-width:6; stroke-opacity:0.2; fill:none" points="316.535,367.769 316.535,529.134 338.581,529.134 338.581,367.769 316.535,367.769 "/>
<path clip-path="url(#clip162)" d="M344.093 418.23 L344.093 529.134 L366.139 529.134 L366.139 418.23 L344.093 418.23 L344.093 418.23  Z" fill="#5fa3b4" fill-rule="evenodd" fill-opacity="0.2"/>
<polyline clip-path="url(#clip162)" style="stroke:#000000; stroke-linecap:round; stroke-linejoin:round; stroke-width:6; stroke-opacity:0.2; fill:none" points="344.093,418.23 344.093,529.134 366.139,529.134 366.139,418.23 344.093,418.23 "/>
<path clip-path="url(#clip162)" d="M371.65 469.771 L371.65 529.134 L393.697 529.134 L393.697 469.771 L371.65 469.771 L371.65 469.771  Z" fill="#5fa3b4" fill-rule="evenodd" fill-opacity="0.2"/>
<polyline clip-path="url(#clip162)" style="stroke:#000000; stroke-linecap:round; stroke-linejoin:round; stroke-width:6; stroke-opacity:0.2; fill:none" points="371.65,469.771 371.65,529.134 393.697,529.134 393.697,469.771 371.65,469.771 "/>
<path clip-path="url(#clip162)" d="M399.208 504.388 L399.208 529.134 L421.255 529.134 L421.255 504.388 L399.208 504.388 L399.208 504.388  Z" fill="#5fa3b4" fill-rule="evenodd" fill-opacity="0.2"/>
<polyline clip-path="url(#clip162)" style="stroke:#000000; stroke-linecap:round; stroke-linejoin:round; stroke-width:6; stroke-opacity:0.2; fill:none" points="399.208,504.388 399.208,529.134 421.255,529.134 421.255,504.388 399.208,504.388 "/>
<path clip-path="url(#clip162)" d="M426.766 521.1 L426.766 529.134 L448.813 529.134 L448.813 521.1 L426.766 521.1 L426.766 521.1  Z" fill="#5fa3b4" fill-rule="evenodd" fill-opacity="0.2"/>
<polyline clip-path="url(#clip162)" style="stroke:#000000; stroke-linecap:round; stroke-linejoin:round; stroke-width:6; stroke-opacity:0.2; fill:none" points="426.766,521.1 426.766,529.134 448.813,529.134 448.813,521.1 426.766,521.1 "/>
<path clip-path="url(#clip162)" d="M454.324 527.103 L454.324 529.134 L476.37 529.134 L476.37 527.103 L454.324 527.103 L454.324 527.103  Z" fill="#5fa3b4" fill-rule="evenodd" fill-opacity="0.2"/>
<polyline clip-path="url(#clip162)" style="stroke:#000000; stroke-linecap:round; stroke-linejoin:round; stroke-width:6; stroke-opacity:0.2; fill:none" points="454.324,527.103 454.324,529.134 476.37,529.134 476.37,527.103 454.324,527.103 "/>
<path clip-path="url(#clip162)" d="M481.882 528.734 L481.882 529.134 L503.928 529.134 L503.928 528.734 L481.882 528.734 L481.882 528.734  Z" fill="#5fa3b4" fill-rule="evenodd" fill-opacity="0.2"/>
<polyline clip-path="url(#clip162)" style="stroke:#000000; stroke-linecap:round; stroke-linejoin:round; stroke-width:6; stroke-opacity:0.2; fill:none" points="481.882,528.734 481.882,529.134 503.928,529.134 503.928,528.734 481.882,528.734 "/>
<circle clip-path="url(#clip162)" style="fill:#5fa3b4; stroke:none; fill-opacity:0" cx="107.095" cy="528.734" r="2"/>
<circle clip-path="url(#clip162)" style="fill:#5fa3b4; stroke:none; fill-opacity:0" cx="134.653" cy="527.103" r="2"/>
<circle clip-path="url(#clip162)" style="fill:#5fa3b4; stroke:none; fill-opacity:0" cx="162.211" cy="521.1" r="2"/>
<circle clip-path="url(#clip162)" style="fill:#5fa3b4; stroke:none; fill-opacity:0" cx="189.768" cy="504.388" r="2"/>
<circle clip-path="url(#clip162)" style="fill:#5fa3b4; stroke:none; fill-opacity:0" cx="217.326" cy="469.771" r="2"/>
<circle clip-path="url(#clip162)" style="fill:#5fa3b4; stroke:none; fill-opacity:0" cx="244.884" cy="418.23" r="2"/>
<circle clip-path="url(#clip162)" style="fill:#5fa3b4; stroke:none; fill-opacity:0" cx="272.442" cy="367.769" r="2"/>
<circle clip-path="url(#clip162)" style="fill:#5fa3b4; stroke:none; fill-opacity:0" cx="300" cy="346.284" r="2"/>
<circle clip-path="url(#clip162)" style="fill:#5fa3b4; stroke:none; fill-opacity:0" cx="327.558" cy="367.769" r="2"/>
<circle clip-path="url(#clip162)" style="fill:#5fa3b4; stroke:none; fill-opacity:0" cx="355.116" cy="418.23" r="2"/>
<circle clip-path="url(#clip162)" style="fill:#5fa3b4; stroke:none; fill-opacity:0" cx="382.674" cy="469.771" r="2"/>
<circle clip-path="url(#clip162)" style="fill:#5fa3b4; stroke:none; fill-opacity:0" cx="410.232" cy="504.388" r="2"/>
<circle clip-path="url(#clip162)" style="fill:#5fa3b4; stroke:none; fill-opacity:0" cx="437.789" cy="521.1" r="2"/>
<circle clip-path="url(#clip162)" style="fill:#5fa3b4; stroke:none; fill-opacity:0" cx="465.347" cy="527.103" r="2"/>
<circle clip-path="url(#clip162)" style="fill:#5fa3b4; stroke:none; fill-opacity:0" cx="492.905" cy="528.734" r="2"/>
<path clip-path="url(#clip162)" d="M96.0717 529.13 L96.0717 529.134 L118.118 529.134 L118.118 529.13 L96.0717 529.13 L96.0717 529.13  Z" fill="#4ab467" fill-rule="evenodd" fill-opacity="1"/>
<polyline clip-path="url(#clip162)" style="stroke:#000000; stroke-linecap:round; stroke-linejoin:round; stroke-width:6; stroke-opacity:1; fill:none" points="96.0717,529.13 96.0717,529.134 118.118,529.134 118.118,529.13 96.0717,529.13 "/>
<path clip-path="url(#clip162)" d="M123.63 529.115 L123.63 529.134 L145.676 529.134 L145.676 529.115 L123.63 529.115 L123.63 529.115  Z" fill="#4ab467" fill-rule="evenodd" fill-opacity="1"/>
<polyline clip-path="url(#clip162)" style="stroke:#000000; stroke-linecap:round; stroke-linejoin:round; stroke-width:6; stroke-opacity:1; fill:none" points="123.63,529.115 123.63,529.134 145.676,529.134 145.676,529.115 123.63,529.115 "/>
<path clip-path="url(#clip162)" d="M151.187 529.042 L151.187 529.134 L173.234 529.134 L173.234 529.042 L151.187 529.042 L151.187 529.042  Z" fill="#4ab467" fill-rule="evenodd" fill-opacity="1"/>
<polyline clip-path="url(#clip162)" style="stroke:#000000; stroke-linecap:round; stroke-linejoin:round; stroke-width:6; stroke-opacity:1; fill:none" points="151.187,529.042 151.187,529.134 173.234,529.134 173.234,529.042 151.187,529.042 "/>
<path clip-path="url(#clip162)" d="M178.745 528.791 L178.745 529.134 L200.792 529.134 L200.792 528.791 L178.745 528.791 L178.745 528.791  Z" fill="#4ab467" fill-rule="evenodd" fill-opacity="1"/>
<polyline clip-path="url(#clip162)" style="stroke:#000000; stroke-linecap:round; stroke-linejoin:round; stroke-width:6; stroke-opacity:1; fill:none" points="178.745,528.791 178.745,529.134 200.792,529.134 200.792,528.791 178.745,528.791 "/>
<path clip-path="url(#clip162)" d="M206.303 528.069 L206.303 529.134 L228.35 529.134 L228.35 528.069 L206.303 528.069 L206.303 528.069  Z" fill="#4ab467" fill-rule="evenodd" fill-opacity="1"/>
<polyline clip-path="url(#clip162)" style="stroke:#000000; stroke-linecap:round; stroke-linejoin:round; stroke-width:6; stroke-opacity:1; fill:none" points="206.303,528.069 206.303,529.134 228.35,529.134 228.35,528.069 206.303,528.069 "/>
<path clip-path="url(#clip162)" d="M233.861 526.46 L233.861 529.134 L255.907 529.134 L255.907 526.46 L233.861 526.46 L233.861 526.46  Z" fill="#4ab467" fill-rule="evenodd" fill-opacity="1"/>
<polyline clip-path="url(#clip162)" style="stroke:#000000; stroke-linecap:round; stroke-linejoin:round; stroke-width:6; stroke-opacity:1; fill:none" points="233.861,526.46 233.861,529.134 255.907,529.134 255.907,526.46 233.861,526.46 "/>
<path clip-path="url(#clip162)" d="M261.419 522.815 L261.419 529.134 L283.465 529.134 L283.465 522.815 L261.419 522.815 L261.419 522.815  Z" fill="#4ab467" fill-rule="evenodd" fill-opacity="1"/>
<polyline clip-path="url(#clip162)" style="stroke:#000000; stroke-linecap:round; stroke-linejoin:round; stroke-width:6; stroke-opacity:1; fill:none" points="261.419,522.815 261.419,529.134 283.465,529.134 283.465,522.815 261.419,522.815 "/>
<path clip-path="url(#clip162)" d="M288.977 516.772 L288.977 529.134 L311.023 529.134 L311.023 516.772 L288.977 516.772 L288.977 516.772  Z" fill="#4ab467" fill-rule="evenodd" fill-opacity="1"/>
<polyline clip-path="url(#clip162)" style="stroke:#000000; stroke-linecap:round; stroke-linejoin:round; stroke-width:6; stroke-opacity:1; fill:none" points="288.977,516.772 288.977,529.134 311.023,529.134 311.023,516.772 288.977,516.772 "/>
<path clip-path="url(#clip162)" d="M316.535 508.155 L316.535 529.134 L338.581 529.134 L338.581 508.155 L316.535 508.155 L316.535 508.155  Z" fill="#4ab467" fill-rule="evenodd" fill-opacity="1"/>
<polyline clip-path="url(#clip162)" style="stroke:#000000; stroke-linecap:round; stroke-linejoin:round; stroke-width:6; stroke-opacity:1; fill:none" points="316.535,508.155 316.535,529.134 338.581,529.134 338.581,508.155 316.535,508.155 "/>
<path clip-path="url(#clip162)" d="M344.093 498.033 L344.093 529.134 L366.139 529.134 L366.139 498.033 L344.093 498.033 L344.093 498.033  Z" fill="#4ab467" fill-rule="evenodd" fill-opacity="1"/>
<polyline clip-path="url(#clip162)" style="stroke:#000000; stroke-linecap:round; stroke-linejoin:round; stroke-width:6; stroke-opacity:1; fill:none" points="344.093,498.033 344.093,529.134 366.139,529.134 366.139,498.033 344.093,498.033 "/>
<path clip-path="url(#clip162)" d="M371.65 488.209 L371.65 529.134 L393.697 529.134 L393.697 488.209 L371.65 488.209 L371.65 488.209  Z" fill="#4ab467" fill-rule="evenodd" fill-opacity="1"/>
<polyline clip-path="url(#clip162)" style="stroke:#000000; stroke-linecap:round; stroke-linejoin:round; stroke-width:6; stroke-opacity:1; fill:none" points="371.65,488.209 371.65,529.134 393.697,529.134 393.697,488.209 371.65,488.209 "/>
<path clip-path="url(#clip162)" d="M399.208 479.256 L399.208 529.134 L421.255 529.134 L421.255 479.256 L399.208 479.256 L399.208 479.256  Z" fill="#4ab467" fill-rule="evenodd" fill-opacity="1"/>
<polyline clip-path="url(#clip162)" style="stroke:#000000; stroke-linecap:round; stroke-linejoin:round; stroke-width:6; stroke-opacity:1; fill:none" points="399.208,479.256 399.208,529.134 421.255,529.134 421.255,479.256 399.208,479.256 "/>
<path clip-path="url(#clip162)" d="M426.766 471.96 L426.766 529.134 L448.813 529.134 L448.813 471.96 L426.766 471.96 L426.766 471.96  Z" fill="#4ab467" fill-rule="evenodd" fill-opacity="1"/>
<polyline clip-path="url(#clip162)" style="stroke:#000000; stroke-linecap:round; stroke-linejoin:round; stroke-width:6; stroke-opacity:1; fill:none" points="426.766,471.96 426.766,529.134 448.813,529.134 448.813,471.96 426.766,471.96 "/>
<path clip-path="url(#clip162)" d="M454.324 458.34 L454.324 529.134 L476.37 529.134 L476.37 458.34 L454.324 458.34 L454.324 458.34  Z" fill="#4ab467" fill-rule="evenodd" fill-opacity="1"/>
<polyline clip-path="url(#clip162)" style="stroke:#000000; stroke-linecap:round; stroke-linejoin:round; stroke-width:6; stroke-opacity:1; fill:none" points="454.324,458.34 454.324,529.134 476.37,529.134 476.37,458.34 454.324,458.34 "/>
<path clip-path="url(#clip162)" d="M481.882 -93.6733 L481.882 529.134 L503.928 529.134 L503.928 -93.6733 L481.882 -93.6733 L481.882 -93.6733  Z" fill="#4ab467" fill-rule="evenodd" fill-opacity="1"/>
<polyline clip-path="url(#clip162)" style="stroke:#000000; stroke-linecap:round; stroke-linejoin:round; stroke-width:6; stroke-opacity:1; fill:none" points="481.882,-93.6733 481.882,529.134 503.928,529.134 503.928,-93.6733 481.882,-93.6733 "/>
<circle clip-path="url(#clip162)" style="fill:#4ab467; stroke:none; fill-opacity:0" cx="107.095" cy="529.13" r="2"/>
<circle clip-path="url(#clip162)" style="fill:#4ab467; stroke:none; fill-opacity:0" cx="134.653" cy="529.115" r="2"/>
<circle clip-path="url(#clip162)" style="fill:#4ab467; stroke:none; fill-opacity:0" cx="162.211" cy="529.042" r="2"/>
<circle clip-path="url(#clip162)" style="fill:#4ab467; stroke:none; fill-opacity:0" cx="189.768" cy="528.791" r="2"/>
<circle clip-path="url(#clip162)" style="fill:#4ab467; stroke:none; fill-opacity:0" cx="217.326" cy="528.069" r="2"/>
<circle clip-path="url(#clip162)" style="fill:#4ab467; stroke:none; fill-opacity:0" cx="244.884" cy="526.46" r="2"/>
<circle clip-path="url(#clip162)" style="fill:#4ab467; stroke:none; fill-opacity:0" cx="272.442" cy="522.815" r="2"/>
<circle clip-path="url(#clip162)" style="fill:#4ab467; stroke:none; fill-opacity:0" cx="300" cy="516.772" r="2"/>
<circle clip-path="url(#clip162)" style="fill:#4ab467; stroke:none; fill-opacity:0" cx="327.558" cy="508.155" r="2"/>
<circle clip-path="url(#clip162)" style="fill:#4ab467; stroke:none; fill-opacity:0" cx="355.116" cy="498.033" r="2"/>
<circle clip-path="url(#clip162)" style="fill:#4ab467; stroke:none; fill-opacity:0" cx="382.674" cy="488.209" r="2"/>
<circle clip-path="url(#clip162)" style="fill:#4ab467; stroke:none; fill-opacity:0" cx="410.232" cy="479.256" r="2"/>
<circle clip-path="url(#clip162)" style="fill:#4ab467; stroke:none; fill-opacity:0" cx="437.789" cy="471.96" r="2"/>
<circle clip-path="url(#clip162)" style="fill:#4ab467; stroke:none; fill-opacity:0" cx="465.347" cy="458.34" r="2"/>
<path clip-path="url(#clip160)" d="M124.056 113.249 Q124.003 113.513 123.898 113.987 Q123.792 114.435 123.318 115.858 Q122.844 117.281 122.211 118.73 Q121.605 120.153 120.42 122.156 Q119.26 124.132 117.837 125.924 Q117.442 126.398 117.363 126.688 Q117.31 126.951 117.31 127.821 Q117.31 133.302 118.97 133.302 Q119.049 133.302 119.181 133.302 Q119.339 133.275 119.735 133.144 Q120.156 132.985 120.525 132.748 Q120.894 132.485 121.316 131.958 Q121.737 131.404 122.001 130.667 Q122.238 130.14 122.712 130.14 Q123.345 130.14 123.345 130.667 Q123.345 131.615 122.027 133.065 Q120.709 134.514 118.812 134.514 Q116.994 134.514 115.703 133.328 Q114.438 132.116 113.911 129.955 Q108.219 134.514 102.528 134.514 Q98.5226 134.514 96.1511 131.905 Q93.7795 129.27 93.7795 125.37 Q93.7795 121.629 95.8348 118.071 Q97.9165 114.514 101.289 112.301 Q104.689 110.061 108.299 110.061 Q109.563 110.061 110.775 110.403 Q111.988 110.72 113.2 111.536 Q114.412 112.353 115.308 113.592 Q116.204 114.83 116.757 116.78 Q117.31 118.73 117.31 121.181 L117.31 124.527 Q120.789 120.127 122.607 113.829 Q122.87 112.88 123.028 112.775 Q123.134 112.696 123.397 112.696 Q123.661 112.696 123.819 112.854 Q124.003 112.986 124.03 113.117 L124.056 113.249 M113.7 128.559 Q113.595 127.636 113.595 122.524 Q113.595 121.549 113.595 121.022 Q113.595 120.469 113.542 119.415 Q113.49 118.361 113.384 117.702 Q113.305 117.044 113.121 116.095 Q112.936 115.146 112.673 114.54 Q112.409 113.934 111.988 113.249 Q111.592 112.564 111.065 112.169 Q110.565 111.774 109.827 111.51 Q109.115 111.247 108.246 111.247 Q107.165 111.247 106.032 111.642 Q104.926 112.011 103.503 113.196 Q102.08 114.356 100.894 116.2 Q99.6556 118.15 98.707 121.734 Q97.7848 125.291 97.7848 127.426 Q97.7848 130.113 99.0232 131.721 Q100.262 133.302 102.633 133.302 Q108.299 133.302 113.7 128.559 Z" fill="#4ab467" fill-rule="nonzero" fill-opacity="1" /><path clip-path="url(#clip160)" d="M142.939 125.713 Q142.992 125.054 144.02 125.054 L177.089 125.054 Q178.644 125.054 178.67 125.66 Q178.67 126.319 177.195 126.293 L144.389 126.293 Q142.939 126.319 142.939 125.713 M142.939 115.173 Q142.939 114.514 144.072 114.54 L177.037 114.54 Q178.644 114.54 178.67 115.173 Q178.67 115.779 177.3 115.779 L144.02 115.779 Q142.939 115.779 142.939 115.173 Z" fill="#4ab467" fill-rule="nonzero" fill-opacity="1" /><path clip-path="url(#clip160)" d="M199.485 103.104 L199.485 101.418 Q205.967 101.418 209.314 97.966 Q210.236 97.966 210.394 98.1768 Q210.552 98.3876 210.552 99.3626 L210.552 129.639 Q210.552 131.246 211.343 131.747 Q212.133 132.248 215.585 132.248 L217.298 132.248 L217.298 133.908 Q215.401 133.75 208.55 133.75 Q201.699 133.75 199.828 133.908 L199.828 132.248 L201.54 132.248 Q204.94 132.248 205.757 131.773 Q206.573 131.273 206.573 129.639 L206.573 101.681 Q203.754 103.104 199.485 103.104 Z" fill="#4ab467" fill-rule="nonzero" fill-opacity="1" /><path clip-path="url(#clip160)" d="M221.589 133.038 Q220.772 132.169 220.772 131.036 Q220.772 129.903 221.589 129.086 Q222.406 128.242 223.644 128.242 Q224.83 128.242 225.621 129.033 Q226.438 129.797 226.438 131.062 Q226.438 132.3 225.568 133.117 Q224.725 133.908 223.644 133.908 Q222.406 133.908 221.589 133.038 Z" fill="#4ab467" fill-rule="nonzero" fill-opacity="1" /><path clip-path="url(#clip160)" d="M235.622 116.648 Q235.622 108.717 237.625 104.395 Q240.418 97.966 247.005 97.966 Q248.402 97.966 249.851 98.3613 Q251.327 98.7302 253.171 100.179 Q255.042 101.629 256.175 104 Q258.336 108.585 258.336 116.648 Q258.336 124.527 256.333 128.822 Q253.409 135.094 246.953 135.094 Q244.529 135.094 242.052 133.855 Q239.601 132.617 238.046 129.639 Q235.622 125.186 235.622 116.648 M240.102 115.99 Q240.102 124.132 240.681 127.373 Q241.34 130.877 243.132 132.406 Q244.95 133.908 246.953 133.908 Q249.113 133.908 250.905 132.3 Q252.723 130.667 253.277 127.162 Q253.883 123.71 253.857 115.99 Q253.857 108.48 253.33 105.476 Q252.618 101.971 250.721 100.575 Q248.85 99.1518 246.953 99.1518 Q246.241 99.1518 245.477 99.3626 Q244.739 99.5734 243.659 100.179 Q242.579 100.785 241.735 102.287 Q240.919 103.789 240.523 106.056 Q240.102 108.98 240.102 115.99 Z" fill="#4ab467" fill-rule="nonzero" fill-opacity="1" /><path clip-path="url(#clip160)" d="M670.866 529.134 L1129.13 529.134 L1129.13 70.8661 L670.866 70.8661  Z" fill="#ffffff" fill-rule="evenodd" fill-opacity="1"/>
<defs>
  <clipPath id="clip163">
    <rect x="670" y="70" width="459" height="459"/>
  </clipPath>
</defs>
<polyline clip-path="url(#clip160)" style="stroke:#000000; stroke-linecap:round; stroke-linejoin:round; stroke-width:6; stroke-opacity:1; fill:none" points="670.866,529.134 1129.13,529.134 "/>
<polyline clip-path="url(#clip160)" style="stroke:#000000; stroke-linecap:round; stroke-linejoin:round; stroke-width:6; stroke-opacity:1; fill:none" points="900,529.134 900,70.8661 "/>
<polyline clip-path="url(#clip163)" style="stroke:#5fa3b4; stroke-linecap:round; stroke-linejoin:round; stroke-width:3; stroke-opacity:1; fill:none" points="212.598,528.84 1587.4,528.84 "/>
<polyline clip-path="url(#clip163)" style="stroke:#000000; stroke-linecap:round; stroke-linejoin:round; stroke-width:4.2; stroke-opacity:1; fill:none" points="683.836,529.131 714.717,529.131 745.597,529.13 776.478,529.13 807.358,529.129 838.239,529.127 869.119,529.122 900,529.114 930.881,529.096 961.761,529.051 992.642,528.931 1023.52,528.541 1054.4,527.039 1085.28,518.877 1116.16,70.8661 "/>
<polyline clip-path="url(#clip163)" style="stroke:#e1c67c; stroke-linecap:round; stroke-linejoin:round; stroke-width:4.2; stroke-opacity:1; fill:none" stroke-dasharray="2, 4" points="683.836,529.134 714.717,529.134 745.597,529.134 776.478,529.134 807.358,529.134 838.239,529.134 869.119,529.134 900,529.134 930.881,529.134 961.761,529.133 992.642,529.123 1023.52,528.982 1054.4,526.942 1085.28,497.441 1116.16,70.8661 "/>
<path clip-path="url(#clip160)" d="M723.16 99.3925 Q723.16 100.078 722.87 101.395 Q721.948 105.111 718.496 107.666 Q717.916 108.141 716.889 108.747 Q718.127 109.564 719.208 111.066 Q720.815 113.543 720.815 116.889 Q720.815 118.444 720.393 120.341 Q719.208 124.741 715.044 127.903 Q710.854 130.986 705.874 130.986 Q703.187 130.986 701.342 129.564 Q699.524 128.114 698.812 125.69 L695.15 140.473 Q695.071 140.841 694.596 140.841 L694.333 140.841 Q693.78 140.841 693.78 140.209 L702.106 107.008 Q702.66 104.768 703.555 102.66 Q704.451 100.552 705.69 98.6547 Q706.955 96.7575 708.404 95.3609 Q709.853 93.938 711.645 93.1212 Q713.437 92.278 715.334 92.278 Q719.313 92.278 721.579 94.992 Q723.16 96.9156 723.16 99.3925 M720.13 98.4439 Q720.13 96.8102 719.471 95.6771 Q718.127 93.5164 715.281 93.5164 Q713.569 93.5164 711.935 94.3069 Q710.327 95.0711 709.036 96.3886 Q707.745 97.7061 706.638 99.4979 Q705.532 101.29 704.715 103.24 Q703.924 105.163 703.397 107.271 L700.156 120.341 Q699.84 121.738 699.84 122.976 Q699.84 125.927 701.474 127.851 Q703.108 129.774 705.927 129.774 Q709.669 129.774 712.883 126.981 Q715.677 124.478 716.836 120.077 Q717.495 117.311 717.495 115.387 Q717.495 113.279 716.731 111.645 Q716.177 110.328 715.097 109.537 Q713.094 110.249 711.065 110.249 Q710.09 110.249 709.563 110.222 Q709.063 110.196 708.325 110.091 Q707.613 109.985 707.271 109.695 Q706.955 109.406 706.955 108.958 Q706.955 108.694 707.007 108.589 Q707.113 108.167 707.455 107.877 Q707.798 107.587 708.193 107.456 Q708.588 107.298 709.247 107.219 Q709.932 107.139 710.38 107.139 Q710.828 107.113 711.592 107.113 Q713.384 107.113 715.202 107.825 Q715.887 107.456 716.625 106.797 Q718.97 104.61 719.761 101.132 Q720.13 99.8405 720.13 98.4439 M713.49 108.641 Q712.383 108.352 711.54 108.352 Q708.457 108.352 708.299 108.852 Q708.299 108.905 708.404 108.958 Q708.509 108.984 708.746 109.01 Q709.01 109.01 709.221 109.037 Q709.458 109.063 709.853 109.063 Q710.248 109.063 710.459 109.063 Q710.696 109.063 711.118 109.063 Q712.172 109.063 713.49 108.641 Z" fill="#e1c67c" fill-rule="nonzero" fill-opacity="1" /><path clip-path="url(#clip160)" d="M738.999 122.185 Q739.051 121.527 740.079 121.527 L773.149 121.527 Q774.703 121.527 774.73 122.133 Q774.73 122.792 773.254 122.765 L740.448 122.765 Q738.999 122.792 738.999 122.185 M738.999 111.645 Q738.999 110.987 740.132 111.013 L773.096 111.013 Q774.703 111.013 774.73 111.645 Q774.73 112.251 773.359 112.251 L740.079 112.251 Q738.999 112.251 738.999 111.645 Z" fill="#e1c67c" fill-rule="nonzero" fill-opacity="1" /><path clip-path="url(#clip160)" d="M795.544 130.38 Q795.544 129.405 795.623 129.116 Q795.729 128.826 796.15 128.378 L806.506 116.836 Q812.171 110.46 812.171 104.9 Q812.171 101.29 810.274 98.7074 Q808.403 96.1251 804.951 96.1251 Q802.58 96.1251 800.577 97.5744 Q798.575 99.0236 797.652 101.606 Q797.81 101.553 798.364 101.553 Q799.708 101.553 800.445 102.396 Q801.21 103.24 801.21 104.373 Q801.21 105.822 800.261 106.533 Q799.339 107.219 798.416 107.219 Q798.048 107.219 797.547 107.139 Q797.073 107.06 796.308 106.323 Q795.544 105.558 795.544 104.215 Q795.544 100.447 798.39 97.4426 Q801.262 94.4387 805.636 94.4387 Q810.59 94.4387 813.831 97.3899 Q817.099 100.315 817.099 104.9 Q817.099 106.507 816.598 107.983 Q816.124 109.432 815.465 110.565 Q814.833 111.698 813.094 113.516 Q811.354 115.334 809.958 116.626 Q808.561 117.917 805.426 120.657 L799.708 126.217 L809.431 126.217 Q814.174 126.217 814.543 125.795 Q815.07 125.031 815.729 121 L817.099 121 L815.57 130.38 L795.544 130.38 Z" fill="#e1c67c" fill-rule="nonzero" fill-opacity="1" /><path clip-path="url(#clip160)" d="M823.086 129.511 Q822.269 128.641 822.269 127.508 Q822.269 126.375 823.086 125.558 Q823.903 124.715 825.141 124.715 Q826.327 124.715 827.117 125.506 Q827.934 126.27 827.934 127.535 Q827.934 128.773 827.065 129.59 Q826.221 130.38 825.141 130.38 Q823.903 130.38 823.086 129.511 Z" fill="#e1c67c" fill-rule="nonzero" fill-opacity="1" /><path clip-path="url(#clip160)" d="M837.119 105.005 L838.884 93.9117 L840.228 93.9117 Q840.386 94.5704 840.65 94.8603 Q840.94 95.1501 842.468 95.3873 Q844.023 95.6244 847.158 95.6244 L860.254 95.6244 Q860.254 96.8629 859.78 97.5217 L852.481 107.772 Q850.162 111.013 849.135 116.994 Q848.528 121 848.555 125.848 L848.555 128.589 Q848.555 131.566 846.052 131.566 Q843.575 131.566 843.575 128.589 Q843.575 118.286 850.215 108.299 Q850.926 107.271 853.535 103.609 Q856.17 99.9459 856.275 99.7878 L845.103 99.7878 Q840.202 99.7878 839.807 100.104 Q839.28 100.578 838.463 105.005 L837.119 105.005 Z" fill="#e1c67c" fill-rule="nonzero" fill-opacity="1" /><path clip-path="url(#clip160)" d="M1270.87 529.134 L1729.13 529.134 L1729.13 70.8661 L1270.87 70.8661  Z" fill="#ffffff" fill-rule="evenodd" fill-opacity="1"/>
<defs>
  <clipPath id="clip164">
    <rect x="1270" y="70" width="459" height="459"/>
  </clipPath>
</defs>
<polyline clip-path="url(#clip160)" style="stroke:#000000; stroke-linecap:round; stroke-linejoin:round; stroke-width:6; stroke-opacity:1; fill:none" points="1270.87,529.134 1729.13,529.134 "/>
<polyline clip-path="url(#clip160)" style="stroke:#000000; stroke-linecap:round; stroke-linejoin:round; stroke-width:6; stroke-opacity:1; fill:none" points="1500,529.134 1500,70.8661 "/>
<path clip-path="url(#clip164)" d="M1296.07 528.734 L1296.07 529.134 L1318.12 529.134 L1318.12 528.734 L1296.07 528.734 L1296.07 528.734  Z" fill="#5fa3b4" fill-rule="evenodd" fill-opacity="0.2"/>
<polyline clip-path="url(#clip164)" style="stroke:#000000; stroke-linecap:round; stroke-linejoin:round; stroke-width:6; stroke-opacity:0.2; fill:none" points="1296.07,528.734 1296.07,529.134 1318.12,529.134 1318.12,528.734 1296.07,528.734 "/>
<path clip-path="url(#clip164)" d="M1323.63 527.103 L1323.63 529.134 L1345.68 529.134 L1345.68 527.103 L1323.63 527.103 L1323.63 527.103  Z" fill="#5fa3b4" fill-rule="evenodd" fill-opacity="0.2"/>
<polyline clip-path="url(#clip164)" style="stroke:#000000; stroke-linecap:round; stroke-linejoin:round; stroke-width:6; stroke-opacity:0.2; fill:none" points="1323.63,527.103 1323.63,529.134 1345.68,529.134 1345.68,527.103 1323.63,527.103 "/>
<path clip-path="url(#clip164)" d="M1351.19 521.1 L1351.19 529.134 L1373.23 529.134 L1373.23 521.1 L1351.19 521.1 L1351.19 521.1  Z" fill="#5fa3b4" fill-rule="evenodd" fill-opacity="0.2"/>
<polyline clip-path="url(#clip164)" style="stroke:#000000; stroke-linecap:round; stroke-linejoin:round; stroke-width:6; stroke-opacity:0.2; fill:none" points="1351.19,521.1 1351.19,529.134 1373.23,529.134 1373.23,521.1 1351.19,521.1 "/>
<path clip-path="url(#clip164)" d="M1378.75 504.388 L1378.75 529.134 L1400.79 529.134 L1400.79 504.388 L1378.75 504.388 L1378.75 504.388  Z" fill="#5fa3b4" fill-rule="evenodd" fill-opacity="0.2"/>
<polyline clip-path="url(#clip164)" style="stroke:#000000; stroke-linecap:round; stroke-linejoin:round; stroke-width:6; stroke-opacity:0.2; fill:none" points="1378.75,504.388 1378.75,529.134 1400.79,529.134 1400.79,504.388 1378.75,504.388 "/>
<path clip-path="url(#clip164)" d="M1406.3 469.771 L1406.3 529.134 L1428.35 529.134 L1428.35 469.771 L1406.3 469.771 L1406.3 469.771  Z" fill="#5fa3b4" fill-rule="evenodd" fill-opacity="0.2"/>
<polyline clip-path="url(#clip164)" style="stroke:#000000; stroke-linecap:round; stroke-linejoin:round; stroke-width:6; stroke-opacity:0.2; fill:none" points="1406.3,469.771 1406.3,529.134 1428.35,529.134 1428.35,469.771 1406.3,469.771 "/>
<path clip-path="url(#clip164)" d="M1433.86 418.23 L1433.86 529.134 L1455.91 529.134 L1455.91 418.23 L1433.86 418.23 L1433.86 418.23  Z" fill="#5fa3b4" fill-rule="evenodd" fill-opacity="0.2"/>
<polyline clip-path="url(#clip164)" style="stroke:#000000; stroke-linecap:round; stroke-linejoin:round; stroke-width:6; stroke-opacity:0.2; fill:none" points="1433.86,418.23 1433.86,529.134 1455.91,529.134 1455.91,418.23 1433.86,418.23 "/>
<path clip-path="url(#clip164)" d="M1461.42 367.769 L1461.42 529.134 L1483.47 529.134 L1483.47 367.769 L1461.42 367.769 L1461.42 367.769  Z" fill="#5fa3b4" fill-rule="evenodd" fill-opacity="0.2"/>
<polyline clip-path="url(#clip164)" style="stroke:#000000; stroke-linecap:round; stroke-linejoin:round; stroke-width:6; stroke-opacity:0.2; fill:none" points="1461.42,367.769 1461.42,529.134 1483.47,529.134 1483.47,367.769 1461.42,367.769 "/>
<path clip-path="url(#clip164)" d="M1488.98 346.284 L1488.98 529.134 L1511.02 529.134 L1511.02 346.284 L1488.98 346.284 L1488.98 346.284  Z" fill="#5fa3b4" fill-rule="evenodd" fill-opacity="0.2"/>
<polyline clip-path="url(#clip164)" style="stroke:#000000; stroke-linecap:round; stroke-linejoin:round; stroke-width:6; stroke-opacity:0.2; fill:none" points="1488.98,346.284 1488.98,529.134 1511.02,529.134 1511.02,346.284 1488.98,346.284 "/>
<path clip-path="url(#clip164)" d="M1516.53 367.769 L1516.53 529.134 L1538.58 529.134 L1538.58 367.769 L1516.53 367.769 L1516.53 367.769  Z" fill="#5fa3b4" fill-rule="evenodd" fill-opacity="0.2"/>
<polyline clip-path="url(#clip164)" style="stroke:#000000; stroke-linecap:round; stroke-linejoin:round; stroke-width:6; stroke-opacity:0.2; fill:none" points="1516.53,367.769 1516.53,529.134 1538.58,529.134 1538.58,367.769 1516.53,367.769 "/>
<path clip-path="url(#clip164)" d="M1544.09 418.23 L1544.09 529.134 L1566.14 529.134 L1566.14 418.23 L1544.09 418.23 L1544.09 418.23  Z" fill="#5fa3b4" fill-rule="evenodd" fill-opacity="0.2"/>
<polyline clip-path="url(#clip164)" style="stroke:#000000; stroke-linecap:round; stroke-linejoin:round; stroke-width:6; stroke-opacity:0.2; fill:none" points="1544.09,418.23 1544.09,529.134 1566.14,529.134 1566.14,418.23 1544.09,418.23 "/>
<path clip-path="url(#clip164)" d="M1571.65 469.771 L1571.65 529.134 L1593.7 529.134 L1593.7 469.771 L1571.65 469.771 L1571.65 469.771  Z" fill="#5fa3b4" fill-rule="evenodd" fill-opacity="0.2"/>
<polyline clip-path="url(#clip164)" style="stroke:#000000; stroke-linecap:round; stroke-linejoin:round; stroke-width:6; stroke-opacity:0.2; fill:none" points="1571.65,469.771 1571.65,529.134 1593.7,529.134 1593.7,469.771 1571.65,469.771 "/>
<path clip-path="url(#clip164)" d="M1599.21 504.388 L1599.21 529.134 L1621.25 529.134 L1621.25 504.388 L1599.21 504.388 L1599.21 504.388  Z" fill="#5fa3b4" fill-rule="evenodd" fill-opacity="0.2"/>
<polyline clip-path="url(#clip164)" style="stroke:#000000; stroke-linecap:round; stroke-linejoin:round; stroke-width:6; stroke-opacity:0.2; fill:none" points="1599.21,504.388 1599.21,529.134 1621.25,529.134 1621.25,504.388 1599.21,504.388 "/>
<path clip-path="url(#clip164)" d="M1626.77 521.1 L1626.77 529.134 L1648.81 529.134 L1648.81 521.1 L1626.77 521.1 L1626.77 521.1  Z" fill="#5fa3b4" fill-rule="evenodd" fill-opacity="0.2"/>
<polyline clip-path="url(#clip164)" style="stroke:#000000; stroke-linecap:round; stroke-linejoin:round; stroke-width:6; stroke-opacity:0.2; fill:none" points="1626.77,521.1 1626.77,529.134 1648.81,529.134 1648.81,521.1 1626.77,521.1 "/>
<path clip-path="url(#clip164)" d="M1654.32 527.103 L1654.32 529.134 L1676.37 529.134 L1676.37 527.103 L1654.32 527.103 L1654.32 527.103  Z" fill="#5fa3b4" fill-rule="evenodd" fill-opacity="0.2"/>
<polyline clip-path="url(#clip164)" style="stroke:#000000; stroke-linecap:round; stroke-linejoin:round; stroke-width:6; stroke-opacity:0.2; fill:none" points="1654.32,527.103 1654.32,529.134 1676.37,529.134 1676.37,527.103 1654.32,527.103 "/>
<path clip-path="url(#clip164)" d="M1681.88 528.734 L1681.88 529.134 L1703.93 529.134 L1703.93 528.734 L1681.88 528.734 L1681.88 528.734  Z" fill="#5fa3b4" fill-rule="evenodd" fill-opacity="0.2"/>
<polyline clip-path="url(#clip164)" style="stroke:#000000; stroke-linecap:round; stroke-linejoin:round; stroke-width:6; stroke-opacity:0.2; fill:none" points="1681.88,528.734 1681.88,529.134 1703.93,529.134 1703.93,528.734 1681.88,528.734 "/>
<circle clip-path="url(#clip164)" style="fill:#5fa3b4; stroke:none; fill-opacity:0" cx="1307.09" cy="528.734" r="2"/>
<circle clip-path="url(#clip164)" style="fill:#5fa3b4; stroke:none; fill-opacity:0" cx="1334.65" cy="527.103" r="2"/>
<circle clip-path="url(#clip164)" style="fill:#5fa3b4; stroke:none; fill-opacity:0" cx="1362.21" cy="521.1" r="2"/>
<circle clip-path="url(#clip164)" style="fill:#5fa3b4; stroke:none; fill-opacity:0" cx="1389.77" cy="504.388" r="2"/>
<circle clip-path="url(#clip164)" style="fill:#5fa3b4; stroke:none; fill-opacity:0" cx="1417.33" cy="469.771" r="2"/>
<circle clip-path="url(#clip164)" style="fill:#5fa3b4; stroke:none; fill-opacity:0" cx="1444.88" cy="418.23" r="2"/>
<circle clip-path="url(#clip164)" style="fill:#5fa3b4; stroke:none; fill-opacity:0" cx="1472.44" cy="367.769" r="2"/>
<circle clip-path="url(#clip164)" style="fill:#5fa3b4; stroke:none; fill-opacity:0" cx="1500" cy="346.284" r="2"/>
<circle clip-path="url(#clip164)" style="fill:#5fa3b4; stroke:none; fill-opacity:0" cx="1527.56" cy="367.769" r="2"/>
<circle clip-path="url(#clip164)" style="fill:#5fa3b4; stroke:none; fill-opacity:0" cx="1555.12" cy="418.23" r="2"/>
<circle clip-path="url(#clip164)" style="fill:#5fa3b4; stroke:none; fill-opacity:0" cx="1582.67" cy="469.771" r="2"/>
<circle clip-path="url(#clip164)" style="fill:#5fa3b4; stroke:none; fill-opacity:0" cx="1610.23" cy="504.388" r="2"/>
<circle clip-path="url(#clip164)" style="fill:#5fa3b4; stroke:none; fill-opacity:0" cx="1637.79" cy="521.1" r="2"/>
<circle clip-path="url(#clip164)" style="fill:#5fa3b4; stroke:none; fill-opacity:0" cx="1665.35" cy="527.103" r="2"/>
<circle clip-path="url(#clip164)" style="fill:#5fa3b4; stroke:none; fill-opacity:0" cx="1692.91" cy="528.734" r="2"/>
<path clip-path="url(#clip164)" d="M1296.07 529.134 L1296.07 529.134 L1318.12 529.134 L1318.12 529.134 L1296.07 529.134 L1296.07 529.134  Z" fill="#83d89e" fill-rule="evenodd" fill-opacity="1"/>
<polyline clip-path="url(#clip164)" style="stroke:#000000; stroke-linecap:round; stroke-linejoin:round; stroke-width:6; stroke-opacity:1; fill:none" points="1296.07,529.134 1296.07,529.134 1318.12,529.134 1296.07,529.134 "/>
<path clip-path="url(#clip164)" d="M1323.63 529.134 L1323.63 529.134 L1345.68 529.134 L1345.68 529.134 L1323.63 529.134 L1323.63 529.134  Z" fill="#83d89e" fill-rule="evenodd" fill-opacity="1"/>
<polyline clip-path="url(#clip164)" style="stroke:#000000; stroke-linecap:round; stroke-linejoin:round; stroke-width:6; stroke-opacity:1; fill:none" points="1323.63,529.134 1323.63,529.134 1345.68,529.134 1345.68,529.134 1323.63,529.134 "/>
<path clip-path="url(#clip164)" d="M1351.19 529.134 L1351.19 529.134 L1373.23 529.134 L1373.23 529.134 L1351.19 529.134 L1351.19 529.134  Z" fill="#83d89e" fill-rule="evenodd" fill-opacity="1"/>
<polyline clip-path="url(#clip164)" style="stroke:#000000; stroke-linecap:round; stroke-linejoin:round; stroke-width:6; stroke-opacity:1; fill:none" points="1351.19,529.134 1351.19,529.134 1373.23,529.134 1373.23,529.134 1351.19,529.134 "/>
<path clip-path="url(#clip164)" d="M1378.75 529.134 L1378.75 529.134 L1400.79 529.134 L1400.79 529.134 L1378.75 529.134 L1378.75 529.134  Z" fill="#83d89e" fill-rule="evenodd" fill-opacity="1"/>
<polyline clip-path="url(#clip164)" style="stroke:#000000; stroke-linecap:round; stroke-linejoin:round; stroke-width:6; stroke-opacity:1; fill:none" points="1378.75,529.134 1378.75,529.134 1400.79,529.134 1400.79,529.134 1378.75,529.134 "/>
<path clip-path="url(#clip164)" d="M1406.3 529.134 L1406.3 529.134 L1428.35 529.134 L1428.35 529.134 L1406.3 529.134 L1406.3 529.134  Z" fill="#83d89e" fill-rule="evenodd" fill-opacity="1"/>
<polyline clip-path="url(#clip164)" style="stroke:#000000; stroke-linecap:round; stroke-linejoin:round; stroke-width:6; stroke-opacity:1; fill:none" points="1406.3,529.134 1406.3,529.134 1428.35,529.134 1428.35,529.134 1406.3,529.134 "/>
<path clip-path="url(#clip164)" d="M1433.86 529.134 L1433.86 529.134 L1455.91 529.134 L1455.91 529.134 L1433.86 529.134 L1433.86 529.134  Z" fill="#83d89e" fill-rule="evenodd" fill-opacity="1"/>
<polyline clip-path="url(#clip164)" style="stroke:#000000; stroke-linecap:round; stroke-linejoin:round; stroke-width:6; stroke-opacity:1; fill:none" points="1433.86,529.134 1433.86,529.134 1455.91,529.134 1455.91,529.134 1433.86,529.134 "/>
<path clip-path="url(#clip164)" d="M1461.42 529.134 L1461.42 529.134 L1483.47 529.134 L1483.47 529.134 L1461.42 529.134 L1461.42 529.134  Z" fill="#83d89e" fill-rule="evenodd" fill-opacity="1"/>
<polyline clip-path="url(#clip164)" style="stroke:#000000; stroke-linecap:round; stroke-linejoin:round; stroke-width:6; stroke-opacity:1; fill:none" points="1461.42,529.134 1461.42,529.134 1483.47,529.134 1483.47,529.134 1461.42,529.134 "/>
<path clip-path="url(#clip164)" d="M1488.98 529.132 L1488.98 529.134 L1511.02 529.134 L1511.02 529.132 L1488.98 529.132 L1488.98 529.132  Z" fill="#83d89e" fill-rule="evenodd" fill-opacity="1"/>
<polyline clip-path="url(#clip164)" style="stroke:#000000; stroke-linecap:round; stroke-linejoin:round; stroke-width:6; stroke-opacity:1; fill:none" points="1488.98,529.132 1488.98,529.134 1511.02,529.134 1511.02,529.132 1488.98,529.132 "/>
<path clip-path="url(#clip164)" d="M1516.53 529.106 L1516.53 529.134 L1538.58 529.134 L1538.58 529.106 L1516.53 529.106 L1516.53 529.106  Z" fill="#83d89e" fill-rule="evenodd" fill-opacity="1"/>
<polyline clip-path="url(#clip164)" style="stroke:#000000; stroke-linecap:round; stroke-linejoin:round; stroke-width:6; stroke-opacity:1; fill:none" points="1516.53,529.106 1516.53,529.134 1538.58,529.134 1538.58,529.106 1516.53,529.106 "/>
<path clip-path="url(#clip164)" d="M1544.09 528.861 L1544.09 529.134 L1566.14 529.134 L1566.14 528.861 L1544.09 528.861 L1544.09 528.861  Z" fill="#83d89e" fill-rule="evenodd" fill-opacity="1"/>
<polyline clip-path="url(#clip164)" style="stroke:#000000; stroke-linecap:round; stroke-linejoin:round; stroke-width:6; stroke-opacity:1; fill:none" points="1544.09,528.861 1544.09,529.134 1566.14,529.134 1566.14,528.861 1544.09,528.861 "/>
<path clip-path="url(#clip164)" d="M1571.65 527.019 L1571.65 529.134 L1593.7 529.134 L1593.7 527.019 L1571.65 527.019 L1571.65 527.019  Z" fill="#83d89e" fill-rule="evenodd" fill-opacity="1"/>
<polyline clip-path="url(#clip164)" style="stroke:#000000; stroke-linecap:round; stroke-linejoin:round; stroke-width:6; stroke-opacity:1; fill:none" points="1571.65,527.019 1571.65,529.134 1593.7,529.134 1593.7,527.019 1571.65,527.019 "/>
<path clip-path="url(#clip164)" d="M1599.21 516.389 L1599.21 529.134 L1621.25 529.134 L1621.25 516.389 L1599.21 516.389 L1599.21 516.389  Z" fill="#83d89e" fill-rule="evenodd" fill-opacity="1"/>
<polyline clip-path="url(#clip164)" style="stroke:#000000; stroke-linecap:round; stroke-linejoin:round; stroke-width:6; stroke-opacity:1; fill:none" points="1599.21,516.389 1599.21,529.134 1621.25,529.134 1621.25,516.389 1599.21,516.389 "/>
<path clip-path="url(#clip164)" d="M1626.77 469.304 L1626.77 529.134 L1648.81 529.134 L1648.81 469.304 L1626.77 469.304 L1626.77 469.304  Z" fill="#83d89e" fill-rule="evenodd" fill-opacity="1"/>
<polyline clip-path="url(#clip164)" style="stroke:#000000; stroke-linecap:round; stroke-linejoin:round; stroke-width:6; stroke-opacity:1; fill:none" points="1626.77,469.304 1626.77,529.134 1648.81,529.134 1648.81,469.304 1626.77,469.304 "/>
<path clip-path="url(#clip164)" d="M1654.32 310.397 L1654.32 529.134 L1676.37 529.134 L1676.37 310.397 L1654.32 310.397 L1654.32 310.397  Z" fill="#83d89e" fill-rule="evenodd" fill-opacity="1"/>
<polyline clip-path="url(#clip164)" style="stroke:#000000; stroke-linecap:round; stroke-linejoin:round; stroke-width:6; stroke-opacity:1; fill:none" points="1654.32,310.397 1654.32,529.134 1676.37,529.134 1676.37,310.397 1654.32,310.397 "/>
<path clip-path="url(#clip164)" d="M1681.88 -93.6733 L1681.88 529.134 L1703.93 529.134 L1703.93 -93.6733 L1681.88 -93.6733 L1681.88 -93.6733  Z" fill="#83d89e" fill-rule="evenodd" fill-opacity="1"/>
<polyline clip-path="url(#clip164)" style="stroke:#000000; stroke-linecap:round; stroke-linejoin:round; stroke-width:6; stroke-opacity:1; fill:none" points="1681.88,-93.6733 1681.88,529.134 1703.93,529.134 1703.93,-93.6733 1681.88,-93.6733 "/>
<circle clip-path="url(#clip164)" style="fill:#83d89e; stroke:none; fill-opacity:0" cx="1307.09" cy="529.134" r="2"/>
<circle clip-path="url(#clip164)" style="fill:#83d89e; stroke:none; fill-opacity:0" cx="1334.65" cy="529.134" r="2"/>
<circle clip-path="url(#clip164)" style="fill:#83d89e; stroke:none; fill-opacity:0" cx="1362.21" cy="529.134" r="2"/>
<circle clip-path="url(#clip164)" style="fill:#83d89e; stroke:none; fill-opacity:0" cx="1389.77" cy="529.134" r="2"/>
<circle clip-path="url(#clip164)" style="fill:#83d89e; stroke:none; fill-opacity:0" cx="1417.33" cy="529.134" r="2"/>
<circle clip-path="url(#clip164)" style="fill:#83d89e; stroke:none; fill-opacity:0" cx="1444.88" cy="529.134" r="2"/>
<circle clip-path="url(#clip164)" style="fill:#83d89e; stroke:none; fill-opacity:0" cx="1472.44" cy="529.134" r="2"/>
<circle clip-path="url(#clip164)" style="fill:#83d89e; stroke:none; fill-opacity:0" cx="1500" cy="529.132" r="2"/>
<circle clip-path="url(#clip164)" style="fill:#83d89e; stroke:none; fill-opacity:0" cx="1527.56" cy="529.106" r="2"/>
<circle clip-path="url(#clip164)" style="fill:#83d89e; stroke:none; fill-opacity:0" cx="1555.12" cy="528.861" r="2"/>
<circle clip-path="url(#clip164)" style="fill:#83d89e; stroke:none; fill-opacity:0" cx="1582.67" cy="527.019" r="2"/>
<circle clip-path="url(#clip164)" style="fill:#83d89e; stroke:none; fill-opacity:0" cx="1610.23" cy="516.389" r="2"/>
<circle clip-path="url(#clip164)" style="fill:#83d89e; stroke:none; fill-opacity:0" cx="1637.79" cy="469.304" r="2"/>
<circle clip-path="url(#clip164)" style="fill:#83d89e; stroke:none; fill-opacity:0" cx="1665.35" cy="310.397" r="2"/>
</svg>
