<?xml version="1.0" encoding="UTF-8" standalone="no"?>
<!DOCTYPE svg PUBLIC "-//W3C//DTD SVG 1.1//EN" "http://www.w3.org/Graphics/SVG/1.1/DTD/svg11.dtd">
<svg width="100%" height="100%" viewBox="0 0 767 664" version="1.1" xmlns="http://www.w3.org/2000/svg" xmlns:xlink="http://www.w3.org/1999/xlink" xml:space="preserve" xmlns:serif="http://www.serif.com/" style="fill-rule:evenodd;clip-rule:evenodd;stroke-linejoin:round;stroke-miterlimit:2;">
    <g transform="matrix(1,0,0,1,-59,-939)">
        <g>
            <path d="M67.674,1260.07C72.913,1245.44 80.502,1231.54 90.063,1219.28C97.684,1209.51 106.987,1199.27 117.707,1192.3C116.512,1189.92 115.398,1187.54 114.374,1185.19C109.855,1174.83 106.701,1163.89 105.121,1152.69C101.995,1130.54 104.366,1107.57 112.858,1086.81C129.845,1045.28 170.271,1018.61 214.573,1015.45C239.027,1013.71 263.337,1018.78 283.678,1032.77C285.174,1033.8 284.156,1036.18 282.369,1035.35C245.797,1018.27 201.45,1019.2 166.52,1039.95C130.034,1061.62 111.46,1102.37 114.36,1144.18C115.16,1155.72 117.696,1167.3 121.913,1178.08C123.255,1181.51 124.816,1184.74 126.505,1187.87C130.539,1187.75 134.022,1193.07 131.651,1196.55C134.222,1200.55 136.95,1204.47 139.721,1208.5C143.523,1214.02 137.048,1217.81 132.648,1213.63C129.409,1210.55 126.534,1206.94 123.949,1203.08C121.206,1205.21 118.45,1207.33 115.841,1209.63C111.182,1213.75 106.849,1218.22 102.859,1222.99C94.72,1232.72 87.844,1243.57 82.694,1255.17C72.391,1278.38 68.499,1304.24 72.687,1329.36C81.238,1380.66 119.738,1423.98 170.715,1435.91C185.391,1439.34 200.443,1440.63 215.474,1439.35C230.663,1438.06 245.353,1433.92 259.773,1429.16C251.329,1421.2 243.21,1412.65 236.634,1403.2C232.759,1397.63 239.718,1393.01 243.983,1397.87C251.997,1407 259.72,1416.22 268.559,1424.6C277.308,1432.89 286.782,1440.44 296.693,1447.3C316.771,1461.18 338.948,1471.93 362.273,1479.13C414.234,1495.17 472.179,1492.1 522.538,1471.86C546.197,1462.35 568.588,1448.6 586.122,1429.93C582.341,1426.68 578.71,1423.25 575.398,1419.5C570.65,1414.12 578.569,1409.16 583.021,1413.97C586.209,1417.41 589.633,1420.59 593.218,1423.57C594.303,1423.71 595.353,1424.51 595.67,1425.53C623.062,1446.99 660.244,1455.07 693.9,1444.28C730.385,1432.57 762.437,1400.04 768.089,1361.32C770.626,1343.94 768.014,1324.61 756.991,1310.71C753.7,1311.29 750.365,1311.42 747.024,1310.72C744.15,1310.11 739.956,1304.86 743.954,1302.71C745.846,1301.69 747.791,1300.96 749.755,1300.3C750.32,1299.33 751.465,1298.79 752.78,1299.32C755.131,1298.61 757.503,1297.94 759.875,1297.04C765.131,1295.06 770.001,1292.4 774.648,1289.26C784.206,1282.79 792.112,1274.35 798.353,1264.66C811.348,1244.5 815.762,1220.1 810.848,1196.66C799.869,1144.29 752.805,1106.36 703.518,1091.57C675.603,1083.2 645.624,1081.48 616.759,1085.6C616.761,1085.61 616.765,1085.63 616.766,1085.64C617.913,1093.78 608.136,1093.61 604.66,1088.13C603.238,1085.89 601.977,1083.64 600.783,1081.27C599.743,1079.21 600.319,1077.59 601.55,1076.65C598.955,1066.88 595.975,1057.38 591.573,1048.05C585.88,1035.99 578.793,1024.63 570.451,1014.22C553.634,993.236 532.112,976.005 507.673,964.712C457.161,941.37 398.859,947.055 351.31,974.93C324.383,990.715 301.949,1013.37 286.304,1040.39C285.321,1042.08 282.104,1040.17 282.889,1038.46C306.968,985.837 360.241,949.816 416.835,941.392C475.255,932.696 533.455,956.592 572.857,999.809C583.805,1011.82 593.27,1025.32 600.734,1039.76C607.06,1051.99 612.808,1065.68 615.669,1079.42C670.548,1066.45 731.685,1081.62 774.568,1118.24C795.975,1136.51 813.115,1159.91 821.134,1187.11C828.788,1213.07 826.496,1240.42 813.98,1264.45C807.48,1276.93 798.342,1288.15 787.114,1296.69C781.416,1301.02 775.073,1304.57 768.421,1307.22C766.707,1307.9 764.963,1308.56 763.197,1309.13C786.531,1337.83 777.129,1383 756.373,1411.3C729.962,1447.31 684.679,1465.33 640.815,1456.5C622.715,1452.85 605.417,1445.07 590.805,1433.79C576.902,1452.18 557.742,1465.6 536.98,1475.59C511.607,1487.79 483.718,1495.46 455.683,1498.05C401.253,1503.07 346.451,1489.8 300.196,1460.77C288.233,1453.26 276.913,1444.72 266.41,1435.27C265.43,1434.39 264.452,1433.5 263.474,1432.6C263.351,1432.74 263.248,1432.89 263.057,1433.01C239.239,1448.25 207.995,1451.17 180.496,1447.31C152.324,1443.36 125.931,1430.27 105.218,1410.91C64.509,1372.84 48.826,1312.72 67.674,1260.07Z" style="fill-rule:nonzero;"/>
            <path d="M671.968,1535.03C661.458,1559.44 633.253,1562.62 609.891,1561.56C587.679,1560.55 554.069,1560.61 543.313,1536.46C533.329,1514.05 554.979,1492.4 573.71,1483.92C594.787,1474.39 620.084,1474.6 641.161,1484.08C638.804,1484.47 637.131,1487.7 639.845,1489.01C649.571,1493.71 660.154,1497.37 667.505,1505.73C674.766,1513.98 676.299,1524.97 671.968,1535.03ZM676.143,1506.68C670.893,1497.89 661.459,1491.64 651.743,1487.5C651.854,1487.12 651.781,1486.72 651.346,1486.43C629.693,1471.86 602.257,1468.56 577.569,1476.83C555.563,1484.21 531.117,1505.47 535.105,1531.21C539.855,1561.86 576.396,1565.5 600.97,1567.08C627.559,1568.79 658.382,1567.66 674.293,1542.72C681.258,1531.8 682.963,1518.08 676.143,1506.68Z" style="fill-rule:nonzero;"/>
            <path d="M743.596,1585.04C742.863,1589.34 737.836,1591.5 734.17,1592.71C722.868,1596.41 710.058,1596.77 698.367,1595.1C689.986,1593.9 676.645,1590.38 679.375,1579.06C681.988,1568.24 693.36,1566.36 703.562,1566.51C703.942,1566.68 704.367,1566.79 704.888,1566.76C705.822,1566.71 706.75,1566.69 707.677,1566.66C709.447,1566.77 711.14,1566.91 712.679,1567.04C713.154,1567.08 713.569,1566.94 713.942,1566.74C721.43,1567.15 728.623,1568.85 735.234,1573.17C739.019,1575.64 744.483,1579.82 743.596,1585.04ZM745.616,1573.11C735.83,1562.4 717.907,1557.47 704.142,1561.78C692.716,1560.96 680.791,1562.63 674.288,1573.29C671.051,1578.59 670.662,1585.64 673.859,1591.04C676.924,1596.21 682.869,1599.04 688.494,1600.45C703.286,1604.18 720.125,1603.41 734.654,1598.88C739.87,1597.26 745.425,1594.43 748.288,1589.55C751.561,1583.97 749.779,1577.67 745.616,1573.11Z" style="fill-rule:nonzero;"/>
        </g>
    </g>
</svg>
