<?xml version="1.0" encoding="utf-8"?>
<svg xmlns="http://www.w3.org/2000/svg" xmlns:xlink="http://www.w3.org/1999/xlink" width="450" height="150" viewBox="0 0 1800 600">
<defs>
  <clipPath id="clip470">
    <rect x="0" y="0" width="1800" height="600"/>
  </clipPath>
</defs>
<path clip-path="url(#clip470)" d="M0 600 L1800 600 L1800 3.33067e-14 L0 3.33067e-14  Z" fill="#ffffff" fill-rule="evenodd" fill-opacity="1"/>
<defs>
  <clipPath id="clip471">
    <rect x="360" y="0" width="1261" height="600"/>
  </clipPath>
</defs>
<path clip-path="url(#clip470)" d="M70.8661 529.134 L529.134 529.134 L529.134 70.8661 L70.8661 70.8661  Z" fill="#ffffff" fill-rule="evenodd" fill-opacity="1"/>
<defs>
  <clipPath id="clip472">
    <rect x="70" y="70" width="459" height="459"/>
  </clipPath>
</defs>
<polyline clip-path="url(#clip470)" style="stroke:#000000; stroke-linecap:round; stroke-linejoin:round; stroke-width:6; stroke-opacity:1; fill:none" points="70.8661,529.134 529.134,529.134 "/>
<polyline clip-path="url(#clip470)" style="stroke:#000000; stroke-linecap:round; stroke-linejoin:round; stroke-width:6; stroke-opacity:1; fill:none" points="300,529.134 300,70.8661 "/>
<path clip-path="url(#clip472)" d="M96.0717 505.632 L96.0717 529.134 L118.118 529.134 L118.118 505.632 L96.0717 505.632 L96.0717 505.632  Z" fill="#5fa3b4" fill-rule="evenodd" fill-opacity="0.2"/>
<polyline clip-path="url(#clip472)" style="stroke:#000000; stroke-linecap:round; stroke-linejoin:round; stroke-width:6; stroke-opacity:0.2; fill:none" points="96.0717,505.632 96.0717,529.134 118.118,529.134 118.118,505.632 96.0717,505.632 "/>
<path clip-path="url(#clip472)" d="M123.63 497.564 L123.63 529.134 L145.676 529.134 L145.676 497.564 L123.63 497.564 L123.63 497.564  Z" fill="#5fa3b4" fill-rule="evenodd" fill-opacity="0.2"/>
<polyline clip-path="url(#clip472)" style="stroke:#000000; stroke-linecap:round; stroke-linejoin:round; stroke-width:6; stroke-opacity:0.2; fill:none" points="123.63,497.564 123.63,529.134 145.676,529.134 145.676,497.564 123.63,497.564 "/>
<path clip-path="url(#clip472)" d="M151.187 486.298 L151.187 529.134 L173.234 529.134 L173.234 486.298 L151.187 486.298 L151.187 486.298  Z" fill="#5fa3b4" fill-rule="evenodd" fill-opacity="0.2"/>
<polyline clip-path="url(#clip472)" style="stroke:#000000; stroke-linecap:round; stroke-linejoin:round; stroke-width:6; stroke-opacity:0.2; fill:none" points="151.187,486.298 151.187,529.134 173.234,529.134 173.234,486.298 151.187,486.298 "/>
<path clip-path="url(#clip472)" d="M178.745 470.277 L178.745 529.134 L200.792 529.134 L200.792 470.277 L178.745 470.277 L178.745 470.277  Z" fill="#5fa3b4" fill-rule="evenodd" fill-opacity="0.2"/>
<polyline clip-path="url(#clip472)" style="stroke:#000000; stroke-linecap:round; stroke-linejoin:round; stroke-width:6; stroke-opacity:0.2; fill:none" points="178.745,470.277 178.745,529.134 200.792,529.134 200.792,470.277 178.745,470.277 "/>
<path clip-path="url(#clip472)" d="M206.303 446.92 L206.303 529.134 L228.35 529.134 L228.35 446.92 L206.303 446.92 L206.303 446.92  Z" fill="#5fa3b4" fill-rule="evenodd" fill-opacity="0.2"/>
<polyline clip-path="url(#clip472)" style="stroke:#000000; stroke-linecap:round; stroke-linejoin:round; stroke-width:6; stroke-opacity:0.2; fill:none" points="206.303,446.92 206.303,529.134 228.35,529.134 228.35,446.92 206.303,446.92 "/>
<path clip-path="url(#clip472)" d="M233.861 411.557 L233.861 529.134 L255.907 529.134 L255.907 411.557 L233.861 411.557 L233.861 411.557  Z" fill="#5fa3b4" fill-rule="evenodd" fill-opacity="0.2"/>
<polyline clip-path="url(#clip472)" style="stroke:#000000; stroke-linecap:round; stroke-linejoin:round; stroke-width:6; stroke-opacity:0.2; fill:none" points="233.861,411.557 233.861,529.134 255.907,529.134 255.907,411.557 233.861,411.557 "/>
<path clip-path="url(#clip472)" d="M261.419 354.179 L261.419 529.134 L283.465 529.134 L283.465 354.179 L261.419 354.179 L261.419 354.179  Z" fill="#5fa3b4" fill-rule="evenodd" fill-opacity="0.2"/>
<polyline clip-path="url(#clip472)" style="stroke:#000000; stroke-linecap:round; stroke-linejoin:round; stroke-width:6; stroke-opacity:0.2; fill:none" points="261.419,354.179 261.419,529.134 283.465,529.134 283.465,354.179 261.419,354.179 "/>
<path clip-path="url(#clip472)" d="M288.977 230.023 L288.977 529.134 L311.023 529.134 L311.023 230.023 L288.977 230.023 L288.977 230.023  Z" fill="#5fa3b4" fill-rule="evenodd" fill-opacity="0.2"/>
<polyline clip-path="url(#clip472)" style="stroke:#000000; stroke-linecap:round; stroke-linejoin:round; stroke-width:6; stroke-opacity:0.2; fill:none" points="288.977,230.023 288.977,529.134 311.023,529.134 311.023,230.023 288.977,230.023 "/>
<path clip-path="url(#clip472)" d="M316.535 470.277 L316.535 529.134 L338.581 529.134 L338.581 470.277 L316.535 470.277 L316.535 470.277  Z" fill="#5fa3b4" fill-rule="evenodd" fill-opacity="0.2"/>
<polyline clip-path="url(#clip472)" style="stroke:#000000; stroke-linecap:round; stroke-linejoin:round; stroke-width:6; stroke-opacity:0.2; fill:none" points="316.535,470.277 316.535,529.134 338.581,529.134 338.581,470.277 316.535,470.277 "/>
<path clip-path="url(#clip472)" d="M344.093 511.492 L344.093 529.134 L366.139 529.134 L366.139 511.492 L344.093 511.492 L344.093 511.492  Z" fill="#5fa3b4" fill-rule="evenodd" fill-opacity="0.2"/>
<polyline clip-path="url(#clip472)" style="stroke:#000000; stroke-linecap:round; stroke-linejoin:round; stroke-width:6; stroke-opacity:0.2; fill:none" points="344.093,511.492 344.093,529.134 366.139,529.134 366.139,511.492 344.093,511.492 "/>
<path clip-path="url(#clip472)" d="M371.65 523.17 L371.65 529.134 L393.697 529.134 L393.697 523.17 L371.65 523.17 L371.65 523.17  Z" fill="#5fa3b4" fill-rule="evenodd" fill-opacity="0.2"/>
<polyline clip-path="url(#clip472)" style="stroke:#000000; stroke-linecap:round; stroke-linejoin:round; stroke-width:6; stroke-opacity:0.2; fill:none" points="371.65,523.17 371.65,529.134 393.697,529.134 393.697,523.17 371.65,523.17 "/>
<path clip-path="url(#clip472)" d="M399.208 526.969 L399.208 529.134 L421.255 529.134 L421.255 526.969 L399.208 526.969 L399.208 526.969  Z" fill="#5fa3b4" fill-rule="evenodd" fill-opacity="0.2"/>
<polyline clip-path="url(#clip472)" style="stroke:#000000; stroke-linecap:round; stroke-linejoin:round; stroke-width:6; stroke-opacity:0.2; fill:none" points="399.208,526.969 399.208,529.134 421.255,529.134 421.255,526.969 399.208,526.969 "/>
<path clip-path="url(#clip472)" d="M426.766 528.307 L426.766 529.134 L448.813 529.134 L448.813 528.307 L426.766 528.307 L426.766 528.307  Z" fill="#5fa3b4" fill-rule="evenodd" fill-opacity="0.2"/>
<polyline clip-path="url(#clip472)" style="stroke:#000000; stroke-linecap:round; stroke-linejoin:round; stroke-width:6; stroke-opacity:0.2; fill:none" points="426.766,528.307 426.766,529.134 448.813,529.134 448.813,528.307 426.766,528.307 "/>
<path clip-path="url(#clip472)" d="M454.324 528.806 L454.324 529.134 L476.37 529.134 L476.37 528.806 L454.324 528.806 L454.324 528.806  Z" fill="#5fa3b4" fill-rule="evenodd" fill-opacity="0.2"/>
<polyline clip-path="url(#clip472)" style="stroke:#000000; stroke-linecap:round; stroke-linejoin:round; stroke-width:6; stroke-opacity:0.2; fill:none" points="454.324,528.806 454.324,529.134 476.37,529.134 476.37,528.806 454.324,528.806 "/>
<path clip-path="url(#clip472)" d="M481.882 529 L481.882 529.134 L503.928 529.134 L503.928 529 L481.882 529 L481.882 529  Z" fill="#5fa3b4" fill-rule="evenodd" fill-opacity="0.2"/>
<polyline clip-path="url(#clip472)" style="stroke:#000000; stroke-linecap:round; stroke-linejoin:round; stroke-width:6; stroke-opacity:0.2; fill:none" points="481.882,529 481.882,529.134 503.928,529.134 503.928,529 481.882,529 "/>
<circle clip-path="url(#clip472)" style="fill:#5fa3b4; stroke:none; fill-opacity:0" cx="107.095" cy="505.632" r="2"/>
<circle clip-path="url(#clip472)" style="fill:#5fa3b4; stroke:none; fill-opacity:0" cx="134.653" cy="497.564" r="2"/>
<circle clip-path="url(#clip472)" style="fill:#5fa3b4; stroke:none; fill-opacity:0" cx="162.211" cy="486.298" r="2"/>
<circle clip-path="url(#clip472)" style="fill:#5fa3b4; stroke:none; fill-opacity:0" cx="189.768" cy="470.277" r="2"/>
<circle clip-path="url(#clip472)" style="fill:#5fa3b4; stroke:none; fill-opacity:0" cx="217.326" cy="446.92" r="2"/>
<circle clip-path="url(#clip472)" style="fill:#5fa3b4; stroke:none; fill-opacity:0" cx="244.884" cy="411.557" r="2"/>
<circle clip-path="url(#clip472)" style="fill:#5fa3b4; stroke:none; fill-opacity:0" cx="272.442" cy="354.179" r="2"/>
<circle clip-path="url(#clip472)" style="fill:#5fa3b4; stroke:none; fill-opacity:0" cx="300" cy="230.023" r="2"/>
<circle clip-path="url(#clip472)" style="fill:#5fa3b4; stroke:none; fill-opacity:0" cx="327.558" cy="470.277" r="2"/>
<circle clip-path="url(#clip472)" style="fill:#5fa3b4; stroke:none; fill-opacity:0" cx="355.116" cy="511.492" r="2"/>
<circle clip-path="url(#clip472)" style="fill:#5fa3b4; stroke:none; fill-opacity:0" cx="382.674" cy="523.17" r="2"/>
<circle clip-path="url(#clip472)" style="fill:#5fa3b4; stroke:none; fill-opacity:0" cx="410.232" cy="526.969" r="2"/>
<circle clip-path="url(#clip472)" style="fill:#5fa3b4; stroke:none; fill-opacity:0" cx="437.789" cy="528.307" r="2"/>
<circle clip-path="url(#clip472)" style="fill:#5fa3b4; stroke:none; fill-opacity:0" cx="465.347" cy="528.806" r="2"/>
<circle clip-path="url(#clip472)" style="fill:#5fa3b4; stroke:none; fill-opacity:0" cx="492.905" cy="529" r="2"/>
<path clip-path="url(#clip472)" d="M96.0717 526.719 L96.0717 529.134 L118.118 529.134 L118.118 526.719 L96.0717 526.719 L96.0717 526.719  Z" fill="#4ab467" fill-rule="evenodd" fill-opacity="1"/>
<polyline clip-path="url(#clip472)" style="stroke:#000000; stroke-linecap:round; stroke-linejoin:round; stroke-width:6; stroke-opacity:1; fill:none" points="96.0717,526.719 96.0717,529.134 118.118,529.134 118.118,526.719 96.0717,526.719 "/>
<path clip-path="url(#clip472)" d="M123.63 525.4 L123.63 529.134 L145.676 529.134 L145.676 525.4 L123.63 525.4 L123.63 525.4  Z" fill="#4ab467" fill-rule="evenodd" fill-opacity="1"/>
<polyline clip-path="url(#clip472)" style="stroke:#000000; stroke-linecap:round; stroke-linejoin:round; stroke-width:6; stroke-opacity:1; fill:none" points="123.63,525.4 123.63,529.134 145.676,529.134 145.676,525.4 123.63,525.4 "/>
<path clip-path="url(#clip472)" d="M151.187 523.12 L151.187 529.134 L173.234 529.134 L173.234 523.12 L151.187 523.12 L151.187 523.12  Z" fill="#4ab467" fill-rule="evenodd" fill-opacity="1"/>
<polyline clip-path="url(#clip472)" style="stroke:#000000; stroke-linecap:round; stroke-linejoin:round; stroke-width:6; stroke-opacity:1; fill:none" points="151.187,523.12 151.187,529.134 173.234,529.134 173.234,523.12 151.187,523.12 "/>
<path clip-path="url(#clip472)" d="M178.745 519.114 L178.745 529.134 L200.792 529.134 L200.792 519.114 L178.745 519.114 L178.745 519.114  Z" fill="#4ab467" fill-rule="evenodd" fill-opacity="1"/>
<polyline clip-path="url(#clip472)" style="stroke:#000000; stroke-linecap:round; stroke-linejoin:round; stroke-width:6; stroke-opacity:1; fill:none" points="178.745,519.114 178.745,529.134 200.792,529.134 200.792,519.114 178.745,519.114 "/>
<path clip-path="url(#clip472)" d="M206.303 511.785 L206.303 529.134 L228.35 529.134 L228.35 511.785 L206.303 511.785 L206.303 511.785  Z" fill="#4ab467" fill-rule="evenodd" fill-opacity="1"/>
<polyline clip-path="url(#clip472)" style="stroke:#000000; stroke-linecap:round; stroke-linejoin:round; stroke-width:6; stroke-opacity:1; fill:none" points="206.303,511.785 206.303,529.134 228.35,529.134 228.35,511.785 206.303,511.785 "/>
<path clip-path="url(#clip472)" d="M233.861 496.696 L233.861 529.134 L255.907 529.134 L255.907 496.696 L233.861 496.696 L233.861 496.696  Z" fill="#4ab467" fill-rule="evenodd" fill-opacity="1"/>
<polyline clip-path="url(#clip472)" style="stroke:#000000; stroke-linecap:round; stroke-linejoin:round; stroke-width:6; stroke-opacity:1; fill:none" points="233.861,496.696 233.861,529.134 255.907,529.134 255.907,496.696 233.861,496.696 "/>
<path clip-path="url(#clip472)" d="M261.419 458.876 L261.419 529.134 L283.465 529.134 L283.465 458.876 L261.419 458.876 L261.419 458.876  Z" fill="#4ab467" fill-rule="evenodd" fill-opacity="1"/>
<polyline clip-path="url(#clip472)" style="stroke:#000000; stroke-linecap:round; stroke-linejoin:round; stroke-width:6; stroke-opacity:1; fill:none" points="261.419,458.876 261.419,529.134 283.465,529.134 283.465,458.876 261.419,458.876 "/>
<path clip-path="url(#clip472)" d="M288.977 278.291 L288.977 529.134 L311.023 529.134 L311.023 278.291 L288.977 278.291 L288.977 278.291  Z" fill="#4ab467" fill-rule="evenodd" fill-opacity="1"/>
<polyline clip-path="url(#clip472)" style="stroke:#000000; stroke-linecap:round; stroke-linejoin:round; stroke-width:6; stroke-opacity:1; fill:none" points="288.977,278.291 288.977,529.134 311.023,529.134 311.023,278.291 288.977,278.291 "/>
<path clip-path="url(#clip472)" d="M316.535 392.967 L316.535 529.134 L338.581 529.134 L338.581 392.967 L316.535 392.967 L316.535 392.967  Z" fill="#4ab467" fill-rule="evenodd" fill-opacity="1"/>
<polyline clip-path="url(#clip472)" style="stroke:#000000; stroke-linecap:round; stroke-linejoin:round; stroke-width:6; stroke-opacity:1; fill:none" points="316.535,392.967 316.535,529.134 338.581,529.134 338.581,392.967 316.535,392.967 "/>
<path clip-path="url(#clip472)" d="M344.093 433.327 L344.093 529.134 L366.139 529.134 L366.139 433.327 L344.093 433.327 L344.093 433.327  Z" fill="#4ab467" fill-rule="evenodd" fill-opacity="1"/>
<polyline clip-path="url(#clip472)" style="stroke:#000000; stroke-linecap:round; stroke-linejoin:round; stroke-width:6; stroke-opacity:1; fill:none" points="344.093,433.327 344.093,529.134 366.139,529.134 366.139,433.327 344.093,433.327 "/>
<path clip-path="url(#clip472)" d="M371.65 457.719 L371.65 529.134 L393.697 529.134 L393.697 457.719 L371.65 457.719 L371.65 457.719  Z" fill="#4ab467" fill-rule="evenodd" fill-opacity="1"/>
<polyline clip-path="url(#clip472)" style="stroke:#000000; stroke-linecap:round; stroke-linejoin:round; stroke-width:6; stroke-opacity:1; fill:none" points="371.65,457.719 371.65,529.134 393.697,529.134 393.697,457.719 371.65,457.719 "/>
<path clip-path="url(#clip472)" d="M399.208 472.284 L399.208 529.134 L421.255 529.134 L421.255 472.284 L399.208 472.284 L399.208 472.284  Z" fill="#4ab467" fill-rule="evenodd" fill-opacity="1"/>
<polyline clip-path="url(#clip472)" style="stroke:#000000; stroke-linecap:round; stroke-linejoin:round; stroke-width:6; stroke-opacity:1; fill:none" points="399.208,472.284 399.208,529.134 421.255,529.134 421.255,472.284 399.208,472.284 "/>
<path clip-path="url(#clip472)" d="M426.766 476.855 L426.766 529.134 L448.813 529.134 L448.813 476.855 L426.766 476.855 L426.766 476.855  Z" fill="#4ab467" fill-rule="evenodd" fill-opacity="1"/>
<polyline clip-path="url(#clip472)" style="stroke:#000000; stroke-linecap:round; stroke-linejoin:round; stroke-width:6; stroke-opacity:1; fill:none" points="426.766,476.855 426.766,529.134 448.813,529.134 448.813,476.855 426.766,476.855 "/>
<path clip-path="url(#clip472)" d="M454.324 473.493 L454.324 529.134 L476.37 529.134 L476.37 473.493 L454.324 473.493 L454.324 473.493  Z" fill="#4ab467" fill-rule="evenodd" fill-opacity="1"/>
<polyline clip-path="url(#clip472)" style="stroke:#000000; stroke-linecap:round; stroke-linejoin:round; stroke-width:6; stroke-opacity:1; fill:none" points="454.324,473.493 454.324,529.134 476.37,529.134 476.37,473.493 454.324,473.493 "/>
<path clip-path="url(#clip472)" d="M481.882 473.825 L481.882 529.134 L503.928 529.134 L503.928 473.825 L481.882 473.825 L481.882 473.825  Z" fill="#4ab467" fill-rule="evenodd" fill-opacity="1"/>
<polyline clip-path="url(#clip472)" style="stroke:#000000; stroke-linecap:round; stroke-linejoin:round; stroke-width:6; stroke-opacity:1; fill:none" points="481.882,473.825 481.882,529.134 503.928,529.134 503.928,473.825 481.882,473.825 "/>
<circle clip-path="url(#clip472)" style="fill:#4ab467; stroke:none; fill-opacity:0" cx="107.095" cy="526.719" r="2"/>
<circle clip-path="url(#clip472)" style="fill:#4ab467; stroke:none; fill-opacity:0" cx="134.653" cy="525.4" r="2"/>
<circle clip-path="url(#clip472)" style="fill:#4ab467; stroke:none; fill-opacity:0" cx="162.211" cy="523.12" r="2"/>
<circle clip-path="url(#clip472)" style="fill:#4ab467; stroke:none; fill-opacity:0" cx="189.768" cy="519.114" r="2"/>
<circle clip-path="url(#clip472)" style="fill:#4ab467; stroke:none; fill-opacity:0" cx="217.326" cy="511.785" r="2"/>
<circle clip-path="url(#clip472)" style="fill:#4ab467; stroke:none; fill-opacity:0" cx="244.884" cy="496.696" r="2"/>
<circle clip-path="url(#clip472)" style="fill:#4ab467; stroke:none; fill-opacity:0" cx="272.442" cy="458.876" r="2"/>
<circle clip-path="url(#clip472)" style="fill:#4ab467; stroke:none; fill-opacity:0" cx="300" cy="278.291" r="2"/>
<circle clip-path="url(#clip472)" style="fill:#4ab467; stroke:none; fill-opacity:0" cx="327.558" cy="392.967" r="2"/>
<circle clip-path="url(#clip472)" style="fill:#4ab467; stroke:none; fill-opacity:0" cx="355.116" cy="433.327" r="2"/>
<circle clip-path="url(#clip472)" style="fill:#4ab467; stroke:none; fill-opacity:0" cx="382.674" cy="457.719" r="2"/>
<circle clip-path="url(#clip472)" style="fill:#4ab467; stroke:none; fill-opacity:0" cx="410.232" cy="472.284" r="2"/>
<circle clip-path="url(#clip472)" style="fill:#4ab467; stroke:none; fill-opacity:0" cx="437.789" cy="476.855" r="2"/>
<circle clip-path="url(#clip472)" style="fill:#4ab467; stroke:none; fill-opacity:0" cx="465.347" cy="473.493" r="2"/>
<circle clip-path="url(#clip472)" style="fill:#4ab467; stroke:none; fill-opacity:0" cx="492.905" cy="473.825" r="2"/>
<path clip-path="url(#clip470)" d="M124.056 113.249 Q124.003 113.513 123.898 113.987 Q123.792 114.435 123.318 115.858 Q122.844 117.281 122.211 118.73 Q121.605 120.153 120.42 122.156 Q119.26 124.132 117.837 125.924 Q117.442 126.398 117.363 126.688 Q117.31 126.951 117.31 127.821 Q117.31 133.302 118.97 133.302 Q119.049 133.302 119.181 133.302 Q119.339 133.275 119.735 133.144 Q120.156 132.985 120.525 132.748 Q120.894 132.485 121.316 131.958 Q121.737 131.404 122.001 130.667 Q122.238 130.14 122.712 130.14 Q123.345 130.14 123.345 130.667 Q123.345 131.615 122.027 133.065 Q120.709 134.514 118.812 134.514 Q116.994 134.514 115.703 133.328 Q114.438 132.116 113.911 129.955 Q108.219 134.514 102.528 134.514 Q98.5226 134.514 96.1511 131.905 Q93.7795 129.27 93.7795 125.37 Q93.7795 121.629 95.8348 118.071 Q97.9165 114.514 101.289 112.301 Q104.689 110.061 108.299 110.061 Q109.563 110.061 110.775 110.403 Q111.988 110.72 113.2 111.536 Q114.412 112.353 115.308 113.592 Q116.204 114.83 116.757 116.78 Q117.31 118.73 117.31 121.181 L117.31 124.527 Q120.789 120.127 122.607 113.829 Q122.87 112.88 123.028 112.775 Q123.134 112.696 123.397 112.696 Q123.661 112.696 123.819 112.854 Q124.003 112.986 124.03 113.117 L124.056 113.249 M113.7 128.559 Q113.595 127.636 113.595 122.524 Q113.595 121.549 113.595 121.022 Q113.595 120.469 113.542 119.415 Q113.49 118.361 113.384 117.702 Q113.305 117.044 113.121 116.095 Q112.936 115.146 112.673 114.54 Q112.409 113.934 111.988 113.249 Q111.592 112.564 111.065 112.169 Q110.565 111.774 109.827 111.51 Q109.115 111.247 108.246 111.247 Q107.165 111.247 106.032 111.642 Q104.926 112.011 103.503 113.196 Q102.08 114.356 100.894 116.2 Q99.6556 118.15 98.707 121.734 Q97.7848 125.291 97.7848 127.426 Q97.7848 130.113 99.0232 131.721 Q100.262 133.302 102.633 133.302 Q108.299 133.302 113.7 128.559 Z" fill="#4ab467" fill-rule="nonzero" fill-opacity="1" /><path clip-path="url(#clip470)" d="M142.939 125.713 Q142.992 125.054 144.02 125.054 L177.089 125.054 Q178.644 125.054 178.67 125.66 Q178.67 126.319 177.195 126.293 L144.389 126.293 Q142.939 126.319 142.939 125.713 M142.939 115.173 Q142.939 114.514 144.072 114.54 L177.037 114.54 Q178.644 114.54 178.67 115.173 Q178.67 115.779 177.3 115.779 L144.02 115.779 Q142.939 115.779 142.939 115.173 Z" fill="#4ab467" fill-rule="nonzero" fill-opacity="1" /><path clip-path="url(#clip470)" d="M199.485 116.648 Q199.485 108.717 201.488 104.395 Q204.281 97.966 210.868 97.966 Q212.265 97.966 213.714 98.3613 Q215.19 98.7302 217.034 100.179 Q218.905 101.629 220.038 104 Q222.199 108.585 222.199 116.648 Q222.199 124.527 220.196 128.822 Q217.272 135.094 210.816 135.094 Q208.392 135.094 205.915 133.855 Q203.464 132.617 201.909 129.639 Q199.485 125.186 199.485 116.648 M203.965 115.99 Q203.965 124.132 204.544 127.373 Q205.203 130.877 206.995 132.406 Q208.813 133.908 210.816 133.908 Q212.976 133.908 214.768 132.3 Q216.586 130.667 217.14 127.162 Q217.746 123.71 217.72 115.99 Q217.72 108.48 217.193 105.476 Q216.481 101.971 214.584 100.575 Q212.713 99.1518 210.816 99.1518 Q210.104 99.1518 209.34 99.3626 Q208.602 99.5734 207.522 100.179 Q206.442 100.785 205.598 102.287 Q204.782 103.789 204.386 106.056 Q203.965 108.98 203.965 115.99 Z" fill="#4ab467" fill-rule="nonzero" fill-opacity="1" /><path clip-path="url(#clip470)" d="M227.027 133.038 Q226.21 132.169 226.21 131.036 Q226.21 129.903 227.027 129.086 Q227.843 128.242 229.082 128.242 Q230.268 128.242 231.058 129.033 Q231.875 129.797 231.875 131.062 Q231.875 132.3 231.005 133.117 Q230.162 133.908 229.082 133.908 Q227.843 133.908 227.027 133.038 Z" fill="#4ab467" fill-rule="nonzero" fill-opacity="1" /><path clip-path="url(#clip470)" d="M241.06 125.766 Q241.06 119.731 248.833 115.831 Q245.486 113.565 244.88 112.907 Q242.509 110.272 242.509 106.978 Q242.509 103.21 245.355 100.601 Q248.227 97.966 252.285 97.966 Q256.158 97.966 259.083 100.206 Q262.008 102.446 262.008 106.003 Q262.008 111.009 255.473 114.382 Q259.795 117.07 260.822 118.203 Q263.457 121.128 263.457 124.843 Q263.457 129.165 260.137 132.142 Q256.817 135.094 252.232 135.094 Q247.753 135.094 244.406 132.485 Q241.06 129.876 241.06 125.766 M243.747 125.766 Q243.747 129.112 246.251 131.352 Q248.78 133.592 252.285 133.592 Q255.684 133.592 258.214 131.642 Q260.77 129.692 260.77 126.793 Q260.77 125.66 260.374 124.685 Q260.005 123.71 259.241 122.946 Q258.504 122.156 258.029 121.813 Q257.581 121.444 256.712 120.838 L250.071 116.648 Q243.747 120.153 243.747 125.766 M244.88 104.87 Q244.88 107.452 247.595 109.244 L254.287 113.565 Q259.637 110.43 259.637 106.003 Q259.637 103.131 257.45 101.233 Q255.262 99.3099 252.232 99.3099 Q249.255 99.3099 247.068 100.891 Q244.88 102.446 244.88 104.87 Z" fill="#4ab467" fill-rule="nonzero" fill-opacity="1" /><path clip-path="url(#clip470)" d="M670.866 529.134 L1129.13 529.134 L1129.13 70.8661 L670.866 70.8661  Z" fill="#ffffff" fill-rule="evenodd" fill-opacity="1"/>
<defs>
  <clipPath id="clip473">
    <rect x="670" y="70" width="459" height="459"/>
  </clipPath>
</defs>
<polyline clip-path="url(#clip470)" style="stroke:#000000; stroke-linecap:round; stroke-linejoin:round; stroke-width:6; stroke-opacity:1; fill:none" points="670.866,529.134 1129.13,529.134 "/>
<polyline clip-path="url(#clip470)" style="stroke:#000000; stroke-linecap:round; stroke-linejoin:round; stroke-width:6; stroke-opacity:1; fill:none" points="900,529.134 900,70.8661 "/>
<polyline clip-path="url(#clip473)" style="stroke:#5fa3b4; stroke-linecap:round; stroke-linejoin:round; stroke-width:3; stroke-opacity:1; fill:none" points="212.598,528.024 1587.4,528.024 "/>
<polyline clip-path="url(#clip473)" style="stroke:#000000; stroke-linecap:round; stroke-linejoin:round; stroke-width:4.2; stroke-opacity:1; fill:none" points="683.836,529.02 714.717,529.003 745.597,528.978 776.478,528.945 807.358,528.9 838.239,528.828 869.119,528.688 900,528.203 930.881,526.566 961.761,523.107 992.642,515.845 1023.52,499.998 1054.4,458.935 1085.28,340.694 1116.16,70.8661 "/>
<polyline clip-path="url(#clip473)" style="stroke:#e1c67c; stroke-linecap:round; stroke-linejoin:round; stroke-width:4.2; stroke-opacity:1; fill:none" points="683.836,529.127 714.717,529.119 745.597,529.104 776.478,529.077 807.358,529.03 838.239,528.963 869.119,528.907 900,529.026 930.881,527.842 961.761,523.587 992.642,510.016 1023.52,469.481 1054.4,353.313 1085.28,29.7172 1116.16,-853.137 "/>
<path clip-path="url(#clip470)" d="M723.16 99.3925 Q723.16 100.078 722.87 101.395 Q721.948 105.111 718.496 107.666 Q717.916 108.141 716.889 108.747 Q718.127 109.564 719.208 111.066 Q720.815 113.543 720.815 116.889 Q720.815 118.444 720.393 120.341 Q719.208 124.741 715.044 127.903 Q710.854 130.986 705.874 130.986 Q703.187 130.986 701.342 129.564 Q699.524 128.114 698.812 125.69 L695.15 140.473 Q695.071 140.841 694.596 140.841 L694.333 140.841 Q693.78 140.841 693.78 140.209 L702.106 107.008 Q702.66 104.768 703.555 102.66 Q704.451 100.552 705.69 98.6547 Q706.955 96.7575 708.404 95.3609 Q709.853 93.938 711.645 93.1212 Q713.437 92.278 715.334 92.278 Q719.313 92.278 721.579 94.992 Q723.16 96.9156 723.16 99.3925 M720.13 98.4439 Q720.13 96.8102 719.471 95.6771 Q718.127 93.5164 715.281 93.5164 Q713.569 93.5164 711.935 94.3069 Q710.327 95.0711 709.036 96.3886 Q707.745 97.7061 706.638 99.4979 Q705.532 101.29 704.715 103.24 Q703.924 105.163 703.397 107.271 L700.156 120.341 Q699.84 121.738 699.84 122.976 Q699.84 125.927 701.474 127.851 Q703.108 129.774 705.927 129.774 Q709.669 129.774 712.883 126.981 Q715.677 124.478 716.836 120.077 Q717.495 117.311 717.495 115.387 Q717.495 113.279 716.731 111.645 Q716.177 110.328 715.097 109.537 Q713.094 110.249 711.065 110.249 Q710.09 110.249 709.563 110.222 Q709.063 110.196 708.325 110.091 Q707.613 109.985 707.271 109.695 Q706.955 109.406 706.955 108.958 Q706.955 108.694 707.007 108.589 Q707.113 108.167 707.455 107.877 Q707.798 107.587 708.193 107.456 Q708.588 107.298 709.247 107.219 Q709.932 107.139 710.38 107.139 Q710.828 107.113 711.592 107.113 Q713.384 107.113 715.202 107.825 Q715.887 107.456 716.625 106.797 Q718.97 104.61 719.761 101.132 Q720.13 99.8405 720.13 98.4439 M713.49 108.641 Q712.383 108.352 711.54 108.352 Q708.457 108.352 708.299 108.852 Q708.299 108.905 708.404 108.958 Q708.509 108.984 708.746 109.01 Q709.01 109.01 709.221 109.037 Q709.458 109.063 709.853 109.063 Q710.248 109.063 710.459 109.063 Q710.696 109.063 711.118 109.063 Q712.172 109.063 713.49 108.641 Z" fill="#e1c67c" fill-rule="nonzero" fill-opacity="1" /><path clip-path="url(#clip470)" d="M738.999 122.185 Q739.051 121.527 740.079 121.527 L773.149 121.527 Q774.703 121.527 774.73 122.133 Q774.73 122.792 773.254 122.765 L740.448 122.765 Q738.999 122.792 738.999 122.185 M738.999 111.645 Q738.999 110.987 740.132 111.013 L773.096 111.013 Q774.703 111.013 774.73 111.645 Q774.73 112.251 773.359 112.251 L740.079 112.251 Q738.999 112.251 738.999 111.645 Z" fill="#e1c67c" fill-rule="nonzero" fill-opacity="1" /><path clip-path="url(#clip470)" d="M795.544 113.121 Q795.544 105.19 797.547 100.868 Q800.34 94.4387 806.928 94.4387 Q808.324 94.4387 809.773 94.8339 Q811.249 95.2028 813.094 96.6521 Q814.964 98.1014 816.097 100.473 Q818.258 105.058 818.258 113.121 Q818.258 121 816.256 125.295 Q813.331 131.566 806.875 131.566 Q804.451 131.566 801.974 130.328 Q799.523 129.089 797.969 126.112 Q795.544 121.658 795.544 113.121 M800.024 112.462 Q800.024 120.604 800.604 123.846 Q801.262 127.35 803.054 128.878 Q804.872 130.38 806.875 130.38 Q809.036 130.38 810.827 128.773 Q812.646 127.139 813.199 123.635 Q813.805 120.183 813.779 112.462 Q813.779 104.952 813.252 101.948 Q812.54 98.4439 810.643 97.0473 Q808.772 95.6244 806.875 95.6244 Q806.163 95.6244 805.399 95.8352 Q804.661 96.046 803.581 96.6521 Q802.501 97.2581 801.658 98.7601 Q800.841 100.262 800.445 102.528 Q800.024 105.453 800.024 112.462 Z" fill="#e1c67c" fill-rule="nonzero" fill-opacity="1" /><path clip-path="url(#clip470)" d="M823.086 129.511 Q822.269 128.641 822.269 127.508 Q822.269 126.375 823.086 125.558 Q823.903 124.715 825.141 124.715 Q826.327 124.715 827.117 125.506 Q827.934 126.27 827.934 127.535 Q827.934 128.773 827.065 129.59 Q826.221 130.38 825.141 130.38 Q823.903 130.38 823.086 129.511 Z" fill="#e1c67c" fill-rule="nonzero" fill-opacity="1" /><path clip-path="url(#clip470)" d="M837.119 106.586 Q837.119 103.714 837.962 101.764 Q838.805 99.7878 840.571 97.8379 Q843.812 94.4387 848.502 94.4387 Q850.505 94.4387 852.27 95.2819 Q854.062 96.1251 855.748 98.0487 Q857.461 99.9459 858.489 103.714 Q859.517 107.456 859.517 112.62 Q859.517 120.973 855.459 126.27 Q851.427 131.566 845.972 131.566 Q842.521 131.566 840.492 130.012 Q838.463 128.43 838.463 125.743 Q838.463 124.346 839.253 123.767 Q840.044 123.16 840.94 123.16 Q841.915 123.16 842.679 123.819 Q843.443 124.452 843.443 125.637 Q843.443 126.612 842.81 127.376 Q842.204 128.114 840.623 128.114 Q842.178 130.064 845.92 130.064 Q847.264 130.064 848.608 129.458 Q849.951 128.826 851.401 127.324 Q852.876 125.795 853.772 122.607 Q854.668 119.419 854.668 114.939 L854.668 113.226 Q852.507 118.628 847.922 118.628 Q843.39 118.628 840.254 115.15 Q837.119 111.672 837.119 106.586 M841.967 106.639 Q841.967 111.988 842.942 113.964 Q844.602 117.363 847.975 117.363 Q851.269 117.363 852.903 114.439 Q854.563 111.487 854.563 107.666 Q854.563 102.37 853.693 100.051 Q852.086 95.7825 848.502 95.7825 Q844.945 95.7825 843.1 99.1817 Q841.967 101.184 841.967 106.639 Z" fill="#e1c67c" fill-rule="nonzero" fill-opacity="1" /><path clip-path="url(#clip470)" d="M1270.87 529.134 L1729.13 529.134 L1729.13 70.8661 L1270.87 70.8661  Z" fill="#ffffff" fill-rule="evenodd" fill-opacity="1"/>
<defs>
  <clipPath id="clip474">
    <rect x="1270" y="70" width="459" height="459"/>
  </clipPath>
</defs>
<polyline clip-path="url(#clip470)" style="stroke:#000000; stroke-linecap:round; stroke-linejoin:round; stroke-width:6; stroke-opacity:1; fill:none" points="1270.87,529.134 1729.13,529.134 "/>
<polyline clip-path="url(#clip470)" style="stroke:#000000; stroke-linecap:round; stroke-linejoin:round; stroke-width:6; stroke-opacity:1; fill:none" points="1500,529.134 1500,70.8661 "/>
<path clip-path="url(#clip474)" d="M1296.07 505.632 L1296.07 529.134 L1318.12 529.134 L1318.12 505.632 L1296.07 505.632 L1296.07 505.632  Z" fill="#5fa3b4" fill-rule="evenodd" fill-opacity="0.2"/>
<polyline clip-path="url(#clip474)" style="stroke:#000000; stroke-linecap:round; stroke-linejoin:round; stroke-width:6; stroke-opacity:0.2; fill:none" points="1296.07,505.632 1296.07,529.134 1318.12,529.134 1318.12,505.632 1296.07,505.632 "/>
<path clip-path="url(#clip474)" d="M1323.63 497.564 L1323.63 529.134 L1345.68 529.134 L1345.68 497.564 L1323.63 497.564 L1323.63 497.564  Z" fill="#5fa3b4" fill-rule="evenodd" fill-opacity="0.2"/>
<polyline clip-path="url(#clip474)" style="stroke:#000000; stroke-linecap:round; stroke-linejoin:round; stroke-width:6; stroke-opacity:0.2; fill:none" points="1323.63,497.564 1323.63,529.134 1345.68,529.134 1345.68,497.564 1323.63,497.564 "/>
<path clip-path="url(#clip474)" d="M1351.19 486.298 L1351.19 529.134 L1373.23 529.134 L1373.23 486.298 L1351.19 486.298 L1351.19 486.298  Z" fill="#5fa3b4" fill-rule="evenodd" fill-opacity="0.2"/>
<polyline clip-path="url(#clip474)" style="stroke:#000000; stroke-linecap:round; stroke-linejoin:round; stroke-width:6; stroke-opacity:0.2; fill:none" points="1351.19,486.298 1351.19,529.134 1373.23,529.134 1373.23,486.298 1351.19,486.298 "/>
<path clip-path="url(#clip474)" d="M1378.75 470.277 L1378.75 529.134 L1400.79 529.134 L1400.79 470.277 L1378.75 470.277 L1378.75 470.277  Z" fill="#5fa3b4" fill-rule="evenodd" fill-opacity="0.2"/>
<polyline clip-path="url(#clip474)" style="stroke:#000000; stroke-linecap:round; stroke-linejoin:round; stroke-width:6; stroke-opacity:0.2; fill:none" points="1378.75,470.277 1378.75,529.134 1400.79,529.134 1400.79,470.277 1378.75,470.277 "/>
<path clip-path="url(#clip474)" d="M1406.3 446.92 L1406.3 529.134 L1428.35 529.134 L1428.35 446.92 L1406.3 446.92 L1406.3 446.92  Z" fill="#5fa3b4" fill-rule="evenodd" fill-opacity="0.2"/>
<polyline clip-path="url(#clip474)" style="stroke:#000000; stroke-linecap:round; stroke-linejoin:round; stroke-width:6; stroke-opacity:0.2; fill:none" points="1406.3,446.92 1406.3,529.134 1428.35,529.134 1428.35,446.92 1406.3,446.92 "/>
<path clip-path="url(#clip474)" d="M1433.86 411.557 L1433.86 529.134 L1455.91 529.134 L1455.91 411.557 L1433.86 411.557 L1433.86 411.557  Z" fill="#5fa3b4" fill-rule="evenodd" fill-opacity="0.2"/>
<polyline clip-path="url(#clip474)" style="stroke:#000000; stroke-linecap:round; stroke-linejoin:round; stroke-width:6; stroke-opacity:0.2; fill:none" points="1433.86,411.557 1433.86,529.134 1455.91,529.134 1455.91,411.557 1433.86,411.557 "/>
<path clip-path="url(#clip474)" d="M1461.42 354.179 L1461.42 529.134 L1483.47 529.134 L1483.47 354.179 L1461.42 354.179 L1461.42 354.179  Z" fill="#5fa3b4" fill-rule="evenodd" fill-opacity="0.2"/>
<polyline clip-path="url(#clip474)" style="stroke:#000000; stroke-linecap:round; stroke-linejoin:round; stroke-width:6; stroke-opacity:0.2; fill:none" points="1461.42,354.179 1461.42,529.134 1483.47,529.134 1483.47,354.179 1461.42,354.179 "/>
<path clip-path="url(#clip474)" d="M1488.98 230.023 L1488.98 529.134 L1511.02 529.134 L1511.02 230.023 L1488.98 230.023 L1488.98 230.023  Z" fill="#5fa3b4" fill-rule="evenodd" fill-opacity="0.2"/>
<polyline clip-path="url(#clip474)" style="stroke:#000000; stroke-linecap:round; stroke-linejoin:round; stroke-width:6; stroke-opacity:0.2; fill:none" points="1488.98,230.023 1488.98,529.134 1511.02,529.134 1511.02,230.023 1488.98,230.023 "/>
<path clip-path="url(#clip474)" d="M1516.53 470.277 L1516.53 529.134 L1538.58 529.134 L1538.58 470.277 L1516.53 470.277 L1516.53 470.277  Z" fill="#5fa3b4" fill-rule="evenodd" fill-opacity="0.2"/>
<polyline clip-path="url(#clip474)" style="stroke:#000000; stroke-linecap:round; stroke-linejoin:round; stroke-width:6; stroke-opacity:0.2; fill:none" points="1516.53,470.277 1516.53,529.134 1538.58,529.134 1538.58,470.277 1516.53,470.277 "/>
<path clip-path="url(#clip474)" d="M1544.09 511.492 L1544.09 529.134 L1566.14 529.134 L1566.14 511.492 L1544.09 511.492 L1544.09 511.492  Z" fill="#5fa3b4" fill-rule="evenodd" fill-opacity="0.2"/>
<polyline clip-path="url(#clip474)" style="stroke:#000000; stroke-linecap:round; stroke-linejoin:round; stroke-width:6; stroke-opacity:0.2; fill:none" points="1544.09,511.492 1544.09,529.134 1566.14,529.134 1566.14,511.492 1544.09,511.492 "/>
<path clip-path="url(#clip474)" d="M1571.65 523.17 L1571.65 529.134 L1593.7 529.134 L1593.7 523.17 L1571.65 523.17 L1571.65 523.17  Z" fill="#5fa3b4" fill-rule="evenodd" fill-opacity="0.2"/>
<polyline clip-path="url(#clip474)" style="stroke:#000000; stroke-linecap:round; stroke-linejoin:round; stroke-width:6; stroke-opacity:0.2; fill:none" points="1571.65,523.17 1571.65,529.134 1593.7,529.134 1593.7,523.17 1571.65,523.17 "/>
<path clip-path="url(#clip474)" d="M1599.21 526.969 L1599.21 529.134 L1621.25 529.134 L1621.25 526.969 L1599.21 526.969 L1599.21 526.969  Z" fill="#5fa3b4" fill-rule="evenodd" fill-opacity="0.2"/>
<polyline clip-path="url(#clip474)" style="stroke:#000000; stroke-linecap:round; stroke-linejoin:round; stroke-width:6; stroke-opacity:0.2; fill:none" points="1599.21,526.969 1599.21,529.134 1621.25,529.134 1621.25,526.969 1599.21,526.969 "/>
<path clip-path="url(#clip474)" d="M1626.77 528.307 L1626.77 529.134 L1648.81 529.134 L1648.81 528.307 L1626.77 528.307 L1626.77 528.307  Z" fill="#5fa3b4" fill-rule="evenodd" fill-opacity="0.2"/>
<polyline clip-path="url(#clip474)" style="stroke:#000000; stroke-linecap:round; stroke-linejoin:round; stroke-width:6; stroke-opacity:0.2; fill:none" points="1626.77,528.307 1626.77,529.134 1648.81,529.134 1648.81,528.307 1626.77,528.307 "/>
<path clip-path="url(#clip474)" d="M1654.32 528.806 L1654.32 529.134 L1676.37 529.134 L1676.37 528.806 L1654.32 528.806 L1654.32 528.806  Z" fill="#5fa3b4" fill-rule="evenodd" fill-opacity="0.2"/>
<polyline clip-path="url(#clip474)" style="stroke:#000000; stroke-linecap:round; stroke-linejoin:round; stroke-width:6; stroke-opacity:0.2; fill:none" points="1654.32,528.806 1654.32,529.134 1676.37,529.134 1676.37,528.806 1654.32,528.806 "/>
<path clip-path="url(#clip474)" d="M1681.88 529 L1681.88 529.134 L1703.93 529.134 L1703.93 529 L1681.88 529 L1681.88 529  Z" fill="#5fa3b4" fill-rule="evenodd" fill-opacity="0.2"/>
<polyline clip-path="url(#clip474)" style="stroke:#000000; stroke-linecap:round; stroke-linejoin:round; stroke-width:6; stroke-opacity:0.2; fill:none" points="1681.88,529 1681.88,529.134 1703.93,529.134 1703.93,529 1681.88,529 "/>
<circle clip-path="url(#clip474)" style="fill:#5fa3b4; stroke:none; fill-opacity:0" cx="1307.09" cy="505.632" r="2"/>
<circle clip-path="url(#clip474)" style="fill:#5fa3b4; stroke:none; fill-opacity:0" cx="1334.65" cy="497.564" r="2"/>
<circle clip-path="url(#clip474)" style="fill:#5fa3b4; stroke:none; fill-opacity:0" cx="1362.21" cy="486.298" r="2"/>
<circle clip-path="url(#clip474)" style="fill:#5fa3b4; stroke:none; fill-opacity:0" cx="1389.77" cy="470.277" r="2"/>
<circle clip-path="url(#clip474)" style="fill:#5fa3b4; stroke:none; fill-opacity:0" cx="1417.33" cy="446.92" r="2"/>
<circle clip-path="url(#clip474)" style="fill:#5fa3b4; stroke:none; fill-opacity:0" cx="1444.88" cy="411.557" r="2"/>
<circle clip-path="url(#clip474)" style="fill:#5fa3b4; stroke:none; fill-opacity:0" cx="1472.44" cy="354.179" r="2"/>
<circle clip-path="url(#clip474)" style="fill:#5fa3b4; stroke:none; fill-opacity:0" cx="1500" cy="230.023" r="2"/>
<circle clip-path="url(#clip474)" style="fill:#5fa3b4; stroke:none; fill-opacity:0" cx="1527.56" cy="470.277" r="2"/>
<circle clip-path="url(#clip474)" style="fill:#5fa3b4; stroke:none; fill-opacity:0" cx="1555.12" cy="511.492" r="2"/>
<circle clip-path="url(#clip474)" style="fill:#5fa3b4; stroke:none; fill-opacity:0" cx="1582.67" cy="523.17" r="2"/>
<circle clip-path="url(#clip474)" style="fill:#5fa3b4; stroke:none; fill-opacity:0" cx="1610.23" cy="526.969" r="2"/>
<circle clip-path="url(#clip474)" style="fill:#5fa3b4; stroke:none; fill-opacity:0" cx="1637.79" cy="528.307" r="2"/>
<circle clip-path="url(#clip474)" style="fill:#5fa3b4; stroke:none; fill-opacity:0" cx="1665.35" cy="528.806" r="2"/>
<circle clip-path="url(#clip474)" style="fill:#5fa3b4; stroke:none; fill-opacity:0" cx="1692.91" cy="529" r="2"/>
<path clip-path="url(#clip474)" d="M1296.07 528.983 L1296.07 529.134 L1318.12 529.134 L1318.12 528.983 L1296.07 528.983 L1296.07 528.983  Z" fill="#83d89e" fill-rule="evenodd" fill-opacity="1"/>
<polyline clip-path="url(#clip474)" style="stroke:#000000; stroke-linecap:round; stroke-linejoin:round; stroke-width:6; stroke-opacity:1; fill:none" points="1296.07,528.983 1296.07,529.134 1318.12,529.134 1318.12,528.983 1296.07,528.983 "/>
<path clip-path="url(#clip474)" d="M1323.63 528.717 L1323.63 529.134 L1345.68 529.134 L1345.68 528.717 L1323.63 528.717 L1323.63 528.717  Z" fill="#83d89e" fill-rule="evenodd" fill-opacity="1"/>
<polyline clip-path="url(#clip474)" style="stroke:#000000; stroke-linecap:round; stroke-linejoin:round; stroke-width:6; stroke-opacity:1; fill:none" points="1323.63,528.717 1323.63,529.134 1345.68,529.134 1345.68,528.717 1323.63,528.717 "/>
<path clip-path="url(#clip474)" d="M1351.19 527.999 L1351.19 529.134 L1373.23 529.134 L1373.23 527.999 L1351.19 527.999 L1351.19 527.999  Z" fill="#83d89e" fill-rule="evenodd" fill-opacity="1"/>
<polyline clip-path="url(#clip474)" style="stroke:#000000; stroke-linecap:round; stroke-linejoin:round; stroke-width:6; stroke-opacity:1; fill:none" points="1351.19,527.999 1351.19,529.134 1373.23,529.134 1373.23,527.999 1351.19,527.999 "/>
<path clip-path="url(#clip474)" d="M1378.75 526.122 L1378.75 529.134 L1400.79 529.134 L1400.79 526.122 L1378.75 526.122 L1378.75 526.122  Z" fill="#83d89e" fill-rule="evenodd" fill-opacity="1"/>
<polyline clip-path="url(#clip474)" style="stroke:#000000; stroke-linecap:round; stroke-linejoin:round; stroke-width:6; stroke-opacity:1; fill:none" points="1378.75,526.122 1378.75,529.134 1400.79,529.134 1400.79,526.122 1378.75,526.122 "/>
<path clip-path="url(#clip474)" d="M1406.3 521.458 L1406.3 529.134 L1428.35 529.134 L1428.35 521.458 L1406.3 521.458 L1406.3 521.458  Z" fill="#83d89e" fill-rule="evenodd" fill-opacity="1"/>
<polyline clip-path="url(#clip474)" style="stroke:#000000; stroke-linecap:round; stroke-linejoin:round; stroke-width:6; stroke-opacity:1; fill:none" points="1406.3,521.458 1406.3,529.134 1428.35,529.134 1428.35,521.458 1406.3,521.458 "/>
<path clip-path="url(#clip474)" d="M1433.86 511 L1433.86 529.134 L1455.91 529.134 L1455.91 511 L1433.86 511 L1433.86 511  Z" fill="#83d89e" fill-rule="evenodd" fill-opacity="1"/>
<polyline clip-path="url(#clip474)" style="stroke:#000000; stroke-linecap:round; stroke-linejoin:round; stroke-width:6; stroke-opacity:1; fill:none" points="1433.86,511 1433.86,529.134 1455.91,529.134 1455.91,511 1433.86,511 "/>
<path clip-path="url(#clip474)" d="M1461.42 493.366 L1461.42 529.134 L1483.47 529.134 L1483.47 493.366 L1461.42 493.366 L1461.42 493.366  Z" fill="#83d89e" fill-rule="evenodd" fill-opacity="1"/>
<polyline clip-path="url(#clip474)" style="stroke:#000000; stroke-linecap:round; stroke-linejoin:round; stroke-width:6; stroke-opacity:1; fill:none" points="1461.42,493.366 1461.42,529.134 1483.47,529.134 1483.47,493.366 1461.42,493.366 "/>
<path clip-path="url(#clip474)" d="M1488.98 499.953 L1488.98 529.134 L1511.02 529.134 L1511.02 499.953 L1488.98 499.953 L1488.98 499.953  Z" fill="#83d89e" fill-rule="evenodd" fill-opacity="1"/>
<polyline clip-path="url(#clip474)" style="stroke:#000000; stroke-linecap:round; stroke-linejoin:round; stroke-width:6; stroke-opacity:1; fill:none" points="1488.98,499.953 1488.98,529.134 1511.02,529.134 1511.02,499.953 1488.98,499.953 "/>
<path clip-path="url(#clip474)" d="M1516.53 460.631 L1516.53 529.134 L1538.58 529.134 L1538.58 460.631 L1516.53 460.631 L1516.53 460.631  Z" fill="#83d89e" fill-rule="evenodd" fill-opacity="1"/>
<polyline clip-path="url(#clip474)" style="stroke:#000000; stroke-linecap:round; stroke-linejoin:round; stroke-width:6; stroke-opacity:1; fill:none" points="1516.53,460.631 1516.53,529.134 1538.58,529.134 1538.58,460.631 1516.53,460.631 "/>
<path clip-path="url(#clip474)" d="M1544.09 440.947 L1544.09 529.134 L1566.14 529.134 L1566.14 440.947 L1544.09 440.947 L1544.09 440.947  Z" fill="#83d89e" fill-rule="evenodd" fill-opacity="1"/>
<polyline clip-path="url(#clip474)" style="stroke:#000000; stroke-linecap:round; stroke-linejoin:round; stroke-width:6; stroke-opacity:1; fill:none" points="1544.09,440.947 1544.09,529.134 1566.14,529.134 1566.14,440.947 1544.09,440.947 "/>
<path clip-path="url(#clip474)" d="M1571.65 426.388 L1571.65 529.134 L1593.7 529.134 L1593.7 426.388 L1571.65 426.388 L1571.65 426.388  Z" fill="#83d89e" fill-rule="evenodd" fill-opacity="1"/>
<polyline clip-path="url(#clip474)" style="stroke:#000000; stroke-linecap:round; stroke-linejoin:round; stroke-width:6; stroke-opacity:1; fill:none" points="1571.65,426.388 1571.65,529.134 1593.7,529.134 1593.7,426.388 1571.65,426.388 "/>
<path clip-path="url(#clip474)" d="M1599.21 412.739 L1599.21 529.134 L1621.25 529.134 L1621.25 412.739 L1599.21 412.739 L1599.21 412.739  Z" fill="#83d89e" fill-rule="evenodd" fill-opacity="1"/>
<polyline clip-path="url(#clip474)" style="stroke:#000000; stroke-linecap:round; stroke-linejoin:round; stroke-width:6; stroke-opacity:1; fill:none" points="1599.21,412.739 1599.21,529.134 1621.25,529.134 1621.25,412.739 1599.21,412.739 "/>
<path clip-path="url(#clip474)" d="M1626.77 398.194 L1626.77 529.134 L1648.81 529.134 L1648.81 398.194 L1626.77 398.194 L1626.77 398.194  Z" fill="#83d89e" fill-rule="evenodd" fill-opacity="1"/>
<polyline clip-path="url(#clip474)" style="stroke:#000000; stroke-linecap:round; stroke-linejoin:round; stroke-width:6; stroke-opacity:1; fill:none" points="1626.77,398.194 1626.77,529.134 1648.81,529.134 1648.81,398.194 1626.77,398.194 "/>
<path clip-path="url(#clip474)" d="M1654.32 381.671 L1654.32 529.134 L1676.37 529.134 L1676.37 381.671 L1654.32 381.671 L1654.32 381.671  Z" fill="#83d89e" fill-rule="evenodd" fill-opacity="1"/>
<polyline clip-path="url(#clip474)" style="stroke:#000000; stroke-linecap:round; stroke-linejoin:round; stroke-width:6; stroke-opacity:1; fill:none" points="1654.32,381.671 1654.32,529.134 1676.37,529.134 1676.37,381.671 1654.32,381.671 "/>
<path clip-path="url(#clip474)" d="M1681.88 362.305 L1681.88 529.134 L1703.93 529.134 L1703.93 362.305 L1681.88 362.305 L1681.88 362.305  Z" fill="#83d89e" fill-rule="evenodd" fill-opacity="1"/>
<polyline clip-path="url(#clip474)" style="stroke:#000000; stroke-linecap:round; stroke-linejoin:round; stroke-width:6; stroke-opacity:1; fill:none" points="1681.88,362.305 1681.88,529.134 1703.93,529.134 1703.93,362.305 1681.88,362.305 "/>
<circle clip-path="url(#clip474)" style="fill:#83d89e; stroke:none; fill-opacity:0" cx="1307.09" cy="528.983" r="2"/>
<circle clip-path="url(#clip474)" style="fill:#83d89e; stroke:none; fill-opacity:0" cx="1334.65" cy="528.717" r="2"/>
<circle clip-path="url(#clip474)" style="fill:#83d89e; stroke:none; fill-opacity:0" cx="1362.21" cy="527.999" r="2"/>
<circle clip-path="url(#clip474)" style="fill:#83d89e; stroke:none; fill-opacity:0" cx="1389.77" cy="526.122" r="2"/>
<circle clip-path="url(#clip474)" style="fill:#83d89e; stroke:none; fill-opacity:0" cx="1417.33" cy="521.458" r="2"/>
<circle clip-path="url(#clip474)" style="fill:#83d89e; stroke:none; fill-opacity:0" cx="1444.88" cy="511" r="2"/>
<circle clip-path="url(#clip474)" style="fill:#83d89e; stroke:none; fill-opacity:0" cx="1472.44" cy="493.366" r="2"/>
<circle clip-path="url(#clip474)" style="fill:#83d89e; stroke:none; fill-opacity:0" cx="1500" cy="499.953" r="2"/>
<circle clip-path="url(#clip474)" style="fill:#83d89e; stroke:none; fill-opacity:0" cx="1527.56" cy="460.631" r="2"/>
<circle clip-path="url(#clip474)" style="fill:#83d89e; stroke:none; fill-opacity:0" cx="1555.12" cy="440.947" r="2"/>
<circle clip-path="url(#clip474)" style="fill:#83d89e; stroke:none; fill-opacity:0" cx="1582.67" cy="426.388" r="2"/>
<circle clip-path="url(#clip474)" style="fill:#83d89e; stroke:none; fill-opacity:0" cx="1610.23" cy="412.739" r="2"/>
<circle clip-path="url(#clip474)" style="fill:#83d89e; stroke:none; fill-opacity:0" cx="1637.79" cy="398.194" r="2"/>
<circle clip-path="url(#clip474)" style="fill:#83d89e; stroke:none; fill-opacity:0" cx="1665.35" cy="381.671" r="2"/>
<circle clip-path="url(#clip474)" style="fill:#83d89e; stroke:none; fill-opacity:0" cx="1692.91" cy="362.305" r="2"/>
</svg>
