<?xml version="1.0" encoding="UTF-8" standalone="no"?><!DOCTYPE svg PUBLIC "-//W3C//DTD SVG 1.1//EN" "http://www.w3.org/Graphics/SVG/1.1/DTD/svg11.dtd"><svg width="100%" height="100%" viewBox="0 0 2700 1200" version="1.1" xmlns="http://www.w3.org/2000/svg" xmlns:xlink="http://www.w3.org/1999/xlink" xml:space="preserve" xmlns:serif="http://www.serif.com/" style="fill-rule:evenodd;clip-rule:evenodd;stroke-linejoin:round;stroke-miterlimit:10;"><g id="B1"><rect x="0" y="0" width="2700" height="1200" style="fill:#fff;"/><g transform="matrix(0,-4.16667,4.16667,0,1345.13,-5.92119e-14)"><text x="-184.632px" y="22.099px" style="font-family:'HelveticaNeue', 'Helvetica Neue';font-size:16px;">P<tspan x="-173.308px -168.207px -162.515px -158.007px -148.762px -139.214px -133.218px " y="22.099px 22.099px 22.099px 22.099px 22.099px 22.099px 22.099px ">(fixate</tspan></text><text x="-118.184px" y="22.099px" style="font-family:'HelveticaNeue', 'Helvetica Neue';font-size:16px;">w<tspan x="-105.1px -94.959px -88.675px -79.719px -73.722px " y="22.099px 22.099px 22.099px 22.099px 22.099px ">orst)</tspan></text></g><text x="1607.42px" y="1068.53px" style="font-family:'HelveticaNeue', 'Helvetica Neue';font-size:50px;">0</text><text x="1820.05px" y="1068.53px" style="font-family:'HelveticaNeue', 'Helvetica Neue';font-size:50px;">5<tspan x="1851.86px 1883.67px " y="1068.53px 1068.53px ">00</tspan></text><text x="2047.26px" y="1068.53px" style="font-family:'HelveticaNeue', 'Helvetica Neue';font-size:50px;">1<tspan x="2079.07px 2110.88px 2142.69px " y="1068.53px 1068.53px 1068.53px ">000</tspan></text><text x="2291.14px" y="1068.53px" style="font-family:'HelveticaNeue', 'Helvetica Neue';font-size:50px;">1<tspan x="2322.95px 2354.76px 2386.57px " y="1068.53px 1068.53px 1068.53px ">500</tspan></text><text x="2535.02px" y="1068.53px" style="font-family:'HelveticaNeue', 'Helvetica Neue';font-size:50px;">2<tspan x="2566.83px 2598.64px 2630.45px " y="1068.53px 1068.53px 1068.53px ">000</tspan></text><text x="1472.61px" y="924.047px" style="font-family:'HelveticaNeue', 'Helvetica Neue';font-size:50px;">0<tspan x="1502.88px 1519.26px 1549.53px " y="924.047px 924.047px 924.047px ">.25</tspan></text><text x="1472.61px" y="773.079px" style="font-family:'HelveticaNeue', 'Helvetica Neue';font-size:50px;">0<tspan x="1503.75px 1520.99px 1552.13px " y="773.079px 773.079px 773.079px ">.30</tspan></text><text x="1472.61px" y="622.112px" style="font-family:'HelveticaNeue', 'Helvetica Neue';font-size:50px;">0<tspan x="1503.75px 1520.99px 1552.13px " y="622.112px 622.112px 622.112px ">.35</tspan></text><text x="1472.61px" y="471.145px" style="font-family:'HelveticaNeue', 'Helvetica Neue';font-size:50px;">0<tspan x="1503.75px 1520.99px 1552.13px " y="471.145px 471.145px 471.145px ">.40</tspan></text><text x="1472.61px" y="320.178px" style="font-family:'HelveticaNeue', 'Helvetica Neue';font-size:50px;">0<tspan x="1503.75px 1520.99px 1552.13px " y="320.178px 320.178px 320.178px ">.45</tspan></text><text x="1472.61px" y="169.211px" style="font-family:'HelveticaNeue', 'Helvetica Neue';font-size:50px;">0<tspan x="1503.75px 1520.99px 1552.13px " y="169.211px 169.211px 169.211px ">.50</tspan></text><rect x="1599.7" y="35.433" width="999.905" height="980.884" style="fill:#fff;"/><path d="M1624.08,1016.32l0,-10.417" style="fill:none;fill-rule:nonzero;stroke:#000;stroke-width:2.08px;"/><path d="M1867.96,1016.32l-0,-10.417" style="fill:none;fill-rule:nonzero;stroke:#000;stroke-width:2.08px;"/><path d="M2111.84,1016.32l-0,-10.417" style="fill:none;fill-rule:nonzero;stroke:#000;stroke-width:2.08px;"/><path d="M2355.72,1016.32l0,-10.417" style="fill:none;fill-rule:nonzero;stroke:#000;stroke-width:2.08px;"/><path d="M2599.6,1016.32l-0,-10.417" style="fill:none;fill-rule:nonzero;stroke:#000;stroke-width:2.08px;"/><path d="M1599.7,905.427l10.416,-0" style="fill:none;fill-rule:nonzero;stroke:#000;stroke-width:2.08px;"/><path d="M1599.7,754.46l10.416,-0" style="fill:none;fill-rule:nonzero;stroke:#000;stroke-width:2.08px;"/><path d="M1599.7,603.493l10.416,-0" style="fill:none;fill-rule:nonzero;stroke:#000;stroke-width:2.08px;"/><path d="M1599.7,452.525l10.416,0" style="fill:none;fill-rule:nonzero;stroke:#000;stroke-width:2.08px;"/><path d="M1599.7,301.558l10.416,0" style="fill:none;fill-rule:nonzero;stroke:#000;stroke-width:2.08px;"/><path d="M1599.7,150.591l10.416,0" style="fill:none;fill-rule:nonzero;stroke:#000;stroke-width:2.08px;"/><path d="M1599.7,1016.32l-0,-980.884" style="fill:none;fill-rule:nonzero;stroke:#000;stroke-width:4.17px;stroke-linecap:square;stroke-linejoin:miter;"/><path d="M1599.7,1016.32l999.905,-0" style="fill:none;fill-rule:nonzero;stroke:#000;stroke-width:4.17px;stroke-linecap:square;stroke-linejoin:miter;"/><path d="M1599.7,653.815l999.905,-0.518" style="fill:none;fill-rule:nonzero;stroke:#818181;stroke-opacity:0.2;stroke-width:4.17px;"/><text x="1784.53px" y="1147.61px" style="font-family:'HelveticaNeue', 'Helvetica Neue';font-size:66.667px;">Time since trial onset</text></g></svg>