<?xml version="1.0" encoding="UTF-8" standalone="no"?><!DOCTYPE svg PUBLIC "-//W3C//DTD SVG 1.1//EN" "http://www.w3.org/Graphics/SVG/1.1/DTD/svg11.dtd"><svg width="100%" height="100%" viewBox="0 0 2709 1209" version="1.1" xmlns="http://www.w3.org/2000/svg" xmlns:xlink="http://www.w3.org/1999/xlink" xml:space="preserve" xmlns:serif="http://www.serif.com/" style="fill-rule:evenodd;clip-rule:evenodd;stroke-linejoin:round;stroke-miterlimit:10;"><g id="B2"><path d="M1652.64,654.018l0,16.009l48.776,127.257l48.776,37.643l48.776,23.038l48.775,14.099l48.776,7.468l48.776,1.518l48.776,1.56l48.776,-0.37l48.776,-0.539l48.776,1.723l48.775,-2.59l48.776,10.083l48.776,8.053l48.776,5.171l48.776,11.478l48.776,4.383l48.776,1.657l48.775,7.004l0,-23.397l-48.775,-6.581l-48.776,-0.918l-48.776,-3.567l-48.776,-10.942l-48.776,-4.324l-48.776,-7.424l-48.776,-9.776l-48.775,3.14l-48.776,-1.21l-48.776,1.098l-48.776,1.004l-48.776,-1.195l-48.776,-1.291l-48.776,-6.955l-48.775,-13.71l-48.776,-23.106l-48.776,-37.539l-48.776,-127.952Z" style="fill:#ddb3ff;fill-opacity:0.12;fill-rule:nonzero;"/><path d="M1652.64,661.867l48.776,127.867l48.776,37.651l48.776,23.055l48.775,13.536l48.776,7.273l48.776,1.497l48.776,1.347l48.776,-0.486l48.776,-0.658l48.776,1.276l48.775,-3.022l48.776,10.011l48.776,7.647l48.776,5.033l48.776,10.715l48.776,4.276l48.776,1.317l48.775,7.238" style="fill:none;fill-rule:nonzero;stroke:#ddb3ff;stroke-opacity:0.18;stroke-width:4.17px;"/><path d="M1652.64,650.822l0,15.906l48.776,144.302l48.776,59.349l48.776,22.279l48.775,10.278l48.776,0.412l48.776,1.418l48.776,-1.649l48.776,6.238l48.776,5.852l48.776,3.978l48.775,8.571l48.776,4.477l48.776,6.486l48.776,6.373l48.776,-2.363l48.776,1.274l48.776,-3.336l48.775,4.844l0,-22.373l-48.775,-4.028l-48.776,4.058l-48.776,-0.651l-48.776,2.52l-48.776,-5.303l-48.776,-6.391l-48.776,-3.769l-48.775,-8.112l-48.776,-3.304l-48.776,-5.427l-48.776,-6.145l-48.776,2.017l-48.776,-0.898l-48.776,-0.29l-48.775,-10.03l-48.776,-21.944l-48.776,-59.83l-48.776,-144.789Z" style="fill:#ddb3ff;fill-opacity:0.12;fill-rule:nonzero;"/><path d="M1652.64,658.787l48.776,144.766l48.776,59.268l48.776,22.311l48.775,10.084l48.776,0.19l48.776,1.406l48.776,-1.863l48.776,6.229l48.776,5.401l48.776,3.71l48.775,8.303l48.776,4.216l48.776,6.289l48.776,5.853l48.776,-2.521l48.776,1.054l48.776,-3.296l48.775,4.281" style="fill:none;fill-rule:nonzero;stroke:#ddb3ff;stroke-opacity:0.18;stroke-width:4.17px;"/><path d="M1652.64,641.736l0,16.034l48.776,137.71l48.776,58.678l48.776,28.686l48.775,6.441l48.776,5.872l48.776,4.697l48.776,2.272l48.776,7.245l48.776,-3.627l48.776,4.424l48.775,-0.109l48.776,5.181l48.776,-0.575l48.776,-2.139l48.776,2.01l48.776,6.107l48.776,12.022l48.775,-1.105l0,-21.709l-48.775,1.53l-48.776,-11.324l-48.776,-5.383l-48.776,-1.918l-48.776,2.662l-48.776,1.101l-48.776,-4.526l-48.775,0.604l-48.776,-4.098l-48.776,4.392l-48.776,-6.948l-48.776,-2.118l-48.776,-4.342l-48.776,-5.626l-48.775,-6.336l-48.776,-28.842l-48.776,-58.649l-48.776,-138.294Z" style="fill:#ddb3ff;fill-opacity:0.12;fill-rule:nonzero;"/><path d="M1652.64,649.727l48.776,137.99l48.776,58.714l48.776,28.582l48.775,6.344l48.776,6.046l48.776,4.48l48.776,2.29l48.776,7.101l48.776,-4.32l48.776,4.588l48.775,-0.646l48.776,5.113l48.776,-0.824l48.776,-2.595l48.776,1.969l48.776,5.742l48.776,11.628l48.775,-1.061" style="fill:none;fill-rule:nonzero;stroke:#ddb3ff;stroke-opacity:0.18;stroke-width:4.17px;"/><path d="M1652.64,651.094l0,16.448l48.776,124.372l48.776,45.793l48.776,26.153l48.775,11.434l48.776,5.125l48.776,-0.224l48.776,-4.041l48.776,9.327l48.776,5.05l48.776,-2.477l48.775,5.739l48.776,1.853l48.776,2.885l48.776,6.174l48.776,7.04l48.776,0.296l48.776,6.592l48.775,7.095l0,-20.663l-48.775,-6.714l-48.776,-6.444l-48.776,0.453l-48.776,-6.712l-48.776,-5.513l-48.776,-2.748l-48.776,-1.291l-48.775,-5.615l-48.776,2.78l-48.776,-4.602l-48.776,-8.979l-48.776,4.466l-48.776,0.785l-48.776,-5.097l-48.775,-11.419l-48.776,-26.16l-48.776,-45.815l-48.776,-125.346Z" style="fill:#ddb3ff;fill-opacity:0.12;fill-rule:nonzero;"/><path d="M1652.64,659.347l48.776,124.779l48.776,45.766l48.776,26.009l48.775,11.663l48.776,5.157l48.776,-0.622l48.776,-4.034l48.776,8.865l48.776,4.901l48.776,-2.478l48.775,5.524l48.776,1.752l48.776,2.862l48.776,5.416l48.776,6.921l48.776,0.054l48.776,6.538l48.775,6.697" style="fill:none;fill-rule:nonzero;stroke:#ddb3ff;stroke-opacity:0.18;stroke-width:4.17px;"/><path d="M1652.64,647.081l0,16.313l48.776,126.011l48.776,46.53l48.776,22.822l48.775,16.138l48.776,0.657l48.776,3.762l48.776,-6.235l48.776,1.693l48.776,10.459l48.776,-0.141l48.775,11.923l48.776,4.48l48.776,5.901l48.776,6.339l48.776,2.661l48.776,7.602l48.776,4.011l48.775,3.735l0,-21.412l-48.775,-3.62l-48.776,-2.985l-48.776,-7.425l-48.776,-2.076l-48.776,-5.436l-48.776,-5.823l-48.776,-4.032l-48.775,-11.4l-48.776,0.472l-48.776,-10.113l-48.776,-1.263l-48.776,6.701l-48.776,-3.618l-48.776,-0.165l-48.775,-16.069l-48.776,-22.926l-48.776,-46.622l-48.776,-126.849Z" style="fill:#ddb3ff;fill-opacity:0.12;fill-rule:nonzero;"/><path d="M1652.64,655.301l48.776,126.621l48.776,46.38l48.776,22.712l48.775,16.22l48.776,0.383l48.776,3.619l48.776,-6.379l48.776,1.585l48.776,10.341l48.776,-0.541l48.775,11.75l48.776,4.621l48.776,5.417l48.776,5.991l48.776,2.206l48.776,7.586l48.776,3.469l48.775,3.54" style="fill:none;fill-rule:nonzero;stroke:#ddb3ff;stroke-opacity:0.18;stroke-width:4.17px;"/><path d="M1652.64,650.72l0,16.11l48.776,131.148l48.776,54.925l48.776,17.853l48.775,3.432l48.776,0.823l48.776,1.431l48.776,0.766l48.776,-0.457l48.776,-0.484l48.776,5.286l48.775,0.252l48.776,7.206l48.776,0.769l48.776,3.979l48.776,5.484l48.776,-0.028l48.776,5.023l48.775,3.988l0,-22.081l-48.775,-3.432l-48.776,-4.331l-48.776,0.959l-48.776,-5.119l-48.776,-4.041l-48.776,-0.221l-48.776,-6.718l-48.775,0.318l-48.776,-4.916l-48.776,0.895l-48.776,1.18l-48.776,-0.566l-48.776,-1.211l-48.776,-0.176l-48.775,-3.345l-48.776,-17.737l-48.776,-55.13l-48.776,-131.834Z" style="fill:#ddb3ff;fill-opacity:0.12;fill-rule:nonzero;"/><path d="M1652.64,658.584l48.776,131.53l48.776,55.243l48.776,17.777l48.775,3.262l48.776,0.496l48.776,1.2l48.776,1.058l48.776,-1.021l48.776,-0.601l48.776,4.849l48.775,0.166l48.776,6.943l48.776,0.369l48.776,4.314l48.776,5.017l48.776,-0.487l48.776,4.908l48.775,3.553" style="fill:none;fill-rule:nonzero;stroke:#ddb3ff;stroke-opacity:0.18;stroke-width:4.17px;"/><path d="M1652.64,648.842l0,16.079l48.776,136.541l48.776,44.6l48.776,19.816l48.775,6.997l48.776,1.914l48.776,7.276l48.776,-1.903l48.776,2.233l48.776,2.436l48.776,6.209l48.775,5.526l48.776,4.251l48.776,4.735l48.776,8.196l48.776,4.028l48.776,3.563l48.776,1.69l48.775,2.247l0,-22.42l-48.775,-1.302l-48.776,-1.192l-48.776,-3.422l-48.776,-2.866l-48.776,-7.944l-48.776,-4.102l-48.776,-3.792l-48.775,-4.843l-48.776,-5.663l-48.776,-2.36l-48.776,-1.592l-48.776,2.035l-48.776,-6.875l-48.776,-1.751l-48.775,-6.942l-48.776,-19.54l-48.776,-44.872l-48.776,-136.991Z" style="fill:#ddb3ff;fill-opacity:0.12;fill-rule:nonzero;"/><path d="M1652.64,656.904l48.776,136.82l48.776,44.585l48.776,19.74l48.775,7.139l48.776,1.662l48.776,7.132l48.776,-2.088l48.776,1.941l48.776,2.344l48.776,6.215l48.775,5.054l48.776,3.995l48.776,4.504l48.776,8.054l48.776,3.492l48.776,3.216l48.776,1.367l48.775,2.076" style="fill:none;fill-rule:nonzero;stroke:#ddb3ff;stroke-opacity:0.18;stroke-width:4.17px;"/><path d="M1652.64,647.259l0,16.059l48.776,136.296l48.776,51.851l48.776,24.84l48.775,12.824l48.776,4.538l48.776,0.352l48.776,3.079l48.776,5.404l48.776,-0.258l48.776,1.645l48.775,3.265l48.776,-3.225l48.776,6.391l48.776,7.827l48.776,4.304l48.776,4.153l48.776,4.912l48.775,1.254l0,-22.811l-48.775,-0.947l-48.776,-4.212l-48.776,-3.096l-48.776,-4.25l-48.776,-7.068l-48.776,-5.553l-48.776,3.455l-48.775,-2.61l-48.776,-1.23l-48.776,0.771l-48.776,-5.112l-48.776,-2.579l-48.776,0.191l-48.776,-4.399l-48.775,-12.417l-48.776,-24.742l-48.776,-51.9l-48.776,-137.002Z" style="fill:#ddb3ff;fill-opacity:0.12;fill-rule:nonzero;"/><path d="M1652.64,655.275l48.776,136.599l48.776,51.888l48.776,24.716l48.775,12.616l48.776,4.642l48.776,0.038l48.776,2.908l48.776,5.416l48.776,-0.777l48.776,1.431l48.775,2.929l48.776,-3.322l48.776,5.824l48.776,7.496l48.776,4.373l48.776,3.54l48.776,4.585l48.775,1.182" style="fill:none;fill-rule:nonzero;stroke:#ddb3ff;stroke-opacity:0.18;stroke-width:4.17px;"/><path d="M1652.64,647.03l0,16.135l48.776,130.156l48.776,45.511l48.776,15.756l48.775,14.809l48.776,5.703l48.776,6.667l48.776,2.885l48.776,1.322l48.776,6.265l48.776,2.464l48.775,-1.845l48.776,5.413l48.776,-0.844l48.776,6.073l48.776,6.237l48.776,0.451l48.776,7.201l48.775,-4.239l0,-22.671l-48.775,5.252l-48.776,-7.058l-48.776,0.588l-48.776,-5.712l-48.776,-5.656l-48.776,1.585l-48.776,-5.032l-48.775,2.424l-48.776,-1.772l-48.776,-5.64l-48.776,-1.492l-48.776,-2.569l-48.776,-6.136l-48.776,-5.359l-48.775,-14.802l-48.776,-15.388l-48.776,-45.873l-48.776,-130.809Z" style="fill:#ddb3ff;fill-opacity:0.12;fill-rule:nonzero;"/><path d="M1652.64,655.428l48.776,130.268l48.776,45.512l48.776,15.621l48.775,14.739l48.776,5.828l48.776,6.157l48.776,2.771l48.776,1.351l48.776,5.874l48.776,2.382l48.775,-1.993l48.776,5.017l48.776,-1.466l48.776,6.126l48.776,5.955l48.776,0.038l48.776,7.095l48.775,-4.945" style="fill:none;fill-rule:nonzero;stroke:#ddb3ff;stroke-opacity:0.18;stroke-width:4.17px;"/><path d="M1652.64,652.985l0,16.11l48.776,127.119l48.776,45.614l48.776,19.566l48.775,11.729l48.776,1.614l48.776,2.509l48.776,8.24l48.776,4.996l48.776,0.061l48.776,-0.024l48.775,-1.448l48.776,7.379l48.776,0.788l48.776,4.487l48.776,4.396l48.776,10.3l48.776,5.492l48.775,1.617l0,-22.908l-48.775,-1.204l-48.776,-4.981l-48.776,-9.573l-48.776,-3.589l-48.776,-3.895l-48.776,-0.401l-48.776,-6.568l-48.775,1.739l-48.776,0.81l-48.776,0.341l-48.776,-4.543l-48.776,-8.066l-48.776,-2.215l-48.776,-0.929l-48.775,-11.683l-48.776,-19.477l-48.776,-45.856l-48.776,-127.547Z" style="fill:#ddb3ff;fill-opacity:0.12;fill-rule:nonzero;"/><path d="M1652.64,661.103l48.776,127.245l48.776,45.529l48.776,19.599l48.775,11.842l48.776,1.118l48.776,2.652l48.776,7.985l48.776,4.724l48.776,-0.099l48.776,-0.176l48.775,-1.701l48.776,6.71l48.776,0.778l48.776,4.312l48.776,3.864l48.776,9.814l48.776,5.337l48.775,1.293" style="fill:none;fill-rule:nonzero;stroke:#ddb3ff;stroke-opacity:0.18;stroke-width:4.17px;"/><path d="M1652.64,648.604l0,16.179l48.776,122.927l48.776,34.959l48.776,22.848l48.775,7.835l48.776,0.751l48.776,1.236l48.776,6.458l48.776,7.559l48.776,3.697l48.776,4.309l48.775,3.331l48.776,4.98l48.776,4.64l48.776,2.533l48.776,5.557l48.776,8.119l48.776,0.99l48.775,-4.97l0,-21.479l-48.775,5.869l-48.776,-0.765l-48.776,-7.669l-48.776,-4.953l-48.776,-2.239l-48.776,-3.761l-48.776,-4.899l-48.775,-2.654l-48.776,-4.131l-48.776,-3.342l-48.776,-7.455l-48.776,-5.884l-48.776,-0.885l-48.776,-0.535l-48.775,-7.912l-48.776,-22.559l-48.776,-35.308l-48.776,-123.377Z" style="fill:#ddb3ff;fill-opacity:0.12;fill-rule:nonzero;"/><path d="M1652.64,656.599l48.776,122.89l48.776,35.388l48.776,22.791l48.775,8.045l48.776,0.314l48.776,1.23l48.776,6.173l48.776,7.395l48.776,3.47l48.776,4.356l48.775,2.82l48.776,5.326l48.776,4.014l48.776,2.322l48.776,5.42l48.776,8.139l48.776,0.481l48.775,-5.603" style="fill:none;fill-rule:nonzero;stroke:#ddb3ff;stroke-opacity:0.18;stroke-width:4.17px;"/><path d="M1652.64,642.525l0,16.364l48.776,130.227l48.776,35.079l48.776,14.953l48.775,7.797l48.776,2.546l48.776,0.056l48.776,3.415l48.776,9.131l48.776,-1.653l48.776,2.087l48.775,5.395l48.776,14.766l48.776,1.812l48.776,5.969l48.776,4.772l48.776,6.747l48.776,3.689l48.775,3.902l0,-22.201l-48.775,-3.391l-48.776,-3.054l-48.776,-5.998l-48.776,-4.361l-48.776,-5.401l-48.776,-1.378l-48.776,-14.485l-48.775,-5.075l-48.776,-1.313l-48.776,1.983l-48.776,-8.509l-48.776,-2.897l-48.776,0.12l-48.776,-2.339l-48.775,-7.665l-48.776,-14.927l-48.776,-35.278l-48.776,-130.885Z" style="fill:#ddb3ff;fill-opacity:0.12;fill-rule:nonzero;"/><path d="M1652.64,650.618l48.776,130.454l48.776,35.519l48.776,14.712l48.775,7.677l48.776,2.538l48.776,-0.164l48.776,3.128l48.776,9.03l48.776,-1.675l48.776,1.566l48.775,5.25l48.776,14.648l48.776,1.745l48.776,5.252l48.776,4.885l48.776,6.429l48.776,3.159l48.775,3.594" style="fill:none;fill-rule:nonzero;stroke:#ddb3ff;stroke-opacity:0.18;stroke-width:4.17px;"/><path d="M1652.64,650.465l0,16.034l48.776,152.342l48.776,46.282l48.776,27.249l48.775,14.795l48.776,1.917l48.776,2.606l48.776,-1.572l48.776,-6.005l48.776,0.846l48.776,2.927l48.775,3.907l48.776,5.246l48.776,-3.583l48.776,2.957l48.776,3.017l48.776,2.693l48.776,4.923l48.775,6.165l0,-22.789l-48.775,-5.665l-48.776,-4.304l-48.776,-1.776l-48.776,-2.677l-48.776,-2.224l-48.776,4.064l-48.776,-4.47l-48.775,-3.485l-48.776,-2.376l-48.776,-0.62l-48.776,6.809l-48.776,1.968l-48.776,-2.319l-48.776,-1.496l-48.775,-14.718l-48.776,-27.105l-48.776,-46.712l-48.776,-152.851Z" style="fill:#ddb3ff;fill-opacity:0.12;fill-rule:nonzero;"/><path d="M1652.64,658.457l48.776,152.671l48.776,46.46l48.776,27.191l48.775,14.689l48.776,1.779l48.776,2.623l48.776,-2.087l48.776,-6.545l48.776,1.066l48.776,2.748l48.775,3.628l48.776,4.822l48.776,-3.842l48.776,2.589l48.776,2.88l48.776,2.159l48.776,4.418l48.775,6.292" style="fill:none;fill-rule:nonzero;stroke:#ddb3ff;stroke-opacity:0.18;stroke-width:4.17px;"/><path d="M1652.64,649.549l0,16.33l48.776,145.689l48.776,35.959l48.776,28.579l48.775,8.906l48.776,3.742l48.776,3.904l48.776,1.451l48.776,4.041l48.776,2.552l48.776,6.178l48.775,4.738l48.776,9.791l48.776,3.485l48.776,2.893l48.776,5.88l48.776,9.281l48.776,6.955l48.775,4.808l0,-23.672l-48.775,-4.005l-48.776,-6.377l-48.776,-8.371l-48.776,-5.27l-48.776,-2.478l-48.776,-2.688l-48.776,-9.284l-48.775,-4.075l-48.776,-5.734l-48.776,-1.731l-48.776,-3.75l-48.776,-0.847l-48.776,-3.708l-48.776,-3.406l-48.775,-8.787l-48.776,-28.195l-48.776,-36.369l-48.776,-146.415Z" style="fill:#ddb3ff;fill-opacity:0.12;fill-rule:nonzero;"/><path d="M1652.64,657.591l48.776,146.264l48.776,36.189l48.776,28.224l48.775,8.896l48.776,3.732l48.776,3.658l48.776,0.817l48.776,4.115l48.776,2.156l48.776,5.773l48.775,4.669l48.776,9.477l48.776,3.25l48.776,2.816l48.776,5.162l48.776,8.908l48.776,6.558l48.775,4.815" style="fill:none;fill-rule:nonzero;stroke:#ddb3ff;stroke-opacity:0.18;stroke-width:4.17px;"/><path d="M1652.64,647.208l0,16.389l48.776,146.453l48.776,55.822l48.776,28.655l48.775,19.601l48.776,-2.443l48.776,-4.538l48.776,5.214l48.776,-2.82l48.776,2.629l48.776,1.751l48.775,3.145l48.776,-1.689l48.776,5.951l48.776,-0.603l48.776,10.302l48.776,1.431l48.776,7.102l48.775,-1.699l0,-22.431l-48.775,2.122l-48.776,-6.212l-48.776,-1.134l-48.776,-9.889l-48.776,1.435l-48.776,-5.219l-48.776,2.045l-48.775,-2.865l-48.776,-0.923l-48.776,-2.416l-48.776,3.276l-48.776,-4.706l-48.776,4.608l-48.776,3.024l-48.775,-19.523l-48.776,-28.447l-48.776,-56.297l-48.776,-147.101Z" style="fill:#ddb3ff;fill-opacity:0.12;fill-rule:nonzero;"/><path d="M1652.64,655.403l48.776,146.771l48.776,56.001l48.776,28.444l48.775,19.72l48.776,-2.84l48.776,-4.313l48.776,4.794l48.776,-2.979l48.776,2.622l48.776,0.951l48.775,3.347l48.776,-2.064l48.776,5.728l48.776,-1.272l48.776,10.686l48.776,0.979l48.776,6.522l48.775,-1.783" style="fill:none;fill-rule:nonzero;stroke:#ddb3ff;stroke-opacity:0.18;stroke-width:4.17px;"/><path d="M1652.64,646.881l0,16.258l48.776,142.575l48.776,38.728l48.776,26.814l48.775,11.947l48.776,-3.891l48.776,-15.249l48.776,2.211l48.776,2.871l48.776,7.149l48.776,9.727l48.775,1.25l48.776,10.655l48.776,4.195l48.776,1.731l48.776,-0.026l48.776,5.243l48.776,7.392l48.775,10.048l0,-24.495l-48.775,-9.565l-48.776,-6.141l-48.776,-4.222l-48.776,0.302l-48.776,-0.948l-48.776,-3.542l-48.776,-10.086l-48.775,-0.622l-48.776,-9.077l-48.776,-7.092l-48.776,-1.792l-48.776,-1.979l-48.776,15.816l-48.776,4.514l-48.775,-11.903l-48.776,-26.564l-48.776,-38.972l-48.776,-143.26Z" style="fill:#ddb3ff;fill-opacity:0.12;fill-rule:nonzero;"/><path d="M1652.64,655.046l48.776,142.953l48.776,38.753l48.776,26.698l48.775,12.061l48.776,-4.177l48.776,-15.708l48.776,2.272l48.776,1.99l48.776,7.355l48.776,9.436l48.775,0.661l48.776,10.774l48.776,3.643l48.776,1.596l48.776,-0.341l48.776,4.447l48.776,7.028l48.775,9.949" style="fill:none;fill-rule:nonzero;stroke:#ddb3ff;stroke-opacity:0.18;stroke-width:4.17px;"/><path d="M1652.64,649.433l0,16.099l48.776,116.92l48.776,44.187l48.776,28.859l48.775,0.639l48.776,4.462l48.776,6.714l48.776,1.553l48.776,-3.021l48.776,-0.513l48.776,1.466l48.775,6.485l48.776,5.972l48.776,10.214l48.776,4.687l48.776,5.513l48.776,8.679l48.776,2.984l48.775,3.383l0,-21.883l-48.775,-2.781l-48.776,-2.673l-48.776,-8.431l-48.776,-4.691l-48.776,-3.89l-48.776,-9.873l-48.776,-5.76l-48.775,-6.175l-48.776,-0.752l-48.776,0.698l-48.776,3.912l-48.776,-1.477l-48.776,-5.933l-48.776,-4.629l-48.775,-0.264l-48.776,-29.097l-48.776,-44.039l-48.776,-117.544Z" style="fill:#ddb3ff;fill-opacity:0.12;fill-rule:nonzero;"/><path d="M1652.64,657.515l48.776,117.098l48.776,44.125l48.776,29.133l48.775,0.344l48.776,4.574l48.776,6.492l48.776,1.329l48.776,-3.419l48.776,-0.588l48.776,1.164l48.775,6.034l48.776,6.152l48.776,10.095l48.776,3.958l48.776,5.208l48.776,8.375l48.776,3.153l48.775,3.088" style="fill:none;fill-rule:nonzero;stroke:#ddb3ff;stroke-opacity:0.18;stroke-width:4.17px;"/><path d="M1652.64,644.79l0,16.289l48.776,123.973l48.776,41.039l48.776,11.086l48.775,8.698l48.776,3.235l48.776,5.826l48.776,-1.251l48.776,3.807l48.776,5.993l48.776,4.447l48.775,0.932l48.776,7.695l48.776,7.28l48.776,5.902l48.776,8.513l48.776,8.273l48.776,0.979l48.775,-1.466l0,-23.925l-48.775,2.259l-48.776,-0.402l-48.776,-7.161l-48.776,-8.203l-48.776,-5.327l-48.776,-6.425l-48.776,-7.545l-48.775,-0.086l-48.776,-3.549l-48.776,-5.92l-48.776,-3.092l-48.776,1.672l-48.776,-5.577l-48.776,-2.823l-48.775,-8.238l-48.776,-11.098l-48.776,-41.132l-48.776,-124.678Z" style="fill:#ddb3ff;fill-opacity:0.12;fill-rule:nonzero;"/><path d="M1652.64,652.858l48.776,124.276l48.776,41.297l48.776,11.085l48.775,8.241l48.776,3.249l48.776,5.696l48.776,-1.498l48.776,3.2l48.776,5.944l48.776,4.179l48.775,0.722l48.776,7.504l48.776,6.761l48.776,5.734l48.776,7.99l48.776,7.867l48.776,0.745l48.775,-1.644" style="fill:none;fill-rule:nonzero;stroke:#ddb3ff;stroke-opacity:0.18;stroke-width:4.17px;"/><path d="M1652.64,649.931l0,16.237l48.776,125.777l48.776,41.974l48.776,14.122l48.775,9.133l48.776,3.911l48.776,0.177l48.776,1.994l48.776,8.513l48.776,1.756l48.776,1.987l48.775,5.743l48.776,-1.891l48.776,7.876l48.776,3.488l48.776,8.714l48.776,7.018l48.776,7.087l48.775,8.071l0,-22.368l-48.775,-7.594l-48.776,-6.801l-48.776,-6.255l-48.776,-8.158l-48.776,-2.826l-48.776,-7.256l-48.776,2.365l-48.775,-5.068l-48.776,-1.869l-48.776,-1.187l-48.776,-8.234l-48.776,-1.469l-48.776,0.203l-48.776,-3.629l-48.775,-8.949l-48.776,-14l-48.776,-42.299l-48.776,-126.293Z" style="fill:#ddb3ff;fill-opacity:0.12;fill-rule:nonzero;"/><path d="M1652.64,658.177l48.776,125.775l48.776,42.555l48.776,13.695l48.775,9.013l48.776,3.835l48.776,-0.029l48.776,1.863l48.776,8.268l48.776,1.453l48.776,1.903l48.775,5.463l48.776,-1.883l48.776,7.144l48.776,3.515l48.776,8.397l48.776,6.402l48.776,7.293l48.775,7.299" style="fill:none;fill-rule:nonzero;stroke:#ddb3ff;stroke-opacity:0.18;stroke-width:4.17px;"/><path d="M1652.64,656.239l0,16.393l48.776,123.052l48.776,55.331l48.776,28.215l48.775,7.844l48.776,4.625l48.776,3.915l48.776,-3.979l48.776,1.992l48.776,-1.685l48.776,10.493l48.775,2.42l48.776,6.112l48.776,3.257l48.776,11.26l48.776,-0.158l48.776,3.462l48.776,5.662l48.775,2.724l0,-21.419l-48.775,-2.281l-48.776,-5.63l-48.776,-2.747l-48.776,0.823l-48.776,-10.816l-48.776,-2.882l-48.776,-5.651l-48.775,-2.04l-48.776,-9.79l-48.776,1.98l-48.776,-1.556l-48.776,4.402l-48.776,-3.907l-48.776,-4.066l-48.775,-7.889l-48.776,-27.864l-48.776,-55.886l-48.776,-123.716Z" style="fill:#ddb3ff;fill-opacity:0.12;fill-rule:nonzero;"/><path d="M1652.64,664.31l48.776,123.51l48.776,55.441l48.776,28.322l48.775,7.603l48.776,4.501l48.776,3.859l48.776,-3.972l48.776,1.535l48.776,-1.546l48.776,9.902l48.775,2.348l48.776,5.92l48.776,3.031l48.776,11.071l48.776,-0.553l48.776,2.861l48.776,5.559l48.775,3.004" style="fill:none;fill-rule:nonzero;stroke:#ddb3ff;stroke-opacity:0.18;stroke-width:4.17px;"/><path d="M1652.64,647.284l0,16.17l48.776,118.881l48.776,36.194l48.776,17.317l48.775,4.473l48.776,3.548l48.776,1.898l48.776,0.654l48.776,-0.688l48.776,4.752l48.776,9.345l48.775,11.527l48.776,4.36l48.776,4.969l48.776,6.877l48.776,5.886l48.776,4.432l48.776,1.012l48.775,2.127l0,-22.69l-48.775,-1.65l-48.776,-0.112l-48.776,-3.991l-48.776,-5.129l-48.776,-6.312l-48.776,-4.443l-48.776,-3.897l-48.775,-10.899l-48.776,-8.917l-48.776,-4.567l-48.776,1.243l-48.776,-0.266l-48.776,-1.541l-48.776,-3.272l-48.775,-4.07l-48.776,-17.454l-48.776,-36.39l-48.776,-119.377Z" style="fill:#ddb3ff;fill-opacity:0.12;fill-rule:nonzero;"/><path d="M1652.64,655.454l48.776,119.142l48.776,36.201l48.776,17.431l48.775,4.178l48.776,3.465l48.776,1.837l48.776,0.099l48.776,-0.785l48.776,4.845l48.776,8.995l48.775,11.174l48.776,4.228l48.776,4.672l48.776,6.43l48.776,5.749l48.776,4.212l48.776,0.29l48.775,2.205" style="fill:none;fill-rule:nonzero;stroke:#ddb3ff;stroke-opacity:0.18;stroke-width:4.17px;"/><path d="M1652.64,649.422l0,16.212l48.776,144.199l48.776,53.179l48.776,19.914l48.775,19.385l48.776,1.521l48.776,0.194l48.776,6.384l48.776,4.111l48.776,2.99l48.776,2.19l48.775,-2.869l48.776,1.496l48.776,2.457l48.776,4.332l48.776,1.567l48.776,5.167l48.776,6.57l48.775,4.495l0,-21.689l-48.775,-4.076l-48.776,-5.64l-48.776,-4.867l-48.776,-1.161l-48.776,-3.997l-48.776,-1.561l-48.776,-0.908l-48.775,3.021l-48.776,-1.928l-48.776,-2.249l-48.776,-3.776l-48.776,-5.837l-48.776,-0.013l-48.776,-1.215l-48.775,-19.205l-48.776,-20.452l-48.776,-53.16l-48.776,-144.781Z" style="fill:#ddb3ff;fill-opacity:0.12;fill-rule:nonzero;"/><path d="M1652.64,657.388l48.776,144.732l48.776,53.106l48.776,20.137l48.775,19.343l48.776,1.09l48.776,0.283l48.776,6.337l48.776,3.984l48.776,2.425l48.776,2.205l48.775,-3.159l48.776,0.957l48.776,2.307l48.776,4.453l48.776,1.123l48.776,4.896l48.776,6.336l48.775,4.018" style="fill:none;fill-rule:nonzero;stroke:#ddb3ff;stroke-opacity:0.18;stroke-width:4.17px;"/><path d="M1652.64,649.349l0,16.284l48.776,123.095l48.776,44.407l48.776,20.9l48.775,2.698l48.776,2.122l48.776,2.934l48.776,1.435l48.776,0.12l48.776,0.135l48.776,4.129l48.775,5.572l48.776,9.049l48.776,2.307l48.776,10.55l48.776,-0.637l48.776,-1.293l48.776,0.176l48.775,3.39l0,-22.073l-48.775,-2.215l-48.776,-0.309l-48.776,2.137l-48.776,1.179l-48.776,-9.974l-48.776,-1.88l-48.776,-8.664l-48.775,-5.001l-48.776,-3.886l-48.776,0.261l-48.776,0.412l-48.776,-1.124l-48.776,-2.657l-48.776,-1.815l-48.775,-2.59l-48.776,-20.727l-48.776,-44.797l-48.776,-123.65Z" style="fill:#ddb3ff;fill-opacity:0.12;fill-rule:nonzero;"/><path d="M1652.64,657.617l48.776,123.272l48.776,44.449l48.776,20.85l48.775,2.668l48.776,1.897l48.776,2.918l48.776,1.341l48.776,-0.238l48.776,0l48.776,3.887l48.775,5.317l48.776,8.851l48.776,2.295l48.776,10.053l48.776,-1.071l48.776,-1.635l48.776,0.566l48.775,2.617" style="fill:none;fill-rule:nonzero;stroke:#ddb3ff;stroke-opacity:0.18;stroke-width:4.17px;"/><path d="M1652.64,659.602l0,16.262l48.776,107.903l48.776,34.775l48.776,25.107l48.775,7.698l48.776,7.776l48.776,-1.345l48.776,-0.742l48.776,3.539l48.776,7.718l48.776,4.248l48.775,9.631l48.776,0.873l48.776,5.635l48.776,8.677l48.776,13.736l48.776,-3.614l48.776,3.205l48.775,8.744l0,-22.815l-48.775,-7.758l-48.776,-2.291l-48.776,3.73l-48.776,-13.279l-48.776,-7.792l-48.776,-5.293l-48.776,-0.437l-48.775,-8.787l-48.776,-3.824l-48.776,-7.104l-48.776,-3.266l-48.776,0.947l-48.776,1.645l-48.776,-7.156l-48.775,-8.037l-48.776,-24.432l-48.776,-35.29l-48.776,-108.587Z" style="fill:#ddb3ff;fill-opacity:0.12;fill-rule:nonzero;"/><path d="M1652.64,667.542l48.776,108.462l48.776,35.089l48.776,24.635l48.775,8.107l48.776,7.376l48.776,-1.724l48.776,-0.65l48.776,3.323l48.776,7.732l48.776,3.589l48.775,9.212l48.776,0.635l48.776,5.653l48.776,8.16l48.776,13.56l48.776,-3.867l48.776,2.982l48.775,8.146" style="fill:none;fill-rule:nonzero;stroke:#ddb3ff;stroke-opacity:0.18;stroke-width:4.17px;"/><path d="M1652.64,649.753l0,16.491l48.776,138.227l48.776,55.078l48.776,27.412l48.775,15.13l48.776,0.298l48.776,1.354l48.776,1.741l48.776,3.261l48.776,5.6l48.776,0.952l48.775,-0.324l48.776,8.941l48.776,5.576l48.776,10.94l48.776,8.038l48.776,6.062l48.776,3.355l48.775,1.485l0,-21.068l-48.775,-1.061l-48.776,-2.587l-48.776,-5.64l-48.776,-7.641l-48.776,-10.44l-48.776,-5.235l-48.776,-8.557l-48.775,0.967l-48.776,-0.694l-48.776,-5.271l-48.776,-2.922l-48.776,-1.256l-48.776,-1.293l-48.776,0.191l-48.775,-14.808l-48.776,-27.922l-48.776,-55.477l-48.776,-138.903Z" style="fill:#ddb3ff;fill-opacity:0.12;fill-rule:nonzero;"/><path d="M1652.64,658.024l48.776,138.624l48.776,55.052l48.776,27.756l48.775,14.905l48.776,0.031l48.776,1.435l48.776,1.54l48.776,3.077l48.776,5.458l48.776,0.957l48.775,-1.008l48.776,9.047l48.776,5.374l48.776,10.818l48.776,7.787l48.776,5.858l48.776,2.954l48.775,1.28" style="fill:none;fill-rule:nonzero;stroke:#ddb3ff;stroke-opacity:0.18;stroke-width:4.17px;"/><path d="M1652.64,648.073l0,15.983l48.776,164.193l48.776,42.834l48.776,23.805l48.775,12.369l48.776,2.946l48.776,-2.18l48.776,-3.64l48.776,-0.48l48.776,3.095l48.776,-1.104l48.775,0.514l48.776,7.051l48.776,3.46l48.776,10.005l48.776,7.798l48.776,2.723l48.776,1.625l48.775,4.083l0,-23.843l-48.775,-3.846l-48.776,-0.474l-48.776,-1.51l-48.776,-7.527l-48.776,-9.833l-48.776,-2.524l-48.776,-6.314l-48.775,0.106l-48.776,1.546l-48.776,-2.59l-48.776,0.982l-48.776,4.465l-48.776,2.346l-48.776,-2.494l-48.775,-12.203l-48.776,-23.609l-48.776,-43.191l-48.776,-164.567Z" style="fill:#ddb3ff;fill-opacity:0.12;fill-rule:nonzero;"/><path d="M1652.64,655.988l48.776,164.598l48.776,42.625l48.776,23.86l48.775,12.36l48.776,2.849l48.776,-2.358l48.776,-4.041l48.776,-0.862l48.776,3.077l48.776,-1.514l48.775,0.238l48.776,6.61l48.776,3.305l48.776,9.729l48.776,7.582l48.776,2.293l48.776,0.678l48.775,4.011" style="fill:none;fill-rule:nonzero;stroke:#ddb3ff;stroke-opacity:0.18;stroke-width:4.17px;"/><path d="M1652.64,651.916l0,16.033l48.776,132.211l48.776,34.675l48.776,31.88l48.775,6.134l48.776,2.764l48.776,-0.283l48.776,1.486l48.776,4.829l48.776,3.874l48.776,2.119l48.775,-0.122l48.776,7.351l48.776,10.098l48.776,7.451l48.776,1.14l48.776,-0.508l48.776,-0.025l48.775,10.333l0,-22.247l-48.775,-9.545l-48.776,0.394l-48.776,1.349l-48.776,-0.974l-48.776,-6.808l-48.776,-9.208l-48.776,-7.453l-48.775,0.84l-48.776,-1.427l-48.776,-3.605l-48.776,-4.36l-48.776,-0.937l-48.776,0.415l-48.776,-2.513l-48.775,-5.743l-48.776,-32.352l-48.776,-34.753l-48.776,-132.513Z" style="fill:#ddb3ff;fill-opacity:0.12;fill-rule:nonzero;"/><path d="M1652.64,659.933l48.776,132.234l48.776,34.924l48.776,31.916l48.775,6.043l48.776,2.777l48.776,-0.56l48.776,1.278l48.776,4.709l48.776,3.795l48.776,1.605l48.775,-0.37l48.776,7.169l48.776,9.792l48.776,7.085l48.776,1.007l48.776,-0.791l48.776,-0.146l48.775,9.946" style="fill:none;fill-rule:nonzero;stroke:#ddb3ff;stroke-opacity:0.18;stroke-width:4.17px;"/><path d="M1652.64,653.087l0,15.855l48.776,139.521l48.776,59.789l48.776,24.675l48.775,11.655l48.776,6.691l48.776,1.258l48.776,-0.395l48.776,-6.381l48.776,-0.292l48.776,1.357l48.775,6.338l48.776,4.084l48.776,1.929l48.776,-4.918l48.776,3.553l48.776,1.27l48.776,3.612l48.775,-3.12l0,-23.227l-48.775,4.031l-48.776,-3.021l-48.776,-0.553l-48.776,-3.294l-48.776,5.345l-48.776,-0.998l-48.776,-3.379l-48.775,-5.82l-48.776,-1.113l-48.776,0.884l-48.776,7.021l-48.776,0.893l-48.776,-1.156l-48.776,-6.071l-48.775,-11.827l-48.776,-24.448l-48.776,-59.945l-48.776,-139.803Z" style="fill:#ddb3ff;fill-opacity:0.12;fill-rule:nonzero;"/><path d="M1652.64,661.129l48.776,139.5l48.776,59.791l48.776,24.751l48.775,11.751l48.776,6.305l48.776,1.39l48.776,-0.916l48.776,-6.646l48.776,-0.486l48.776,1.241l48.775,6.127l48.776,3.653l48.776,1.237l48.776,-5.009l48.776,3.587l48.776,0.689l48.776,3.552l48.775,-3.477" style="fill:none;fill-rule:nonzero;stroke:#ddb3ff;stroke-opacity:0.18;stroke-width:4.17px;"/><path d="M1652.64,652.247l0,16.084l48.776,131.125l48.776,40.031l48.776,19.186l48.775,9.37l48.776,4.097l48.776,8.21l48.776,-4.075l48.776,6.194l48.776,3.751l48.776,7.671l48.775,-0.069l48.776,2.988l48.776,4.48l48.776,4.566l48.776,5.845l48.776,6.703l48.776,3.046l48.775,1.593l0,-24.04l-48.775,-0.446l-48.776,-2.343l-48.776,-6l-48.776,-5.069l-48.776,-4.218l-48.776,-3.911l-48.776,-2.436l-48.775,0.906l-48.776,-7.119l-48.776,-3.273l-48.776,-5.831l-48.776,4.886l-48.776,-7.95l-48.776,-3.931l-48.775,-9.113l-48.776,-18.69l-48.776,-40.687l-48.776,-131.531Z" style="fill:#ddb3ff;fill-opacity:0.12;fill-rule:nonzero;"/><path d="M1652.64,660.111l48.776,131.407l48.776,40.571l48.776,18.8l48.775,9.25l48.776,4.031l48.776,8.089l48.776,-4.633l48.776,6.206l48.776,3.856l48.776,7.115l48.775,-0.623l48.776,2.863l48.776,4.089l48.776,4.343l48.776,5.669l48.776,6.194l48.776,2.696l48.775,0.859" style="fill:none;fill-rule:nonzero;stroke:#ddb3ff;stroke-opacity:0.18;stroke-width:4.17px;"/><path d="M1652.64,643.721l0,16.028l48.776,120.324l48.776,33.355l48.776,18.62l48.775,11.207l48.776,2.58l48.776,-2.342l48.776,4.722l48.776,1.81l48.776,6.407l48.776,2.506l48.775,0.806l48.776,1.412l48.776,11.681l48.776,9.859l48.776,4.124l48.776,-3.439l48.776,7.555l48.775,-0.149l0,-22.103l-48.775,0.594l-48.776,-7.252l-48.776,4.411l-48.776,-3.673l-48.776,-9.563l-48.776,-10.903l-48.776,-0.948l-48.775,-0.186l-48.776,-2.266l-48.776,-6.018l-48.776,-1.393l-48.776,-4.379l-48.776,2.777l-48.776,-2.408l-48.775,-10.676l-48.776,-18.609l-48.776,-33.752l-48.776,-120.719Z" style="fill:#ddb3ff;fill-opacity:0.12;fill-rule:nonzero;"/><path d="M1652.64,651.814l48.776,120.49l48.776,33.608l48.776,18.585l48.775,11.03l48.776,2.407l48.776,-2.576l48.776,4.372l48.776,1.8l48.776,6.286l48.776,2.358l48.775,0.503l48.776,0.953l48.776,11.347l48.776,9.775l48.776,3.853l48.776,-4l48.776,7.319l48.775,-0.327" style="fill:none;fill-rule:nonzero;stroke:#ddb3ff;stroke-opacity:0.18;stroke-width:4.17px;"/><path d="M1652.64,657.463l48.776,132.653l48.776,45.245l48.776,22.609l48.775,10.063l48.776,2.71l48.776,1.3l48.776,0.694l48.776,2.441l48.776,2.651l48.776,3.093l48.775,2.99l48.776,5.015l48.776,4.113l48.776,5.171l48.776,4.661l48.776,3.477l48.776,3.859l48.775,2.698" style="fill:none;fill-rule:nonzero;stroke:#8d58d7;stroke-opacity:0.78;stroke-width:12.5px;"/><text x="2413.84px" y="537.822px" style="font-family:'HelveticaNeue-Bold', 'Helvetica Neue';font-weight:700;font-size:66.667px;fill:#a06fe0;">model</text><rect x="4.167" y="4.167" width="2700" height="1200" style="fill:none;stroke:#fff;stroke-width:4.17px;stroke-miterlimit:2;"/></g></svg>