<?xml version="1.0" encoding="utf-8"?>
<svg xmlns="http://www.w3.org/2000/svg" xmlns:xlink="http://www.w3.org/1999/xlink" width="450" height="150" viewBox="0 0 1800 600">
<defs>
  <clipPath id="clip850">
    <rect x="0" y="0" width="1800" height="600"/>
  </clipPath>
</defs>
<path clip-path="url(#clip850)" d="M0 600 L1800 600 L1800 3.33067e-14 L0 3.33067e-14  Z" fill="#ffffff" fill-rule="evenodd" fill-opacity="1"/>
<defs>
  <clipPath id="clip851">
    <rect x="360" y="0" width="1261" height="600"/>
  </clipPath>
</defs>
<path clip-path="url(#clip850)" d="M70.8661 529.134 L529.134 529.134 L529.134 70.8661 L70.8661 70.8661  Z" fill="#ffffff" fill-rule="evenodd" fill-opacity="1"/>
<defs>
  <clipPath id="clip852">
    <rect x="70" y="70" width="459" height="459"/>
  </clipPath>
</defs>
<polyline clip-path="url(#clip850)" style="stroke:#000000; stroke-linecap:round; stroke-linejoin:round; stroke-width:6; stroke-opacity:1; fill:none" points="70.8661,529.134 529.134,529.134 "/>
<polyline clip-path="url(#clip850)" style="stroke:#000000; stroke-linecap:round; stroke-linejoin:round; stroke-width:6; stroke-opacity:1; fill:none" points="300,529.134 300,70.8661 "/>
<path clip-path="url(#clip852)" d="M96.0717 529.134 L96.0717 529.134 L118.118 529.134 L118.118 529.134 L96.0717 529.134 L96.0717 529.134  Z" fill="#83d89e" fill-rule="evenodd" fill-opacity="1"/>
<polyline clip-path="url(#clip852)" style="stroke:#000000; stroke-linecap:round; stroke-linejoin:round; stroke-width:6; stroke-opacity:1; fill:none" points="96.0717,529.134 96.0717,529.134 118.118,529.134 118.118,529.134 96.0717,529.134 "/>
<path clip-path="url(#clip852)" d="M123.63 529.134 L123.63 529.134 L145.676 529.134 L145.676 529.134 L123.63 529.134 L123.63 529.134  Z" fill="#83d89e" fill-rule="evenodd" fill-opacity="1"/>
<polyline clip-path="url(#clip852)" style="stroke:#000000; stroke-linecap:round; stroke-linejoin:round; stroke-width:6; stroke-opacity:1; fill:none" points="123.63,529.134 123.63,529.134 145.676,529.134 145.676,529.134 123.63,529.134 "/>
<path clip-path="url(#clip852)" d="M151.187 529.132 L151.187 529.134 L173.234 529.134 L173.234 529.132 L151.187 529.132 L151.187 529.132  Z" fill="#83d89e" fill-rule="evenodd" fill-opacity="1"/>
<polyline clip-path="url(#clip852)" style="stroke:#000000; stroke-linecap:round; stroke-linejoin:round; stroke-width:6; stroke-opacity:1; fill:none" points="151.187,529.132 151.187,529.134 173.234,529.134 173.234,529.132 151.187,529.132 "/>
<path clip-path="url(#clip852)" d="M178.745 529.119 L178.745 529.134 L200.792 529.134 L200.792 529.119 L178.745 529.119 L178.745 529.119  Z" fill="#83d89e" fill-rule="evenodd" fill-opacity="1"/>
<polyline clip-path="url(#clip852)" style="stroke:#000000; stroke-linecap:round; stroke-linejoin:round; stroke-width:6; stroke-opacity:1; fill:none" points="178.745,529.119 178.745,529.134 200.792,529.134 200.792,529.119 178.745,529.119 "/>
<path clip-path="url(#clip852)" d="M206.303 529.025 L206.303 529.134 L228.35 529.134 L228.35 529.025 L206.303 529.025 L206.303 529.025  Z" fill="#83d89e" fill-rule="evenodd" fill-opacity="1"/>
<polyline clip-path="url(#clip852)" style="stroke:#000000; stroke-linecap:round; stroke-linejoin:round; stroke-width:6; stroke-opacity:1; fill:none" points="206.303,529.025 206.303,529.134 228.35,529.134 228.35,529.025 206.303,529.025 "/>
<path clip-path="url(#clip852)" d="M233.861 528.33 L233.861 529.134 L255.907 529.134 L255.907 528.33 L233.861 528.33 L233.861 528.33  Z" fill="#83d89e" fill-rule="evenodd" fill-opacity="1"/>
<polyline clip-path="url(#clip852)" style="stroke:#000000; stroke-linecap:round; stroke-linejoin:round; stroke-width:6; stroke-opacity:1; fill:none" points="233.861,528.33 233.861,529.134 255.907,529.134 255.907,528.33 233.861,528.33 "/>
<path clip-path="url(#clip852)" d="M261.419 523.79 L261.419 529.134 L283.465 529.134 L283.465 523.79 L261.419 523.79 L261.419 523.79  Z" fill="#83d89e" fill-rule="evenodd" fill-opacity="1"/>
<polyline clip-path="url(#clip852)" style="stroke:#000000; stroke-linecap:round; stroke-linejoin:round; stroke-width:6; stroke-opacity:1; fill:none" points="261.419,523.79 261.419,529.134 283.465,529.134 283.465,523.79 261.419,523.79 "/>
<path clip-path="url(#clip852)" d="M288.977 506.646 L288.977 529.134 L311.023 529.134 L311.023 506.646 L288.977 506.646 L288.977 506.646  Z" fill="#83d89e" fill-rule="evenodd" fill-opacity="1"/>
<polyline clip-path="url(#clip852)" style="stroke:#000000; stroke-linecap:round; stroke-linejoin:round; stroke-width:6; stroke-opacity:1; fill:none" points="288.977,506.646 288.977,529.134 311.023,529.134 311.023,506.646 288.977,506.646 "/>
<path clip-path="url(#clip852)" d="M316.535 457.997 L316.535 529.134 L338.581 529.134 L338.581 457.997 L316.535 457.997 L316.535 457.997  Z" fill="#83d89e" fill-rule="evenodd" fill-opacity="1"/>
<polyline clip-path="url(#clip852)" style="stroke:#000000; stroke-linecap:round; stroke-linejoin:round; stroke-width:6; stroke-opacity:1; fill:none" points="316.535,457.997 316.535,529.134 338.581,529.134 338.581,457.997 316.535,457.997 "/>
<path clip-path="url(#clip852)" d="M344.093 489.372 L344.093 529.134 L366.139 529.134 L366.139 489.372 L344.093 489.372 L344.093 489.372  Z" fill="#83d89e" fill-rule="evenodd" fill-opacity="1"/>
<polyline clip-path="url(#clip852)" style="stroke:#000000; stroke-linecap:round; stroke-linejoin:round; stroke-width:6; stroke-opacity:1; fill:none" points="344.093,489.372 344.093,529.134 366.139,529.134 366.139,489.372 344.093,489.372 "/>
<path clip-path="url(#clip852)" d="M371.65 489.299 L371.65 529.134 L393.697 529.134 L393.697 489.299 L371.65 489.299 L371.65 489.299  Z" fill="#83d89e" fill-rule="evenodd" fill-opacity="1"/>
<polyline clip-path="url(#clip852)" style="stroke:#000000; stroke-linecap:round; stroke-linejoin:round; stroke-width:6; stroke-opacity:1; fill:none" points="371.65,489.299 371.65,529.134 393.697,529.134 393.697,489.299 371.65,489.299 "/>
<path clip-path="url(#clip852)" d="M399.208 478.51 L399.208 529.134 L421.255 529.134 L421.255 478.51 L399.208 478.51 L399.208 478.51  Z" fill="#83d89e" fill-rule="evenodd" fill-opacity="1"/>
<polyline clip-path="url(#clip852)" style="stroke:#000000; stroke-linecap:round; stroke-linejoin:round; stroke-width:6; stroke-opacity:1; fill:none" points="399.208,478.51 399.208,529.134 421.255,529.134 421.255,478.51 399.208,478.51 "/>
<path clip-path="url(#clip852)" d="M426.766 450.775 L426.766 529.134 L448.813 529.134 L448.813 450.775 L426.766 450.775 L426.766 450.775  Z" fill="#83d89e" fill-rule="evenodd" fill-opacity="1"/>
<polyline clip-path="url(#clip852)" style="stroke:#000000; stroke-linecap:round; stroke-linejoin:round; stroke-width:6; stroke-opacity:1; fill:none" points="426.766,450.775 426.766,529.134 448.813,529.134 448.813,450.775 426.766,450.775 "/>
<path clip-path="url(#clip852)" d="M454.324 409.488 L454.324 529.134 L476.37 529.134 L476.37 409.488 L454.324 409.488 L454.324 409.488  Z" fill="#83d89e" fill-rule="evenodd" fill-opacity="1"/>
<polyline clip-path="url(#clip852)" style="stroke:#000000; stroke-linecap:round; stroke-linejoin:round; stroke-width:6; stroke-opacity:1; fill:none" points="454.324,409.488 454.324,529.134 476.37,529.134 476.37,409.488 454.324,409.488 "/>
<path clip-path="url(#clip852)" d="M481.882 302.589 L481.882 529.134 L503.928 529.134 L503.928 302.589 L481.882 302.589 L481.882 302.589  Z" fill="#83d89e" fill-rule="evenodd" fill-opacity="1"/>
<polyline clip-path="url(#clip852)" style="stroke:#000000; stroke-linecap:round; stroke-linejoin:round; stroke-width:6; stroke-opacity:1; fill:none" points="481.882,302.589 481.882,529.134 503.928,529.134 503.928,302.589 481.882,302.589 "/>
<circle clip-path="url(#clip852)" style="fill:#83d89e; stroke:none; fill-opacity:0" cx="107.095" cy="529.134" r="2"/>
<circle clip-path="url(#clip852)" style="fill:#83d89e; stroke:none; fill-opacity:0" cx="134.653" cy="529.134" r="2"/>
<circle clip-path="url(#clip852)" style="fill:#83d89e; stroke:none; fill-opacity:0" cx="162.211" cy="529.132" r="2"/>
<circle clip-path="url(#clip852)" style="fill:#83d89e; stroke:none; fill-opacity:0" cx="189.768" cy="529.119" r="2"/>
<circle clip-path="url(#clip852)" style="fill:#83d89e; stroke:none; fill-opacity:0" cx="217.326" cy="529.025" r="2"/>
<circle clip-path="url(#clip852)" style="fill:#83d89e; stroke:none; fill-opacity:0" cx="244.884" cy="528.33" r="2"/>
<circle clip-path="url(#clip852)" style="fill:#83d89e; stroke:none; fill-opacity:0" cx="272.442" cy="523.79" r="2"/>
<circle clip-path="url(#clip852)" style="fill:#83d89e; stroke:none; fill-opacity:0" cx="300" cy="506.646" r="2"/>
<circle clip-path="url(#clip852)" style="fill:#83d89e; stroke:none; fill-opacity:0" cx="327.558" cy="457.997" r="2"/>
<circle clip-path="url(#clip852)" style="fill:#83d89e; stroke:none; fill-opacity:0" cx="355.116" cy="489.372" r="2"/>
<circle clip-path="url(#clip852)" style="fill:#83d89e; stroke:none; fill-opacity:0" cx="382.674" cy="489.299" r="2"/>
<circle clip-path="url(#clip852)" style="fill:#83d89e; stroke:none; fill-opacity:0" cx="410.232" cy="478.51" r="2"/>
<circle clip-path="url(#clip852)" style="fill:#83d89e; stroke:none; fill-opacity:0" cx="437.789" cy="450.775" r="2"/>
<circle clip-path="url(#clip852)" style="fill:#83d89e; stroke:none; fill-opacity:0" cx="465.347" cy="409.488" r="2"/>
<circle clip-path="url(#clip852)" style="fill:#83d89e; stroke:none; fill-opacity:0" cx="492.905" cy="302.589" r="2"/>
<path clip-path="url(#clip850)" d="M100.247 99.3925 Q100.247 100.078 99.9568 101.395 Q99.0346 105.111 95.5827 107.666 Q95.003 108.141 93.9753 108.747 Q95.2138 109.564 96.2941 111.066 Q97.9015 113.543 97.9015 116.889 Q97.9015 118.444 97.4799 120.341 Q96.2941 124.741 92.1308 127.903 Q87.9411 130.986 82.9609 130.986 Q80.2732 130.986 78.4287 129.564 Q76.6105 128.114 75.899 125.69 L72.2364 140.473 Q72.1573 140.841 71.683 140.841 L71.4195 140.841 Q70.8661 140.841 70.8661 140.209 L79.1928 107.008 Q79.7462 104.768 80.6421 102.66 Q81.538 100.552 82.7765 98.6547 Q84.0413 96.7575 85.4905 95.3609 Q86.9398 93.938 88.7316 93.1212 Q90.5234 92.278 92.4206 92.278 Q96.3995 92.278 98.6657 94.992 Q100.247 96.9156 100.247 99.3925 M97.2164 98.4439 Q97.2164 96.8102 96.5576 95.6771 Q95.2138 93.5164 92.3679 93.5164 Q90.6552 93.5164 89.0215 94.3069 Q87.4141 95.0711 86.1229 96.3886 Q84.8318 97.7061 83.7251 99.4979 Q82.6184 101.29 81.8015 103.24 Q81.011 105.163 80.484 107.271 L77.2429 120.341 Q76.9267 121.738 76.9267 122.976 Q76.9267 125.927 78.5604 127.851 Q80.1941 129.774 83.0136 129.774 Q86.7553 129.774 89.9701 126.981 Q92.7632 124.478 93.9226 120.077 Q94.5814 117.311 94.5814 115.387 Q94.5814 113.279 93.8172 111.645 Q93.2639 110.328 92.1835 109.537 Q90.1809 110.249 88.1519 110.249 Q87.1769 110.249 86.6499 110.222 Q86.1493 110.196 85.4115 110.091 Q84.7 109.985 84.3575 109.695 Q84.0413 109.406 84.0413 108.958 Q84.0413 108.694 84.094 108.589 Q84.1994 108.167 84.5419 107.877 Q84.8845 107.587 85.2797 107.456 Q85.675 107.298 86.3337 107.219 Q87.0188 107.139 87.4668 107.139 Q87.9148 107.113 88.6789 107.113 Q90.4707 107.113 92.2889 107.825 Q92.974 107.456 93.7118 106.797 Q96.057 104.61 96.8475 101.132 Q97.2164 99.8405 97.2164 98.4439 M90.5761 108.641 Q89.4694 108.352 88.6262 108.352 Q85.5432 108.352 85.3851 108.852 Q85.3851 108.905 85.4905 108.958 Q85.5959 108.984 85.8331 109.01 Q86.0966 109.01 86.3074 109.037 Q86.5445 109.063 86.9398 109.063 Q87.335 109.063 87.5459 109.063 Q87.783 109.063 88.2046 109.063 Q89.2586 109.063 90.5761 108.641 Z" fill="#83d89e" fill-rule="nonzero" fill-opacity="1" /><path clip-path="url(#clip850)" d="M116.085 122.185 Q116.138 121.527 117.166 121.527 L150.235 121.527 Q151.79 121.527 151.816 122.133 Q151.816 122.792 150.341 122.765 L117.534 122.765 Q116.085 122.792 116.085 122.185 M116.085 111.645 Q116.085 110.987 117.218 111.013 L150.182 111.013 Q151.79 111.013 151.816 111.645 Q151.816 112.251 150.446 112.251 L117.166 112.251 Q116.085 112.251 116.085 111.645 Z" fill="#83d89e" fill-rule="nonzero" fill-opacity="1" /><path clip-path="url(#clip850)" d="M172.631 99.577 L172.631 97.8906 Q179.113 97.8906 182.46 94.4387 Q183.382 94.4387 183.54 94.6495 Q183.698 94.8603 183.698 95.8352 L183.698 126.112 Q183.698 127.719 184.489 128.22 Q185.279 128.72 188.731 128.72 L190.444 128.72 L190.444 130.38 Q188.546 130.222 181.695 130.222 Q174.844 130.222 172.973 130.38 L172.973 128.72 L174.686 128.72 Q178.085 128.72 178.902 128.246 Q179.719 127.745 179.719 126.112 L179.719 98.1541 Q176.9 99.577 172.631 99.577 Z" fill="#83d89e" fill-rule="nonzero" fill-opacity="1" /><path clip-path="url(#clip850)" d="M194.735 129.511 Q193.918 128.641 193.918 127.508 Q193.918 126.375 194.735 125.558 Q195.552 124.715 196.79 124.715 Q197.976 124.715 198.766 125.506 Q199.583 126.27 199.583 127.535 Q199.583 128.773 198.714 129.59 Q197.871 130.38 196.79 130.38 Q195.552 130.38 194.735 129.511 Z" fill="#83d89e" fill-rule="nonzero" fill-opacity="1" /><path clip-path="url(#clip850)" d="M208.768 113.332 Q208.768 104.847 213.089 99.656 Q217.411 94.4387 222.971 94.4387 Q226.212 94.4387 228.004 96.0987 Q229.822 97.7325 229.822 100.262 Q229.822 101.659 229.005 102.265 Q228.188 102.871 227.345 102.871 Q226.37 102.871 225.606 102.212 Q224.842 101.553 224.842 100.367 Q224.842 97.9433 227.819 97.9433 Q226.423 95.7825 223.076 95.7825 Q222.048 95.7825 220.994 96.0987 Q219.94 96.3886 218.57 97.3899 Q217.2 98.3912 216.146 99.9722 Q215.092 101.553 214.354 104.531 Q213.616 107.508 213.616 111.382 L213.616 112.673 Q215.83 107.324 220.362 107.35 Q224.894 107.35 228.03 110.802 Q231.166 114.254 231.166 119.366 Q231.166 124.61 227.898 128.088 Q224.631 131.566 220.046 131.566 Q217.991 131.566 216.12 130.697 Q214.275 129.853 212.536 127.903 Q210.823 125.954 209.796 122.212 Q208.768 118.47 208.768 113.332 M213.722 118.18 Q213.722 123.477 214.697 126.006 Q214.855 126.428 215.197 127.008 Q215.566 127.587 216.172 128.351 Q216.805 129.089 217.832 129.59 Q218.86 130.064 220.046 130.064 Q223.656 130.064 225.395 126.56 Q226.317 124.61 226.317 119.313 Q226.317 113.912 225.342 111.935 Q223.682 108.589 220.309 108.589 Q218.043 108.589 216.462 110.143 Q214.908 111.698 214.301 113.78 Q213.722 115.861 213.722 118.18 Z" fill="#83d89e" fill-rule="nonzero" fill-opacity="1" /><path clip-path="url(#clip850)" d="M670.866 529.134 L1129.13 529.134 L1129.13 70.8661 L670.866 70.8661  Z" fill="#ffffff" fill-rule="evenodd" fill-opacity="1"/>
<defs>
  <clipPath id="clip853">
    <rect x="670" y="70" width="459" height="459"/>
  </clipPath>
</defs>
<polyline clip-path="url(#clip850)" style="stroke:#000000; stroke-linecap:round; stroke-linejoin:round; stroke-width:6; stroke-opacity:1; fill:none" points="670.866,529.134 1129.13,529.134 "/>
<polyline clip-path="url(#clip850)" style="stroke:#000000; stroke-linecap:round; stroke-linejoin:round; stroke-width:6; stroke-opacity:1; fill:none" points="900,529.134 900,70.8661 "/>
<path clip-path="url(#clip853)" d="M696.072 527.626 L696.072 529.134 L718.118 529.134 L718.118 527.626 L696.072 527.626 L696.072 527.626  Z" fill="#5fa3b4" fill-rule="evenodd" fill-opacity="0.3"/>
<polyline clip-path="url(#clip853)" style="stroke:#000000; stroke-linecap:round; stroke-linejoin:round; stroke-width:6; stroke-opacity:0.3; fill:none" points="696.072,527.626 696.072,529.134 718.118,529.134 718.118,527.626 696.072,527.626 "/>
<path clip-path="url(#clip853)" d="M723.63 526.529 L723.63 529.134 L745.676 529.134 L745.676 526.529 L723.63 526.529 L723.63 526.529  Z" fill="#5fa3b4" fill-rule="evenodd" fill-opacity="0.3"/>
<polyline clip-path="url(#clip853)" style="stroke:#000000; stroke-linecap:round; stroke-linejoin:round; stroke-width:6; stroke-opacity:0.3; fill:none" points="723.63,526.529 723.63,529.134 745.676,529.134 745.676,526.529 723.63,526.529 "/>
<path clip-path="url(#clip853)" d="M751.187 524.45 L751.187 529.134 L773.234 529.134 L773.234 524.45 L751.187 524.45 L751.187 524.45  Z" fill="#5fa3b4" fill-rule="evenodd" fill-opacity="0.3"/>
<polyline clip-path="url(#clip853)" style="stroke:#000000; stroke-linecap:round; stroke-linejoin:round; stroke-width:6; stroke-opacity:0.3; fill:none" points="751.187,524.45 751.187,529.134 773.234,529.134 773.234,524.45 751.187,524.45 "/>
<path clip-path="url(#clip853)" d="M778.745 520.203 L778.745 529.134 L800.792 529.134 L800.792 520.203 L778.745 520.203 L778.745 520.203  Z" fill="#5fa3b4" fill-rule="evenodd" fill-opacity="0.3"/>
<polyline clip-path="url(#clip853)" style="stroke:#000000; stroke-linecap:round; stroke-linejoin:round; stroke-width:6; stroke-opacity:0.3; fill:none" points="778.745,520.203 778.745,529.134 800.792,529.134 800.792,520.203 778.745,520.203 "/>
<path clip-path="url(#clip853)" d="M806.303 510.891 L806.303 529.134 L828.35 529.134 L828.35 510.891 L806.303 510.891 L806.303 510.891  Z" fill="#5fa3b4" fill-rule="evenodd" fill-opacity="0.3"/>
<polyline clip-path="url(#clip853)" style="stroke:#000000; stroke-linecap:round; stroke-linejoin:round; stroke-width:6; stroke-opacity:0.3; fill:none" points="806.303,510.891 806.303,529.134 828.35,529.134 828.35,510.891 806.303,510.891 "/>
<path clip-path="url(#clip853)" d="M833.861 487.577 L833.861 529.134 L855.907 529.134 L855.907 487.577 L833.861 487.577 L833.861 487.577  Z" fill="#5fa3b4" fill-rule="evenodd" fill-opacity="0.3"/>
<polyline clip-path="url(#clip853)" style="stroke:#000000; stroke-linecap:round; stroke-linejoin:round; stroke-width:6; stroke-opacity:0.3; fill:none" points="833.861,487.577 833.861,529.134 855.907,529.134 855.907,487.577 833.861,487.577 "/>
<path clip-path="url(#clip853)" d="M861.419 415.296 L861.419 529.134 L883.465 529.134 L883.465 415.296 L861.419 415.296 L861.419 415.296  Z" fill="#5fa3b4" fill-rule="evenodd" fill-opacity="0.3"/>
<polyline clip-path="url(#clip853)" style="stroke:#000000; stroke-linecap:round; stroke-linejoin:round; stroke-width:6; stroke-opacity:0.3; fill:none" points="861.419,415.296 861.419,529.134 883.465,529.134 883.465,415.296 861.419,415.296 "/>
<path clip-path="url(#clip853)" d="M888.977 134.463 L888.977 529.134 L911.023 529.134 L911.023 134.463 L888.977 134.463 L888.977 134.463  Z" fill="#5fa3b4" fill-rule="evenodd" fill-opacity="0.3"/>
<polyline clip-path="url(#clip853)" style="stroke:#000000; stroke-linecap:round; stroke-linejoin:round; stroke-width:6; stroke-opacity:0.3; fill:none" points="888.977,134.463 888.977,529.134 911.023,529.134 911.023,134.463 888.977,134.463 "/>
<path clip-path="url(#clip853)" d="M916.535 464.846 L916.535 529.134 L938.581 529.134 L938.581 464.846 L916.535 464.846 L916.535 464.846  Z" fill="#5fa3b4" fill-rule="evenodd" fill-opacity="0.3"/>
<polyline clip-path="url(#clip853)" style="stroke:#000000; stroke-linecap:round; stroke-linejoin:round; stroke-width:6; stroke-opacity:0.3; fill:none" points="916.535,464.846 916.535,529.134 938.581,529.134 938.581,464.846 916.535,464.846 "/>
<path clip-path="url(#clip853)" d="M944.093 525.433 L944.093 529.134 L966.139 529.134 L966.139 525.433 L944.093 525.433 L944.093 525.433  Z" fill="#5fa3b4" fill-rule="evenodd" fill-opacity="0.3"/>
<polyline clip-path="url(#clip853)" style="stroke:#000000; stroke-linecap:round; stroke-linejoin:round; stroke-width:6; stroke-opacity:0.3; fill:none" points="944.093,525.433 944.093,529.134 966.139,529.134 966.139,525.433 944.093,525.433 "/>
<path clip-path="url(#clip853)" d="M971.65 528.625 L971.65 529.134 L993.697 529.134 L993.697 528.625 L971.65 528.625 L971.65 528.625  Z" fill="#5fa3b4" fill-rule="evenodd" fill-opacity="0.3"/>
<polyline clip-path="url(#clip853)" style="stroke:#000000; stroke-linecap:round; stroke-linejoin:round; stroke-width:6; stroke-opacity:0.3; fill:none" points="971.65,528.625 971.65,529.134 993.697,529.134 993.697,528.625 971.65,528.625 "/>
<path clip-path="url(#clip853)" d="M999.208 529.034 L999.208 529.134 L1021.25 529.134 L1021.25 529.034 L999.208 529.034 L999.208 529.034  Z" fill="#5fa3b4" fill-rule="evenodd" fill-opacity="0.3"/>
<polyline clip-path="url(#clip853)" style="stroke:#000000; stroke-linecap:round; stroke-linejoin:round; stroke-width:6; stroke-opacity:0.3; fill:none" points="999.208,529.034 999.208,529.134 1021.25,529.134 1021.25,529.034 999.208,529.034 "/>
<path clip-path="url(#clip853)" d="M1026.77 529.108 L1026.77 529.134 L1048.81 529.134 L1048.81 529.108 L1026.77 529.108 L1026.77 529.108  Z" fill="#5fa3b4" fill-rule="evenodd" fill-opacity="0.3"/>
<polyline clip-path="url(#clip853)" style="stroke:#000000; stroke-linecap:round; stroke-linejoin:round; stroke-width:6; stroke-opacity:0.3; fill:none" points="1026.77,529.108 1026.77,529.134 1048.81,529.134 1048.81,529.108 1026.77,529.108 "/>
<path clip-path="url(#clip853)" d="M1054.32 529.127 L1054.32 529.134 L1076.37 529.134 L1076.37 529.127 L1054.32 529.127 L1054.32 529.127  Z" fill="#5fa3b4" fill-rule="evenodd" fill-opacity="0.3"/>
<polyline clip-path="url(#clip853)" style="stroke:#000000; stroke-linecap:round; stroke-linejoin:round; stroke-width:6; stroke-opacity:0.3; fill:none" points="1054.32,529.127 1054.32,529.134 1076.37,529.134 1076.37,529.127 1054.32,529.127 "/>
<path clip-path="url(#clip853)" d="M1081.88 529.132 L1081.88 529.134 L1103.93 529.134 L1103.93 529.132 L1081.88 529.132 L1081.88 529.132  Z" fill="#5fa3b4" fill-rule="evenodd" fill-opacity="0.3"/>
<polyline clip-path="url(#clip853)" style="stroke:#000000; stroke-linecap:round; stroke-linejoin:round; stroke-width:6; stroke-opacity:0.3; fill:none" points="1081.88,529.132 1081.88,529.134 1103.93,529.134 1103.93,529.132 1081.88,529.132 "/>
<circle clip-path="url(#clip853)" style="fill:#5fa3b4; stroke:none; fill-opacity:0" cx="707.095" cy="527.626" r="2"/>
<circle clip-path="url(#clip853)" style="fill:#5fa3b4; stroke:none; fill-opacity:0" cx="734.653" cy="526.529" r="2"/>
<circle clip-path="url(#clip853)" style="fill:#5fa3b4; stroke:none; fill-opacity:0" cx="762.211" cy="524.45" r="2"/>
<circle clip-path="url(#clip853)" style="fill:#5fa3b4; stroke:none; fill-opacity:0" cx="789.768" cy="520.203" r="2"/>
<circle clip-path="url(#clip853)" style="fill:#5fa3b4; stroke:none; fill-opacity:0" cx="817.326" cy="510.891" r="2"/>
<circle clip-path="url(#clip853)" style="fill:#5fa3b4; stroke:none; fill-opacity:0" cx="844.884" cy="487.577" r="2"/>
<circle clip-path="url(#clip853)" style="fill:#5fa3b4; stroke:none; fill-opacity:0" cx="872.442" cy="415.296" r="2"/>
<circle clip-path="url(#clip853)" style="fill:#5fa3b4; stroke:none; fill-opacity:0" cx="900" cy="134.463" r="2"/>
<circle clip-path="url(#clip853)" style="fill:#5fa3b4; stroke:none; fill-opacity:0" cx="927.558" cy="464.846" r="2"/>
<circle clip-path="url(#clip853)" style="fill:#5fa3b4; stroke:none; fill-opacity:0" cx="955.116" cy="525.433" r="2"/>
<circle clip-path="url(#clip853)" style="fill:#5fa3b4; stroke:none; fill-opacity:0" cx="982.674" cy="528.625" r="2"/>
<circle clip-path="url(#clip853)" style="fill:#5fa3b4; stroke:none; fill-opacity:0" cx="1010.23" cy="529.034" r="2"/>
<circle clip-path="url(#clip853)" style="fill:#5fa3b4; stroke:none; fill-opacity:0" cx="1037.79" cy="529.108" r="2"/>
<circle clip-path="url(#clip853)" style="fill:#5fa3b4; stroke:none; fill-opacity:0" cx="1065.35" cy="529.127" r="2"/>
<circle clip-path="url(#clip853)" style="fill:#5fa3b4; stroke:none; fill-opacity:0" cx="1092.91" cy="529.132" r="2"/>
<path clip-path="url(#clip853)" d="M696.072 528.337 L696.072 529.134 L718.118 529.134 L718.118 528.337 L696.072 528.337 L696.072 528.337  Z" fill="#4ab467" fill-rule="evenodd" fill-opacity="1"/>
<polyline clip-path="url(#clip853)" style="stroke:#000000; stroke-linecap:round; stroke-linejoin:round; stroke-width:6; stroke-opacity:1; fill:none" points="696.072,528.337 696.072,529.134 718.118,529.134 718.118,528.337 696.072,528.337 "/>
<path clip-path="url(#clip853)" d="M723.63 527.796 L723.63 529.134 L745.676 529.134 L745.676 527.796 L723.63 527.796 L723.63 527.796  Z" fill="#4ab467" fill-rule="evenodd" fill-opacity="1"/>
<polyline clip-path="url(#clip853)" style="stroke:#000000; stroke-linecap:round; stroke-linejoin:round; stroke-width:6; stroke-opacity:1; fill:none" points="723.63,527.796 723.63,529.134 745.676,529.134 745.676,527.796 723.63,527.796 "/>
<path clip-path="url(#clip853)" d="M751.187 526.77 L751.187 529.134 L773.234 529.134 L773.234 526.77 L751.187 526.77 L751.187 526.77  Z" fill="#4ab467" fill-rule="evenodd" fill-opacity="1"/>
<polyline clip-path="url(#clip853)" style="stroke:#000000; stroke-linecap:round; stroke-linejoin:round; stroke-width:6; stroke-opacity:1; fill:none" points="751.187,526.77 751.187,529.134 773.234,529.134 773.234,526.77 751.187,526.77 "/>
<path clip-path="url(#clip853)" d="M778.745 524.79 L778.745 529.134 L800.792 529.134 L800.792 524.79 L778.745 524.79 L778.745 524.79  Z" fill="#4ab467" fill-rule="evenodd" fill-opacity="1"/>
<polyline clip-path="url(#clip853)" style="stroke:#000000; stroke-linecap:round; stroke-linejoin:round; stroke-width:6; stroke-opacity:1; fill:none" points="778.745,524.79 778.745,529.134 800.792,529.134 800.792,524.79 778.745,524.79 "/>
<path clip-path="url(#clip853)" d="M806.303 520.604 L806.303 529.134 L828.35 529.134 L828.35 520.604 L806.303 520.604 L806.303 520.604  Z" fill="#4ab467" fill-rule="evenodd" fill-opacity="1"/>
<polyline clip-path="url(#clip853)" style="stroke:#000000; stroke-linecap:round; stroke-linejoin:round; stroke-width:6; stroke-opacity:1; fill:none" points="806.303,520.604 806.303,529.134 828.35,529.134 828.35,520.604 806.303,520.604 "/>
<path clip-path="url(#clip853)" d="M833.861 510.776 L833.861 529.134 L855.907 529.134 L855.907 510.776 L833.861 510.776 L833.861 510.776  Z" fill="#4ab467" fill-rule="evenodd" fill-opacity="1"/>
<polyline clip-path="url(#clip853)" style="stroke:#000000; stroke-linecap:round; stroke-linejoin:round; stroke-width:6; stroke-opacity:1; fill:none" points="833.861,510.776 833.861,529.134 855.907,529.134 855.907,510.776 833.861,510.776 "/>
<path clip-path="url(#clip853)" d="M861.419 477.65 L861.419 529.134 L883.465 529.134 L883.465 477.65 L861.419 477.65 L861.419 477.65  Z" fill="#4ab467" fill-rule="evenodd" fill-opacity="1"/>
<polyline clip-path="url(#clip853)" style="stroke:#000000; stroke-linecap:round; stroke-linejoin:round; stroke-width:6; stroke-opacity:1; fill:none" points="861.419,477.65 861.419,529.134 883.465,529.134 883.465,477.65 861.419,477.65 "/>
<path clip-path="url(#clip853)" d="M888.977 204.001 L888.977 529.134 L911.023 529.134 L911.023 204.001 L888.977 204.001 L888.977 204.001  Z" fill="#4ab467" fill-rule="evenodd" fill-opacity="1"/>
<polyline clip-path="url(#clip853)" style="stroke:#000000; stroke-linecap:round; stroke-linejoin:round; stroke-width:6; stroke-opacity:1; fill:none" points="888.977,204.001 888.977,529.134 911.023,529.134 911.023,204.001 888.977,204.001 "/>
<path clip-path="url(#clip853)" d="M916.535 346.666 L916.535 529.134 L938.581 529.134 L938.581 346.666 L916.535 346.666 L916.535 346.666  Z" fill="#4ab467" fill-rule="evenodd" fill-opacity="1"/>
<polyline clip-path="url(#clip853)" style="stroke:#000000; stroke-linecap:round; stroke-linejoin:round; stroke-width:6; stroke-opacity:1; fill:none" points="916.535,346.666 916.535,529.134 938.581,529.134 938.581,346.666 916.535,346.666 "/>
<path clip-path="url(#clip853)" d="M944.093 489.829 L944.093 529.134 L966.139 529.134 L966.139 489.829 L944.093 489.829 L944.093 489.829  Z" fill="#4ab467" fill-rule="evenodd" fill-opacity="1"/>
<polyline clip-path="url(#clip853)" style="stroke:#000000; stroke-linecap:round; stroke-linejoin:round; stroke-width:6; stroke-opacity:1; fill:none" points="944.093,489.829 944.093,529.134 966.139,529.134 966.139,489.829 944.093,489.829 "/>
<path clip-path="url(#clip853)" d="M971.65 515.154 L971.65 529.134 L993.697 529.134 L993.697 515.154 L971.65 515.154 L971.65 515.154  Z" fill="#4ab467" fill-rule="evenodd" fill-opacity="1"/>
<polyline clip-path="url(#clip853)" style="stroke:#000000; stroke-linecap:round; stroke-linejoin:round; stroke-width:6; stroke-opacity:1; fill:none" points="971.65,515.154 971.65,529.134 993.697,529.134 993.697,515.154 971.65,515.154 "/>
<path clip-path="url(#clip853)" d="M999.208 524.464 L999.208 529.134 L1021.25 529.134 L1021.25 524.464 L999.208 524.464 L999.208 524.464  Z" fill="#4ab467" fill-rule="evenodd" fill-opacity="1"/>
<polyline clip-path="url(#clip853)" style="stroke:#000000; stroke-linecap:round; stroke-linejoin:round; stroke-width:6; stroke-opacity:1; fill:none" points="999.208,524.464 999.208,529.134 1021.25,529.134 1021.25,524.464 999.208,524.464 "/>
<path clip-path="url(#clip853)" d="M1026.77 527.764 L1026.77 529.134 L1048.81 529.134 L1048.81 527.764 L1026.77 527.764 L1026.77 527.764  Z" fill="#4ab467" fill-rule="evenodd" fill-opacity="1"/>
<polyline clip-path="url(#clip853)" style="stroke:#000000; stroke-linecap:round; stroke-linejoin:round; stroke-width:6; stroke-opacity:1; fill:none" points="1026.77,527.764 1026.77,529.134 1048.81,529.134 1048.81,527.764 1026.77,527.764 "/>
<path clip-path="url(#clip853)" d="M1054.32 528.734 L1054.32 529.134 L1076.37 529.134 L1076.37 528.734 L1054.32 528.734 L1054.32 528.734  Z" fill="#4ab467" fill-rule="evenodd" fill-opacity="1"/>
<polyline clip-path="url(#clip853)" style="stroke:#000000; stroke-linecap:round; stroke-linejoin:round; stroke-width:6; stroke-opacity:1; fill:none" points="1054.32,528.734 1054.32,529.134 1076.37,529.134 1076.37,528.734 1054.32,528.734 "/>
<path clip-path="url(#clip853)" d="M1081.88 529.004 L1081.88 529.134 L1103.93 529.134 L1103.93 529.004 L1081.88 529.004 L1081.88 529.004  Z" fill="#4ab467" fill-rule="evenodd" fill-opacity="1"/>
<polyline clip-path="url(#clip853)" style="stroke:#000000; stroke-linecap:round; stroke-linejoin:round; stroke-width:6; stroke-opacity:1; fill:none" points="1081.88,529.004 1081.88,529.134 1103.93,529.134 1103.93,529.004 1081.88,529.004 "/>
<circle clip-path="url(#clip853)" style="fill:#4ab467; stroke:none; fill-opacity:0" cx="707.095" cy="528.337" r="2"/>
<circle clip-path="url(#clip853)" style="fill:#4ab467; stroke:none; fill-opacity:0" cx="734.653" cy="527.796" r="2"/>
<circle clip-path="url(#clip853)" style="fill:#4ab467; stroke:none; fill-opacity:0" cx="762.211" cy="526.77" r="2"/>
<circle clip-path="url(#clip853)" style="fill:#4ab467; stroke:none; fill-opacity:0" cx="789.768" cy="524.79" r="2"/>
<circle clip-path="url(#clip853)" style="fill:#4ab467; stroke:none; fill-opacity:0" cx="817.326" cy="520.604" r="2"/>
<circle clip-path="url(#clip853)" style="fill:#4ab467; stroke:none; fill-opacity:0" cx="844.884" cy="510.776" r="2"/>
<circle clip-path="url(#clip853)" style="fill:#4ab467; stroke:none; fill-opacity:0" cx="872.442" cy="477.65" r="2"/>
<circle clip-path="url(#clip853)" style="fill:#4ab467; stroke:none; fill-opacity:0" cx="900" cy="204.001" r="2"/>
<circle clip-path="url(#clip853)" style="fill:#4ab467; stroke:none; fill-opacity:0" cx="927.558" cy="346.666" r="2"/>
<circle clip-path="url(#clip853)" style="fill:#4ab467; stroke:none; fill-opacity:0" cx="955.116" cy="489.829" r="2"/>
<circle clip-path="url(#clip853)" style="fill:#4ab467; stroke:none; fill-opacity:0" cx="982.674" cy="515.154" r="2"/>
<circle clip-path="url(#clip853)" style="fill:#4ab467; stroke:none; fill-opacity:0" cx="1010.23" cy="524.464" r="2"/>
<circle clip-path="url(#clip853)" style="fill:#4ab467; stroke:none; fill-opacity:0" cx="1037.79" cy="527.764" r="2"/>
<circle clip-path="url(#clip853)" style="fill:#4ab467; stroke:none; fill-opacity:0" cx="1065.35" cy="528.734" r="2"/>
<circle clip-path="url(#clip853)" style="fill:#4ab467; stroke:none; fill-opacity:0" cx="1092.91" cy="529.004" r="2"/>
<path clip-path="url(#clip850)" d="M701.143 113.507 Q701.09 113.77 700.984 114.245 Q700.879 114.693 700.405 116.116 Q699.93 117.539 699.298 118.988 Q698.692 120.411 697.506 122.413 Q696.347 124.39 694.924 126.181 Q694.529 126.656 694.45 126.946 Q694.397 127.209 694.397 128.079 Q694.397 133.56 696.057 133.56 Q696.136 133.56 696.268 133.56 Q696.426 133.533 696.821 133.401 Q697.243 133.243 697.612 133.006 Q697.981 132.743 698.402 132.216 Q698.824 131.662 699.087 130.924 Q699.324 130.397 699.799 130.397 Q700.431 130.397 700.431 130.924 Q700.431 131.873 699.114 133.322 Q697.796 134.772 695.899 134.772 Q694.081 134.772 692.79 133.586 Q691.525 132.374 690.998 130.213 Q685.306 134.772 679.614 134.772 Q675.609 134.772 673.238 132.163 Q670.866 129.528 670.866 125.628 Q670.866 121.886 672.921 118.329 Q675.003 114.772 678.376 112.558 Q681.775 110.319 685.385 110.319 Q686.65 110.319 687.862 110.661 Q689.074 110.977 690.286 111.794 Q691.498 112.611 692.394 113.85 Q693.29 115.088 693.844 117.038 Q694.397 118.988 694.397 121.438 L694.397 124.785 Q697.875 120.384 699.693 114.087 Q699.957 113.138 700.115 113.033 Q700.22 112.954 700.484 112.954 Q700.747 112.954 700.905 113.112 Q701.09 113.243 701.116 113.375 L701.143 113.507 M690.787 128.816 Q690.682 127.894 690.682 122.782 Q690.682 121.807 690.682 121.28 Q690.682 120.727 690.629 119.673 Q690.576 118.619 690.471 117.96 Q690.392 117.301 690.207 116.353 Q690.023 115.404 689.759 114.798 Q689.496 114.192 689.074 113.507 Q688.679 112.822 688.152 112.427 Q687.651 112.031 686.913 111.768 Q686.202 111.504 685.332 111.504 Q684.252 111.504 683.119 111.9 Q682.012 112.269 680.589 113.454 Q679.166 114.614 677.981 116.458 Q676.742 118.408 675.794 121.992 Q674.871 125.549 674.871 127.683 Q674.871 130.371 676.11 131.978 Q677.348 133.56 679.72 133.56 Q685.385 133.56 690.787 128.816 Z" fill="#4ab467" fill-rule="nonzero" fill-opacity="1" /><path clip-path="url(#clip850)" d="M720.026 125.971 Q720.079 125.312 721.106 125.312 L754.176 125.312 Q755.731 125.312 755.757 125.918 Q755.757 126.577 754.281 126.55 L721.475 126.55 Q720.026 126.577 720.026 125.971 M720.026 115.431 Q720.026 114.772 721.159 114.798 L754.123 114.798 Q755.731 114.798 755.757 115.431 Q755.757 116.037 754.387 116.037 L721.106 116.037 Q720.026 116.037 720.026 115.431 Z" fill="#4ab467" fill-rule="nonzero" fill-opacity="1" /><path clip-path="url(#clip850)" d="M776.572 116.906 Q776.572 108.975 778.574 104.653 Q781.368 98.2238 787.955 98.2238 Q789.352 98.2238 790.801 98.6191 Q792.277 98.988 794.121 100.437 Q795.992 101.887 797.125 104.258 Q799.286 108.843 799.286 116.906 Q799.286 124.785 797.283 129.08 Q794.358 135.351 787.902 135.351 Q785.478 135.351 783.001 134.113 Q780.551 132.874 778.996 129.897 Q776.572 125.444 776.572 116.906 M781.051 116.247 Q781.051 124.39 781.631 127.631 Q782.29 131.135 784.082 132.664 Q785.9 134.166 787.902 134.166 Q790.063 134.166 791.855 132.558 Q793.673 130.924 794.226 127.42 Q794.832 123.968 794.806 116.247 Q794.806 108.738 794.279 105.734 Q793.568 102.229 791.67 100.833 Q789.8 99.4096 787.902 99.4096 Q787.191 99.4096 786.427 99.6204 Q785.689 99.8312 784.609 100.437 Q783.528 101.043 782.685 102.545 Q781.868 104.047 781.473 106.313 Q781.051 109.238 781.051 116.247 Z" fill="#4ab467" fill-rule="nonzero" fill-opacity="1" /><path clip-path="url(#clip850)" d="M804.113 133.296 Q803.296 132.426 803.296 131.293 Q803.296 130.16 804.113 129.343 Q804.93 128.5 806.169 128.5 Q807.354 128.5 808.145 129.291 Q808.962 130.055 808.962 131.32 Q808.962 132.558 808.092 133.375 Q807.249 134.166 806.169 134.166 Q804.93 134.166 804.113 133.296 Z" fill="#4ab467" fill-rule="nonzero" fill-opacity="1" /><path clip-path="url(#clip850)" d="M818.146 108.79 L819.912 97.6968 L821.256 97.6968 Q821.414 98.3556 821.677 98.6454 Q821.967 98.9353 823.495 99.1724 Q825.05 99.4096 828.186 99.4096 L841.282 99.4096 Q841.282 100.648 840.807 101.307 L833.508 111.557 Q831.19 114.798 830.162 120.78 Q829.556 124.785 829.582 129.633 L829.582 132.374 Q829.582 135.351 827.079 135.351 Q824.602 135.351 824.602 132.374 Q824.602 122.071 831.242 112.084 Q831.954 111.056 834.562 107.394 Q837.197 103.731 837.303 103.573 L826.13 103.573 Q821.229 103.573 820.834 103.889 Q820.307 104.363 819.49 108.79 L818.146 108.79 Z" fill="#4ab467" fill-rule="nonzero" fill-opacity="1" /><path clip-path="url(#clip850)" d="M840.379 125.47 Q840.379 123.863 841.249 123.257 Q842.118 122.624 843.041 122.624 Q844.279 122.624 844.99 123.415 Q845.728 124.179 845.728 125.259 Q845.728 126.34 844.99 127.13 Q844.279 127.894 843.041 127.894 Q842.434 127.894 842.118 127.789 Q842.83 130.266 844.99 132.058 Q847.177 133.849 850.05 133.849 Q853.66 133.849 855.82 130.345 Q857.112 128.079 857.112 122.94 Q857.112 118.408 856.137 116.142 Q854.635 112.69 851.552 112.69 Q847.177 112.69 844.595 116.458 Q844.279 116.933 843.91 116.959 Q843.383 116.959 843.251 116.669 Q843.146 116.353 843.146 115.536 L843.146 99.5677 Q843.146 98.2765 843.673 98.2765 Q843.884 98.2765 844.332 98.4346 Q847.731 99.9366 851.499 99.9629 Q855.372 99.9629 858.851 98.3819 Q859.114 98.2238 859.272 98.2238 Q859.799 98.2238 859.826 98.8299 Q859.826 99.0407 859.378 99.6731 Q858.956 100.279 858.034 101.096 Q857.112 101.887 855.926 102.651 Q854.74 103.415 853.001 103.942 Q851.288 104.442 849.391 104.442 Q847.125 104.442 844.806 103.731 L844.806 114.245 Q847.599 111.504 851.657 111.504 Q855.978 111.504 858.956 114.983 Q861.934 118.461 861.934 123.309 Q861.934 128.395 858.403 131.873 Q854.898 135.351 850.155 135.351 Q845.834 135.351 843.093 132.268 Q840.379 129.185 840.379 125.47 Z" fill="#4ab467" fill-rule="nonzero" fill-opacity="1" /><path clip-path="url(#clip850)" d="M1270.87 529.134 L1729.13 529.134 L1729.13 70.8661 L1270.87 70.8661  Z" fill="#ffffff" fill-rule="evenodd" fill-opacity="1"/>
<defs>
  <clipPath id="clip854">
    <rect x="1270" y="70" width="459" height="459"/>
  </clipPath>
</defs>
<polyline clip-path="url(#clip850)" style="stroke:#000000; stroke-linecap:round; stroke-linejoin:round; stroke-width:6; stroke-opacity:1; fill:none" points="1270.87,450.909 1729.13,450.909 "/>
<polyline clip-path="url(#clip850)" style="stroke:#000000; stroke-linecap:round; stroke-linejoin:round; stroke-width:6; stroke-opacity:1; fill:none" points="1349.09,529.134 1349.09,70.8661 "/>
<path clip-path="url(#clip854)" d="M1424.9 351.098 L1419.26 367.322 L1402.08 367.682 L1415.78 378.074 L1410.79 394.514 L1424.9 384.698 L1439.01 394.514 L1434.02 378.074 L1447.73 367.682 L1430.54 367.322 L1424.9 351.098 Z" fill="#000000" fill-rule="evenodd" fill-opacity="1" stroke="none"/>
<polyline clip-path="url(#clip854)" style="stroke:#000000; stroke-linecap:round; stroke-linejoin:round; stroke-width:4.2; stroke-opacity:1; fill:none" points="1286.45,433.962 1290.41,433.634 1294.2,433.299 1297.83,433.001 1301.3,432.689 1304.64,432.351 1307.84,432.025 1310.93,431.668 1313.9,431.332 1316.77,430.983 1319.55,430.646 1322.24,430.302 1324.85,429.949 1327.39,429.632 1329.85,429.26 1332.26,428.954 1334.61,428.593 1336.91,428.27 1339.16,427.925 1341.37,427.619 1343.55,427.287 1345.69,426.964 1347.8,426.647 1349.89,426.336 1351.96,425.987 1354.01,425.709 1356.05,425.368 1358.09,425.052 1360.11,424.714 1362.14,424.392 1364.17,424.054 1366.21,423.754 1368.26,423.419 1370.33,423.062 1372.41,422.706 1374.52,422.4 1376.67,422.04 1378.84,421.73 1381.06,421.391 1383.33,421.065 1385.65,420.719 1388.03,420.381 1390.47,420.016 1393,419.644 1395.61,419.378 1398.31,419.036 1401.12,418.713 1404.04,418.317 1407.09,418.051 1410.27,417.658 1413.62,417.356 1417.13,417.055 1420.83,416.727 1424.73,416.403 1428.86,416.052 1433.24,415.762 1437.88,415.44 1442.82,415.116 1448.07,414.803 1453.68,414.521 1459.66,414.238 1466.06,413.89 1472.9,413.637 1480.22,413.331 1488.07,413.045 1496.47,412.781 1505.47,412.481 1515.11,412.224 1525.43,411.963 1536.47,411.703 1548.27,411.411 1560.87,411.145 1574.29,410.917 1588.58,410.629 1603.74,410.379 1619.81,410.115 1636.78,409.91 1654.66,409.656 1673.43,409.45 1693.07,409.197 1713.55,408.979 "/>
<circle clip-path="url(#clip854)" cx="1693.07" cy="409.197" r="16.2" fill="#000000" fill-rule="evenodd" fill-opacity="1" stroke="none"/>
</svg>
