<?xml version="1.0" encoding="utf-8"?>
<svg xmlns="http://www.w3.org/2000/svg" xmlns:xlink="http://www.w3.org/1999/xlink" width="200" height="150" viewBox="0 0 800 600">
<defs>
  <clipPath id="clip480">
    <rect x="0" y="0" width="800" height="600"/>
  </clipPath>
</defs>
<path clip-path="url(#clip480)" d="M0 600 L800 600 L800 0 L0 0  Z" fill="#ffffff" fill-rule="evenodd" fill-opacity="1"/>
<defs>
  <clipPath id="clip481">
    <rect x="160" y="0" width="561" height="561"/>
  </clipPath>
</defs>
<path clip-path="url(#clip480)" d="M70.8661 529.134 L729.134 529.134 L729.134 70.8661 L70.8661 70.8661  Z" fill="#ffffff" fill-rule="evenodd" fill-opacity="1"/>
<defs>
  <clipPath id="clip482">
    <rect x="70" y="70" width="659" height="459"/>
  </clipPath>
</defs>
<polyline clip-path="url(#clip480)" style="stroke:#000000; stroke-linecap:round; stroke-linejoin:round; stroke-width:6; stroke-opacity:1; fill:none" points="70.8661,529.134 729.134,529.134 "/>
<polyline clip-path="url(#clip480)" style="stroke:#000000; stroke-linecap:round; stroke-linejoin:round; stroke-width:6; stroke-opacity:1; fill:none" points="400,529.134 400,70.8661 "/>
<path clip-path="url(#clip482)" d="M107.072 522.197 L107.072 529.134 L138.74 529.134 L138.74 522.197 L107.072 522.197 L107.072 522.197  Z" fill="#5fa3b4" fill-rule="evenodd" fill-opacity="1"/>
<polyline clip-path="url(#clip482)" style="stroke:#000000; stroke-linecap:round; stroke-linejoin:round; stroke-width:4.2; stroke-opacity:1; fill:none" points="107.072,522.197 107.072,529.134 138.74,529.134 138.74,522.197 107.072,522.197 "/>
<path clip-path="url(#clip482)" d="M146.657 517.697 L146.657 529.134 L178.325 529.134 L178.325 517.697 L146.657 517.697 L146.657 517.697  Z" fill="#5fa3b4" fill-rule="evenodd" fill-opacity="1"/>
<polyline clip-path="url(#clip482)" style="stroke:#000000; stroke-linecap:round; stroke-linejoin:round; stroke-width:4.2; stroke-opacity:1; fill:none" points="146.657,517.697 146.657,529.134 178.325,529.134 178.325,517.697 146.657,517.697 "/>
<path clip-path="url(#clip482)" d="M186.242 510.278 L186.242 529.134 L217.91 529.134 L217.91 510.278 L186.242 510.278 L186.242 510.278  Z" fill="#5fa3b4" fill-rule="evenodd" fill-opacity="1"/>
<polyline clip-path="url(#clip482)" style="stroke:#000000; stroke-linecap:round; stroke-linejoin:round; stroke-width:4.2; stroke-opacity:1; fill:none" points="186.242,510.278 186.242,529.134 217.91,529.134 217.91,510.278 186.242,510.278 "/>
<path clip-path="url(#clip482)" d="M225.827 498.045 L225.827 529.134 L257.495 529.134 L257.495 498.045 L225.827 498.045 L225.827 498.045  Z" fill="#5fa3b4" fill-rule="evenodd" fill-opacity="1"/>
<polyline clip-path="url(#clip482)" style="stroke:#000000; stroke-linecap:round; stroke-linejoin:round; stroke-width:4.2; stroke-opacity:1; fill:none" points="225.827,498.045 225.827,529.134 257.495,529.134 257.495,498.045 225.827,498.045 "/>
<path clip-path="url(#clip482)" d="M265.411 477.878 L265.411 529.134 L297.079 529.134 L297.079 477.878 L265.411 477.878 L265.411 477.878  Z" fill="#5fa3b4" fill-rule="evenodd" fill-opacity="1"/>
<polyline clip-path="url(#clip482)" style="stroke:#000000; stroke-linecap:round; stroke-linejoin:round; stroke-width:4.2; stroke-opacity:1; fill:none" points="265.411,477.878 265.411,529.134 297.079,529.134 297.079,477.878 265.411,477.878 "/>
<path clip-path="url(#clip482)" d="M304.996 444.627 L304.996 529.134 L336.664 529.134 L336.664 444.627 L304.996 444.627 L304.996 444.627  Z" fill="#5fa3b4" fill-rule="evenodd" fill-opacity="1"/>
<polyline clip-path="url(#clip482)" style="stroke:#000000; stroke-linecap:round; stroke-linejoin:round; stroke-width:4.2; stroke-opacity:1; fill:none" points="304.996,444.627 304.996,529.134 336.664,529.134 336.664,444.627 304.996,444.627 "/>
<path clip-path="url(#clip482)" d="M344.581 389.805 L344.581 529.134 L376.249 529.134 L376.249 389.805 L344.581 389.805 L344.581 389.805  Z" fill="#5fa3b4" fill-rule="evenodd" fill-opacity="1"/>
<polyline clip-path="url(#clip482)" style="stroke:#000000; stroke-linecap:round; stroke-linejoin:round; stroke-width:4.2; stroke-opacity:1; fill:none" points="344.581,389.805 344.581,529.134 376.249,529.134 376.249,389.805 344.581,389.805 "/>
<path clip-path="url(#clip482)" d="M384.166 299.419 L384.166 529.134 L415.834 529.134 L415.834 299.419 L384.166 299.419 L384.166 299.419  Z" fill="#5fa3b4" fill-rule="evenodd" fill-opacity="1"/>
<polyline clip-path="url(#clip482)" style="stroke:#000000; stroke-linecap:round; stroke-linejoin:round; stroke-width:4.2; stroke-opacity:1; fill:none" points="384.166,299.419 384.166,529.134 415.834,529.134 415.834,299.419 384.166,299.419 "/>
<path clip-path="url(#clip482)" d="M423.751 389.805 L423.751 529.134 L455.419 529.134 L455.419 389.805 L423.751 389.805 L423.751 389.805  Z" fill="#83d89e" fill-rule="evenodd" fill-opacity="1"/>
<polyline clip-path="url(#clip482)" style="stroke:#000000; stroke-linecap:round; stroke-linejoin:round; stroke-width:4.2; stroke-opacity:1; fill:none" points="423.751,389.805 423.751,529.134 455.419,529.134 455.419,389.805 423.751,389.805 "/>
<path clip-path="url(#clip482)" d="M463.336 444.627 L463.336 529.134 L495.004 529.134 L495.004 444.627 L463.336 444.627 L463.336 444.627  Z" fill="#5fa3b4" fill-rule="evenodd" fill-opacity="1"/>
<polyline clip-path="url(#clip482)" style="stroke:#000000; stroke-linecap:round; stroke-linejoin:round; stroke-width:4.2; stroke-opacity:1; fill:none" points="463.336,444.627 463.336,529.134 495.004,529.134 495.004,444.627 463.336,444.627 "/>
<path clip-path="url(#clip482)" d="M502.921 477.878 L502.921 529.134 L534.589 529.134 L534.589 477.878 L502.921 477.878 L502.921 477.878  Z" fill="#5fa3b4" fill-rule="evenodd" fill-opacity="1"/>
<polyline clip-path="url(#clip482)" style="stroke:#000000; stroke-linecap:round; stroke-linejoin:round; stroke-width:4.2; stroke-opacity:1; fill:none" points="502.921,477.878 502.921,529.134 534.589,529.134 534.589,477.878 502.921,477.878 "/>
<path clip-path="url(#clip482)" d="M542.505 498.045 L542.505 529.134 L574.173 529.134 L574.173 498.045 L542.505 498.045 L542.505 498.045  Z" fill="#5fa3b4" fill-rule="evenodd" fill-opacity="1"/>
<polyline clip-path="url(#clip482)" style="stroke:#000000; stroke-linecap:round; stroke-linejoin:round; stroke-width:4.2; stroke-opacity:1; fill:none" points="542.505,498.045 542.505,529.134 574.173,529.134 574.173,498.045 542.505,498.045 "/>
<path clip-path="url(#clip482)" d="M582.09 510.278 L582.09 529.134 L613.758 529.134 L613.758 510.278 L582.09 510.278 L582.09 510.278  Z" fill="#5fa3b4" fill-rule="evenodd" fill-opacity="1"/>
<polyline clip-path="url(#clip482)" style="stroke:#000000; stroke-linecap:round; stroke-linejoin:round; stroke-width:4.2; stroke-opacity:1; fill:none" points="582.09,510.278 582.09,529.134 613.758,529.134 613.758,510.278 582.09,510.278 "/>
<path clip-path="url(#clip482)" d="M621.675 517.697 L621.675 529.134 L653.343 529.134 L653.343 517.697 L621.675 517.697 L621.675 517.697  Z" fill="#5fa3b4" fill-rule="evenodd" fill-opacity="1"/>
<polyline clip-path="url(#clip482)" style="stroke:#000000; stroke-linecap:round; stroke-linejoin:round; stroke-width:4.2; stroke-opacity:1; fill:none" points="621.675,517.697 621.675,529.134 653.343,529.134 653.343,517.697 621.675,517.697 "/>
<path clip-path="url(#clip482)" d="M661.26 522.197 L661.26 529.134 L692.928 529.134 L692.928 522.197 L661.26 522.197 L661.26 522.197  Z" fill="#5fa3b4" fill-rule="evenodd" fill-opacity="1"/>
<polyline clip-path="url(#clip482)" style="stroke:#000000; stroke-linecap:round; stroke-linejoin:round; stroke-width:4.2; stroke-opacity:1; fill:none" points="661.26,522.197 661.26,529.134 692.928,529.134 692.928,522.197 661.26,522.197 "/>
<circle clip-path="url(#clip482)" style="fill:#5fa3b4; stroke:none; fill-opacity:0" cx="122.906" cy="522.197" r="2"/>
<circle clip-path="url(#clip482)" style="fill:#5fa3b4; stroke:none; fill-opacity:0" cx="162.491" cy="517.697" r="2"/>
<circle clip-path="url(#clip482)" style="fill:#5fa3b4; stroke:none; fill-opacity:0" cx="202.076" cy="510.278" r="2"/>
<circle clip-path="url(#clip482)" style="fill:#5fa3b4; stroke:none; fill-opacity:0" cx="241.661" cy="498.045" r="2"/>
<circle clip-path="url(#clip482)" style="fill:#5fa3b4; stroke:none; fill-opacity:0" cx="281.245" cy="477.878" r="2"/>
<circle clip-path="url(#clip482)" style="fill:#5fa3b4; stroke:none; fill-opacity:0" cx="320.83" cy="444.627" r="2"/>
<circle clip-path="url(#clip482)" style="fill:#5fa3b4; stroke:none; fill-opacity:0" cx="360.415" cy="389.805" r="2"/>
<circle clip-path="url(#clip482)" style="fill:#5fa3b4; stroke:none; fill-opacity:0" cx="400" cy="299.419" r="2"/>
<circle clip-path="url(#clip482)" style="fill:#83d89e; stroke:none; fill-opacity:0" cx="439.585" cy="389.805" r="2"/>
<circle clip-path="url(#clip482)" style="fill:#5fa3b4; stroke:none; fill-opacity:0" cx="479.17" cy="444.627" r="2"/>
<circle clip-path="url(#clip482)" style="fill:#5fa3b4; stroke:none; fill-opacity:0" cx="518.755" cy="477.878" r="2"/>
<circle clip-path="url(#clip482)" style="fill:#5fa3b4; stroke:none; fill-opacity:0" cx="558.339" cy="498.045" r="2"/>
<circle clip-path="url(#clip482)" style="fill:#5fa3b4; stroke:none; fill-opacity:0" cx="597.924" cy="510.278" r="2"/>
<circle clip-path="url(#clip482)" style="fill:#5fa3b4; stroke:none; fill-opacity:0" cx="637.509" cy="517.697" r="2"/>
<circle clip-path="url(#clip482)" style="fill:#5fa3b4; stroke:none; fill-opacity:0" cx="677.094" cy="522.197" r="2"/>
</svg>
