<?xml version="1.0" encoding="utf-8"?>
<svg xmlns="http://www.w3.org/2000/svg" xmlns:xlink="http://www.w3.org/1999/xlink" width="450" height="150" viewBox="0 0 1800 600">
<defs>
  <clipPath id="clip390">
    <rect x="0" y="0" width="1800" height="600"/>
  </clipPath>
</defs>
<path clip-path="url(#clip390)" d="M0 600 L1800 600 L1800 3.33067e-14 L0 3.33067e-14  Z" fill="#ffffff" fill-rule="evenodd" fill-opacity="1"/>
<defs>
  <clipPath id="clip391">
    <rect x="360" y="0" width="1261" height="600"/>
  </clipPath>
</defs>
<path clip-path="url(#clip390)" d="M70.8661 529.134 L529.134 529.134 L529.134 70.8661 L70.8661 70.8661  Z" fill="#ffffff" fill-rule="evenodd" fill-opacity="1"/>
<defs>
  <clipPath id="clip392">
    <rect x="70" y="70" width="459" height="459"/>
  </clipPath>
</defs>
<polyline clip-path="url(#clip390)" style="stroke:#000000; stroke-linecap:round; stroke-linejoin:round; stroke-width:6; stroke-opacity:1; fill:none" points="70.8661,529.134 529.134,529.134 "/>
<polyline clip-path="url(#clip390)" style="stroke:#000000; stroke-linecap:round; stroke-linejoin:round; stroke-width:6; stroke-opacity:1; fill:none" points="300,529.134 300,70.8661 "/>
<path clip-path="url(#clip392)" d="M96.0717 505.632 L96.0717 529.134 L118.118 529.134 L118.118 505.632 L96.0717 505.632 L96.0717 505.632  Z" fill="#5fa3b4" fill-rule="evenodd" fill-opacity="0.2"/>
<polyline clip-path="url(#clip392)" style="stroke:#000000; stroke-linecap:round; stroke-linejoin:round; stroke-width:6; stroke-opacity:0.2; fill:none" points="96.0717,505.632 96.0717,529.134 118.118,529.134 118.118,505.632 96.0717,505.632 "/>
<path clip-path="url(#clip392)" d="M123.63 497.564 L123.63 529.134 L145.676 529.134 L145.676 497.564 L123.63 497.564 L123.63 497.564  Z" fill="#5fa3b4" fill-rule="evenodd" fill-opacity="0.2"/>
<polyline clip-path="url(#clip392)" style="stroke:#000000; stroke-linecap:round; stroke-linejoin:round; stroke-width:6; stroke-opacity:0.2; fill:none" points="123.63,497.564 123.63,529.134 145.676,529.134 145.676,497.564 123.63,497.564 "/>
<path clip-path="url(#clip392)" d="M151.187 486.298 L151.187 529.134 L173.234 529.134 L173.234 486.298 L151.187 486.298 L151.187 486.298  Z" fill="#5fa3b4" fill-rule="evenodd" fill-opacity="0.2"/>
<polyline clip-path="url(#clip392)" style="stroke:#000000; stroke-linecap:round; stroke-linejoin:round; stroke-width:6; stroke-opacity:0.2; fill:none" points="151.187,486.298 151.187,529.134 173.234,529.134 173.234,486.298 151.187,486.298 "/>
<path clip-path="url(#clip392)" d="M178.745 470.277 L178.745 529.134 L200.792 529.134 L200.792 470.277 L178.745 470.277 L178.745 470.277  Z" fill="#5fa3b4" fill-rule="evenodd" fill-opacity="0.2"/>
<polyline clip-path="url(#clip392)" style="stroke:#000000; stroke-linecap:round; stroke-linejoin:round; stroke-width:6; stroke-opacity:0.2; fill:none" points="178.745,470.277 178.745,529.134 200.792,529.134 200.792,470.277 178.745,470.277 "/>
<path clip-path="url(#clip392)" d="M206.303 446.92 L206.303 529.134 L228.35 529.134 L228.35 446.92 L206.303 446.92 L206.303 446.92  Z" fill="#5fa3b4" fill-rule="evenodd" fill-opacity="0.2"/>
<polyline clip-path="url(#clip392)" style="stroke:#000000; stroke-linecap:round; stroke-linejoin:round; stroke-width:6; stroke-opacity:0.2; fill:none" points="206.303,446.92 206.303,529.134 228.35,529.134 228.35,446.92 206.303,446.92 "/>
<path clip-path="url(#clip392)" d="M233.861 411.557 L233.861 529.134 L255.907 529.134 L255.907 411.557 L233.861 411.557 L233.861 411.557  Z" fill="#5fa3b4" fill-rule="evenodd" fill-opacity="0.2"/>
<polyline clip-path="url(#clip392)" style="stroke:#000000; stroke-linecap:round; stroke-linejoin:round; stroke-width:6; stroke-opacity:0.2; fill:none" points="233.861,411.557 233.861,529.134 255.907,529.134 255.907,411.557 233.861,411.557 "/>
<path clip-path="url(#clip392)" d="M261.419 354.179 L261.419 529.134 L283.465 529.134 L283.465 354.179 L261.419 354.179 L261.419 354.179  Z" fill="#5fa3b4" fill-rule="evenodd" fill-opacity="0.2"/>
<polyline clip-path="url(#clip392)" style="stroke:#000000; stroke-linecap:round; stroke-linejoin:round; stroke-width:6; stroke-opacity:0.2; fill:none" points="261.419,354.179 261.419,529.134 283.465,529.134 283.465,354.179 261.419,354.179 "/>
<path clip-path="url(#clip392)" d="M288.977 230.023 L288.977 529.134 L311.023 529.134 L311.023 230.023 L288.977 230.023 L288.977 230.023  Z" fill="#5fa3b4" fill-rule="evenodd" fill-opacity="0.2"/>
<polyline clip-path="url(#clip392)" style="stroke:#000000; stroke-linecap:round; stroke-linejoin:round; stroke-width:6; stroke-opacity:0.2; fill:none" points="288.977,230.023 288.977,529.134 311.023,529.134 311.023,230.023 288.977,230.023 "/>
<path clip-path="url(#clip392)" d="M316.535 470.277 L316.535 529.134 L338.581 529.134 L338.581 470.277 L316.535 470.277 L316.535 470.277  Z" fill="#5fa3b4" fill-rule="evenodd" fill-opacity="0.2"/>
<polyline clip-path="url(#clip392)" style="stroke:#000000; stroke-linecap:round; stroke-linejoin:round; stroke-width:6; stroke-opacity:0.2; fill:none" points="316.535,470.277 316.535,529.134 338.581,529.134 338.581,470.277 316.535,470.277 "/>
<path clip-path="url(#clip392)" d="M344.093 511.492 L344.093 529.134 L366.139 529.134 L366.139 511.492 L344.093 511.492 L344.093 511.492  Z" fill="#5fa3b4" fill-rule="evenodd" fill-opacity="0.2"/>
<polyline clip-path="url(#clip392)" style="stroke:#000000; stroke-linecap:round; stroke-linejoin:round; stroke-width:6; stroke-opacity:0.2; fill:none" points="344.093,511.492 344.093,529.134 366.139,529.134 366.139,511.492 344.093,511.492 "/>
<path clip-path="url(#clip392)" d="M371.65 523.17 L371.65 529.134 L393.697 529.134 L393.697 523.17 L371.65 523.17 L371.65 523.17  Z" fill="#5fa3b4" fill-rule="evenodd" fill-opacity="0.2"/>
<polyline clip-path="url(#clip392)" style="stroke:#000000; stroke-linecap:round; stroke-linejoin:round; stroke-width:6; stroke-opacity:0.2; fill:none" points="371.65,523.17 371.65,529.134 393.697,529.134 393.697,523.17 371.65,523.17 "/>
<path clip-path="url(#clip392)" d="M399.208 526.969 L399.208 529.134 L421.255 529.134 L421.255 526.969 L399.208 526.969 L399.208 526.969  Z" fill="#5fa3b4" fill-rule="evenodd" fill-opacity="0.2"/>
<polyline clip-path="url(#clip392)" style="stroke:#000000; stroke-linecap:round; stroke-linejoin:round; stroke-width:6; stroke-opacity:0.2; fill:none" points="399.208,526.969 399.208,529.134 421.255,529.134 421.255,526.969 399.208,526.969 "/>
<path clip-path="url(#clip392)" d="M426.766 528.307 L426.766 529.134 L448.813 529.134 L448.813 528.307 L426.766 528.307 L426.766 528.307  Z" fill="#5fa3b4" fill-rule="evenodd" fill-opacity="0.2"/>
<polyline clip-path="url(#clip392)" style="stroke:#000000; stroke-linecap:round; stroke-linejoin:round; stroke-width:6; stroke-opacity:0.2; fill:none" points="426.766,528.307 426.766,529.134 448.813,529.134 448.813,528.307 426.766,528.307 "/>
<path clip-path="url(#clip392)" d="M454.324 528.806 L454.324 529.134 L476.37 529.134 L476.37 528.806 L454.324 528.806 L454.324 528.806  Z" fill="#5fa3b4" fill-rule="evenodd" fill-opacity="0.2"/>
<polyline clip-path="url(#clip392)" style="stroke:#000000; stroke-linecap:round; stroke-linejoin:round; stroke-width:6; stroke-opacity:0.2; fill:none" points="454.324,528.806 454.324,529.134 476.37,529.134 476.37,528.806 454.324,528.806 "/>
<path clip-path="url(#clip392)" d="M481.882 529 L481.882 529.134 L503.928 529.134 L503.928 529 L481.882 529 L481.882 529  Z" fill="#5fa3b4" fill-rule="evenodd" fill-opacity="0.2"/>
<polyline clip-path="url(#clip392)" style="stroke:#000000; stroke-linecap:round; stroke-linejoin:round; stroke-width:6; stroke-opacity:0.2; fill:none" points="481.882,529 481.882,529.134 503.928,529.134 503.928,529 481.882,529 "/>
<circle clip-path="url(#clip392)" style="fill:#5fa3b4; stroke:none; fill-opacity:0" cx="107.095" cy="505.632" r="2"/>
<circle clip-path="url(#clip392)" style="fill:#5fa3b4; stroke:none; fill-opacity:0" cx="134.653" cy="497.564" r="2"/>
<circle clip-path="url(#clip392)" style="fill:#5fa3b4; stroke:none; fill-opacity:0" cx="162.211" cy="486.298" r="2"/>
<circle clip-path="url(#clip392)" style="fill:#5fa3b4; stroke:none; fill-opacity:0" cx="189.768" cy="470.277" r="2"/>
<circle clip-path="url(#clip392)" style="fill:#5fa3b4; stroke:none; fill-opacity:0" cx="217.326" cy="446.92" r="2"/>
<circle clip-path="url(#clip392)" style="fill:#5fa3b4; stroke:none; fill-opacity:0" cx="244.884" cy="411.557" r="2"/>
<circle clip-path="url(#clip392)" style="fill:#5fa3b4; stroke:none; fill-opacity:0" cx="272.442" cy="354.179" r="2"/>
<circle clip-path="url(#clip392)" style="fill:#5fa3b4; stroke:none; fill-opacity:0" cx="300" cy="230.023" r="2"/>
<circle clip-path="url(#clip392)" style="fill:#5fa3b4; stroke:none; fill-opacity:0" cx="327.558" cy="470.277" r="2"/>
<circle clip-path="url(#clip392)" style="fill:#5fa3b4; stroke:none; fill-opacity:0" cx="355.116" cy="511.492" r="2"/>
<circle clip-path="url(#clip392)" style="fill:#5fa3b4; stroke:none; fill-opacity:0" cx="382.674" cy="523.17" r="2"/>
<circle clip-path="url(#clip392)" style="fill:#5fa3b4; stroke:none; fill-opacity:0" cx="410.232" cy="526.969" r="2"/>
<circle clip-path="url(#clip392)" style="fill:#5fa3b4; stroke:none; fill-opacity:0" cx="437.789" cy="528.307" r="2"/>
<circle clip-path="url(#clip392)" style="fill:#5fa3b4; stroke:none; fill-opacity:0" cx="465.347" cy="528.806" r="2"/>
<circle clip-path="url(#clip392)" style="fill:#5fa3b4; stroke:none; fill-opacity:0" cx="492.905" cy="529" r="2"/>
<path clip-path="url(#clip392)" d="M96.0717 522.602 L96.0717 529.134 L118.118 529.134 L118.118 522.602 L96.0717 522.602 L96.0717 522.602  Z" fill="#4ab467" fill-rule="evenodd" fill-opacity="1"/>
<polyline clip-path="url(#clip392)" style="stroke:#000000; stroke-linecap:round; stroke-linejoin:round; stroke-width:6; stroke-opacity:1; fill:none" points="96.0717,522.602 96.0717,529.134 118.118,529.134 118.118,522.602 96.0717,522.602 "/>
<path clip-path="url(#clip392)" d="M123.63 519.362 L123.63 529.134 L145.676 529.134 L145.676 519.362 L123.63 519.362 L123.63 519.362  Z" fill="#4ab467" fill-rule="evenodd" fill-opacity="1"/>
<polyline clip-path="url(#clip392)" style="stroke:#000000; stroke-linecap:round; stroke-linejoin:round; stroke-width:6; stroke-opacity:1; fill:none" points="123.63,519.362 123.63,529.134 145.676,529.134 145.676,519.362 123.63,519.362 "/>
<path clip-path="url(#clip392)" d="M151.187 514.102 L151.187 529.134 L173.234 529.134 L173.234 514.102 L151.187 514.102 L151.187 514.102  Z" fill="#4ab467" fill-rule="evenodd" fill-opacity="1"/>
<polyline clip-path="url(#clip392)" style="stroke:#000000; stroke-linecap:round; stroke-linejoin:round; stroke-width:6; stroke-opacity:1; fill:none" points="151.187,514.102 151.187,529.134 173.234,529.134 173.234,514.102 151.187,514.102 "/>
<path clip-path="url(#clip392)" d="M178.745 505.223 L178.745 529.134 L200.792 529.134 L200.792 505.223 L178.745 505.223 L178.745 505.223  Z" fill="#4ab467" fill-rule="evenodd" fill-opacity="1"/>
<polyline clip-path="url(#clip392)" style="stroke:#000000; stroke-linecap:round; stroke-linejoin:round; stroke-width:6; stroke-opacity:1; fill:none" points="178.745,505.223 178.745,529.134 200.792,529.134 200.792,505.223 178.745,505.223 "/>
<path clip-path="url(#clip392)" d="M206.303 489.15 L206.303 529.134 L228.35 529.134 L228.35 489.15 L206.303 489.15 L206.303 489.15  Z" fill="#4ab467" fill-rule="evenodd" fill-opacity="1"/>
<polyline clip-path="url(#clip392)" style="stroke:#000000; stroke-linecap:round; stroke-linejoin:round; stroke-width:6; stroke-opacity:1; fill:none" points="206.303,489.15 206.303,529.134 228.35,529.134 228.35,489.15 206.303,489.15 "/>
<path clip-path="url(#clip392)" d="M233.861 457.642 L233.861 529.134 L255.907 529.134 L255.907 457.642 L233.861 457.642 L233.861 457.642  Z" fill="#4ab467" fill-rule="evenodd" fill-opacity="1"/>
<polyline clip-path="url(#clip392)" style="stroke:#000000; stroke-linecap:round; stroke-linejoin:round; stroke-width:6; stroke-opacity:1; fill:none" points="233.861,457.642 233.861,529.134 255.907,529.134 255.907,457.642 233.861,457.642 "/>
<path clip-path="url(#clip392)" d="M261.419 386.356 L261.419 529.134 L283.465 529.134 L283.465 386.356 L261.419 386.356 L261.419 386.356  Z" fill="#4ab467" fill-rule="evenodd" fill-opacity="1"/>
<polyline clip-path="url(#clip392)" style="stroke:#000000; stroke-linecap:round; stroke-linejoin:round; stroke-width:6; stroke-opacity:1; fill:none" points="261.419,386.356 261.419,529.134 283.465,529.134 283.465,386.356 261.419,386.356 "/>
<path clip-path="url(#clip392)" d="M288.977 151.331 L288.977 529.134 L311.023 529.134 L311.023 151.331 L288.977 151.331 L288.977 151.331  Z" fill="#4ab467" fill-rule="evenodd" fill-opacity="1"/>
<polyline clip-path="url(#clip392)" style="stroke:#000000; stroke-linecap:round; stroke-linejoin:round; stroke-width:6; stroke-opacity:1; fill:none" points="288.977,151.331 288.977,529.134 311.023,529.134 311.023,151.331 288.977,151.331 "/>
<path clip-path="url(#clip392)" d="M316.535 406.39 L316.535 529.134 L338.581 529.134 L338.581 406.39 L316.535 406.39 L316.535 406.39  Z" fill="#4ab467" fill-rule="evenodd" fill-opacity="1"/>
<polyline clip-path="url(#clip392)" style="stroke:#000000; stroke-linecap:round; stroke-linejoin:round; stroke-width:6; stroke-opacity:1; fill:none" points="316.535,406.39 316.535,529.134 338.581,529.134 338.581,406.39 316.535,406.39 "/>
<path clip-path="url(#clip392)" d="M344.093 474.006 L344.093 529.134 L366.139 529.134 L366.139 474.006 L344.093 474.006 L344.093 474.006  Z" fill="#4ab467" fill-rule="evenodd" fill-opacity="1"/>
<polyline clip-path="url(#clip392)" style="stroke:#000000; stroke-linecap:round; stroke-linejoin:round; stroke-width:6; stroke-opacity:1; fill:none" points="344.093,474.006 344.093,529.134 366.139,529.134 366.139,474.006 344.093,474.006 "/>
<path clip-path="url(#clip392)" d="M371.65 502.537 L371.65 529.134 L393.697 529.134 L393.697 502.537 L371.65 502.537 L371.65 502.537  Z" fill="#4ab467" fill-rule="evenodd" fill-opacity="1"/>
<polyline clip-path="url(#clip392)" style="stroke:#000000; stroke-linecap:round; stroke-linejoin:round; stroke-width:6; stroke-opacity:1; fill:none" points="371.65,502.537 371.65,529.134 393.697,529.134 393.697,502.537 371.65,502.537 "/>
<path clip-path="url(#clip392)" d="M399.208 515.943 L399.208 529.134 L421.255 529.134 L421.255 515.943 L399.208 515.943 L399.208 515.943  Z" fill="#4ab467" fill-rule="evenodd" fill-opacity="1"/>
<polyline clip-path="url(#clip392)" style="stroke:#000000; stroke-linecap:round; stroke-linejoin:round; stroke-width:6; stroke-opacity:1; fill:none" points="399.208,515.943 399.208,529.134 421.255,529.134 421.255,515.943 399.208,515.943 "/>
<path clip-path="url(#clip392)" d="M426.766 522.575 L426.766 529.134 L448.813 529.134 L448.813 522.575 L426.766 522.575 L426.766 522.575  Z" fill="#4ab467" fill-rule="evenodd" fill-opacity="1"/>
<polyline clip-path="url(#clip392)" style="stroke:#000000; stroke-linecap:round; stroke-linejoin:round; stroke-width:6; stroke-opacity:1; fill:none" points="426.766,522.575 426.766,529.134 448.813,529.134 448.813,522.575 426.766,522.575 "/>
<path clip-path="url(#clip392)" d="M454.324 525.784 L454.324 529.134 L476.37 529.134 L476.37 525.784 L454.324 525.784 L454.324 525.784  Z" fill="#4ab467" fill-rule="evenodd" fill-opacity="1"/>
<polyline clip-path="url(#clip392)" style="stroke:#000000; stroke-linecap:round; stroke-linejoin:round; stroke-width:6; stroke-opacity:1; fill:none" points="454.324,525.784 454.324,529.134 476.37,529.134 476.37,525.784 454.324,525.784 "/>
<path clip-path="url(#clip392)" d="M481.882 527.468 L481.882 529.134 L503.928 529.134 L503.928 527.468 L481.882 527.468 L481.882 527.468  Z" fill="#4ab467" fill-rule="evenodd" fill-opacity="1"/>
<polyline clip-path="url(#clip392)" style="stroke:#000000; stroke-linecap:round; stroke-linejoin:round; stroke-width:6; stroke-opacity:1; fill:none" points="481.882,527.468 481.882,529.134 503.928,529.134 503.928,527.468 481.882,527.468 "/>
<circle clip-path="url(#clip392)" style="fill:#4ab467; stroke:none; fill-opacity:0" cx="107.095" cy="522.602" r="2"/>
<circle clip-path="url(#clip392)" style="fill:#4ab467; stroke:none; fill-opacity:0" cx="134.653" cy="519.362" r="2"/>
<circle clip-path="url(#clip392)" style="fill:#4ab467; stroke:none; fill-opacity:0" cx="162.211" cy="514.102" r="2"/>
<circle clip-path="url(#clip392)" style="fill:#4ab467; stroke:none; fill-opacity:0" cx="189.768" cy="505.223" r="2"/>
<circle clip-path="url(#clip392)" style="fill:#4ab467; stroke:none; fill-opacity:0" cx="217.326" cy="489.15" r="2"/>
<circle clip-path="url(#clip392)" style="fill:#4ab467; stroke:none; fill-opacity:0" cx="244.884" cy="457.642" r="2"/>
<circle clip-path="url(#clip392)" style="fill:#4ab467; stroke:none; fill-opacity:0" cx="272.442" cy="386.356" r="2"/>
<circle clip-path="url(#clip392)" style="fill:#4ab467; stroke:none; fill-opacity:0" cx="300" cy="151.331" r="2"/>
<circle clip-path="url(#clip392)" style="fill:#4ab467; stroke:none; fill-opacity:0" cx="327.558" cy="406.39" r="2"/>
<circle clip-path="url(#clip392)" style="fill:#4ab467; stroke:none; fill-opacity:0" cx="355.116" cy="474.006" r="2"/>
<circle clip-path="url(#clip392)" style="fill:#4ab467; stroke:none; fill-opacity:0" cx="382.674" cy="502.537" r="2"/>
<circle clip-path="url(#clip392)" style="fill:#4ab467; stroke:none; fill-opacity:0" cx="410.232" cy="515.943" r="2"/>
<circle clip-path="url(#clip392)" style="fill:#4ab467; stroke:none; fill-opacity:0" cx="437.789" cy="522.575" r="2"/>
<circle clip-path="url(#clip392)" style="fill:#4ab467; stroke:none; fill-opacity:0" cx="465.347" cy="525.784" r="2"/>
<circle clip-path="url(#clip392)" style="fill:#4ab467; stroke:none; fill-opacity:0" cx="492.905" cy="527.468" r="2"/>
<path clip-path="url(#clip390)" d="M124.056 113.507 Q124.003 113.77 123.898 114.245 Q123.792 114.693 123.318 116.116 Q122.844 117.539 122.211 118.988 Q121.605 120.411 120.42 122.413 Q119.26 124.39 117.837 126.181 Q117.442 126.656 117.363 126.946 Q117.31 127.209 117.31 128.079 Q117.31 133.56 118.97 133.56 Q119.049 133.56 119.181 133.56 Q119.339 133.533 119.735 133.401 Q120.156 133.243 120.525 133.006 Q120.894 132.743 121.316 132.216 Q121.737 131.662 122.001 130.924 Q122.238 130.397 122.712 130.397 Q123.345 130.397 123.345 130.924 Q123.345 131.873 122.027 133.322 Q120.709 134.772 118.812 134.772 Q116.994 134.772 115.703 133.586 Q114.438 132.374 113.911 130.213 Q108.219 134.772 102.528 134.772 Q98.5226 134.772 96.1511 132.163 Q93.7795 129.528 93.7795 125.628 Q93.7795 121.886 95.8348 118.329 Q97.9165 114.772 101.289 112.558 Q104.689 110.319 108.299 110.319 Q109.563 110.319 110.775 110.661 Q111.988 110.977 113.2 111.794 Q114.412 112.611 115.308 113.85 Q116.204 115.088 116.757 117.038 Q117.31 118.988 117.31 121.438 L117.31 124.785 Q120.789 120.384 122.607 114.087 Q122.87 113.138 123.028 113.033 Q123.134 112.954 123.397 112.954 Q123.661 112.954 123.819 113.112 Q124.003 113.243 124.03 113.375 L124.056 113.507 M113.7 128.816 Q113.595 127.894 113.595 122.782 Q113.595 121.807 113.595 121.28 Q113.595 120.727 113.542 119.673 Q113.49 118.619 113.384 117.96 Q113.305 117.301 113.121 116.353 Q112.936 115.404 112.673 114.798 Q112.409 114.192 111.988 113.507 Q111.592 112.822 111.065 112.427 Q110.565 112.031 109.827 111.768 Q109.115 111.504 108.246 111.504 Q107.165 111.504 106.032 111.9 Q104.926 112.269 103.503 113.454 Q102.08 114.614 100.894 116.458 Q99.6556 118.408 98.707 121.992 Q97.7848 125.549 97.7848 127.683 Q97.7848 130.371 99.0232 131.978 Q100.262 133.56 102.633 133.56 Q108.299 133.56 113.7 128.816 Z" fill="#4ab467" fill-rule="nonzero" fill-opacity="1" /><path clip-path="url(#clip390)" d="M142.939 125.971 Q142.992 125.312 144.02 125.312 L177.089 125.312 Q178.644 125.312 178.67 125.918 Q178.67 126.577 177.195 126.55 L144.389 126.55 Q142.939 126.577 142.939 125.971 M142.939 115.431 Q142.939 114.772 144.072 114.798 L177.037 114.798 Q178.644 114.798 178.67 115.431 Q178.67 116.037 177.3 116.037 L144.02 116.037 Q142.939 116.037 142.939 115.431 Z" fill="#4ab467" fill-rule="nonzero" fill-opacity="1" /><path clip-path="url(#clip390)" d="M199.485 116.906 Q199.485 108.975 201.488 104.653 Q204.281 98.2238 210.868 98.2238 Q212.265 98.2238 213.714 98.6191 Q215.19 98.988 217.034 100.437 Q218.905 101.887 220.038 104.258 Q222.199 108.843 222.199 116.906 Q222.199 124.785 220.196 129.08 Q217.272 135.351 210.816 135.351 Q208.392 135.351 205.915 134.113 Q203.464 132.874 201.909 129.897 Q199.485 125.444 199.485 116.906 M203.965 116.247 Q203.965 124.39 204.544 127.631 Q205.203 131.135 206.995 132.664 Q208.813 134.166 210.816 134.166 Q212.976 134.166 214.768 132.558 Q216.586 130.924 217.14 127.42 Q217.746 123.968 217.72 116.247 Q217.72 108.738 217.193 105.734 Q216.481 102.229 214.584 100.833 Q212.713 99.4096 210.816 99.4096 Q210.104 99.4096 209.34 99.6204 Q208.602 99.8312 207.522 100.437 Q206.442 101.043 205.598 102.545 Q204.782 104.047 204.386 106.313 Q203.965 109.238 203.965 116.247 Z" fill="#4ab467" fill-rule="nonzero" fill-opacity="1" /><path clip-path="url(#clip390)" d="M227.027 133.296 Q226.21 132.426 226.21 131.293 Q226.21 130.16 227.027 129.343 Q227.843 128.5 229.082 128.5 Q230.268 128.5 231.058 129.291 Q231.875 130.055 231.875 131.32 Q231.875 132.558 231.005 133.375 Q230.162 134.166 229.082 134.166 Q227.843 134.166 227.027 133.296 Z" fill="#4ab467" fill-rule="nonzero" fill-opacity="1" /><path clip-path="url(#clip390)" d="M241.06 108.79 L242.825 97.6968 L244.169 97.6968 Q244.327 98.3556 244.591 98.6454 Q244.88 98.9353 246.409 99.1724 Q247.963 99.4096 251.099 99.4096 L264.195 99.4096 Q264.195 100.648 263.721 101.307 L256.422 111.557 Q254.103 114.798 253.075 120.78 Q252.469 124.785 252.496 129.633 L252.496 132.374 Q252.496 135.351 249.992 135.351 Q247.515 135.351 247.515 132.374 Q247.515 122.071 254.156 112.084 Q254.867 111.056 257.476 107.394 Q260.111 103.731 260.216 103.573 L249.044 103.573 Q244.143 103.573 243.747 103.889 Q243.22 104.363 242.404 108.79 L241.06 108.79 Z" fill="#4ab467" fill-rule="nonzero" fill-opacity="1" /><path clip-path="url(#clip390)" d="M670.866 529.134 L1129.13 529.134 L1129.13 70.8661 L670.866 70.8661  Z" fill="#ffffff" fill-rule="evenodd" fill-opacity="1"/>
<defs>
  <clipPath id="clip393">
    <rect x="670" y="70" width="459" height="459"/>
  </clipPath>
</defs>
<polyline clip-path="url(#clip390)" style="stroke:#000000; stroke-linecap:round; stroke-linejoin:round; stroke-width:6; stroke-opacity:1; fill:none" points="670.866,529.134 1129.13,529.134 "/>
<polyline clip-path="url(#clip390)" style="stroke:#000000; stroke-linecap:round; stroke-linejoin:round; stroke-width:6; stroke-opacity:1; fill:none" points="900,529.134 900,70.8661 "/>
<polyline clip-path="url(#clip393)" style="stroke:#5fa3b4; stroke-linecap:round; stroke-linejoin:round; stroke-width:3; stroke-opacity:1; fill:none" points="212.598,492.291 1587.4,492.291 "/>
<polyline clip-path="url(#clip393)" style="stroke:#000000; stroke-linecap:round; stroke-linejoin:round; stroke-width:4.2; stroke-opacity:1; fill:none" points="683.836,518.894 714.717,517.73 745.597,516.205 776.478,514.166 807.358,511.216 838.239,506.731 869.119,499.067 900,482.598 930.881,452.298 961.761,414.006 992.642,364.828 1023.52,304.689 1054.4,236.751 1085.28,152.462 1116.16,70.8661 "/>
<polyline clip-path="url(#clip393)" style="stroke:#e1c67c; stroke-linecap:round; stroke-linejoin:round; stroke-width:4.2; stroke-opacity:1; fill:none" stroke-dasharray="2, 4" points="683.836,524.649 714.717,522.828 745.597,520.267 776.478,516.667 807.358,511.604 838.239,504.485 869.119,494.474 900,480.398 930.881,460.606 961.761,432.777 992.642,393.645 1023.52,338.621 1054.4,261.252 1085.28,152.462 1116.16,-0.509223 "/>
<path clip-path="url(#clip390)" d="M723.16 99.3925 Q723.16 100.078 722.87 101.395 Q721.948 105.111 718.496 107.666 Q717.916 108.141 716.889 108.747 Q718.127 109.564 719.208 111.066 Q720.815 113.543 720.815 116.889 Q720.815 118.444 720.393 120.341 Q719.208 124.741 715.044 127.903 Q710.854 130.986 705.874 130.986 Q703.187 130.986 701.342 129.564 Q699.524 128.114 698.812 125.69 L695.15 140.473 Q695.071 140.841 694.596 140.841 L694.333 140.841 Q693.78 140.841 693.78 140.209 L702.106 107.008 Q702.66 104.768 703.555 102.66 Q704.451 100.552 705.69 98.6547 Q706.955 96.7575 708.404 95.3609 Q709.853 93.938 711.645 93.1212 Q713.437 92.278 715.334 92.278 Q719.313 92.278 721.579 94.992 Q723.16 96.9156 723.16 99.3925 M720.13 98.4439 Q720.13 96.8102 719.471 95.6771 Q718.127 93.5164 715.281 93.5164 Q713.569 93.5164 711.935 94.3069 Q710.327 95.0711 709.036 96.3886 Q707.745 97.7061 706.638 99.4979 Q705.532 101.29 704.715 103.24 Q703.924 105.163 703.397 107.271 L700.156 120.341 Q699.84 121.738 699.84 122.976 Q699.84 125.927 701.474 127.851 Q703.108 129.774 705.927 129.774 Q709.669 129.774 712.883 126.981 Q715.677 124.478 716.836 120.077 Q717.495 117.311 717.495 115.387 Q717.495 113.279 716.731 111.645 Q716.177 110.328 715.097 109.537 Q713.094 110.249 711.065 110.249 Q710.09 110.249 709.563 110.222 Q709.063 110.196 708.325 110.091 Q707.613 109.985 707.271 109.695 Q706.955 109.406 706.955 108.958 Q706.955 108.694 707.007 108.589 Q707.113 108.167 707.455 107.877 Q707.798 107.587 708.193 107.456 Q708.588 107.298 709.247 107.219 Q709.932 107.139 710.38 107.139 Q710.828 107.113 711.592 107.113 Q713.384 107.113 715.202 107.825 Q715.887 107.456 716.625 106.797 Q718.97 104.61 719.761 101.132 Q720.13 99.8405 720.13 98.4439 M713.49 108.641 Q712.383 108.352 711.54 108.352 Q708.457 108.352 708.299 108.852 Q708.299 108.905 708.404 108.958 Q708.509 108.984 708.746 109.01 Q709.01 109.01 709.221 109.037 Q709.458 109.063 709.853 109.063 Q710.248 109.063 710.459 109.063 Q710.696 109.063 711.118 109.063 Q712.172 109.063 713.49 108.641 Z" fill="#e1c67c" fill-rule="nonzero" fill-opacity="1" /><path clip-path="url(#clip390)" d="M738.999 122.185 Q739.051 121.527 740.079 121.527 L773.149 121.527 Q774.703 121.527 774.73 122.133 Q774.73 122.792 773.254 122.765 L740.448 122.765 Q738.999 122.792 738.999 122.185 M738.999 111.645 Q738.999 110.987 740.132 111.013 L773.096 111.013 Q774.703 111.013 774.73 111.645 Q774.73 112.251 773.359 112.251 L740.079 112.251 Q738.999 112.251 738.999 111.645 Z" fill="#e1c67c" fill-rule="nonzero" fill-opacity="1" /><path clip-path="url(#clip390)" d="M795.544 113.121 Q795.544 105.19 797.547 100.868 Q800.34 94.4387 806.928 94.4387 Q808.324 94.4387 809.773 94.8339 Q811.249 95.2028 813.094 96.6521 Q814.964 98.1014 816.097 100.473 Q818.258 105.058 818.258 113.121 Q818.258 121 816.256 125.295 Q813.331 131.566 806.875 131.566 Q804.451 131.566 801.974 130.328 Q799.523 129.089 797.969 126.112 Q795.544 121.658 795.544 113.121 M800.024 112.462 Q800.024 120.604 800.604 123.846 Q801.262 127.35 803.054 128.878 Q804.872 130.38 806.875 130.38 Q809.036 130.38 810.827 128.773 Q812.646 127.139 813.199 123.635 Q813.805 120.183 813.779 112.462 Q813.779 104.952 813.252 101.948 Q812.54 98.4439 810.643 97.0473 Q808.772 95.6244 806.875 95.6244 Q806.163 95.6244 805.399 95.8352 Q804.661 96.046 803.581 96.6521 Q802.501 97.2581 801.658 98.7601 Q800.841 100.262 800.445 102.528 Q800.024 105.453 800.024 112.462 Z" fill="#e1c67c" fill-rule="nonzero" fill-opacity="1" /><path clip-path="url(#clip390)" d="M823.086 129.511 Q822.269 128.641 822.269 127.508 Q822.269 126.375 823.086 125.558 Q823.903 124.715 825.141 124.715 Q826.327 124.715 827.117 125.506 Q827.934 126.27 827.934 127.535 Q827.934 128.773 827.065 129.59 Q826.221 130.38 825.141 130.38 Q823.903 130.38 823.086 129.511 Z" fill="#e1c67c" fill-rule="nonzero" fill-opacity="1" /><path clip-path="url(#clip390)" d="M837.119 123.108 Q837.119 121.5 838.041 120.736 Q838.963 119.972 840.149 119.972 Q841.388 119.972 842.257 120.789 Q843.153 121.579 843.153 122.976 Q843.153 124.478 842.099 125.321 Q841.071 126.164 839.596 125.954 Q840.887 128.114 843.258 129.089 Q845.656 130.064 847.87 130.064 Q850.189 130.064 852.059 128.062 Q853.957 126.059 853.957 121.158 Q853.957 116.994 852.323 114.597 Q850.716 112.199 847.527 112.199 L845.156 112.199 Q844.339 112.199 844.102 112.12 Q843.864 112.041 843.864 111.593 Q843.864 111.066 844.681 110.96 Q845.498 110.96 846.789 110.802 Q849.925 110.697 851.585 107.983 Q853.087 105.453 853.087 101.843 Q853.087 98.5493 851.506 97.1791 Q849.951 95.7825 847.922 95.7825 Q846.025 95.7825 843.944 96.573 Q841.862 97.3635 840.729 99.129 Q844.075 99.129 844.075 101.843 Q844.075 103.029 843.311 103.819 Q842.573 104.584 841.335 104.584 Q840.149 104.584 839.359 103.846 Q838.568 103.082 838.568 101.79 Q838.568 98.7074 841.309 96.573 Q844.075 94.4387 848.133 94.4387 Q852.138 94.4387 855.09 96.5467 Q858.067 98.6547 858.067 101.896 Q858.067 105.084 855.959 107.693 Q853.851 110.302 850.505 111.382 Q854.615 112.199 857.066 114.992 Q859.517 117.759 859.517 121.158 Q859.517 125.374 856.196 128.483 Q852.876 131.566 848.028 131.566 Q843.548 131.566 840.334 129.142 Q837.119 126.718 837.119 123.108 Z" fill="#e1c67c" fill-rule="nonzero" fill-opacity="1" /><path clip-path="url(#clip390)" d="M1270.87 529.134 L1729.13 529.134 L1729.13 70.8661 L1270.87 70.8661  Z" fill="#ffffff" fill-rule="evenodd" fill-opacity="1"/>
<defs>
  <clipPath id="clip394">
    <rect x="1270" y="70" width="459" height="459"/>
  </clipPath>
</defs>
<polyline clip-path="url(#clip390)" style="stroke:#000000; stroke-linecap:round; stroke-linejoin:round; stroke-width:6; stroke-opacity:1; fill:none" points="1270.87,529.134 1729.13,529.134 "/>
<polyline clip-path="url(#clip390)" style="stroke:#000000; stroke-linecap:round; stroke-linejoin:round; stroke-width:6; stroke-opacity:1; fill:none" points="1500,529.134 1500,70.8661 "/>
<path clip-path="url(#clip394)" d="M1296.07 505.632 L1296.07 529.134 L1318.12 529.134 L1318.12 505.632 L1296.07 505.632 L1296.07 505.632  Z" fill="#5fa3b4" fill-rule="evenodd" fill-opacity="0.2"/>
<polyline clip-path="url(#clip394)" style="stroke:#000000; stroke-linecap:round; stroke-linejoin:round; stroke-width:6; stroke-opacity:0.2; fill:none" points="1296.07,505.632 1296.07,529.134 1318.12,529.134 1318.12,505.632 1296.07,505.632 "/>
<path clip-path="url(#clip394)" d="M1323.63 497.564 L1323.63 529.134 L1345.68 529.134 L1345.68 497.564 L1323.63 497.564 L1323.63 497.564  Z" fill="#5fa3b4" fill-rule="evenodd" fill-opacity="0.2"/>
<polyline clip-path="url(#clip394)" style="stroke:#000000; stroke-linecap:round; stroke-linejoin:round; stroke-width:6; stroke-opacity:0.2; fill:none" points="1323.63,497.564 1323.63,529.134 1345.68,529.134 1345.68,497.564 1323.63,497.564 "/>
<path clip-path="url(#clip394)" d="M1351.19 486.298 L1351.19 529.134 L1373.23 529.134 L1373.23 486.298 L1351.19 486.298 L1351.19 486.298  Z" fill="#5fa3b4" fill-rule="evenodd" fill-opacity="0.2"/>
<polyline clip-path="url(#clip394)" style="stroke:#000000; stroke-linecap:round; stroke-linejoin:round; stroke-width:6; stroke-opacity:0.2; fill:none" points="1351.19,486.298 1351.19,529.134 1373.23,529.134 1373.23,486.298 1351.19,486.298 "/>
<path clip-path="url(#clip394)" d="M1378.75 470.277 L1378.75 529.134 L1400.79 529.134 L1400.79 470.277 L1378.75 470.277 L1378.75 470.277  Z" fill="#5fa3b4" fill-rule="evenodd" fill-opacity="0.2"/>
<polyline clip-path="url(#clip394)" style="stroke:#000000; stroke-linecap:round; stroke-linejoin:round; stroke-width:6; stroke-opacity:0.2; fill:none" points="1378.75,470.277 1378.75,529.134 1400.79,529.134 1400.79,470.277 1378.75,470.277 "/>
<path clip-path="url(#clip394)" d="M1406.3 446.92 L1406.3 529.134 L1428.35 529.134 L1428.35 446.92 L1406.3 446.92 L1406.3 446.92  Z" fill="#5fa3b4" fill-rule="evenodd" fill-opacity="0.2"/>
<polyline clip-path="url(#clip394)" style="stroke:#000000; stroke-linecap:round; stroke-linejoin:round; stroke-width:6; stroke-opacity:0.2; fill:none" points="1406.3,446.92 1406.3,529.134 1428.35,529.134 1428.35,446.92 1406.3,446.92 "/>
<path clip-path="url(#clip394)" d="M1433.86 411.557 L1433.86 529.134 L1455.91 529.134 L1455.91 411.557 L1433.86 411.557 L1433.86 411.557  Z" fill="#5fa3b4" fill-rule="evenodd" fill-opacity="0.2"/>
<polyline clip-path="url(#clip394)" style="stroke:#000000; stroke-linecap:round; stroke-linejoin:round; stroke-width:6; stroke-opacity:0.2; fill:none" points="1433.86,411.557 1433.86,529.134 1455.91,529.134 1455.91,411.557 1433.86,411.557 "/>
<path clip-path="url(#clip394)" d="M1461.42 354.179 L1461.42 529.134 L1483.47 529.134 L1483.47 354.179 L1461.42 354.179 L1461.42 354.179  Z" fill="#5fa3b4" fill-rule="evenodd" fill-opacity="0.2"/>
<polyline clip-path="url(#clip394)" style="stroke:#000000; stroke-linecap:round; stroke-linejoin:round; stroke-width:6; stroke-opacity:0.2; fill:none" points="1461.42,354.179 1461.42,529.134 1483.47,529.134 1483.47,354.179 1461.42,354.179 "/>
<path clip-path="url(#clip394)" d="M1488.98 230.023 L1488.98 529.134 L1511.02 529.134 L1511.02 230.023 L1488.98 230.023 L1488.98 230.023  Z" fill="#5fa3b4" fill-rule="evenodd" fill-opacity="0.2"/>
<polyline clip-path="url(#clip394)" style="stroke:#000000; stroke-linecap:round; stroke-linejoin:round; stroke-width:6; stroke-opacity:0.2; fill:none" points="1488.98,230.023 1488.98,529.134 1511.02,529.134 1511.02,230.023 1488.98,230.023 "/>
<path clip-path="url(#clip394)" d="M1516.53 470.277 L1516.53 529.134 L1538.58 529.134 L1538.58 470.277 L1516.53 470.277 L1516.53 470.277  Z" fill="#5fa3b4" fill-rule="evenodd" fill-opacity="0.2"/>
<polyline clip-path="url(#clip394)" style="stroke:#000000; stroke-linecap:round; stroke-linejoin:round; stroke-width:6; stroke-opacity:0.2; fill:none" points="1516.53,470.277 1516.53,529.134 1538.58,529.134 1538.58,470.277 1516.53,470.277 "/>
<path clip-path="url(#clip394)" d="M1544.09 511.492 L1544.09 529.134 L1566.14 529.134 L1566.14 511.492 L1544.09 511.492 L1544.09 511.492  Z" fill="#5fa3b4" fill-rule="evenodd" fill-opacity="0.2"/>
<polyline clip-path="url(#clip394)" style="stroke:#000000; stroke-linecap:round; stroke-linejoin:round; stroke-width:6; stroke-opacity:0.2; fill:none" points="1544.09,511.492 1544.09,529.134 1566.14,529.134 1566.14,511.492 1544.09,511.492 "/>
<path clip-path="url(#clip394)" d="M1571.65 523.17 L1571.65 529.134 L1593.7 529.134 L1593.7 523.17 L1571.65 523.17 L1571.65 523.17  Z" fill="#5fa3b4" fill-rule="evenodd" fill-opacity="0.2"/>
<polyline clip-path="url(#clip394)" style="stroke:#000000; stroke-linecap:round; stroke-linejoin:round; stroke-width:6; stroke-opacity:0.2; fill:none" points="1571.65,523.17 1571.65,529.134 1593.7,529.134 1593.7,523.17 1571.65,523.17 "/>
<path clip-path="url(#clip394)" d="M1599.21 526.969 L1599.21 529.134 L1621.25 529.134 L1621.25 526.969 L1599.21 526.969 L1599.21 526.969  Z" fill="#5fa3b4" fill-rule="evenodd" fill-opacity="0.2"/>
<polyline clip-path="url(#clip394)" style="stroke:#000000; stroke-linecap:round; stroke-linejoin:round; stroke-width:6; stroke-opacity:0.2; fill:none" points="1599.21,526.969 1599.21,529.134 1621.25,529.134 1621.25,526.969 1599.21,526.969 "/>
<path clip-path="url(#clip394)" d="M1626.77 528.307 L1626.77 529.134 L1648.81 529.134 L1648.81 528.307 L1626.77 528.307 L1626.77 528.307  Z" fill="#5fa3b4" fill-rule="evenodd" fill-opacity="0.2"/>
<polyline clip-path="url(#clip394)" style="stroke:#000000; stroke-linecap:round; stroke-linejoin:round; stroke-width:6; stroke-opacity:0.2; fill:none" points="1626.77,528.307 1626.77,529.134 1648.81,529.134 1648.81,528.307 1626.77,528.307 "/>
<path clip-path="url(#clip394)" d="M1654.32 528.806 L1654.32 529.134 L1676.37 529.134 L1676.37 528.806 L1654.32 528.806 L1654.32 528.806  Z" fill="#5fa3b4" fill-rule="evenodd" fill-opacity="0.2"/>
<polyline clip-path="url(#clip394)" style="stroke:#000000; stroke-linecap:round; stroke-linejoin:round; stroke-width:6; stroke-opacity:0.2; fill:none" points="1654.32,528.806 1654.32,529.134 1676.37,529.134 1676.37,528.806 1654.32,528.806 "/>
<path clip-path="url(#clip394)" d="M1681.88 529 L1681.88 529.134 L1703.93 529.134 L1703.93 529 L1681.88 529 L1681.88 529  Z" fill="#5fa3b4" fill-rule="evenodd" fill-opacity="0.2"/>
<polyline clip-path="url(#clip394)" style="stroke:#000000; stroke-linecap:round; stroke-linejoin:round; stroke-width:6; stroke-opacity:0.2; fill:none" points="1681.88,529 1681.88,529.134 1703.93,529.134 1703.93,529 1681.88,529 "/>
<circle clip-path="url(#clip394)" style="fill:#5fa3b4; stroke:none; fill-opacity:0" cx="1307.09" cy="505.632" r="2"/>
<circle clip-path="url(#clip394)" style="fill:#5fa3b4; stroke:none; fill-opacity:0" cx="1334.65" cy="497.564" r="2"/>
<circle clip-path="url(#clip394)" style="fill:#5fa3b4; stroke:none; fill-opacity:0" cx="1362.21" cy="486.298" r="2"/>
<circle clip-path="url(#clip394)" style="fill:#5fa3b4; stroke:none; fill-opacity:0" cx="1389.77" cy="470.277" r="2"/>
<circle clip-path="url(#clip394)" style="fill:#5fa3b4; stroke:none; fill-opacity:0" cx="1417.33" cy="446.92" r="2"/>
<circle clip-path="url(#clip394)" style="fill:#5fa3b4; stroke:none; fill-opacity:0" cx="1444.88" cy="411.557" r="2"/>
<circle clip-path="url(#clip394)" style="fill:#5fa3b4; stroke:none; fill-opacity:0" cx="1472.44" cy="354.179" r="2"/>
<circle clip-path="url(#clip394)" style="fill:#5fa3b4; stroke:none; fill-opacity:0" cx="1500" cy="230.023" r="2"/>
<circle clip-path="url(#clip394)" style="fill:#5fa3b4; stroke:none; fill-opacity:0" cx="1527.56" cy="470.277" r="2"/>
<circle clip-path="url(#clip394)" style="fill:#5fa3b4; stroke:none; fill-opacity:0" cx="1555.12" cy="511.492" r="2"/>
<circle clip-path="url(#clip394)" style="fill:#5fa3b4; stroke:none; fill-opacity:0" cx="1582.67" cy="523.17" r="2"/>
<circle clip-path="url(#clip394)" style="fill:#5fa3b4; stroke:none; fill-opacity:0" cx="1610.23" cy="526.969" r="2"/>
<circle clip-path="url(#clip394)" style="fill:#5fa3b4; stroke:none; fill-opacity:0" cx="1637.79" cy="528.307" r="2"/>
<circle clip-path="url(#clip394)" style="fill:#5fa3b4; stroke:none; fill-opacity:0" cx="1665.35" cy="528.806" r="2"/>
<circle clip-path="url(#clip394)" style="fill:#5fa3b4; stroke:none; fill-opacity:0" cx="1692.91" cy="529" r="2"/>
<path clip-path="url(#clip394)" d="M1296.07 526.273 L1296.07 529.134 L1318.12 529.134 L1318.12 526.273 L1296.07 526.273 L1296.07 526.273  Z" fill="#83d89e" fill-rule="evenodd" fill-opacity="1"/>
<polyline clip-path="url(#clip394)" style="stroke:#000000; stroke-linecap:round; stroke-linejoin:round; stroke-width:6; stroke-opacity:1; fill:none" points="1296.07,526.273 1296.07,529.134 1318.12,529.134 1318.12,526.273 1296.07,526.273 "/>
<path clip-path="url(#clip394)" d="M1323.63 523.731 L1323.63 529.134 L1345.68 529.134 L1345.68 523.731 L1323.63 523.731 L1323.63 523.731  Z" fill="#83d89e" fill-rule="evenodd" fill-opacity="1"/>
<polyline clip-path="url(#clip394)" style="stroke:#000000; stroke-linecap:round; stroke-linejoin:round; stroke-width:6; stroke-opacity:1; fill:none" points="1323.63,523.731 1323.63,529.134 1345.68,529.134 1345.68,523.731 1323.63,523.731 "/>
<path clip-path="url(#clip394)" d="M1351.19 518.825 L1351.19 529.134 L1373.23 529.134 L1373.23 518.825 L1351.19 518.825 L1351.19 518.825  Z" fill="#83d89e" fill-rule="evenodd" fill-opacity="1"/>
<polyline clip-path="url(#clip394)" style="stroke:#000000; stroke-linecap:round; stroke-linejoin:round; stroke-width:6; stroke-opacity:1; fill:none" points="1351.19,518.825 1351.19,529.134 1373.23,529.134 1373.23,518.825 1351.19,518.825 "/>
<path clip-path="url(#clip394)" d="M1378.75 509.218 L1378.75 529.134 L1400.79 529.134 L1400.79 509.218 L1378.75 509.218 L1378.75 509.218  Z" fill="#83d89e" fill-rule="evenodd" fill-opacity="1"/>
<polyline clip-path="url(#clip394)" style="stroke:#000000; stroke-linecap:round; stroke-linejoin:round; stroke-width:6; stroke-opacity:1; fill:none" points="1378.75,509.218 1378.75,529.134 1400.79,529.134 1400.79,509.218 1378.75,509.218 "/>
<path clip-path="url(#clip394)" d="M1406.3 490.016 L1406.3 529.134 L1428.35 529.134 L1428.35 490.016 L1406.3 490.016 L1406.3 490.016  Z" fill="#83d89e" fill-rule="evenodd" fill-opacity="1"/>
<polyline clip-path="url(#clip394)" style="stroke:#000000; stroke-linecap:round; stroke-linejoin:round; stroke-width:6; stroke-opacity:1; fill:none" points="1406.3,490.016 1406.3,529.134 1428.35,529.134 1428.35,490.016 1406.3,490.016 "/>
<path clip-path="url(#clip394)" d="M1433.86 450.471 L1433.86 529.134 L1455.91 529.134 L1455.91 450.471 L1433.86 450.471 L1433.86 450.471  Z" fill="#83d89e" fill-rule="evenodd" fill-opacity="1"/>
<polyline clip-path="url(#clip394)" style="stroke:#000000; stroke-linecap:round; stroke-linejoin:round; stroke-width:6; stroke-opacity:1; fill:none" points="1433.86,450.471 1433.86,529.134 1455.91,529.134 1455.91,450.471 1433.86,450.471 "/>
<path clip-path="url(#clip394)" d="M1461.42 364.548 L1461.42 529.134 L1483.47 529.134 L1483.47 364.548 L1461.42 364.548 L1461.42 364.548  Z" fill="#83d89e" fill-rule="evenodd" fill-opacity="1"/>
<polyline clip-path="url(#clip394)" style="stroke:#000000; stroke-linecap:round; stroke-linejoin:round; stroke-width:6; stroke-opacity:1; fill:none" points="1461.42,364.548 1461.42,529.134 1483.47,529.134 1483.47,364.548 1461.42,364.548 "/>
<path clip-path="url(#clip394)" d="M1488.98 133.477 L1488.98 529.134 L1511.02 529.134 L1511.02 133.477 L1488.98 133.477 L1488.98 133.477  Z" fill="#83d89e" fill-rule="evenodd" fill-opacity="1"/>
<polyline clip-path="url(#clip394)" style="stroke:#000000; stroke-linecap:round; stroke-linejoin:round; stroke-width:6; stroke-opacity:1; fill:none" points="1488.98,133.477 1488.98,529.134 1511.02,529.134 1511.02,133.477 1488.98,133.477 "/>
<path clip-path="url(#clip394)" d="M1516.53 419.663 L1516.53 529.134 L1538.58 529.134 L1538.58 419.663 L1516.53 419.663 L1516.53 419.663  Z" fill="#83d89e" fill-rule="evenodd" fill-opacity="1"/>
<polyline clip-path="url(#clip394)" style="stroke:#000000; stroke-linecap:round; stroke-linejoin:round; stroke-width:6; stroke-opacity:1; fill:none" points="1516.53,419.663 1516.53,529.134 1538.58,529.134 1538.58,419.663 1516.53,419.663 "/>
<path clip-path="url(#clip394)" d="M1544.09 482.994 L1544.09 529.134 L1566.14 529.134 L1566.14 482.994 L1544.09 482.994 L1544.09 482.994  Z" fill="#83d89e" fill-rule="evenodd" fill-opacity="1"/>
<polyline clip-path="url(#clip394)" style="stroke:#000000; stroke-linecap:round; stroke-linejoin:round; stroke-width:6; stroke-opacity:1; fill:none" points="1544.09,482.994 1544.09,529.134 1566.14,529.134 1566.14,482.994 1544.09,482.994 "/>
<path clip-path="url(#clip394)" d="M1571.65 507.202 L1571.65 529.134 L1593.7 529.134 L1593.7 507.202 L1571.65 507.202 L1571.65 507.202  Z" fill="#83d89e" fill-rule="evenodd" fill-opacity="1"/>
<polyline clip-path="url(#clip394)" style="stroke:#000000; stroke-linecap:round; stroke-linejoin:round; stroke-width:6; stroke-opacity:1; fill:none" points="1571.65,507.202 1571.65,529.134 1593.7,529.134 1593.7,507.202 1571.65,507.202 "/>
<path clip-path="url(#clip394)" d="M1599.21 517.937 L1599.21 529.134 L1621.25 529.134 L1621.25 517.937 L1599.21 517.937 L1599.21 517.937  Z" fill="#83d89e" fill-rule="evenodd" fill-opacity="1"/>
<polyline clip-path="url(#clip394)" style="stroke:#000000; stroke-linecap:round; stroke-linejoin:round; stroke-width:6; stroke-opacity:1; fill:none" points="1599.21,517.937 1599.21,529.134 1621.25,529.134 1621.25,517.937 1599.21,517.937 "/>
<path clip-path="url(#clip394)" d="M1626.77 523.125 L1626.77 529.134 L1648.81 529.134 L1648.81 523.125 L1626.77 523.125 L1626.77 523.125  Z" fill="#83d89e" fill-rule="evenodd" fill-opacity="1"/>
<polyline clip-path="url(#clip394)" style="stroke:#000000; stroke-linecap:round; stroke-linejoin:round; stroke-width:6; stroke-opacity:1; fill:none" points="1626.77,523.125 1626.77,529.134 1648.81,529.134 1648.81,523.125 1626.77,523.125 "/>
<path clip-path="url(#clip394)" d="M1654.32 525.784 L1654.32 529.134 L1676.37 529.134 L1676.37 525.784 L1654.32 525.784 L1654.32 525.784  Z" fill="#83d89e" fill-rule="evenodd" fill-opacity="1"/>
<polyline clip-path="url(#clip394)" style="stroke:#000000; stroke-linecap:round; stroke-linejoin:round; stroke-width:6; stroke-opacity:1; fill:none" points="1654.32,525.784 1654.32,529.134 1676.37,529.134 1676.37,525.784 1654.32,525.784 "/>
<path clip-path="url(#clip394)" d="M1681.88 527.208 L1681.88 529.134 L1703.93 529.134 L1703.93 527.208 L1681.88 527.208 L1681.88 527.208  Z" fill="#83d89e" fill-rule="evenodd" fill-opacity="1"/>
<polyline clip-path="url(#clip394)" style="stroke:#000000; stroke-linecap:round; stroke-linejoin:round; stroke-width:6; stroke-opacity:1; fill:none" points="1681.88,527.208 1681.88,529.134 1703.93,529.134 1703.93,527.208 1681.88,527.208 "/>
<circle clip-path="url(#clip394)" style="fill:#83d89e; stroke:none; fill-opacity:0" cx="1307.09" cy="526.273" r="2"/>
<circle clip-path="url(#clip394)" style="fill:#83d89e; stroke:none; fill-opacity:0" cx="1334.65" cy="523.731" r="2"/>
<circle clip-path="url(#clip394)" style="fill:#83d89e; stroke:none; fill-opacity:0" cx="1362.21" cy="518.825" r="2"/>
<circle clip-path="url(#clip394)" style="fill:#83d89e; stroke:none; fill-opacity:0" cx="1389.77" cy="509.218" r="2"/>
<circle clip-path="url(#clip394)" style="fill:#83d89e; stroke:none; fill-opacity:0" cx="1417.33" cy="490.016" r="2"/>
<circle clip-path="url(#clip394)" style="fill:#83d89e; stroke:none; fill-opacity:0" cx="1444.88" cy="450.471" r="2"/>
<circle clip-path="url(#clip394)" style="fill:#83d89e; stroke:none; fill-opacity:0" cx="1472.44" cy="364.548" r="2"/>
<circle clip-path="url(#clip394)" style="fill:#83d89e; stroke:none; fill-opacity:0" cx="1500" cy="133.477" r="2"/>
<circle clip-path="url(#clip394)" style="fill:#83d89e; stroke:none; fill-opacity:0" cx="1527.56" cy="419.663" r="2"/>
<circle clip-path="url(#clip394)" style="fill:#83d89e; stroke:none; fill-opacity:0" cx="1555.12" cy="482.994" r="2"/>
<circle clip-path="url(#clip394)" style="fill:#83d89e; stroke:none; fill-opacity:0" cx="1582.67" cy="507.202" r="2"/>
<circle clip-path="url(#clip394)" style="fill:#83d89e; stroke:none; fill-opacity:0" cx="1610.23" cy="517.937" r="2"/>
<circle clip-path="url(#clip394)" style="fill:#83d89e; stroke:none; fill-opacity:0" cx="1637.79" cy="523.125" r="2"/>
<circle clip-path="url(#clip394)" style="fill:#83d89e; stroke:none; fill-opacity:0" cx="1665.35" cy="525.784" r="2"/>
<circle clip-path="url(#clip394)" style="fill:#83d89e; stroke:none; fill-opacity:0" cx="1692.91" cy="527.208" r="2"/>
</svg>
