<svg version="1.1" xmlns="http://www.w3.org/2000/svg" xmlns:xlink="http://www.w3.org/1999/xlink" width="560" height="708"><defs/><g><rect fill="white" stroke="none" x="0" y="0" width="560" height="708"/><g transform="translate(2,2) scale(2,2)"><path fill="none" stroke="rgb(240,168,169)" paint-order="fill stroke markers" d=" M 132.29179606750063 28.416407864998746 L 105.70820393249937 81.58359213500125" stroke-opacity="1" stroke-linejoin="round" stroke-miterlimit="10" stroke-width="3"/><path fill="none" stroke="rgb(238,238,238)" paint-order="fill stroke markers" d=" M 145.70820393249937 28.416407864998746 L 172.29179606750063 81.58359213500125" stroke-opacity="1" stroke-linejoin="round" stroke-miterlimit="10" stroke-width="3"/><path fill="none" stroke="rgb(236,85,88)" paint-order="fill stroke markers" d=" M 50.22578758122498 268.3832001444092 L 23.22582658002669 321.7245865126302" stroke-opacity="1" stroke-linejoin="round" stroke-miterlimit="10" stroke-width="2" stroke-dasharray="3,4"/><path fill="none" stroke="rgb(236,85,88)" paint-order="fill stroke markers" d=" M 63.77421241877502 268.3832001444092 L 90.77417341997331 321.7245865126302" stroke-opacity="1" stroke-linejoin="round" stroke-miterlimit="10" stroke-width="2" stroke-dasharray="3,4"/><path fill="none" stroke="rgb(236,85,88)" paint-order="fill stroke markers" d=" M 128.26327077434183 185.4748577811299 L 67.73672922565817 244.5251422188701" stroke-opacity="1" stroke-linejoin="round" stroke-miterlimit="10" stroke-width="3"/><path fill="none" stroke="rgb(236,85,88)" paint-order="fill stroke markers" d=" M 149.73672922565817 185.4748577811299 L 210.26327077434183 244.5251422188701" stroke-opacity="1" stroke-linejoin="round" stroke-miterlimit="10" stroke-width="3"/><path fill="none" stroke="rgb(238,238,238)" paint-order="fill stroke markers" d=" M 92.29179606750063 108.41640786499875 L 65.70820393249937 161.58359213500125" stroke-opacity="1" stroke-linejoin="round" stroke-miterlimit="10" stroke-width="3"/><path fill="none" stroke="rgb(240,168,169)" paint-order="fill stroke markers" d=" M 105.70820393249937 108.41640786499875 L 132.29179606750063 161.58359213500125" stroke-opacity="1" stroke-linejoin="round" stroke-miterlimit="10" stroke-width="3"/><path fill="none" stroke="rgb(236,85,88)" paint-order="fill stroke markers" d=" M 214.22578758122498 268.3832001444092 L 187.2258265800267 321.7245865126302" stroke-opacity="1" stroke-linejoin="round" stroke-miterlimit="10" stroke-width="2" stroke-dasharray="3,4"/><path fill="none" stroke="rgb(236,85,88)" paint-order="fill stroke markers" d=" M 227.77421241877502 268.3832001444092 L 254.7741734199733 321.7245865126302" stroke-opacity="1" stroke-linejoin="round" stroke-miterlimit="10" stroke-width="2" stroke-dasharray="3,4"/><path fill="rgb(240,168,169)" stroke="none" paint-order="stroke fill markers" d=" M 154 15 L 153.9537600059969 16.176886435917673 L 153.81532510892706 17.346516975603464 L 153.58554880596515 18.50168045783858 L 153.2658477444273 19.63525491562421 L 152.8581929876693 20.740251485476346 L 152.3650978628255 21.8098574960932 L 151.7896024653114 22.83747847073923 L 151.13525491562422 23.816778784387097 L 150.40608948400046 24.741720724952756 L 149.6066017177982 25.606601717798213 L 148.74172072495276 26.406089484000464 L 147.8167787843871 27.135254915624213 L 146.83747847073923 27.789602465311383 L 145.8098574960932 28.365097862825515 L 144.74025148547634 28.8581929876693 L 143.63525491562422 29.265847744427305 L 142.50168045783857 29.585548805965146 L 141.34651697560346 29.815325108927066 L 140.17688643591768 29.95376000599692 L 139 30 L 137.82311356408232 29.95376000599692 L 136.65348302439654 29.815325108927066 L 135.49831954216143 29.58554880596515 L 134.36474508437578 29.265847744427305 L 133.25974851452366 28.8581929876693 L 132.1901425039068 28.365097862825518 L 131.16252152926077 27.789602465311383 L 130.18322121561292 27.135254915624213 L 129.25827927504724 26.406089484000468 L 128.3933982822018 25.606601717798213 L 127.59391051599954 24.741720724952756 L 126.86474508437578 23.816778784387097 L 126.21039753468861 22.837478470739235 L 125.63490213717448 21.8098574960932 L 125.1418070123307 20.74025148547635 L 124.7341522555727 19.635254915624213 L 124.41445119403485 18.50168045783858 L 124.18467489107293 17.346516975603464 L 124.04623999400309 16.176886435917677 L 124 15.000000000000002 L 124.04623999400309 13.823113564082327 L 124.18467489107293 12.65348302439654 L 124.41445119403485 11.49831954216142 L 124.7341522555727 10.364745084375791 L 125.1418070123307 9.259748514523654 L 125.63490213717448 8.190142503906799 L 126.21039753468861 7.162521529260769 L 126.86474508437578 6.183221215612905 L 127.59391051599954 5.258279275047247 L 128.3933982822018 4.3933982822017885 L 129.25827927504724 3.593910515999541 L 130.1832212156129 2.864745084375789 L 131.16252152926077 2.2103975346886138 L 132.1901425039068 1.6349021371744765 L 133.25974851452366 1.141807012330693 L 134.3647450843758 0.7341522555726883 L 135.49831954216145 0.414451194034843 L 136.65348302439656 0.18467489107292856 L 137.82311356408238 0.0462399940030771 L 139.00000000000006 0 L 140.17688643591774 0.04623999400308598 L 141.34651697560352 0.18467489107294277 L 142.50168045783866 0.4144511940348661 L 143.63525491562427 0.7341522555727202 L 144.74025148547642 1.1418070123307302 L 145.8098574960933 1.6349021371745227 L 146.8374784707393 2.210397534688667 L 147.81677878438717 2.8647450843758495 L 148.74172072495284 3.5939105159996068 L 149.6066017177983 4.39339828220187 L 150.40608948400055 5.258279275047338 L 151.1352549156243 6.183221215613008 L 151.78960246531145 7.162521529260883 L 152.3650978628256 8.190142503906925 L 152.85819298766936 9.259748514523793 L 153.26584774442736 10.364745084375937 L 153.58554880596517 11.498319542161578 L 153.81532510892708 12.653483024396705 L 153.95376000599694 13.823113564082501 Z" fill-opacity="1"/><path fill="rgb(240,168,169)" stroke="none" paint-order="stroke fill markers" d=" M 114 95 L 113.95376000599691 96.17688643591768 L 113.81532510892707 97.34651697560346 L 113.58554880596515 98.50168045783857 L 113.2658477444273 99.63525491562422 L 112.8581929876693 100.74025148547635 L 112.36509786282552 101.8098574960932 L 111.78960246531139 102.83747847073923 L 111.13525491562422 103.8167787843871 L 110.40608948400046 104.74172072495276 L 109.60660171779821 105.60660171779821 L 108.74172072495276 106.40608948400046 L 107.8167787843871 107.13525491562422 L 106.83747847073923 107.78960246531139 L 105.8098574960932 108.36509786282552 L 104.74025148547635 108.8581929876693 L 103.63525491562422 109.2658477444273 L 102.50168045783859 109.58554880596515 L 101.34651697560346 109.81532510892707 L 100.17688643591768 109.95376000599691 L 99 110 L 97.82311356408232 109.95376000599691 L 96.65348302439654 109.81532510892707 L 95.49831954216143 109.58554880596515 L 94.36474508437578 109.2658477444273 L 93.25974851452365 108.8581929876693 L 92.1901425039068 108.36509786282552 L 91.16252152926077 107.78960246531139 L 90.1832212156129 107.13525491562422 L 89.25827927504724 106.40608948400046 L 88.39339828220179 105.60660171779821 L 87.59391051599954 104.74172072495276 L 86.86474508437578 103.8167787843871 L 86.21039753468861 102.83747847073923 L 85.63490213717448 101.8098574960932 L 85.1418070123307 100.74025148547635 L 84.7341522555727 99.63525491562422 L 84.41445119403485 98.50168045783859 L 84.18467489107293 97.34651697560346 L 84.04623999400309 96.17688643591768 L 84 95 L 84.04623999400309 93.82311356408233 L 84.18467489107293 92.65348302439654 L 84.41445119403485 91.49831954216143 L 84.7341522555727 90.36474508437578 L 85.1418070123307 89.25974851452365 L 85.63490213717448 88.1901425039068 L 86.21039753468861 87.16252152926077 L 86.86474508437578 86.1832212156129 L 87.59391051599954 85.25827927504724 L 88.39339828220179 84.39339828220179 L 89.25827927504724 83.59391051599954 L 90.1832212156129 82.86474508437578 L 91.16252152926077 82.21039753468861 L 92.19014250390681 81.63490213717448 L 93.25974851452366 81.14180701233069 L 94.36474508437581 80.7341522555727 L 95.49831954216145 80.41445119403484 L 96.65348302439658 80.18467489107293 L 97.82311356408238 80.04623999400307 L 99.00000000000006 80 L 100.17688643591774 80.04623999400309 L 101.34651697560352 80.18467489107294 L 102.50168045783865 80.41445119403487 L 103.63525491562429 80.73415225557272 L 104.74025148547642 81.14180701233073 L 105.80985749609329 81.63490213717452 L 106.83747847073931 82.21039753468867 L 107.81677878438718 82.86474508437585 L 108.74172072495284 83.59391051599961 L 109.6066017177983 84.39339828220187 L 110.40608948400055 85.25827927504734 L 111.13525491562429 86.183221215613 L 111.78960246531145 87.16252152926089 L 112.36509786282558 88.19014250390693 L 112.85819298766936 89.25974851452379 L 113.26584774442735 90.36474508437594 L 113.58554880596519 91.49831954216158 L 113.8153251089271 92.6534830243967 L 113.95376000599694 93.8231135640825 Z" fill-opacity="1"/><path fill="rgb(238,238,238)" stroke="none" paint-order="stroke fill markers" d=" M 194 95 L 193.9537600059969 96.17688643591768 L 193.81532510892706 97.34651697560346 L 193.58554880596515 98.50168045783857 L 193.2658477444273 99.63525491562422 L 192.8581929876693 100.74025148547635 L 192.3650978628255 101.8098574960932 L 191.7896024653114 102.83747847073923 L 191.13525491562422 103.8167787843871 L 190.40608948400046 104.74172072495276 L 189.6066017177982 105.60660171779821 L 188.74172072495276 106.40608948400046 L 187.8167787843871 107.13525491562422 L 186.83747847073923 107.78960246531139 L 185.8098574960932 108.36509786282552 L 184.74025148547634 108.8581929876693 L 183.63525491562422 109.2658477444273 L 182.50168045783857 109.58554880596515 L 181.34651697560346 109.81532510892707 L 180.17688643591768 109.95376000599691 L 179 110 L 177.82311356408232 109.95376000599691 L 176.65348302439654 109.81532510892707 L 175.49831954216143 109.58554880596515 L 174.36474508437578 109.2658477444273 L 173.25974851452366 108.8581929876693 L 172.1901425039068 108.36509786282552 L 171.16252152926077 107.78960246531139 L 170.18322121561292 107.13525491562422 L 169.25827927504724 106.40608948400046 L 168.3933982822018 105.60660171779821 L 167.59391051599954 104.74172072495276 L 166.86474508437578 103.8167787843871 L 166.2103975346886 102.83747847073923 L 165.6349021371745 101.8098574960932 L 165.1418070123307 100.74025148547635 L 164.7341522555727 99.63525491562422 L 164.41445119403485 98.50168045783859 L 164.18467489107294 97.34651697560346 L 164.0462399940031 96.17688643591768 L 164 95 L 164.0462399940031 93.82311356408233 L 164.18467489107294 92.65348302439654 L 164.41445119403485 91.49831954216143 L 164.7341522555727 90.36474508437578 L 165.1418070123307 89.25974851452365 L 165.6349021371745 88.1901425039068 L 166.2103975346886 87.16252152926077 L 166.86474508437578 86.1832212156129 L 167.59391051599954 85.25827927504724 L 168.3933982822018 84.39339828220179 L 169.25827927504724 83.59391051599954 L 170.1832212156129 82.86474508437578 L 171.16252152926077 82.21039753468861 L 172.1901425039068 81.63490213717448 L 173.25974851452366 81.14180701233069 L 174.3647450843758 80.7341522555727 L 175.49831954216145 80.41445119403484 L 176.65348302439656 80.18467489107293 L 177.82311356408238 80.04623999400307 L 179.00000000000006 80 L 180.17688643591774 80.04623999400309 L 181.34651697560352 80.18467489107294 L 182.50168045783866 80.41445119403487 L 183.63525491562427 80.73415225557272 L 184.74025148547642 81.14180701233073 L 185.8098574960933 81.63490213717452 L 186.8374784707393 82.21039753468867 L 187.81677878438717 82.86474508437585 L 188.74172072495284 83.59391051599961 L 189.6066017177983 84.39339828220187 L 190.40608948400055 85.25827927504734 L 191.1352549156243 86.183221215613 L 191.78960246531145 87.16252152926089 L 192.3650978628256 88.19014250390693 L 192.85819298766936 89.25974851452379 L 193.26584774442736 90.36474508437594 L 193.58554880596517 91.49831954216158 L 193.81532510892708 92.6534830243967 L 193.95376000599694 93.8231135640825 Z" fill-opacity="1"/><path fill="rgb(236,85,88)" stroke="none" paint-order="stroke fill markers" d=" M 72 255 L 71.95376000599691 256.17688643591765 L 71.81532510892707 257.34651697560344 L 71.58554880596515 258.5016804578386 L 71.2658477444273 259.6352549156242 L 70.8581929876693 260.74025148547634 L 70.36509786282552 261.8098574960932 L 69.78960246531139 262.83747847073926 L 69.13525491562422 263.8167787843871 L 68.40608948400046 264.74172072495276 L 67.60660171779821 265.6066017177982 L 66.74172072495276 266.40608948400046 L 65.8167787843871 267.1352549156242 L 64.83747847073923 267.78960246531136 L 63.8098574960932 268.3650978628255 L 62.74025148547635 268.8581929876693 L 61.63525491562421 269.2658477444273 L 60.50168045783858 269.5855488059652 L 59.346516975603464 269.8153251089271 L 58.17688643591767 269.9537600059969 L 57 270 L 55.82311356408233 269.9537600059969 L 54.653483024396536 269.8153251089271 L 53.49831954216142 269.5855488059652 L 52.36474508437579 269.26584774442733 L 51.25974851452365 268.8581929876693 L 50.1901425039068 268.3650978628255 L 49.16252152926077 267.78960246531136 L 48.1832212156129 267.1352549156242 L 47.258279275047244 266.40608948400046 L 46.39339828220179 265.6066017177982 L 45.59391051599954 264.74172072495276 L 44.86474508437579 263.8167787843871 L 44.21039753468862 262.83747847073926 L 43.634902137174485 261.80985749609323 L 43.1418070123307 260.74025148547634 L 42.734152255572695 259.6352549156242 L 42.414451194034854 258.5016804578386 L 42.18467489107294 257.3465169756035 L 42.04623999400308 256.17688643591765 L 42 255 L 42.04623999400308 253.82311356408232 L 42.18467489107293 252.65348302439654 L 42.414451194034854 251.49831954216143 L 42.734152255572695 250.36474508437578 L 43.141807012330695 249.25974851452366 L 43.63490213717448 248.1901425039068 L 44.21039753468862 247.16252152926077 L 44.864745084375784 246.18322121561292 L 45.59391051599953 245.25827927504724 L 46.39339828220179 244.3933982822018 L 47.25827927504724 243.59391051599954 L 48.1832212156129 242.86474508437578 L 49.16252152926077 242.2103975346886 L 50.190142503906806 241.63490213717446 L 51.25974851452367 241.1418070123307 L 52.36474508437581 240.7341522555727 L 53.49831954216145 240.41445119403485 L 54.65348302439657 240.18467489107292 L 55.82311356408237 240.0462399940031 L 57.00000000000005 240 L 58.17688643591773 240.0462399940031 L 59.34651697560353 240.18467489107294 L 60.50168045783865 240.41445119403485 L 61.63525491562429 240.73415225557272 L 62.74025148547642 241.14180701233073 L 63.80985749609328 241.63490213717452 L 64.83747847073931 242.21039753468867 L 65.81677878438718 242.86474508437584 L 66.74172072495284 243.5939105159996 L 67.6066017177983 244.39339828220187 L 68.40608948400055 245.25827927504733 L 69.13525491562429 246.183221215613 L 69.78960246531145 247.16252152926089 L 70.36509786282558 248.1901425039069 L 70.85819298766936 249.25974851452378 L 71.26584774442735 250.36474508437593 L 71.58554880596519 251.49831954216157 L 71.8153251089271 252.6534830243967 L 71.95376000599694 253.8231135640825 Z" fill-opacity="1"/><path fill="rgb(255,255,255)" stroke="rgb(236,85,88)" paint-order="fill stroke markers" d=" M 31 336 L 30.95376000599692 337.17688643591765 L 30.815325108927066 338.34651697560344 L 30.585548805965146 339.5016804578386 L 30.265847744427305 340.6352549156242 L 29.8581929876693 341.74025148547634 L 29.365097862825518 342.8098574960932 L 28.789602465311383 343.83747847073926 L 28.135254915624213 344.8167787843871 L 27.406089484000464 345.74172072495276 L 26.606601717798213 346.6066017177982 L 25.741720724952756 347.40608948400046 L 24.816778784387097 348.1352549156242 L 23.837478470739235 348.78960246531136 L 22.8098574960932 349.3650978628255 L 21.74025148547635 349.8581929876693 L 20.635254915624213 350.2658477444273 L 19.50168045783858 350.5855488059652 L 18.346516975603464 350.8153251089271 L 17.176886435917673 350.9537600059969 L 16 351 L 14.823113564082327 350.9537600059969 L 13.653483024396538 350.8153251089271 L 12.49831954216142 350.5855488059652 L 11.364745084375791 350.26584774442733 L 10.259748514523654 349.8581929876693 L 9.190142503906799 349.3650978628255 L 8.162521529260768 348.78960246531136 L 7.183221215612905 348.1352549156242 L 6.258279275047247 347.40608948400046 L 5.3933982822017885 346.6066017177982 L 4.593910515999536 345.74172072495276 L 3.864745084375789 344.8167787843871 L 3.2103975346886173 343.83747847073926 L 2.6349021371744836 342.80985749609323 L 2.1418070123306983 341.74025148547634 L 1.7341522555726971 340.6352549156242 L 1.4144511940348519 339.5016804578386 L 1.1846748910729357 338.3465169756035 L 1.0462399940030807 337.17688643591765 L 1 336 L 1.0462399940030807 334.82311356408235 L 1.1846748910729339 333.65348302439656 L 1.41445119403485 332.4983195421614 L 1.7341522555726954 331.3647450843758 L 2.1418070123306965 330.25974851452366 L 2.634902137174482 329.1901425039068 L 3.2103975346886156 328.16252152926074 L 3.8647450843757873 327.1832212156129 L 4.593910515999534 326.25827927504724 L 5.393398282201785 325.3933982822018 L 6.258279275047238 324.59391051599954 L 7.183221215612901 323.8647450843758 L 8.162521529260772 323.21039753468864 L 9.190142503906808 322.6349021371745 L 10.25974851452367 322.1418070123307 L 11.364745084375812 321.73415225557267 L 12.498319542161449 321.4144511940348 L 13.653483024396573 321.1846748910729 L 14.82311356408237 321.0462399940031 L 16.00000000000005 321 L 17.17688643591773 321.0462399940031 L 18.346516975603524 321.1846748910729 L 19.50168045783865 321.4144511940349 L 20.635254915624284 321.7341522555727 L 21.740251485476424 322.14180701233073 L 22.809857496093283 322.63490213717455 L 23.837478470739313 323.2103975346887 L 24.816778784387182 323.86474508437584 L 25.741720724952838 324.5939105159996 L 26.606601717798295 325.3933982822019 L 27.406089484000546 326.25827927504736 L 28.135254915624287 327.183221215613 L 28.789602465311454 328.16252152926086 L 29.365097862825586 329.19014250390694 L 29.85819298766936 330.2597485145238 L 30.26584774442735 331.36474508437595 L 30.58554880596519 332.4983195421616 L 30.81532510892709 333.6534830243967 L 30.953760005996934 334.8231135640825 Z" fill-opacity="1" stroke-opacity="1" stroke-miterlimit="10" stroke-width="2" stroke-dasharray="3,4"/><path fill="rgb(255,255,255)" stroke="rgb(236,85,88)" paint-order="fill stroke markers" d=" M 113 336 L 112.95376000599691 337.17688643591765 L 112.81532510892707 338.34651697560344 L 112.58554880596515 339.5016804578386 L 112.2658477444273 340.6352549156242 L 111.8581929876693 341.74025148547634 L 111.36509786282552 342.8098574960932 L 110.78960246531139 343.83747847073926 L 110.13525491562422 344.8167787843871 L 109.40608948400046 345.74172072495276 L 108.60660171779821 346.6066017177982 L 107.74172072495276 347.40608948400046 L 106.8167787843871 348.1352549156242 L 105.83747847073923 348.78960246531136 L 104.8098574960932 349.3650978628255 L 103.74025148547635 349.8581929876693 L 102.63525491562422 350.2658477444273 L 101.50168045783859 350.5855488059652 L 100.34651697560346 350.8153251089271 L 99.17688643591768 350.9537600059969 L 98 351 L 96.82311356408232 350.9537600059969 L 95.65348302439654 350.8153251089271 L 94.49831954216143 350.5855488059652 L 93.36474508437578 350.26584774442733 L 92.25974851452365 349.8581929876693 L 91.1901425039068 349.3650978628255 L 90.16252152926077 348.78960246531136 L 89.1832212156129 348.1352549156242 L 88.25827927504724 347.40608948400046 L 87.39339828220179 346.6066017177982 L 86.59391051599954 345.74172072495276 L 85.86474508437578 344.8167787843871 L 85.21039753468861 343.83747847073926 L 84.63490213717448 342.80985749609323 L 84.1418070123307 341.74025148547634 L 83.7341522555727 340.6352549156242 L 83.41445119403485 339.5016804578386 L 83.18467489107293 338.3465169756035 L 83.04623999400309 337.17688643591765 L 83 336 L 83.04623999400309 334.82311356408235 L 83.18467489107293 333.65348302439656 L 83.41445119403485 332.4983195421614 L 83.7341522555727 331.3647450843758 L 84.1418070123307 330.25974851452366 L 84.63490213717448 329.1901425039068 L 85.21039753468861 328.16252152926074 L 85.86474508437578 327.1832212156129 L 86.59391051599954 326.25827927504724 L 87.39339828220179 325.3933982822018 L 88.25827927504724 324.59391051599954 L 89.1832212156129 323.8647450843758 L 90.16252152926077 323.21039753468864 L 91.19014250390681 322.6349021371745 L 92.25974851452366 322.1418070123307 L 93.36474508437581 321.73415225557267 L 94.49831954216145 321.4144511940348 L 95.65348302439658 321.1846748910729 L 96.82311356408238 321.0462399940031 L 98.00000000000006 321 L 99.17688643591774 321.0462399940031 L 100.34651697560352 321.1846748910729 L 101.50168045783865 321.4144511940349 L 102.63525491562429 321.7341522555727 L 103.74025148547642 322.14180701233073 L 104.80985749609329 322.63490213717455 L 105.83747847073931 323.2103975346887 L 106.81677878438718 323.86474508437584 L 107.74172072495284 324.5939105159996 L 108.6066017177983 325.3933982822019 L 109.40608948400055 326.25827927504736 L 110.13525491562429 327.183221215613 L 110.78960246531145 328.16252152926086 L 111.36509786282558 329.19014250390694 L 111.85819298766936 330.2597485145238 L 112.26584774442735 331.36474508437595 L 112.58554880596519 332.4983195421616 L 112.8153251089271 333.6534830243967 L 112.95376000599694 334.8231135640825 Z" fill-opacity="1" stroke-opacity="1" stroke-miterlimit="10" stroke-width="2" stroke-dasharray="3,4"/><path fill="rgb(236,85,88)" stroke="none" paint-order="stroke fill markers" d=" M 154 175 L 153.9537600059969 176.17688643591768 L 153.81532510892706 177.34651697560346 L 153.58554880596515 178.50168045783857 L 153.2658477444273 179.63525491562422 L 152.8581929876693 180.74025148547634 L 152.3650978628255 181.8098574960932 L 151.7896024653114 182.83747847073923 L 151.13525491562422 183.8167787843871 L 150.40608948400046 184.74172072495276 L 149.6066017177982 185.6066017177982 L 148.74172072495276 186.40608948400046 L 147.8167787843871 187.13525491562422 L 146.83747847073923 187.7896024653114 L 145.8098574960932 188.3650978628255 L 144.74025148547634 188.8581929876693 L 143.63525491562422 189.2658477444273 L 142.50168045783857 189.58554880596515 L 141.34651697560346 189.81532510892706 L 140.17688643591768 189.9537600059969 L 139 190 L 137.82311356408232 189.9537600059969 L 136.65348302439654 189.81532510892706 L 135.49831954216143 189.58554880596515 L 134.36474508437578 189.2658477444273 L 133.25974851452366 188.8581929876693 L 132.1901425039068 188.3650978628255 L 131.16252152926077 187.7896024653114 L 130.18322121561292 187.13525491562422 L 129.25827927504724 186.40608948400046 L 128.3933982822018 185.6066017177982 L 127.59391051599954 184.74172072495276 L 126.86474508437578 183.8167787843871 L 126.21039753468861 182.83747847073923 L 125.63490213717448 181.8098574960932 L 125.1418070123307 180.74025148547634 L 124.7341522555727 179.63525491562422 L 124.41445119403485 178.50168045783857 L 124.18467489107293 177.34651697560346 L 124.04623999400309 176.17688643591768 L 124 175 L 124.04623999400309 173.82311356408232 L 124.18467489107293 172.65348302439654 L 124.41445119403485 171.49831954216143 L 124.7341522555727 170.36474508437578 L 125.1418070123307 169.25974851452366 L 125.63490213717448 168.1901425039068 L 126.21039753468861 167.16252152926077 L 126.86474508437578 166.18322121561292 L 127.59391051599954 165.25827927504724 L 128.3933982822018 164.3933982822018 L 129.25827927504724 163.59391051599954 L 130.1832212156129 162.86474508437578 L 131.16252152926077 162.2103975346886 L 132.1901425039068 161.63490213717446 L 133.25974851452366 161.1418070123307 L 134.3647450843758 160.7341522555727 L 135.49831954216145 160.41445119403485 L 136.65348302439656 160.18467489107292 L 137.82311356408238 160.0462399940031 L 139.00000000000006 160 L 140.17688643591774 160.0462399940031 L 141.34651697560352 160.18467489107294 L 142.50168045783866 160.41445119403485 L 143.63525491562427 160.73415225557272 L 144.74025148547642 161.14180701233073 L 145.8098574960933 161.63490213717452 L 146.8374784707393 162.21039753468867 L 147.81677878438717 162.86474508437584 L 148.74172072495284 163.5939105159996 L 149.6066017177983 164.39339828220187 L 150.40608948400055 165.25827927504733 L 151.1352549156243 166.183221215613 L 151.78960246531145 167.16252152926089 L 152.3650978628256 168.1901425039069 L 152.85819298766936 169.25974851452378 L 153.26584774442736 170.36474508437593 L 153.58554880596517 171.49831954216157 L 153.81532510892708 172.6534830243967 L 153.95376000599694 173.8231135640825 Z" fill-opacity="1"/><path fill="rgb(236,85,88)" stroke="none" paint-order="stroke fill markers" d=" M 236 255 L 235.9537600059969 256.17688643591765 L 235.81532510892706 257.34651697560344 L 235.58554880596515 258.5016804578386 L 235.2658477444273 259.6352549156242 L 234.8581929876693 260.74025148547634 L 234.3650978628255 261.8098574960932 L 233.7896024653114 262.83747847073926 L 233.13525491562422 263.8167787843871 L 232.40608948400046 264.74172072495276 L 231.6066017177982 265.6066017177982 L 230.74172072495276 266.40608948400046 L 229.8167787843871 267.1352549156242 L 228.83747847073923 267.78960246531136 L 227.8098574960932 268.3650978628255 L 226.74025148547634 268.8581929876693 L 225.63525491562422 269.2658477444273 L 224.50168045783857 269.5855488059652 L 223.34651697560346 269.8153251089271 L 222.17688643591768 269.9537600059969 L 221 270 L 219.82311356408232 269.9537600059969 L 218.65348302439654 269.8153251089271 L 217.49831954216143 269.5855488059652 L 216.36474508437578 269.26584774442733 L 215.25974851452366 268.8581929876693 L 214.1901425039068 268.3650978628255 L 213.16252152926077 267.78960246531136 L 212.18322121561292 267.1352549156242 L 211.25827927504724 266.40608948400046 L 210.3933982822018 265.6066017177982 L 209.59391051599954 264.74172072495276 L 208.86474508437578 263.8167787843871 L 208.2103975346886 262.83747847073926 L 207.6349021371745 261.80985749609323 L 207.1418070123307 260.74025148547634 L 206.7341522555727 259.6352549156242 L 206.41445119403485 258.5016804578386 L 206.18467489107294 257.3465169756035 L 206.0462399940031 256.17688643591765 L 206 255 L 206.0462399940031 253.82311356408232 L 206.18467489107294 252.65348302439654 L 206.41445119403485 251.49831954216143 L 206.7341522555727 250.36474508437578 L 207.1418070123307 249.25974851452366 L 207.6349021371745 248.1901425039068 L 208.2103975346886 247.16252152926077 L 208.86474508437578 246.18322121561292 L 209.59391051599954 245.25827927504724 L 210.3933982822018 244.3933982822018 L 211.25827927504724 243.59391051599954 L 212.1832212156129 242.86474508437578 L 213.16252152926077 242.2103975346886 L 214.1901425039068 241.63490213717446 L 215.25974851452366 241.1418070123307 L 216.3647450843758 240.7341522555727 L 217.49831954216145 240.41445119403485 L 218.65348302439656 240.18467489107292 L 219.82311356408238 240.0462399940031 L 221.00000000000006 240 L 222.17688643591774 240.0462399940031 L 223.34651697560352 240.18467489107294 L 224.50168045783866 240.41445119403485 L 225.63525491562427 240.73415225557272 L 226.74025148547642 241.14180701233073 L 227.8098574960933 241.63490213717452 L 228.8374784707393 242.21039753468867 L 229.81677878438717 242.86474508437584 L 230.74172072495284 243.5939105159996 L 231.6066017177983 244.39339828220187 L 232.40608948400055 245.25827927504733 L 233.1352549156243 246.183221215613 L 233.78960246531145 247.16252152926089 L 234.3650978628256 248.1901425039069 L 234.85819298766936 249.25974851452378 L 235.26584774442736 250.36474508437593 L 235.58554880596517 251.49831954216157 L 235.81532510892708 252.6534830243967 L 235.95376000599694 253.8231135640825 Z" fill-opacity="1"/><path fill="rgb(238,238,238)" stroke="none" paint-order="stroke fill markers" d=" M 74 175 L 73.95376000599691 176.17688643591768 L 73.81532510892707 177.34651697560346 L 73.58554880596515 178.50168045783857 L 73.2658477444273 179.63525491562422 L 72.8581929876693 180.74025148547634 L 72.36509786282552 181.8098574960932 L 71.78960246531139 182.83747847073923 L 71.13525491562422 183.8167787843871 L 70.40608948400046 184.74172072495276 L 69.60660171779821 185.6066017177982 L 68.74172072495276 186.40608948400046 L 67.8167787843871 187.13525491562422 L 66.83747847073923 187.7896024653114 L 65.8098574960932 188.3650978628255 L 64.74025148547635 188.8581929876693 L 63.63525491562421 189.2658477444273 L 62.50168045783858 189.58554880596515 L 61.346516975603464 189.81532510892706 L 60.17688643591767 189.9537600059969 L 59 190 L 57.82311356408233 189.9537600059969 L 56.653483024396536 189.81532510892706 L 55.49831954216142 189.58554880596515 L 54.36474508437579 189.2658477444273 L 53.25974851452365 188.8581929876693 L 52.1901425039068 188.3650978628255 L 51.16252152926077 187.7896024653114 L 50.1832212156129 187.13525491562422 L 49.258279275047244 186.40608948400046 L 48.39339828220179 185.6066017177982 L 47.59391051599954 184.74172072495276 L 46.86474508437579 183.8167787843871 L 46.21039753468862 182.83747847073923 L 45.634902137174485 181.8098574960932 L 45.1418070123307 180.74025148547634 L 44.734152255572695 179.63525491562422 L 44.414451194034854 178.50168045783857 L 44.18467489107294 177.34651697560346 L 44.04623999400308 176.17688643591768 L 44 175 L 44.04623999400308 173.82311356408232 L 44.18467489107293 172.65348302439654 L 44.414451194034854 171.49831954216143 L 44.734152255572695 170.36474508437578 L 45.141807012330695 169.25974851452366 L 45.63490213717448 168.1901425039068 L 46.21039753468862 167.16252152926077 L 46.864745084375784 166.18322121561292 L 47.59391051599953 165.25827927504724 L 48.39339828220179 164.3933982822018 L 49.25827927504724 163.59391051599954 L 50.1832212156129 162.86474508437578 L 51.16252152926077 162.2103975346886 L 52.190142503906806 161.63490213717446 L 53.25974851452367 161.1418070123307 L 54.36474508437581 160.7341522555727 L 55.49831954216145 160.41445119403485 L 56.65348302439657 160.18467489107292 L 57.82311356408237 160.0462399940031 L 59.00000000000005 160 L 60.17688643591773 160.0462399940031 L 61.34651697560353 160.18467489107294 L 62.50168045783865 160.41445119403485 L 63.63525491562429 160.73415225557272 L 64.74025148547642 161.14180701233073 L 65.80985749609329 161.63490213717452 L 66.83747847073931 162.21039753468867 L 67.81677878438718 162.86474508437584 L 68.74172072495284 163.5939105159996 L 69.6066017177983 164.39339828220187 L 70.40608948400055 165.25827927504733 L 71.13525491562429 166.183221215613 L 71.78960246531145 167.16252152926089 L 72.36509786282558 168.1901425039069 L 72.85819298766936 169.25974851452378 L 73.26584774442735 170.36474508437593 L 73.58554880596519 171.49831954216157 L 73.8153251089271 172.6534830243967 L 73.95376000599694 173.8231135640825 Z" fill-opacity="1"/><path fill="rgb(255,255,255)" stroke="rgb(236,85,88)" paint-order="fill stroke markers" d=" M 195 336 L 194.9537600059969 337.17688643591765 L 194.81532510892706 338.34651697560344 L 194.58554880596515 339.5016804578386 L 194.2658477444273 340.6352549156242 L 193.8581929876693 341.74025148547634 L 193.3650978628255 342.8098574960932 L 192.7896024653114 343.83747847073926 L 192.13525491562422 344.8167787843871 L 191.40608948400046 345.74172072495276 L 190.6066017177982 346.6066017177982 L 189.74172072495276 347.40608948400046 L 188.8167787843871 348.1352549156242 L 187.83747847073923 348.78960246531136 L 186.8098574960932 349.3650978628255 L 185.74025148547634 349.8581929876693 L 184.63525491562422 350.2658477444273 L 183.50168045783857 350.5855488059652 L 182.34651697560346 350.8153251089271 L 181.17688643591768 350.9537600059969 L 180 351 L 178.82311356408232 350.9537600059969 L 177.65348302439654 350.8153251089271 L 176.49831954216143 350.5855488059652 L 175.36474508437578 350.26584774442733 L 174.25974851452366 349.8581929876693 L 173.1901425039068 349.3650978628255 L 172.16252152926077 348.78960246531136 L 171.18322121561292 348.1352549156242 L 170.25827927504724 347.40608948400046 L 169.3933982822018 346.6066017177982 L 168.59391051599954 345.74172072495276 L 167.86474508437578 344.8167787843871 L 167.2103975346886 343.83747847073926 L 166.6349021371745 342.80985749609323 L 166.1418070123307 341.74025148547634 L 165.7341522555727 340.6352549156242 L 165.41445119403485 339.5016804578386 L 165.18467489107294 338.3465169756035 L 165.0462399940031 337.17688643591765 L 165 336 L 165.0462399940031 334.82311356408235 L 165.18467489107294 333.65348302439656 L 165.41445119403485 332.4983195421614 L 165.7341522555727 331.3647450843758 L 166.1418070123307 330.25974851452366 L 166.6349021371745 329.1901425039068 L 167.2103975346886 328.16252152926074 L 167.86474508437578 327.1832212156129 L 168.59391051599954 326.25827927504724 L 169.3933982822018 325.3933982822018 L 170.25827927504724 324.59391051599954 L 171.1832212156129 323.8647450843758 L 172.16252152926077 323.21039753468864 L 173.1901425039068 322.6349021371745 L 174.25974851452366 322.1418070123307 L 175.3647450843758 321.73415225557267 L 176.49831954216145 321.4144511940348 L 177.65348302439656 321.1846748910729 L 178.82311356408238 321.0462399940031 L 180.00000000000006 321 L 181.17688643591774 321.0462399940031 L 182.34651697560352 321.1846748910729 L 183.50168045783866 321.4144511940349 L 184.63525491562427 321.7341522555727 L 185.74025148547642 322.14180701233073 L 186.8098574960933 322.63490213717455 L 187.8374784707393 323.2103975346887 L 188.81677878438717 323.86474508437584 L 189.74172072495284 324.5939105159996 L 190.6066017177983 325.3933982822019 L 191.40608948400055 326.25827927504736 L 192.1352549156243 327.183221215613 L 192.78960246531145 328.16252152926086 L 193.3650978628256 329.19014250390694 L 193.85819298766936 330.2597485145238 L 194.26584774442736 331.36474508437595 L 194.58554880596517 332.4983195421616 L 194.81532510892708 333.6534830243967 L 194.95376000599694 334.8231135640825 Z" fill-opacity="1" stroke-opacity="1" stroke-miterlimit="10" stroke-width="2" stroke-dasharray="3,4"/><path fill="rgb(255,255,255)" stroke="rgb(236,85,88)" paint-order="fill stroke markers" d=" M 277 336 L 276.9537600059969 337.17688643591765 L 276.8153251089271 338.34651697560344 L 276.5855488059652 339.5016804578386 L 276.2658477444273 340.6352549156242 L 275.8581929876693 341.74025148547634 L 275.3650978628255 342.8098574960932 L 274.78960246531136 343.83747847073926 L 274.1352549156242 344.8167787843871 L 273.40608948400046 345.74172072495276 L 272.6066017177982 346.6066017177982 L 271.74172072495276 347.40608948400046 L 270.8167787843871 348.1352549156242 L 269.83747847073926 348.78960246531136 L 268.80985749609323 349.3650978628255 L 267.74025148547634 349.8581929876693 L 266.6352549156242 350.2658477444273 L 265.5016804578386 350.5855488059652 L 264.34651697560344 350.8153251089271 L 263.17688643591765 350.9537600059969 L 262 351 L 260.82311356408235 350.9537600059969 L 259.65348302439656 350.8153251089271 L 258.4983195421614 350.5855488059652 L 257.3647450843758 350.26584774442733 L 256.25974851452366 349.8581929876693 L 255.1901425039068 349.3650978628255 L 254.16252152926077 348.78960246531136 L 253.18322121561292 348.1352549156242 L 252.25827927504724 347.40608948400046 L 251.3933982822018 346.6066017177982 L 250.59391051599954 345.74172072495276 L 249.86474508437578 344.8167787843871 L 249.2103975346886 343.83747847073926 L 248.6349021371745 342.80985749609323 L 248.1418070123307 341.74025148547634 L 247.7341522555727 340.6352549156242 L 247.41445119403485 339.5016804578386 L 247.18467489107294 338.3465169756035 L 247.0462399940031 337.17688643591765 L 247 336 L 247.0462399940031 334.82311356408235 L 247.18467489107294 333.65348302439656 L 247.41445119403485 332.4983195421614 L 247.7341522555727 331.3647450843758 L 248.1418070123307 330.25974851452366 L 248.6349021371745 329.1901425039068 L 249.2103975346886 328.16252152926074 L 249.86474508437578 327.1832212156129 L 250.59391051599954 326.25827927504724 L 251.3933982822018 325.3933982822018 L 252.25827927504724 324.59391051599954 L 253.1832212156129 323.8647450843758 L 254.16252152926077 323.21039753468864 L 255.1901425039068 322.6349021371745 L 256.25974851452366 322.1418070123307 L 257.3647450843758 321.73415225557267 L 258.4983195421614 321.4144511940348 L 259.65348302439656 321.1846748910729 L 260.82311356408235 321.0462399940031 L 262.00000000000006 321 L 263.1768864359177 321.0462399940031 L 264.34651697560355 321.1846748910729 L 265.50168045783863 321.4144511940349 L 266.6352549156243 321.7341522555727 L 267.74025148547645 322.14180701233073 L 268.8098574960933 322.63490213717455 L 269.8374784707393 323.2103975346887 L 270.81677878438717 323.86474508437584 L 271.7417207249528 324.5939105159996 L 272.6066017177983 325.3933982822019 L 273.4060894840005 326.25827927504736 L 274.1352549156243 327.183221215613 L 274.7896024653115 328.16252152926086 L 275.36509786282556 329.19014250390694 L 275.8581929876694 330.2597485145238 L 276.26584774442733 331.36474508437595 L 276.5855488059652 332.4983195421616 L 276.8153251089271 333.6534830243967 L 276.9537600059969 334.8231135640825 Z" fill-opacity="1" stroke-opacity="1" stroke-miterlimit="10" stroke-width="2" stroke-dasharray="3,4"/><g transform="scale(0.5,0.5) translate(-2,-2)"/></g></g></svg>