<svg version="1.1" xmlns="http://www.w3.org/2000/svg" xmlns:xlink="http://www.w3.org/1999/xlink" width="638" height="716"><defs/><g><rect fill="white" stroke="none" x="0" y="0" width="638" height="716"/><g transform="translate(2,2) scale(2,2)"><path fill="none" stroke="rgb(236,85,88)" paint-order="fill stroke markers" d=" M 167.82772462800853 25.54051888591752 L 108.17227537199149 84.45948111408248" stroke-opacity="1" stroke-linejoin="round" stroke-miterlimit="10" stroke-width="3"/><path fill="none" stroke="rgb(236,85,88)" paint-order="fill stroke markers" d=" M 189.2046533349264 25.50763517538789 L 249.2953466650736 84.49236482461211" stroke-opacity="1" stroke-linejoin="round" stroke-miterlimit="10" stroke-width="3"/><path fill="none" stroke="rgb(236,85,88)" paint-order="fill stroke markers" d=" M 50.29179606750063 189.41640786499875 L 23.155417527999326 243.68916494400133" stroke-opacity="1" stroke-linejoin="round" stroke-miterlimit="10" stroke-width="2" stroke-dasharray="3,4"/><path fill="none" stroke="rgb(236,85,88)" paint-order="fill stroke markers" d=" M 63.70820393249937 189.41640786499875 L 90.84458247200067 243.68916494400133" stroke-opacity="1" stroke-linejoin="round" stroke-miterlimit="10" stroke-width="2" stroke-dasharray="3,4"/><path fill="none" stroke="rgb(236,85,88)" paint-order="fill stroke markers" d=" M 90.79179606750063 108.41640786499873 L 63.708203932499366 162.58359213500125" stroke-opacity="1" stroke-linejoin="round" stroke-miterlimit="10" stroke-width="3"/><path fill="none" stroke="rgb(236,85,88)" paint-order="fill stroke markers" d=" M 104.27421241877502 108.38320014440919 L 131.2741734199733 161.7245865126302" stroke-opacity="1" stroke-linejoin="round" stroke-miterlimit="10" stroke-width="2" stroke-dasharray="3,4"/><path fill="none" stroke="rgb(236,85,88)" paint-order="fill stroke markers" d=" M 172.29179606750063 271.41640786499875 L 145.15541752799933 325.68916494400133" stroke-opacity="1" stroke-linejoin="round" stroke-miterlimit="10" stroke-width="2" stroke-dasharray="3,4"/><path fill="none" stroke="rgb(236,85,88)" paint-order="fill stroke markers" d=" M 185.70820393249937 271.41640786499875 L 212.84458247200067 325.68916494400133" stroke-opacity="1" stroke-linejoin="round" stroke-miterlimit="10" stroke-width="2" stroke-dasharray="3,4"/><path fill="none" stroke="rgb(236,85,88)" paint-order="fill stroke markers" d=" M 212.85748139094665 189.44905002326854 L 185.64251860905335 244.55094997673146" stroke-opacity="1" stroke-linejoin="round" stroke-miterlimit="10" stroke-width="3"/><path fill="none" stroke="rgb(236,85,88)" paint-order="fill stroke markers" d=" M 226.14251860905335 189.44905002326854 L 252.91464681700973 243.65434664184687" stroke-opacity="1" stroke-linejoin="round" stroke-miterlimit="10" stroke-width="2" stroke-dasharray="3,4"/><path fill="none" stroke="rgb(236,85,88)" paint-order="fill stroke markers" d=" M 253.29179606750063 108.41640786499873 L 226.20820393249937 162.58359213500125" stroke-opacity="1" stroke-linejoin="round" stroke-miterlimit="10" stroke-width="3"/><path fill="none" stroke="rgb(236,85,88)" paint-order="fill stroke markers" d=" M 266.7082039324994 108.41640786499873 L 293.3445824720007 161.68916494400133" stroke-opacity="1" stroke-linejoin="round" stroke-miterlimit="10" stroke-width="2" stroke-dasharray="3,4"/><path fill="rgb(236,85,88)" stroke="none" paint-order="stroke fill markers" d=" M 193.5 15 L 193.4537600059969 16.176886435917673 L 193.31532510892706 17.346516975603464 L 193.08554880596515 18.50168045783858 L 192.7658477444273 19.63525491562421 L 192.3581929876693 20.740251485476346 L 191.8650978628255 21.8098574960932 L 191.2896024653114 22.83747847073923 L 190.63525491562422 23.816778784387097 L 189.90608948400046 24.741720724952756 L 189.1066017177982 25.606601717798213 L 188.24172072495276 26.406089484000464 L 187.3167787843871 27.135254915624213 L 186.33747847073923 27.789602465311383 L 185.3098574960932 28.365097862825515 L 184.24025148547634 28.8581929876693 L 183.13525491562422 29.265847744427305 L 182.00168045783857 29.585548805965146 L 180.84651697560346 29.815325108927066 L 179.67688643591768 29.95376000599692 L 178.5 30 L 177.32311356408232 29.95376000599692 L 176.15348302439654 29.815325108927066 L 174.99831954216143 29.58554880596515 L 173.86474508437578 29.265847744427305 L 172.75974851452366 28.8581929876693 L 171.6901425039068 28.365097862825518 L 170.66252152926077 27.789602465311383 L 169.68322121561292 27.135254915624213 L 168.75827927504724 26.406089484000468 L 167.8933982822018 25.606601717798213 L 167.09391051599954 24.741720724952756 L 166.36474508437578 23.816778784387097 L 165.7103975346886 22.837478470739235 L 165.1349021371745 21.8098574960932 L 164.6418070123307 20.74025148547635 L 164.2341522555727 19.635254915624213 L 163.91445119403485 18.50168045783858 L 163.68467489107294 17.346516975603464 L 163.5462399940031 16.176886435917677 L 163.5 15.000000000000002 L 163.5462399940031 13.823113564082327 L 163.68467489107294 12.65348302439654 L 163.91445119403485 11.49831954216142 L 164.2341522555727 10.364745084375791 L 164.6418070123307 9.259748514523654 L 165.1349021371745 8.190142503906799 L 165.7103975346886 7.162521529260769 L 166.36474508437578 6.183221215612905 L 167.09391051599954 5.258279275047247 L 167.8933982822018 4.3933982822017885 L 168.75827927504724 3.593910515999541 L 169.6832212156129 2.864745084375789 L 170.66252152926077 2.2103975346886138 L 171.6901425039068 1.6349021371744765 L 172.75974851452366 1.141807012330693 L 173.8647450843758 0.7341522555726883 L 174.99831954216145 0.414451194034843 L 176.15348302439656 0.18467489107292856 L 177.32311356408238 0.0462399940030771 L 178.50000000000006 0 L 179.67688643591774 0.04623999400308598 L 180.84651697560352 0.18467489107294277 L 182.00168045783866 0.4144511940348661 L 183.13525491562427 0.7341522555727202 L 184.24025148547642 1.1418070123307302 L 185.3098574960933 1.6349021371745227 L 186.3374784707393 2.210397534688667 L 187.31677878438717 2.8647450843758495 L 188.24172072495284 3.5939105159996068 L 189.1066017177983 4.39339828220187 L 189.90608948400055 5.258279275047338 L 190.6352549156243 6.183221215613008 L 191.28960246531145 7.162521529260883 L 191.8650978628256 8.190142503906925 L 192.35819298766936 9.259748514523793 L 192.76584774442736 10.364745084375937 L 193.08554880596517 11.498319542161578 L 193.31532510892708 12.653483024396705 L 193.45376000599694 13.823113564082501 Z" fill-opacity="1"/><path fill="rgb(236,85,88)" stroke="none" paint-order="stroke fill markers" d=" M 112.5 95 L 112.45376000599691 96.17688643591768 L 112.31532510892707 97.34651697560346 L 112.08554880596515 98.50168045783857 L 111.7658477444273 99.63525491562422 L 111.3581929876693 100.74025148547635 L 110.86509786282552 101.8098574960932 L 110.28960246531139 102.83747847073923 L 109.63525491562422 103.8167787843871 L 108.90608948400046 104.74172072495276 L 108.10660171779821 105.60660171779821 L 107.24172072495276 106.40608948400046 L 106.3167787843871 107.13525491562422 L 105.33747847073923 107.78960246531139 L 104.3098574960932 108.36509786282552 L 103.24025148547635 108.8581929876693 L 102.13525491562422 109.2658477444273 L 101.00168045783859 109.58554880596515 L 99.84651697560346 109.81532510892707 L 98.67688643591768 109.95376000599691 L 97.5 110 L 96.32311356408232 109.95376000599691 L 95.15348302439654 109.81532510892707 L 93.99831954216143 109.58554880596515 L 92.86474508437578 109.2658477444273 L 91.75974851452365 108.8581929876693 L 90.6901425039068 108.36509786282552 L 89.66252152926077 107.78960246531139 L 88.6832212156129 107.13525491562422 L 87.75827927504724 106.40608948400046 L 86.89339828220179 105.60660171779821 L 86.09391051599954 104.74172072495276 L 85.36474508437578 103.8167787843871 L 84.71039753468861 102.83747847073923 L 84.13490213717448 101.8098574960932 L 83.6418070123307 100.74025148547635 L 83.2341522555727 99.63525491562422 L 82.91445119403485 98.50168045783859 L 82.68467489107293 97.34651697560346 L 82.54623999400309 96.17688643591768 L 82.5 95 L 82.54623999400309 93.82311356408233 L 82.68467489107293 92.65348302439654 L 82.91445119403485 91.49831954216143 L 83.2341522555727 90.36474508437578 L 83.6418070123307 89.25974851452365 L 84.13490213717448 88.1901425039068 L 84.71039753468861 87.16252152926077 L 85.36474508437578 86.1832212156129 L 86.09391051599954 85.25827927504724 L 86.89339828220179 84.39339828220179 L 87.75827927504724 83.59391051599954 L 88.6832212156129 82.86474508437578 L 89.66252152926077 82.21039753468861 L 90.69014250390681 81.63490213717448 L 91.75974851452366 81.14180701233069 L 92.86474508437581 80.7341522555727 L 93.99831954216145 80.41445119403484 L 95.15348302439658 80.18467489107293 L 96.32311356408238 80.04623999400307 L 97.50000000000006 80 L 98.67688643591774 80.04623999400309 L 99.84651697560352 80.18467489107294 L 101.00168045783865 80.41445119403487 L 102.13525491562429 80.73415225557272 L 103.24025148547642 81.14180701233073 L 104.30985749609329 81.63490213717452 L 105.33747847073931 82.21039753468867 L 106.31677878438718 82.86474508437585 L 107.24172072495284 83.59391051599961 L 108.1066017177983 84.39339828220187 L 108.90608948400055 85.25827927504734 L 109.63525491562429 86.183221215613 L 110.28960246531145 87.16252152926089 L 110.86509786282558 88.19014250390693 L 111.35819298766936 89.25974851452379 L 111.76584774442735 90.36474508437594 L 112.08554880596519 91.49831954216158 L 112.3153251089271 92.6534830243967 L 112.45376000599694 93.8231135640825 Z" fill-opacity="1"/><path fill="rgb(236,85,88)" stroke="none" paint-order="stroke fill markers" d=" M 275 95 L 274.9537600059969 96.17688643591768 L 274.8153251089271 97.34651697560346 L 274.5855488059652 98.50168045783857 L 274.2658477444273 99.63525491562422 L 273.8581929876693 100.74025148547635 L 273.3650978628255 101.8098574960932 L 272.78960246531136 102.83747847073923 L 272.1352549156242 103.8167787843871 L 271.40608948400046 104.74172072495276 L 270.6066017177982 105.60660171779821 L 269.74172072495276 106.40608948400046 L 268.8167787843871 107.13525491562422 L 267.83747847073926 107.78960246531139 L 266.80985749609323 108.36509786282552 L 265.74025148547634 108.8581929876693 L 264.6352549156242 109.2658477444273 L 263.5016804578386 109.58554880596515 L 262.34651697560344 109.81532510892707 L 261.17688643591765 109.95376000599691 L 260 110 L 258.82311356408235 109.95376000599691 L 257.65348302439656 109.81532510892707 L 256.4983195421614 109.58554880596515 L 255.36474508437578 109.2658477444273 L 254.25974851452366 108.8581929876693 L 253.1901425039068 108.36509786282552 L 252.16252152926077 107.78960246531139 L 251.18322121561292 107.13525491562422 L 250.25827927504724 106.40608948400046 L 249.3933982822018 105.60660171779821 L 248.59391051599954 104.74172072495276 L 247.86474508437578 103.8167787843871 L 247.2103975346886 102.83747847073923 L 246.6349021371745 101.8098574960932 L 246.1418070123307 100.74025148547635 L 245.7341522555727 99.63525491562422 L 245.41445119403485 98.50168045783859 L 245.18467489107294 97.34651697560346 L 245.0462399940031 96.17688643591768 L 245 95 L 245.0462399940031 93.82311356408233 L 245.18467489107294 92.65348302439654 L 245.41445119403485 91.49831954216143 L 245.7341522555727 90.36474508437578 L 246.1418070123307 89.25974851452365 L 246.6349021371745 88.1901425039068 L 247.2103975346886 87.16252152926077 L 247.86474508437578 86.1832212156129 L 248.59391051599954 85.25827927504724 L 249.3933982822018 84.39339828220179 L 250.25827927504724 83.59391051599954 L 251.1832212156129 82.86474508437578 L 252.16252152926077 82.21039753468861 L 253.1901425039068 81.63490213717448 L 254.25974851452366 81.14180701233069 L 255.3647450843758 80.7341522555727 L 256.4983195421614 80.41445119403484 L 257.65348302439656 80.18467489107293 L 258.82311356408235 80.04623999400307 L 260.00000000000006 80 L 261.1768864359177 80.04623999400309 L 262.34651697560355 80.18467489107294 L 263.50168045783863 80.41445119403487 L 264.6352549156243 80.73415225557272 L 265.74025148547645 81.14180701233073 L 266.8098574960933 81.63490213717452 L 267.8374784707393 82.21039753468867 L 268.81677878438717 82.86474508437585 L 269.7417207249528 83.59391051599961 L 270.6066017177983 84.39339828220187 L 271.4060894840005 85.25827927504734 L 272.1352549156243 86.183221215613 L 272.7896024653115 87.16252152926089 L 273.36509786282556 88.19014250390693 L 273.8581929876694 89.25974851452379 L 274.26584774442733 90.36474508437594 L 274.5855488059652 91.49831954216158 L 274.8153251089271 92.6534830243967 L 274.9537600059969 93.8231135640825 Z" fill-opacity="1"/><path fill="rgb(236,85,88)" stroke="none" paint-order="stroke fill markers" d=" M 72 176 L 71.95376000599691 177.17688643591768 L 71.81532510892707 178.34651697560346 L 71.58554880596515 179.50168045783857 L 71.2658477444273 180.63525491562422 L 70.8581929876693 181.74025148547634 L 70.36509786282552 182.8098574960932 L 69.78960246531139 183.83747847073923 L 69.13525491562422 184.8167787843871 L 68.40608948400046 185.74172072495276 L 67.60660171779821 186.6066017177982 L 66.74172072495276 187.40608948400046 L 65.8167787843871 188.13525491562422 L 64.83747847073923 188.7896024653114 L 63.8098574960932 189.3650978628255 L 62.74025148547635 189.8581929876693 L 61.63525491562421 190.2658477444273 L 60.50168045783858 190.58554880596515 L 59.346516975603464 190.81532510892706 L 58.17688643591767 190.9537600059969 L 57 191 L 55.82311356408233 190.9537600059969 L 54.653483024396536 190.81532510892706 L 53.49831954216142 190.58554880596515 L 52.36474508437579 190.2658477444273 L 51.25974851452365 189.8581929876693 L 50.1901425039068 189.3650978628255 L 49.16252152926077 188.7896024653114 L 48.1832212156129 188.13525491562422 L 47.258279275047244 187.40608948400046 L 46.39339828220179 186.6066017177982 L 45.59391051599954 185.74172072495276 L 44.86474508437579 184.8167787843871 L 44.21039753468862 183.83747847073923 L 43.634902137174485 182.8098574960932 L 43.1418070123307 181.74025148547634 L 42.734152255572695 180.63525491562422 L 42.414451194034854 179.50168045783857 L 42.18467489107294 178.34651697560346 L 42.04623999400308 177.17688643591768 L 42 176 L 42.04623999400308 174.82311356408232 L 42.18467489107293 173.65348302439654 L 42.414451194034854 172.49831954216143 L 42.734152255572695 171.36474508437578 L 43.141807012330695 170.25974851452366 L 43.63490213717448 169.1901425039068 L 44.21039753468862 168.16252152926077 L 44.864745084375784 167.18322121561292 L 45.59391051599953 166.25827927504724 L 46.39339828220179 165.3933982822018 L 47.25827927504724 164.59391051599954 L 48.1832212156129 163.86474508437578 L 49.16252152926077 163.2103975346886 L 50.190142503906806 162.63490213717446 L 51.25974851452367 162.1418070123307 L 52.36474508437581 161.7341522555727 L 53.49831954216145 161.41445119403485 L 54.65348302439657 161.18467489107292 L 55.82311356408237 161.0462399940031 L 57.00000000000005 161 L 58.17688643591773 161.0462399940031 L 59.34651697560353 161.18467489107294 L 60.50168045783865 161.41445119403485 L 61.63525491562429 161.73415225557272 L 62.74025148547642 162.14180701233073 L 63.80985749609328 162.63490213717452 L 64.83747847073931 163.21039753468867 L 65.81677878438718 163.86474508437584 L 66.74172072495284 164.5939105159996 L 67.6066017177983 165.39339828220187 L 68.40608948400055 166.25827927504733 L 69.13525491562429 167.183221215613 L 69.78960246531145 168.16252152926089 L 70.36509786282558 169.1901425039069 L 70.85819298766936 170.25974851452378 L 71.26584774442735 171.36474508437593 L 71.58554880596519 172.49831954216157 L 71.8153251089271 173.6534830243967 L 71.95376000599694 174.8231135640825 Z" fill-opacity="1"/><path fill="rgb(255,255,255)" stroke="rgb(236,85,88)" paint-order="fill stroke markers" d=" M 31 258 L 30.95376000599692 259.17688643591765 L 30.815325108927066 260.34651697560344 L 30.585548805965146 261.5016804578386 L 30.265847744427305 262.6352549156242 L 29.8581929876693 263.74025148547634 L 29.365097862825518 264.8098574960932 L 28.789602465311383 265.83747847073926 L 28.135254915624213 266.8167787843871 L 27.406089484000464 267.74172072495276 L 26.606601717798213 268.6066017177982 L 25.741720724952756 269.40608948400046 L 24.816778784387097 270.1352549156242 L 23.837478470739235 270.78960246531136 L 22.8098574960932 271.3650978628255 L 21.74025148547635 271.8581929876693 L 20.635254915624213 272.2658477444273 L 19.50168045783858 272.5855488059652 L 18.346516975603464 272.8153251089271 L 17.176886435917673 272.9537600059969 L 16 273 L 14.823113564082327 272.9537600059969 L 13.653483024396538 272.8153251089271 L 12.49831954216142 272.5855488059652 L 11.364745084375791 272.26584774442733 L 10.259748514523654 271.8581929876693 L 9.190142503906799 271.3650978628255 L 8.162521529260768 270.78960246531136 L 7.183221215612905 270.1352549156242 L 6.258279275047247 269.40608948400046 L 5.3933982822017885 268.6066017177982 L 4.593910515999536 267.74172072495276 L 3.864745084375789 266.8167787843871 L 3.2103975346886173 265.83747847073926 L 2.6349021371744836 264.80985749609323 L 2.1418070123306983 263.74025148547634 L 1.7341522555726971 262.6352549156242 L 1.4144511940348519 261.5016804578386 L 1.1846748910729357 260.3465169756035 L 1.0462399940030807 259.17688643591765 L 1 258 L 1.0462399940030807 256.82311356408235 L 1.1846748910729339 255.65348302439654 L 1.41445119403485 254.49831954216143 L 1.7341522555726954 253.36474508437578 L 2.1418070123306965 252.25974851452366 L 2.634902137174482 251.1901425039068 L 3.2103975346886156 250.16252152926077 L 3.8647450843757873 249.18322121561292 L 4.593910515999534 248.25827927504724 L 5.393398282201785 247.3933982822018 L 6.258279275047238 246.59391051599954 L 7.183221215612901 245.86474508437578 L 8.162521529260772 245.2103975346886 L 9.190142503906808 244.63490213717446 L 10.25974851452367 244.1418070123307 L 11.364745084375812 243.7341522555727 L 12.498319542161449 243.41445119403485 L 13.653483024396573 243.18467489107292 L 14.82311356408237 243.0462399940031 L 16.00000000000005 243 L 17.17688643591773 243.0462399940031 L 18.346516975603524 243.18467489107294 L 19.50168045783865 243.41445119403485 L 20.635254915624284 243.73415225557272 L 21.740251485476424 244.14180701233073 L 22.809857496093283 244.63490213717452 L 23.837478470739313 245.21039753468867 L 24.816778784387182 245.86474508437584 L 25.741720724952838 246.5939105159996 L 26.606601717798295 247.39339828220187 L 27.406089484000546 248.25827927504733 L 28.135254915624287 249.183221215613 L 28.789602465311454 250.16252152926089 L 29.365097862825586 251.1901425039069 L 29.85819298766936 252.25974851452378 L 30.26584774442735 253.36474508437593 L 30.58554880596519 254.49831954216157 L 30.81532510892709 255.6534830243967 L 30.953760005996934 256.8231135640825 Z" fill-opacity="1" stroke-opacity="1" stroke-miterlimit="10" stroke-width="2" stroke-dasharray="3,4"/><path fill="rgb(255,255,255)" stroke="rgb(236,85,88)" paint-order="fill stroke markers" d=" M 113 258 L 112.95376000599691 259.17688643591765 L 112.81532510892707 260.34651697560344 L 112.58554880596515 261.5016804578386 L 112.2658477444273 262.6352549156242 L 111.8581929876693 263.74025148547634 L 111.36509786282552 264.8098574960932 L 110.78960246531139 265.83747847073926 L 110.13525491562422 266.8167787843871 L 109.40608948400046 267.74172072495276 L 108.60660171779821 268.6066017177982 L 107.74172072495276 269.40608948400046 L 106.8167787843871 270.1352549156242 L 105.83747847073923 270.78960246531136 L 104.8098574960932 271.3650978628255 L 103.74025148547635 271.8581929876693 L 102.63525491562422 272.2658477444273 L 101.50168045783859 272.5855488059652 L 100.34651697560346 272.8153251089271 L 99.17688643591768 272.9537600059969 L 98 273 L 96.82311356408232 272.9537600059969 L 95.65348302439654 272.8153251089271 L 94.49831954216143 272.5855488059652 L 93.36474508437578 272.26584774442733 L 92.25974851452365 271.8581929876693 L 91.1901425039068 271.3650978628255 L 90.16252152926077 270.78960246531136 L 89.1832212156129 270.1352549156242 L 88.25827927504724 269.40608948400046 L 87.39339828220179 268.6066017177982 L 86.59391051599954 267.74172072495276 L 85.86474508437578 266.8167787843871 L 85.21039753468861 265.83747847073926 L 84.63490213717448 264.80985749609323 L 84.1418070123307 263.74025148547634 L 83.7341522555727 262.6352549156242 L 83.41445119403485 261.5016804578386 L 83.18467489107293 260.3465169756035 L 83.04623999400309 259.17688643591765 L 83 258 L 83.04623999400309 256.82311356408235 L 83.18467489107293 255.65348302439654 L 83.41445119403485 254.49831954216143 L 83.7341522555727 253.36474508437578 L 84.1418070123307 252.25974851452366 L 84.63490213717448 251.1901425039068 L 85.21039753468861 250.16252152926077 L 85.86474508437578 249.18322121561292 L 86.59391051599954 248.25827927504724 L 87.39339828220179 247.3933982822018 L 88.25827927504724 246.59391051599954 L 89.1832212156129 245.86474508437578 L 90.16252152926077 245.2103975346886 L 91.19014250390681 244.63490213717446 L 92.25974851452366 244.1418070123307 L 93.36474508437581 243.7341522555727 L 94.49831954216145 243.41445119403485 L 95.65348302439658 243.18467489107292 L 96.82311356408238 243.0462399940031 L 98.00000000000006 243 L 99.17688643591774 243.0462399940031 L 100.34651697560352 243.18467489107294 L 101.50168045783865 243.41445119403485 L 102.63525491562429 243.73415225557272 L 103.74025148547642 244.14180701233073 L 104.80985749609329 244.63490213717452 L 105.83747847073931 245.21039753468867 L 106.81677878438718 245.86474508437584 L 107.74172072495284 246.5939105159996 L 108.6066017177983 247.39339828220187 L 109.40608948400055 248.25827927504733 L 110.13525491562429 249.183221215613 L 110.78960246531145 250.16252152926089 L 111.36509786282558 251.1901425039069 L 111.85819298766936 252.25974851452378 L 112.26584774442735 253.36474508437593 L 112.58554880596519 254.49831954216157 L 112.8153251089271 255.6534830243967 L 112.95376000599694 256.8231135640825 Z" fill-opacity="1" stroke-opacity="1" stroke-miterlimit="10" stroke-width="2" stroke-dasharray="3,4"/><path fill="rgb(255,255,255)" stroke="rgb(236,85,88)" paint-order="fill stroke markers" d=" M 153.5 176 L 153.4537600059969 177.17688643591768 L 153.31532510892706 178.34651697560346 L 153.08554880596515 179.50168045783857 L 152.7658477444273 180.63525491562422 L 152.3581929876693 181.74025148547634 L 151.8650978628255 182.8098574960932 L 151.2896024653114 183.83747847073923 L 150.63525491562422 184.8167787843871 L 149.90608948400046 185.74172072495276 L 149.1066017177982 186.6066017177982 L 148.24172072495276 187.40608948400046 L 147.3167787843871 188.13525491562422 L 146.33747847073923 188.7896024653114 L 145.3098574960932 189.3650978628255 L 144.24025148547634 189.8581929876693 L 143.13525491562422 190.2658477444273 L 142.00168045783857 190.58554880596515 L 140.84651697560346 190.81532510892706 L 139.67688643591768 190.9537600059969 L 138.5 191 L 137.32311356408232 190.9537600059969 L 136.15348302439654 190.81532510892706 L 134.99831954216143 190.58554880596515 L 133.86474508437578 190.2658477444273 L 132.75974851452366 189.8581929876693 L 131.6901425039068 189.3650978628255 L 130.66252152926077 188.7896024653114 L 129.68322121561292 188.13525491562422 L 128.75827927504724 187.40608948400046 L 127.89339828220179 186.6066017177982 L 127.09391051599954 185.74172072495276 L 126.36474508437578 184.8167787843871 L 125.71039753468861 183.83747847073923 L 125.13490213717448 182.8098574960932 L 124.6418070123307 181.74025148547634 L 124.2341522555727 180.63525491562422 L 123.91445119403485 179.50168045783857 L 123.68467489107293 178.34651697560346 L 123.54623999400309 177.17688643591768 L 123.5 176 L 123.54623999400309 174.82311356408232 L 123.68467489107293 173.65348302439654 L 123.91445119403485 172.49831954216143 L 124.2341522555727 171.36474508437578 L 124.6418070123307 170.25974851452366 L 125.13490213717448 169.1901425039068 L 125.71039753468861 168.16252152926077 L 126.36474508437578 167.18322121561292 L 127.09391051599954 166.25827927504724 L 127.89339828220179 165.3933982822018 L 128.75827927504724 164.59391051599954 L 129.6832212156129 163.86474508437578 L 130.66252152926077 163.2103975346886 L 131.6901425039068 162.63490213717446 L 132.75974851452366 162.1418070123307 L 133.8647450843758 161.7341522555727 L 134.99831954216145 161.41445119403485 L 136.15348302439656 161.18467489107292 L 137.32311356408238 161.0462399940031 L 138.50000000000006 161 L 139.67688643591774 161.0462399940031 L 140.84651697560352 161.18467489107294 L 142.00168045783866 161.41445119403485 L 143.13525491562427 161.73415225557272 L 144.24025148547642 162.14180701233073 L 145.3098574960933 162.63490213717452 L 146.3374784707393 163.21039753468867 L 147.31677878438717 163.86474508437584 L 148.24172072495284 164.5939105159996 L 149.1066017177983 165.39339828220187 L 149.90608948400055 166.25827927504733 L 150.6352549156243 167.183221215613 L 151.28960246531145 168.16252152926089 L 151.8650978628256 169.1901425039069 L 152.35819298766936 170.25974851452378 L 152.76584774442736 171.36474508437593 L 153.08554880596517 172.49831954216157 L 153.31532510892708 173.6534830243967 L 153.45376000599694 174.8231135640825 Z" fill-opacity="1" stroke-opacity="1" stroke-miterlimit="10" stroke-width="2" stroke-dasharray="3,4"/><path fill="rgb(236,85,88)" stroke="none" paint-order="stroke fill markers" d=" M 194 258 L 193.9537600059969 259.17688643591765 L 193.81532510892706 260.34651697560344 L 193.58554880596515 261.5016804578386 L 193.2658477444273 262.6352549156242 L 192.8581929876693 263.74025148547634 L 192.3650978628255 264.8098574960932 L 191.7896024653114 265.83747847073926 L 191.13525491562422 266.8167787843871 L 190.40608948400046 267.74172072495276 L 189.6066017177982 268.6066017177982 L 188.74172072495276 269.40608948400046 L 187.8167787843871 270.1352549156242 L 186.83747847073923 270.78960246531136 L 185.8098574960932 271.3650978628255 L 184.74025148547634 271.8581929876693 L 183.63525491562422 272.2658477444273 L 182.50168045783857 272.5855488059652 L 181.34651697560346 272.8153251089271 L 180.17688643591768 272.9537600059969 L 179 273 L 177.82311356408232 272.9537600059969 L 176.65348302439654 272.8153251089271 L 175.49831954216143 272.5855488059652 L 174.36474508437578 272.26584774442733 L 173.25974851452366 271.8581929876693 L 172.1901425039068 271.3650978628255 L 171.16252152926077 270.78960246531136 L 170.18322121561292 270.1352549156242 L 169.25827927504724 269.40608948400046 L 168.3933982822018 268.6066017177982 L 167.59391051599954 267.74172072495276 L 166.86474508437578 266.8167787843871 L 166.2103975346886 265.83747847073926 L 165.6349021371745 264.80985749609323 L 165.1418070123307 263.74025148547634 L 164.7341522555727 262.6352549156242 L 164.41445119403485 261.5016804578386 L 164.18467489107294 260.3465169756035 L 164.0462399940031 259.17688643591765 L 164 258 L 164.0462399940031 256.82311356408235 L 164.18467489107294 255.65348302439654 L 164.41445119403485 254.49831954216143 L 164.7341522555727 253.36474508437578 L 165.1418070123307 252.25974851452366 L 165.6349021371745 251.1901425039068 L 166.2103975346886 250.16252152926077 L 166.86474508437578 249.18322121561292 L 167.59391051599954 248.25827927504724 L 168.3933982822018 247.3933982822018 L 169.25827927504724 246.59391051599954 L 170.1832212156129 245.86474508437578 L 171.16252152926077 245.2103975346886 L 172.1901425039068 244.63490213717446 L 173.25974851452366 244.1418070123307 L 174.3647450843758 243.7341522555727 L 175.49831954216145 243.41445119403485 L 176.65348302439656 243.18467489107292 L 177.82311356408238 243.0462399940031 L 179.00000000000006 243 L 180.17688643591774 243.0462399940031 L 181.34651697560352 243.18467489107294 L 182.50168045783866 243.41445119403485 L 183.63525491562427 243.73415225557272 L 184.74025148547642 244.14180701233073 L 185.8098574960933 244.63490213717452 L 186.8374784707393 245.21039753468867 L 187.81677878438717 245.86474508437584 L 188.74172072495284 246.5939105159996 L 189.6066017177983 247.39339828220187 L 190.40608948400055 248.25827927504733 L 191.1352549156243 249.183221215613 L 191.78960246531145 250.16252152926089 L 192.3650978628256 251.1901425039069 L 192.85819298766936 252.25974851452378 L 193.26584774442736 253.36474508437593 L 193.58554880596517 254.49831954216157 L 193.81532510892708 255.6534830243967 L 193.95376000599694 256.8231135640825 Z" fill-opacity="1"/><path fill="rgb(255,255,255)" stroke="rgb(236,85,88)" paint-order="fill stroke markers" d=" M 153 340 L 152.9537600059969 341.17688643591765 L 152.81532510892706 342.34651697560344 L 152.58554880596515 343.5016804578386 L 152.2658477444273 344.6352549156242 L 151.8581929876693 345.74025148547634 L 151.3650978628255 346.8098574960932 L 150.7896024653114 347.83747847073926 L 150.13525491562422 348.8167787843871 L 149.40608948400046 349.74172072495276 L 148.6066017177982 350.6066017177982 L 147.74172072495276 351.40608948400046 L 146.8167787843871 352.1352549156242 L 145.83747847073923 352.78960246531136 L 144.8098574960932 353.3650978628255 L 143.74025148547634 353.8581929876693 L 142.63525491562422 354.2658477444273 L 141.50168045783857 354.5855488059652 L 140.34651697560346 354.8153251089271 L 139.17688643591768 354.9537600059969 L 138 355 L 136.82311356408232 354.9537600059969 L 135.65348302439654 354.8153251089271 L 134.49831954216143 354.5855488059652 L 133.36474508437578 354.26584774442733 L 132.25974851452366 353.8581929876693 L 131.1901425039068 353.3650978628255 L 130.16252152926077 352.78960246531136 L 129.18322121561292 352.1352549156242 L 128.25827927504724 351.40608948400046 L 127.39339828220179 350.6066017177982 L 126.59391051599954 349.74172072495276 L 125.86474508437578 348.8167787843871 L 125.21039753468861 347.83747847073926 L 124.63490213717448 346.80985749609323 L 124.1418070123307 345.74025148547634 L 123.7341522555727 344.6352549156242 L 123.41445119403485 343.5016804578386 L 123.18467489107293 342.3465169756035 L 123.04623999400309 341.17688643591765 L 123 340 L 123.04623999400309 338.82311356408235 L 123.18467489107293 337.65348302439656 L 123.41445119403485 336.4983195421614 L 123.7341522555727 335.3647450843758 L 124.1418070123307 334.25974851452366 L 124.63490213717448 333.1901425039068 L 125.21039753468861 332.16252152926074 L 125.86474508437578 331.1832212156129 L 126.59391051599954 330.25827927504724 L 127.39339828220179 329.3933982822018 L 128.25827927504724 328.59391051599954 L 129.1832212156129 327.8647450843758 L 130.16252152926077 327.21039753468864 L 131.1901425039068 326.6349021371745 L 132.25974851452366 326.1418070123307 L 133.3647450843758 325.73415225557267 L 134.49831954216145 325.4144511940348 L 135.65348302439656 325.1846748910729 L 136.82311356408238 325.0462399940031 L 138.00000000000006 325 L 139.17688643591774 325.0462399940031 L 140.34651697560352 325.1846748910729 L 141.50168045783866 325.4144511940349 L 142.63525491562427 325.7341522555727 L 143.74025148547642 326.14180701233073 L 144.8098574960933 326.63490213717455 L 145.8374784707393 327.2103975346887 L 146.81677878438717 327.86474508437584 L 147.74172072495284 328.5939105159996 L 148.6066017177983 329.3933982822019 L 149.40608948400055 330.25827927504736 L 150.1352549156243 331.183221215613 L 150.78960246531145 332.16252152926086 L 151.3650978628256 333.19014250390694 L 151.85819298766936 334.2597485145238 L 152.26584774442736 335.36474508437595 L 152.58554880596517 336.4983195421616 L 152.81532510892708 337.6534830243967 L 152.95376000599694 338.8231135640825 Z" fill-opacity="1" stroke-opacity="1" stroke-miterlimit="10" stroke-width="2" stroke-dasharray="3,4"/><path fill="rgb(255,255,255)" stroke="rgb(236,85,88)" paint-order="fill stroke markers" d=" M 235 340 L 234.9537600059969 341.17688643591765 L 234.81532510892706 342.34651697560344 L 234.58554880596515 343.5016804578386 L 234.2658477444273 344.6352549156242 L 233.8581929876693 345.74025148547634 L 233.3650978628255 346.8098574960932 L 232.7896024653114 347.83747847073926 L 232.13525491562422 348.8167787843871 L 231.40608948400046 349.74172072495276 L 230.6066017177982 350.6066017177982 L 229.74172072495276 351.40608948400046 L 228.8167787843871 352.1352549156242 L 227.83747847073923 352.78960246531136 L 226.8098574960932 353.3650978628255 L 225.74025148547634 353.8581929876693 L 224.63525491562422 354.2658477444273 L 223.50168045783857 354.5855488059652 L 222.34651697560346 354.8153251089271 L 221.17688643591768 354.9537600059969 L 220 355 L 218.82311356408232 354.9537600059969 L 217.65348302439654 354.8153251089271 L 216.49831954216143 354.5855488059652 L 215.36474508437578 354.26584774442733 L 214.25974851452366 353.8581929876693 L 213.1901425039068 353.3650978628255 L 212.16252152926077 352.78960246531136 L 211.18322121561292 352.1352549156242 L 210.25827927504724 351.40608948400046 L 209.3933982822018 350.6066017177982 L 208.59391051599954 349.74172072495276 L 207.86474508437578 348.8167787843871 L 207.2103975346886 347.83747847073926 L 206.6349021371745 346.80985749609323 L 206.1418070123307 345.74025148547634 L 205.7341522555727 344.6352549156242 L 205.41445119403485 343.5016804578386 L 205.18467489107294 342.3465169756035 L 205.0462399940031 341.17688643591765 L 205 340 L 205.0462399940031 338.82311356408235 L 205.18467489107294 337.65348302439656 L 205.41445119403485 336.4983195421614 L 205.7341522555727 335.3647450843758 L 206.1418070123307 334.25974851452366 L 206.6349021371745 333.1901425039068 L 207.2103975346886 332.16252152926074 L 207.86474508437578 331.1832212156129 L 208.59391051599954 330.25827927504724 L 209.3933982822018 329.3933982822018 L 210.25827927504724 328.59391051599954 L 211.1832212156129 327.8647450843758 L 212.16252152926077 327.21039753468864 L 213.1901425039068 326.6349021371745 L 214.25974851452366 326.1418070123307 L 215.3647450843758 325.73415225557267 L 216.49831954216145 325.4144511940348 L 217.65348302439656 325.1846748910729 L 218.82311356408238 325.0462399940031 L 220.00000000000006 325 L 221.17688643591774 325.0462399940031 L 222.34651697560352 325.1846748910729 L 223.50168045783866 325.4144511940349 L 224.63525491562427 325.7341522555727 L 225.74025148547642 326.14180701233073 L 226.8098574960933 326.63490213717455 L 227.8374784707393 327.2103975346887 L 228.81677878438717 327.86474508437584 L 229.74172072495284 328.5939105159996 L 230.6066017177983 329.3933982822019 L 231.40608948400055 330.25827927504736 L 232.1352549156243 331.183221215613 L 232.78960246531145 332.16252152926086 L 233.3650978628256 333.19014250390694 L 233.85819298766936 334.2597485145238 L 234.26584774442736 335.36474508437595 L 234.58554880596517 336.4983195421616 L 234.81532510892708 337.6534830243967 L 234.95376000599694 338.8231135640825 Z" fill-opacity="1" stroke-opacity="1" stroke-miterlimit="10" stroke-width="2" stroke-dasharray="3,4"/><path fill="rgb(236,85,88)" stroke="none" paint-order="stroke fill markers" d=" M 234.5 176 L 234.4537600059969 177.17688643591768 L 234.31532510892706 178.34651697560346 L 234.08554880596515 179.50168045783857 L 233.7658477444273 180.63525491562422 L 233.3581929876693 181.74025148547634 L 232.8650978628255 182.8098574960932 L 232.2896024653114 183.83747847073923 L 231.63525491562422 184.8167787843871 L 230.90608948400046 185.74172072495276 L 230.1066017177982 186.6066017177982 L 229.24172072495276 187.40608948400046 L 228.3167787843871 188.13525491562422 L 227.33747847073923 188.7896024653114 L 226.3098574960932 189.3650978628255 L 225.24025148547634 189.8581929876693 L 224.13525491562422 190.2658477444273 L 223.00168045783857 190.58554880596515 L 221.84651697560346 190.81532510892706 L 220.67688643591768 190.9537600059969 L 219.5 191 L 218.32311356408232 190.9537600059969 L 217.15348302439654 190.81532510892706 L 215.99831954216143 190.58554880596515 L 214.86474508437578 190.2658477444273 L 213.75974851452366 189.8581929876693 L 212.6901425039068 189.3650978628255 L 211.66252152926077 188.7896024653114 L 210.68322121561292 188.13525491562422 L 209.75827927504724 187.40608948400046 L 208.8933982822018 186.6066017177982 L 208.09391051599954 185.74172072495276 L 207.36474508437578 184.8167787843871 L 206.7103975346886 183.83747847073923 L 206.1349021371745 182.8098574960932 L 205.6418070123307 181.74025148547634 L 205.2341522555727 180.63525491562422 L 204.91445119403485 179.50168045783857 L 204.68467489107294 178.34651697560346 L 204.5462399940031 177.17688643591768 L 204.5 176 L 204.5462399940031 174.82311356408232 L 204.68467489107294 173.65348302439654 L 204.91445119403485 172.49831954216143 L 205.2341522555727 171.36474508437578 L 205.6418070123307 170.25974851452366 L 206.1349021371745 169.1901425039068 L 206.7103975346886 168.16252152926077 L 207.36474508437578 167.18322121561292 L 208.09391051599954 166.25827927504724 L 208.8933982822018 165.3933982822018 L 209.75827927504724 164.59391051599954 L 210.6832212156129 163.86474508437578 L 211.66252152926077 163.2103975346886 L 212.6901425039068 162.63490213717446 L 213.75974851452366 162.1418070123307 L 214.8647450843758 161.7341522555727 L 215.99831954216145 161.41445119403485 L 217.15348302439656 161.18467489107292 L 218.32311356408238 161.0462399940031 L 219.50000000000006 161 L 220.67688643591774 161.0462399940031 L 221.84651697560352 161.18467489107294 L 223.00168045783866 161.41445119403485 L 224.13525491562427 161.73415225557272 L 225.24025148547642 162.14180701233073 L 226.3098574960933 162.63490213717452 L 227.3374784707393 163.21039753468867 L 228.31677878438717 163.86474508437584 L 229.24172072495284 164.5939105159996 L 230.1066017177983 165.39339828220187 L 230.90608948400055 166.25827927504733 L 231.6352549156243 167.183221215613 L 232.28960246531145 168.16252152926089 L 232.8650978628256 169.1901425039069 L 233.35819298766936 170.25974851452378 L 233.76584774442736 171.36474508437593 L 234.08554880596517 172.49831954216157 L 234.31532510892708 173.6534830243967 L 234.45376000599694 174.8231135640825 Z" fill-opacity="1"/><path fill="rgb(255,255,255)" stroke="rgb(236,85,88)" paint-order="fill stroke markers" d=" M 275 258 L 274.9537600059969 259.17688643591765 L 274.8153251089271 260.34651697560344 L 274.5855488059652 261.5016804578386 L 274.2658477444273 262.6352549156242 L 273.8581929876693 263.74025148547634 L 273.3650978628255 264.8098574960932 L 272.78960246531136 265.83747847073926 L 272.1352549156242 266.8167787843871 L 271.40608948400046 267.74172072495276 L 270.6066017177982 268.6066017177982 L 269.74172072495276 269.40608948400046 L 268.8167787843871 270.1352549156242 L 267.83747847073926 270.78960246531136 L 266.80985749609323 271.3650978628255 L 265.74025148547634 271.8581929876693 L 264.6352549156242 272.2658477444273 L 263.5016804578386 272.5855488059652 L 262.34651697560344 272.8153251089271 L 261.17688643591765 272.9537600059969 L 260 273 L 258.82311356408235 272.9537600059969 L 257.65348302439656 272.8153251089271 L 256.4983195421614 272.5855488059652 L 255.36474508437578 272.26584774442733 L 254.25974851452366 271.8581929876693 L 253.1901425039068 271.3650978628255 L 252.16252152926077 270.78960246531136 L 251.18322121561292 270.1352549156242 L 250.25827927504724 269.40608948400046 L 249.3933982822018 268.6066017177982 L 248.59391051599954 267.74172072495276 L 247.86474508437578 266.8167787843871 L 247.2103975346886 265.83747847073926 L 246.6349021371745 264.80985749609323 L 246.1418070123307 263.74025148547634 L 245.7341522555727 262.6352549156242 L 245.41445119403485 261.5016804578386 L 245.18467489107294 260.3465169756035 L 245.0462399940031 259.17688643591765 L 245 258 L 245.0462399940031 256.82311356408235 L 245.18467489107294 255.65348302439654 L 245.41445119403485 254.49831954216143 L 245.7341522555727 253.36474508437578 L 246.1418070123307 252.25974851452366 L 246.6349021371745 251.1901425039068 L 247.2103975346886 250.16252152926077 L 247.86474508437578 249.18322121561292 L 248.59391051599954 248.25827927504724 L 249.3933982822018 247.3933982822018 L 250.25827927504724 246.59391051599954 L 251.1832212156129 245.86474508437578 L 252.16252152926077 245.2103975346886 L 253.1901425039068 244.63490213717446 L 254.25974851452366 244.1418070123307 L 255.3647450843758 243.7341522555727 L 256.4983195421614 243.41445119403485 L 257.65348302439656 243.18467489107292 L 258.82311356408235 243.0462399940031 L 260.00000000000006 243 L 261.1768864359177 243.0462399940031 L 262.34651697560355 243.18467489107294 L 263.50168045783863 243.41445119403485 L 264.6352549156243 243.73415225557272 L 265.74025148547645 244.14180701233073 L 266.8098574960933 244.63490213717452 L 267.8374784707393 245.21039753468867 L 268.81677878438717 245.86474508437584 L 269.7417207249528 246.5939105159996 L 270.6066017177983 247.39339828220187 L 271.4060894840005 248.25827927504733 L 272.1352549156243 249.183221215613 L 272.7896024653115 250.16252152926089 L 273.36509786282556 251.1901425039069 L 273.8581929876694 252.25974851452378 L 274.26584774442733 253.36474508437593 L 274.5855488059652 254.49831954216157 L 274.8153251089271 255.6534830243967 L 274.9537600059969 256.8231135640825 Z" fill-opacity="1" stroke-opacity="1" stroke-miterlimit="10" stroke-width="2" stroke-dasharray="3,4"/><path fill="rgb(255,255,255)" stroke="rgb(236,85,88)" paint-order="fill stroke markers" d=" M 315.5 176 L 315.4537600059969 177.17688643591768 L 315.3153251089271 178.34651697560346 L 315.0855488059652 179.50168045783857 L 314.7658477444273 180.63525491562422 L 314.3581929876693 181.74025148547634 L 313.8650978628255 182.8098574960932 L 313.28960246531136 183.83747847073923 L 312.6352549156242 184.8167787843871 L 311.90608948400046 185.74172072495276 L 311.1066017177982 186.6066017177982 L 310.24172072495276 187.40608948400046 L 309.3167787843871 188.13525491562422 L 308.33747847073926 188.7896024653114 L 307.30985749609323 189.3650978628255 L 306.24025148547634 189.8581929876693 L 305.1352549156242 190.2658477444273 L 304.0016804578386 190.58554880596515 L 302.84651697560344 190.81532510892706 L 301.67688643591765 190.9537600059969 L 300.5 191 L 299.32311356408235 190.9537600059969 L 298.15348302439656 190.81532510892706 L 296.9983195421614 190.58554880596515 L 295.8647450843758 190.2658477444273 L 294.75974851452366 189.8581929876693 L 293.6901425039068 189.3650978628255 L 292.66252152926074 188.7896024653114 L 291.6832212156129 188.13525491562422 L 290.75827927504724 187.40608948400046 L 289.8933982822018 186.6066017177982 L 289.09391051599954 185.74172072495276 L 288.3647450843758 184.8167787843871 L 287.71039753468864 183.83747847073923 L 287.1349021371745 182.8098574960932 L 286.6418070123307 181.74025148547634 L 286.2341522555727 180.63525491562422 L 285.9144511940348 179.50168045783857 L 285.6846748910729 178.34651697560346 L 285.5462399940031 177.17688643591768 L 285.5 176 L 285.5462399940031 174.82311356408232 L 285.6846748910729 173.65348302439654 L 285.9144511940348 172.49831954216143 L 286.23415225557267 171.36474508437578 L 286.6418070123307 170.25974851452366 L 287.1349021371745 169.1901425039068 L 287.71039753468864 168.16252152926077 L 288.3647450843758 167.18322121561292 L 289.09391051599954 166.25827927504724 L 289.89339828220176 165.3933982822018 L 290.75827927504724 164.59391051599954 L 291.6832212156129 163.86474508437578 L 292.66252152926074 163.2103975346886 L 293.6901425039068 162.63490213717446 L 294.75974851452366 162.1418070123307 L 295.8647450843758 161.7341522555727 L 296.9983195421614 161.41445119403485 L 298.15348302439656 161.18467489107292 L 299.32311356408235 161.0462399940031 L 300.50000000000006 161 L 301.6768864359177 161.0462399940031 L 302.84651697560355 161.18467489107294 L 304.00168045783863 161.41445119403485 L 305.1352549156243 161.73415225557272 L 306.24025148547645 162.14180701233073 L 307.3098574960933 162.63490213717452 L 308.3374784707393 163.21039753468867 L 309.31677878438717 163.86474508437584 L 310.2417207249528 164.5939105159996 L 311.1066017177983 165.39339828220187 L 311.9060894840005 166.25827927504733 L 312.6352549156243 167.183221215613 L 313.2896024653115 168.16252152926089 L 313.86509786282556 169.1901425039069 L 314.3581929876694 170.25974851452378 L 314.76584774442733 171.36474508437593 L 315.0855488059652 172.49831954216157 L 315.3153251089271 173.6534830243967 L 315.4537600059969 174.8231135640825 Z" fill-opacity="1" stroke-opacity="1" stroke-miterlimit="10" stroke-width="2" stroke-dasharray="3,4"/><g transform="scale(0.5,0.5) translate(-2,-2)"/></g></g></svg>