<?xml version="1.0" encoding="UTF-8"?>
<svg xmlns="http://www.w3.org/2000/svg" xmlns:xlink="http://www.w3.org/1999/xlink" width="93pt" height="93pt" viewBox="0 0 93 93">
<defs>
<g>
<g id="glyph-0-0">
<path d="M 1.890625 -4.890625 C 2.523438 -4.890625 2.984375 -4.628906 3.265625 -4.109375 C 3.484375 -3.703125 3.59375 -3.148438 3.59375 -2.453125 C 3.59375 -1.785156 3.492188 -1.234375 3.296875 -0.796875 C 3.015625 -0.171875 2.546875 0.140625 1.890625 0.140625 C 1.304688 0.140625 0.867188 -0.113281 0.578125 -0.625 C 0.335938 -1.050781 0.21875 -1.625 0.21875 -2.34375 C 0.21875 -2.90625 0.289062 -3.382812 0.4375 -3.78125 C 0.707031 -4.519531 1.191406 -4.890625 1.890625 -4.890625 Z M 1.890625 -0.421875 C 2.203125 -0.421875 2.453125 -0.5625 2.640625 -0.84375 C 2.835938 -1.132812 2.9375 -1.664062 2.9375 -2.4375 C 2.9375 -2.988281 2.863281 -3.441406 2.71875 -3.796875 C 2.582031 -4.160156 2.320312 -4.34375 1.9375 -4.34375 C 1.570312 -4.34375 1.304688 -4.171875 1.140625 -3.828125 C 0.972656 -3.484375 0.890625 -2.984375 0.890625 -2.328125 C 0.890625 -1.828125 0.941406 -1.425781 1.046875 -1.125 C 1.210938 -0.65625 1.492188 -0.421875 1.890625 -0.421875 Z M 1.890625 -0.421875 "/>
</g>
<g id="glyph-0-1">
<path d="M 0.59375 -0.75 L 1.3125 -0.75 L 1.3125 0 L 0.59375 0 Z M 0.59375 -0.75 "/>
</g>
<g id="glyph-0-2">
<path d="M 0.21875 0 C 0.238281 -0.414062 0.320312 -0.78125 0.46875 -1.09375 C 0.625 -1.40625 0.925781 -1.691406 1.375 -1.953125 L 2.03125 -2.328125 C 2.320312 -2.503906 2.523438 -2.648438 2.640625 -2.765625 C 2.828125 -2.953125 2.921875 -3.171875 2.921875 -3.421875 C 2.921875 -3.703125 2.832031 -3.925781 2.65625 -4.09375 C 2.488281 -4.257812 2.265625 -4.34375 1.984375 -4.34375 C 1.554688 -4.34375 1.265625 -4.1875 1.109375 -3.875 C 1.023438 -3.695312 0.976562 -3.457031 0.96875 -3.15625 L 0.34375 -3.15625 C 0.34375 -3.582031 0.421875 -3.929688 0.578125 -4.203125 C 0.835938 -4.671875 1.304688 -4.90625 1.984375 -4.90625 C 2.546875 -4.90625 2.957031 -4.753906 3.21875 -4.453125 C 3.476562 -4.148438 3.609375 -3.816406 3.609375 -3.453125 C 3.609375 -3.054688 3.46875 -2.71875 3.1875 -2.4375 C 3.03125 -2.28125 2.742188 -2.085938 2.328125 -1.859375 L 1.859375 -1.59375 C 1.640625 -1.46875 1.46875 -1.347656 1.34375 -1.234375 C 1.113281 -1.035156 0.96875 -0.816406 0.90625 -0.578125 L 3.578125 -0.578125 L 3.578125 0 Z M 0.21875 0 "/>
</g>
<g id="glyph-0-3">
<path d="M 0.859375 -1.25 C 0.898438 -0.894531 1.066406 -0.648438 1.359375 -0.515625 C 1.503906 -0.453125 1.671875 -0.421875 1.859375 -0.421875 C 2.222656 -0.421875 2.492188 -0.535156 2.671875 -0.765625 C 2.847656 -0.992188 2.9375 -1.25 2.9375 -1.53125 C 2.9375 -1.875 2.832031 -2.140625 2.625 -2.328125 C 2.414062 -2.515625 2.164062 -2.609375 1.875 -2.609375 C 1.65625 -2.609375 1.46875 -2.566406 1.3125 -2.484375 C 1.164062 -2.398438 1.039062 -2.285156 0.9375 -2.140625 L 0.40625 -2.171875 L 0.78125 -4.8125 L 3.3125 -4.8125 L 3.3125 -4.21875 L 1.234375 -4.21875 L 1.03125 -2.859375 C 1.144531 -2.941406 1.253906 -3.003906 1.359375 -3.046875 C 1.535156 -3.128906 1.742188 -3.171875 1.984375 -3.171875 C 2.429688 -3.171875 2.8125 -3.023438 3.125 -2.734375 C 3.4375 -2.441406 3.59375 -2.070312 3.59375 -1.625 C 3.59375 -1.164062 3.445312 -0.757812 3.15625 -0.40625 C 2.875 -0.0507812 2.421875 0.125 1.796875 0.125 C 1.398438 0.125 1.046875 0.0117188 0.734375 -0.203125 C 0.429688 -0.429688 0.257812 -0.78125 0.21875 -1.25 Z M 0.859375 -1.25 "/>
</g>
<g id="glyph-0-4">
<path d="M 3.65625 -4.8125 L 3.65625 -4.28125 C 3.5 -4.125 3.289062 -3.851562 3.03125 -3.46875 C 2.769531 -3.09375 2.539062 -2.6875 2.34375 -2.25 C 2.144531 -1.820312 1.992188 -1.4375 1.890625 -1.09375 C 1.828125 -0.863281 1.742188 -0.5 1.640625 0 L 0.953125 0 C 1.109375 -0.9375 1.453125 -1.867188 1.984375 -2.796875 C 2.296875 -3.335938 2.625 -3.800781 2.96875 -4.1875 L 0.25 -4.1875 L 0.25 -4.8125 Z M 3.65625 -4.8125 "/>
</g>
<g id="glyph-0-5">
<path d="M 0.671875 -3.46875 L 0.671875 -3.9375 C 1.117188 -3.976562 1.425781 -4.050781 1.59375 -4.15625 C 1.769531 -4.257812 1.90625 -4.5 2 -4.875 L 2.484375 -4.875 L 2.484375 0 L 1.828125 0 L 1.828125 -3.46875 Z M 0.671875 -3.46875 "/>
</g>
<g id="glyph-0-6">
<path d="M 0.296875 -2.265625 L 2 -2.265625 L 2 -1.640625 L 0.296875 -1.640625 Z M 0.296875 -2.265625 "/>
</g>
<g id="glyph-0-7">
<path d="M 1.8125 0.140625 C 1.238281 0.140625 0.820312 -0.0195312 0.5625 -0.34375 C 0.300781 -0.664062 0.171875 -1.050781 0.171875 -1.5 L 0.8125 -1.5 C 0.832031 -1.1875 0.890625 -0.957031 0.984375 -0.8125 C 1.148438 -0.550781 1.441406 -0.421875 1.859375 -0.421875 C 2.179688 -0.421875 2.4375 -0.507812 2.625 -0.6875 C 2.820312 -0.863281 2.921875 -1.085938 2.921875 -1.359375 C 2.921875 -1.691406 2.816406 -1.925781 2.609375 -2.0625 C 2.410156 -2.195312 2.125 -2.265625 1.75 -2.265625 C 1.71875 -2.265625 1.675781 -2.265625 1.625 -2.265625 C 1.582031 -2.265625 1.539062 -2.265625 1.5 -2.265625 L 1.5 -2.796875 C 1.5625 -2.796875 1.613281 -2.789062 1.65625 -2.78125 C 1.707031 -2.78125 1.757812 -2.78125 1.8125 -2.78125 C 2.039062 -2.78125 2.226562 -2.816406 2.375 -2.890625 C 2.632812 -3.023438 2.765625 -3.253906 2.765625 -3.578125 C 2.765625 -3.816406 2.675781 -4.003906 2.5 -4.140625 C 2.332031 -4.273438 2.128906 -4.34375 1.890625 -4.34375 C 1.484375 -4.34375 1.203125 -4.207031 1.046875 -3.9375 C 0.960938 -3.78125 0.914062 -3.5625 0.90625 -3.28125 L 0.296875 -3.28125 C 0.296875 -3.644531 0.367188 -3.957031 0.515625 -4.21875 C 0.765625 -4.675781 1.203125 -4.90625 1.828125 -4.90625 C 2.328125 -4.90625 2.710938 -4.789062 2.984375 -4.5625 C 3.265625 -4.34375 3.40625 -4.023438 3.40625 -3.609375 C 3.40625 -3.304688 3.320312 -3.0625 3.15625 -2.875 C 3.0625 -2.757812 2.929688 -2.664062 2.765625 -2.59375 C 3.023438 -2.519531 3.226562 -2.382812 3.375 -2.1875 C 3.519531 -1.988281 3.59375 -1.742188 3.59375 -1.453125 C 3.59375 -0.984375 3.4375 -0.597656 3.125 -0.296875 C 2.820312 -0.00390625 2.382812 0.140625 1.8125 0.140625 Z M 1.8125 0.140625 "/>
</g>
<g id="glyph-0-8">
<path d="M 3.109375 -2.0625 L 2.34375 -4.28125 L 1.53125 -2.0625 Z M 2 -5.015625 L 2.765625 -5.015625 L 4.578125 0 L 3.84375 0 L 3.328125 -1.5 L 1.34375 -1.5 L 0.796875 0 L 0.109375 0 Z M 2 -5.015625 "/>
</g>
<g id="glyph-0-9">
<path d="M 1.0625 -3.65625 L 1.0625 -1.234375 C 1.0625 -1.046875 1.09375 -0.890625 1.15625 -0.765625 C 1.257812 -0.546875 1.460938 -0.4375 1.765625 -0.4375 C 2.191406 -0.4375 2.484375 -0.628906 2.640625 -1.015625 C 2.722656 -1.222656 2.765625 -1.503906 2.765625 -1.859375 L 2.765625 -3.65625 L 3.390625 -3.65625 L 3.390625 0 L 2.796875 0 L 2.8125 -0.546875 C 2.726562 -0.398438 2.628906 -0.28125 2.515625 -0.1875 C 2.273438 0 1.988281 0.09375 1.65625 0.09375 C 1.132812 0.09375 0.78125 -0.078125 0.59375 -0.421875 C 0.488281 -0.609375 0.4375 -0.859375 0.4375 -1.171875 L 0.4375 -3.65625 Z M 1.90625 -3.75 Z M 1.90625 -3.75 "/>
</g>
<g id="glyph-0-10">
<path d="M 0.453125 -3.65625 L 1.03125 -3.65625 L 1.03125 -3.140625 C 1.207031 -3.359375 1.390625 -3.515625 1.578125 -3.609375 C 1.773438 -3.703125 1.992188 -3.75 2.234375 -3.75 C 2.753906 -3.75 3.101562 -3.566406 3.28125 -3.203125 C 3.382812 -3.003906 3.4375 -2.71875 3.4375 -2.34375 L 3.4375 0 L 2.8125 0 L 2.8125 -2.3125 C 2.8125 -2.53125 2.773438 -2.707031 2.703125 -2.84375 C 2.597656 -3.070312 2.398438 -3.1875 2.109375 -3.1875 C 1.960938 -3.1875 1.84375 -3.171875 1.75 -3.140625 C 1.582031 -3.085938 1.4375 -2.988281 1.3125 -2.84375 C 1.207031 -2.71875 1.140625 -2.59375 1.109375 -2.46875 C 1.078125 -2.34375 1.0625 -2.160156 1.0625 -1.921875 L 1.0625 0 L 0.453125 0 Z M 1.890625 -3.75 Z M 1.890625 -3.75 "/>
</g>
<g id="glyph-0-11">
<path d="M 0.578125 -4.6875 L 1.203125 -4.6875 L 1.203125 -3.65625 L 1.78125 -3.65625 L 1.78125 -3.15625 L 1.203125 -3.15625 L 1.203125 -0.765625 C 1.203125 -0.640625 1.242188 -0.554688 1.328125 -0.515625 C 1.367188 -0.484375 1.445312 -0.46875 1.5625 -0.46875 C 1.59375 -0.46875 1.625 -0.46875 1.65625 -0.46875 C 1.695312 -0.476562 1.738281 -0.484375 1.78125 -0.484375 L 1.78125 0 C 1.707031 0.0195312 1.632812 0.0351562 1.5625 0.046875 C 1.488281 0.0546875 1.40625 0.0625 1.3125 0.0625 C 1.019531 0.0625 0.820312 -0.0078125 0.71875 -0.15625 C 0.625 -0.3125 0.578125 -0.503906 0.578125 -0.734375 L 0.578125 -3.15625 L 0.078125 -3.15625 L 0.078125 -3.65625 L 0.578125 -3.65625 Z M 0.578125 -4.6875 "/>
</g>
<g id="glyph-0-12">
</g>
<g id="glyph-0-13">
<path d="M 2.875 -2.71875 C 3.1875 -2.71875 3.4375 -2.78125 3.625 -2.90625 C 3.8125 -3.039062 3.90625 -3.273438 3.90625 -3.609375 C 3.90625 -3.960938 3.773438 -4.203125 3.515625 -4.328125 C 3.378906 -4.398438 3.191406 -4.4375 2.953125 -4.4375 L 1.296875 -4.4375 L 1.296875 -2.71875 Z M 0.609375 -5.015625 L 2.9375 -5.015625 C 3.320312 -5.015625 3.640625 -4.960938 3.890625 -4.859375 C 4.359375 -4.640625 4.59375 -4.242188 4.59375 -3.671875 C 4.59375 -3.367188 4.53125 -3.117188 4.40625 -2.921875 C 4.28125 -2.734375 4.109375 -2.582031 3.890625 -2.46875 C 4.085938 -2.382812 4.234375 -2.273438 4.328125 -2.140625 C 4.429688 -2.015625 4.488281 -1.804688 4.5 -1.515625 L 4.515625 -0.84375 C 4.523438 -0.65625 4.539062 -0.515625 4.5625 -0.421875 C 4.601562 -0.265625 4.675781 -0.160156 4.78125 -0.109375 L 4.78125 0 L 3.953125 0 C 3.929688 -0.0390625 3.910156 -0.09375 3.890625 -0.15625 C 3.878906 -0.226562 3.867188 -0.363281 3.859375 -0.5625 L 3.828125 -1.40625 C 3.804688 -1.726562 3.679688 -1.945312 3.453125 -2.0625 C 3.328125 -2.125 3.125 -2.15625 2.84375 -2.15625 L 1.296875 -2.15625 L 1.296875 0 L 0.609375 0 Z M 0.609375 -5.015625 "/>
</g>
<g id="glyph-0-14">
<path d="M 1.96875 -3.75 C 2.226562 -3.75 2.476562 -3.6875 2.71875 -3.5625 C 2.96875 -3.4375 3.15625 -3.28125 3.28125 -3.09375 C 3.40625 -2.90625 3.488281 -2.6875 3.53125 -2.4375 C 3.570312 -2.269531 3.59375 -2.003906 3.59375 -1.640625 L 0.90625 -1.640625 C 0.914062 -1.265625 1.003906 -0.960938 1.171875 -0.734375 C 1.335938 -0.515625 1.59375 -0.40625 1.9375 -0.40625 C 2.25 -0.40625 2.503906 -0.507812 2.703125 -0.71875 C 2.804688 -0.84375 2.882812 -0.988281 2.9375 -1.15625 L 3.53125 -1.15625 C 3.519531 -1.019531 3.46875 -0.867188 3.375 -0.703125 C 3.289062 -0.535156 3.191406 -0.398438 3.078125 -0.296875 C 2.890625 -0.109375 2.65625 0.015625 2.375 0.078125 C 2.226562 0.109375 2.0625 0.125 1.875 0.125 C 1.425781 0.125 1.039062 -0.0351562 0.71875 -0.359375 C 0.40625 -0.691406 0.25 -1.160156 0.25 -1.765625 C 0.25 -2.347656 0.40625 -2.820312 0.71875 -3.1875 C 1.039062 -3.5625 1.457031 -3.75 1.96875 -3.75 Z M 2.953125 -2.125 C 2.929688 -2.382812 2.875 -2.597656 2.78125 -2.765625 C 2.613281 -3.054688 2.332031 -3.203125 1.9375 -3.203125 C 1.65625 -3.203125 1.414062 -3.097656 1.21875 -2.890625 C 1.03125 -2.691406 0.929688 -2.4375 0.921875 -2.125 Z M 1.921875 -3.75 Z M 1.921875 -3.75 "/>
</g>
<g id="glyph-0-15">
<path d="M 0.734375 -3.65625 L 1.4375 -0.78125 L 2.15625 -3.65625 L 2.84375 -3.65625 L 3.5625 -0.796875 L 4.3125 -3.65625 L 4.921875 -3.65625 L 3.859375 0 L 3.21875 0 L 2.484375 -2.828125 L 1.75 0 L 1.125 0 L 0.0625 -3.65625 Z M 0.734375 -3.65625 "/>
</g>
<g id="glyph-0-16">
<path d="M 0.921875 -0.96875 C 0.921875 -0.789062 0.984375 -0.648438 1.109375 -0.546875 C 1.242188 -0.453125 1.398438 -0.40625 1.578125 -0.40625 C 1.796875 -0.40625 2.003906 -0.453125 2.203125 -0.546875 C 2.546875 -0.710938 2.71875 -0.988281 2.71875 -1.375 L 2.71875 -1.859375 C 2.644531 -1.816406 2.546875 -1.78125 2.421875 -1.75 C 2.304688 -1.71875 2.191406 -1.691406 2.078125 -1.671875 L 1.703125 -1.625 C 1.484375 -1.59375 1.316406 -1.546875 1.203125 -1.484375 C 1.015625 -1.378906 0.921875 -1.207031 0.921875 -0.96875 Z M 2.40625 -2.21875 C 2.550781 -2.238281 2.648438 -2.296875 2.703125 -2.390625 C 2.722656 -2.453125 2.734375 -2.53125 2.734375 -2.625 C 2.734375 -2.84375 2.660156 -3 2.515625 -3.09375 C 2.367188 -3.1875 2.15625 -3.234375 1.875 -3.234375 C 1.550781 -3.234375 1.320312 -3.144531 1.1875 -2.96875 C 1.113281 -2.875 1.066406 -2.734375 1.046875 -2.546875 L 0.46875 -2.546875 C 0.476562 -2.992188 0.625 -3.304688 0.90625 -3.484375 C 1.1875 -3.660156 1.515625 -3.75 1.890625 -3.75 C 2.316406 -3.75 2.664062 -3.664062 2.9375 -3.5 C 3.207031 -3.332031 3.34375 -3.078125 3.34375 -2.734375 L 3.34375 -0.625 C 3.34375 -0.5625 3.351562 -0.507812 3.375 -0.46875 C 3.40625 -0.4375 3.460938 -0.421875 3.546875 -0.421875 C 3.566406 -0.421875 3.59375 -0.421875 3.625 -0.421875 C 3.664062 -0.421875 3.707031 -0.425781 3.75 -0.4375 L 3.75 0.015625 C 3.644531 0.046875 3.566406 0.0625 3.515625 0.0625 C 3.472656 0.0703125 3.40625 0.078125 3.3125 0.078125 C 3.101562 0.078125 2.953125 0.00390625 2.859375 -0.140625 C 2.804688 -0.222656 2.769531 -0.335938 2.75 -0.484375 C 2.625 -0.316406 2.441406 -0.171875 2.203125 -0.046875 C 1.972656 0.0664062 1.71875 0.125 1.4375 0.125 C 1.09375 0.125 0.8125 0.0195312 0.59375 -0.1875 C 0.382812 -0.394531 0.28125 -0.648438 0.28125 -0.953125 C 0.28125 -1.296875 0.382812 -1.5625 0.59375 -1.75 C 0.8125 -1.9375 1.09375 -2.050781 1.4375 -2.09375 Z M 1.90625 -3.75 Z M 1.90625 -3.75 "/>
</g>
<g id="glyph-0-17">
<path d="M 0.46875 -3.65625 L 1.046875 -3.65625 L 1.046875 -3.03125 C 1.097656 -3.15625 1.21875 -3.304688 1.40625 -3.484375 C 1.59375 -3.660156 1.804688 -3.75 2.046875 -3.75 C 2.054688 -3.75 2.078125 -3.742188 2.109375 -3.734375 C 2.140625 -3.734375 2.1875 -3.726562 2.25 -3.71875 L 2.25 -3.078125 C 2.207031 -3.085938 2.171875 -3.09375 2.140625 -3.09375 C 2.117188 -3.09375 2.085938 -3.09375 2.046875 -3.09375 C 1.734375 -3.09375 1.492188 -2.992188 1.328125 -2.796875 C 1.160156 -2.597656 1.078125 -2.367188 1.078125 -2.109375 L 1.078125 0 L 0.46875 0 Z M 0.46875 -3.65625 "/>
</g>
<g id="glyph-0-18">
<path d="M 0.84375 -1.78125 C 0.84375 -1.394531 0.925781 -1.066406 1.09375 -0.796875 C 1.257812 -0.535156 1.523438 -0.40625 1.890625 -0.40625 C 2.171875 -0.40625 2.40625 -0.523438 2.59375 -0.765625 C 2.78125 -1.015625 2.875 -1.367188 2.875 -1.828125 C 2.875 -2.285156 2.773438 -2.625 2.578125 -2.84375 C 2.390625 -3.070312 2.160156 -3.1875 1.890625 -3.1875 C 1.578125 -3.1875 1.320312 -3.066406 1.125 -2.828125 C 0.9375 -2.597656 0.84375 -2.25 0.84375 -1.78125 Z M 1.765625 -3.71875 C 2.046875 -3.71875 2.28125 -3.660156 2.46875 -3.546875 C 2.582031 -3.484375 2.707031 -3.363281 2.84375 -3.1875 L 2.84375 -5.03125 L 3.4375 -5.03125 L 3.4375 0 L 2.875 0 L 2.875 -0.515625 C 2.738281 -0.285156 2.570312 -0.117188 2.375 -0.015625 C 2.175781 0.078125 1.953125 0.125 1.703125 0.125 C 1.296875 0.125 0.941406 -0.046875 0.640625 -0.390625 C 0.335938 -0.734375 0.1875 -1.1875 0.1875 -1.75 C 0.1875 -2.28125 0.320312 -2.738281 0.59375 -3.125 C 0.875 -3.519531 1.265625 -3.71875 1.765625 -3.71875 Z M 1.765625 -3.71875 "/>
</g>
<g id="glyph-1-0">
<path d="M -5.015625 -0.53125 L -5.015625 -1.21875 L -0.59375 -1.21875 L -0.59375 -3.75 L 0 -3.75 L 0 -0.53125 Z M -5.015625 -0.53125 "/>
</g>
<g id="glyph-1-1">
<path d="M -3.75 -1.96875 C -3.75 -2.226562 -3.6875 -2.476562 -3.5625 -2.71875 C -3.4375 -2.96875 -3.28125 -3.15625 -3.09375 -3.28125 C -2.90625 -3.40625 -2.6875 -3.488281 -2.4375 -3.53125 C -2.269531 -3.570312 -2.003906 -3.59375 -1.640625 -3.59375 L -1.640625 -0.90625 C -1.265625 -0.914062 -0.960938 -1.003906 -0.734375 -1.171875 C -0.515625 -1.335938 -0.40625 -1.59375 -0.40625 -1.9375 C -0.40625 -2.25 -0.507812 -2.503906 -0.71875 -2.703125 C -0.84375 -2.804688 -0.988281 -2.882812 -1.15625 -2.9375 L -1.15625 -3.53125 C -1.019531 -3.519531 -0.867188 -3.46875 -0.703125 -3.375 C -0.535156 -3.289062 -0.398438 -3.191406 -0.296875 -3.078125 C -0.109375 -2.890625 0.015625 -2.65625 0.078125 -2.375 C 0.109375 -2.226562 0.125 -2.0625 0.125 -1.875 C 0.125 -1.425781 -0.0351562 -1.039062 -0.359375 -0.71875 C -0.691406 -0.40625 -1.160156 -0.25 -1.765625 -0.25 C -2.347656 -0.25 -2.820312 -0.40625 -3.1875 -0.71875 C -3.5625 -1.039062 -3.75 -1.457031 -3.75 -1.96875 Z M -2.125 -2.953125 C -2.382812 -2.929688 -2.597656 -2.875 -2.765625 -2.78125 C -3.054688 -2.613281 -3.203125 -2.332031 -3.203125 -1.9375 C -3.203125 -1.65625 -3.097656 -1.414062 -2.890625 -1.21875 C -2.691406 -1.03125 -2.4375 -0.929688 -2.125 -0.921875 Z M -3.75 -1.921875 Z M -3.75 -1.921875 "/>
</g>
<g id="glyph-1-2">
<path d="M -0.96875 -0.921875 C -0.789062 -0.921875 -0.648438 -0.984375 -0.546875 -1.109375 C -0.453125 -1.242188 -0.40625 -1.398438 -0.40625 -1.578125 C -0.40625 -1.796875 -0.453125 -2.003906 -0.546875 -2.203125 C -0.710938 -2.546875 -0.988281 -2.71875 -1.375 -2.71875 L -1.859375 -2.71875 C -1.816406 -2.644531 -1.78125 -2.546875 -1.75 -2.421875 C -1.71875 -2.304688 -1.691406 -2.191406 -1.671875 -2.078125 L -1.625 -1.703125 C -1.59375 -1.484375 -1.546875 -1.316406 -1.484375 -1.203125 C -1.378906 -1.015625 -1.207031 -0.921875 -0.96875 -0.921875 Z M -2.21875 -2.40625 C -2.238281 -2.550781 -2.296875 -2.648438 -2.390625 -2.703125 C -2.453125 -2.722656 -2.53125 -2.734375 -2.625 -2.734375 C -2.84375 -2.734375 -3 -2.660156 -3.09375 -2.515625 C -3.1875 -2.367188 -3.234375 -2.15625 -3.234375 -1.875 C -3.234375 -1.550781 -3.144531 -1.320312 -2.96875 -1.1875 C -2.875 -1.113281 -2.734375 -1.066406 -2.546875 -1.046875 L -2.546875 -0.46875 C -2.992188 -0.476562 -3.304688 -0.625 -3.484375 -0.90625 C -3.660156 -1.1875 -3.75 -1.515625 -3.75 -1.890625 C -3.75 -2.316406 -3.664062 -2.664062 -3.5 -2.9375 C -3.332031 -3.207031 -3.078125 -3.34375 -2.734375 -3.34375 L -0.625 -3.34375 C -0.5625 -3.34375 -0.507812 -3.351562 -0.46875 -3.375 C -0.4375 -3.40625 -0.421875 -3.460938 -0.421875 -3.546875 C -0.421875 -3.566406 -0.421875 -3.59375 -0.421875 -3.625 C -0.421875 -3.664062 -0.425781 -3.707031 -0.4375 -3.75 L 0.015625 -3.75 C 0.046875 -3.644531 0.0625 -3.566406 0.0625 -3.515625 C 0.0703125 -3.472656 0.078125 -3.40625 0.078125 -3.3125 C 0.078125 -3.101562 0.00390625 -2.953125 -0.140625 -2.859375 C -0.222656 -2.804688 -0.335938 -2.769531 -0.484375 -2.75 C -0.316406 -2.625 -0.171875 -2.441406 -0.046875 -2.203125 C 0.0664062 -1.972656 0.125 -1.71875 0.125 -1.4375 C 0.125 -1.09375 0.0195312 -0.8125 -0.1875 -0.59375 C -0.394531 -0.382812 -0.648438 -0.28125 -0.953125 -0.28125 C -1.296875 -0.28125 -1.5625 -0.382812 -1.75 -0.59375 C -1.9375 -0.8125 -2.050781 -1.09375 -2.09375 -1.4375 Z M -3.75 -1.90625 Z M -3.75 -1.90625 "/>
</g>
<g id="glyph-1-3">
<path d="M -4.21875 -0.609375 C -4.46875 -0.617188 -4.65625 -0.660156 -4.78125 -0.734375 C -4.988281 -0.878906 -5.09375 -1.15625 -5.09375 -1.5625 C -5.09375 -1.601562 -5.09375 -1.644531 -5.09375 -1.6875 C -5.09375 -1.726562 -5.085938 -1.773438 -5.078125 -1.828125 L -4.515625 -1.828125 C -4.523438 -1.765625 -4.53125 -1.71875 -4.53125 -1.6875 C -4.53125 -1.65625 -4.53125 -1.628906 -4.53125 -1.609375 C -4.53125 -1.421875 -4.476562 -1.304688 -4.375 -1.265625 C -4.28125 -1.234375 -4.035156 -1.21875 -3.640625 -1.21875 L -3.640625 -1.828125 L -3.15625 -1.828125 L -3.15625 -1.21875 L 0 -1.21875 L 0 -0.609375 L -3.15625 -0.609375 L -3.15625 -0.09375 L -3.640625 -0.09375 L -3.640625 -0.609375 Z M -4.21875 -0.609375 "/>
</g>
<g id="glyph-1-4">
</g>
<g id="glyph-1-5">
<path d="M -5.015625 -0.53125 L -5.015625 -1.34375 L -0.953125 -3.875 L -5.015625 -3.875 L -5.015625 -4.515625 L 0 -4.515625 L 0 -3.75 L -4.0625 -1.1875 L 0 -1.1875 L 0 -0.53125 Z M -5.015625 -2.484375 Z M -5.015625 -2.484375 "/>
</g>
<g id="glyph-1-6">
<path d="M -0.390625 -1.90625 C -0.390625 -2.3125 -0.546875 -2.585938 -0.859375 -2.734375 C -1.171875 -2.890625 -1.515625 -2.96875 -1.890625 -2.96875 C -2.234375 -2.96875 -2.507812 -2.914062 -2.71875 -2.8125 C -3.0625 -2.632812 -3.234375 -2.332031 -3.234375 -1.90625 C -3.234375 -1.53125 -3.085938 -1.253906 -2.796875 -1.078125 C -2.515625 -0.910156 -2.171875 -0.828125 -1.765625 -0.828125 C -1.367188 -0.828125 -1.039062 -0.910156 -0.78125 -1.078125 C -0.519531 -1.253906 -0.390625 -1.53125 -0.390625 -1.90625 Z M -3.765625 -1.921875 C -3.765625 -2.398438 -3.609375 -2.800781 -3.296875 -3.125 C -2.984375 -3.445312 -2.519531 -3.609375 -1.90625 -3.609375 C -1.3125 -3.609375 -0.820312 -3.460938 -0.4375 -3.171875 C -0.0507812 -2.890625 0.140625 -2.445312 0.140625 -1.84375 C 0.140625 -1.34375 -0.03125 -0.941406 -0.375 -0.640625 C -0.71875 -0.347656 -1.175781 -0.203125 -1.75 -0.203125 C -2.363281 -0.203125 -2.851562 -0.359375 -3.21875 -0.671875 C -3.582031 -0.984375 -3.765625 -1.398438 -3.765625 -1.921875 Z M -3.75 -1.90625 Z M -3.75 -1.90625 "/>
</g>
<g id="glyph-1-7">
<path d="M -1.78125 -0.84375 C -1.394531 -0.84375 -1.066406 -0.925781 -0.796875 -1.09375 C -0.535156 -1.257812 -0.40625 -1.523438 -0.40625 -1.890625 C -0.40625 -2.171875 -0.523438 -2.40625 -0.765625 -2.59375 C -1.015625 -2.78125 -1.367188 -2.875 -1.828125 -2.875 C -2.285156 -2.875 -2.625 -2.773438 -2.84375 -2.578125 C -3.070312 -2.390625 -3.1875 -2.160156 -3.1875 -1.890625 C -3.1875 -1.578125 -3.066406 -1.320312 -2.828125 -1.125 C -2.597656 -0.9375 -2.25 -0.84375 -1.78125 -0.84375 Z M -3.71875 -1.765625 C -3.71875 -2.046875 -3.660156 -2.28125 -3.546875 -2.46875 C -3.484375 -2.582031 -3.363281 -2.707031 -3.1875 -2.84375 L -5.03125 -2.84375 L -5.03125 -3.4375 L 0 -3.4375 L 0 -2.875 L -0.515625 -2.875 C -0.285156 -2.738281 -0.117188 -2.570312 -0.015625 -2.375 C 0.078125 -2.175781 0.125 -1.953125 0.125 -1.703125 C 0.125 -1.296875 -0.046875 -0.941406 -0.390625 -0.640625 C -0.734375 -0.335938 -1.1875 -0.1875 -1.75 -0.1875 C -2.28125 -0.1875 -2.738281 -0.320312 -3.125 -0.59375 C -3.519531 -0.875 -3.71875 -1.265625 -3.71875 -1.765625 Z M -3.71875 -1.765625 "/>
</g>
<g id="glyph-1-8">
<path d="M -2.0625 -3.109375 L -4.28125 -2.34375 L -2.0625 -1.53125 Z M -5.015625 -2 L -5.015625 -2.765625 L 0 -4.578125 L 0 -3.84375 L -1.5 -3.328125 L -1.5 -1.34375 L 0 -0.796875 L 0 -0.109375 Z M -5.015625 -2 "/>
</g>
<g id="glyph-1-9">
<path d="M -3.765625 -1.859375 C -3.765625 -2.273438 -3.664062 -2.609375 -3.46875 -2.859375 C -3.269531 -3.117188 -2.925781 -3.28125 -2.4375 -3.34375 L -2.4375 -2.734375 C -2.65625 -2.703125 -2.835938 -2.617188 -2.984375 -2.484375 C -3.140625 -2.359375 -3.21875 -2.148438 -3.21875 -1.859375 C -3.21875 -1.472656 -3.023438 -1.191406 -2.640625 -1.015625 C -2.390625 -0.910156 -2.082031 -0.859375 -1.71875 -0.859375 C -1.351562 -0.859375 -1.046875 -0.9375 -0.796875 -1.09375 C -0.546875 -1.25 -0.421875 -1.492188 -0.421875 -1.828125 C -0.421875 -2.078125 -0.5 -2.273438 -0.65625 -2.421875 C -0.8125 -2.578125 -1.023438 -2.679688 -1.296875 -2.734375 L -1.296875 -3.34375 C -0.804688 -3.269531 -0.445312 -3.09375 -0.21875 -2.8125 C 0 -2.539062 0.109375 -2.195312 0.109375 -1.78125 C 0.109375 -1.300781 -0.0625 -0.914062 -0.40625 -0.625 C -0.757812 -0.34375 -1.203125 -0.203125 -1.734375 -0.203125 C -2.367188 -0.203125 -2.863281 -0.359375 -3.21875 -0.671875 C -3.582031 -0.984375 -3.765625 -1.378906 -3.765625 -1.859375 Z M -3.75 -1.765625 Z M -3.75 -1.765625 "/>
</g>
<g id="glyph-1-10">
<path d="M -3.65625 -1.0625 L -1.234375 -1.0625 C -1.046875 -1.0625 -0.890625 -1.09375 -0.765625 -1.15625 C -0.546875 -1.257812 -0.4375 -1.460938 -0.4375 -1.765625 C -0.4375 -2.191406 -0.628906 -2.484375 -1.015625 -2.640625 C -1.222656 -2.722656 -1.503906 -2.765625 -1.859375 -2.765625 L -3.65625 -2.765625 L -3.65625 -3.390625 L 0 -3.390625 L 0 -2.796875 L -0.546875 -2.8125 C -0.398438 -2.726562 -0.28125 -2.628906 -0.1875 -2.515625 C 0 -2.273438 0.09375 -1.988281 0.09375 -1.65625 C 0.09375 -1.132812 -0.078125 -0.78125 -0.421875 -0.59375 C -0.609375 -0.488281 -0.859375 -0.4375 -1.171875 -0.4375 L -3.65625 -0.4375 Z M -3.75 -1.90625 Z M -3.75 -1.90625 "/>
</g>
<g id="glyph-1-11">
<path d="M -3.65625 -0.46875 L -3.65625 -1.046875 L -3.03125 -1.046875 C -3.15625 -1.097656 -3.304688 -1.21875 -3.484375 -1.40625 C -3.660156 -1.59375 -3.75 -1.804688 -3.75 -2.046875 C -3.75 -2.054688 -3.742188 -2.078125 -3.734375 -2.109375 C -3.734375 -2.140625 -3.726562 -2.1875 -3.71875 -2.25 L -3.078125 -2.25 C -3.085938 -2.207031 -3.09375 -2.171875 -3.09375 -2.140625 C -3.09375 -2.117188 -3.09375 -2.085938 -3.09375 -2.046875 C -3.09375 -1.734375 -2.992188 -1.492188 -2.796875 -1.328125 C -2.597656 -1.160156 -2.367188 -1.078125 -2.109375 -1.078125 L 0 -1.078125 L 0 -0.46875 Z M -3.65625 -0.46875 "/>
</g>
<g id="glyph-1-12">
<path d="M -3.65625 -2.734375 L -3.65625 -3.421875 C -3.425781 -3.328125 -2.890625 -3.132812 -2.046875 -2.84375 C -1.421875 -2.613281 -0.910156 -2.425781 -0.515625 -2.28125 C 0.417969 -1.925781 0.988281 -1.675781 1.1875 -1.53125 C 1.394531 -1.382812 1.5 -1.132812 1.5 -0.78125 C 1.5 -0.6875 1.492188 -0.613281 1.484375 -0.5625 C 1.484375 -0.519531 1.472656 -0.46875 1.453125 -0.40625 L 0.890625 -0.40625 C 0.921875 -0.507812 0.9375 -0.582031 0.9375 -0.625 C 0.945312 -0.675781 0.953125 -0.722656 0.953125 -0.765625 C 0.953125 -0.878906 0.929688 -0.960938 0.890625 -1.015625 C 0.859375 -1.066406 0.816406 -1.113281 0.765625 -1.15625 C 0.742188 -1.164062 0.648438 -1.203125 0.484375 -1.265625 C 0.316406 -1.335938 0.191406 -1.390625 0.109375 -1.421875 L -3.65625 -0.078125 L -3.65625 -0.765625 L -0.6875 -1.75 Z M -3.75 -1.75 Z M -3.75 -1.75 "/>
</g>
</g>
</defs>
<rect x="-9.3" y="-9.3" width="111.6" height="111.6" fill="rgb(100%, 100%, 100%)" fill-opacity="1"/>
<path fill="none" stroke-width="1.707165" stroke-linecap="butt" stroke-linejoin="round" stroke="rgb(79.998779%, 78.822327%, 86.273193%)" stroke-opacity="0.8" stroke-miterlimit="10" d="M 48.550781 29.300781 L 52.882812 30.335938 L 57.210938 30.691406 L 61.542969 31.023438 L 70.203125 30.515625 L 74.53125 30.914062 L 78.859375 30.835938 L 83.191406 33.5625 "/>
<path fill="none" stroke-width="1.707165" stroke-linecap="butt" stroke-linejoin="round" stroke="rgb(55.685425%, 33.332825%, 44.7052%)" stroke-opacity="0.8" stroke-miterlimit="10" d="M 48.550781 33.359375 L 52.882812 32.082031 L 57.210938 32.304688 L 61.542969 33.28125 L 70.203125 34.472656 L 74.53125 35.324219 L 78.859375 36.339844 L 83.191406 36.980469 "/>
<path fill="none" stroke-width="0.640187" stroke-linecap="butt" stroke-linejoin="round" stroke="rgb(79.998779%, 78.822327%, 86.273193%)" stroke-opacity="0.94902" stroke-miterlimit="10" d="M 47.46875 27.742188 L 49.636719 27.742188 "/>
<path fill="none" stroke-width="0.640187" stroke-linecap="butt" stroke-linejoin="round" stroke="rgb(79.998779%, 78.822327%, 86.273193%)" stroke-opacity="0.94902" stroke-miterlimit="10" d="M 48.550781 27.742188 L 48.550781 30.859375 "/>
<path fill="none" stroke-width="0.640187" stroke-linecap="butt" stroke-linejoin="round" stroke="rgb(79.998779%, 78.822327%, 86.273193%)" stroke-opacity="0.94902" stroke-miterlimit="10" d="M 47.46875 30.859375 L 49.636719 30.859375 "/>
<path fill="none" stroke-width="0.640187" stroke-linecap="butt" stroke-linejoin="round" stroke="rgb(79.998779%, 78.822327%, 86.273193%)" stroke-opacity="0.94902" stroke-miterlimit="10" d="M 51.800781 29.242188 L 53.964844 29.242188 "/>
<path fill="none" stroke-width="0.640187" stroke-linecap="butt" stroke-linejoin="round" stroke="rgb(79.998779%, 78.822327%, 86.273193%)" stroke-opacity="0.94902" stroke-miterlimit="10" d="M 52.882812 29.242188 L 52.882812 31.429688 "/>
<path fill="none" stroke-width="0.640187" stroke-linecap="butt" stroke-linejoin="round" stroke="rgb(79.998779%, 78.822327%, 86.273193%)" stroke-opacity="0.94902" stroke-miterlimit="10" d="M 51.800781 31.429688 L 53.964844 31.429688 "/>
<path fill="none" stroke-width="0.640187" stroke-linecap="butt" stroke-linejoin="round" stroke="rgb(79.998779%, 78.822327%, 86.273193%)" stroke-opacity="0.94902" stroke-miterlimit="10" d="M 56.128906 29.921875 L 58.292969 29.921875 "/>
<path fill="none" stroke-width="0.640187" stroke-linecap="butt" stroke-linejoin="round" stroke="rgb(79.998779%, 78.822327%, 86.273193%)" stroke-opacity="0.94902" stroke-miterlimit="10" d="M 57.210938 29.921875 L 57.210938 31.457031 "/>
<path fill="none" stroke-width="0.640187" stroke-linecap="butt" stroke-linejoin="round" stroke="rgb(79.998779%, 78.822327%, 86.273193%)" stroke-opacity="0.94902" stroke-miterlimit="10" d="M 56.128906 31.457031 L 58.292969 31.457031 "/>
<path fill="none" stroke-width="0.640187" stroke-linecap="butt" stroke-linejoin="round" stroke="rgb(79.998779%, 78.822327%, 86.273193%)" stroke-opacity="0.94902" stroke-miterlimit="10" d="M 60.460938 30.273438 L 62.625 30.273438 "/>
<path fill="none" stroke-width="0.640187" stroke-linecap="butt" stroke-linejoin="round" stroke="rgb(79.998779%, 78.822327%, 86.273193%)" stroke-opacity="0.94902" stroke-miterlimit="10" d="M 61.542969 30.273438 L 61.542969 31.777344 "/>
<path fill="none" stroke-width="0.640187" stroke-linecap="butt" stroke-linejoin="round" stroke="rgb(79.998779%, 78.822327%, 86.273193%)" stroke-opacity="0.94902" stroke-miterlimit="10" d="M 60.460938 31.777344 L 62.625 31.777344 "/>
<path fill="none" stroke-width="0.640187" stroke-linecap="butt" stroke-linejoin="round" stroke="rgb(79.998779%, 78.822327%, 86.273193%)" stroke-opacity="0.94902" stroke-miterlimit="10" d="M 69.117188 29.832031 L 71.285156 29.832031 "/>
<path fill="none" stroke-width="0.640187" stroke-linecap="butt" stroke-linejoin="round" stroke="rgb(79.998779%, 78.822327%, 86.273193%)" stroke-opacity="0.94902" stroke-miterlimit="10" d="M 70.203125 29.832031 L 70.203125 31.199219 "/>
<path fill="none" stroke-width="0.640187" stroke-linecap="butt" stroke-linejoin="round" stroke="rgb(79.998779%, 78.822327%, 86.273193%)" stroke-opacity="0.94902" stroke-miterlimit="10" d="M 69.117188 31.199219 L 71.285156 31.199219 "/>
<path fill="none" stroke-width="0.640187" stroke-linecap="butt" stroke-linejoin="round" stroke="rgb(79.998779%, 78.822327%, 86.273193%)" stroke-opacity="0.94902" stroke-miterlimit="10" d="M 73.449219 30.136719 L 75.613281 30.136719 "/>
<path fill="none" stroke-width="0.640187" stroke-linecap="butt" stroke-linejoin="round" stroke="rgb(79.998779%, 78.822327%, 86.273193%)" stroke-opacity="0.94902" stroke-miterlimit="10" d="M 74.53125 30.136719 L 74.53125 31.691406 "/>
<path fill="none" stroke-width="0.640187" stroke-linecap="butt" stroke-linejoin="round" stroke="rgb(79.998779%, 78.822327%, 86.273193%)" stroke-opacity="0.94902" stroke-miterlimit="10" d="M 73.449219 31.691406 L 75.613281 31.691406 "/>
<path fill="none" stroke-width="0.640187" stroke-linecap="butt" stroke-linejoin="round" stroke="rgb(79.998779%, 78.822327%, 86.273193%)" stroke-opacity="0.94902" stroke-miterlimit="10" d="M 77.777344 29.640625 L 79.945312 29.640625 "/>
<path fill="none" stroke-width="0.640187" stroke-linecap="butt" stroke-linejoin="round" stroke="rgb(79.998779%, 78.822327%, 86.273193%)" stroke-opacity="0.94902" stroke-miterlimit="10" d="M 78.859375 29.640625 L 78.859375 32.03125 "/>
<path fill="none" stroke-width="0.640187" stroke-linecap="butt" stroke-linejoin="round" stroke="rgb(79.998779%, 78.822327%, 86.273193%)" stroke-opacity="0.94902" stroke-miterlimit="10" d="M 77.777344 32.03125 L 79.945312 32.03125 "/>
<path fill="none" stroke-width="0.640187" stroke-linecap="butt" stroke-linejoin="round" stroke="rgb(79.998779%, 78.822327%, 86.273193%)" stroke-opacity="0.94902" stroke-miterlimit="10" d="M 82.109375 31.917969 L 84.273438 31.917969 "/>
<path fill="none" stroke-width="0.640187" stroke-linecap="butt" stroke-linejoin="round" stroke="rgb(79.998779%, 78.822327%, 86.273193%)" stroke-opacity="0.94902" stroke-miterlimit="10" d="M 83.191406 31.917969 L 83.191406 35.210938 "/>
<path fill="none" stroke-width="0.640187" stroke-linecap="butt" stroke-linejoin="round" stroke="rgb(79.998779%, 78.822327%, 86.273193%)" stroke-opacity="0.94902" stroke-miterlimit="10" d="M 82.109375 35.210938 L 84.273438 35.210938 "/>
<path fill="none" stroke-width="0.640187" stroke-linecap="butt" stroke-linejoin="round" stroke="rgb(55.685425%, 33.332825%, 44.7052%)" stroke-opacity="0.94902" stroke-miterlimit="10" d="M 47.46875 31.75 L 49.636719 31.75 "/>
<path fill="none" stroke-width="0.640187" stroke-linecap="butt" stroke-linejoin="round" stroke="rgb(55.685425%, 33.332825%, 44.7052%)" stroke-opacity="0.94902" stroke-miterlimit="10" d="M 48.550781 31.75 L 48.550781 34.964844 "/>
<path fill="none" stroke-width="0.640187" stroke-linecap="butt" stroke-linejoin="round" stroke="rgb(55.685425%, 33.332825%, 44.7052%)" stroke-opacity="0.94902" stroke-miterlimit="10" d="M 47.46875 34.964844 L 49.636719 34.964844 "/>
<path fill="none" stroke-width="0.640187" stroke-linecap="butt" stroke-linejoin="round" stroke="rgb(55.685425%, 33.332825%, 44.7052%)" stroke-opacity="0.94902" stroke-miterlimit="10" d="M 51.800781 30.96875 L 53.964844 30.96875 "/>
<path fill="none" stroke-width="0.640187" stroke-linecap="butt" stroke-linejoin="round" stroke="rgb(55.685425%, 33.332825%, 44.7052%)" stroke-opacity="0.94902" stroke-miterlimit="10" d="M 52.882812 30.96875 L 52.882812 33.195312 "/>
<path fill="none" stroke-width="0.640187" stroke-linecap="butt" stroke-linejoin="round" stroke="rgb(55.685425%, 33.332825%, 44.7052%)" stroke-opacity="0.94902" stroke-miterlimit="10" d="M 51.800781 33.195312 L 53.964844 33.195312 "/>
<path fill="none" stroke-width="0.640187" stroke-linecap="butt" stroke-linejoin="round" stroke="rgb(55.685425%, 33.332825%, 44.7052%)" stroke-opacity="0.94902" stroke-miterlimit="10" d="M 56.128906 31.496094 L 58.292969 31.496094 "/>
<path fill="none" stroke-width="0.640187" stroke-linecap="butt" stroke-linejoin="round" stroke="rgb(55.685425%, 33.332825%, 44.7052%)" stroke-opacity="0.94902" stroke-miterlimit="10" d="M 57.210938 31.496094 L 57.210938 33.117188 "/>
<path fill="none" stroke-width="0.640187" stroke-linecap="butt" stroke-linejoin="round" stroke="rgb(55.685425%, 33.332825%, 44.7052%)" stroke-opacity="0.94902" stroke-miterlimit="10" d="M 56.128906 33.117188 L 58.292969 33.117188 "/>
<path fill="none" stroke-width="0.640187" stroke-linecap="butt" stroke-linejoin="round" stroke="rgb(55.685425%, 33.332825%, 44.7052%)" stroke-opacity="0.94902" stroke-miterlimit="10" d="M 60.460938 32.578125 L 62.625 32.578125 "/>
<path fill="none" stroke-width="0.640187" stroke-linecap="butt" stroke-linejoin="round" stroke="rgb(55.685425%, 33.332825%, 44.7052%)" stroke-opacity="0.94902" stroke-miterlimit="10" d="M 61.542969 32.578125 L 61.542969 33.984375 "/>
<path fill="none" stroke-width="0.640187" stroke-linecap="butt" stroke-linejoin="round" stroke="rgb(55.685425%, 33.332825%, 44.7052%)" stroke-opacity="0.94902" stroke-miterlimit="10" d="M 60.460938 33.984375 L 62.625 33.984375 "/>
<path fill="none" stroke-width="0.640187" stroke-linecap="butt" stroke-linejoin="round" stroke="rgb(55.685425%, 33.332825%, 44.7052%)" stroke-opacity="0.94902" stroke-miterlimit="10" d="M 69.117188 33.703125 L 71.285156 33.703125 "/>
<path fill="none" stroke-width="0.640187" stroke-linecap="butt" stroke-linejoin="round" stroke="rgb(55.685425%, 33.332825%, 44.7052%)" stroke-opacity="0.94902" stroke-miterlimit="10" d="M 70.203125 33.703125 L 70.203125 35.246094 "/>
<path fill="none" stroke-width="0.640187" stroke-linecap="butt" stroke-linejoin="round" stroke="rgb(55.685425%, 33.332825%, 44.7052%)" stroke-opacity="0.94902" stroke-miterlimit="10" d="M 69.117188 35.246094 L 71.285156 35.246094 "/>
<path fill="none" stroke-width="0.640187" stroke-linecap="butt" stroke-linejoin="round" stroke="rgb(55.685425%, 33.332825%, 44.7052%)" stroke-opacity="0.94902" stroke-miterlimit="10" d="M 73.449219 34.558594 L 75.613281 34.558594 "/>
<path fill="none" stroke-width="0.640187" stroke-linecap="butt" stroke-linejoin="round" stroke="rgb(55.685425%, 33.332825%, 44.7052%)" stroke-opacity="0.94902" stroke-miterlimit="10" d="M 74.53125 34.558594 L 74.53125 36.085938 "/>
<path fill="none" stroke-width="0.640187" stroke-linecap="butt" stroke-linejoin="round" stroke="rgb(55.685425%, 33.332825%, 44.7052%)" stroke-opacity="0.94902" stroke-miterlimit="10" d="M 73.449219 36.085938 L 75.613281 36.085938 "/>
<path fill="none" stroke-width="0.640187" stroke-linecap="butt" stroke-linejoin="round" stroke="rgb(55.685425%, 33.332825%, 44.7052%)" stroke-opacity="0.94902" stroke-miterlimit="10" d="M 77.777344 35.25 L 79.945312 35.25 "/>
<path fill="none" stroke-width="0.640187" stroke-linecap="butt" stroke-linejoin="round" stroke="rgb(55.685425%, 33.332825%, 44.7052%)" stroke-opacity="0.94902" stroke-miterlimit="10" d="M 78.859375 35.25 L 78.859375 37.425781 "/>
<path fill="none" stroke-width="0.640187" stroke-linecap="butt" stroke-linejoin="round" stroke="rgb(55.685425%, 33.332825%, 44.7052%)" stroke-opacity="0.94902" stroke-miterlimit="10" d="M 77.777344 37.425781 L 79.945312 37.425781 "/>
<path fill="none" stroke-width="0.640187" stroke-linecap="butt" stroke-linejoin="round" stroke="rgb(55.685425%, 33.332825%, 44.7052%)" stroke-opacity="0.94902" stroke-miterlimit="10" d="M 82.109375 35.195312 L 84.273438 35.195312 "/>
<path fill="none" stroke-width="0.640187" stroke-linecap="butt" stroke-linejoin="round" stroke="rgb(55.685425%, 33.332825%, 44.7052%)" stroke-opacity="0.94902" stroke-miterlimit="10" d="M 83.191406 35.195312 L 83.191406 38.769531 "/>
<path fill="none" stroke-width="0.640187" stroke-linecap="butt" stroke-linejoin="round" stroke="rgb(55.685425%, 33.332825%, 44.7052%)" stroke-opacity="0.94902" stroke-miterlimit="10" d="M 82.109375 38.769531 L 84.273438 38.769531 "/>
<path fill-rule="nonzero" fill="rgb(79.998779%, 78.822327%, 86.273193%)" fill-opacity="1" stroke-width="0.708661" stroke-linecap="round" stroke-linejoin="round" stroke="rgb(79.998779%, 78.822327%, 86.273193%)" stroke-opacity="1" stroke-miterlimit="10" d="M 49.441406 29.300781 C 49.441406 30.484375 47.664062 30.484375 47.664062 29.300781 C 47.664062 28.117188 49.441406 28.117188 49.441406 29.300781 "/>
<path fill-rule="nonzero" fill="rgb(79.998779%, 78.822327%, 86.273193%)" fill-opacity="1" stroke-width="0.708661" stroke-linecap="round" stroke-linejoin="round" stroke="rgb(79.998779%, 78.822327%, 86.273193%)" stroke-opacity="1" stroke-miterlimit="10" d="M 53.769531 30.335938 C 53.769531 31.519531 51.996094 31.519531 51.996094 30.335938 C 51.996094 29.152344 53.769531 29.152344 53.769531 30.335938 "/>
<path fill-rule="nonzero" fill="rgb(79.998779%, 78.822327%, 86.273193%)" fill-opacity="1" stroke-width="0.708661" stroke-linecap="round" stroke-linejoin="round" stroke="rgb(79.998779%, 78.822327%, 86.273193%)" stroke-opacity="1" stroke-miterlimit="10" d="M 58.101562 30.691406 C 58.101562 31.875 56.324219 31.875 56.324219 30.691406 C 56.324219 29.507812 58.101562 29.507812 58.101562 30.691406 "/>
<path fill-rule="nonzero" fill="rgb(79.998779%, 78.822327%, 86.273193%)" fill-opacity="1" stroke-width="0.708661" stroke-linecap="round" stroke-linejoin="round" stroke="rgb(79.998779%, 78.822327%, 86.273193%)" stroke-opacity="1" stroke-miterlimit="10" d="M 62.429688 31.023438 C 62.429688 32.207031 60.652344 32.207031 60.652344 31.023438 C 60.652344 29.839844 62.429688 29.839844 62.429688 31.023438 "/>
<path fill-rule="nonzero" fill="rgb(79.998779%, 78.822327%, 86.273193%)" fill-opacity="1" stroke-width="0.708661" stroke-linecap="round" stroke-linejoin="round" stroke="rgb(79.998779%, 78.822327%, 86.273193%)" stroke-opacity="1" stroke-miterlimit="10" d="M 71.089844 30.515625 C 71.089844 31.699219 69.3125 31.699219 69.3125 30.515625 C 69.3125 29.332031 71.089844 29.332031 71.089844 30.515625 "/>
<path fill-rule="nonzero" fill="rgb(79.998779%, 78.822327%, 86.273193%)" fill-opacity="1" stroke-width="0.708661" stroke-linecap="round" stroke-linejoin="round" stroke="rgb(79.998779%, 78.822327%, 86.273193%)" stroke-opacity="1" stroke-miterlimit="10" d="M 75.417969 30.914062 C 75.417969 32.097656 73.644531 32.097656 73.644531 30.914062 C 73.644531 29.730469 75.417969 29.730469 75.417969 30.914062 "/>
<path fill-rule="nonzero" fill="rgb(79.998779%, 78.822327%, 86.273193%)" fill-opacity="1" stroke-width="0.708661" stroke-linecap="round" stroke-linejoin="round" stroke="rgb(79.998779%, 78.822327%, 86.273193%)" stroke-opacity="1" stroke-miterlimit="10" d="M 79.75 30.835938 C 79.75 32.019531 77.972656 32.019531 77.972656 30.835938 C 77.972656 29.652344 79.75 29.652344 79.75 30.835938 "/>
<path fill-rule="nonzero" fill="rgb(79.998779%, 78.822327%, 86.273193%)" fill-opacity="1" stroke-width="0.708661" stroke-linecap="round" stroke-linejoin="round" stroke="rgb(79.998779%, 78.822327%, 86.273193%)" stroke-opacity="1" stroke-miterlimit="10" d="M 84.078125 33.5625 C 84.078125 34.746094 82.304688 34.746094 82.304688 33.5625 C 82.304688 32.378906 84.078125 32.378906 84.078125 33.5625 "/>
<path fill-rule="nonzero" fill="rgb(55.685425%, 33.332825%, 44.7052%)" fill-opacity="1" stroke-width="0.708661" stroke-linecap="round" stroke-linejoin="round" stroke="rgb(55.685425%, 33.332825%, 44.7052%)" stroke-opacity="1" stroke-miterlimit="10" d="M 49.441406 33.359375 C 49.441406 34.542969 47.664062 34.542969 47.664062 33.359375 C 47.664062 32.175781 49.441406 32.175781 49.441406 33.359375 "/>
<path fill-rule="nonzero" fill="rgb(55.685425%, 33.332825%, 44.7052%)" fill-opacity="1" stroke-width="0.708661" stroke-linecap="round" stroke-linejoin="round" stroke="rgb(55.685425%, 33.332825%, 44.7052%)" stroke-opacity="1" stroke-miterlimit="10" d="M 53.769531 32.082031 C 53.769531 33.269531 51.996094 33.269531 51.996094 32.082031 C 51.996094 30.898438 53.769531 30.898438 53.769531 32.082031 "/>
<path fill-rule="nonzero" fill="rgb(55.685425%, 33.332825%, 44.7052%)" fill-opacity="1" stroke-width="0.708661" stroke-linecap="round" stroke-linejoin="round" stroke="rgb(55.685425%, 33.332825%, 44.7052%)" stroke-opacity="1" stroke-miterlimit="10" d="M 58.101562 32.304688 C 58.101562 33.492188 56.324219 33.492188 56.324219 32.304688 C 56.324219 31.121094 58.101562 31.121094 58.101562 32.304688 "/>
<path fill-rule="nonzero" fill="rgb(55.685425%, 33.332825%, 44.7052%)" fill-opacity="1" stroke-width="0.708661" stroke-linecap="round" stroke-linejoin="round" stroke="rgb(55.685425%, 33.332825%, 44.7052%)" stroke-opacity="1" stroke-miterlimit="10" d="M 62.429688 33.28125 C 62.429688 34.464844 60.652344 34.464844 60.652344 33.28125 C 60.652344 32.097656 62.429688 32.097656 62.429688 33.28125 "/>
<path fill-rule="nonzero" fill="rgb(55.685425%, 33.332825%, 44.7052%)" fill-opacity="1" stroke-width="0.708661" stroke-linecap="round" stroke-linejoin="round" stroke="rgb(55.685425%, 33.332825%, 44.7052%)" stroke-opacity="1" stroke-miterlimit="10" d="M 71.089844 34.472656 C 71.089844 35.65625 69.3125 35.65625 69.3125 34.472656 C 69.3125 33.289062 71.089844 33.289062 71.089844 34.472656 "/>
<path fill-rule="nonzero" fill="rgb(55.685425%, 33.332825%, 44.7052%)" fill-opacity="1" stroke-width="0.708661" stroke-linecap="round" stroke-linejoin="round" stroke="rgb(55.685425%, 33.332825%, 44.7052%)" stroke-opacity="1" stroke-miterlimit="10" d="M 75.417969 35.324219 C 75.417969 36.507812 73.644531 36.507812 73.644531 35.324219 C 73.644531 34.140625 75.417969 34.140625 75.417969 35.324219 "/>
<path fill-rule="nonzero" fill="rgb(55.685425%, 33.332825%, 44.7052%)" fill-opacity="1" stroke-width="0.708661" stroke-linecap="round" stroke-linejoin="round" stroke="rgb(55.685425%, 33.332825%, 44.7052%)" stroke-opacity="1" stroke-miterlimit="10" d="M 79.75 36.339844 C 79.75 37.523438 77.972656 37.523438 77.972656 36.339844 C 77.972656 35.15625 79.75 35.15625 79.75 36.339844 "/>
<path fill-rule="nonzero" fill="rgb(55.685425%, 33.332825%, 44.7052%)" fill-opacity="1" stroke-width="0.708661" stroke-linecap="round" stroke-linejoin="round" stroke="rgb(55.685425%, 33.332825%, 44.7052%)" stroke-opacity="1" stroke-miterlimit="10" d="M 84.078125 36.980469 C 84.078125 38.167969 82.304688 38.167969 82.304688 36.980469 C 82.304688 35.796875 84.078125 35.796875 84.078125 36.980469 "/>
<path fill="none" stroke-width="1.066978" stroke-linecap="butt" stroke-linejoin="round" stroke="rgb(0%, 0%, 0%)" stroke-opacity="1" stroke-miterlimit="10" d="M 44.222656 55.558594 L 44.222656 12.257812 "/>
<g fill="rgb(30.195618%, 30.195618%, 30.195618%)" fill-opacity="1">
<use xlink:href="#glyph-0-0" x="23.777344" y="55.980469"/>
</g>
<g fill="rgb(30.195618%, 30.195618%, 30.195618%)" fill-opacity="1">
<use xlink:href="#glyph-0-1" x="27.77541" y="55.980469"/>
</g>
<g fill="rgb(30.195618%, 30.195618%, 30.195618%)" fill-opacity="1">
<use xlink:href="#glyph-0-0" x="29.776235" y="55.980469"/>
</g>
<g fill="rgb(30.195618%, 30.195618%, 30.195618%)" fill-opacity="1">
<use xlink:href="#glyph-0-0" x="33.774301" y="55.980469"/>
</g>
<g fill="rgb(30.195618%, 30.195618%, 30.195618%)" fill-opacity="1">
<use xlink:href="#glyph-0-0" x="23.777344" y="46.140625"/>
</g>
<g fill="rgb(30.195618%, 30.195618%, 30.195618%)" fill-opacity="1">
<use xlink:href="#glyph-0-1" x="27.77541" y="46.140625"/>
</g>
<g fill="rgb(30.195618%, 30.195618%, 30.195618%)" fill-opacity="1">
<use xlink:href="#glyph-0-2" x="29.776235" y="46.140625"/>
</g>
<g fill="rgb(30.195618%, 30.195618%, 30.195618%)" fill-opacity="1">
<use xlink:href="#glyph-0-3" x="33.774301" y="46.140625"/>
</g>
<g fill="rgb(30.195618%, 30.195618%, 30.195618%)" fill-opacity="1">
<use xlink:href="#glyph-0-0" x="23.777344" y="36.300781"/>
</g>
<g fill="rgb(30.195618%, 30.195618%, 30.195618%)" fill-opacity="1">
<use xlink:href="#glyph-0-1" x="27.77541" y="36.300781"/>
</g>
<g fill="rgb(30.195618%, 30.195618%, 30.195618%)" fill-opacity="1">
<use xlink:href="#glyph-0-3" x="29.776235" y="36.300781"/>
</g>
<g fill="rgb(30.195618%, 30.195618%, 30.195618%)" fill-opacity="1">
<use xlink:href="#glyph-0-0" x="33.774301" y="36.300781"/>
</g>
<g fill="rgb(30.195618%, 30.195618%, 30.195618%)" fill-opacity="1">
<use xlink:href="#glyph-0-0" x="23.777344" y="26.457031"/>
</g>
<g fill="rgb(30.195618%, 30.195618%, 30.195618%)" fill-opacity="1">
<use xlink:href="#glyph-0-1" x="27.77541" y="26.457031"/>
</g>
<g fill="rgb(30.195618%, 30.195618%, 30.195618%)" fill-opacity="1">
<use xlink:href="#glyph-0-4" x="29.776235" y="26.457031"/>
</g>
<g fill="rgb(30.195618%, 30.195618%, 30.195618%)" fill-opacity="1">
<use xlink:href="#glyph-0-3" x="33.774301" y="26.457031"/>
</g>
<g fill="rgb(30.195618%, 30.195618%, 30.195618%)" fill-opacity="1">
<use xlink:href="#glyph-0-5" x="23.777344" y="16.617187"/>
</g>
<g fill="rgb(30.195618%, 30.195618%, 30.195618%)" fill-opacity="1">
<use xlink:href="#glyph-0-1" x="27.77541" y="16.617187"/>
</g>
<g fill="rgb(30.195618%, 30.195618%, 30.195618%)" fill-opacity="1">
<use xlink:href="#glyph-0-0" x="29.776235" y="16.617187"/>
</g>
<g fill="rgb(30.195618%, 30.195618%, 30.195618%)" fill-opacity="1">
<use xlink:href="#glyph-0-0" x="33.774301" y="16.617187"/>
</g>
<path fill="none" stroke-width="0.640187" stroke-linecap="butt" stroke-linejoin="round" stroke="rgb(0%, 0%, 0%)" stroke-opacity="1" stroke-miterlimit="10" d="M 39.972656 53.589844 L 44.222656 53.589844 "/>
<path fill="none" stroke-width="0.640187" stroke-linecap="butt" stroke-linejoin="round" stroke="rgb(0%, 0%, 0%)" stroke-opacity="1" stroke-miterlimit="10" d="M 39.972656 43.75 L 44.222656 43.75 "/>
<path fill="none" stroke-width="0.640187" stroke-linecap="butt" stroke-linejoin="round" stroke="rgb(0%, 0%, 0%)" stroke-opacity="1" stroke-miterlimit="10" d="M 39.972656 33.910156 L 44.222656 33.910156 "/>
<path fill="none" stroke-width="0.640187" stroke-linecap="butt" stroke-linejoin="round" stroke="rgb(0%, 0%, 0%)" stroke-opacity="1" stroke-miterlimit="10" d="M 39.972656 24.066406 L 44.222656 24.066406 "/>
<path fill="none" stroke-width="0.640187" stroke-linecap="butt" stroke-linejoin="round" stroke="rgb(0%, 0%, 0%)" stroke-opacity="1" stroke-miterlimit="10" d="M 39.972656 14.226562 L 44.222656 14.226562 "/>
<path fill="none" stroke-width="1.066978" stroke-linecap="butt" stroke-linejoin="round" stroke="rgb(0%, 0%, 0%)" stroke-opacity="1" stroke-miterlimit="10" d="M 44.222656 55.558594 L 87.519531 55.558594 "/>
<path fill="none" stroke-width="0.640187" stroke-linecap="butt" stroke-linejoin="round" stroke="rgb(0%, 0%, 0%)" stroke-opacity="1" stroke-miterlimit="10" d="M 44.222656 59.808594 L 44.222656 55.558594 "/>
<path fill="none" stroke-width="0.640187" stroke-linecap="butt" stroke-linejoin="round" stroke="rgb(0%, 0%, 0%)" stroke-opacity="1" stroke-miterlimit="10" d="M 52.882812 59.808594 L 52.882812 55.558594 "/>
<path fill="none" stroke-width="0.640187" stroke-linecap="butt" stroke-linejoin="round" stroke="rgb(0%, 0%, 0%)" stroke-opacity="1" stroke-miterlimit="10" d="M 61.542969 59.808594 L 61.542969 55.558594 "/>
<path fill="none" stroke-width="0.640187" stroke-linecap="butt" stroke-linejoin="round" stroke="rgb(0%, 0%, 0%)" stroke-opacity="1" stroke-miterlimit="10" d="M 70.203125 59.808594 L 70.203125 55.558594 "/>
<path fill="none" stroke-width="0.640187" stroke-linecap="butt" stroke-linejoin="round" stroke="rgb(0%, 0%, 0%)" stroke-opacity="1" stroke-miterlimit="10" d="M 78.859375 59.808594 L 78.859375 55.558594 "/>
<path fill="none" stroke-width="0.640187" stroke-linecap="butt" stroke-linejoin="round" stroke="rgb(0%, 0%, 0%)" stroke-opacity="1" stroke-miterlimit="10" d="M 87.519531 59.808594 L 87.519531 55.558594 "/>
<g fill="rgb(30.195618%, 30.195618%, 30.195618%)" fill-opacity="1">
<use xlink:href="#glyph-0-6" x="41.222656" y="67.390625"/>
</g>
<g fill="rgb(30.195618%, 30.195618%, 30.195618%)" fill-opacity="1">
<use xlink:href="#glyph-0-3" x="43.224711" y="67.390625"/>
</g>
<g fill="rgb(30.195618%, 30.195618%, 30.195618%)" fill-opacity="1">
<use xlink:href="#glyph-0-6" x="49.882777" y="67.390625"/>
</g>
<g fill="rgb(30.195618%, 30.195618%, 30.195618%)" fill-opacity="1">
<use xlink:href="#glyph-0-7" x="51.884832" y="67.390625"/>
</g>
<g fill="rgb(30.195618%, 30.195618%, 30.195618%)" fill-opacity="1">
<use xlink:href="#glyph-0-6" x="58.542898" y="67.390625"/>
</g>
<g fill="rgb(30.195618%, 30.195618%, 30.195618%)" fill-opacity="1">
<use xlink:href="#glyph-0-5" x="60.544953" y="67.390625"/>
</g>
<g fill="rgb(30.195618%, 30.195618%, 30.195618%)" fill-opacity="1">
<use xlink:href="#glyph-0-5" x="68.204019" y="67.390625"/>
</g>
<g fill="rgb(30.195618%, 30.195618%, 30.195618%)" fill-opacity="1">
<use xlink:href="#glyph-0-7" x="76.857086" y="67.390625"/>
</g>
<g fill="rgb(30.195618%, 30.195618%, 30.195618%)" fill-opacity="1">
<use xlink:href="#glyph-0-3" x="85.517152" y="67.390625"/>
</g>
<g fill="rgb(0%, 0%, 0%)" fill-opacity="1">
<use xlink:href="#glyph-0-8" x="45.371094" y="78.132812"/>
</g>
<g fill="rgb(0%, 0%, 0%)" fill-opacity="1">
<use xlink:href="#glyph-0-9" x="50.369039" y="78.132812"/>
</g>
<g fill="rgb(0%, 0%, 0%)" fill-opacity="1">
<use xlink:href="#glyph-0-10" x="54.374106" y="78.132812"/>
</g>
<g fill="rgb(0%, 0%, 0%)" fill-opacity="1">
<use xlink:href="#glyph-0-11" x="58.372172" y="78.132812"/>
</g>
<g fill="rgb(0%, 0%, 0%)" fill-opacity="1">
<use xlink:href="#glyph-0-12" x="60.372996" y="78.132812"/>
</g>
<g fill="rgb(0%, 0%, 0%)" fill-opacity="1">
<use xlink:href="#glyph-0-13" x="62.373821" y="78.132812"/>
</g>
<g fill="rgb(0%, 0%, 0%)" fill-opacity="1">
<use xlink:href="#glyph-0-14" x="67.372996" y="78.132812"/>
</g>
<g fill="rgb(0%, 0%, 0%)" fill-opacity="1">
<use xlink:href="#glyph-0-15" x="71.371063" y="78.132812"/>
</g>
<g fill="rgb(0%, 0%, 0%)" fill-opacity="1">
<use xlink:href="#glyph-0-16" x="76.370239" y="78.132812"/>
</g>
<g fill="rgb(0%, 0%, 0%)" fill-opacity="1">
<use xlink:href="#glyph-0-17" x="80.368305" y="78.132812"/>
</g>
<g fill="rgb(0%, 0%, 0%)" fill-opacity="1">
<use xlink:href="#glyph-0-18" x="82.37036" y="78.132812"/>
</g>
<g fill="rgb(0%, 0%, 0%)" fill-opacity="1">
<use xlink:href="#glyph-1-0" x="10.871094" y="50.410156"/>
</g>
<g fill="rgb(0%, 0%, 0%)" fill-opacity="1">
<use xlink:href="#glyph-1-1" x="10.871094" y="46.41209"/>
</g>
<g fill="rgb(0%, 0%, 0%)" fill-opacity="1">
<use xlink:href="#glyph-1-2" x="10.871094" y="42.407023"/>
</g>
<g fill="rgb(0%, 0%, 0%)" fill-opacity="1">
<use xlink:href="#glyph-1-3" x="10.871094" y="38.408957"/>
</g>
<g fill="rgb(0%, 0%, 0%)" fill-opacity="1">
<use xlink:href="#glyph-1-4" x="10.871094" y="36.408133"/>
</g>
<g fill="rgb(0%, 0%, 0%)" fill-opacity="1">
<use xlink:href="#glyph-1-5" x="10.871094" y="34.407308"/>
</g>
<g fill="rgb(0%, 0%, 0%)" fill-opacity="1">
<use xlink:href="#glyph-1-6" x="10.871094" y="29.408133"/>
</g>
<g fill="rgb(0%, 0%, 0%)" fill-opacity="1">
<use xlink:href="#glyph-1-7" x="10.871094" y="25.410066"/>
</g>
<g fill="rgb(0%, 0%, 0%)" fill-opacity="1">
<use xlink:href="#glyph-1-1" x="10.871094" y="21.412"/>
</g>
<g fill="rgb(0%, 0%, 0%)" fill-opacity="1">
<use xlink:href="#glyph-1-8" x="18.429687" y="49.410157"/>
</g>
<g fill="rgb(0%, 0%, 0%)" fill-opacity="1">
<use xlink:href="#glyph-1-9" x="18.429687" y="44.412212"/>
</g>
<g fill="rgb(0%, 0%, 0%)" fill-opacity="1">
<use xlink:href="#glyph-1-9" x="18.429687" y="40.408212"/>
</g>
<g fill="rgb(0%, 0%, 0%)" fill-opacity="1">
<use xlink:href="#glyph-1-10" x="18.429687" y="36.411212"/>
</g>
<g fill="rgb(0%, 0%, 0%)" fill-opacity="1">
<use xlink:href="#glyph-1-11" x="18.429687" y="32.413145"/>
</g>
<g fill="rgb(0%, 0%, 0%)" fill-opacity="1">
<use xlink:href="#glyph-1-2" x="18.429687" y="30.411091"/>
</g>
<g fill="rgb(0%, 0%, 0%)" fill-opacity="1">
<use xlink:href="#glyph-1-9" x="18.429687" y="26.413024"/>
</g>
<g fill="rgb(0%, 0%, 0%)" fill-opacity="1">
<use xlink:href="#glyph-1-12" x="18.429687" y="22.409024"/>
</g>
</svg>
