<?xml version="1.0" encoding="utf-8"?>
<svg xmlns="http://www.w3.org/2000/svg" xmlns:xlink="http://www.w3.org/1999/xlink" width="450" height="150" viewBox="0 0 1800 600">
<defs>
  <clipPath id="clip500">
    <rect x="0" y="0" width="1800" height="600"/>
  </clipPath>
</defs>
<path clip-path="url(#clip500)" d="M0 600 L1800 600 L1800 3.33067e-14 L0 3.33067e-14  Z" fill="#ffffff" fill-rule="evenodd" fill-opacity="1"/>
<defs>
  <clipPath id="clip501">
    <rect x="360" y="0" width="1261" height="600"/>
  </clipPath>
</defs>
<path clip-path="url(#clip500)" d="M70.8661 529.134 L529.134 529.134 L529.134 70.8661 L70.8661 70.8661  Z" fill="#ffffff" fill-rule="evenodd" fill-opacity="1"/>
<defs>
  <clipPath id="clip502">
    <rect x="70" y="70" width="459" height="459"/>
  </clipPath>
</defs>
<polyline clip-path="url(#clip500)" style="stroke:#000000; stroke-linecap:round; stroke-linejoin:round; stroke-width:6; stroke-opacity:1; fill:none" points="70.8661,529.134 529.134,529.134 "/>
<polyline clip-path="url(#clip500)" style="stroke:#000000; stroke-linecap:round; stroke-linejoin:round; stroke-width:6; stroke-opacity:1; fill:none" points="300,529.134 300,70.8661 "/>
<path clip-path="url(#clip502)" d="M96.0717 477.233 L96.0717 529.134 L118.118 529.134 L118.118 477.233 L96.0717 477.233 L96.0717 477.233  Z" fill="#83d89e" fill-rule="evenodd" fill-opacity="1"/>
<polyline clip-path="url(#clip502)" style="stroke:#000000; stroke-linecap:round; stroke-linejoin:round; stroke-width:4.2; stroke-opacity:1; fill:none" points="96.0717,477.233 96.0717,529.134 118.118,529.134 118.118,477.233 96.0717,477.233 "/>
<path clip-path="url(#clip502)" d="M123.63 462.239 L123.63 529.134 L145.676 529.134 L145.676 462.239 L123.63 462.239 L123.63 462.239  Z" fill="#83d89e" fill-rule="evenodd" fill-opacity="1"/>
<polyline clip-path="url(#clip502)" style="stroke:#000000; stroke-linecap:round; stroke-linejoin:round; stroke-width:4.2; stroke-opacity:1; fill:none" points="123.63,462.239 123.63,529.134 145.676,529.134 145.676,462.239 123.63,462.239 "/>
<path clip-path="url(#clip502)" d="M151.187 444.476 L151.187 529.134 L173.234 529.134 L173.234 444.476 L151.187 444.476 L151.187 444.476  Z" fill="#83d89e" fill-rule="evenodd" fill-opacity="1"/>
<polyline clip-path="url(#clip502)" style="stroke:#000000; stroke-linecap:round; stroke-linejoin:round; stroke-width:4.2; stroke-opacity:1; fill:none" points="151.187,444.476 151.187,529.134 173.234,529.134 173.234,444.476 151.187,444.476 "/>
<path clip-path="url(#clip502)" d="M178.745 425.016 L178.745 529.134 L200.792 529.134 L200.792 425.016 L178.745 425.016 L178.745 425.016  Z" fill="#83d89e" fill-rule="evenodd" fill-opacity="1"/>
<polyline clip-path="url(#clip502)" style="stroke:#000000; stroke-linecap:round; stroke-linejoin:round; stroke-width:4.2; stroke-opacity:1; fill:none" points="178.745,425.016 178.745,529.134 200.792,529.134 200.792,425.016 178.745,425.016 "/>
<path clip-path="url(#clip502)" d="M206.303 407.154 L206.303 529.134 L228.35 529.134 L228.35 407.154 L206.303 407.154 L206.303 407.154  Z" fill="#83d89e" fill-rule="evenodd" fill-opacity="1"/>
<polyline clip-path="url(#clip502)" style="stroke:#000000; stroke-linecap:round; stroke-linejoin:round; stroke-width:4.2; stroke-opacity:1; fill:none" points="206.303,407.154 206.303,529.134 228.35,529.134 228.35,407.154 206.303,407.154 "/>
<path clip-path="url(#clip502)" d="M233.861 399.2 L233.861 529.134 L255.907 529.134 L255.907 399.2 L233.861 399.2 L233.861 399.2  Z" fill="#83d89e" fill-rule="evenodd" fill-opacity="1"/>
<polyline clip-path="url(#clip502)" style="stroke:#000000; stroke-linecap:round; stroke-linejoin:round; stroke-width:4.2; stroke-opacity:1; fill:none" points="233.861,399.2 233.861,529.134 255.907,529.134 255.907,399.2 233.861,399.2 "/>
<path clip-path="url(#clip502)" d="M261.419 421.336 L261.419 529.134 L283.465 529.134 L283.465 421.336 L261.419 421.336 L261.419 421.336  Z" fill="#83d89e" fill-rule="evenodd" fill-opacity="1"/>
<polyline clip-path="url(#clip502)" style="stroke:#000000; stroke-linecap:round; stroke-linejoin:round; stroke-width:4.2; stroke-opacity:1; fill:none" points="261.419,421.336 261.419,529.134 283.465,529.134 283.465,421.336 261.419,421.336 "/>
<path clip-path="url(#clip502)" d="M288.977 478.201 L288.977 529.134 L311.023 529.134 L311.023 478.201 L288.977 478.201 L288.977 478.201  Z" fill="#83d89e" fill-rule="evenodd" fill-opacity="1"/>
<polyline clip-path="url(#clip502)" style="stroke:#000000; stroke-linecap:round; stroke-linejoin:round; stroke-width:4.2; stroke-opacity:1; fill:none" points="288.977,478.201 288.977,529.134 311.023,529.134 311.023,478.201 288.977,478.201 "/>
<path clip-path="url(#clip502)" d="M316.535 480.286 L316.535 529.134 L338.581 529.134 L338.581 480.286 L316.535 480.286 L316.535 480.286  Z" fill="#83d89e" fill-rule="evenodd" fill-opacity="1"/>
<polyline clip-path="url(#clip502)" style="stroke:#000000; stroke-linecap:round; stroke-linejoin:round; stroke-width:4.2; stroke-opacity:1; fill:none" points="316.535,480.286 316.535,529.134 338.581,529.134 338.581,480.286 316.535,480.286 "/>
<path clip-path="url(#clip502)" d="M344.093 485.141 L344.093 529.134 L366.139 529.134 L366.139 485.141 L344.093 485.141 L344.093 485.141  Z" fill="#83d89e" fill-rule="evenodd" fill-opacity="1"/>
<polyline clip-path="url(#clip502)" style="stroke:#000000; stroke-linecap:round; stroke-linejoin:round; stroke-width:4.2; stroke-opacity:1; fill:none" points="344.093,485.141 344.093,529.134 366.139,529.134 366.139,485.141 344.093,485.141 "/>
<path clip-path="url(#clip502)" d="M371.65 494.614 L371.65 529.134 L393.697 529.134 L393.697 494.614 L371.65 494.614 L371.65 494.614  Z" fill="#83d89e" fill-rule="evenodd" fill-opacity="1"/>
<polyline clip-path="url(#clip502)" style="stroke:#000000; stroke-linecap:round; stroke-linejoin:round; stroke-width:4.2; stroke-opacity:1; fill:none" points="371.65,494.614 371.65,529.134 393.697,529.134 393.697,494.614 371.65,494.614 "/>
<path clip-path="url(#clip502)" d="M399.208 503.038 L399.208 529.134 L421.255 529.134 L421.255 503.038 L399.208 503.038 L399.208 503.038  Z" fill="#83d89e" fill-rule="evenodd" fill-opacity="1"/>
<polyline clip-path="url(#clip502)" style="stroke:#000000; stroke-linecap:round; stroke-linejoin:round; stroke-width:4.2; stroke-opacity:1; fill:none" points="399.208,503.038 399.208,529.134 421.255,529.134 421.255,503.038 399.208,503.038 "/>
<path clip-path="url(#clip502)" d="M426.766 509.637 L426.766 529.134 L448.813 529.134 L448.813 509.637 L426.766 509.637 L426.766 509.637  Z" fill="#83d89e" fill-rule="evenodd" fill-opacity="1"/>
<polyline clip-path="url(#clip502)" style="stroke:#000000; stroke-linecap:round; stroke-linejoin:round; stroke-width:4.2; stroke-opacity:1; fill:none" points="426.766,509.637 426.766,529.134 448.813,529.134 448.813,509.637 426.766,509.637 "/>
<path clip-path="url(#clip502)" d="M454.324 514.606 L454.324 529.134 L476.37 529.134 L476.37 514.606 L454.324 514.606 L454.324 514.606  Z" fill="#83d89e" fill-rule="evenodd" fill-opacity="1"/>
<polyline clip-path="url(#clip502)" style="stroke:#000000; stroke-linecap:round; stroke-linejoin:round; stroke-width:4.2; stroke-opacity:1; fill:none" points="454.324,514.606 454.324,529.134 476.37,529.134 476.37,514.606 454.324,514.606 "/>
<path clip-path="url(#clip502)" d="M481.882 518.297 L481.882 529.134 L503.928 529.134 L503.928 518.297 L481.882 518.297 L481.882 518.297  Z" fill="#83d89e" fill-rule="evenodd" fill-opacity="1"/>
<polyline clip-path="url(#clip502)" style="stroke:#000000; stroke-linecap:round; stroke-linejoin:round; stroke-width:4.2; stroke-opacity:1; fill:none" points="481.882,518.297 481.882,529.134 503.928,529.134 503.928,518.297 481.882,518.297 "/>
<circle clip-path="url(#clip502)" style="fill:#83d89e; stroke:none; fill-opacity:0" cx="107.095" cy="477.233" r="2"/>
<circle clip-path="url(#clip502)" style="fill:#83d89e; stroke:none; fill-opacity:0" cx="134.653" cy="462.239" r="2"/>
<circle clip-path="url(#clip502)" style="fill:#83d89e; stroke:none; fill-opacity:0" cx="162.211" cy="444.476" r="2"/>
<circle clip-path="url(#clip502)" style="fill:#83d89e; stroke:none; fill-opacity:0" cx="189.768" cy="425.016" r="2"/>
<circle clip-path="url(#clip502)" style="fill:#83d89e; stroke:none; fill-opacity:0" cx="217.326" cy="407.154" r="2"/>
<circle clip-path="url(#clip502)" style="fill:#83d89e; stroke:none; fill-opacity:0" cx="244.884" cy="399.2" r="2"/>
<circle clip-path="url(#clip502)" style="fill:#83d89e; stroke:none; fill-opacity:0" cx="272.442" cy="421.336" r="2"/>
<circle clip-path="url(#clip502)" style="fill:#83d89e; stroke:none; fill-opacity:0" cx="300" cy="478.201" r="2"/>
<circle clip-path="url(#clip502)" style="fill:#83d89e; stroke:none; fill-opacity:0" cx="327.558" cy="480.286" r="2"/>
<circle clip-path="url(#clip502)" style="fill:#83d89e; stroke:none; fill-opacity:0" cx="355.116" cy="485.141" r="2"/>
<circle clip-path="url(#clip502)" style="fill:#83d89e; stroke:none; fill-opacity:0" cx="382.674" cy="494.614" r="2"/>
<circle clip-path="url(#clip502)" style="fill:#83d89e; stroke:none; fill-opacity:0" cx="410.232" cy="503.038" r="2"/>
<circle clip-path="url(#clip502)" style="fill:#83d89e; stroke:none; fill-opacity:0" cx="437.789" cy="509.637" r="2"/>
<circle clip-path="url(#clip502)" style="fill:#83d89e; stroke:none; fill-opacity:0" cx="465.347" cy="514.606" r="2"/>
<circle clip-path="url(#clip502)" style="fill:#83d89e; stroke:none; fill-opacity:0" cx="492.905" cy="518.297" r="2"/>
<path clip-path="url(#clip500)" d="M100.247 99.3925 Q100.247 100.078 99.9568 101.395 Q99.0346 105.111 95.5827 107.666 Q95.003 108.141 93.9753 108.747 Q95.2138 109.564 96.2941 111.066 Q97.9015 113.543 97.9015 116.889 Q97.9015 118.444 97.4799 120.341 Q96.2941 124.741 92.1308 127.903 Q87.9411 130.986 82.9609 130.986 Q80.2732 130.986 78.4287 129.564 Q76.6105 128.114 75.899 125.69 L72.2364 140.473 Q72.1573 140.841 71.683 140.841 L71.4195 140.841 Q70.8661 140.841 70.8661 140.209 L79.1928 107.008 Q79.7462 104.768 80.6421 102.66 Q81.538 100.552 82.7765 98.6547 Q84.0413 96.7575 85.4905 95.3609 Q86.9398 93.938 88.7316 93.1212 Q90.5234 92.278 92.4206 92.278 Q96.3995 92.278 98.6657 94.992 Q100.247 96.9156 100.247 99.3925 M97.2164 98.4439 Q97.2164 96.8102 96.5576 95.6771 Q95.2138 93.5164 92.3679 93.5164 Q90.6552 93.5164 89.0215 94.3069 Q87.4141 95.0711 86.1229 96.3886 Q84.8318 97.7061 83.7251 99.4979 Q82.6184 101.29 81.8015 103.24 Q81.011 105.163 80.484 107.271 L77.2429 120.341 Q76.9267 121.738 76.9267 122.976 Q76.9267 125.927 78.5604 127.851 Q80.1941 129.774 83.0136 129.774 Q86.7553 129.774 89.9701 126.981 Q92.7632 124.478 93.9226 120.077 Q94.5814 117.311 94.5814 115.387 Q94.5814 113.279 93.8172 111.645 Q93.2639 110.328 92.1835 109.537 Q90.1809 110.249 88.1519 110.249 Q87.1769 110.249 86.6499 110.222 Q86.1493 110.196 85.4115 110.091 Q84.7 109.985 84.3575 109.695 Q84.0413 109.406 84.0413 108.958 Q84.0413 108.694 84.094 108.589 Q84.1994 108.167 84.5419 107.877 Q84.8845 107.587 85.2797 107.456 Q85.675 107.298 86.3337 107.219 Q87.0188 107.139 87.4668 107.139 Q87.9148 107.113 88.6789 107.113 Q90.4707 107.113 92.2889 107.825 Q92.974 107.456 93.7118 106.797 Q96.057 104.61 96.8475 101.132 Q97.2164 99.8405 97.2164 98.4439 M90.5761 108.641 Q89.4694 108.352 88.6262 108.352 Q85.5432 108.352 85.3851 108.852 Q85.3851 108.905 85.4905 108.958 Q85.5959 108.984 85.8331 109.01 Q86.0966 109.01 86.3074 109.037 Q86.5445 109.063 86.9398 109.063 Q87.335 109.063 87.5459 109.063 Q87.783 109.063 88.2046 109.063 Q89.2586 109.063 90.5761 108.641 Z" fill="#83d89e" fill-rule="nonzero" fill-opacity="1" /><path clip-path="url(#clip500)" d="M116.085 122.185 Q116.138 121.527 117.166 121.527 L150.235 121.527 Q151.79 121.527 151.816 122.133 Q151.816 122.792 150.341 122.765 L117.534 122.765 Q116.085 122.792 116.085 122.185 M116.085 111.645 Q116.085 110.987 117.218 111.013 L150.182 111.013 Q151.79 111.013 151.816 111.645 Q151.816 112.251 150.446 112.251 L117.166 112.251 Q116.085 112.251 116.085 111.645 Z" fill="#83d89e" fill-rule="nonzero" fill-opacity="1" /><path clip-path="url(#clip500)" d="M172.631 113.121 Q172.631 105.19 174.634 100.868 Q177.427 94.4387 184.014 94.4387 Q185.411 94.4387 186.86 94.8339 Q188.336 95.2028 190.18 96.6521 Q192.051 98.1014 193.184 100.473 Q195.345 105.058 195.345 113.121 Q195.345 121 193.342 125.295 Q190.417 131.566 183.962 131.566 Q181.537 131.566 179.06 130.328 Q176.61 129.089 175.055 126.112 Q172.631 121.658 172.631 113.121 M177.11 112.462 Q177.11 120.604 177.69 123.846 Q178.349 127.35 180.141 128.878 Q181.959 130.38 183.962 130.38 Q186.122 130.38 187.914 128.773 Q189.732 127.139 190.286 123.635 Q190.892 120.183 190.865 112.462 Q190.865 104.952 190.338 101.948 Q189.627 98.4439 187.73 97.0473 Q185.859 95.6244 183.962 95.6244 Q183.25 95.6244 182.486 95.8352 Q181.748 96.046 180.668 96.6521 Q179.587 97.2581 178.744 98.7601 Q177.927 100.262 177.532 102.528 Q177.11 105.453 177.11 112.462 Z" fill="#83d89e" fill-rule="nonzero" fill-opacity="1" /><path clip-path="url(#clip500)" d="M200.172 129.511 Q199.356 128.641 199.356 127.508 Q199.356 126.375 200.172 125.558 Q200.989 124.715 202.228 124.715 Q203.413 124.715 204.204 125.506 Q205.021 126.27 205.021 127.535 Q205.021 128.773 204.151 129.59 Q203.308 130.38 202.228 130.38 Q200.989 130.38 200.172 129.511 Z" fill="#83d89e" fill-rule="nonzero" fill-opacity="1" /><path clip-path="url(#clip500)" d="M208.768 99.577 L208.768 97.8906 Q215.25 97.8906 218.597 94.4387 Q219.519 94.4387 219.677 94.6495 Q219.835 94.8603 219.835 95.8352 L219.835 126.112 Q219.835 127.719 220.626 128.22 Q221.416 128.72 224.868 128.72 L226.581 128.72 L226.581 130.38 Q224.683 130.222 217.832 130.222 Q210.981 130.222 209.11 130.38 L209.11 128.72 L210.823 128.72 Q214.222 128.72 215.039 128.246 Q215.856 127.745 215.856 126.112 L215.856 98.1541 Q213.037 99.577 208.768 99.577 Z" fill="#83d89e" fill-rule="nonzero" fill-opacity="1" /><path clip-path="url(#clip500)" d="M670.866 529.134 L1129.13 529.134 L1129.13 70.8661 L670.866 70.8661  Z" fill="#ffffff" fill-rule="evenodd" fill-opacity="1"/>
<defs>
  <clipPath id="clip503">
    <rect x="670" y="70" width="459" height="459"/>
  </clipPath>
</defs>
<polyline clip-path="url(#clip500)" style="stroke:#000000; stroke-linecap:round; stroke-linejoin:round; stroke-width:6; stroke-opacity:1; fill:none" points="670.866,529.134 1129.13,529.134 "/>
<polyline clip-path="url(#clip500)" style="stroke:#000000; stroke-linecap:round; stroke-linejoin:round; stroke-width:6; stroke-opacity:1; fill:none" points="900,529.134 900,70.8661 "/>
<path clip-path="url(#clip503)" d="M696.072 502.3 L696.072 529.134 L718.118 529.134 L718.118 502.3 L696.072 502.3 L696.072 502.3  Z" fill="#5fa3b4" fill-rule="evenodd" fill-opacity="0.2"/>
<polyline clip-path="url(#clip503)" style="stroke:#000000; stroke-linecap:round; stroke-linejoin:round; stroke-width:4.2; stroke-opacity:0.2; fill:none" points="696.072,502.3 696.072,529.134 718.118,529.134 718.118,502.3 696.072,502.3 "/>
<path clip-path="url(#clip503)" d="M723.63 494.055 L723.63 529.134 L745.676 529.134 L745.676 494.055 L723.63 494.055 L723.63 494.055  Z" fill="#5fa3b4" fill-rule="evenodd" fill-opacity="0.2"/>
<polyline clip-path="url(#clip503)" style="stroke:#000000; stroke-linecap:round; stroke-linejoin:round; stroke-width:4.2; stroke-opacity:0.2; fill:none" points="723.63,494.055 723.63,529.134 745.676,529.134 745.676,494.055 723.63,494.055 "/>
<path clip-path="url(#clip503)" d="M751.187 482.821 L751.187 529.134 L773.234 529.134 L773.234 482.821 L751.187 482.821 L751.187 482.821  Z" fill="#5fa3b4" fill-rule="evenodd" fill-opacity="0.2"/>
<polyline clip-path="url(#clip503)" style="stroke:#000000; stroke-linecap:round; stroke-linejoin:round; stroke-width:4.2; stroke-opacity:0.2; fill:none" points="751.187,482.821 751.187,529.134 773.234,529.134 773.234,482.821 751.187,482.821 "/>
<path clip-path="url(#clip503)" d="M778.745 467.237 L778.745 529.134 L800.792 529.134 L800.792 467.237 L778.745 467.237 L778.745 467.237  Z" fill="#5fa3b4" fill-rule="evenodd" fill-opacity="0.2"/>
<polyline clip-path="url(#clip503)" style="stroke:#000000; stroke-linecap:round; stroke-linejoin:round; stroke-width:4.2; stroke-opacity:0.2; fill:none" points="778.745,467.237 778.745,529.134 800.792,529.134 800.792,467.237 778.745,467.237 "/>
<path clip-path="url(#clip503)" d="M806.303 445.077 L806.303 529.134 L828.35 529.134 L828.35 445.077 L806.303 445.077 L806.303 445.077  Z" fill="#5fa3b4" fill-rule="evenodd" fill-opacity="0.2"/>
<polyline clip-path="url(#clip503)" style="stroke:#000000; stroke-linecap:round; stroke-linejoin:round; stroke-width:4.2; stroke-opacity:0.2; fill:none" points="806.303,445.077 806.303,529.134 828.35,529.134 828.35,445.077 806.303,445.077 "/>
<path clip-path="url(#clip503)" d="M833.861 412.373 L833.861 529.134 L855.907 529.134 L855.907 412.373 L833.861 412.373 L833.861 412.373  Z" fill="#5fa3b4" fill-rule="evenodd" fill-opacity="0.2"/>
<polyline clip-path="url(#clip503)" style="stroke:#000000; stroke-linecap:round; stroke-linejoin:round; stroke-width:4.2; stroke-opacity:0.2; fill:none" points="833.861,412.373 833.861,529.134 855.907,529.134 855.907,412.373 833.861,412.373 "/>
<path clip-path="url(#clip503)" d="M861.419 360.707 L861.419 529.134 L883.465 529.134 L883.465 360.707 L861.419 360.707 L861.419 360.707  Z" fill="#5fa3b4" fill-rule="evenodd" fill-opacity="0.2"/>
<polyline clip-path="url(#clip503)" style="stroke:#000000; stroke-linecap:round; stroke-linejoin:round; stroke-width:4.2; stroke-opacity:0.2; fill:none" points="861.419,360.707 861.419,529.134 883.465,529.134 883.465,360.707 861.419,360.707 "/>
<path clip-path="url(#clip503)" d="M888.977 252.4 L888.977 529.134 L911.023 529.134 L911.023 252.4 L888.977 252.4 L888.977 252.4  Z" fill="#5fa3b4" fill-rule="evenodd" fill-opacity="0.2"/>
<polyline clip-path="url(#clip503)" style="stroke:#000000; stroke-linecap:round; stroke-linejoin:round; stroke-width:4.2; stroke-opacity:0.2; fill:none" points="888.977,252.4 888.977,529.134 911.023,529.134 911.023,252.4 888.977,252.4 "/>
<path clip-path="url(#clip503)" d="M916.535 471.451 L916.535 529.134 L938.581 529.134 L938.581 471.451 L916.535 471.451 L916.535 471.451  Z" fill="#5fa3b4" fill-rule="evenodd" fill-opacity="0.2"/>
<polyline clip-path="url(#clip503)" style="stroke:#000000; stroke-linecap:round; stroke-linejoin:round; stroke-width:4.2; stroke-opacity:0.2; fill:none" points="916.535,471.451 916.535,529.134 938.581,529.134 938.581,471.451 916.535,471.451 "/>
<path clip-path="url(#clip503)" d="M944.093 506.552 L944.093 529.134 L966.139 529.134 L966.139 506.552 L944.093 506.552 L944.093 506.552  Z" fill="#5fa3b4" fill-rule="evenodd" fill-opacity="0.2"/>
<polyline clip-path="url(#clip503)" style="stroke:#000000; stroke-linecap:round; stroke-linejoin:round; stroke-width:4.2; stroke-opacity:0.2; fill:none" points="944.093,506.552 944.093,529.134 966.139,529.134 966.139,506.552 944.093,506.552 "/>
<path clip-path="url(#clip503)" d="M971.65 518.864 L971.65 529.134 L993.697 529.134 L993.697 518.864 L971.65 518.864 L971.65 518.864  Z" fill="#5fa3b4" fill-rule="evenodd" fill-opacity="0.2"/>
<polyline clip-path="url(#clip503)" style="stroke:#000000; stroke-linecap:round; stroke-linejoin:round; stroke-width:4.2; stroke-opacity:0.2; fill:none" points="971.65,518.864 971.65,529.134 993.697,529.134 993.697,518.864 971.65,518.864 "/>
<path clip-path="url(#clip503)" d="M999.208 524.072 L999.208 529.134 L1021.25 529.134 L1021.25 524.072 L999.208 524.072 L999.208 524.072  Z" fill="#5fa3b4" fill-rule="evenodd" fill-opacity="0.2"/>
<polyline clip-path="url(#clip503)" style="stroke:#000000; stroke-linecap:round; stroke-linejoin:round; stroke-width:4.2; stroke-opacity:0.2; fill:none" points="999.208,524.072 999.208,529.134 1021.25,529.134 1021.25,524.072 999.208,524.072 "/>
<path clip-path="url(#clip503)" d="M1026.77 526.504 L1026.77 529.134 L1048.81 529.134 L1048.81 526.504 L1026.77 526.504 L1026.77 526.504  Z" fill="#5fa3b4" fill-rule="evenodd" fill-opacity="0.2"/>
<polyline clip-path="url(#clip503)" style="stroke:#000000; stroke-linecap:round; stroke-linejoin:round; stroke-width:4.2; stroke-opacity:0.2; fill:none" points="1026.77,526.504 1026.77,529.134 1048.81,529.134 1048.81,526.504 1026.77,526.504 "/>
<path clip-path="url(#clip503)" d="M1054.32 527.714 L1054.32 529.134 L1076.37 529.134 L1076.37 527.714 L1054.32 527.714 L1054.32 527.714  Z" fill="#5fa3b4" fill-rule="evenodd" fill-opacity="0.2"/>
<polyline clip-path="url(#clip503)" style="stroke:#000000; stroke-linecap:round; stroke-linejoin:round; stroke-width:4.2; stroke-opacity:0.2; fill:none" points="1054.32,527.714 1054.32,529.134 1076.37,529.134 1076.37,527.714 1054.32,527.714 "/>
<path clip-path="url(#clip503)" d="M1081.88 528.345 L1081.88 529.134 L1103.93 529.134 L1103.93 528.345 L1081.88 528.345 L1081.88 528.345  Z" fill="#5fa3b4" fill-rule="evenodd" fill-opacity="0.2"/>
<polyline clip-path="url(#clip503)" style="stroke:#000000; stroke-linecap:round; stroke-linejoin:round; stroke-width:4.2; stroke-opacity:0.2; fill:none" points="1081.88,528.345 1081.88,529.134 1103.93,529.134 1103.93,528.345 1081.88,528.345 "/>
<circle clip-path="url(#clip503)" style="fill:#5fa3b4; stroke:none; fill-opacity:0" cx="707.095" cy="502.3" r="2"/>
<circle clip-path="url(#clip503)" style="fill:#5fa3b4; stroke:none; fill-opacity:0" cx="734.653" cy="494.055" r="2"/>
<circle clip-path="url(#clip503)" style="fill:#5fa3b4; stroke:none; fill-opacity:0" cx="762.211" cy="482.821" r="2"/>
<circle clip-path="url(#clip503)" style="fill:#5fa3b4; stroke:none; fill-opacity:0" cx="789.768" cy="467.237" r="2"/>
<circle clip-path="url(#clip503)" style="fill:#5fa3b4; stroke:none; fill-opacity:0" cx="817.326" cy="445.077" r="2"/>
<circle clip-path="url(#clip503)" style="fill:#5fa3b4; stroke:none; fill-opacity:0" cx="844.884" cy="412.373" r="2"/>
<circle clip-path="url(#clip503)" style="fill:#5fa3b4; stroke:none; fill-opacity:0" cx="872.442" cy="360.707" r="2"/>
<circle clip-path="url(#clip503)" style="fill:#5fa3b4; stroke:none; fill-opacity:0" cx="900" cy="252.4" r="2"/>
<circle clip-path="url(#clip503)" style="fill:#5fa3b4; stroke:none; fill-opacity:0" cx="927.558" cy="471.451" r="2"/>
<circle clip-path="url(#clip503)" style="fill:#5fa3b4; stroke:none; fill-opacity:0" cx="955.116" cy="506.552" r="2"/>
<circle clip-path="url(#clip503)" style="fill:#5fa3b4; stroke:none; fill-opacity:0" cx="982.674" cy="518.864" r="2"/>
<circle clip-path="url(#clip503)" style="fill:#5fa3b4; stroke:none; fill-opacity:0" cx="1010.23" cy="524.072" r="2"/>
<circle clip-path="url(#clip503)" style="fill:#5fa3b4; stroke:none; fill-opacity:0" cx="1037.79" cy="526.504" r="2"/>
<circle clip-path="url(#clip503)" style="fill:#5fa3b4; stroke:none; fill-opacity:0" cx="1065.35" cy="527.714" r="2"/>
<circle clip-path="url(#clip503)" style="fill:#5fa3b4; stroke:none; fill-opacity:0" cx="1092.91" cy="528.345" r="2"/>
<path clip-path="url(#clip503)" d="M696.072 528.795 L696.072 529.134 L718.118 529.134 L718.118 528.795 L696.072 528.795 L696.072 528.795  Z" fill="#4ab467" fill-rule="evenodd" fill-opacity="1"/>
<polyline clip-path="url(#clip503)" style="stroke:#000000; stroke-linecap:round; stroke-linejoin:round; stroke-width:4.2; stroke-opacity:1; fill:none" points="696.072,528.795 696.072,529.134 718.118,529.134 718.118,528.795 696.072,528.795 "/>
<path clip-path="url(#clip503)" d="M723.63 528.616 L723.63 529.134 L745.676 529.134 L745.676 528.616 L723.63 528.616 L723.63 528.616  Z" fill="#4ab467" fill-rule="evenodd" fill-opacity="1"/>
<polyline clip-path="url(#clip503)" style="stroke:#000000; stroke-linecap:round; stroke-linejoin:round; stroke-width:4.2; stroke-opacity:1; fill:none" points="723.63,528.616 723.63,529.134 745.676,529.134 745.676,528.616 723.63,528.616 "/>
<path clip-path="url(#clip503)" d="M751.187 528.33 L751.187 529.134 L773.234 529.134 L773.234 528.33 L751.187 528.33 L751.187 528.33  Z" fill="#4ab467" fill-rule="evenodd" fill-opacity="1"/>
<polyline clip-path="url(#clip503)" style="stroke:#000000; stroke-linecap:round; stroke-linejoin:round; stroke-width:4.2; stroke-opacity:1; fill:none" points="751.187,528.33 751.187,529.134 773.234,529.134 773.234,528.33 751.187,528.33 "/>
<path clip-path="url(#clip503)" d="M778.745 527.822 L778.745 529.134 L800.792 529.134 L800.792 527.822 L778.745 527.822 L778.745 527.822  Z" fill="#4ab467" fill-rule="evenodd" fill-opacity="1"/>
<polyline clip-path="url(#clip503)" style="stroke:#000000; stroke-linecap:round; stroke-linejoin:round; stroke-width:4.2; stroke-opacity:1; fill:none" points="778.745,527.822 778.745,529.134 800.792,529.134 800.792,527.822 778.745,527.822 "/>
<path clip-path="url(#clip503)" d="M806.303 526.951 L806.303 529.134 L828.35 529.134 L828.35 526.951 L806.303 526.951 L806.303 526.951  Z" fill="#4ab467" fill-rule="evenodd" fill-opacity="1"/>
<polyline clip-path="url(#clip503)" style="stroke:#000000; stroke-linecap:round; stroke-linejoin:round; stroke-width:4.2; stroke-opacity:1; fill:none" points="806.303,526.951 806.303,529.134 828.35,529.134 828.35,526.951 806.303,526.951 "/>
<path clip-path="url(#clip503)" d="M833.861 525.273 L833.861 529.134 L855.907 529.134 L855.907 525.273 L833.861 525.273 L833.861 525.273  Z" fill="#4ab467" fill-rule="evenodd" fill-opacity="1"/>
<polyline clip-path="url(#clip503)" style="stroke:#000000; stroke-linecap:round; stroke-linejoin:round; stroke-width:4.2; stroke-opacity:1; fill:none" points="833.861,525.273 833.861,529.134 855.907,529.134 855.907,525.273 833.861,525.273 "/>
<path clip-path="url(#clip503)" d="M861.419 521.345 L861.419 529.134 L883.465 529.134 L883.465 521.345 L861.419 521.345 L861.419 521.345  Z" fill="#4ab467" fill-rule="evenodd" fill-opacity="1"/>
<polyline clip-path="url(#clip503)" style="stroke:#000000; stroke-linecap:round; stroke-linejoin:round; stroke-width:4.2; stroke-opacity:1; fill:none" points="861.419,521.345 861.419,529.134 883.465,529.134 883.465,521.345 861.419,521.345 "/>
<path clip-path="url(#clip503)" d="M888.977 506.836 L888.977 529.134 L911.023 529.134 L911.023 506.836 L888.977 506.836 L888.977 506.836  Z" fill="#4ab467" fill-rule="evenodd" fill-opacity="1"/>
<polyline clip-path="url(#clip503)" style="stroke:#000000; stroke-linecap:round; stroke-linejoin:round; stroke-width:4.2; stroke-opacity:1; fill:none" points="888.977,506.836 888.977,529.134 911.023,529.134 911.023,506.836 888.977,506.836 "/>
<path clip-path="url(#clip503)" d="M916.535 514.452 L916.535 529.134 L938.581 529.134 L938.581 514.452 L916.535 514.452 L916.535 514.452  Z" fill="#4ab467" fill-rule="evenodd" fill-opacity="1"/>
<polyline clip-path="url(#clip503)" style="stroke:#000000; stroke-linecap:round; stroke-linejoin:round; stroke-width:4.2; stroke-opacity:1; fill:none" points="916.535,514.452 916.535,529.134 938.581,529.134 938.581,514.452 916.535,514.452 "/>
<path clip-path="url(#clip503)" d="M944.093 517.331 L944.093 529.134 L966.139 529.134 L966.139 517.331 L944.093 517.331 L944.093 517.331  Z" fill="#4ab467" fill-rule="evenodd" fill-opacity="1"/>
<polyline clip-path="url(#clip503)" style="stroke:#000000; stroke-linecap:round; stroke-linejoin:round; stroke-width:4.2; stroke-opacity:1; fill:none" points="944.093,517.331 944.093,529.134 966.139,529.134 966.139,517.331 944.093,517.331 "/>
<path clip-path="url(#clip503)" d="M971.65 518.938 L971.65 529.134 L993.697 529.134 L993.697 518.938 L971.65 518.938 L971.65 518.938  Z" fill="#4ab467" fill-rule="evenodd" fill-opacity="1"/>
<polyline clip-path="url(#clip503)" style="stroke:#000000; stroke-linecap:round; stroke-linejoin:round; stroke-width:4.2; stroke-opacity:1; fill:none" points="971.65,518.938 971.65,529.134 993.697,529.134 993.697,518.938 971.65,518.938 "/>
<path clip-path="url(#clip503)" d="M999.208 519.583 L999.208 529.134 L1021.25 529.134 L1021.25 519.583 L999.208 519.583 L999.208 519.583  Z" fill="#4ab467" fill-rule="evenodd" fill-opacity="1"/>
<polyline clip-path="url(#clip503)" style="stroke:#000000; stroke-linecap:round; stroke-linejoin:round; stroke-width:4.2; stroke-opacity:1; fill:none" points="999.208,519.583 999.208,529.134 1021.25,529.134 1021.25,519.583 999.208,519.583 "/>
<path clip-path="url(#clip503)" d="M1026.77 519.571 L1026.77 529.134 L1048.81 529.134 L1048.81 519.571 L1026.77 519.571 L1026.77 519.571  Z" fill="#4ab467" fill-rule="evenodd" fill-opacity="1"/>
<polyline clip-path="url(#clip503)" style="stroke:#000000; stroke-linecap:round; stroke-linejoin:round; stroke-width:4.2; stroke-opacity:1; fill:none" points="1026.77,519.571 1026.77,529.134 1048.81,529.134 1048.81,519.571 1026.77,519.571 "/>
<path clip-path="url(#clip503)" d="M1054.32 519.7 L1054.32 529.134 L1076.37 529.134 L1076.37 519.7 L1054.32 519.7 L1054.32 519.7  Z" fill="#4ab467" fill-rule="evenodd" fill-opacity="1"/>
<polyline clip-path="url(#clip503)" style="stroke:#000000; stroke-linecap:round; stroke-linejoin:round; stroke-width:4.2; stroke-opacity:1; fill:none" points="1054.32,519.7 1054.32,529.134 1076.37,529.134 1076.37,519.7 1054.32,519.7 "/>
<path clip-path="url(#clip503)" d="M1081.88 520.77 L1081.88 529.134 L1103.93 529.134 L1103.93 520.77 L1081.88 520.77 L1081.88 520.77  Z" fill="#4ab467" fill-rule="evenodd" fill-opacity="1"/>
<polyline clip-path="url(#clip503)" style="stroke:#000000; stroke-linecap:round; stroke-linejoin:round; stroke-width:4.2; stroke-opacity:1; fill:none" points="1081.88,520.77 1081.88,529.134 1103.93,529.134 1103.93,520.77 1081.88,520.77 "/>
<circle clip-path="url(#clip503)" style="fill:#4ab467; stroke:none; fill-opacity:0" cx="707.095" cy="528.795" r="2"/>
<circle clip-path="url(#clip503)" style="fill:#4ab467; stroke:none; fill-opacity:0" cx="734.653" cy="528.616" r="2"/>
<circle clip-path="url(#clip503)" style="fill:#4ab467; stroke:none; fill-opacity:0" cx="762.211" cy="528.33" r="2"/>
<circle clip-path="url(#clip503)" style="fill:#4ab467; stroke:none; fill-opacity:0" cx="789.768" cy="527.822" r="2"/>
<circle clip-path="url(#clip503)" style="fill:#4ab467; stroke:none; fill-opacity:0" cx="817.326" cy="526.951" r="2"/>
<circle clip-path="url(#clip503)" style="fill:#4ab467; stroke:none; fill-opacity:0" cx="844.884" cy="525.273" r="2"/>
<circle clip-path="url(#clip503)" style="fill:#4ab467; stroke:none; fill-opacity:0" cx="872.442" cy="521.345" r="2"/>
<circle clip-path="url(#clip503)" style="fill:#4ab467; stroke:none; fill-opacity:0" cx="900" cy="506.836" r="2"/>
<circle clip-path="url(#clip503)" style="fill:#4ab467; stroke:none; fill-opacity:0" cx="927.558" cy="514.452" r="2"/>
<circle clip-path="url(#clip503)" style="fill:#4ab467; stroke:none; fill-opacity:0" cx="955.116" cy="517.331" r="2"/>
<circle clip-path="url(#clip503)" style="fill:#4ab467; stroke:none; fill-opacity:0" cx="982.674" cy="518.938" r="2"/>
<circle clip-path="url(#clip503)" style="fill:#4ab467; stroke:none; fill-opacity:0" cx="1010.23" cy="519.583" r="2"/>
<circle clip-path="url(#clip503)" style="fill:#4ab467; stroke:none; fill-opacity:0" cx="1037.79" cy="519.571" r="2"/>
<circle clip-path="url(#clip503)" style="fill:#4ab467; stroke:none; fill-opacity:0" cx="1065.35" cy="519.7" r="2"/>
<circle clip-path="url(#clip503)" style="fill:#4ab467; stroke:none; fill-opacity:0" cx="1092.91" cy="520.77" r="2"/>
<path clip-path="url(#clip500)" d="M701.143 113.249 Q701.09 113.513 700.984 113.987 Q700.879 114.435 700.405 115.858 Q699.93 117.281 699.298 118.73 Q698.692 120.153 697.506 122.156 Q696.347 124.132 694.924 125.924 Q694.529 126.398 694.45 126.688 Q694.397 126.951 694.397 127.821 Q694.397 133.302 696.057 133.302 Q696.136 133.302 696.268 133.302 Q696.426 133.275 696.821 133.144 Q697.243 132.985 697.612 132.748 Q697.981 132.485 698.402 131.958 Q698.824 131.404 699.087 130.667 Q699.324 130.14 699.799 130.14 Q700.431 130.14 700.431 130.667 Q700.431 131.615 699.114 133.065 Q697.796 134.514 695.899 134.514 Q694.081 134.514 692.79 133.328 Q691.525 132.116 690.998 129.955 Q685.306 134.514 679.614 134.514 Q675.609 134.514 673.238 131.905 Q670.866 129.27 670.866 125.37 Q670.866 121.629 672.921 118.071 Q675.003 114.514 678.376 112.301 Q681.775 110.061 685.385 110.061 Q686.65 110.061 687.862 110.403 Q689.074 110.72 690.286 111.536 Q691.498 112.353 692.394 113.592 Q693.29 114.83 693.844 116.78 Q694.397 118.73 694.397 121.181 L694.397 124.527 Q697.875 120.127 699.693 113.829 Q699.957 112.88 700.115 112.775 Q700.22 112.696 700.484 112.696 Q700.747 112.696 700.905 112.854 Q701.09 112.986 701.116 113.117 L701.143 113.249 M690.787 128.559 Q690.682 127.636 690.682 122.524 Q690.682 121.549 690.682 121.022 Q690.682 120.469 690.629 119.415 Q690.576 118.361 690.471 117.702 Q690.392 117.044 690.207 116.095 Q690.023 115.146 689.759 114.54 Q689.496 113.934 689.074 113.249 Q688.679 112.564 688.152 112.169 Q687.651 111.774 686.913 111.51 Q686.202 111.247 685.332 111.247 Q684.252 111.247 683.119 111.642 Q682.012 112.011 680.589 113.196 Q679.166 114.356 677.981 116.2 Q676.742 118.15 675.794 121.734 Q674.871 125.291 674.871 127.426 Q674.871 130.113 676.11 131.721 Q677.348 133.302 679.72 133.302 Q685.385 133.302 690.787 128.559 Z" fill="#4ab467" fill-rule="nonzero" fill-opacity="1" /><path clip-path="url(#clip500)" d="M720.026 125.713 Q720.079 125.054 721.106 125.054 L754.176 125.054 Q755.731 125.054 755.757 125.66 Q755.757 126.319 754.281 126.293 L721.475 126.293 Q720.026 126.319 720.026 125.713 M720.026 115.173 Q720.026 114.514 721.159 114.54 L754.123 114.54 Q755.731 114.54 755.757 115.173 Q755.757 115.779 754.387 115.779 L721.106 115.779 Q720.026 115.779 720.026 115.173 Z" fill="#4ab467" fill-rule="nonzero" fill-opacity="1" /><path clip-path="url(#clip500)" d="M776.572 116.648 Q776.572 108.717 778.574 104.395 Q781.368 97.966 787.955 97.966 Q789.352 97.966 790.801 98.3613 Q792.277 98.7302 794.121 100.179 Q795.992 101.629 797.125 104 Q799.286 108.585 799.286 116.648 Q799.286 124.527 797.283 128.822 Q794.358 135.094 787.902 135.094 Q785.478 135.094 783.001 133.855 Q780.551 132.617 778.996 129.639 Q776.572 125.186 776.572 116.648 M781.051 115.99 Q781.051 124.132 781.631 127.373 Q782.29 130.877 784.082 132.406 Q785.9 133.908 787.902 133.908 Q790.063 133.908 791.855 132.3 Q793.673 130.667 794.226 127.162 Q794.832 123.71 794.806 115.99 Q794.806 108.48 794.279 105.476 Q793.568 101.971 791.67 100.575 Q789.8 99.1518 787.902 99.1518 Q787.191 99.1518 786.427 99.3626 Q785.689 99.5734 784.609 100.179 Q783.528 100.785 782.685 102.287 Q781.868 103.789 781.473 106.056 Q781.051 108.98 781.051 115.99 Z" fill="#4ab467" fill-rule="nonzero" fill-opacity="1" /><path clip-path="url(#clip500)" d="M804.113 133.038 Q803.296 132.169 803.296 131.036 Q803.296 129.903 804.113 129.086 Q804.93 128.242 806.169 128.242 Q807.354 128.242 808.145 129.033 Q808.962 129.797 808.962 131.062 Q808.962 132.3 808.092 133.117 Q807.249 133.908 806.169 133.908 Q804.93 133.908 804.113 133.038 Z" fill="#4ab467" fill-rule="nonzero" fill-opacity="1" /><path clip-path="url(#clip500)" d="M818.146 125.766 Q818.146 119.731 825.92 115.831 Q822.573 113.565 821.967 112.907 Q819.596 110.272 819.596 106.978 Q819.596 103.21 822.441 100.601 Q825.314 97.966 829.371 97.966 Q833.245 97.966 836.17 100.206 Q839.095 102.446 839.095 106.003 Q839.095 111.009 832.56 114.382 Q836.881 117.07 837.909 118.203 Q840.544 121.128 840.544 124.843 Q840.544 129.165 837.224 132.142 Q833.904 135.094 829.319 135.094 Q824.839 135.094 821.493 132.485 Q818.146 129.876 818.146 125.766 M820.834 125.766 Q820.834 129.112 823.337 131.352 Q825.867 133.592 829.371 133.592 Q832.771 133.592 835.3 131.642 Q837.856 129.692 837.856 126.793 Q837.856 125.66 837.461 124.685 Q837.092 123.71 836.328 122.946 Q835.59 122.156 835.116 121.813 Q834.668 121.444 833.798 120.838 L827.158 116.648 Q820.834 120.153 820.834 125.766 M821.967 104.87 Q821.967 107.452 824.681 109.244 L831.374 113.565 Q836.723 110.43 836.723 106.003 Q836.723 103.131 834.536 101.233 Q832.349 99.3099 829.319 99.3099 Q826.341 99.3099 824.154 100.891 Q821.967 102.446 821.967 104.87 Z" fill="#4ab467" fill-rule="nonzero" fill-opacity="1" /><path clip-path="url(#clip500)" d="M1270.87 529.134 L1729.13 529.134 L1729.13 70.8661 L1270.87 70.8661  Z" fill="#ffffff" fill-rule="evenodd" fill-opacity="1"/>
<defs>
  <clipPath id="clip504">
    <rect x="1270" y="70" width="459" height="459"/>
  </clipPath>
</defs>
<polyline clip-path="url(#clip500)" style="stroke:#000000; stroke-linecap:round; stroke-linejoin:round; stroke-width:6; stroke-opacity:1; fill:none" points="1270.87,521.748 1729.13,521.748 "/>
<polyline clip-path="url(#clip500)" style="stroke:#000000; stroke-linecap:round; stroke-linejoin:round; stroke-width:6; stroke-opacity:1; fill:none" points="1312.34,529.134 1312.34,70.8661 "/>
<path clip-path="url(#clip504)" d="M1599.43 69.5731 L1593.79 85.7971 L1576.61 86.1571 L1590.31 96.5491 L1585.32 112.989 L1599.43 103.173 L1613.54 112.989 L1608.55 96.5491 L1622.26 86.1571 L1605.07 85.7971 L1599.43 69.5731 Z" fill="#000000" fill-rule="evenodd" fill-opacity="1" stroke="none"/>
<polyline clip-path="url(#clip504)" style="stroke:#4ab467; stroke-linecap:round; stroke-linejoin:round; stroke-width:4.2; stroke-opacity:1; fill:none" points="1318.3,506.427 1320.91,499.867 1324.46,491.019 1328.99,479.764 1334.67,465.941 1341.41,449.812 1349.46,430.706 1358.49,409.849 1368.45,387.26 1379.07,363.896 1390.31,339.845 1401.95,315.572 1413.63,292.437 1424.91,270.786 1436.21,249.812 1446.78,231.761 1457.27,214.212 1466.79,199.001 1475.73,185.949 1484.27,174.203 1492.32,162.99 1499.75,154.776 1506.67,146.598 1513.15,139.92 1519.14,133.571 1524.85,128.543 1530.13,124.359 1535.12,120.47 1539.79,117.095 1543.96,114.158 1548.22,111.669 1552.38,108.973 1556.17,107.234 1559.61,105.699 1562.83,104.84 1566.37,102.682 1569.64,102.132 1572.33,100.634 1575.32,99.6955 1578.07,98.7493 1580.76,99.0465 1583.1,97.6677 1585.7,97.4326 1588.13,97.4408 1590.15,97.0148 1592.67,96.0976 1594.49,96.0278 1596.72,96.6297 1598.77,96.0093 1600.58,96.3089 1602.61,95.7503 1604.28,95.5187 1605.98,95.2614 1607.75,95.61 1609.33,95.9581 1611,96.324 1612.32,96.3909 1613.7,96.3941 1615.25,96.4071 1616.81,96.2314 1617.55,96.1003 1619.09,96.4251 1620.37,96.8554 1621.71,97.4946 1622.51,97.12 1623.8,96.8096 1624.68,97.6339 1625.83,97.4089 1626.66,97.9735 1627.44,98.2384 1628.29,98.1316 1629.44,97.9015 1630.3,98.2367 1630.94,98.6677 1631.96,98.8328 1632.61,99.1673 "/>
<circle clip-path="url(#clip504)" cx="1358.49" cy="409.849" r="16.2" fill="#4ab467" fill-rule="evenodd" fill-opacity="1" stroke="none"/>
</svg>
