<?xml version="1.0" encoding="utf-8"?>
<svg xmlns="http://www.w3.org/2000/svg" xmlns:xlink="http://www.w3.org/1999/xlink" width="450" height="150" viewBox="0 0 1800 600">
<defs>
  <clipPath id="clip990">
    <rect x="0" y="0" width="1800" height="600"/>
  </clipPath>
</defs>
<path clip-path="url(#clip990)" d="M0 600 L1800 600 L1800 3.33067e-14 L0 3.33067e-14  Z" fill="#ffffff" fill-rule="evenodd" fill-opacity="1"/>
<defs>
  <clipPath id="clip991">
    <rect x="360" y="0" width="1261" height="600"/>
  </clipPath>
</defs>
<path clip-path="url(#clip990)" d="M70.8661 529.134 L529.134 529.134 L529.134 70.8661 L70.8661 70.8661  Z" fill="#ffffff" fill-rule="evenodd" fill-opacity="1"/>
<defs>
  <clipPath id="clip992">
    <rect x="70" y="70" width="459" height="459"/>
  </clipPath>
</defs>
<polyline clip-path="url(#clip990)" style="stroke:#000000; stroke-linecap:round; stroke-linejoin:round; stroke-width:6; stroke-opacity:1; fill:none" points="70.8661,529.134 529.134,529.134 "/>
<polyline clip-path="url(#clip990)" style="stroke:#000000; stroke-linecap:round; stroke-linejoin:round; stroke-width:6; stroke-opacity:1; fill:none" points="300,529.134 300,70.8661 "/>
<path clip-path="url(#clip992)" d="M96.0717 529.134 L96.0717 529.134 L118.118 529.134 L118.118 529.134 L96.0717 529.134 L96.0717 529.134  Z" fill="#83d89e" fill-rule="evenodd" fill-opacity="1"/>
<polyline clip-path="url(#clip992)" style="stroke:#000000; stroke-linecap:round; stroke-linejoin:round; stroke-width:4.2; stroke-opacity:1; fill:none" points="96.0717,529.134 96.0717,529.134 118.118,529.134 118.118,529.134 96.0717,529.134 "/>
<path clip-path="url(#clip992)" d="M123.63 529.133 L123.63 529.134 L145.676 529.134 L145.676 529.133 L123.63 529.133 L123.63 529.133  Z" fill="#83d89e" fill-rule="evenodd" fill-opacity="1"/>
<polyline clip-path="url(#clip992)" style="stroke:#000000; stroke-linecap:round; stroke-linejoin:round; stroke-width:4.2; stroke-opacity:1; fill:none" points="123.63,529.133 123.63,529.134 145.676,529.134 145.676,529.133 123.63,529.133 "/>
<path clip-path="url(#clip992)" d="M151.187 529.131 L151.187 529.134 L173.234 529.134 L173.234 529.131 L151.187 529.131 L151.187 529.131  Z" fill="#83d89e" fill-rule="evenodd" fill-opacity="1"/>
<polyline clip-path="url(#clip992)" style="stroke:#000000; stroke-linecap:round; stroke-linejoin:round; stroke-width:4.2; stroke-opacity:1; fill:none" points="151.187,529.131 151.187,529.134 173.234,529.134 173.234,529.131 151.187,529.131 "/>
<path clip-path="url(#clip992)" d="M178.745 529.122 L178.745 529.134 L200.792 529.134 L200.792 529.122 L178.745 529.122 L178.745 529.122  Z" fill="#83d89e" fill-rule="evenodd" fill-opacity="1"/>
<polyline clip-path="url(#clip992)" style="stroke:#000000; stroke-linecap:round; stroke-linejoin:round; stroke-width:4.2; stroke-opacity:1; fill:none" points="178.745,529.122 178.745,529.134 200.792,529.134 200.792,529.122 178.745,529.122 "/>
<path clip-path="url(#clip992)" d="M206.303 529.088 L206.303 529.134 L228.35 529.134 L228.35 529.088 L206.303 529.088 L206.303 529.088  Z" fill="#83d89e" fill-rule="evenodd" fill-opacity="1"/>
<polyline clip-path="url(#clip992)" style="stroke:#000000; stroke-linecap:round; stroke-linejoin:round; stroke-width:4.2; stroke-opacity:1; fill:none" points="206.303,529.088 206.303,529.134 228.35,529.134 228.35,529.088 206.303,529.088 "/>
<path clip-path="url(#clip992)" d="M233.861 528.976 L233.861 529.134 L255.907 529.134 L255.907 528.976 L233.861 528.976 L233.861 528.976  Z" fill="#83d89e" fill-rule="evenodd" fill-opacity="1"/>
<polyline clip-path="url(#clip992)" style="stroke:#000000; stroke-linecap:round; stroke-linejoin:round; stroke-width:4.2; stroke-opacity:1; fill:none" points="233.861,528.976 233.861,529.134 255.907,529.134 255.907,528.976 233.861,528.976 "/>
<path clip-path="url(#clip992)" d="M261.419 528.707 L261.419 529.134 L283.465 529.134 L283.465 528.707 L261.419 528.707 L261.419 528.707  Z" fill="#83d89e" fill-rule="evenodd" fill-opacity="1"/>
<polyline clip-path="url(#clip992)" style="stroke:#000000; stroke-linecap:round; stroke-linejoin:round; stroke-width:4.2; stroke-opacity:1; fill:none" points="261.419,528.707 261.419,529.134 283.465,529.134 283.465,528.707 261.419,528.707 "/>
<path clip-path="url(#clip992)" d="M288.977 528.477 L288.977 529.134 L311.023 529.134 L311.023 528.477 L288.977 528.477 L288.977 528.477  Z" fill="#83d89e" fill-rule="evenodd" fill-opacity="1"/>
<polyline clip-path="url(#clip992)" style="stroke:#000000; stroke-linecap:round; stroke-linejoin:round; stroke-width:4.2; stroke-opacity:1; fill:none" points="288.977,528.477 288.977,529.134 311.023,529.134 311.023,528.477 288.977,528.477 "/>
<path clip-path="url(#clip992)" d="M316.535 527.085 L316.535 529.134 L338.581 529.134 L338.581 527.085 L316.535 527.085 L316.535 527.085  Z" fill="#83d89e" fill-rule="evenodd" fill-opacity="1"/>
<polyline clip-path="url(#clip992)" style="stroke:#000000; stroke-linecap:round; stroke-linejoin:round; stroke-width:4.2; stroke-opacity:1; fill:none" points="316.535,527.085 316.535,529.134 338.581,529.134 338.581,527.085 316.535,527.085 "/>
<path clip-path="url(#clip992)" d="M344.093 523.129 L344.093 529.134 L366.139 529.134 L366.139 523.129 L344.093 523.129 L344.093 523.129  Z" fill="#83d89e" fill-rule="evenodd" fill-opacity="1"/>
<polyline clip-path="url(#clip992)" style="stroke:#000000; stroke-linecap:round; stroke-linejoin:round; stroke-width:4.2; stroke-opacity:1; fill:none" points="344.093,523.129 344.093,529.134 366.139,529.134 366.139,523.129 344.093,523.129 "/>
<path clip-path="url(#clip992)" d="M371.65 513.8 L371.65 529.134 L393.697 529.134 L393.697 513.8 L371.65 513.8 L371.65 513.8  Z" fill="#83d89e" fill-rule="evenodd" fill-opacity="1"/>
<polyline clip-path="url(#clip992)" style="stroke:#000000; stroke-linecap:round; stroke-linejoin:round; stroke-width:4.2; stroke-opacity:1; fill:none" points="371.65,513.8 371.65,529.134 393.697,529.134 393.697,513.8 371.65,513.8 "/>
<path clip-path="url(#clip992)" d="M399.208 491.409 L399.208 529.134 L421.255 529.134 L421.255 491.409 L399.208 491.409 L399.208 491.409  Z" fill="#83d89e" fill-rule="evenodd" fill-opacity="1"/>
<polyline clip-path="url(#clip992)" style="stroke:#000000; stroke-linecap:round; stroke-linejoin:round; stroke-width:4.2; stroke-opacity:1; fill:none" points="399.208,491.409 399.208,529.134 421.255,529.134 421.255,491.409 399.208,491.409 "/>
<path clip-path="url(#clip992)" d="M426.766 437.41 L426.766 529.134 L448.813 529.134 L448.813 437.41 L426.766 437.41 L426.766 437.41  Z" fill="#83d89e" fill-rule="evenodd" fill-opacity="1"/>
<polyline clip-path="url(#clip992)" style="stroke:#000000; stroke-linecap:round; stroke-linejoin:round; stroke-width:4.2; stroke-opacity:1; fill:none" points="426.766,437.41 426.766,529.134 448.813,529.134 448.813,437.41 426.766,437.41 "/>
<path clip-path="url(#clip992)" d="M454.324 306.714 L454.324 529.134 L476.37 529.134 L476.37 306.714 L454.324 306.714 L454.324 306.714  Z" fill="#83d89e" fill-rule="evenodd" fill-opacity="1"/>
<polyline clip-path="url(#clip992)" style="stroke:#000000; stroke-linecap:round; stroke-linejoin:round; stroke-width:4.2; stroke-opacity:1; fill:none" points="454.324,306.714 454.324,529.134 476.37,529.134 476.37,306.714 454.324,306.714 "/>
<path clip-path="url(#clip992)" d="M481.882 -10.8421 L481.882 529.134 L503.928 529.134 L503.928 -10.8421 L481.882 -10.8421 L481.882 -10.8421  Z" fill="#83d89e" fill-rule="evenodd" fill-opacity="1"/>
<polyline clip-path="url(#clip992)" style="stroke:#000000; stroke-linecap:round; stroke-linejoin:round; stroke-width:4.2; stroke-opacity:1; fill:none" points="481.882,-10.8421 481.882,529.134 503.928,529.134 503.928,-10.8421 481.882,-10.8421 "/>
<circle clip-path="url(#clip992)" style="fill:#83d89e; stroke:none; fill-opacity:0" cx="107.095" cy="529.134" r="2"/>
<circle clip-path="url(#clip992)" style="fill:#83d89e; stroke:none; fill-opacity:0" cx="134.653" cy="529.133" r="2"/>
<circle clip-path="url(#clip992)" style="fill:#83d89e; stroke:none; fill-opacity:0" cx="162.211" cy="529.131" r="2"/>
<circle clip-path="url(#clip992)" style="fill:#83d89e; stroke:none; fill-opacity:0" cx="189.768" cy="529.122" r="2"/>
<circle clip-path="url(#clip992)" style="fill:#83d89e; stroke:none; fill-opacity:0" cx="217.326" cy="529.088" r="2"/>
<circle clip-path="url(#clip992)" style="fill:#83d89e; stroke:none; fill-opacity:0" cx="244.884" cy="528.976" r="2"/>
<circle clip-path="url(#clip992)" style="fill:#83d89e; stroke:none; fill-opacity:0" cx="272.442" cy="528.707" r="2"/>
<circle clip-path="url(#clip992)" style="fill:#83d89e; stroke:none; fill-opacity:0" cx="300" cy="528.477" r="2"/>
<circle clip-path="url(#clip992)" style="fill:#83d89e; stroke:none; fill-opacity:0" cx="327.558" cy="527.085" r="2"/>
<circle clip-path="url(#clip992)" style="fill:#83d89e; stroke:none; fill-opacity:0" cx="355.116" cy="523.129" r="2"/>
<circle clip-path="url(#clip992)" style="fill:#83d89e; stroke:none; fill-opacity:0" cx="382.674" cy="513.8" r="2"/>
<circle clip-path="url(#clip992)" style="fill:#83d89e; stroke:none; fill-opacity:0" cx="410.232" cy="491.409" r="2"/>
<circle clip-path="url(#clip992)" style="fill:#83d89e; stroke:none; fill-opacity:0" cx="437.789" cy="437.41" r="2"/>
<circle clip-path="url(#clip992)" style="fill:#83d89e; stroke:none; fill-opacity:0" cx="465.347" cy="306.714" r="2"/>
<path clip-path="url(#clip990)" d="M100.247 99.3925 Q100.247 100.078 99.9568 101.395 Q99.0346 105.111 95.5827 107.666 Q95.003 108.141 93.9753 108.747 Q95.2138 109.564 96.2941 111.066 Q97.9015 113.543 97.9015 116.889 Q97.9015 118.444 97.4799 120.341 Q96.2941 124.741 92.1308 127.903 Q87.9411 130.986 82.9609 130.986 Q80.2732 130.986 78.4287 129.564 Q76.6105 128.114 75.899 125.69 L72.2364 140.473 Q72.1573 140.841 71.683 140.841 L71.4195 140.841 Q70.8661 140.841 70.8661 140.209 L79.1928 107.008 Q79.7462 104.768 80.6421 102.66 Q81.538 100.552 82.7765 98.6547 Q84.0413 96.7575 85.4905 95.3609 Q86.9398 93.938 88.7316 93.1212 Q90.5234 92.278 92.4206 92.278 Q96.3995 92.278 98.6657 94.992 Q100.247 96.9156 100.247 99.3925 M97.2164 98.4439 Q97.2164 96.8102 96.5576 95.6771 Q95.2138 93.5164 92.3679 93.5164 Q90.6552 93.5164 89.0215 94.3069 Q87.4141 95.0711 86.1229 96.3886 Q84.8318 97.7061 83.7251 99.4979 Q82.6184 101.29 81.8015 103.24 Q81.011 105.163 80.484 107.271 L77.2429 120.341 Q76.9267 121.738 76.9267 122.976 Q76.9267 125.927 78.5604 127.851 Q80.1941 129.774 83.0136 129.774 Q86.7553 129.774 89.9701 126.981 Q92.7632 124.478 93.9226 120.077 Q94.5814 117.311 94.5814 115.387 Q94.5814 113.279 93.8172 111.645 Q93.2639 110.328 92.1835 109.537 Q90.1809 110.249 88.1519 110.249 Q87.1769 110.249 86.6499 110.222 Q86.1493 110.196 85.4115 110.091 Q84.7 109.985 84.3575 109.695 Q84.0413 109.406 84.0413 108.958 Q84.0413 108.694 84.094 108.589 Q84.1994 108.167 84.5419 107.877 Q84.8845 107.587 85.2797 107.456 Q85.675 107.298 86.3337 107.219 Q87.0188 107.139 87.4668 107.139 Q87.9148 107.113 88.6789 107.113 Q90.4707 107.113 92.2889 107.825 Q92.974 107.456 93.7118 106.797 Q96.057 104.61 96.8475 101.132 Q97.2164 99.8405 97.2164 98.4439 M90.5761 108.641 Q89.4694 108.352 88.6262 108.352 Q85.5432 108.352 85.3851 108.852 Q85.3851 108.905 85.4905 108.958 Q85.5959 108.984 85.8331 109.01 Q86.0966 109.01 86.3074 109.037 Q86.5445 109.063 86.9398 109.063 Q87.335 109.063 87.5459 109.063 Q87.783 109.063 88.2046 109.063 Q89.2586 109.063 90.5761 108.641 Z" fill="#83d89e" fill-rule="nonzero" fill-opacity="1" /><path clip-path="url(#clip990)" d="M116.085 122.185 Q116.138 121.527 117.166 121.527 L150.235 121.527 Q151.79 121.527 151.816 122.133 Q151.816 122.792 150.341 122.765 L117.534 122.765 Q116.085 122.792 116.085 122.185 M116.085 111.645 Q116.085 110.987 117.218 111.013 L150.182 111.013 Q151.79 111.013 151.816 111.645 Q151.816 112.251 150.446 112.251 L117.166 112.251 Q116.085 112.251 116.085 111.645 Z" fill="#83d89e" fill-rule="nonzero" fill-opacity="1" /><path clip-path="url(#clip990)" d="M172.631 99.577 L172.631 97.8906 Q179.113 97.8906 182.46 94.4387 Q183.382 94.4387 183.54 94.6495 Q183.698 94.8603 183.698 95.8352 L183.698 126.112 Q183.698 127.719 184.489 128.22 Q185.279 128.72 188.731 128.72 L190.444 128.72 L190.444 130.38 Q188.546 130.222 181.695 130.222 Q174.844 130.222 172.973 130.38 L172.973 128.72 L174.686 128.72 Q178.085 128.72 178.902 128.246 Q179.719 127.745 179.719 126.112 L179.719 98.1541 Q176.9 99.577 172.631 99.577 Z" fill="#83d89e" fill-rule="nonzero" fill-opacity="1" /><path clip-path="url(#clip990)" d="M194.735 129.511 Q193.918 128.641 193.918 127.508 Q193.918 126.375 194.735 125.558 Q195.552 124.715 196.79 124.715 Q197.976 124.715 198.766 125.506 Q199.583 126.27 199.583 127.535 Q199.583 128.773 198.714 129.59 Q197.871 130.38 196.79 130.38 Q195.552 130.38 194.735 129.511 Z" fill="#83d89e" fill-rule="nonzero" fill-opacity="1" /><path clip-path="url(#clip990)" d="M208.768 123.108 Q208.768 121.5 209.69 120.736 Q210.612 119.972 211.798 119.972 Q213.037 119.972 213.906 120.789 Q214.802 121.579 214.802 122.976 Q214.802 124.478 213.748 125.321 Q212.72 126.164 211.245 125.954 Q212.536 128.114 214.908 129.089 Q217.305 130.064 219.519 130.064 Q221.838 130.064 223.709 128.062 Q225.606 126.059 225.606 121.158 Q225.606 116.994 223.972 114.597 Q222.365 112.199 219.176 112.199 L216.805 112.199 Q215.988 112.199 215.751 112.12 Q215.514 112.041 215.514 111.593 Q215.514 111.066 216.33 110.96 Q217.147 110.96 218.438 110.802 Q221.574 110.697 223.234 107.983 Q224.736 105.453 224.736 101.843 Q224.736 98.5493 223.155 97.1791 Q221.6 95.7825 219.572 95.7825 Q217.674 95.7825 215.593 96.573 Q213.511 97.3635 212.378 99.129 Q215.724 99.129 215.724 101.843 Q215.724 103.029 214.96 103.819 Q214.222 104.584 212.984 104.584 Q211.798 104.584 211.008 103.846 Q210.217 103.082 210.217 101.79 Q210.217 98.7074 212.958 96.573 Q215.724 94.4387 219.782 94.4387 Q223.788 94.4387 226.739 96.5467 Q229.716 98.6547 229.716 101.896 Q229.716 105.084 227.608 107.693 Q225.5 110.302 222.154 111.382 Q226.264 112.199 228.715 114.992 Q231.166 117.759 231.166 121.158 Q231.166 125.374 227.846 128.483 Q224.525 131.566 219.677 131.566 Q215.197 131.566 211.983 129.142 Q208.768 126.718 208.768 123.108 Z" fill="#83d89e" fill-rule="nonzero" fill-opacity="1" /><path clip-path="url(#clip990)" d="M670.866 529.134 L1129.13 529.134 L1129.13 70.8661 L670.866 70.8661  Z" fill="#ffffff" fill-rule="evenodd" fill-opacity="1"/>
<defs>
  <clipPath id="clip993">
    <rect x="670" y="70" width="459" height="459"/>
  </clipPath>
</defs>
<polyline clip-path="url(#clip990)" style="stroke:#000000; stroke-linecap:round; stroke-linejoin:round; stroke-width:6; stroke-opacity:1; fill:none" points="670.866,529.134 1129.13,529.134 "/>
<polyline clip-path="url(#clip990)" style="stroke:#000000; stroke-linecap:round; stroke-linejoin:round; stroke-width:6; stroke-opacity:1; fill:none" points="900,529.134 900,70.8661 "/>
<path clip-path="url(#clip993)" d="M696.072 502.3 L696.072 529.134 L718.118 529.134 L718.118 502.3 L696.072 502.3 L696.072 502.3  Z" fill="#5fa3b4" fill-rule="evenodd" fill-opacity="0.2"/>
<polyline clip-path="url(#clip993)" style="stroke:#000000; stroke-linecap:round; stroke-linejoin:round; stroke-width:4.2; stroke-opacity:0.2; fill:none" points="696.072,502.3 696.072,529.134 718.118,529.134 718.118,502.3 696.072,502.3 "/>
<path clip-path="url(#clip993)" d="M723.63 494.055 L723.63 529.134 L745.676 529.134 L745.676 494.055 L723.63 494.055 L723.63 494.055  Z" fill="#5fa3b4" fill-rule="evenodd" fill-opacity="0.2"/>
<polyline clip-path="url(#clip993)" style="stroke:#000000; stroke-linecap:round; stroke-linejoin:round; stroke-width:4.2; stroke-opacity:0.2; fill:none" points="723.63,494.055 723.63,529.134 745.676,529.134 745.676,494.055 723.63,494.055 "/>
<path clip-path="url(#clip993)" d="M751.187 482.821 L751.187 529.134 L773.234 529.134 L773.234 482.821 L751.187 482.821 L751.187 482.821  Z" fill="#5fa3b4" fill-rule="evenodd" fill-opacity="0.2"/>
<polyline clip-path="url(#clip993)" style="stroke:#000000; stroke-linecap:round; stroke-linejoin:round; stroke-width:4.2; stroke-opacity:0.2; fill:none" points="751.187,482.821 751.187,529.134 773.234,529.134 773.234,482.821 751.187,482.821 "/>
<path clip-path="url(#clip993)" d="M778.745 467.237 L778.745 529.134 L800.792 529.134 L800.792 467.237 L778.745 467.237 L778.745 467.237  Z" fill="#5fa3b4" fill-rule="evenodd" fill-opacity="0.2"/>
<polyline clip-path="url(#clip993)" style="stroke:#000000; stroke-linecap:round; stroke-linejoin:round; stroke-width:4.2; stroke-opacity:0.2; fill:none" points="778.745,467.237 778.745,529.134 800.792,529.134 800.792,467.237 778.745,467.237 "/>
<path clip-path="url(#clip993)" d="M806.303 445.077 L806.303 529.134 L828.35 529.134 L828.35 445.077 L806.303 445.077 L806.303 445.077  Z" fill="#5fa3b4" fill-rule="evenodd" fill-opacity="0.2"/>
<polyline clip-path="url(#clip993)" style="stroke:#000000; stroke-linecap:round; stroke-linejoin:round; stroke-width:4.2; stroke-opacity:0.2; fill:none" points="806.303,445.077 806.303,529.134 828.35,529.134 828.35,445.077 806.303,445.077 "/>
<path clip-path="url(#clip993)" d="M833.861 412.373 L833.861 529.134 L855.907 529.134 L855.907 412.373 L833.861 412.373 L833.861 412.373  Z" fill="#5fa3b4" fill-rule="evenodd" fill-opacity="0.2"/>
<polyline clip-path="url(#clip993)" style="stroke:#000000; stroke-linecap:round; stroke-linejoin:round; stroke-width:4.2; stroke-opacity:0.2; fill:none" points="833.861,412.373 833.861,529.134 855.907,529.134 855.907,412.373 833.861,412.373 "/>
<path clip-path="url(#clip993)" d="M861.419 360.707 L861.419 529.134 L883.465 529.134 L883.465 360.707 L861.419 360.707 L861.419 360.707  Z" fill="#5fa3b4" fill-rule="evenodd" fill-opacity="0.2"/>
<polyline clip-path="url(#clip993)" style="stroke:#000000; stroke-linecap:round; stroke-linejoin:round; stroke-width:4.2; stroke-opacity:0.2; fill:none" points="861.419,360.707 861.419,529.134 883.465,529.134 883.465,360.707 861.419,360.707 "/>
<path clip-path="url(#clip993)" d="M888.977 252.4 L888.977 529.134 L911.023 529.134 L911.023 252.4 L888.977 252.4 L888.977 252.4  Z" fill="#5fa3b4" fill-rule="evenodd" fill-opacity="0.2"/>
<polyline clip-path="url(#clip993)" style="stroke:#000000; stroke-linecap:round; stroke-linejoin:round; stroke-width:4.2; stroke-opacity:0.2; fill:none" points="888.977,252.4 888.977,529.134 911.023,529.134 911.023,252.4 888.977,252.4 "/>
<path clip-path="url(#clip993)" d="M916.535 471.451 L916.535 529.134 L938.581 529.134 L938.581 471.451 L916.535 471.451 L916.535 471.451  Z" fill="#5fa3b4" fill-rule="evenodd" fill-opacity="0.2"/>
<polyline clip-path="url(#clip993)" style="stroke:#000000; stroke-linecap:round; stroke-linejoin:round; stroke-width:4.2; stroke-opacity:0.2; fill:none" points="916.535,471.451 916.535,529.134 938.581,529.134 938.581,471.451 916.535,471.451 "/>
<path clip-path="url(#clip993)" d="M944.093 506.552 L944.093 529.134 L966.139 529.134 L966.139 506.552 L944.093 506.552 L944.093 506.552  Z" fill="#5fa3b4" fill-rule="evenodd" fill-opacity="0.2"/>
<polyline clip-path="url(#clip993)" style="stroke:#000000; stroke-linecap:round; stroke-linejoin:round; stroke-width:4.2; stroke-opacity:0.2; fill:none" points="944.093,506.552 944.093,529.134 966.139,529.134 966.139,506.552 944.093,506.552 "/>
<path clip-path="url(#clip993)" d="M971.65 518.864 L971.65 529.134 L993.697 529.134 L993.697 518.864 L971.65 518.864 L971.65 518.864  Z" fill="#5fa3b4" fill-rule="evenodd" fill-opacity="0.2"/>
<polyline clip-path="url(#clip993)" style="stroke:#000000; stroke-linecap:round; stroke-linejoin:round; stroke-width:4.2; stroke-opacity:0.2; fill:none" points="971.65,518.864 971.65,529.134 993.697,529.134 993.697,518.864 971.65,518.864 "/>
<path clip-path="url(#clip993)" d="M999.208 524.072 L999.208 529.134 L1021.25 529.134 L1021.25 524.072 L999.208 524.072 L999.208 524.072  Z" fill="#5fa3b4" fill-rule="evenodd" fill-opacity="0.2"/>
<polyline clip-path="url(#clip993)" style="stroke:#000000; stroke-linecap:round; stroke-linejoin:round; stroke-width:4.2; stroke-opacity:0.2; fill:none" points="999.208,524.072 999.208,529.134 1021.25,529.134 1021.25,524.072 999.208,524.072 "/>
<path clip-path="url(#clip993)" d="M1026.77 526.504 L1026.77 529.134 L1048.81 529.134 L1048.81 526.504 L1026.77 526.504 L1026.77 526.504  Z" fill="#5fa3b4" fill-rule="evenodd" fill-opacity="0.2"/>
<polyline clip-path="url(#clip993)" style="stroke:#000000; stroke-linecap:round; stroke-linejoin:round; stroke-width:4.2; stroke-opacity:0.2; fill:none" points="1026.77,526.504 1026.77,529.134 1048.81,529.134 1048.81,526.504 1026.77,526.504 "/>
<path clip-path="url(#clip993)" d="M1054.32 527.714 L1054.32 529.134 L1076.37 529.134 L1076.37 527.714 L1054.32 527.714 L1054.32 527.714  Z" fill="#5fa3b4" fill-rule="evenodd" fill-opacity="0.2"/>
<polyline clip-path="url(#clip993)" style="stroke:#000000; stroke-linecap:round; stroke-linejoin:round; stroke-width:4.2; stroke-opacity:0.2; fill:none" points="1054.32,527.714 1054.32,529.134 1076.37,529.134 1076.37,527.714 1054.32,527.714 "/>
<path clip-path="url(#clip993)" d="M1081.88 528.345 L1081.88 529.134 L1103.93 529.134 L1103.93 528.345 L1081.88 528.345 L1081.88 528.345  Z" fill="#5fa3b4" fill-rule="evenodd" fill-opacity="0.2"/>
<polyline clip-path="url(#clip993)" style="stroke:#000000; stroke-linecap:round; stroke-linejoin:round; stroke-width:4.2; stroke-opacity:0.2; fill:none" points="1081.88,528.345 1081.88,529.134 1103.93,529.134 1103.93,528.345 1081.88,528.345 "/>
<circle clip-path="url(#clip993)" style="fill:#5fa3b4; stroke:none; fill-opacity:0" cx="707.095" cy="502.3" r="2"/>
<circle clip-path="url(#clip993)" style="fill:#5fa3b4; stroke:none; fill-opacity:0" cx="734.653" cy="494.055" r="2"/>
<circle clip-path="url(#clip993)" style="fill:#5fa3b4; stroke:none; fill-opacity:0" cx="762.211" cy="482.821" r="2"/>
<circle clip-path="url(#clip993)" style="fill:#5fa3b4; stroke:none; fill-opacity:0" cx="789.768" cy="467.237" r="2"/>
<circle clip-path="url(#clip993)" style="fill:#5fa3b4; stroke:none; fill-opacity:0" cx="817.326" cy="445.077" r="2"/>
<circle clip-path="url(#clip993)" style="fill:#5fa3b4; stroke:none; fill-opacity:0" cx="844.884" cy="412.373" r="2"/>
<circle clip-path="url(#clip993)" style="fill:#5fa3b4; stroke:none; fill-opacity:0" cx="872.442" cy="360.707" r="2"/>
<circle clip-path="url(#clip993)" style="fill:#5fa3b4; stroke:none; fill-opacity:0" cx="900" cy="252.4" r="2"/>
<circle clip-path="url(#clip993)" style="fill:#5fa3b4; stroke:none; fill-opacity:0" cx="927.558" cy="471.451" r="2"/>
<circle clip-path="url(#clip993)" style="fill:#5fa3b4; stroke:none; fill-opacity:0" cx="955.116" cy="506.552" r="2"/>
<circle clip-path="url(#clip993)" style="fill:#5fa3b4; stroke:none; fill-opacity:0" cx="982.674" cy="518.864" r="2"/>
<circle clip-path="url(#clip993)" style="fill:#5fa3b4; stroke:none; fill-opacity:0" cx="1010.23" cy="524.072" r="2"/>
<circle clip-path="url(#clip993)" style="fill:#5fa3b4; stroke:none; fill-opacity:0" cx="1037.79" cy="526.504" r="2"/>
<circle clip-path="url(#clip993)" style="fill:#5fa3b4; stroke:none; fill-opacity:0" cx="1065.35" cy="527.714" r="2"/>
<circle clip-path="url(#clip993)" style="fill:#5fa3b4; stroke:none; fill-opacity:0" cx="1092.91" cy="528.345" r="2"/>
<path clip-path="url(#clip993)" d="M696.072 524.196 L696.072 529.134 L718.118 529.134 L718.118 524.196 L696.072 524.196 L696.072 524.196  Z" fill="#4ab467" fill-rule="evenodd" fill-opacity="1"/>
<polyline clip-path="url(#clip993)" style="stroke:#000000; stroke-linecap:round; stroke-linejoin:round; stroke-width:4.2; stroke-opacity:1; fill:none" points="696.072,524.196 696.072,529.134 718.118,529.134 718.118,524.196 696.072,524.196 "/>
<path clip-path="url(#clip993)" d="M723.63 521.826 L723.63 529.134 L745.676 529.134 L745.676 521.826 L723.63 521.826 L723.63 521.826  Z" fill="#4ab467" fill-rule="evenodd" fill-opacity="1"/>
<polyline clip-path="url(#clip993)" style="stroke:#000000; stroke-linecap:round; stroke-linejoin:round; stroke-width:4.2; stroke-opacity:1; fill:none" points="723.63,521.826 723.63,529.134 745.676,529.134 745.676,521.826 723.63,521.826 "/>
<path clip-path="url(#clip993)" d="M751.187 517.952 L751.187 529.134 L773.234 529.134 L773.234 517.952 L751.187 517.952 L751.187 517.952  Z" fill="#4ab467" fill-rule="evenodd" fill-opacity="1"/>
<polyline clip-path="url(#clip993)" style="stroke:#000000; stroke-linecap:round; stroke-linejoin:round; stroke-width:4.2; stroke-opacity:1; fill:none" points="751.187,517.952 751.187,529.134 773.234,529.134 773.234,517.952 751.187,517.952 "/>
<path clip-path="url(#clip993)" d="M778.745 511.541 L778.745 529.134 L800.792 529.134 L800.792 511.541 L778.745 511.541 L778.745 511.541  Z" fill="#4ab467" fill-rule="evenodd" fill-opacity="1"/>
<polyline clip-path="url(#clip993)" style="stroke:#000000; stroke-linecap:round; stroke-linejoin:round; stroke-width:4.2; stroke-opacity:1; fill:none" points="778.745,511.541 778.745,529.134 800.792,529.134 800.792,511.541 778.745,511.541 "/>
<path clip-path="url(#clip993)" d="M806.303 500.085 L806.303 529.134 L828.35 529.134 L828.35 500.085 L806.303 500.085 L806.303 500.085  Z" fill="#4ab467" fill-rule="evenodd" fill-opacity="1"/>
<polyline clip-path="url(#clip993)" style="stroke:#000000; stroke-linecap:round; stroke-linejoin:round; stroke-width:4.2; stroke-opacity:1; fill:none" points="806.303,500.085 806.303,529.134 828.35,529.134 828.35,500.085 806.303,500.085 "/>
<path clip-path="url(#clip993)" d="M833.861 478.034 L833.861 529.134 L855.907 529.134 L855.907 478.034 L833.861 478.034 L833.861 478.034  Z" fill="#4ab467" fill-rule="evenodd" fill-opacity="1"/>
<polyline clip-path="url(#clip993)" style="stroke:#000000; stroke-linecap:round; stroke-linejoin:round; stroke-width:4.2; stroke-opacity:1; fill:none" points="833.861,478.034 833.861,529.134 855.907,529.134 855.907,478.034 833.861,478.034 "/>
<path clip-path="url(#clip993)" d="M861.419 428.296 L861.419 529.134 L883.465 529.134 L883.465 428.296 L861.419 428.296 L861.419 428.296  Z" fill="#4ab467" fill-rule="evenodd" fill-opacity="1"/>
<polyline clip-path="url(#clip993)" style="stroke:#000000; stroke-linecap:round; stroke-linejoin:round; stroke-width:4.2; stroke-opacity:1; fill:none" points="861.419,428.296 861.419,529.134 883.465,529.134 883.465,428.296 861.419,428.296 "/>
<path clip-path="url(#clip993)" d="M888.977 252.54 L888.977 529.134 L911.023 529.134 L911.023 252.54 L888.977 252.54 L888.977 252.54  Z" fill="#4ab467" fill-rule="evenodd" fill-opacity="1"/>
<polyline clip-path="url(#clip993)" style="stroke:#000000; stroke-linecap:round; stroke-linejoin:round; stroke-width:4.2; stroke-opacity:1; fill:none" points="888.977,252.54 888.977,529.134 911.023,529.134 911.023,252.54 888.977,252.54 "/>
<path clip-path="url(#clip993)" d="M916.535 421.889 L916.535 529.134 L938.581 529.134 L938.581 421.889 L916.535 421.889 L916.535 421.889  Z" fill="#4ab467" fill-rule="evenodd" fill-opacity="1"/>
<polyline clip-path="url(#clip993)" style="stroke:#000000; stroke-linecap:round; stroke-linejoin:round; stroke-width:4.2; stroke-opacity:1; fill:none" points="916.535,421.889 916.535,529.134 938.581,529.134 938.581,421.889 916.535,421.889 "/>
<path clip-path="url(#clip993)" d="M944.093 468.309 L944.093 529.134 L966.139 529.134 L966.139 468.309 L944.093 468.309 L944.093 468.309  Z" fill="#4ab467" fill-rule="evenodd" fill-opacity="1"/>
<polyline clip-path="url(#clip993)" style="stroke:#000000; stroke-linecap:round; stroke-linejoin:round; stroke-width:4.2; stroke-opacity:1; fill:none" points="944.093,468.309 944.093,529.134 966.139,529.134 966.139,468.309 944.093,468.309 "/>
<path clip-path="url(#clip993)" d="M971.65 491.548 L971.65 529.134 L993.697 529.134 L993.697 491.548 L971.65 491.548 L971.65 491.548  Z" fill="#4ab467" fill-rule="evenodd" fill-opacity="1"/>
<polyline clip-path="url(#clip993)" style="stroke:#000000; stroke-linecap:round; stroke-linejoin:round; stroke-width:4.2; stroke-opacity:1; fill:none" points="971.65,491.548 971.65,529.134 993.697,529.134 993.697,491.548 971.65,491.548 "/>
<path clip-path="url(#clip993)" d="M999.208 504.572 L999.208 529.134 L1021.25 529.134 L1021.25 504.572 L999.208 504.572 L999.208 504.572  Z" fill="#4ab467" fill-rule="evenodd" fill-opacity="1"/>
<polyline clip-path="url(#clip993)" style="stroke:#000000; stroke-linecap:round; stroke-linejoin:round; stroke-width:4.2; stroke-opacity:1; fill:none" points="999.208,504.572 999.208,529.134 1021.25,529.134 1021.25,504.572 999.208,504.572 "/>
<path clip-path="url(#clip993)" d="M1026.77 512.815 L1026.77 529.134 L1048.81 529.134 L1048.81 512.815 L1026.77 512.815 L1026.77 512.815  Z" fill="#4ab467" fill-rule="evenodd" fill-opacity="1"/>
<polyline clip-path="url(#clip993)" style="stroke:#000000; stroke-linecap:round; stroke-linejoin:round; stroke-width:4.2; stroke-opacity:1; fill:none" points="1026.77,512.815 1026.77,529.134 1048.81,529.134 1048.81,512.815 1026.77,512.815 "/>
<path clip-path="url(#clip993)" d="M1054.32 518.226 L1054.32 529.134 L1076.37 529.134 L1076.37 518.226 L1054.32 518.226 L1054.32 518.226  Z" fill="#4ab467" fill-rule="evenodd" fill-opacity="1"/>
<polyline clip-path="url(#clip993)" style="stroke:#000000; stroke-linecap:round; stroke-linejoin:round; stroke-width:4.2; stroke-opacity:1; fill:none" points="1054.32,518.226 1054.32,529.134 1076.37,529.134 1076.37,518.226 1054.32,518.226 "/>
<path clip-path="url(#clip993)" d="M1081.88 521.891 L1081.88 529.134 L1103.93 529.134 L1103.93 521.891 L1081.88 521.891 L1081.88 521.891  Z" fill="#4ab467" fill-rule="evenodd" fill-opacity="1"/>
<polyline clip-path="url(#clip993)" style="stroke:#000000; stroke-linecap:round; stroke-linejoin:round; stroke-width:4.2; stroke-opacity:1; fill:none" points="1081.88,521.891 1081.88,529.134 1103.93,529.134 1103.93,521.891 1081.88,521.891 "/>
<circle clip-path="url(#clip993)" style="fill:#4ab467; stroke:none; fill-opacity:0" cx="707.095" cy="524.196" r="2"/>
<circle clip-path="url(#clip993)" style="fill:#4ab467; stroke:none; fill-opacity:0" cx="734.653" cy="521.826" r="2"/>
<circle clip-path="url(#clip993)" style="fill:#4ab467; stroke:none; fill-opacity:0" cx="762.211" cy="517.952" r="2"/>
<circle clip-path="url(#clip993)" style="fill:#4ab467; stroke:none; fill-opacity:0" cx="789.768" cy="511.541" r="2"/>
<circle clip-path="url(#clip993)" style="fill:#4ab467; stroke:none; fill-opacity:0" cx="817.326" cy="500.085" r="2"/>
<circle clip-path="url(#clip993)" style="fill:#4ab467; stroke:none; fill-opacity:0" cx="844.884" cy="478.034" r="2"/>
<circle clip-path="url(#clip993)" style="fill:#4ab467; stroke:none; fill-opacity:0" cx="872.442" cy="428.296" r="2"/>
<circle clip-path="url(#clip993)" style="fill:#4ab467; stroke:none; fill-opacity:0" cx="900" cy="252.54" r="2"/>
<circle clip-path="url(#clip993)" style="fill:#4ab467; stroke:none; fill-opacity:0" cx="927.558" cy="421.889" r="2"/>
<circle clip-path="url(#clip993)" style="fill:#4ab467; stroke:none; fill-opacity:0" cx="955.116" cy="468.309" r="2"/>
<circle clip-path="url(#clip993)" style="fill:#4ab467; stroke:none; fill-opacity:0" cx="982.674" cy="491.548" r="2"/>
<circle clip-path="url(#clip993)" style="fill:#4ab467; stroke:none; fill-opacity:0" cx="1010.23" cy="504.572" r="2"/>
<circle clip-path="url(#clip993)" style="fill:#4ab467; stroke:none; fill-opacity:0" cx="1037.79" cy="512.815" r="2"/>
<circle clip-path="url(#clip993)" style="fill:#4ab467; stroke:none; fill-opacity:0" cx="1065.35" cy="518.226" r="2"/>
<circle clip-path="url(#clip993)" style="fill:#4ab467; stroke:none; fill-opacity:0" cx="1092.91" cy="521.891" r="2"/>
<path clip-path="url(#clip990)" d="M701.143 113.507 Q701.09 113.77 700.984 114.245 Q700.879 114.693 700.405 116.116 Q699.93 117.539 699.298 118.988 Q698.692 120.411 697.506 122.413 Q696.347 124.39 694.924 126.181 Q694.529 126.656 694.45 126.946 Q694.397 127.209 694.397 128.079 Q694.397 133.56 696.057 133.56 Q696.136 133.56 696.268 133.56 Q696.426 133.533 696.821 133.401 Q697.243 133.243 697.612 133.006 Q697.981 132.743 698.402 132.216 Q698.824 131.662 699.087 130.924 Q699.324 130.397 699.799 130.397 Q700.431 130.397 700.431 130.924 Q700.431 131.873 699.114 133.322 Q697.796 134.772 695.899 134.772 Q694.081 134.772 692.79 133.586 Q691.525 132.374 690.998 130.213 Q685.306 134.772 679.614 134.772 Q675.609 134.772 673.238 132.163 Q670.866 129.528 670.866 125.628 Q670.866 121.886 672.921 118.329 Q675.003 114.772 678.376 112.558 Q681.775 110.319 685.385 110.319 Q686.65 110.319 687.862 110.661 Q689.074 110.977 690.286 111.794 Q691.498 112.611 692.394 113.85 Q693.29 115.088 693.844 117.038 Q694.397 118.988 694.397 121.438 L694.397 124.785 Q697.875 120.384 699.693 114.087 Q699.957 113.138 700.115 113.033 Q700.22 112.954 700.484 112.954 Q700.747 112.954 700.905 113.112 Q701.09 113.243 701.116 113.375 L701.143 113.507 M690.787 128.816 Q690.682 127.894 690.682 122.782 Q690.682 121.807 690.682 121.28 Q690.682 120.727 690.629 119.673 Q690.576 118.619 690.471 117.96 Q690.392 117.301 690.207 116.353 Q690.023 115.404 689.759 114.798 Q689.496 114.192 689.074 113.507 Q688.679 112.822 688.152 112.427 Q687.651 112.031 686.913 111.768 Q686.202 111.504 685.332 111.504 Q684.252 111.504 683.119 111.9 Q682.012 112.269 680.589 113.454 Q679.166 114.614 677.981 116.458 Q676.742 118.408 675.794 121.992 Q674.871 125.549 674.871 127.683 Q674.871 130.371 676.11 131.978 Q677.348 133.56 679.72 133.56 Q685.385 133.56 690.787 128.816 Z" fill="#4ab467" fill-rule="nonzero" fill-opacity="1" /><path clip-path="url(#clip990)" d="M720.026 125.971 Q720.079 125.312 721.106 125.312 L754.176 125.312 Q755.731 125.312 755.757 125.918 Q755.757 126.577 754.281 126.55 L721.475 126.55 Q720.026 126.577 720.026 125.971 M720.026 115.431 Q720.026 114.772 721.159 114.798 L754.123 114.798 Q755.731 114.798 755.757 115.431 Q755.757 116.037 754.387 116.037 L721.106 116.037 Q720.026 116.037 720.026 115.431 Z" fill="#4ab467" fill-rule="nonzero" fill-opacity="1" /><path clip-path="url(#clip990)" d="M776.572 116.906 Q776.572 108.975 778.574 104.653 Q781.368 98.2238 787.955 98.2238 Q789.352 98.2238 790.801 98.6191 Q792.277 98.988 794.121 100.437 Q795.992 101.887 797.125 104.258 Q799.286 108.843 799.286 116.906 Q799.286 124.785 797.283 129.08 Q794.358 135.351 787.902 135.351 Q785.478 135.351 783.001 134.113 Q780.551 132.874 778.996 129.897 Q776.572 125.444 776.572 116.906 M781.051 116.247 Q781.051 124.39 781.631 127.631 Q782.29 131.135 784.082 132.664 Q785.9 134.166 787.902 134.166 Q790.063 134.166 791.855 132.558 Q793.673 130.924 794.226 127.42 Q794.832 123.968 794.806 116.247 Q794.806 108.738 794.279 105.734 Q793.568 102.229 791.67 100.833 Q789.8 99.4096 787.902 99.4096 Q787.191 99.4096 786.427 99.6204 Q785.689 99.8312 784.609 100.437 Q783.528 101.043 782.685 102.545 Q781.868 104.047 781.473 106.313 Q781.051 109.238 781.051 116.247 Z" fill="#4ab467" fill-rule="nonzero" fill-opacity="1" /><path clip-path="url(#clip990)" d="M804.113 133.296 Q803.296 132.426 803.296 131.293 Q803.296 130.16 804.113 129.343 Q804.93 128.5 806.169 128.5 Q807.354 128.5 808.145 129.291 Q808.962 130.055 808.962 131.32 Q808.962 132.558 808.092 133.375 Q807.249 134.166 806.169 134.166 Q804.93 134.166 804.113 133.296 Z" fill="#4ab467" fill-rule="nonzero" fill-opacity="1" /><path clip-path="url(#clip990)" d="M818.146 108.79 L819.912 97.6968 L821.256 97.6968 Q821.414 98.3556 821.677 98.6454 Q821.967 98.9353 823.495 99.1724 Q825.05 99.4096 828.186 99.4096 L841.282 99.4096 Q841.282 100.648 840.807 101.307 L833.508 111.557 Q831.19 114.798 830.162 120.78 Q829.556 124.785 829.582 129.633 L829.582 132.374 Q829.582 135.351 827.079 135.351 Q824.602 135.351 824.602 132.374 Q824.602 122.071 831.242 112.084 Q831.954 111.056 834.562 107.394 Q837.197 103.731 837.303 103.573 L826.13 103.573 Q821.229 103.573 820.834 103.889 Q820.307 104.363 819.49 108.79 L818.146 108.79 Z" fill="#4ab467" fill-rule="nonzero" fill-opacity="1" /><path clip-path="url(#clip990)" d="M1270.87 529.134 L1729.13 529.134 L1729.13 70.8661 L1270.87 70.8661  Z" fill="#ffffff" fill-rule="evenodd" fill-opacity="1"/>
<defs>
  <clipPath id="clip994">
    <rect x="1270" y="70" width="459" height="459"/>
  </clipPath>
</defs>
<polyline clip-path="url(#clip990)" style="stroke:#000000; stroke-linecap:round; stroke-linejoin:round; stroke-width:6; stroke-opacity:1; fill:none" points="1270.87,529.42 1729.13,529.42 "/>
<polyline clip-path="url(#clip990)" style="stroke:#000000; stroke-linecap:round; stroke-linejoin:round; stroke-width:6; stroke-opacity:1; fill:none" points="1312.34,529.134 1312.34,70.8661 "/>
<path clip-path="url(#clip994)" d="M1493.79 69.5731 L1488.15 85.7971 L1470.96 86.1571 L1484.67 96.5491 L1479.68 112.989 L1493.79 103.173 L1507.9 112.989 L1502.91 96.5491 L1516.61 86.1571 L1499.43 85.7971 L1493.79 69.5731 Z" fill="#000000" fill-rule="evenodd" fill-opacity="1" stroke="none"/>
<polyline clip-path="url(#clip994)" style="stroke:#4ab467; stroke-linecap:round; stroke-linejoin:round; stroke-width:4.2; stroke-opacity:1; fill:none" points="1318.28,506.427 1320.92,496.582 1324.41,483.857 1328.96,467.622 1334.7,447.432 1341.4,425.091 1349.3,399.682 1358.6,370.141 1368.22,342.103 1379.23,310.712 1390.29,281.782 1401.89,253.539 1413.6,226.29 1424.92,204.18 1436.16,182.774 1446.94,166.944 1457.14,151.953 1466.71,140.808 1475.74,132.555 1484.42,127.776 1492.23,124.341 1499.52,121.481 1506.71,120.447 1513.27,121.396 1519.41,123.387 1525.03,125.198 1530.26,127.402 1535.24,132.419 1539.68,135.261 1544.07,139.508 1548.25,144.117 1552.64,150.506 1556.39,154.869 1559.68,160.505 1563.24,165.079 1566.34,169.196 1569.53,174.415 1572.66,179.825 1575.28,183.71 1578.07,190.223 1580.67,195.952 1583.42,200.021 1585.7,204.978 1588.07,210.203 1590.13,213.852 1592.37,219.329 1594.65,223.791 1596.79,228.23 1598.65,232.951 1600.66,236.288 1602.39,242.213 1604.23,245.389 1606,248.978 1607.74,252.368 1609.3,258.992 1610.93,261.738 1612.49,266.356 1613.64,268.394 1615.27,273.23 1616.54,276.067 1618.04,280.435 1619.02,282.167 1620.26,285.062 1621.58,289.567 1622.46,292.085 1623.59,295.27 1624.91,297.325 1625.54,299.812 1626.55,303.479 1627.7,305.57 1628.69,307.452 1629.39,310.197 1630.19,313.562 1630.88,314.183 1632.01,318.606 1632.82,320.261 "/>
<circle clip-path="url(#clip994)" cx="1624.91" cy="297.325" r="16.2" fill="#4ab467" fill-rule="evenodd" fill-opacity="1" stroke="none"/>
</svg>
