<?xml version="1.0" encoding="UTF-8" standalone="no"?>
<!DOCTYPE svg PUBLIC "-//W3C//DTD SVG 1.1//EN" "http://www.w3.org/Graphics/SVG/1.1/DTD/svg11.dtd">
<svg width="100%" height="100%" viewBox="0 0 326 278" version="1.1" xmlns="http://www.w3.org/2000/svg" xmlns:xlink="http://www.w3.org/1999/xlink" xml:space="preserve" xmlns:serif="http://www.serif.com/" style="fill-rule:evenodd;clip-rule:evenodd;stroke-linejoin:round;stroke-miterlimit:2;">
    <g transform="matrix(1,0,0,1,-2886,-2405)">
        <g>
            <g transform="matrix(6.30497,0,0,6.30497,1974.95,2079.7)">
                <path d="M182.001,79.464C181.999,79.459 181.999,79.454 181.998,79.449C181.984,79.399 181.972,79.35 181.958,79.302C181.915,79.138 181.873,78.972 181.832,78.808C181.813,78.731 181.796,78.656 181.779,78.579C181.746,78.441 181.714,78.302 181.685,78.162C181.666,78.079 181.649,77.995 181.632,77.911C181.606,77.778 181.579,77.645 181.555,77.513C181.538,77.426 181.523,77.339 181.507,77.252C181.485,77.12 181.463,76.989 181.442,76.857C181.429,76.77 181.415,76.683 181.403,76.597C181.383,76.461 181.365,76.326 181.348,76.191C181.338,76.107 181.326,76.025 181.316,75.943C181.299,75.795 181.285,75.648 181.27,75.499C181.263,75.429 181.254,75.359 181.249,75.289C181.229,75.072 181.213,74.853 181.2,74.635C181.13,73.497 181.082,72.236 181.203,70.746C181.23,70.403 181.507,70.135 181.849,70.118L185.319,69.947L182.25,67.056C182.057,66.875 181.987,66.6 182.069,66.349C182.488,65.054 183.057,63.814 183.755,62.663C183.892,62.439 184.034,62.218 184.181,62C184.227,61.931 184.275,61.865 184.323,61.798C184.425,61.649 184.528,61.503 184.633,61.359C184.693,61.277 184.758,61.197 184.82,61.116C184.917,60.988 185.014,60.862 185.115,60.737C185.185,60.652 185.257,60.568 185.327,60.483C185.426,60.366 185.525,60.249 185.628,60.134C185.703,60.049 185.78,59.965 185.858,59.881C185.959,59.77 186.063,59.661 186.168,59.552C186.248,59.468 186.332,59.386 186.414,59.304C186.519,59.198 186.627,59.094 186.738,58.99C186.822,58.909 186.907,58.829 186.994,58.75C187.107,58.648 187.222,58.547 187.338,58.448C187.425,58.371 187.512,58.296 187.603,58.221C187.644,58.187 187.683,58.151 187.726,58.117C187.608,57.862 187.497,57.637 187.394,57.426C187.201,57.033 187.049,56.723 186.943,56.422C186.207,54.288 184.148,52.911 181.933,53.075C179.862,53.229 178.108,54.7 177.556,56.738C176.855,61.181 176.62,65.71 176.855,70.198C177.053,74.004 177.593,77.812 178.461,81.535C179.507,80.638 180.706,79.934 182.001,79.464ZM176.681,86.183C176.568,86.439 176.317,86.593 176.054,86.593C175.964,86.593 175.87,86.574 175.781,86.537C175.436,86.385 175.277,85.983 175.429,85.636C175.904,84.546 176.541,83.547 177.325,82.657C176.326,78.598 175.707,74.433 175.49,70.27C175.249,65.676 175.492,61.04 176.211,56.489C176.215,56.466 176.22,56.444 176.225,56.422C176.915,53.803 179.169,51.91 181.832,51.712C184.664,51.505 187.297,53.256 188.235,55.974C188.312,56.195 188.448,56.473 188.621,56.825C188.781,57.153 188.983,57.561 189.193,58.048C190.333,60.681 190.99,63.981 191.207,68.136C191.407,72.007 191.263,75.955 190.789,79.879C193.069,80.959 194.938,82.768 196.085,85.023C196.255,85.358 196.12,85.77 195.785,85.94C195.685,85.992 195.581,86.016 195.475,86.016C195.227,86.016 194.986,85.879 194.867,85.641C193.789,83.521 191.983,81.847 189.786,80.928L189.784,80.928L189.784,80.926C188.45,80.364 187.039,80.103 185.595,80.147C184.722,80.173 183.861,80.313 183.036,80.561L183.034,80.561C181.335,81.067 179.792,82.018 178.574,83.315L178.572,83.315C177.78,84.157 177.144,85.122 176.681,86.183" style="fill:rgb(39,39,36);fill-rule:nonzero;"/>
            </g>
            <g transform="matrix(6.30497,0,0,6.30497,1974.95,2079.7)">
                <path d="M151.242,79.464C151.24,79.459 151.239,79.454 151.238,79.449C151.224,79.397 151.211,79.348 151.198,79.297C151.155,79.134 151.113,78.972 151.073,78.81C151.054,78.73 151.036,78.651 151.017,78.571C150.986,78.436 150.955,78.301 150.926,78.166C150.907,78.079 150.89,77.992 150.872,77.904C150.845,77.775 150.82,77.645 150.796,77.517C150.779,77.426 150.763,77.337 150.748,77.248C150.725,77.119 150.704,76.989 150.684,76.861C150.67,76.772 150.656,76.683 150.643,76.594C150.624,76.461 150.606,76.328 150.589,76.193C150.578,76.109 150.567,76.025 150.557,75.941C150.54,75.795 150.525,75.648 150.511,75.501C150.504,75.429 150.496,75.359 150.49,75.289C150.47,75.07 150.454,74.853 150.44,74.635C150.37,73.497 150.322,72.238 150.443,70.746C150.471,70.403 150.748,70.135 151.09,70.118L154.559,69.947L151.491,67.056C151.299,66.875 151.228,66.6 151.309,66.349C151.414,66.025 151.528,65.705 151.651,65.389C152.021,64.439 152.471,63.527 152.997,62.663C153.133,62.439 153.275,62.218 153.421,62C153.467,61.931 153.516,61.865 153.563,61.798C153.665,61.649 153.767,61.503 153.874,61.359C153.934,61.277 153.998,61.197 154.06,61.116C154.158,60.988 154.255,60.862 154.356,60.737C154.425,60.652 154.497,60.568 154.568,60.483C154.667,60.366 154.766,60.249 154.868,60.134C154.944,60.049 155.021,59.965 155.099,59.881C155.2,59.77 155.303,59.661 155.408,59.552C155.489,59.468 155.572,59.386 155.654,59.304C155.761,59.198 155.868,59.094 155.977,58.991C156.063,58.909 156.149,58.829 156.237,58.75C156.348,58.648 156.462,58.549 156.576,58.45C156.665,58.373 156.754,58.296 156.844,58.221C156.885,58.187 156.925,58.149 156.966,58.117C156.849,57.862 156.737,57.637 156.635,57.426C156.442,57.033 156.289,56.723 156.184,56.422C155.447,54.288 153.389,52.911 151.173,53.075C149.102,53.229 147.348,54.7 146.797,56.738C146.097,61.183 145.861,65.712 146.095,70.198C146.295,74.004 146.834,77.812 147.701,81.535C148.747,80.638 149.947,79.934 151.242,79.464ZM144.669,85.636C145.144,84.546 145.783,83.547 146.566,82.657C145.567,78.598 144.949,74.433 144.731,70.27C144.491,65.676 144.733,61.04 145.452,56.489C145.456,56.466 145.46,56.444 145.466,56.422C146.156,53.803 148.409,51.91 151.072,51.712C153.906,51.505 156.537,53.256 157.475,55.974C157.552,56.195 157.689,56.473 157.861,56.825C158.023,57.153 158.223,57.561 158.434,58.048L158.434,58.048C159.573,60.681 160.231,63.981 160.447,68.136C160.648,72.005 160.504,75.953 160.029,79.879C162.31,80.959 164.179,82.768 165.325,85.023C165.496,85.358 165.362,85.77 165.026,85.94C164.926,85.992 164.821,86.016 164.716,86.016C164.467,86.016 164.227,85.879 164.107,85.641C163.029,83.521 161.224,81.847 159.026,80.928L159.026,80.928C159.025,80.928 159.025,80.928 159.025,80.926C157.691,80.366 156.28,80.105 154.835,80.147C153.963,80.173 153.103,80.313 152.277,80.561L152.275,80.561C150.576,81.067 149.033,82.018 147.814,83.315L147.813,83.315C147.021,84.157 146.385,85.12 145.922,86.183C145.809,86.439 145.558,86.593 145.295,86.593C145.204,86.593 145.111,86.574 145.022,86.535C144.676,86.385 144.518,85.981 144.669,85.636" style="fill:rgb(39,39,36);fill-rule:nonzero;"/>
            </g>
            <g transform="matrix(6.30497,0,0,6.30497,1974.95,2221.99)">
                <path d="M169.656,60.534C167.675,60.534 166.069,59.294 166.069,57.765C166.069,56.234 167.675,54.995 169.656,54.995C171.636,54.995 173.242,56.234 173.242,57.765C173.242,59.294 171.636,60.534 169.656,60.534" style="fill:rgb(39,39,36);fill-rule:nonzero;"/>
            </g>
            <g transform="matrix(6.30497,0,0,6.30497,1974.95,2336.78)">
                <path d="M162.395,49.202C162.818,49.076 163.435,48.801 163.971,48.218C164.113,48.063 164.232,47.904 164.334,47.745C164.335,47.744 164.335,47.742 164.336,47.742C164.685,47.193 164.812,46.657 164.858,46.346C164.912,45.972 165.26,45.712 165.632,45.767C166.005,45.822 166.264,46.168 166.21,46.543C166.159,46.891 166.036,47.443 165.735,48.042C166.355,48.762 168.049,50.388 170.582,50.234C172.689,50.108 174.071,48.821 174.655,48.147C174.317,47.508 174.18,46.91 174.125,46.543C174.073,46.168 174.33,45.822 174.704,45.767C175.079,45.712 175.424,45.972 175.478,46.346C175.537,46.748 175.729,47.527 176.365,48.218C176.902,48.801 177.518,49.076 177.942,49.202C178.302,49.31 178.507,49.693 178.4,50.053C178.311,50.349 178.039,50.54 177.745,50.54C177.681,50.54 177.614,50.532 177.549,50.511C176.992,50.345 176.196,49.993 175.48,49.269C174.66,50.133 173.037,51.456 170.664,51.599C170.526,51.606 170.388,51.611 170.253,51.611C167.642,51.611 165.81,50.104 164.935,49.187C164.199,49.968 163.363,50.338 162.788,50.511C162.722,50.532 162.656,50.54 162.591,50.54C162.297,50.54 162.025,50.349 161.937,50.053C161.828,49.691 162.033,49.31 162.395,49.202" style="fill:rgb(39,39,36);fill-rule:nonzero;"/>
            </g>
            <g transform="matrix(6.30497,0,0,6.30497,1974.95,2397.78)">
                <path d="M168.206,42.743C168.481,42.999 169.494,43.838 170.96,43.796C172.25,43.763 173.14,43.085 173.463,42.793C173.743,42.542 174.175,42.564 174.428,42.844C174.681,43.126 174.657,43.558 174.377,43.809C173.941,44.202 172.738,45.118 170.994,45.162C170.95,45.162 170.905,45.164 170.863,45.164C169.004,45.164 167.739,44.175 167.274,43.743C166.998,43.486 166.983,43.052 167.24,42.777C167.498,42.501 167.93,42.485 168.206,42.743" style="fill:rgb(39,39,36);fill-rule:nonzero;"/>
            </g>
        </g>
    </g>
</svg>
