<?xml version="1.0" encoding="UTF-8" standalone="no"?>
<!DOCTYPE svg PUBLIC "-//W3C//DTD SVG 1.1//EN" "http://www.w3.org/Graphics/SVG/1.1/DTD/svg11.dtd">
<svg width="100%" height="100%" viewBox="0 0 342 291" version="1.1" xmlns="http://www.w3.org/2000/svg" xmlns:xlink="http://www.w3.org/1999/xlink" xml:space="preserve" xmlns:serif="http://www.serif.com/" style="fill-rule:evenodd;clip-rule:evenodd;stroke-linejoin:round;stroke-miterlimit:2;">
    <g transform="matrix(1,0,0,1,-4644,-1894)">
        <g>
            <g transform="matrix(6.30497,0,0,6.30497,1974.95,1098.55)">
                <path d="M459.431,131.324C460.198,133.101 460.957,134.946 461.702,136.856C464.509,138.404 467.317,139.952 470.126,141.501C470.361,141.631 470.549,141.839 470.635,142.096C470.674,142.212 470.703,142.347 470.708,142.497L470.708,142.509C470.708,142.916 470.488,143.29 470.131,143.483C469.627,143.754 468.981,144.036 468.202,144.224C467.093,144.492 466.097,144.482 465.33,144.39C464.89,144.337 464.548,144.766 464.685,145.188C465.581,147.923 466.434,150.769 467.225,153.723C467.886,156.193 469.082,159.729 469.683,164.33C469.736,166.197 471.215,167.719 473.037,167.828C474.789,167.934 476.395,166.704 476.754,164.945C477.468,161.123 478.251,154.158 476.139,145.885C473.831,136.837 469.213,130.733 466.61,127.745C464.908,126.04 462.406,125.779 460.779,126.927C459.918,127.535 459.493,128.403 459.283,129.134C459.074,129.859 459.132,130.632 459.431,131.324" style="fill:rgb(39,39,36);fill-rule:nonzero;"/>
            </g>
            <g transform="matrix(6.30497,0,0,6.30497,1974.95,1154.15)">
                <path d="M423.72,126.915C424.487,128.692 425.246,130.537 425.99,132.447C428.797,133.995 431.606,135.542 434.414,137.092C434.65,137.222 434.838,137.43 434.923,137.686C434.963,137.802 434.992,137.937 434.997,138.088L434.997,138.1C434.997,138.506 434.776,138.88 434.419,139.073C433.914,139.345 433.27,139.627 432.491,139.815C431.38,140.083 430.386,140.073 429.617,139.981C429.178,139.928 428.835,140.356 428.973,140.778C429.87,143.513 430.723,146.36 431.513,149.313C432.175,151.784 433.371,155.32 433.972,159.92C434.025,161.788 435.504,163.31 437.325,163.419C439.078,163.525 440.684,162.295 441.043,160.535C441.757,156.714 442.539,149.749 440.428,141.475C438.12,132.428 433.502,126.324 430.898,123.336C429.197,121.631 426.694,121.37 425.068,122.518C424.207,123.126 423.782,123.994 423.571,124.725C423.363,125.449 423.421,126.223 423.72,126.915" style="fill:rgb(39,39,36);fill-rule:nonzero;"/>
            </g>
            <g transform="matrix(6.30497,0,0,6.30497,1974.95,1224.97)">
                <path d="M442.613,126.72C442.379,126.423 442.43,125.994 442.725,125.76C443.023,125.526 443.451,125.578 443.686,125.873C444.354,126.719 445.495,128.511 445.618,131C445.619,131.041 445.619,131.08 445.621,131.119C447.025,131.786 449.472,132.568 452.373,131.888C455.355,131.188 457.132,129.338 457.983,128.193C457.86,128.022 457.742,127.846 457.629,127.657C456.597,125.933 456.414,124.225 456.445,123.095C456.454,122.718 456.761,122.422 457.146,122.429C457.523,122.439 457.82,122.754 457.81,123.131C457.786,124.079 457.938,125.513 458.801,126.954C460.033,129.015 461.989,129.821 462.773,130.072C463.132,130.188 463.33,130.573 463.215,130.932C463.121,131.222 462.853,131.406 462.565,131.406C462.494,131.406 462.424,131.396 462.354,131.374C461.7,131.164 460.354,130.622 459.102,129.464C459.488,131.123 459.84,132.889 460.132,134.762C460.644,138.06 460.883,141.113 460.957,143.847C461.063,147.058 459.372,149.756 456.995,150.448C454.282,151.24 451.662,149.132 450.886,148.509C449.019,147.007 448.189,145.181 447.254,142.449C446.545,140.374 445.753,137.695 445.093,134.473C444.721,135.505 444.225,136.296 443.855,136.798C443.72,136.979 443.513,137.075 443.305,137.075C443.163,137.075 443.021,137.032 442.898,136.941C442.596,136.718 442.531,136.289 442.755,135.987C443.364,135.161 444.371,133.426 444.253,131.068C444.149,128.958 443.181,127.438 442.613,126.72" style="fill:rgb(39,39,36);fill-rule:nonzero;"/>
            </g>
            <g transform="matrix(6.30497,0,0,6.30497,1974.95,1306.71)">
                <path d="M454.255,128.553C453.413,127.067 452.208,126.334 451.458,126.611C450.48,126.975 450.521,128.977 450.527,129.174C450.608,131.784 452.977,135.091 455.418,134.688C457.289,134.379 458.405,132.027 458.603,130.339C458.622,130.178 458.914,127.393 457.205,126.223C457.023,126.099 456.307,125.607 455.574,125.835C454.749,126.092 454.166,127.183 454.255,128.553" style="fill:white;fill-rule:nonzero;"/>
            </g>
            <g transform="matrix(0,6.30497,6.30497,0,3867.52,-835.208)">
                <path d="M450.293,146.862C451.645,146.862 452.74,148.322 452.74,150.123C452.74,151.925 451.645,153.384 450.293,153.384C448.942,153.384 447.847,151.925 447.847,150.123C447.847,148.322 448.942,146.862 450.293,146.862" style="fill:rgb(39,39,36);fill-rule:nonzero;"/>
            </g>
        </g>
    </g>
</svg>
