<?xml version="1.0" encoding="UTF-8" standalone="no"?>
<!DOCTYPE svg PUBLIC "-//W3C//DTD SVG 1.1//EN" "http://www.w3.org/Graphics/SVG/1.1/DTD/svg11.dtd">
<svg width="100%" height="100%" viewBox="0 0 333 327" version="1.1" xmlns="http://www.w3.org/2000/svg" xmlns:xlink="http://www.w3.org/1999/xlink" xml:space="preserve" xmlns:serif="http://www.serif.com/" style="fill-rule:evenodd;clip-rule:evenodd;stroke-linejoin:round;stroke-miterlimit:2;">
    <g transform="matrix(1,0,0,1,-4043,-1874)">
        <g>
            <g transform="matrix(6.30497,0,0,6.30497,1974.95,883.007)">
                <path d="M356.698,170.95C356.755,170.95 356.811,170.943 356.866,170.929C357.233,170.837 357.455,170.466 357.363,170.1C356.194,165.456 357.04,160.949 359.37,159.386C360.612,158.552 362.498,158.369 364.546,158.884C368.301,159.826 371.861,162.874 374.07,167.037C374.248,167.37 374.661,167.499 374.995,167.321C375.328,167.145 375.454,166.73 375.278,166.397C372.856,161.83 369.065,158.608 364.878,157.558C362.457,156.95 360.171,157.202 358.608,158.25C355.77,160.155 354.713,165.165 356.037,170.434C356.114,170.743 356.392,170.95 356.698,170.95" style="fill:rgb(39,39,36);fill-rule:nonzero;"/>
            </g>
            <g transform="matrix(6.30497,0,0,6.30497,1974.95,1048.73)">
                <path d="M362.606,145.063C363.171,145.767 363.69,146.501 364.16,147.263C366.101,147.752 368.04,148.242 369.982,148.732C368.669,149.535 367.353,150.337 366.036,151.14C367.051,153.921 367.476,156.945 367.276,159.909C366.115,160.785 365.38,161.706 365.076,162.131C364.854,162.437 364.926,162.864 365.231,163.084C365.353,163.171 365.489,163.212 365.629,163.212C365.843,163.212 366.05,163.113 366.185,162.929C366.707,162.199 368.686,159.784 372.133,159.314C376.315,158.743 379.25,161.547 379.571,161.868C379.838,162.135 380.272,162.135 380.536,161.868C380.806,161.602 380.806,161.169 380.538,160.901C380.179,160.542 378.885,159.341 376.894,158.562C377.163,156.217 377.135,152.831 375.774,149.127C374.137,144.68 371.342,141.788 369.278,140.143C367.708,138.711 365.469,138.402 363.697,139.376C363.631,139.413 363.562,139.453 363.497,139.494C362.606,140.046 361.992,140.965 361.811,142.014C361.627,143.097 361.915,144.209 362.606,145.063" style="fill:rgb(39,39,36);fill-rule:nonzero;"/>
            </g>
            <g transform="matrix(6.30497,0,0,6.30497,1974.95,909.752)">
                <path d="M329.38,168.829C329.436,168.829 329.491,168.823 329.547,168.809C329.913,168.717 330.135,168.346 330.045,167.98C328.876,163.335 329.72,158.829 332.052,157.264C333.294,156.432 335.18,156.249 337.226,156.762C340.983,157.705 344.543,160.754 346.752,164.917C346.928,165.25 347.343,165.377 347.676,165.201C348.01,165.023 348.136,164.61 347.96,164.277C345.536,159.71 341.747,156.488 337.56,155.436C335.139,154.828 332.853,155.081 331.29,156.13C328.452,158.034 327.395,163.045 328.719,168.314C328.796,168.623 329.074,168.829 329.38,168.829" style="fill:rgb(39,39,36);fill-rule:nonzero;"/>
            </g>
            <g transform="matrix(6.30497,0,0,6.30497,1974.95,1075.49)">
                <path d="M335.286,142.941C335.855,143.645 336.374,144.379 336.844,145.142C338.783,145.63 340.723,146.12 342.664,146.611C341.35,147.414 340.033,148.215 338.718,149.018C339.734,151.799 340.158,154.823 339.958,157.787C338.795,158.663 338.062,159.584 337.756,160.009C337.536,160.315 337.606,160.742 337.913,160.962C338.033,161.05 338.171,161.091 338.311,161.091C338.525,161.091 338.731,160.992 338.866,160.807C339.389,160.078 341.368,157.662 344.817,157.192C348.995,156.622 351.932,159.425 352.255,159.746C352.52,160.013 352.953,160.013 353.218,159.746C353.486,159.48 353.486,159.047 353.22,158.779C352.861,158.42 351.565,157.219 349.578,156.44C349.844,154.095 349.817,150.709 348.455,147.005C346.819,142.558 344.026,139.666 341.962,138.021C340.39,136.589 338.151,136.28 336.381,137.254C336.311,137.292 336.246,137.331 336.179,137.372C335.286,137.924 334.674,138.843 334.495,139.892C334.31,140.975 334.597,142.087 335.286,142.941" style="fill:rgb(39,39,36);fill-rule:nonzero;"/>
            </g>
            <g transform="matrix(6.30497,0,0,6.30497,1974.95,1236.33)">
                <path d="M358.333,140.442C360.41,140.442 362.36,139.69 363.711,138.33C364.654,137.382 365.073,136.108 364.803,135.007C364.522,133.865 363.706,132.903 362.503,132.298C360.971,131.528 358.97,131.418 357.523,132.028C357.175,132.175 357.013,132.575 357.158,132.923C357.305,133.272 357.706,133.434 358.053,133.287C359.136,132.833 360.713,132.927 361.89,133.518C362.483,133.817 363.241,134.374 363.475,135.332C363.631,135.964 363.342,136.764 362.741,137.367C361.427,138.689 359.389,139.301 357.288,139C356.913,138.947 356.568,139.207 356.514,139.581C356.461,139.953 356.72,140.3 357.095,140.353C357.51,140.413 357.923,140.442 358.333,140.442" style="fill:rgb(39,39,36);fill-rule:nonzero;"/>
            </g>
            <g transform="matrix(6.30497,0,0,6.30497,1974.95,1290.06)">
                <path d="M375.475,133.858C376.341,133.858 377.05,133.629 377.472,133.451C377.818,133.304 377.981,132.903 377.834,132.555C377.687,132.208 377.287,132.045 376.939,132.192C376.477,132.387 375.545,132.666 374.479,132.344C372.794,131.837 372.155,130.202 372.089,130.018C371.961,129.664 371.568,129.481 371.212,129.609C370.859,129.739 370.676,130.13 370.804,130.486C370.953,130.894 371.81,132.968 374.084,133.653C374.576,133.8 375.044,133.858 375.475,133.858" style="fill:rgb(39,39,36);fill-rule:nonzero;"/>
            </g>
            <g transform="matrix(6.30497,0,0,6.30497,1974.95,1313.09)">
                <path d="M338.137,132.775C338.156,132.775 338.175,132.775 338.193,132.773C339.06,132.701 340.725,132.373 342.155,130.988C343.276,129.905 343.744,128.666 343.94,127.817C344.026,127.45 343.797,127.083 343.429,126.997C343.062,126.912 342.695,127.141 342.609,127.508C342.454,128.178 342.085,129.155 341.205,130.007C340.079,131.097 338.764,131.353 338.081,131.412C337.705,131.442 337.425,131.772 337.455,132.148C337.486,132.505 337.785,132.775 338.137,132.775" style="fill:rgb(39,39,36);fill-rule:nonzero;"/>
            </g>
            <g transform="matrix(6.30497,0,0,6.30497,1974.95,1375.37)">
                <path d="M358.224,130.863C361.929,130.863 365.737,129.883 369.019,127.457C371.595,125.554 373.578,122.954 374.913,119.728C375.058,119.38 374.892,118.98 374.544,118.835C374.193,118.691 373.795,118.857 373.65,119.205C372.412,122.197 370.578,124.604 368.206,126.358C361.77,131.116 353.111,129.857 347.789,126.676C345.363,125.226 343.303,123.227 341.668,120.736C341.46,120.42 341.038,120.333 340.722,120.54C340.406,120.746 340.318,121.17 340.525,121.486C342.275,124.151 344.483,126.292 347.089,127.85C350.092,129.645 354.095,130.863 358.224,130.863" style="fill:rgb(39,39,36);fill-rule:nonzero;"/>
            </g>
        </g>
    </g>
</svg>
