<?xml version="1.0" encoding="UTF-8" standalone="no"?>
<!DOCTYPE svg PUBLIC "-//W3C//DTD SVG 1.1//EN" "http://www.w3.org/Graphics/SVG/1.1/DTD/svg11.dtd">
<svg width="100%" height="100%" viewBox="0 0 337 325" version="1.1" xmlns="http://www.w3.org/2000/svg" xmlns:xlink="http://www.w3.org/1999/xlink" xml:space="preserve" xmlns:serif="http://www.serif.com/" style="fill-rule:evenodd;clip-rule:evenodd;stroke-linejoin:round;stroke-miterlimit:2;">
    <g transform="matrix(1,0,0,1,-2272,-1885)">
        <g>
            <g transform="matrix(6.30497,0,0,6.30497,1974.95,1006.93)">
                <path d="M86.89,167.558C86.359,165.468 85.887,162.842 85.78,159.792C85.664,156.478 86.013,153.618 86.454,151.379L82.801,151.399C82.077,157.276 83.412,163.94 84.326,167.558L86.89,167.558ZM97.375,151.321L94.417,151.336C94.45,152.46 94.484,153.582 94.518,154.707C94.527,155.006 94.403,155.294 94.18,155.496C92.737,156.792 91.294,158.089 89.851,159.386C91.337,159.425 92.823,159.464 94.309,159.504C94.657,159.514 94.928,159.808 94.911,160.154C94.855,161.253 94.756,162.425 94.6,163.66C94.423,165.056 94.193,166.357 93.936,167.558L96.376,167.558C97.013,164.362 98.151,157.363 97.375,151.321ZM96.462,147.231C96.419,147.362 96.373,147.494 96.322,147.626C95.95,148.584 95.44,149.356 94.914,149.966L96.377,149.959C96.608,149.757 96.828,149.542 97.035,149.315C96.88,148.592 96.69,147.895 96.462,147.231ZM94.388,143.467C93.606,142.572 91.98,140.708 89.918,140.772C87.704,140.842 86.075,143.136 85.292,144.238C84.126,145.881 83.41,147.88 83.011,150.031L88.816,150C89.503,149.277 90.332,148.145 90.751,146.588C90.975,145.76 91.059,144.901 91.001,144.031C90.976,143.655 91.26,143.329 91.637,143.303C92.014,143.279 92.339,143.563 92.364,143.941C92.432,144.961 92.334,145.97 92.071,146.946C91.735,148.191 91.177,149.204 90.602,149.99L92.941,149.978C93.64,149.423 94.515,148.505 95.048,147.13C95.305,146.467 95.453,145.755 95.488,145.036C95.166,144.469 94.801,143.942 94.388,143.467ZM83.136,168.414C81.783,163.253 79.177,150.489 84.178,143.447C85.088,142.166 86.983,139.497 89.875,139.407C92.581,139.319 94.57,141.597 95.418,142.569C95.659,142.845 95.883,143.138 96.095,143.442C96.099,143.442 96.103,143.44 96.107,143.44C96.481,143.411 96.812,143.693 96.841,144.069C96.858,144.284 96.863,144.501 96.862,144.718C97.368,145.69 97.767,146.759 98.074,147.894C98.141,147.777 98.204,147.661 98.265,147.542C98.804,146.484 99.107,145.294 99.14,144.103C99.151,143.725 99.461,143.432 99.843,143.438C100.22,143.449 100.517,143.763 100.506,144.14C100.467,145.535 100.113,146.925 99.482,148.162C99.204,148.709 98.867,149.23 98.484,149.716C98.528,149.951 98.567,150.188 98.605,150.427C98.625,150.492 98.639,150.559 98.64,150.631C98.64,150.636 98.638,150.642 98.638,150.647C99.633,157.436 98.234,165.363 97.603,168.382C97.537,168.698 97.258,168.925 96.934,168.925L83.797,168.925C83.486,168.925 83.215,168.715 83.136,168.414" style="fill:rgb(39,39,36);fill-rule:nonzero;"/>
            </g>
            <g transform="matrix(6.30497,0,0,6.30497,1974.95,1006.92)">
                <path d="M51.387,167.56L53.828,167.56C53.571,166.359 53.341,165.057 53.164,163.662C53.008,162.427 52.909,161.255 52.853,160.156C52.835,159.809 53.107,159.516 53.455,159.505C54.941,159.466 56.427,159.427 57.913,159.387C56.47,158.091 55.027,156.794 53.584,155.498C53.361,155.296 53.237,155.007 53.246,154.708C53.28,153.584 53.313,152.462 53.347,151.338L50.389,151.322C49.613,157.365 50.751,164.364 51.387,167.56ZM64.963,151.401L61.309,151.38C61.751,153.62 62.1,156.48 61.983,159.794C61.876,162.843 61.404,165.469 60.874,167.56L63.438,167.56C64.352,163.942 65.687,157.278 64.963,151.401ZM62.472,144.24C61.689,143.138 60.06,140.843 57.846,140.773C55.781,140.705 54.158,142.574 53.376,143.469C52.962,143.944 52.598,144.47 52.275,145.037C52.311,145.757 52.458,146.469 52.716,147.132C53.249,148.509 54.124,149.424 54.823,149.98L57.162,149.992C56.586,149.206 56.028,148.193 55.693,146.947C55.43,145.974 55.332,144.962 55.399,143.942C55.424,143.566 55.746,143.281 56.127,143.305C56.503,143.331 56.788,143.657 56.763,144.033C56.705,144.902 56.789,145.763 57.012,146.59C57.431,148.147 58.261,149.279 58.947,150.002L64.753,150.033C64.354,147.882 63.638,145.883 62.472,144.24ZM50.729,149.317C50.936,149.544 51.156,149.759 51.387,149.961L52.849,149.968C52.323,149.358 51.814,148.586 51.441,147.627C51.391,147.496 51.345,147.364 51.302,147.233C51.073,147.897 50.884,148.594 50.729,149.317ZM48.281,148.165C47.651,146.927 47.297,145.536 47.257,144.142C47.247,143.765 47.544,143.45 47.921,143.44L47.941,143.44C48.309,143.44 48.613,143.734 48.623,144.105C48.657,145.295 48.96,146.486 49.499,147.544C49.559,147.663 49.623,147.779 49.69,147.895C49.997,146.761 50.395,145.692 50.901,144.72C50.901,144.503 50.906,144.286 50.922,144.07C50.952,143.695 51.28,143.411 51.657,143.442C51.661,143.442 51.665,143.443 51.668,143.443C51.88,143.139 52.105,142.847 52.346,142.571C53.194,141.598 55.181,139.32 57.889,139.408C60.781,139.499 62.675,142.167 63.586,143.449C68.586,150.49 65.981,163.255 64.628,168.416C64.549,168.717 64.278,168.927 63.967,168.927L50.829,168.927C50.506,168.927 50.227,168.7 50.16,168.384C49.53,165.365 48.131,157.438 49.126,150.651C49.126,150.644 49.124,150.637 49.124,150.632C49.124,150.56 49.139,150.492 49.16,150.427C49.196,150.191 49.236,149.956 49.279,149.722C48.898,149.238 48.564,148.719 48.281,148.165" style="fill:rgb(39,39,36);fill-rule:nonzero;"/>
            </g>
            <g transform="matrix(6.30497,0,0,6.30497,1974.95,1220.66)">
                <path d="M74.176,140.003C71.947,140.003 70.14,138.735 70.14,137.172C70.14,135.611 71.947,134.343 74.176,134.343C76.406,134.343 78.213,135.611 78.213,137.172C78.213,138.735 76.406,140.003 74.176,140.003" style="fill:rgb(39,39,36);fill-rule:nonzero;"/>
            </g>
            <g transform="matrix(6.30497,0,0,6.30497,1974.95,1348.31)">
                <path d="M62.321,130.002C62.9,129.245 63.479,128.487 64.057,127.728C62.04,126.365 60.299,124.578 58.97,122.509C58.772,122.643 58.574,122.766 58.377,122.873C58.81,124.489 59.874,127.38 62.321,130.002ZM64.294,131.794C65.548,132.756 66.836,133.451 68.083,133.953L69.351,130.115C67.573,129.628 66.166,128.969 65.227,128.447C64.586,129.288 63.945,130.128 63.303,130.967C63.616,131.249 63.944,131.526 64.294,131.794ZM86.572,130.128C85.946,129.31 85.322,128.492 84.697,127.674C84.322,127.928 83.928,128.176 83.513,128.413C82.914,128.755 82.061,129.187 80.991,129.589C81.4,130.824 81.808,132.059 82.215,133.294C83.453,132.66 84.425,131.98 85.095,131.449C85.632,131.022 86.122,130.58 86.572,130.128ZM90.098,123.271C89.873,123.164 89.663,123.046 89.461,122.924C88.64,124.119 87.448,125.545 85.797,126.862C86.368,127.61 86.939,128.359 87.511,129.107C89.233,127.072 90.187,124.986 90.696,123.522C90.498,123.447 90.299,123.367 90.098,123.271ZM74.262,130.79C72.973,130.784 71.775,130.646 70.686,130.429L69.371,134.41C71.249,134.989 72.966,135.16 74.248,135.178L74.262,130.79ZM75.629,130.747L75.615,135.141C77.667,135.001 79.465,134.5 80.967,133.873C80.544,132.59 80.12,131.306 79.695,130.021C78.518,130.368 77.152,130.644 75.629,130.747ZM54.355,122.446C55.158,122.489 56.733,122.403 58.267,121.336C59.777,120.285 60.406,118.864 60.646,118.11C60.761,117.752 61.146,117.553 61.505,117.668C61.865,117.782 62.063,118.167 61.948,118.527C61.714,119.26 61.176,120.51 60.034,121.636C61.35,123.731 63.121,125.519 65.183,126.833C66.403,127.609 69.735,129.416 74.319,129.425L74.348,129.425C76.535,129.425 78.418,129.02 79.917,128.519C79.917,128.518 79.918,128.518 79.918,128.518L79.919,128.518C81.185,128.094 82.177,127.604 82.835,127.226C85.526,125.688 87.287,123.683 88.358,122.116C87.142,121.042 86.52,119.808 86.27,119.207C86.126,118.859 86.291,118.459 86.64,118.315C86.989,118.17 87.388,118.336 87.533,118.684C87.821,119.378 88.704,121.095 90.685,122.038C91.037,122.205 91.384,122.33 91.721,122.422C91.732,122.424 91.743,122.426 91.755,122.429C91.76,122.429 91.764,122.432 91.768,122.434C92.772,122.701 93.679,122.672 94.33,122.578C94.704,122.525 95.05,122.783 95.104,123.157C95.157,123.529 94.898,123.876 94.525,123.931C94.197,123.977 93.816,124.011 93.394,124.011C92.971,124.011 92.506,123.973 92.016,123.886C91.422,125.618 90.241,128.201 87.99,130.627C87.988,130.629 87.986,130.631 87.984,130.632C87.383,131.28 86.707,131.915 85.944,132.52C85.102,133.188 83.82,134.073 82.154,134.844C82.147,134.849 82.139,134.85 82.131,134.854C80.236,135.729 77.847,136.451 75.043,136.538C74.87,136.543 74.687,136.547 74.493,136.547C72.948,136.547 70.736,136.347 68.33,135.505C68.317,135.501 68.305,135.5 68.293,135.496C68.277,135.491 68.263,135.482 68.248,135.476C66.689,134.922 65.052,134.097 63.462,132.879C59.385,129.754 57.737,125.646 57.112,123.427C56.168,123.739 55.307,123.821 54.676,123.821C54.532,123.821 54.399,123.816 54.28,123.811C53.904,123.789 53.615,123.468 53.636,123.09C53.656,122.714 53.978,122.424 54.355,122.446" style="fill:rgb(39,39,36);fill-rule:nonzero;"/>
            </g>
            <g transform="matrix(0,-6.30497,-6.30497,0,3404.36,2664.91)">
                <path d="M90.715,135.154C90.25,135.154 89.875,135.531 89.875,135.996C89.875,136.461 90.25,136.837 90.715,136.837C91.18,136.837 91.557,136.461 91.557,135.996C91.557,135.531 91.18,135.154 90.715,135.154" style="fill:rgb(39,39,36);fill-rule:nonzero;"/>
            </g>
            <g transform="matrix(0,6.30497,6.30497,0,1730.19,1508.81)">
                <path d="M94.913,132.891C94.448,132.891 94.07,133.268 94.07,133.732C94.07,134.197 94.448,134.574 94.913,134.574C95.377,134.574 95.753,134.197 95.753,133.732C95.753,133.268 95.377,132.891 94.913,132.891" style="fill:rgb(39,39,36);fill-rule:nonzero;"/>
            </g>
            <g transform="matrix(0,-6.30497,-6.30497,0,3436.07,2681.78)">
                <path d="M94.569,136.332C94.104,136.332 93.726,136.708 93.726,137.173C93.726,137.638 94.104,138.014 94.569,138.014C95.033,138.014 95.409,137.638 95.409,137.173C95.409,136.708 95.033,136.332 94.569,136.332" style="fill:rgb(39,39,36);fill-rule:nonzero;"/>
            </g>
            <g transform="matrix(0,6.30497,6.30497,0,1475.02,1735.43)">
                <path d="M56.705,135.154C56.24,135.154 55.863,135.531 55.863,135.996C55.863,136.461 56.24,136.837 56.705,136.837C57.17,136.837 57.545,136.461 57.545,135.996C57.545,135.531 57.17,135.154 56.705,135.154" style="fill:rgb(39,39,36);fill-rule:nonzero;"/>
            </g>
            <g transform="matrix(-6.30497,0,0,6.30497,2637.07,1264.05)">
                <path d="M52.508,132.891C52.044,132.891 51.667,133.269 51.667,133.733C51.667,134.198 52.044,134.574 52.508,134.574C52.973,134.574 53.35,134.198 53.35,133.733C53.35,133.269 52.973,132.891 52.508,132.891" style="fill:rgb(39,39,36);fill-rule:nonzero;"/>
            </g>
            <g transform="matrix(0,6.30497,6.30497,0,1443.31,1752.3)">
                <path d="M52.851,136.332C52.387,136.332 52.011,136.708 52.011,137.173C52.011,137.638 52.387,138.014 52.851,138.014C53.316,138.014 53.693,137.638 53.693,137.173C53.693,136.708 53.316,136.332 52.851,136.332" style="fill:rgb(39,39,36);fill-rule:nonzero;"/>
            </g>
        </g>
    </g>
</svg>
