<?xml version="1.0" encoding="UTF-8" standalone="no"?>
<!DOCTYPE svg PUBLIC "-//W3C//DTD SVG 1.1//EN" "http://www.w3.org/Graphics/SVG/1.1/DTD/svg11.dtd">
<svg width="100%" height="100%" viewBox="0 0 290 378" version="1.1" xmlns="http://www.w3.org/2000/svg" xmlns:xlink="http://www.w3.org/1999/xlink" xml:space="preserve" xmlns:serif="http://www.serif.com/" style="fill-rule:evenodd;clip-rule:evenodd;stroke-linejoin:round;stroke-miterlimit:2;">
    <g transform="matrix(1,0,0,1,-4668,-1375)">
        <g>
            <g transform="matrix(0,-6.30497,-6.30497,0,6139.6,4364.64)">
                <path d="M442.42,217.106C441.863,217.106 441.411,217.557 441.411,218.114C441.411,218.671 441.863,219.122 442.42,219.122C442.977,219.122 443.428,218.671 443.428,218.114C443.428,217.557 442.977,217.106 442.42,217.106" style="fill:rgb(39,39,36);fill-rule:nonzero;"/>
            </g>
            <g transform="matrix(0,-6.30497,-6.30497,0,6098.2,4374.11)">
                <path d="M439.887,213.072C439.33,213.072 438.879,213.524 438.879,214.081C438.879,214.638 439.33,215.089 439.887,215.089C440.444,215.089 440.895,214.638 440.895,214.081C440.895,213.524 440.444,213.072 439.887,213.072" style="fill:rgb(39,39,36);fill-rule:nonzero;"/>
            </g>
            <g transform="matrix(0,-6.30497,-6.30497,0,6126.88,4402.79)">
                <path d="M444.436,213.072C443.879,213.072 443.428,213.523 443.428,214.079C443.428,214.636 443.879,215.089 444.436,215.089C444.993,215.089 445.445,214.636 445.445,214.079C445.445,213.523 444.993,213.072 444.436,213.072" style="fill:rgb(39,39,36);fill-rule:nonzero;"/>
            </g>
            <g transform="matrix(0,-6.30497,-6.30497,0,6287.5,4512.54)">
                <path d="M465.877,217.106C465.32,217.106 464.869,217.557 464.869,218.114C464.869,218.671 465.32,219.122 465.877,219.122C466.434,219.122 466.885,218.671 466.885,218.114C466.885,217.557 466.434,217.106 465.877,217.106" style="fill:rgb(39,39,36);fill-rule:nonzero;"/>
            </g>
            <g transform="matrix(0,-6.30497,-6.30497,0,6246.09,4522.01)">
                <path d="M463.344,213.072C462.787,213.072 462.336,213.523 462.336,214.079C462.336,214.638 462.787,215.089 463.344,215.089C463.901,215.089 464.353,214.638 464.353,214.079C464.353,213.523 463.901,213.072 463.344,213.072" style="fill:rgb(39,39,36);fill-rule:nonzero;"/>
            </g>
            <g transform="matrix(0,-6.30497,-6.30497,0,6274.78,4550.69)">
                <path d="M467.894,213.072C467.337,213.072 466.885,213.523 466.885,214.079C466.885,214.636 467.337,215.089 467.894,215.089C468.45,215.089 468.902,214.636 468.902,214.079C468.902,213.523 468.45,213.072 467.894,213.072" style="fill:rgb(39,39,36);fill-rule:nonzero;"/>
            </g>
            <g transform="matrix(6.30497,0,0,6.30497,1974.95,522.957)">
                <path d="M452.239,192.043C452.405,192.228 453.927,193.844 456.194,193.586C457.907,193.39 459.36,192.23 459.983,190.557C460.116,190.203 460.509,190.023 460.863,190.156C461.217,190.288 461.396,190.681 461.264,191.035C460.46,193.191 458.575,194.688 456.35,194.944C456.129,194.97 455.914,194.982 455.705,194.982C453.114,194.982 451.419,193.176 451.221,192.954C450.97,192.674 450.994,192.242 451.274,191.99C451.556,191.738 451.988,191.762 452.239,192.043" style="fill:rgb(39,39,36);fill-rule:nonzero;"/>
            </g>
            <g transform="matrix(6.30497,0,0,6.30497,1974.95,151.309)">
                <path d="M443.99,220.477C443.639,218.546 443.385,216.584 443.236,214.624C443.045,212.123 443.089,210.545 443.123,209.276C443.165,207.82 443.193,206.768 442.881,205.04C442.478,202.82 441.538,197.623 437.997,196.072C435.648,195.044 432.749,195.732 431.216,196.9C429.92,197.889 429.079,199.627 428.743,201.945C430.193,199.974 432.791,198.431 434.565,199.209C435.188,199.483 435.701,199.981 436.092,200.689C436.399,201.249 436.589,201.884 436.652,202.576L437.057,206.942C437.076,207.141 437.006,207.339 436.866,207.482C436.726,207.625 436.531,207.7 436.331,207.687C434.307,207.553 432.882,208.845 432.791,209.794C432.745,210.278 433.015,210.889 433.495,211.388C434.244,212.163 435.345,212.565 436.517,212.495C436.869,212.47 437.177,212.721 437.233,213.068C437.46,214.48 437.705,215.911 437.957,217.322C438.104,218.141 438.256,218.968 438.413,219.791C440.412,219.549 442.338,219.794 443.99,220.477ZM466.999,214.629C466.781,212.038 466.828,210.424 466.868,209.128C466.909,207.764 466.941,206.687 466.644,205.04C466.241,202.82 465.301,197.623 461.76,196.072C459.411,195.044 456.513,195.732 454.979,196.9C453.683,197.889 452.842,199.627 452.506,201.945C453.956,199.974 456.555,198.431 458.328,199.209C458.95,199.483 459.464,199.981 459.853,200.689C460.163,201.249 460.352,201.884 460.415,202.576L460.82,206.942C460.839,207.141 460.769,207.339 460.629,207.482C460.489,207.625 460.294,207.7 460.094,207.687C458.071,207.553 456.645,208.845 456.555,209.794C456.507,210.278 456.778,210.889 457.258,211.388C458.007,212.163 459.109,212.565 460.28,212.495C460.631,212.47 460.94,212.721 460.996,213.068C461.223,214.48 461.468,215.911 461.72,217.322C461.864,218.129 462.016,218.944 462.17,219.755C464.22,219.556 466.181,219.874 467.836,220.649C467.452,218.672 467.168,216.65 466.999,214.629ZM430.388,195.814C432.277,194.373 435.685,193.569 438.543,194.82C442.755,196.663 443.785,202.363 444.225,204.797C444.564,206.664 444.531,207.834 444.49,209.314C444.454,210.615 444.413,212.09 444.598,214.52C444.772,216.795 445.088,219.073 445.539,221.298C445.812,221.481 446.075,221.678 446.323,221.89C448.546,223.791 449.709,226.828 449.649,229.909C450.447,230.028 451.252,230.09 452.053,230.098C452.294,229.939 452.564,229.846 452.849,229.846C453.104,229.846 453.345,229.918 453.563,230.045C453.608,230.042 453.652,230.04 453.695,230.036C456.261,229.814 458.715,229.03 460.994,227.706C461.241,227.563 461.55,227.587 461.77,227.767C461.99,227.947 462.076,228.244 461.985,228.514C460.82,231.988 460.12,235.569 459.903,239.169C464.146,240.088 468.583,238.102 470.614,234.302C472.651,230.492 471.894,225.496 468.892,222.928C467.131,221.421 464.539,220.783 461.782,221.177C461.618,221.201 461.454,221.232 461.29,221.262C460.723,221.371 460.161,221.518 459.614,221.704C459.541,221.729 459.467,221.756 459.395,221.782C459.272,221.826 459.151,221.872 459.032,221.92C458.931,221.96 458.83,222.002 458.731,222.045C458.639,222.085 458.546,222.125 458.456,222.166C458.307,222.235 458.159,222.306 458.013,222.381C457.979,222.397 457.945,222.413 457.913,222.431C455.902,223.475 454.132,225.077 452.808,227.105C452.601,227.421 452.178,227.511 451.862,227.304C451.546,227.097 451.457,226.674 451.664,226.358C452.733,224.721 454.069,223.336 455.582,222.259C454.749,220.451 454.006,218.584 453.377,216.7C453.375,216.696 453.375,216.693 453.373,216.689C452.232,213.382 451.482,210.255 451.158,207.424C451.156,207.41 451.153,207.397 451.151,207.383C451.149,207.375 451.149,207.367 451.148,207.358C451.144,207.332 451.142,207.303 451.141,207.276C451.1,206.905 451.062,206.537 451.036,206.177C450.678,201.224 451.756,197.64 454.151,195.814C456.04,194.373 459.448,193.569 462.306,194.82C466.516,196.663 467.548,202.363 467.988,204.797C468.311,206.585 468.277,207.725 468.234,209.169C468.195,210.496 468.149,212.001 468.361,214.515C468.538,216.631 468.841,218.749 469.26,220.812C469.304,221.022 469.242,221.228 469.114,221.381C469.345,221.541 469.569,221.709 469.782,221.89C473.25,224.858 474.145,230.593 471.819,234.947C469.88,238.577 466.019,240.759 461.977,240.759C461.27,240.759 460.554,240.691 459.845,240.552C459.816,241.621 459.828,242.698 459.884,243.764C459.918,244.39 459.872,245.02 459.749,245.635C459.423,247.269 458.654,249.377 456.845,250.143C456.457,250.307 456.049,250.381 455.625,250.381C452.936,250.381 449.678,247.376 448.042,245.16C446.631,243.25 445.698,240.967 445.307,238.496C443.373,239.949 440.981,240.759 438.52,240.759C437.532,240.759 436.534,240.629 435.55,240.357C435.186,240.257 434.973,239.881 435.074,239.517C435.173,239.153 435.549,238.939 435.914,239.04C439.483,240.024 443.269,238.898 445.7,236.325C445.712,236.312 445.724,236.299 445.735,236.286C445.807,236.209 445.877,236.13 445.947,236.05C445.978,236.015 446.007,235.98 446.036,235.946C446.087,235.886 446.137,235.825 446.186,235.764C446.226,235.716 446.263,235.668 446.301,235.619C446.34,235.569 446.38,235.517 446.417,235.466C446.458,235.41 446.501,235.353 446.54,235.296C446.574,235.249 446.607,235.201 446.639,235.153C446.68,235.092 446.721,235.032 446.762,234.97C446.795,234.919 446.827,234.867 446.858,234.815C446.894,234.757 446.931,234.699 446.965,234.64C447.032,234.529 447.095,234.417 447.157,234.302C447.16,234.296 447.162,234.289 447.165,234.283C447.232,234.161 447.293,234.037 447.352,233.912C447.393,233.827 447.432,233.74 447.47,233.653C447.487,233.615 447.504,233.577 447.521,233.539C447.828,232.811 448.044,232.051 448.168,231.281C448.168,231.277 448.17,231.273 448.17,231.269C448.19,231.144 448.208,231.019 448.223,230.893C448.242,230.742 448.257,230.59 448.267,230.437L448.267,230.432C448.486,227.566 447.485,224.681 445.435,222.928C443.674,221.421 441.08,220.783 438.325,221.177C434.747,221.69 431.476,223.85 429.351,227.105C429.144,227.421 428.72,227.511 428.404,227.304C428.088,227.097 427.999,226.674 428.206,226.358C429.221,224.804 430.477,223.476 431.896,222.424C431.03,220.564 430.263,218.641 429.614,216.7C429.612,216.695 429.61,216.69 429.609,216.685C428.469,213.379 427.719,210.253 427.395,207.422C427.393,207.409 427.39,207.396 427.388,207.383C427.386,207.375 427.386,207.367 427.385,207.358C427.381,207.333 427.379,207.305 427.378,207.279C427.337,206.907 427.301,206.538 427.273,206.177C426.915,201.224 427.993,197.64 430.388,195.814" style="fill:rgb(39,39,36);fill-rule:nonzero;"/>
            </g>
            <g transform="matrix(0,6.30497,6.30497,0,3486.26,-1248.62)">
                <path d="M452.843,211.771C454.119,211.771 455.153,212.385 455.153,213.143C455.153,213.9 454.119,214.513 452.843,214.513C451.568,214.513 450.533,213.9 450.533,213.143C450.533,212.385 451.568,211.771 452.843,211.771" style="fill:white;fill-rule:nonzero;"/>
            </g>
            <g transform="matrix(0,6.30497,6.30497,0,3502.53,-1271.56)">
                <path d="M455.953,212.299C457.223,212.299 458.253,212.914 458.253,213.671C458.253,214.427 457.223,215.042 455.953,215.042C454.683,215.042 453.653,214.427 453.653,213.671C453.653,212.914 454.683,212.299 455.953,212.299" style="fill:white;fill-rule:nonzero;"/>
            </g>
            <g transform="matrix(0,-6.30497,-6.30497,0,6224.17,4383.2)">
                <path d="M450.598,221.098C449.787,221.098 449.131,222.106 449.131,223.349C449.131,224.593 449.787,225.601 450.598,225.601C451.408,225.601 452.064,224.593 452.064,223.349C452.064,222.106 451.408,221.098 450.598,221.098" style="fill:rgb(39,39,36);fill-rule:nonzero;"/>
            </g>
        </g>
    </g>
</svg>
