<?xml version="1.0" encoding="UTF-8" standalone="no"?>
<!DOCTYPE svg PUBLIC "-//W3C//DTD SVG 1.1//EN" "http://www.w3.org/Graphics/SVG/1.1/DTD/svg11.dtd">
<svg width="100%" height="100%" viewBox="0 0 333 330" version="1.1" xmlns="http://www.w3.org/2000/svg" xmlns:xlink="http://www.w3.org/1999/xlink" xml:space="preserve" xmlns:serif="http://www.serif.com/" style="fill-rule:evenodd;clip-rule:evenodd;stroke-linejoin:round;stroke-miterlimit:2;">
    <g transform="matrix(1,0,0,1,-3451,-1878)">
        <g>
            <g transform="matrix(6.30497,0,0,6.30497,1974.95,1075.48)">
                <path d="M285.481,155.009C285.019,145.798 281.642,138.532 278.68,133.844C277.462,135.568 276.862,137.087 276.281,138.563C275.63,140.216 275.015,141.778 273.613,143.302C271.973,145.084 269.685,146.308 266.791,146.964C266.53,148.171 266.332,149.387 266.2,150.61C268.074,149.315 270.471,148.963 272.653,149.708C275.184,150.572 277.04,152.78 277.462,155.433C275.171,156.615 272.881,157.799 270.592,158.981C273.225,159.782 275.858,160.583 278.492,161.386C278.282,163.829 278.073,166.272 277.863,168.717L283.929,168.717C285.188,164.22 285.71,159.611 285.481,155.009ZM265.339,147.236C264.871,147.308 264.393,147.368 263.899,147.412C263.877,147.414 263.856,147.414 263.836,147.414C263.486,147.414 263.188,147.147 263.156,146.792C263.122,146.416 263.4,146.085 263.776,146.05C267.721,145.695 270.691,144.458 272.608,142.376C273.836,141.04 274.38,139.66 275.01,138.062C275.68,136.361 276.438,134.432 278.184,132.225C279.64,130.385 281.43,128.793 283.509,127.489C283.829,127.289 284.251,127.387 284.452,127.706C284.652,128.026 284.555,128.448 284.235,128.649C282.433,129.777 280.868,131.138 279.568,132.696C282.682,137.51 286.357,145.16 286.846,154.941C287.09,159.864 286.504,164.794 285.101,169.591C285.016,169.884 284.748,170.083 284.445,170.083L268.759,170.083C268.496,170.083 268.257,169.931 268.143,169.694C266.257,165.746 265.117,161.545 264.758,157.206C264.483,153.871 264.68,150.523 265.339,147.236" style="fill:rgb(39,39,36);fill-rule:nonzero;"/>
            </g>
            <g transform="matrix(6.30497,0,0,6.30497,1974.95,1075.48)">
                <path d="M237.302,168.717C237.242,168.585 237.182,168.45 237.122,168.315C237.16,168.449 237.194,168.584 237.232,168.717L237.302,168.717ZM255.041,157.093C255.321,153.706 255.094,150.301 254.37,146.964C251.478,146.308 249.189,145.084 247.548,143.302C246.148,141.778 245.533,140.216 244.882,138.563C244.299,137.088 243.701,135.568 242.483,133.846C239.359,138.792 237.215,144.328 236.246,149.947C237.888,149.219 239.769,149.112 241.511,149.708C244.043,150.572 245.898,152.78 246.32,155.433C244.029,156.615 241.74,157.799 239.451,158.981C242.083,159.782 244.716,160.585 247.35,161.386C247.142,163.829 246.932,166.272 246.723,168.717L251.968,168.717C253.675,165.032 254.706,161.123 255.041,157.093ZM234.317,154.941C234.396,153.362 234.562,151.777 234.809,150.231C235.788,144.101 238.134,138.052 241.597,132.698C240.295,131.14 238.728,129.777 236.926,128.649C236.606,128.448 236.511,128.026 236.711,127.706C236.911,127.387 237.333,127.289 237.652,127.489C239.731,128.793 241.523,130.385 242.977,132.225C244.723,134.432 245.483,136.361 246.153,138.062C246.781,139.66 247.326,141.04 248.555,142.376C250.47,144.458 253.442,145.695 257.387,146.05C257.763,146.085 258.039,146.416 258.005,146.792C257.973,147.147 257.676,147.414 257.325,147.414C257.305,147.414 257.284,147.414 257.264,147.412C256.77,147.368 256.29,147.308 255.824,147.236C256.483,150.526 256.678,153.875 256.403,157.206C256.044,161.545 254.905,165.746 253.019,169.694C252.906,169.931 252.665,170.083 252.402,170.083L236.716,170.083C236.412,170.083 236.145,169.884 236.06,169.591C235.484,167.617 235.042,165.602 234.746,163.605C234.317,160.734 234.172,157.819 234.317,154.941" style="fill:rgb(39,39,36);fill-rule:nonzero;"/>
            </g>
            <g transform="matrix(0,6.30497,6.30497,0,2819.97,476.398)">
                <path d="M263.207,126.034C261.876,126.034 260.798,127.443 260.798,129.182C260.798,130.921 261.876,132.331 263.207,132.331C264.538,132.331 265.616,130.921 265.616,129.182C265.616,127.443 264.538,126.034 263.207,126.034" style="fill:rgb(39,39,36);fill-rule:nonzero;"/>
            </g>
            <g transform="matrix(6.30497,0,0,6.30497,1974.95,1425.99)">
                <path d="M256.106,118.278C260.838,118.652 263.246,122.414 263.506,122.841C263.701,123.164 263.598,123.584 263.275,123.779C263.165,123.847 263.042,123.878 262.922,123.878C262.691,123.878 262.464,123.762 262.336,123.55C262.114,123.182 260.05,119.961 255.998,119.639C251.946,119.318 249.407,122.166 249.13,122.492C248.886,122.779 248.456,122.815 248.167,122.571C247.88,122.327 247.844,121.894 248.088,121.607C248.413,121.226 251.384,117.902 256.106,118.278" style="fill:rgb(39,39,36);fill-rule:nonzero;"/>
            </g>
        </g>
    </g>
</svg>
