<?xml version="1.0" encoding="UTF-8" standalone="no"?>
<!DOCTYPE svg PUBLIC "-//W3C//DTD SVG 1.1//EN" "http://www.w3.org/Graphics/SVG/1.1/DTD/svg11.dtd">
<svg width="100%" height="100%" viewBox="0 0 281 314" version="1.1" xmlns="http://www.w3.org/2000/svg" xmlns:xlink="http://www.w3.org/1999/xlink" xml:space="preserve" xmlns:serif="http://www.serif.com/" style="fill-rule:evenodd;clip-rule:evenodd;stroke-linejoin:round;stroke-miterlimit:2;">
    <g transform="matrix(1,0,0,1,-2314,-2386)">
        <g>
            <g transform="matrix(6.30497,0,0,6.30497,1974.95,2044.14)">
                <path d="M94.29,83.475C95.953,80.387 96.869,76.264 96.869,71.869C96.869,69.865 96.68,67.924 96.307,66.084C96.209,66.154 96.104,66.226 95.997,66.3C95.962,66.323 95.925,66.347 95.889,66.371C95.81,66.424 95.729,66.476 95.647,66.528C95.605,66.554 95.565,66.581 95.523,66.607C95.424,66.669 95.322,66.73 95.218,66.792C95.192,66.807 95.169,66.821 95.143,66.836C95.016,66.909 94.885,66.983 94.75,67.056C94.706,67.08 94.66,67.104 94.616,67.128C94.518,67.179 94.418,67.231 94.316,67.282C94.264,67.308 94.212,67.333 94.159,67.359C94.046,67.413 93.931,67.468 93.814,67.521C93.774,67.538 93.736,67.557 93.696,67.574C93.543,67.642 93.386,67.707 93.226,67.772C93.174,67.793 93.12,67.813 93.066,67.834C92.951,67.878 92.833,67.923 92.714,67.965C92.651,67.987 92.587,68.01 92.523,68.032C92.396,68.075 92.268,68.116 92.137,68.157C92.085,68.172 92.034,68.189 91.98,68.206C91.802,68.259 91.62,68.309 91.434,68.355C91.379,68.368 91.323,68.382 91.267,68.396C91.127,68.428 90.986,68.461 90.843,68.49C90.774,68.505 90.705,68.519 90.635,68.532C90.487,68.56 90.336,68.585 90.184,68.609C90.128,68.62 90.073,68.628 90.016,68.637C89.997,68.64 89.979,68.643 89.96,68.645C89.96,68.674 89.959,68.7 89.958,68.729C89.958,68.766 89.957,68.806 89.956,68.843C89.951,69.062 89.945,69.277 89.936,69.489C89.912,70.051 89.874,70.61 89.822,71.15C89.8,71.387 89.654,71.595 89.44,71.7L85.478,73.62L89.916,75.584C90.162,75.694 90.321,75.936 90.322,76.206C90.334,78.434 89.741,80.501 88.607,82.182C87.921,83.2 87.068,84.468 85.387,84.862C85.303,84.883 85.221,84.898 85.139,84.912C85.112,84.917 85.086,84.921 85.059,84.924C85.004,84.933 84.949,84.941 84.895,84.946C84.864,84.95 84.834,84.951 84.804,84.955C84.754,84.958 84.705,84.963 84.655,84.967C84.623,84.968 84.592,84.968 84.56,84.968C84.522,84.97 84.483,84.972 84.445,84.972L84.422,84.972C84.375,84.97 84.328,84.968 84.281,84.967C84.248,84.965 84.215,84.965 84.182,84.963C84.129,84.96 84.077,84.955 84.024,84.95C83.999,84.948 83.973,84.946 83.948,84.943C83.796,84.926 83.647,84.9 83.504,84.869C84.945,86.918 86.694,88.059 88.467,88.059C90.631,88.059 92.698,86.431 94.29,83.475ZM88.467,55.679C85.219,55.679 82.177,59.497 80.817,65.228C80.891,65.276 80.97,65.328 81.052,65.38C81.066,65.389 81.079,65.398 81.093,65.406C81.127,65.427 81.163,65.449 81.2,65.471C81.215,65.481 81.23,65.49 81.246,65.5C81.283,65.522 81.322,65.546 81.361,65.568C81.376,65.579 81.392,65.587 81.408,65.596C81.448,65.62 81.489,65.644 81.531,65.667C81.546,65.676 81.562,65.685 81.578,65.695C81.621,65.719 81.666,65.744 81.712,65.77C81.725,65.777 81.739,65.784 81.753,65.792C81.801,65.818 81.85,65.845 81.901,65.871C81.911,65.878 81.922,65.883 81.933,65.888C81.987,65.917 82.042,65.946 82.098,65.975C82.103,65.977 82.108,65.978 82.112,65.982C82.496,66.177 82.926,66.373 83.399,66.554C83.401,66.554 83.404,66.556 83.406,66.558C83.481,66.585 83.556,66.614 83.633,66.641C83.641,66.645 83.649,66.646 83.657,66.65C83.731,66.677 83.806,66.703 83.882,66.728C83.893,66.732 83.903,66.735 83.913,66.739C83.989,66.764 84.066,66.79 84.143,66.815C84.153,66.817 84.164,66.821 84.174,66.824C84.253,66.85 84.333,66.874 84.414,66.898C84.421,66.899 84.427,66.901 84.434,66.903C84.954,67.056 85.513,67.185 86.107,67.275C86.124,67.277 86.141,67.28 86.157,67.282C86.237,67.294 86.317,67.304 86.397,67.316C86.427,67.319 86.455,67.323 86.485,67.326C86.559,67.335 86.635,67.343 86.71,67.352C86.746,67.355 86.782,67.359 86.819,67.362C86.891,67.369 86.963,67.376 87.036,67.381C87.077,67.384 87.119,67.388 87.16,67.39C87.23,67.395 87.3,67.4 87.371,67.403C87.417,67.405 87.464,67.407 87.511,67.408C87.578,67.412 87.646,67.413 87.714,67.415C87.766,67.417 87.819,67.417 87.871,67.417C87.935,67.419 88,67.419 88.065,67.419C88.128,67.419 88.191,67.417 88.255,67.415C88.311,67.413 88.366,67.413 88.422,67.412C88.542,67.408 88.663,67.401 88.785,67.395C88.929,67.384 89.071,67.372 89.216,67.359C89.425,67.338 89.629,67.313 89.83,67.284C89.898,67.273 89.963,67.261 90.029,67.249C90.161,67.229 90.293,67.207 90.422,67.181C90.499,67.166 90.574,67.149 90.65,67.133C90.765,67.108 90.88,67.084 90.991,67.056C91.07,67.038 91.147,67.017 91.224,66.997C91.33,66.968 91.435,66.94 91.538,66.909C91.615,66.887 91.691,66.863 91.766,66.841C91.866,66.809 91.965,66.778 92.062,66.745C92.136,66.72 92.209,66.694 92.282,66.669C92.377,66.634 92.471,66.599 92.563,66.563C92.633,66.535 92.703,66.51 92.771,66.481C92.863,66.445 92.953,66.405 93.042,66.368C93.107,66.339 93.172,66.312 93.235,66.282C93.325,66.243 93.413,66.2 93.5,66.159C93.558,66.132 93.617,66.105 93.674,66.076C93.765,66.031 93.853,65.985 93.941,65.939C93.99,65.913 94.04,65.888 94.087,65.862C94.19,65.806 94.29,65.749 94.389,65.693C94.417,65.678 94.447,65.661 94.474,65.645C94.6,65.572 94.722,65.497 94.839,65.423C94.859,65.411 94.878,65.399 94.897,65.386C94.993,65.326 95.087,65.264 95.177,65.205C95.211,65.182 95.243,65.158 95.276,65.136C95.348,65.087 95.42,65.037 95.487,64.989C95.523,64.964 95.556,64.94 95.59,64.914C95.652,64.87 95.714,64.824 95.772,64.781C95.805,64.755 95.836,64.731 95.868,64.707C95.903,64.68 95.936,64.654 95.969,64.629C94.533,59.176 91.614,55.679 88.467,55.679ZM81.25,83.75C81.248,83.749 81.246,83.745 81.245,83.744C79.604,80.51 78.701,76.292 78.701,71.869C78.701,69.631 78.928,67.454 79.377,65.399C79.378,65.392 79.38,65.386 79.381,65.38C80.849,58.656 84.415,54.312 88.467,54.312C92.345,54.312 95.852,58.397 97.402,64.719L97.403,64.719C97.955,66.971 98.236,69.376 98.236,71.869C98.236,76.486 97.261,80.839 95.493,84.124C93.652,87.543 91.157,89.425 88.467,89.425C85.669,89.425 83.106,87.41 81.25,83.75" style="fill:rgb(39,39,36);fill-rule:nonzero;"/>
            </g>
            <g transform="matrix(6.30497,0,0,6.30497,1974.95,2044.14)">
                <path d="M63.696,88.059C65.86,88.059 67.928,86.431 69.519,83.475C71.182,80.387 72.098,76.264 72.098,71.869C72.098,69.865 71.91,67.924 71.537,66.084C71.436,66.156 71.33,66.23 71.221,66.303C71.19,66.323 71.159,66.344 71.127,66.364C71.044,66.421 70.958,66.477 70.87,66.532C70.832,66.558 70.794,66.581 70.756,66.605C70.653,66.669 70.548,66.732 70.439,66.797C70.417,66.809 70.396,66.822 70.374,66.836C70.246,66.909 70.114,66.983 69.979,67.056C69.935,67.08 69.89,67.104 69.845,67.128C69.748,67.179 69.649,67.231 69.547,67.28C69.494,67.308 69.441,67.333 69.387,67.36C69.276,67.413 69.163,67.466 69.048,67.518C69.006,67.536 68.966,67.557 68.924,67.576C68.772,67.642 68.616,67.707 68.457,67.77C68.403,67.793 68.347,67.813 68.292,67.835C68.178,67.88 68.063,67.923 67.946,67.964C67.881,67.987 67.816,68.01 67.75,68.032C67.626,68.075 67.5,68.116 67.373,68.155C67.318,68.172 67.264,68.189 67.208,68.206C67.031,68.259 66.85,68.309 66.666,68.355C66.609,68.368 66.549,68.382 66.492,68.396C66.354,68.428 66.216,68.461 66.075,68.49C66.004,68.503 65.934,68.519 65.863,68.532C65.716,68.56 65.566,68.585 65.415,68.609C65.358,68.618 65.302,68.628 65.245,68.637C65.226,68.64 65.208,68.643 65.19,68.645C65.189,68.676 65.188,68.707 65.188,68.737C65.187,68.768 65.186,68.799 65.185,68.831C65.181,69.053 65.174,69.274 65.165,69.489C65.141,70.051 65.103,70.61 65.052,71.15C65.029,71.387 64.884,71.595 64.669,71.7L60.707,73.62L65.145,75.584C65.391,75.694 65.551,75.936 65.552,76.206C65.563,78.436 64.97,80.501 63.836,82.182C63.151,83.2 62.298,84.468 60.616,84.862C60.532,84.883 60.449,84.898 60.367,84.914C60.345,84.917 60.324,84.919 60.302,84.922C60.242,84.933 60.182,84.941 60.123,84.948C60.097,84.95 60.072,84.951 60.046,84.953C59.992,84.958 59.937,84.963 59.883,84.967C59.855,84.968 59.829,84.968 59.802,84.968C59.759,84.97 59.716,84.972 59.674,84.972L59.649,84.972C59.608,84.97 59.568,84.968 59.527,84.968C59.487,84.967 59.448,84.965 59.409,84.963C59.366,84.96 59.325,84.956 59.283,84.953C59.247,84.95 59.211,84.946 59.175,84.943C59.12,84.936 59.066,84.927 59.013,84.919C58.986,84.915 58.959,84.912 58.933,84.907C58.865,84.897 58.799,84.883 58.733,84.869C60.174,86.918 61.923,88.059 63.696,88.059ZM63.696,55.679C60.448,55.679 57.406,59.497 56.047,65.228C56.047,65.228 56.048,65.228 56.048,65.23C56.091,65.257 56.136,65.287 56.181,65.316C56.204,65.331 56.227,65.345 56.25,65.36C56.275,65.375 56.301,65.392 56.327,65.408C56.354,65.425 56.382,65.444 56.41,65.461C56.434,65.474 56.457,65.49 56.481,65.503C56.512,65.522 56.544,65.541 56.576,65.56C56.599,65.574 56.621,65.587 56.644,65.601C56.679,65.621 56.714,65.642 56.749,65.662C56.771,65.674 56.793,65.686 56.816,65.7C56.854,65.72 56.892,65.743 56.931,65.763C56.952,65.775 56.973,65.787 56.994,65.799C57.036,65.821 57.078,65.843 57.121,65.867C57.141,65.878 57.16,65.888 57.179,65.898C57.226,65.922 57.272,65.946 57.32,65.97C57.335,65.978 57.351,65.985 57.366,65.994C57.42,66.021 57.473,66.048 57.528,66.074C57.53,66.076 57.533,66.077 57.536,66.077C57.797,66.206 58.078,66.334 58.378,66.455C58.386,66.458 58.394,66.462 58.402,66.465C58.466,66.491 58.532,66.517 58.598,66.542C58.614,66.549 58.631,66.556 58.648,66.561C58.711,66.585 58.774,66.609 58.839,66.633C58.859,66.64 58.88,66.648 58.901,66.655C58.964,66.679 59.028,66.701 59.092,66.722C59.115,66.73 59.138,66.739 59.162,66.745C59.226,66.768 59.291,66.788 59.357,66.81C59.38,66.817 59.404,66.824 59.427,66.833C59.494,66.853 59.561,66.874 59.63,66.894C59.652,66.901 59.674,66.906 59.697,66.913C59.767,66.933 59.839,66.954 59.911,66.974C59.928,66.978 59.945,66.983 59.962,66.986C60.302,67.079 60.657,67.157 61.026,67.224C61.043,67.227 61.061,67.231 61.078,67.232C61.15,67.246 61.223,67.256 61.296,67.268C61.33,67.273 61.364,67.28 61.399,67.284C61.466,67.294 61.534,67.302 61.601,67.313C61.643,67.318 61.685,67.323 61.726,67.328C61.791,67.337 61.856,67.343 61.922,67.35C61.968,67.355 62.015,67.359 62.061,67.364C62.125,67.371 62.189,67.376 62.252,67.381C62.303,67.384 62.353,67.388 62.404,67.391C62.466,67.395 62.528,67.4 62.591,67.401C62.646,67.405 62.7,67.407 62.755,67.408C62.815,67.412 62.876,67.413 62.937,67.415C62.997,67.417 63.057,67.417 63.117,67.417C63.175,67.419 63.232,67.419 63.29,67.419C63.36,67.419 63.43,67.417 63.501,67.415C63.55,67.413 63.599,67.413 63.649,67.412C63.77,67.408 63.892,67.401 64.015,67.395C64.158,67.384 64.301,67.372 64.446,67.359C64.654,67.338 64.858,67.313 65.06,67.284C65.127,67.273 65.192,67.261 65.259,67.249C65.391,67.229 65.523,67.207 65.652,67.181C65.729,67.166 65.803,67.149 65.879,67.133C65.994,67.108 66.109,67.084 66.221,67.056C66.299,67.038 66.376,67.017 66.453,66.997C66.559,66.968 66.664,66.94 66.768,66.909C66.844,66.887 66.92,66.863 66.995,66.841C67.095,66.809 67.194,66.778 67.292,66.744C67.366,66.72 67.439,66.694 67.511,66.669C67.606,66.634 67.7,66.599 67.793,66.563C67.863,66.535 67.932,66.51 68.001,66.481C68.093,66.445 68.182,66.405 68.271,66.368C68.336,66.339 68.401,66.312 68.465,66.282C68.555,66.243 68.642,66.2 68.729,66.159C68.787,66.132 68.846,66.105 68.904,66.076C68.994,66.031 69.082,65.985 69.169,65.939C69.218,65.913 69.269,65.888 69.317,65.862C69.418,65.808 69.515,65.753 69.611,65.697C69.642,65.679 69.675,65.662 69.705,65.644C69.83,65.572 69.951,65.498 70.067,65.425C70.093,65.408 70.117,65.392 70.143,65.375C70.232,65.319 70.32,65.263 70.404,65.206C70.443,65.181 70.479,65.155 70.516,65.129C70.583,65.083 70.65,65.037 70.714,64.991C70.754,64.964 70.791,64.936 70.83,64.907C70.887,64.866 70.944,64.824 70.997,64.784C71.035,64.755 71.071,64.728 71.106,64.701C71.138,64.675 71.168,64.653 71.198,64.629C69.762,59.176 66.844,55.679 63.696,55.679ZM53.93,71.869C53.93,69.626 54.159,67.442 54.61,65.382L54.61,65.382C56.078,58.656 59.644,54.312 63.696,54.312C67.574,54.312 71.081,58.397 72.631,64.719L72.632,64.719C73.185,66.971 73.465,69.376 73.465,71.869C73.465,76.486 72.491,80.839 70.722,84.124C68.881,87.543 66.386,89.425 63.696,89.425C60.898,89.425 58.335,87.41 56.479,83.75C56.477,83.749 56.475,83.745 56.474,83.744C54.833,80.51 53.93,76.292 53.93,71.869" style="fill:rgb(39,39,36);fill-rule:nonzero;"/>
            </g>
            <g transform="matrix(6.30497,0,0,6.30497,1974.95,2202.96)">
                <path d="M79.042,57.174C80.305,58.597 80.065,60.987 78.506,62.502C78.374,62.632 78.202,62.697 78.03,62.697C77.852,62.697 77.674,62.627 77.54,62.49C77.277,62.218 77.283,61.786 77.553,61.523C78.684,60.423 78.707,58.856 78.02,58.082C77.534,57.536 76.635,57.31 75.834,57.534C74.733,57.843 74.33,58.873 74.287,58.99C74.158,59.345 73.766,59.526 73.411,59.398C73.057,59.268 72.874,58.877 73.003,58.521C73.112,58.223 73.744,56.7 75.465,56.219C76.772,55.851 78.209,56.236 79.042,57.174" style="fill:rgb(39,39,36);fill-rule:nonzero;"/>
            </g>
            <g transform="matrix(6.30497,0,0,6.30497,1974.95,2341.82)">
                <path d="M63.169,46.047C63.175,46.044 63.181,46.039 63.186,46.033C65.075,44.539 70.247,41.09 77.481,41.363C83.888,41.607 88.45,44.636 90.598,46.42C92.112,47.677 92.798,49.607 92.389,51.456C92.231,52.182 91.924,52.845 91.479,53.425C90.486,54.729 88.956,55.434 87.377,55.434C86.566,55.434 85.742,55.248 84.972,54.86C84.355,54.575 83.712,54.314 83.063,54.083C81.183,53.417 79.234,53.01 77.27,52.872C75.688,52.759 74.084,52.822 72.504,53.056C70.822,53.308 69.157,53.755 67.554,54.386C65.298,55.272 62.746,54.275 61.742,52.108C61.711,52.042 61.683,51.973 61.654,51.905C61.653,51.903 61.653,51.902 61.652,51.898C60.825,49.865 61.435,47.515 63.169,46.047" style="fill:rgb(39,39,36);fill-rule:nonzero;"/>
            </g>
            <g transform="matrix(6.30497,0,0,6.30497,1974.95,2364.01)">
                <path d="M72.325,48.183C73.996,47.937 75.692,47.87 77.366,47.99C79.375,48.131 81.369,48.536 83.296,49.199C83.26,48.507 83.1,47.648 82.623,46.79C82.028,45.714 80.576,43.987 79.158,44.325C78.589,44.462 78.195,44.889 77.947,45.244C77.728,44.942 77.18,44.274 76.317,44.117C74.607,43.806 73.292,45.793 73.102,46.08C72.861,46.442 72.339,47.234 72.325,48.183" style="fill:white;fill-rule:nonzero;"/>
            </g>
            <g transform="matrix(6.30497,0,0,6.30497,1974.95,2431.56)">
                <path d="M73.13,41.318C73.992,40.722 75.797,39.728 78.212,39.777C80.199,39.82 81.727,40.541 82.658,41.139C82.976,41.342 83.068,41.764 82.865,42.082C82.661,42.4 82.238,42.492 81.92,42.289C81.137,41.787 79.852,41.18 78.183,41.144C76.151,41.105 74.635,41.939 73.91,42.443C73.791,42.525 73.655,42.564 73.521,42.564C73.304,42.564 73.092,42.461 72.959,42.27C72.744,41.961 72.82,41.534 73.13,41.318" style="fill:rgb(39,39,36);fill-rule:nonzero;"/>
            </g>
        </g>
    </g>
</svg>
