<?xml version="1.0" encoding="UTF-8" standalone="no"?>
<!DOCTYPE svg PUBLIC "-//W3C//DTD SVG 1.1//EN" "http://www.w3.org/Graphics/SVG/1.1/DTD/svg11.dtd">
<svg width="100%" height="100%" viewBox="0 0 356 358" version="1.1" xmlns="http://www.w3.org/2000/svg" xmlns:xlink="http://www.w3.org/1999/xlink" xml:space="preserve" xmlns:serif="http://www.serif.com/" style="fill-rule:evenodd;clip-rule:evenodd;stroke-linejoin:round;stroke-miterlimit:2;">
    <g transform="matrix(1,0,0,1,-3373,-1388)">
        <g>
            <g transform="matrix(6.30497,0,0,6.30497,1974.95,137.861)">
                <path d="M259.683,218.098C259.982,222.75 261.282,227.292 263.549,231.611C264.663,230.832 265.876,230.308 267.106,230.047C266.272,228.405 265.683,226.67 265.358,224.875C265.139,223.67 265.038,222.435 265.059,221.203C265.064,220.955 265.203,220.728 265.423,220.612L269.371,218.514L264.75,218.264C264.413,218.246 264.14,217.984 264.106,217.648C263.81,214.602 263.942,211.545 264.497,208.565C265.061,205.544 265.739,202.383 266.839,200.422C265.729,200.805 264.637,201.372 263.641,202.188C258.909,206.069 259.374,213.308 259.683,218.098ZM261.222,244.062C261.376,244.207 265.032,247.584 269.682,246.241C270.099,246.122 273.787,244.966 275.073,241.405C276.078,238.628 275.405,234.818 273.032,232.736C272.994,232.704 272.957,232.671 272.917,232.64C272.89,232.617 272.861,232.594 272.832,232.571C272.388,232.219 271.894,231.926 271.37,231.706C271.257,231.659 271.144,231.613 271.028,231.574C271.016,231.569 271.002,231.566 270.99,231.562C268.694,230.794 265.913,231.397 263.759,233.165C263.602,233.294 263.395,233.346 263.197,233.308C262.997,233.27 262.825,233.145 262.727,232.967C260.13,228.264 258.646,223.291 258.318,218.185C257.992,213.117 257.5,205.457 262.775,201.131C266.062,198.436 270.196,198.162 273.085,198.407C273.461,198.439 273.741,198.77 273.708,199.146C273.676,199.522 273.346,199.802 272.97,199.769C272.596,199.737 272.2,199.716 271.788,199.707C274.458,202.338 277.479,209.317 277.993,216.289C278.394,221.735 277.282,227.173 274.696,232.461C276.905,234.998 277.441,238.876 276.358,241.87C274.874,245.98 270.852,247.326 270.061,247.555C269.166,247.813 268.303,247.921 267.487,247.921C263.385,247.921 260.433,245.196 260.286,245.058C260.011,244.799 259.997,244.367 260.255,244.092C260.515,243.817 260.947,243.804 261.222,244.062" style="fill:rgb(39,39,36);fill-rule:nonzero;"/>
            </g>
            <g transform="matrix(0,-6.30497,-6.30497,0,4980.49,3302.6)">
                <path d="M266.277,209.174C265.591,209.174 265.036,209.731 265.036,210.416C265.036,211.101 265.591,211.658 266.277,211.658C266.963,211.658 267.519,211.101 267.519,210.416C267.519,209.731 266.963,209.174 266.277,209.174" style="fill:rgb(39,39,36);fill-rule:nonzero;"/>
            </g>
            <g transform="matrix(0,6.30497,6.30497,0,2357.62,-92.4789)">
                <path d="M271.655,209.719C270.969,209.719 270.414,210.276 270.414,210.961C270.414,211.646 270.969,212.203 271.655,212.203C272.341,212.203 272.896,211.646 272.896,210.961C272.896,210.276 272.341,209.719 271.655,209.719" style="fill:rgb(39,39,36);fill-rule:nonzero;"/>
            </g>
            <g transform="matrix(6.30497,0,0,6.30497,1974.95,345.635)">
                <path d="M270.088,207.806C269.403,207.806 268.848,207.25 268.848,206.565C268.848,205.879 269.403,205.323 270.088,205.323C270.775,205.323 271.33,205.879 271.33,206.565C271.33,207.25 270.775,207.806 270.088,207.806" style="fill:rgb(39,39,36);fill-rule:nonzero;"/>
            </g>
            <g transform="matrix(6.30497,0,0,6.30497,1974.95,164.509)">
                <path d="M223.304,213.872C223.603,218.523 224.903,223.066 227.17,227.384C228.283,226.605 229.496,226.081 230.726,225.82C229.893,224.179 229.303,222.444 228.979,220.648C228.76,219.443 228.659,218.208 228.68,216.977C228.685,216.728 228.823,216.502 229.044,216.385L232.992,214.288L228.371,214.038C228.034,214.02 227.761,213.758 227.726,213.422C227.431,210.375 227.563,207.319 228.118,204.339C228.682,201.317 229.36,198.157 230.46,196.195C229.349,196.579 228.258,197.145 227.262,197.962C222.53,201.842 222.994,209.081 223.304,213.872ZM243.995,244.912C246.761,246.932 249.819,246.587 250.69,246.434C252.41,246.13 254.003,245.29 255.309,244.065C254.734,244.123 254.155,244.154 253.579,244.154C252.064,244.154 250.562,243.952 249.124,243.549C244.781,242.332 241.921,239.573 240.322,237.553C240.385,240.526 241.708,243.241 243.995,244.912ZM250.952,240.497C248.047,240.191 245.196,239.346 242.548,238.025C244.103,239.629 246.389,241.363 249.493,242.233C251.797,242.878 254.281,242.96 256.695,242.474C257.18,241.79 257.592,241.037 257.918,240.231C255.608,240.653 253.271,240.743 250.952,240.497ZM226.818,229.081C226.618,229.043 226.445,228.918 226.348,228.741C223.751,224.038 222.267,219.064 221.939,213.959C221.612,208.89 221.12,201.23 226.396,196.905C229.683,194.21 233.817,193.935 236.706,194.181C237.081,194.213 237.362,194.543 237.329,194.919C237.297,195.295 236.967,195.576 236.591,195.543C236.217,195.511 235.821,195.489 235.409,195.481C238.079,198.111 241.099,205.091 241.614,212.062C242.015,217.509 240.903,222.947 238.317,228.234C239.969,230.132 240.686,232.781 240.488,235.249C242.797,236.799 246.424,238.644 251.095,239.139C253.663,239.41 256.254,239.246 258.8,238.652C259.035,238.597 259.283,238.671 259.45,238.847C259.618,239.023 259.679,239.274 259.611,239.507C259.198,240.945 258.542,242.263 257.703,243.41C257.67,243.471 257.629,243.527 257.58,243.576C255.907,245.781 253.55,247.317 250.928,247.78C250.594,247.838 249.988,247.921 249.207,247.921C247.625,247.921 245.333,247.582 243.189,246.015C241.021,244.432 239.603,242.046 239.128,239.361C237.324,242.144 234.35,243.135 233.682,243.328C232.785,243.587 231.922,243.695 231.106,243.695C227.004,243.695 224.054,240.969 223.907,240.831C223.632,240.572 223.618,240.14 223.878,239.865C224.136,239.59 224.568,239.577 224.843,239.836C224.997,239.981 228.651,243.358 233.303,242.015C233.719,241.895 237.408,240.739 238.694,237.179C239.699,234.401 239.026,230.592 236.653,228.51C236.615,228.477 236.577,228.445 236.538,228.413C236.511,228.39 236.482,228.367 236.453,228.344C236.009,227.992 235.515,227.699 234.99,227.479C234.878,227.433 234.765,227.387 234.649,227.347C234.637,227.343 234.623,227.339 234.611,227.335C232.315,226.568 229.534,227.17 227.38,228.939C227.223,229.067 227.016,229.12 226.818,229.081" style="fill:rgb(39,39,36);fill-rule:nonzero;"/>
            </g>
            <g transform="matrix(0,-6.30497,-6.30497,0,4751.12,3073.23)">
                <path d="M229.898,209.175C229.212,209.175 228.656,209.731 228.656,210.416C228.656,211.102 229.212,211.658 229.898,211.658C230.583,211.658 231.139,211.102 231.139,210.416C231.139,209.731 230.583,209.175 229.898,209.175" style="fill:rgb(39,39,36);fill-rule:nonzero;"/>
            </g>
            <g transform="matrix(0,6.30497,6.30497,0,2128.25,136.891)">
                <path d="M235.276,209.719C234.59,209.719 234.034,210.276 234.034,210.961C234.034,211.646 234.59,212.203 235.276,212.203C235.961,212.203 236.517,211.646 236.517,210.961C236.517,210.276 235.961,209.719 235.276,209.719" style="fill:rgb(39,39,36);fill-rule:nonzero;"/>
            </g>
            <g transform="matrix(6.30497,0,0,6.30497,1974.95,345.635)">
                <path d="M233.709,207.806C233.024,207.806 232.469,207.25 232.469,206.565C232.469,205.879 233.024,205.323 233.709,205.323C234.396,205.323 234.951,205.879 234.951,206.565C234.951,207.25 234.396,207.806 233.709,207.806" style="fill:rgb(39,39,36);fill-rule:nonzero;"/>
            </g>
            <g transform="matrix(6.30497,0,0,6.30497,1974.95,299.682)">
                <path d="M253.331,213.66C252.535,214.189 251.592,214.445 250.613,214.445C249.065,214.445 247.426,213.805 246.125,212.589C245.85,212.332 245.835,211.899 246.093,211.623C246.351,211.348 246.783,211.334 247.06,211.592C248.722,213.148 251.042,213.54 252.574,212.522C253.635,211.817 254.518,210.339 254.097,209.18C253.897,208.628 253.398,208.136 252.728,207.83C251.766,207.391 250.583,207.379 249.479,207.798C249.127,207.933 248.732,207.755 248.597,207.403C248.464,207.05 248.64,206.655 248.994,206.521C250.437,205.972 252.005,205.996 253.297,206.588C254.31,207.051 255.052,207.806 255.381,208.712C256.065,210.587 254.835,212.661 253.331,213.66" style="fill:rgb(39,39,36);fill-rule:nonzero;"/>
            </g>
            <g transform="matrix(6.30497,0,0,6.30497,1974.95,486.994)">
                <path d="M238.867,191.136C239.244,191.093 239.581,191.36 239.625,191.734C239.741,192.725 240.177,194.62 241.781,196.185C244.173,198.518 247.333,198.282 247.943,198.21C248.317,198.168 248.657,198.436 248.7,198.81C248.744,199.186 248.476,199.524 248.1,199.568C247.934,199.587 247.608,199.616 247.169,199.616C245.71,199.616 243.006,199.288 240.828,197.163C238.921,195.304 238.405,193.064 238.267,191.895C238.223,191.52 238.491,191.18 238.867,191.136" style="fill:rgb(39,39,36);fill-rule:nonzero;"/>
            </g>
        </g>
    </g>
</svg>
