<?xml version="1.0" encoding="UTF-8" standalone="no"?>
<!DOCTYPE svg PUBLIC "-//W3C//DTD SVG 1.1//EN" "http://www.w3.org/Graphics/SVG/1.1/DTD/svg11.dtd">
<svg width="100%" height="100%" viewBox="0 0 289 390" version="1.1" xmlns="http://www.w3.org/2000/svg" xmlns:xlink="http://www.w3.org/1999/xlink" xml:space="preserve" xmlns:serif="http://www.serif.com/" style="fill-rule:evenodd;clip-rule:evenodd;stroke-linejoin:round;stroke-miterlimit:2;">
    <g transform="matrix(1,0,0,1,-2881,-1844)">
        <g>
            <g transform="matrix(6.30497,0,0,6.30497,1974.95,1019.1)">
                <path d="M179.302,132.274C182.865,132.274 185.764,135.173 185.764,138.737L185.764,167.577C185.764,171.141 182.865,174.04 179.302,174.04C175.738,174.04 172.839,171.141 172.839,167.577L172.839,138.737C172.839,135.173 175.738,132.274 179.302,132.274ZM179.302,175.407C183.619,175.407 187.131,171.894 187.131,167.577L187.131,138.737C187.131,134.418 183.619,130.908 179.302,130.908C174.985,130.908 171.472,134.418 171.472,138.737L171.472,167.577C171.472,171.894 174.985,175.407 179.302,175.407" style="fill:rgb(39,39,36);fill-rule:nonzero;"/>
            </g>
            <g transform="matrix(6.30497,0,0,6.30497,1974.95,1035.29)">
                <path d="M183.34,165.496C182.725,164.482 182.213,163.422 181.786,162.345C181.374,161.265 181.051,160.16 180.875,159.046C180.776,158.49 180.726,157.932 180.699,157.375C180.675,156.816 180.68,156.259 180.726,155.704C180.824,154.589 181.044,153.504 181.393,152.332L181.957,150.478C182.153,149.821 182.341,149.12 182.498,148.384C182.799,146.898 182.882,145.271 182.688,143.751C182.508,142.224 182.093,140.732 181.509,139.337C180.932,137.936 180.161,136.642 179.317,135.44L179.305,135.423C178.49,134.263 176.89,133.983 175.731,134.797C174.571,135.612 174.291,137.211 175.106,138.371C175.149,138.431 175.196,138.494 175.243,138.549C175.97,139.413 176.573,140.344 177.048,141.32C177.515,142.299 177.846,143.322 178,144.371C178.171,145.425 178.128,146.426 177.942,147.49C177.839,148.027 177.696,148.582 177.525,149.17C177.349,149.766 177.156,150.383 176.965,151.047C176.579,152.364 176.247,153.83 176.117,155.303C175.974,156.779 176.02,158.275 176.213,159.729C176.233,159.914 176.263,160.093 176.293,160.274C176.324,160.455 176.35,160.636 176.386,160.816C176.457,161.173 176.524,161.533 176.614,161.885L176.741,162.415L176.886,162.937C176.978,163.289 177.096,163.628 177.204,163.973C177.313,164.316 177.44,164.651 177.558,164.991L177.949,165.988L178.378,166.966L178.829,167.927C179.43,169.21 180.959,169.764 182.242,169.161C183.525,168.559 184.078,167.032 183.477,165.748C183.438,165.666 183.395,165.587 183.351,165.51L183.34,165.496" style="fill:rgb(39,39,36);fill-rule:nonzero;"/>
            </g>
            <g transform="matrix(6.30497,0,0,6.30497,1974.95,1019.1)">
                <path d="M151.625,132.274C155.189,132.274 158.088,135.173 158.088,138.737L158.088,167.577C158.088,171.141 155.189,174.04 151.625,174.04C148.062,174.04 145.162,171.141 145.162,167.577L145.162,138.737C145.162,135.173 148.062,132.274 151.625,132.274ZM151.625,175.407C155.942,175.407 159.454,171.894 159.454,167.577L159.454,138.737C159.454,134.418 155.942,130.908 151.625,130.908C147.308,130.908 143.796,134.418 143.796,138.737L143.796,167.577C143.796,171.894 147.308,175.407 151.625,175.407" style="fill:rgb(39,39,36);fill-rule:nonzero;"/>
            </g>
            <g transform="matrix(6.30497,0,0,6.30497,1974.95,1035.29)">
                <path d="M155.664,165.496C155.05,164.482 154.536,163.422 154.11,162.345C153.698,161.265 153.375,160.16 153.198,159.046C153.099,158.49 153.049,157.932 153.023,157.375C152.999,156.816 153.004,156.259 153.05,155.704C153.148,154.589 153.368,153.504 153.716,152.332L154.28,150.478C154.476,149.821 154.664,149.12 154.821,148.384C155.122,146.898 155.207,145.271 155.012,143.751C154.831,142.224 154.416,140.732 153.832,139.337C153.256,137.936 152.485,136.642 151.641,135.44L151.628,135.423C150.814,134.263 149.214,133.983 148.055,134.797C146.895,135.612 146.615,137.211 147.429,138.371C147.472,138.431 147.52,138.494 147.566,138.549C148.294,139.413 148.897,140.344 149.373,141.32C149.838,142.299 150.17,143.322 150.323,144.371C150.493,145.425 150.451,146.426 150.265,147.49C150.163,148.027 150.02,148.582 149.848,149.17C149.673,149.766 149.48,150.383 149.289,151.047C148.903,152.364 148.57,153.83 148.44,155.303C148.297,156.779 148.343,158.275 148.537,159.729C148.558,159.914 148.586,160.093 148.617,160.274C148.647,160.455 148.674,160.636 148.708,160.816C148.782,161.173 148.848,161.533 148.938,161.885L149.065,162.415L149.21,162.937C149.302,163.289 149.421,163.628 149.528,163.973C149.637,164.316 149.763,164.651 149.88,164.991L150.273,165.988L150.701,166.966L151.152,167.927C151.754,169.21 153.282,169.764 154.566,169.161C155.849,168.559 156.402,167.032 155.8,165.748C155.761,165.666 155.719,165.587 155.673,165.51L155.664,165.496" style="fill:rgb(39,39,36);fill-rule:nonzero;"/>
            </g>
            <g transform="matrix(6.30497,0,0,6.30497,1974.95,1268.95)">
                <path d="M167.264,135.378C169.096,135.378 170.775,134.094 171.305,132.259C171.409,131.895 171.199,131.517 170.837,131.413C170.475,131.309 170.095,131.517 169.991,131.88C169.617,133.178 168.419,134.073 167.135,134.008C166.039,133.954 165.065,133.217 164.654,132.134C164.52,131.782 164.126,131.605 163.773,131.74C163.42,131.873 163.243,132.267 163.377,132.621C163.981,134.21 165.429,135.291 167.065,135.373C167.132,135.377 167.198,135.378 167.264,135.378" style="fill:rgb(39,39,36);fill-rule:nonzero;"/>
            </g>
            <g transform="matrix(6.30497,0,0,6.30497,1974.95,1415.79)">
                <path d="M174.597,129.623C174.918,129.623 175.255,129.584 175.603,129.491C176.432,129.274 177.631,128.67 178.634,127.028C180.605,123.806 179.777,117.922 175.789,115.449C174.945,114.924 172.719,113.774 170.311,114.444C168.594,114.923 167.609,116.088 166.657,117.213C165.713,118.329 164.822,119.383 163.21,119.844C162.386,120.082 161.498,120.126 160.574,119.981C160.201,119.923 159.852,120.177 159.793,120.55C159.734,120.922 159.988,121.273 160.361,121.331C161.484,121.508 162.569,121.45 163.587,121.158C165.597,120.582 166.715,119.262 167.7,118.095C168.594,117.039 169.366,116.127 170.676,115.761C172.564,115.237 174.377,116.18 175.068,116.609C178.323,118.63 179.109,123.635 177.469,126.316C176.702,127.569 175.842,128.015 175.255,128.171C174.216,128.444 173.288,128.003 172.306,127.539C171.999,127.394 171.683,127.243 171.363,127.117C168.807,126.102 165.62,126.416 161.89,128.051C161.544,128.202 161.387,128.605 161.539,128.952C161.69,129.297 162.093,129.454 162.439,129.303C165.822,127.821 168.655,127.511 170.859,128.386C171.137,128.497 171.419,128.63 171.72,128.774C172.573,129.177 173.514,129.623 174.597,129.623" style="fill:rgb(39,39,36);fill-rule:nonzero;"/>
            </g>
            <g transform="matrix(1.61176,6.09549,6.09549,-1.61176,2046.8,1322.87)">
                <path d="M173.329,119.094C175.95,119.094 178.075,120.246 178.075,121.667C178.075,123.088 175.951,124.239 173.329,124.24C170.709,124.24 168.584,123.088 168.583,121.667C168.584,120.247 170.707,119.095 173.329,119.094" style="fill:rgb(39,39,36);fill-rule:nonzero;"/>
            </g>
            <g transform="matrix(0,6.30497,6.30497,0,2160.88,1233.46)">
                <path d="M150.903,120.114C151.619,120.114 152.202,120.696 152.202,121.413C152.202,122.131 151.619,122.712 150.903,122.712C150.186,122.712 149.603,122.131 149.603,121.413C149.603,120.696 150.186,120.114 150.903,120.114" style="fill:rgb(39,39,36);fill-rule:nonzero;"/>
            </g>
            <g transform="matrix(0,6.30497,6.30497,0,2130.89,1195.86)">
                <path d="M151.506,125.474C152.223,125.474 152.804,126.056 152.804,126.773C152.804,127.491 152.223,128.072 151.506,128.072C150.788,128.072 150.208,127.491 150.208,126.773C150.208,126.056 150.788,125.474 151.506,125.474" style="fill:rgb(39,39,36);fill-rule:nonzero;"/>
            </g>
            <g transform="matrix(0,6.30497,6.30497,0,2115.86,1235.38)">
                <path d="M147.18,123.532C147.897,123.532 148.478,124.113 148.478,124.831C148.478,125.548 147.897,126.13 147.18,126.13C146.462,126.13 145.882,125.548 145.882,124.831C145.882,124.113 146.462,123.532 147.18,123.532" style="fill:rgb(39,39,36);fill-rule:nonzero;"/>
            </g>
            <g transform="matrix(0,6.30497,6.30497,0,2376.25,986.291)">
                <path d="M187.584,122.636C188.301,122.636 188.882,123.218 188.882,123.936C188.882,124.653 188.301,125.234 187.584,125.234C186.866,125.234 186.284,124.653 186.284,123.936C186.284,123.218 186.866,122.636 187.584,122.636" style="fill:rgb(39,39,36);fill-rule:nonzero;"/>
            </g>
            <g transform="matrix(0,6.30497,6.30497,0,2346.27,948.694)">
                <path d="M188.186,127.996C188.903,127.996 189.486,128.576 189.486,129.294C189.486,130.011 188.903,130.592 188.186,130.592C187.468,130.592 186.888,130.011 186.888,129.294C186.888,128.576 187.468,127.996 188.186,127.996" style="fill:rgb(39,39,36);fill-rule:nonzero;"/>
            </g>
            <g transform="matrix(0,6.30497,6.30497,0,2331.24,988.219)">
                <path d="M183.86,126.052C184.577,126.052 185.16,126.635 185.16,127.353C185.16,128.07 184.577,128.651 183.86,128.651C183.142,128.651 182.561,128.07 182.561,127.353C182.561,126.635 183.142,126.052 183.86,126.052" style="fill:rgb(39,39,36);fill-rule:nonzero;"/>
            </g>
        </g>
    </g>
</svg>
