<?xml version="1.0" encoding="UTF-8" standalone="no"?>
<!DOCTYPE svg PUBLIC "-//W3C//DTD SVG 1.1//EN" "http://www.w3.org/Graphics/SVG/1.1/DTD/svg11.dtd">
<svg width="100%" height="100%" viewBox="0 0 343 304" version="1.1" xmlns="http://www.w3.org/2000/svg" xmlns:xlink="http://www.w3.org/1999/xlink" xml:space="preserve" xmlns:serif="http://www.serif.com/" style="fill-rule:evenodd;clip-rule:evenodd;stroke-linejoin:round;stroke-miterlimit:2;">
    <g transform="matrix(1,0,0,1,-2853,-904)">
        <g>
            <g transform="matrix(6.30497,0,0,6.30497,1974.95,-952.644)">
                <path d="M176.034,311.684L176.034,311.685C176.251,315.452 176.789,319.266 177.634,323.036C178.306,322.704 178.998,322.405 179.7,322.145C179.741,322.13 179.78,322.118 179.821,322.103C179.334,319.193 179.129,316.721 179.039,314.869C178.803,310.051 178.646,305.904 180.767,303.727C181.029,303.461 181.825,302.666 182.954,302.567C184.628,302.42 185.93,303.896 186.572,304.627C186.88,304.976 187.158,305.388 187.413,305.852C186.111,307.019 184.809,308.186 183.506,309.353C183.255,309.578 183.369,309.993 183.701,310.06C185.503,310.417 187.305,310.774 189.109,311.133C189.803,314.772 189.963,318.797 189.994,321.06C190.032,321.065 190.068,321.069 190.105,321.075C190.79,321.18 191.472,321.32 192.14,321.492C192.155,317.721 191.88,303.24 186.887,298.467C185.881,297.506 184.008,295.716 181.644,295.891C180.571,295.97 179.531,296.439 178.553,297.285C175.357,300.043 175.685,305.698 176.034,311.684ZM177.66,296.25C178.864,295.209 180.171,294.629 181.543,294.528C184.512,294.31 186.753,296.45 187.833,297.481C190.368,299.903 192.089,304.692 192.946,311.714C193.606,317.097 193.508,321.88 193.496,322.408C193.49,322.621 193.385,322.82 193.213,322.945C193.039,323.07 192.818,323.107 192.613,323.044C191.732,322.776 190.818,322.567 189.895,322.425C188.783,322.253 187.644,322.178 186.508,322.204C184.355,322.254 182.225,322.665 180.176,323.426C179.254,323.768 178.352,324.179 177.496,324.649C177.393,324.705 177.281,324.733 177.168,324.733C177.072,324.733 176.978,324.713 176.89,324.674C176.695,324.587 176.551,324.415 176.502,324.207C175.524,320.083 174.908,315.896 174.669,311.763C174.301,305.431 173.953,299.45 177.66,296.25" style="fill:rgb(39,39,36);fill-rule:nonzero;"/>
            </g>
            <g transform="matrix(6.30497,0,0,6.30497,1974.95,-952.644)">
                <path d="M140.844,311.684L140.844,311.685C141.061,315.453 141.599,319.268 142.445,323.036C143.116,322.704 143.808,322.405 144.511,322.145C144.551,322.13 144.591,322.118 144.631,322.103C144.145,319.193 143.94,316.721 143.848,314.869C143.613,310.051 143.456,305.904 145.577,303.727C145.839,303.461 146.635,302.666 147.764,302.567C149.438,302.42 150.74,303.896 151.382,304.627C151.69,304.976 151.968,305.388 152.223,305.852C150.921,307.019 149.619,308.186 148.316,309.353C148.065,309.578 148.179,309.993 148.51,310.06C150.313,310.417 152.115,310.774 153.919,311.133C154.614,314.772 154.775,318.797 154.805,321.06C154.842,321.065 154.879,321.069 154.915,321.075C155.6,321.18 156.282,321.32 156.951,321.492C156.967,317.721 156.694,303.242 151.697,298.467C150.69,297.506 148.818,295.716 146.455,295.891C145.382,295.97 144.342,296.439 143.364,297.285C140.168,300.043 140.496,305.698 140.844,311.684ZM142.47,296.25C143.675,295.209 144.982,294.629 146.354,294.528C149.326,294.31 151.564,296.45 152.644,297.481C155.178,299.903 156.899,304.692 157.757,311.714C158.416,317.101 158.319,321.881 158.306,322.408C158.301,322.621 158.196,322.82 158.023,322.945C157.849,323.07 157.627,323.107 157.424,323.044C156.542,322.776 155.628,322.568 154.706,322.425C153.594,322.253 152.453,322.178 151.318,322.204C149.166,322.254 147.036,322.665 144.986,323.426C144.065,323.768 143.163,324.179 142.306,324.649C142.204,324.705 142.091,324.733 141.978,324.733C141.883,324.733 141.789,324.713 141.7,324.674C141.505,324.587 141.362,324.415 141.313,324.207C140.335,320.084 139.718,315.897 139.48,311.763C139.112,305.431 138.764,299.45 142.47,296.25" style="fill:rgb(39,39,36);fill-rule:nonzero;"/>
            </g>
            <g transform="matrix(6.30497,0,0,6.30497,1974.95,-665.566)">
                <path d="M152.362,292.312C153.155,293.192 154.303,293.694 156.329,293.93C161.042,294.482 164.051,292.839 167.502,292.07C169.899,291.533 173.266,291.252 177.639,292.289C179.567,292.746 181.586,291.766 182.32,289.926C182.348,289.859 182.373,289.791 182.397,289.721C182.648,288.993 182.683,288.306 182.621,287.72C182.517,286.753 182.047,285.863 181.33,285.206C179.912,283.907 177.299,281.815 173.753,280.433C172.573,279.971 171.288,279.591 169.911,279.343C168.79,279.141 167.608,279.028 166.367,279.035C165.744,279.039 165.088,279.071 164.411,279.136C163.362,279.235 162.266,279.408 161.172,279.659C156.85,280.648 152.574,282.836 151.472,286.402C150.996,287.942 150.84,290.621 152.362,292.312" style="fill:rgb(39,39,36);fill-rule:nonzero;"/>
            </g>
            <g transform="matrix(6.30497,0,0,6.30497,1974.95,-713.67)">
                <path d="M168.877,290.158C168.877,292.372 170.056,294.168 171.508,294.168C172.962,294.168 174.141,292.372 174.141,290.158C174.141,289.39 173.999,288.672 173.753,288.062C172.573,287.601 171.288,287.22 169.911,286.972C169.282,287.705 168.877,288.86 168.877,290.158" style="fill:white;fill-rule:nonzero;"/>
            </g>
            <g transform="matrix(6.30497,0,0,6.30497,1974.95,-714.973)">
                <path d="M160.378,290.365C160.378,292.579 161.555,294.375 163.009,294.375C164.461,294.375 165.639,292.579 165.639,290.365C165.639,288.937 165.149,287.683 164.411,286.972C163.362,287.071 162.266,287.244 161.172,287.495C160.682,288.223 160.378,289.239 160.378,290.365" style="fill:white;fill-rule:nonzero;"/>
            </g>
            <g transform="matrix(6.30497,0,0,6.30497,1974.95,-554.685)">
                <path d="M163.492,279.462C163.598,279.462 163.706,279.437 163.807,279.385C165.425,278.543 167.242,278.045 169.06,277.944C170.955,277.838 172.89,278.161 174.653,278.876C175.002,279.018 175.402,278.85 175.543,278.5C175.685,278.15 175.516,277.752 175.168,277.61C173.218,276.819 171.081,276.463 168.985,276.58C166.974,276.691 164.966,277.242 163.176,278.172C162.841,278.346 162.711,278.759 162.885,279.093C163.007,279.328 163.245,279.462 163.492,279.462" style="fill:rgb(39,39,36);fill-rule:nonzero;"/>
            </g>
        </g>
    </g>
</svg>
