<?xml version="1.0" encoding="UTF-8" standalone="no"?>
<!DOCTYPE svg PUBLIC "-//W3C//DTD SVG 1.1//EN" "http://www.w3.org/Graphics/SVG/1.1/DTD/svg11.dtd">
<svg width="100%" height="100%" viewBox="0 0 305 379" version="1.1" xmlns="http://www.w3.org/2000/svg" xmlns:xlink="http://www.w3.org/1999/xlink" xml:space="preserve" xmlns:serif="http://www.serif.com/" style="fill-rule:evenodd;clip-rule:evenodd;stroke-linejoin:round;stroke-miterlimit:2;">
    <g transform="matrix(1,0,0,1,-3451,-866)">
        <g>
            <g transform="matrix(6.30497,0,0,6.30497,1974.95,-994.723)">
                <path d="M258.478,317.467L258.477,317.467L258.478,317.467ZM265.156,297.794C266.253,297.794 267.422,298.397 268.631,299.587C270.531,301.458 271.703,304.008 271.933,306.768C272.15,309.364 272.393,311.907 272.656,314.327L272.67,314.451C273.034,317.791 273.216,319.467 273.351,320.145C273.469,320.733 273.577,321.199 273.671,321.61C273.912,322.65 274.021,323.125 273.896,323.875C273.662,325.277 272.663,327.085 271.026,327.74C268.91,328.585 266.59,327.126 265.476,326.425C262.531,324.572 260.281,321.325 259.136,317.281C258.559,315.241 258.301,313.067 258.39,310.993C258.478,308.897 258.928,306.481 259.625,304.364C260.957,300.295 262.92,297.902 265.008,297.798C265.056,297.795 265.105,297.794 265.156,297.794ZM269.668,329.361C270.28,329.361 270.908,329.259 271.534,329.009C273.673,328.153 274.938,325.927 275.244,324.1C275.413,323.082 275.26,322.412 275.003,321.303C274.911,320.901 274.805,320.446 274.692,319.877C274.568,319.258 274.376,317.498 274.028,314.303L274.014,314.179C273.753,311.771 273.512,309.239 273.295,306.654C273.039,303.569 271.722,300.714 269.59,298.614C268.042,297.089 266.477,296.356 264.939,296.433C261.265,296.616 259.218,301.213 258.326,303.937C257.592,306.169 257.119,308.719 257.025,310.934C256.929,313.151 257.204,315.475 257.821,317.653C259.058,322.022 261.518,325.548 264.746,327.581C265.679,328.168 267.577,329.361 269.668,329.361" style="fill:rgb(39,39,36);fill-rule:nonzero;"/>
            </g>
            <g transform="matrix(6.30497,0,0,6.30497,1974.95,-1001.14)">
                <path d="M258.478,318.484C258.48,318.486 258.48,318.489 258.482,318.491C259.859,321.351 261.928,323.194 263.501,324.293C264.348,324.884 265.409,325.125 266.412,324.87C266.767,324.78 267.136,324.626 267.495,324.378C268.662,323.57 269.239,322.092 268.956,320.623C268.155,318.633 267.341,316.231 266.706,313.46C264.446,313.528 262.869,312.763 262.811,312.066C262.755,311.391 264.082,310.45 266.053,310.052C266.055,310.064 266.058,310.078 266.06,310.09C265.756,308.125 265.602,306.306 265.537,304.669C265.513,304.045 265.298,303.434 264.881,302.969C264.608,302.663 264.266,302.404 263.846,302.274C261.707,301.609 259.242,304.814 258.976,305.168C258.227,307.445 257.795,309.915 257.708,311.981C257.614,314.154 257.882,316.378 258.478,318.484" style="fill:rgb(39,39,36);fill-rule:nonzero;"/>
            </g>
            <g transform="matrix(6.30497,0,0,6.30497,1974.95,-1010.5)">
                <path d="M236.858,318.719L236.856,318.719L236.858,318.719ZM243.536,299.046C244.634,299.046 245.803,299.648 247.012,300.839C248.91,302.71 250.084,305.26 250.314,308.02C250.531,310.624 250.774,313.167 251.037,315.579L251.051,315.703C251.414,319.042 251.597,320.718 251.732,321.397C251.85,321.985 251.958,322.451 252.052,322.862C252.292,323.902 252.402,324.377 252.277,325.127C252.041,326.529 251.044,328.337 249.407,328.992C247.29,329.836 244.971,328.378 243.855,327.677C240.911,325.824 238.66,322.576 237.515,318.532L237.515,318.532C236.938,316.493 236.68,314.319 236.77,312.244C236.859,310.148 237.309,307.733 238.004,305.615C239.338,301.546 241.299,299.154 243.387,299.049C243.437,299.047 243.486,299.046 243.536,299.046ZM248.047,330.613C248.661,330.613 249.288,330.511 249.914,330.261C252.053,329.405 253.319,327.179 253.625,325.352C253.794,324.334 253.64,323.664 253.384,322.555C253.292,322.153 253.186,321.697 253.073,321.129C252.949,320.51 252.757,318.75 252.409,315.555L252.395,315.431C252.134,313.031 251.893,310.499 251.676,307.906C251.418,304.821 250.102,301.965 247.97,299.865C246.423,298.341 244.86,297.607 243.319,297.684C239.646,297.867 237.599,302.465 236.706,305.189C235.973,307.42 235.498,309.971 235.405,312.186C235.31,314.403 235.585,316.727 236.202,318.905C237.439,323.274 239.897,326.8 243.126,328.833C244.058,329.419 245.958,330.613 248.047,330.613" style="fill:rgb(39,39,36);fill-rule:nonzero;"/>
            </g>
            <g transform="matrix(6.30497,0,0,6.30497,1974.95,-1016.92)">
                <path d="M236.858,319.735C236.859,319.737 236.859,319.741 236.861,319.742C238.238,322.602 240.307,324.445 241.88,325.544C242.728,326.135 243.788,326.376 244.791,326.121C245.146,326.031 245.515,325.877 245.874,325.629C247.041,324.821 247.618,323.344 247.335,321.874C246.534,319.884 245.72,317.482 245.085,314.711C242.825,314.78 241.248,314.014 241.19,313.317C241.134,312.642 242.461,311.701 244.432,311.303C244.434,311.315 244.438,311.329 244.439,311.341C244.135,309.376 243.981,307.557 243.916,305.92C243.893,305.296 243.677,304.685 243.26,304.22C242.987,303.915 242.645,303.655 242.225,303.525C240.086,302.86 237.621,306.065 237.355,306.419C236.606,308.696 236.174,311.166 236.087,313.232C235.993,315.405 236.261,317.629 236.858,319.735" style="fill:rgb(39,39,36);fill-rule:nonzero;"/>
            </g>
            <g transform="matrix(6.30497,0,0,6.30497,1974.95,-812.314)">
                <path d="M261.955,306.122C262.621,306.122 263.255,305.94 263.774,305.473C264.319,304.982 264.647,304.25 264.721,303.355C264.832,302.017 264.253,300.694 263.171,299.815C261.929,298.808 260.889,297.604 260.081,296.237C259.181,294.716 258.598,293.054 258.347,291.297C258.294,290.924 257.949,290.663 257.575,290.717C257.201,290.77 256.941,291.116 256.994,291.49C257.269,293.425 257.913,295.257 258.904,296.933C259.796,298.439 260.942,299.766 262.309,300.876C263.04,301.47 263.433,302.354 263.359,303.242C263.328,303.62 263.216,304.137 262.86,304.456C261.982,305.247 259.873,304.306 258.726,303.421C257.506,302.48 256.944,301.212 256.688,300.314C256.586,299.951 256.208,299.741 255.844,299.844C255.482,299.948 255.27,300.326 255.374,300.689C255.687,301.784 256.377,303.335 257.891,304.504C258.788,305.196 260.453,306.122 261.955,306.122" style="fill:rgb(39,39,36);fill-rule:nonzero;"/>
            </g>
            <g transform="matrix(6.30497,0,0,6.30497,1974.95,-667.269)">
                <path d="M236.921,281.574C237.122,282.073 237.31,282.578 237.464,283.094C238.86,287.808 241.738,291.833 245.528,294.672C246.737,295.581 248.04,296.366 249.419,297.016C251.695,298.088 254.172,298.789 256.767,299.04C256.893,299.052 257.02,299.064 257.146,299.073C258.757,299.202 260.354,299.153 261.916,298.939C264.658,298.567 267.288,297.687 269.68,296.373C271.009,295.644 272.263,294.781 273.423,293.795C275.772,291.8 277.73,289.306 279.115,286.414C280.272,284.359 280.178,281.927 278.891,280.267C278.437,279.679 277.897,279.273 277.381,278.991C276.459,278.485 275.321,278.627 274.54,279.331C273.596,280.182 272.154,281.323 270.261,282.331C269.417,282.782 268.484,283.205 267.466,283.564C266.629,283.861 265.734,284.114 264.784,284.302C264.01,284.456 263.2,284.567 262.353,284.625C261.663,284.673 260.988,284.681 260.332,284.654C259.104,284.61 257.935,284.444 256.833,284.191C255.277,283.834 253.852,283.301 252.568,282.679C251.491,282.158 250.514,281.576 249.643,280.979C248.283,280.048 247.181,279.088 246.363,278.291C245.418,277.368 244.849,276.662 244.697,276.468C243.03,274.771 240.331,274.578 238.44,276.02C236.728,277.325 236.133,279.623 236.921,281.574" style="fill:rgb(39,39,36);fill-rule:nonzero;"/>
            </g>
            <g transform="matrix(6.30497,0,0,6.30497,1974.95,-734.803)">
                <path d="M244.46,294.649C245.478,295.49 247.39,294.851 248.731,293.225C249.135,292.733 249.441,292.208 249.643,291.691C248.283,290.759 247.181,289.799 246.363,289.002C245.897,289.297 245.444,289.697 245.041,290.185C243.701,291.812 243.44,293.811 244.46,294.649" style="fill:white;fill-rule:nonzero;"/>
            </g>
            <g transform="matrix(6.30497,0,0,6.30497,1974.95,-577.233)">
                <path d="M245.528,280.392C246.737,281.3 248.04,282.086 249.419,282.735C249.643,282.537 249.858,282.314 250.06,282.069C251.399,280.443 251.66,278.444 250.641,277.605C249.622,276.765 247.711,277.404 246.37,279.03C246.009,279.467 245.727,279.931 245.528,280.392" style="fill:white;fill-rule:nonzero;"/>
            </g>
            <g transform="matrix(6.30497,0,0,6.30497,1974.95,-585.71)">
                <path d="M268.971,282.712C269.193,282.982 269.432,283.224 269.68,283.438C271.009,282.708 272.263,281.845 273.423,280.86C273.232,280.457 272.975,280.054 272.661,279.671C271.32,278.046 269.408,277.407 268.39,278.248C267.37,279.086 267.632,281.085 268.971,282.712" style="fill:white;fill-rule:nonzero;"/>
            </g>
            <g transform="matrix(6.30497,0,0,6.30497,1974.95,-665.587)">
                <path d="M260.281,285.756C260.441,287.857 261.641,289.478 262.956,289.377C264.273,289.275 265.209,287.49 265.047,285.39C265.01,284.908 264.919,284.451 264.784,284.036C264.01,284.189 263.2,284.3 262.353,284.358C261.663,284.406 260.988,284.415 260.332,284.387C260.264,284.816 260.243,285.277 260.281,285.756" style="fill:white;fill-rule:nonzero;"/>
            </g>
            <g transform="matrix(6.30497,0,0,6.30497,1974.95,-682.207)">
                <path d="M254.045,290.968C255.357,291.101 256.594,289.509 256.808,287.413C256.837,287.122 256.845,286.837 256.833,286.56C255.277,286.203 253.852,285.67 252.568,285.049C252.304,285.59 252.12,286.232 252.05,286.931C251.838,289.027 252.732,290.835 254.045,290.968" style="fill:white;fill-rule:nonzero;"/>
            </g>
            <g transform="matrix(6.30497,0,0,6.30497,1974.95,-539.534)">
                <path d="M257.132,278.668C257.136,278.717 257.141,278.765 257.146,278.813C258.757,278.943 260.354,278.893 261.916,278.68C261.914,278.555 261.909,278.429 261.899,278.301C261.738,276.199 260.539,274.578 259.223,274.681C257.906,274.781 256.97,276.567 257.132,278.668" style="fill:white;fill-rule:nonzero;"/>
            </g>
            <g transform="matrix(6.30497,0,0,6.30497,1974.95,-681.432)">
                <path d="M268.636,289.185C269.976,290.811 271.889,291.45 272.907,290.609C273.925,289.771 273.666,287.772 272.326,286.145C271.711,285.399 270.975,284.861 270.261,284.577C269.417,285.028 268.484,285.452 267.466,285.811C267.307,286.783 267.717,288.071 268.636,289.185" style="fill:white;fill-rule:nonzero;"/>
            </g>
            <g transform="matrix(6.30497,0,0,6.30497,1974.95,-776.314)">
                <path d="M281.681,298.193C281.71,298.193 281.738,298.191 281.767,298.188C282.141,298.141 282.407,297.8 282.361,297.425C282.294,296.891 281.946,295.053 280.248,293.849C278.968,292.941 277.627,292.883 276.942,292.929C276.566,292.954 276.281,293.28 276.307,293.657C276.332,294.033 276.655,294.316 277.035,294.293C277.537,294.259 278.523,294.301 279.457,294.964C280.699,295.845 280.955,297.199 281.005,297.594C281.047,297.94 281.341,298.193 281.681,298.193" style="fill:rgb(39,39,36);fill-rule:nonzero;"/>
            </g>
            <g transform="matrix(6.30497,0,0,6.30497,1974.95,-816.384)">
                <path d="M234.898,301.763C234.92,301.763 234.944,301.762 234.967,301.76C235.342,301.722 235.616,301.387 235.578,301.011C235.561,300.836 235.441,299.266 236.699,298.175C237.927,297.109 239.434,297.412 239.601,297.45C239.97,297.533 240.334,297.303 240.418,296.934C240.502,296.566 240.271,296.2 239.904,296.117C239.516,296.03 237.503,295.668 235.804,297.143C234.025,298.686 234.193,300.901 234.218,301.149C234.254,301.501 234.551,301.763 234.898,301.763" style="fill:rgb(39,39,36);fill-rule:nonzero;"/>
            </g>
            <g transform="matrix(6.30497,0,0,6.30497,1974.95,-482.587)">
                <path d="M257.143,273.978C258.646,273.978 260.156,273.749 261.598,273.296C261.958,273.183 262.158,272.799 262.046,272.439C261.933,272.079 261.55,271.879 261.19,271.992C259.208,272.614 257.088,272.771 255.057,272.447C253.369,272.177 251.765,271.591 250.287,270.706C249.964,270.511 249.544,270.616 249.351,270.94C249.156,271.264 249.26,271.683 249.585,271.877C251.211,272.853 252.979,273.499 254.841,273.796C255.6,273.917 256.37,273.978 257.143,273.978" style="fill:rgb(39,39,36);fill-rule:nonzero;"/>
            </g>
        </g>
    </g>
</svg>
