<?xml version="1.0" encoding="UTF-8" standalone="no"?>
<!DOCTYPE svg PUBLIC "-//W3C//DTD SVG 1.1//EN" "http://www.w3.org/Graphics/SVG/1.1/DTD/svg11.dtd">
<svg width="100%" height="100%" viewBox="0 0 290 347" version="1.1" xmlns="http://www.w3.org/2000/svg" xmlns:xlink="http://www.w3.org/1999/xlink" xml:space="preserve" xmlns:serif="http://www.serif.com/" style="fill-rule:evenodd;clip-rule:evenodd;stroke-linejoin:round;stroke-miterlimit:2;">
    <g transform="matrix(1,0,0,1,-2298,-883)">
        <g>
            <g transform="matrix(6.30497,0,0,6.30497,1974.95,-1005.76)">
                <path d="M85.782,327.868C81.782,328.065 78.202,323.686 76.97,317.596L83.248,314.747C81.017,313.708 78.788,312.671 76.557,311.632C76.953,305.011 80.192,299.843 84.384,299.636C89.099,299.402 93.235,305.533 93.621,313.329C94.007,321.126 90.497,327.634 85.782,327.868" style="fill:rgb(39,39,36);fill-rule:nonzero;"/>
            </g>
            <g transform="matrix(6.30497,0,0,6.30497,1974.95,-1005.76)">
                <path d="M62.273,327.868C58.274,328.065 54.693,323.686 53.461,317.596L59.739,314.747C57.508,313.708 55.279,312.671 53.048,311.632C53.444,305.011 56.683,299.843 60.875,299.636C65.59,299.402 69.726,305.533 70.112,313.329C70.498,321.126 66.988,327.634 62.273,327.868" style="fill:rgb(39,39,36);fill-rule:nonzero;"/>
            </g>
            <g transform="matrix(6.30497,0,0,6.30497,1974.95,-825.513)">
                <path d="M78.578,300.076C78.33,300.36 77.898,300.389 77.614,300.14C77.434,299.983 76.776,299.471 75.85,299.524C74.763,299.586 74.125,300.369 74.008,300.525C73.873,300.704 73.668,300.799 73.46,300.799C73.318,300.799 73.174,300.755 73.051,300.663C72.749,300.437 72.687,300.009 72.913,299.706C73.167,299.367 74.123,298.253 75.773,298.16C77.176,298.08 78.157,298.799 78.514,299.112C78.798,299.36 78.827,299.792 78.578,300.076" style="fill:rgb(39,39,36);fill-rule:nonzero;"/>
            </g>
            <g transform="matrix(6.30497,0,0,6.30497,1974.95,-622.447)">
                <path d="M55.214,280.218C55.274,280.978 55.555,281.741 56.025,282.425C56.466,283.065 57.246,284.11 58.362,285.285L63.545,276.499C63.396,276.376 63.256,276.256 63.127,276.142C61.434,274.649 58.939,274.504 57.193,275.798C57.082,275.881 56.973,275.969 56.869,276.061C55.708,277.087 55.09,278.641 55.214,280.218ZM92.313,281.224C92.742,279.301 92.169,277.317 90.82,276.046C90.714,275.947 90.604,275.852 90.492,275.764C90.492,275.764 90.492,275.764 90.492,275.764C89.739,275.171 88.832,274.878 87.917,274.878C86.864,274.878 85.8,275.266 84.949,276.031C84.842,276.127 84.727,276.227 84.606,276.33C86.316,279.23 88.026,282.13 89.738,285.03C90.623,284.074 91.26,283.239 91.644,282.697C91.974,282.23 92.199,281.734 92.313,281.224ZM73.212,292.259C73.252,288.283 73.292,284.307 73.333,280.331C71.81,280.267 70.421,279.992 69.178,279.594L66.027,290.697C68.112,291.585 70.508,292.198 73.212,292.289L73.212,292.259ZM79.048,279.507C77.756,279.947 76.302,280.258 74.7,280.33C74.658,284.311 74.618,288.292 74.578,292.273L74.578,292.29C77.463,292.198 79.999,291.514 82.18,290.538L79.048,279.507ZM88.747,286.041C87.004,283.088 85.262,280.134 83.521,277.181C82.658,277.804 81.587,278.458 80.328,279.009L83.428,289.928C85.61,288.774 87.385,287.356 88.747,286.041ZM64.771,290.114L67.892,279.121C66.612,278.589 65.523,277.949 64.641,277.332L59.362,286.28C60.772,287.609 62.576,289.002 64.771,290.114ZM55.964,275.037C56.096,274.92 56.236,274.806 56.379,274.7C58.64,273.024 61.858,273.2 64.031,275.118C65.69,276.582 69.207,279.036 74.139,278.98C76.039,278.96 77.723,278.581 79.185,278.018C79.227,277.995 79.272,277.976 79.32,277.962C79.324,277.961 79.327,277.961 79.331,277.96C81.327,277.167 82.901,276.033 84.035,275.014C86.123,273.139 89.194,273.003 91.337,274.69C91.481,274.803 91.622,274.925 91.756,275.051C93.455,276.651 94.18,279.13 93.647,281.521C93.493,282.21 93.195,282.871 92.76,283.486C92.262,284.189 91.365,285.355 90.073,286.652C90.069,286.655 90.067,286.659 90.063,286.662C88.43,288.3 86.167,290.145 83.286,291.531C83.276,291.536 83.266,291.542 83.255,291.546C80.646,292.796 77.531,293.669 73.918,293.668C73.909,293.668 73.899,293.668 73.889,293.668C73.889,293.668 73.888,293.668 73.888,293.668L73.881,293.668C73.881,293.668 73.88,293.668 73.88,293.668C73.836,293.668 73.792,293.668 73.749,293.668C70.408,293.643 67.499,292.873 65.022,291.749C65.021,291.748 65.019,291.748 65.018,291.748C64.955,291.73 64.898,291.701 64.844,291.668C62.011,290.352 59.754,288.577 58.077,286.939C58.03,286.902 57.987,286.862 57.953,286.816C56.457,285.337 55.438,283.983 54.899,283.2C54.293,282.318 53.931,281.324 53.852,280.325C53.694,278.323 54.483,276.346 55.964,275.037" style="fill:rgb(39,39,36);fill-rule:nonzero;"/>
            </g>
            <g transform="matrix(6.30497,0,0,6.30497,1974.95,-747.57)">
                <path d="M89.6,291.362C89.222,291.353 88.924,291.04 88.932,290.663C88.941,290.285 89.255,289.993 89.632,289.995C90.663,290.02 92.667,290.285 94.506,291.792C96.126,293.12 96.809,294.774 97.073,295.641C97.182,296.002 96.979,296.384 96.617,296.494C96.551,296.514 96.484,296.523 96.419,296.523C96.126,296.523 95.855,296.333 95.765,296.038C95.547,295.319 94.98,293.948 93.64,292.849C92.117,291.601 90.455,291.382 89.6,291.362" style="fill:rgb(39,39,36);fill-rule:nonzero;"/>
            </g>
            <g transform="matrix(6.30497,0,0,6.30497,1974.95,-753.752)">
                <path d="M51.317,296.01C51.655,295.036 52.521,293.208 54.523,291.907C56.402,290.686 58.302,290.58 59.267,290.625C59.644,290.642 59.936,290.962 59.918,291.339C59.901,291.716 59.583,292.006 59.204,291.99C58.402,291.953 56.826,292.041 55.268,293.053C53.607,294.132 52.889,295.649 52.609,296.458C52.511,296.74 52.246,296.917 51.963,296.917C51.889,296.917 51.813,296.905 51.739,296.879C51.383,296.756 51.194,296.366 51.317,296.01" style="fill:rgb(39,39,36);fill-rule:nonzero;"/>
            </g>
        </g>
    </g>
</svg>
