<?xml version="1.0" encoding="UTF-8" standalone="no"?>
<!DOCTYPE svg PUBLIC "-//W3C//DTD SVG 1.1//EN" "http://www.w3.org/Graphics/SVG/1.1/DTD/svg11.dtd">
<svg width="100%" height="100%" viewBox="0 0 343 336" version="1.1" xmlns="http://www.w3.org/2000/svg" xmlns:xlink="http://www.w3.org/1999/xlink" xml:space="preserve" xmlns:serif="http://www.serif.com/" style="fill-rule:evenodd;clip-rule:evenodd;stroke-linejoin:round;stroke-miterlimit:2;">
    <g transform="matrix(1,0,0,1,-4029,-2374)">
        <g>
            <g transform="matrix(6.30497,0,0,6.30497,1974.95,1993.65)">
                <path d="M368.721,85.517C367.519,85.225 366.26,85.225 365.079,85.515C364.485,85.662 363.919,85.884 363.385,86.171C362.749,86.513 362.156,86.948 361.616,87.483C360.108,88.976 359.505,90.696 359.442,90.888C359.346,91.175 359.08,91.356 358.794,91.356C358.723,91.356 358.649,91.344 358.577,91.32C358.22,91.202 358.026,90.814 358.145,90.457C358.212,90.256 358.786,88.617 360.158,87.042C357.419,84.454 355.082,79.936 353.98,75.029C353.886,74.607 353.799,74.172 353.722,73.738C353.688,73.543 353.739,73.343 353.862,73.189C353.985,73.036 354.17,72.943 354.366,72.935L358.767,72.755L353.635,67.967C353.478,67.822 353.399,67.61 353.422,67.396C353.883,63.026 355.844,60.407 358.668,60.39L358.695,60.39C362.987,60.39 367.748,66.643 369.545,74.645C370.363,78.292 370.425,81.712 369.729,84.382C371.726,85.023 373.478,86.315 374.709,88.072C374.926,88.382 374.851,88.809 374.542,89.026C374.233,89.241 373.807,89.166 373.59,88.857C372.41,87.172 370.681,85.987 368.721,85.517" style="fill:rgb(39,39,36);fill-rule:nonzero;"/>
            </g>
            <g transform="matrix(6.30497,0,0,6.30497,1974.95,2006.89)">
                <path d="M327.887,72.14C328.01,71.987 328.194,71.893 328.391,71.884L332.792,71.706L327.66,66.918C327.503,66.771 327.424,66.559 327.446,66.346C327.907,61.976 329.869,59.357 332.693,59.34L332.72,59.34C337.011,59.34 341.772,65.592 343.57,73.594C344.388,77.242 344.448,80.663 343.754,83.332C345.751,83.974 347.502,85.264 348.734,87.024C348.951,87.333 348.876,87.758 348.566,87.975C348.257,88.192 347.832,88.117 347.615,87.808C346.434,86.123 344.706,84.936 342.746,84.466C341.543,84.176 340.284,84.174 339.104,84.466C338.146,84.702 337.264,85.122 336.47,85.72C336.453,85.732 336.435,85.742 336.418,85.756C336.365,85.795 336.316,85.84 336.265,85.881C336.183,85.946 336.101,86.01 336.022,86.079C336.005,86.094 335.99,86.11 335.972,86.125C335.862,86.224 335.749,86.327 335.641,86.434C334.133,87.926 333.53,89.648 333.466,89.839C333.371,90.124 333.104,90.305 332.819,90.305C332.747,90.305 332.674,90.295 332.602,90.271C332.245,90.152 332.05,89.764 332.17,89.407C332.236,89.207 332.81,87.567 334.182,85.992C331.444,83.405 329.107,78.885 328.005,73.979C327.911,73.558 327.824,73.123 327.747,72.687C327.713,72.492 327.762,72.292 327.887,72.14" style="fill:rgb(39,39,36);fill-rule:nonzero;"/>
            </g>
            <g transform="matrix(6.30497,0,0,6.30497,1974.95,2184.32)">
                <path d="M376.78,61.728C376.242,61.728 375.804,61.291 375.804,60.753C375.804,60.213 376.242,59.777 376.78,59.777C377.32,59.777 377.755,60.213 377.755,60.753C377.755,61.291 377.32,61.728 376.78,61.728" style="fill:rgb(39,39,36);fill-rule:nonzero;"/>
            </g>
            <g transform="matrix(-6.30497,0,0,6.30497,6755.82,2217.11)">
                <path d="M379.134,57.175C378.596,57.175 378.158,57.613 378.158,58.151C378.158,58.691 378.596,59.128 379.134,59.128C379.674,59.128 380.111,58.691 380.111,58.151C380.111,57.613 379.674,57.175 379.134,57.175" style="fill:rgb(39,39,36);fill-rule:nonzero;"/>
            </g>
            <g transform="matrix(-6.19129,-1.19189,-1.19189,6.19129,6749.8,2702.25)">
                <path d="M376.782,54.819C376.242,54.82 375.805,55.256 375.806,55.795C375.805,56.334 376.242,56.772 376.782,56.771C377.321,56.772 377.757,56.334 377.758,55.795C377.757,55.256 377.321,54.82 376.782,54.819" style="fill:rgb(39,39,36);fill-rule:nonzero;"/>
            </g>
            <g transform="matrix(6.30497,0,0,6.30497,1974.95,2179.65)">
                <path d="M329.213,62.099C328.673,62.099 328.235,61.661 328.235,61.122C328.235,60.583 328.673,60.146 329.213,60.146C329.751,60.146 330.188,60.583 330.188,61.122C330.188,61.661 329.751,62.099 329.213,62.099" style="fill:rgb(39,39,36);fill-rule:nonzero;"/>
            </g>
            <g transform="matrix(-6.30497,0,0,6.30497,6096.61,2212.45)">
                <path d="M326.858,57.546C326.319,57.546 325.881,57.982 325.881,58.521C325.881,59.06 326.319,59.497 326.858,59.497C327.397,59.497 327.834,59.06 327.834,58.521C327.834,57.982 327.397,57.546 326.858,57.546" style="fill:rgb(39,39,36);fill-rule:nonzero;"/>
            </g>
            <g transform="matrix(-6.19129,1.1919,1.1919,6.19129,6021.92,1856.14)">
                <path d="M329.211,55.192C328.672,55.191 328.236,55.628 328.235,56.168C328.236,56.707 328.672,57.143 329.211,57.143C329.75,57.142 330.188,56.707 330.187,56.168C330.188,55.628 329.75,55.19 329.211,55.192" style="fill:rgb(39,39,36);fill-rule:nonzero;"/>
            </g>
            <g transform="matrix(6.30497,0,0,6.30497,1974.95,2335.75)">
                <path d="M332.609,43.249C332.783,43.283 334.338,43.546 335.547,42.46C336.516,41.588 336.641,40.416 336.656,40.08C336.671,39.702 336.989,39.407 337.368,39.427C337.746,39.443 338.038,39.762 338.021,40.14C337.995,40.72 337.802,42.157 336.615,43.326C338.501,45.289 345.204,51.381 354.785,50.197C361.939,49.312 366.46,44.923 368.393,42.591C366.912,41.18 366.858,39.21 366.858,38.968C366.856,38.59 367.162,38.284 367.539,38.283L367.541,38.283C367.917,38.283 368.223,38.587 368.224,38.964C368.224,39.161 368.272,40.925 369.736,41.927C370.725,42.603 371.795,42.54 372.208,42.482C372.584,42.429 372.929,42.689 372.982,43.063C373.033,43.437 372.774,43.782 372.4,43.835C372.237,43.857 372.002,43.881 371.716,43.881C371.228,43.881 370.592,43.813 369.926,43.558C369.627,45.835 368.932,47.986 367.855,49.964C366.598,52.271 362.941,57.77 356.133,58.979C355.244,59.138 354.387,59.205 353.567,59.205C349.403,59.205 346.199,57.457 345.015,56.811C338.747,53.391 336.169,47.41 335.209,44.276C334.479,44.588 333.772,44.668 333.234,44.668C332.804,44.668 332.481,44.617 332.349,44.592C331.978,44.52 331.736,44.161 331.808,43.79C331.879,43.42 332.238,43.177 332.609,43.249" style="fill:rgb(39,39,36);fill-rule:nonzero;"/>
            </g>
            <g transform="matrix(6.30497,0,0,6.30497,1974.95,2427.63)">
                <path d="M354.986,40.451C354.94,40.367 354.318,39.244 353.087,39.154C352.104,39.082 351.059,39.687 350.815,40.591C350.579,41.464 351.191,42.256 351.372,42.49C352.656,44.154 355.251,43.847 355.545,43.807C356.087,43.633 357.409,43.116 358.137,41.795C358.389,41.334 358.934,40.345 358.461,39.571C358.089,38.964 357.257,38.759 356.608,38.875C355.834,39.014 355.198,39.629 354.986,40.451" style="fill:white;fill-rule:nonzero;"/>
            </g>
            <g transform="matrix(6.30497,0,0,6.30497,1974.95,2261.07)">
                <path d="M354.881,48.991C357.274,49.368 359.91,51.012 360.402,53.837C360.803,56.145 359.642,58.571 357.511,59.873C356.539,60.467 355.429,60.759 354.312,60.759C352.887,60.759 351.447,60.284 350.256,59.352C349.959,59.118 349.906,58.689 350.138,58.392C350.372,58.094 350.801,58.041 351.098,58.275C352.777,59.591 355.068,59.763 356.799,58.706C358.429,57.71 359.356,55.805 359.054,54.071C358.682,51.924 356.519,50.632 354.667,50.342C352.528,50.005 350.854,51.07 350.234,51.543C349.933,51.772 349.504,51.715 349.275,51.415C349.047,51.114 349.105,50.685 349.405,50.456C350.164,49.877 352.219,48.572 354.881,48.991" style="fill:rgb(39,39,36);fill-rule:nonzero;"/>
            </g>
        </g>
    </g>
</svg>
