<?xml version="1.0" encoding="UTF-8" standalone="no"?>
<!DOCTYPE svg PUBLIC "-//W3C//DTD SVG 1.1//EN" "http://www.w3.org/Graphics/SVG/1.1/DTD/svg11.dtd">
<svg width="100%" height="100%" viewBox="0 0 373 276" version="1.1" xmlns="http://www.w3.org/2000/svg" xmlns:xlink="http://www.w3.org/1999/xlink" xml:space="preserve" xmlns:serif="http://www.serif.com/" style="fill-rule:evenodd;clip-rule:evenodd;stroke-linejoin:round;stroke-miterlimit:2;">
    <g transform="matrix(1,0,0,1,-3416,-2393)">
        <g>
            <g transform="matrix(-6.30497,0,0,6.30497,5528.95,2181.1)">
                <path d="M281.84,59.95C281.256,59.95 280.783,60.423 280.783,61.007C280.783,61.593 281.256,62.066 281.84,62.066C282.424,62.066 282.899,61.593 282.899,61.007C282.899,60.423 282.424,59.95 281.84,59.95" style="fill:rgb(39,39,36);fill-rule:nonzero;"/>
            </g>
            <g transform="matrix(-6.30497,0,0,6.30497,5589.68,2199.23)">
                <path d="M286.658,58.511C286.072,58.511 285.599,58.984 285.599,59.57C285.599,60.155 286.072,60.628 286.658,60.628C287.242,60.628 287.715,60.155 287.715,59.57C287.715,58.984 287.242,58.511 286.658,58.511" style="fill:rgb(39,39,36);fill-rule:nonzero;"/>
            </g>
            <g transform="matrix(-6.30497,0,0,6.30497,5542.31,2252.59)">
                <path d="M282.901,54.28C282.317,54.28 281.842,54.753 281.842,55.337C281.842,55.923 282.317,56.396 282.901,56.396C283.485,56.396 283.958,55.923 283.958,55.337C283.958,54.753 283.485,54.28 282.901,54.28" style="fill:rgb(39,39,36);fill-rule:nonzero;"/>
            </g>
            <g transform="matrix(-6.30497,0,0,6.30497,4871.53,2205.05)">
                <path d="M229.705,58.05C229.121,58.05 228.647,58.525 228.647,59.109C228.647,59.693 229.121,60.167 229.705,60.167C230.289,60.167 230.764,59.693 230.764,59.109C230.764,58.525 230.289,58.05 229.705,58.05" style="fill:rgb(39,39,36);fill-rule:nonzero;"/>
            </g>
            <g transform="matrix(-6.30497,0,0,6.30497,4878.12,2300.35)">
                <path d="M230.229,50.492C229.643,50.492 229.17,50.965 229.17,51.55C229.17,52.134 229.643,52.609 230.229,52.609C230.814,52.609 231.287,52.134 231.287,51.55C231.287,50.965 230.814,50.492 230.229,50.492" style="fill:rgb(39,39,36);fill-rule:nonzero;"/>
            </g>
            <g transform="matrix(6.30497,0,0,6.30497,1974.95,2110.61)">
                <path d="M233.232,83.494C233.6,83.289 235.459,82.153 235.894,79.888C236.202,78.301 235.669,77.009 235.324,76.381C235.142,76.049 235.264,75.634 235.593,75.453C235.925,75.272 236.34,75.391 236.521,75.723C236.955,76.512 237.625,78.138 237.237,80.147C237.211,80.277 237.181,80.4 237.148,80.525C240.088,82.845 247.272,87.507 257.23,87.16C266.614,86.832 273.245,82.185 276.004,79.847C274.983,77.677 275.061,75.603 275.261,74.358C274.937,74.963 273.724,76.89 271.291,77.264C271.03,77.303 270.768,77.324 270.509,77.324C268.754,77.324 267.051,76.437 266.016,74.94C266.007,74.927 265.999,74.913 265.99,74.898C264.965,73.164 264.116,71.317 263.467,69.412C262.751,67.319 262.271,65.141 262.04,62.939C262.016,62.712 262.107,62.488 262.281,62.343C262.457,62.198 262.693,62.148 262.912,62.211C263.448,62.369 264.851,62.656 266.268,61.936C266.497,61.82 266.716,61.684 266.921,61.53C267.101,61.393 267.205,61.185 267.208,60.958C267.21,60.725 267.106,60.508 266.921,60.363C266.521,60.049 266.101,59.751 265.674,59.476C264.615,58.798 263.474,58.245 262.281,57.833C262.075,57.761 261.916,57.596 261.851,57.385C261.466,56.121 261.205,54.814 261.075,53.502C260.892,51.657 260.967,49.79 261.297,47.955C261.308,47.894 261.328,47.832 261.355,47.776C262.192,46.061 263.89,44.93 265.788,44.821C268.691,44.651 270.322,46.946 270.463,47.149C272.668,50.236 275.461,55.322 276.261,62.037C276.722,65.915 276.466,69.814 275.5,73.63C275.658,73.458 275.897,73.367 276.145,73.418C276.513,73.495 276.751,73.857 276.674,74.226C276.467,75.222 276.268,77.201 277.245,79.273C277.308,79.406 277.375,79.539 277.446,79.669C277.448,79.673 277.451,79.678 277.453,79.681C277.954,80.595 278.647,81.417 279.479,82.078C279.775,82.312 279.824,82.741 279.588,83.038C279.454,83.207 279.255,83.296 279.054,83.296C278.905,83.296 278.755,83.246 278.628,83.147C277.878,82.551 277.226,81.84 276.695,81.055C273.264,83.923 266.626,88.201 257.277,88.525C256.907,88.539 256.543,88.544 256.181,88.544C246.711,88.544 239.784,84.265 236.641,81.861C235.78,83.521 234.394,84.411 233.897,84.688C233.791,84.746 233.678,84.774 233.566,84.774C233.325,84.774 233.092,84.647 232.968,84.423C232.785,84.094 232.903,83.677 233.232,83.494" style="fill:rgb(39,39,36);fill-rule:nonzero;"/>
            </g>
            <g transform="matrix(6.30497,0,0,6.30497,1974.95,2213.61)">
                <path d="M260.802,60.985C260.711,61.28 260.44,61.47 260.148,61.47C260.083,61.47 260.014,61.462 259.949,61.441C259.587,61.332 259.384,60.949 259.493,60.589C259.756,59.724 259.662,58.798 259.239,58.047C258.919,57.483 258.436,57.071 257.944,56.948C257.4,56.81 256.727,56.979 256.143,57.397C255.385,57.939 254.905,58.805 254.826,59.77C254.795,60.146 254.464,60.428 254.09,60.396C253.712,60.365 253.432,60.035 253.463,59.659C253.575,58.293 254.262,57.063 255.347,56.285C256.256,55.636 257.351,55.388 258.279,55.622C259.138,55.839 259.922,56.478 260.428,57.375C261.036,58.45 261.171,59.765 260.802,60.985" style="fill:rgb(39,39,36);fill-rule:nonzero;"/>
            </g>
            <g transform="matrix(6.30497,0,0,6.30497,1974.95,2039.89)">
                <path d="M233.258,58.993C234.095,57.278 235.795,56.147 237.693,56.038C240.594,55.872 242.227,58.164 242.365,58.366C244.571,61.453 247.366,66.539 248.163,73.254C248.643,77.286 248.35,81.34 247.289,85.302C247.277,85.341 247.263,85.38 247.246,85.416C247.12,85.686 245.924,88.062 243.194,88.481C242.934,88.52 242.673,88.541 242.411,88.541C240.659,88.541 238.956,87.654 237.92,86.157C237.91,86.144 237.901,86.13 237.893,86.115C236.87,84.381 236.021,82.536 235.37,80.629C234.656,78.536 234.175,76.358 233.943,74.156C233.919,73.929 234.01,73.705 234.186,73.56C234.36,73.415 234.596,73.365 234.814,73.429C235.351,73.586 236.753,73.873 238.173,73.153C238.4,73.037 238.621,72.901 238.824,72.747C239.005,72.61 239.109,72.402 239.111,72.175C239.113,71.942 239.008,71.725 238.824,71.58C238.424,71.266 238.006,70.968 237.577,70.693C236.519,70.015 235.378,69.462 234.186,69.05C233.979,68.978 233.819,68.813 233.755,68.602C233.369,67.338 233.108,66.031 232.978,64.719C232.797,62.874 232.87,61.007 233.2,59.172C233.212,59.111 233.231,59.049 233.258,58.993" style="fill:rgb(39,39,36);fill-rule:nonzero;"/>
            </g>
        </g>
    </g>
</svg>
