<?xml version="1.0" encoding="UTF-8" standalone="no"?>
<!DOCTYPE svg PUBLIC "-//W3C//DTD SVG 1.1//EN" "http://www.w3.org/Graphics/SVG/1.1/DTD/svg11.dtd">
<svg width="100%" height="100%" viewBox="0 0 373 342" version="1.1" xmlns="http://www.w3.org/2000/svg" xmlns:xlink="http://www.w3.org/1999/xlink" xml:space="preserve" xmlns:serif="http://www.serif.com/" style="fill-rule:evenodd;clip-rule:evenodd;stroke-linejoin:round;stroke-miterlimit:2;">
    <g transform="matrix(1,0,0,1,-2825,-1394)">
        <g>
            <g transform="matrix(6.30497,0,0,6.30497,1974.95,125.695)">
                <path d="M180.492,239.788C179.59,238.756 178.439,237.141 177.701,234.921C177.031,232.907 176.951,231.133 176.992,229.96C178.41,229.398 179.826,228.837 181.244,228.275C179.679,227.893 178.114,227.508 176.55,227.124C176.119,224.951 175.762,221.847 176.194,218.177C176.727,213.653 178.237,210.131 179.462,207.858C174.054,208.395 169.759,215.345 169.759,223.811C169.759,232.627 174.414,239.8 180.135,239.8C180.255,239.8 180.374,239.795 180.492,239.788ZM175.919,240.028C174.365,239.152 172.945,237.784 171.746,235.978C169.585,232.718 168.393,228.398 168.393,223.811C168.393,219.853 169.282,216.093 170.917,213.042C170.883,213.023 170.851,213.002 170.818,212.977L165.844,209.041C165.549,208.807 165.498,208.378 165.732,208.082C165.967,207.786 166.396,207.735 166.692,207.97L171.611,211.861C171.657,211.789 171.7,211.716 171.746,211.645C172.516,210.486 173.377,209.506 174.307,208.722L171.681,204.269C171.489,203.944 171.597,203.525 171.922,203.333C172.248,203.141 172.666,203.249 172.858,203.575L175.41,207.903C176.585,207.144 177.846,206.673 179.155,206.516L179.015,201.864C179.004,201.487 179.302,201.172 179.677,201.161C180.064,201.15 180.371,201.446 180.381,201.823L180.52,206.467C180.564,206.47 180.61,206.472 180.653,206.475C181.922,206.555 183.135,206.929 184.264,207.551L186.608,203.575C186.8,203.249 187.218,203.142 187.543,203.333C187.869,203.525 187.977,203.943 187.785,204.269L185.414,208.291C186.518,209.108 187.521,210.174 188.388,211.439L192.774,207.97C193.069,207.736 193.5,207.786 193.734,208.082C193.968,208.378 193.917,208.807 193.621,209.041L189.118,212.605C190.843,215.629 191.879,219.541 191.879,223.811C191.879,228.141 190.802,232.283 188.846,235.476C187.975,236.897 186.964,238.078 185.855,238.99L186.743,243.938C186.812,244.309 186.564,244.664 186.193,244.731C186.152,244.738 186.111,244.742 186.07,244.742C185.746,244.742 185.459,244.51 185.399,244.18L184.622,239.86C183.67,240.438 182.665,240.833 181.625,241.026L181.471,246.2C181.459,246.57 181.157,246.863 180.788,246.863C180.781,246.863 180.774,246.862 180.767,246.862C180.39,246.851 180.094,246.536 180.105,246.159L180.255,241.163C180.216,241.163 180.176,241.167 180.135,241.167C179.131,241.167 178.147,240.983 177.2,240.628L176.394,245.116C176.334,245.446 176.047,245.678 175.723,245.678C175.682,245.678 175.641,245.674 175.6,245.667C175.229,245.6 174.981,245.245 175.05,244.874L175.919,240.028" style="fill:rgb(39,39,36);fill-rule:nonzero;"/>
            </g>
            <g transform="matrix(6.30497,0,0,6.30497,1974.95,125.759)">
                <path d="M149.521,239.79C149.64,239.79 149.759,239.785 149.878,239.778C148.976,238.746 147.823,237.131 147.086,234.911C146.417,232.897 146.336,231.123 146.377,229.95C147.795,229.388 149.211,228.827 150.629,228.265C149.065,227.883 147.5,227.498 145.935,227.114C145.504,224.941 145.147,221.837 145.58,218.167C146.112,213.643 147.621,210.121 148.846,207.848C143.438,208.385 139.144,215.335 139.144,223.801C139.144,232.617 143.799,239.79 149.521,239.79ZM135.117,208.072C135.351,207.776 135.781,207.725 136.077,207.96L140.995,211.851C141.041,211.779 141.084,211.706 141.131,211.635C141.901,210.475 142.762,209.496 143.691,208.712L141.065,204.258C140.874,203.933 140.982,203.515 141.307,203.323C141.632,203.131 142.051,203.239 142.242,203.564L144.794,207.893C145.97,207.134 147.231,206.663 148.539,206.506L148.4,201.854C148.389,201.477 148.685,201.162 149.063,201.15C149.07,201.15 149.076,201.15 149.083,201.15C149.451,201.15 149.755,201.443 149.766,201.813L149.905,206.457C149.949,206.46 149.994,206.461 150.037,206.465C151.306,206.545 152.52,206.919 153.648,207.54L155.992,203.564C156.184,203.239 156.603,203.132 156.928,203.323C157.253,203.514 157.361,203.933 157.17,204.258L154.798,208.281C155.902,209.098 156.904,210.164 157.773,211.429L162.158,207.96C162.454,207.725 162.884,207.776 163.118,208.072C163.352,208.367 163.302,208.797 163.006,209.031L158.502,212.595C160.229,215.619 161.264,219.531 161.264,223.801C161.264,228.131 160.187,232.273 158.231,235.465C157.36,236.887 156.349,238.068 155.239,238.98L156.129,243.927C156.195,244.299 155.948,244.654 155.577,244.721C155.536,244.728 155.495,244.732 155.455,244.732C155.131,244.732 154.843,244.5 154.783,244.169L154.007,239.85C153.055,240.428 152.049,240.823 151.01,241.016L150.856,246.189C150.845,246.56 150.541,246.852 150.173,246.852C150.166,246.852 150.159,246.852 150.152,246.852C149.775,246.841 149.478,246.526 149.49,246.149L149.639,241.153C149.599,241.153 149.56,241.156 149.521,241.156C148.515,241.156 147.531,240.973 146.585,240.618L145.778,245.105C145.719,245.436 145.431,245.668 145.107,245.668C145.067,245.668 145.026,245.664 144.985,245.657C144.613,245.59 144.367,245.235 144.433,244.864L145.305,240.018C143.75,239.142 142.33,237.774 141.131,235.968C138.969,232.708 137.778,228.388 137.778,223.801C137.778,219.843 138.667,216.083 140.301,213.031C140.267,213.013 140.235,212.992 140.203,212.967L135.229,209.031C134.933,208.797 134.883,208.367 135.117,208.072" style="fill:rgb(39,39,36);fill-rule:nonzero;"/>
            </g>
            <g transform="matrix(6.30497,0,0,6.30497,1974.95,304.039)">
                <path d="M167.192,209.587C167.17,209.521 167.14,209.45 167.113,209.388L165.795,206.394C165.643,206.049 165.8,205.645 166.145,205.493C166.492,205.341 166.894,205.498 167.046,205.843L168.364,208.838C168.401,208.922 168.449,209.034 168.49,209.154C168.978,210.616 168.66,212.171 167.662,213.21C167.608,213.266 166.51,214.385 165.046,214.385C164.784,214.385 164.509,214.349 164.227,214.264C162.633,213.787 161.621,212.017 161.873,210.147C161.924,209.773 162.267,209.511 162.642,209.562C163.016,209.612 163.278,209.956 163.228,210.33C163.067,211.52 163.678,212.673 164.619,212.955C165.677,213.272 166.669,212.271 166.677,212.262C167.322,211.591 167.52,210.566 167.192,209.587" style="fill:rgb(39,39,36);fill-rule:nonzero;"/>
            </g>
            <g transform="matrix(6.30497,0,0,6.30497,1974.95,465.123)">
                <path d="M158.383,192.945C158.688,193.174 159.649,193.997 159.88,195.419L161.189,195.427C161.231,195.314 161.28,195.202 161.337,195.09C161.425,194.921 162.238,193.344 163.524,193.492C164.289,193.581 164.964,194.252 165.248,195.174C165.697,194.261 166.508,193.696 167.308,193.745C168.251,193.802 168.802,194.686 168.949,194.922C169.059,195.098 169.146,195.284 169.217,195.478L170.868,195.488C171.23,194.169 171.992,193.29 172.429,192.872C172.702,192.611 173.135,192.621 173.396,192.895C173.656,193.168 173.645,193.6 173.372,193.861C173.018,194.198 172.388,194.931 172.139,196.039C171.911,197.045 172.093,197.898 172.284,198.436C172.41,198.791 172.224,199.182 171.869,199.308C171.793,199.335 171.715,199.348 171.64,199.348C171.358,199.348 171.095,199.173 170.996,198.893C170.818,198.395 170.649,197.69 170.668,196.854L169.417,196.846C169.381,197.913 168.953,199.023 168.275,199.842C167.162,201.191 165.601,201.489 165.08,201.566C164.57,201.443 162.974,200.987 161.926,199.464C161.855,199.36 161.067,198.178 160.993,196.792L159.854,196.785C159.651,197.778 159.1,198.446 158.893,198.668C158.759,198.812 158.576,198.885 158.393,198.885C158.226,198.885 158.059,198.824 157.928,198.702C157.652,198.445 157.636,198.012 157.894,197.736C158.02,197.601 158.644,196.872 158.554,195.822C158.463,194.763 157.713,194.151 157.563,194.039C157.261,193.813 157.2,193.385 157.426,193.083C157.653,192.78 158.081,192.719 158.383,192.945" style="fill:rgb(39,39,36);fill-rule:nonzero;"/>
            </g>
        </g>
    </g>
</svg>
