<?xml version="1.0" encoding="UTF-8" standalone="no"?>
<!DOCTYPE svg PUBLIC "-//W3C//DTD SVG 1.1//EN" "http://www.w3.org/Graphics/SVG/1.1/DTD/svg11.dtd">
<svg width="100%" height="100%" viewBox="0 0 348 369" version="1.1" xmlns="http://www.w3.org/2000/svg" xmlns:xlink="http://www.w3.org/1999/xlink" xml:space="preserve" xmlns:serif="http://www.serif.com/" style="fill-rule:evenodd;clip-rule:evenodd;stroke-linejoin:round;stroke-miterlimit:2;">
    <g transform="matrix(1,0,0,1,-4022,-869)">
        <g>
            <g transform="matrix(6.30497,0,0,6.30497,1974.95,-991.464)">
                <path d="M366.921,301.444C365.482,300.851 363.871,300.892 362.503,301.557C358.982,303.268 354.079,308.792 360.308,326.587C362.237,325.311 364.353,324.485 366.612,324.131C367.307,324.021 368.021,323.961 368.732,323.948C368.527,322.921 368.365,321.743 368.31,320.433C368.264,319.341 368.301,318.34 368.382,317.454C369.705,317.382 371.03,317.312 372.355,317.24C371.125,316.058 369.895,314.876 368.665,313.692C368.831,312.851 369.21,311.493 370.155,310.074C371.011,308.785 372.007,307.933 372.769,307.399C372.757,307.372 372.745,307.344 372.731,307.317C371.361,304.448 369.407,302.472 366.921,301.444ZM360.371,328.21C359.69,328.715 359.052,329.277 358.473,329.882C358.34,330.023 358.159,330.094 357.979,330.094C357.81,330.094 357.64,330.031 357.508,329.905C357.235,329.644 357.224,329.212 357.486,328.939C358.002,328.398 358.562,327.892 359.155,327.424C352.371,308.326 357.949,302.25 361.905,300.328C363.624,299.492 365.643,299.439 367.444,300.181C367.753,300.309 368.054,300.452 368.349,300.605C368.851,300.233 369.526,299.586 369.951,298.587C370.397,297.537 370.377,296.568 370.281,295.941C370.225,295.568 370.481,295.219 370.854,295.162C371.226,295.105 371.576,295.362 371.633,295.734C371.756,296.537 371.781,297.777 371.209,299.122C370.778,300.132 370.151,300.86 369.589,301.357C370.039,301.67 370.467,302.016 370.874,302.397C371.774,301.853 372.569,301.132 373.189,300.289C373.828,299.417 374.294,298.396 374.533,297.337C374.617,296.969 374.983,296.738 375.352,296.821C375.719,296.905 375.95,297.271 375.866,297.639C375.58,298.898 375.051,300.062 374.289,301.098C373.625,302.005 372.784,302.789 371.836,303.404C372.013,303.614 372.19,303.828 372.359,304.053C373.592,303.931 374.783,303.61 375.903,303.091C376.906,302.627 377.832,302.014 378.656,301.271C378.936,301.018 379.368,301.04 379.621,301.32C379.874,301.6 379.851,302.032 379.571,302.285C378.645,303.121 377.605,303.809 376.477,304.331C375.435,304.813 374.34,305.146 373.209,305.323C373.476,305.769 373.729,306.235 373.964,306.728C377.304,313.72 376.459,323.312 376.192,325.626C376.908,325.975 377.593,326.368 378.193,326.78C378.503,326.994 378.582,327.42 378.369,327.731C378.153,328.042 377.728,328.12 377.417,327.907C376.958,327.59 376.194,327.116 375.171,326.656C373.141,325.739 371.026,325.282 368.884,325.311C368.192,325.317 367.5,325.375 366.824,325.482C364.488,325.848 362.319,326.766 360.371,328.21" style="fill:rgb(39,39,36);fill-rule:nonzero;"/>
            </g>
            <g transform="matrix(6.30497,0,0,6.30497,1974.95,-978.964)">
                <path d="M337.508,322.957C337.303,321.93 337.139,320.752 337.086,319.442C337.04,318.35 337.078,317.349 337.158,316.463C338.482,316.391 339.806,316.321 341.132,316.249C339.902,315.067 338.672,313.885 337.442,312.701C337.607,311.86 337.987,310.502 338.931,309.083C339.785,307.794 340.783,306.941 341.545,306.408C341.531,306.381 341.52,306.353 341.508,306.326C340.138,303.456 338.183,301.48 335.698,300.453C334.257,299.859 332.648,299.9 331.278,300.566C327.757,302.276 322.856,307.801 329.083,325.596C331.013,324.32 333.128,323.494 335.386,323.14C336.084,323.03 336.796,322.97 337.508,322.957ZM327.931,326.432C321.146,307.335 326.725,301.259 330.682,299.337C332.4,298.501 334.418,298.447 336.218,299.19C336.529,299.318 336.83,299.461 337.124,299.614C337.628,299.242 338.303,298.595 338.726,297.596C339.174,296.546 339.154,295.577 339.058,294.95C339.001,294.576 339.258,294.228 339.63,294.171C340.003,294.114 340.351,294.37 340.409,294.743C340.532,295.546 340.558,296.786 339.985,298.131C339.555,299.141 338.926,299.869 338.364,300.365C338.813,300.678 339.242,301.025 339.651,301.406C340.551,300.862 341.345,300.141 341.964,299.298C342.604,298.426 343.069,297.405 343.31,296.345C343.394,295.977 343.759,295.747 344.126,295.83C344.495,295.913 344.726,296.279 344.642,296.647C344.357,297.906 343.826,299.07 343.066,300.107C342.399,301.014 341.561,301.798 340.611,302.413C340.79,302.622 340.966,302.837 341.133,303.062C342.367,302.94 343.558,302.618 344.68,302.099C345.681,301.636 346.607,301.023 347.432,300.279C347.712,300.027 348.145,300.049 348.397,300.329C348.65,300.609 348.628,301.041 348.348,301.294C347.422,302.13 346.38,302.818 345.254,303.34C344.212,303.822 343.115,304.154 341.984,304.332C342.252,304.778 342.505,305.244 342.739,305.737C346.081,312.728 345.235,322.321 344.969,324.635C345.685,324.983 346.368,325.377 346.967,325.789C347.278,326.003 347.357,326.428 347.143,326.739C346.93,327.05 346.505,327.129 346.194,326.915C345.532,326.461 344.757,326.029 343.947,325.665C341.918,324.748 339.801,324.293 337.66,324.319C336.968,324.326 336.275,324.384 335.598,324.49C333.265,324.856 331.093,325.774 329.148,327.219C328.466,327.723 327.827,328.286 327.25,328.891C327.115,329.032 326.935,329.103 326.756,329.103C326.585,329.103 326.416,329.04 326.283,328.914C326.011,328.653 326.001,328.22 326.261,327.947C326.776,327.407 327.338,326.901 327.931,326.432" style="fill:rgb(39,39,36);fill-rule:nonzero;"/>
            </g>
            <g transform="matrix(6.30497,0,0,6.30497,1974.95,-758.225)">
                <path d="M355.866,295.609C355.501,295.699 355.13,295.473 355.041,295.106C354.754,293.924 353.743,293.066 352.636,293.066L352.632,293.066C352.026,293.067 351.411,293.34 350.946,293.815C350.427,294.347 350.15,295.055 350.166,295.809C350.174,296.186 349.875,296.499 349.497,296.507C349.492,296.507 349.487,296.507 349.482,296.507C349.111,296.507 348.807,296.211 348.799,295.839C348.775,294.715 349.192,293.657 349.969,292.86C350.688,292.124 351.659,291.701 352.629,291.699L352.636,291.699C354.366,291.699 355.936,292.996 356.37,294.784C356.459,295.151 356.233,295.521 355.866,295.609" style="fill:rgb(39,39,36);fill-rule:nonzero;"/>
            </g>
            <g transform="matrix(6.30497,0,0,6.30497,1974.95,-624.734)">
                <path d="M350.054,285.889C350.658,286.48 351.419,286.897 352.236,287.153C352.646,287.281 353.073,287.363 353.504,287.408C353.936,287.451 354.371,287.437 354.804,287.399C355.234,287.343 355.663,287.261 356.075,287.126C356.486,286.991 356.886,286.819 357.258,286.607C358.002,286.18 358.656,285.609 359.119,284.9C359.274,284.661 359.208,284.341 358.969,284.184C358.806,284.078 358.603,284.077 358.442,284.162L358.422,284.174C357.781,284.518 357.158,284.818 356.522,285.038C356.203,285.148 355.885,285.24 355.564,285.317C355.243,285.392 354.918,285.442 354.593,285.483C354.429,285.495 354.267,285.52 354.102,285.52C354.02,285.524 353.937,285.532 353.856,285.532C353.773,285.532 353.691,285.53 353.61,285.534C353.28,285.53 352.948,285.51 352.614,285.472C351.942,285.397 351.269,285.242 350.567,285.045L350.545,285.038C350.275,284.963 349.996,285.12 349.921,285.39C349.87,285.575 349.926,285.763 350.054,285.889ZM340.583,285.756C342.644,285.855 344.536,284.862 345.524,283.166C346.696,281.155 346.342,278.509 344.666,276.731C344.407,276.456 344.42,276.023 344.694,275.766C344.969,275.506 345.401,275.518 345.661,275.793C347.507,277.751 348.056,280.568 347.142,282.942C347.641,283.175 348.208,283.404 348.838,283.609C349.397,282.613 350.278,281.799 351.431,281.707C353.025,281.579 354.212,282.901 354.399,283.115C354.592,282.847 355.552,281.562 356.975,281.521C358.027,281.49 358.928,282.155 359.561,283.048C360.173,282.775 360.715,282.486 361.184,282.204C360.291,279.975 360.885,277.252 362.778,275.472C363.053,275.212 363.485,275.226 363.745,275.501C364.003,275.776 363.989,276.208 363.714,276.468C362.003,278.077 361.635,280.658 362.86,282.468C363.837,283.911 365.667,284.63 367.521,284.302C367.891,284.236 368.247,284.483 368.311,284.856C368.378,285.226 368.13,285.582 367.758,285.647C367.382,285.713 367.005,285.747 366.634,285.747C364.724,285.746 362.939,284.886 361.849,283.4C361.369,283.685 360.822,283.978 360.209,284.254C360.352,284.62 360.455,284.991 360.51,285.344C360.899,287.862 358.928,289.707 358.528,290.081C356.992,291.52 355.188,291.766 354.547,291.822C353.902,291.809 352.086,291.686 350.458,290.353C350.032,290.008 347.943,288.298 348.162,285.759C348.186,285.477 348.24,285.179 348.322,284.878C347.651,284.654 347.046,284.408 346.515,284.159C345.288,286.017 343.177,287.129 340.864,287.129C340.749,287.129 340.633,287.126 340.518,287.121C340.141,287.104 339.851,286.783 339.868,286.407C339.886,286.029 340.204,285.741 340.583,285.756" style="fill:rgb(39,39,36);fill-rule:nonzero;"/>
            </g>
            <g transform="matrix(6.30497,0,0,6.30497,1974.95,-495.586)">
                <path d="M349.989,272.353C350.895,272.885 352.774,273.744 355.19,273.538C357.231,273.364 358.752,272.518 359.669,271.839C359.971,271.615 360.398,271.678 360.624,271.981C360.85,272.285 360.785,272.712 360.482,272.937C359.423,273.721 357.667,274.698 355.306,274.9C355.015,274.925 354.732,274.936 354.455,274.936C352.075,274.936 350.235,274.082 349.298,273.532C348.973,273.341 348.864,272.923 349.053,272.597C349.245,272.272 349.663,272.163 349.989,272.353" style="fill:rgb(39,39,36);fill-rule:nonzero;"/>
            </g>
        </g>
    </g>
</svg>
