<?xml version="1.0" encoding="UTF-8" standalone="no"?>
<!DOCTYPE svg PUBLIC "-//W3C//DTD SVG 1.1//EN" "http://www.w3.org/Graphics/SVG/1.1/DTD/svg11.dtd">
<svg width="100%" height="100%" viewBox="0 0 311 331" version="1.1" xmlns="http://www.w3.org/2000/svg" xmlns:xlink="http://www.w3.org/1999/xlink" xml:space="preserve" xmlns:serif="http://www.serif.com/" style="fill-rule:evenodd;clip-rule:evenodd;stroke-linejoin:round;stroke-miterlimit:2;">
    <g transform="matrix(1,0,0,1,-4638,-888)">
        <g>
            <g transform="matrix(6.30497,0,0,6.30497,1974.95,-932.442)">
                <path d="M460.494,325.663C461.018,325.663 461.546,325.585 462.062,325.432C462.069,325.429 462.076,325.427 462.083,325.424C461.068,321.468 460.116,316.398 459.857,310.46C461.548,309.324 463.239,308.188 464.932,307.052C463.267,305.563 461.603,304.071 459.937,302.581C460.243,297.833 460.976,293.702 461.78,290.332L461.779,290.332C461.357,290.228 460.924,290.175 460.494,290.175C457.947,290.175 455.521,291.97 453.666,295.227C451.74,298.607 450.681,303.114 450.681,307.92C450.681,312.725 451.74,317.232 453.666,320.611C455.521,323.869 457.947,325.663 460.494,325.663ZM452.478,321.288C450.437,317.706 449.315,312.959 449.315,307.92C449.315,302.881 450.437,298.133 452.478,294.551C454.586,290.848 457.434,288.809 460.494,288.809C461.03,288.809 461.568,288.874 462.093,289.002C462.177,289.019 462.26,289.041 462.358,289.071L462.337,289.065C462.354,289.069 462.371,289.074 462.378,289.076C467.763,290.612 471.672,298.537 471.672,307.92C471.672,317.241 467.794,325.156 462.452,326.742C461.809,326.933 461.15,327.03 460.494,327.03C457.434,327.03 454.586,324.99 452.478,321.288" style="fill:rgb(39,39,36);fill-rule:nonzero;"/>
            </g>
            <g transform="matrix(6.30497,0,0,6.30497,1974.95,-932.442)">
                <path d="M426.857,320.611C428.712,323.869 431.138,325.663 433.685,325.663C434.209,325.663 434.737,325.585 435.253,325.432C435.26,325.429 435.268,325.427 435.275,325.424C434.259,321.468 433.307,316.398 433.048,310.46C434.739,309.324 436.43,308.188 438.123,307.052C436.458,305.563 434.794,304.071 433.128,302.581C433.434,297.833 434.168,293.702 434.971,290.332L434.971,290.332C434.548,290.228 434.115,290.175 433.685,290.175C431.138,290.175 428.712,291.97 426.857,295.227C424.931,298.607 423.872,303.114 423.872,307.92C423.872,312.725 424.931,317.232 426.857,320.611ZM425.669,294.551C427.779,290.848 430.625,288.809 433.685,288.809C434.221,288.809 434.759,288.874 435.284,289.002C435.368,289.019 435.453,289.041 435.549,289.071L435.53,289.065C435.547,289.069 435.564,289.074 435.571,289.076C440.954,290.612 444.863,298.537 444.863,307.92C444.863,317.241 440.985,325.156 435.643,326.742C435,326.933 434.343,327.03 433.685,327.03C430.625,327.03 427.779,324.99 425.669,321.288C423.63,317.706 422.505,312.959 422.505,307.92C422.505,302.881 423.63,298.133 425.669,294.551" style="fill:rgb(39,39,36);fill-rule:nonzero;"/>
            </g>
            <g transform="matrix(6.30497,0,0,6.30497,1974.95,-683.263)">
                <path d="M453.259,285.936C453.971,287.027 454.24,288.294 453.994,289.411C453.478,291.755 450.973,292.719 450.218,292.959C449.562,293.167 448.935,293.243 448.366,293.243C447.709,293.243 447.131,293.14 446.685,293.023C446.32,292.926 446.103,292.552 446.198,292.187C446.296,291.822 446.67,291.605 447.034,291.701C447.688,291.874 448.7,292.007 449.805,291.656C450.216,291.525 452.292,290.789 452.66,289.118C452.827,288.356 452.629,287.469 452.116,286.683C451.522,285.772 450.606,285.135 449.605,284.935C447.685,284.55 445.689,285.801 445.066,287.785C444.953,288.145 444.569,288.345 444.21,288.232C443.85,288.118 443.65,287.735 443.762,287.375C444.593,284.734 447.276,283.074 449.875,283.595C451.233,283.867 452.466,284.72 453.259,285.936" style="fill:rgb(39,39,36);fill-rule:nonzero;"/>
            </g>
            <g transform="matrix(6.30497,0,0,6.30497,1974.95,-579.599)">
                <path d="M430.181,281.54C430.48,281.309 430.91,281.365 431.139,281.664C431.198,281.74 432.598,283.521 434.613,283.304C436.498,283.102 437.792,281.236 437.952,279.549C438.138,277.609 436.804,276.208 436.536,275.947C436.264,275.684 436.258,275.251 436.521,274.981C436.784,274.71 437.216,274.703 437.488,274.966C437.976,275.44 439.551,277.181 439.312,279.68C439.232,280.534 438.929,281.433 438.434,282.23C440.802,283.241 444.283,284.176 448.486,283.658C452.979,283.104 456.261,281.13 458.222,279.573C458.517,279.338 458.948,279.387 459.182,279.683C459.418,279.978 459.368,280.408 459.073,280.643C456.973,282.31 453.462,284.421 448.653,285.014C447.768,285.123 446.914,285.172 446.093,285.172C442.539,285.172 439.606,284.257 437.547,283.333C436.815,284.039 435.875,284.543 434.759,284.663C434.59,284.681 434.425,284.69 434.264,284.69C431.821,284.69 430.239,282.735 430.056,282.498C429.827,282.199 429.882,281.77 430.181,281.54" style="fill:rgb(39,39,36);fill-rule:nonzero;"/>
            </g>
            <g transform="matrix(6.30497,0,0,6.30497,1974.95,-623.251)">
                <path d="M433.5,284.254C433.029,284.254 432.646,283.871 432.646,283.399C432.646,282.928 433.029,282.545 433.5,282.545C433.972,282.545 434.355,282.928 434.355,283.399C434.355,283.871 433.972,284.254 433.5,284.254" style="fill:rgb(39,39,36);fill-rule:nonzero;"/>
            </g>
            <g transform="matrix(6.30497,0,0,6.30497,1974.95,-577.459)">
                <path d="M435.52,280.622C435.048,280.622 434.665,280.24 434.665,279.768C434.665,279.297 435.048,278.914 435.52,278.914C435.991,278.914 436.374,279.297 436.374,279.768C436.374,280.24 435.991,280.622 435.52,280.622" style="fill:rgb(39,39,36);fill-rule:nonzero;"/>
            </g>
            <g transform="matrix(0,6.30497,6.30497,0,2924.81,-1534.83)">
                <path d="M431.016,279.51C430.545,279.51 430.162,279.893 430.162,280.364C430.162,280.835 430.545,281.218 431.016,281.218C431.488,281.218 431.871,280.835 431.871,280.364C431.871,279.893 431.488,279.51 431.016,279.51" style="fill:rgb(39,39,36);fill-rule:nonzero;"/>
            </g>
        </g>
    </g>
</svg>
