<?xml version="1.0" encoding="UTF-8" standalone="no"?>
<!DOCTYPE svg PUBLIC "-//W3C//DTD SVG 1.1//EN" "http://www.w3.org/Graphics/SVG/1.1/DTD/svg11.dtd">
<svg width="100%" height="100%" viewBox="0 0 458 317" version="1.1" xmlns="http://www.w3.org/2000/svg" xmlns:xlink="http://www.w3.org/1999/xlink" xml:space="preserve" xmlns:serif="http://www.serif.com/" style="fill-rule:evenodd;clip-rule:evenodd;stroke-linejoin:round;stroke-miterlimit:2;">
    <g transform="matrix(1,0,0,1,-3942,-1406)">
        <g>
            <g transform="matrix(6.30497,0,0,6.30497,1974.95,84.8182)">
                <path d="M369.051,227.332C368.667,222.913 367.374,218.764 365.409,215.65C363.518,212.651 361.253,210.995 359.03,210.99L359.018,210.99C357.665,210.99 356.42,211.598 355.316,212.798C352.719,215.623 351.431,221.128 351.956,227.164C352.234,230.362 352.989,233.415 354.129,236.04C354.539,235.806 354.957,235.585 355.385,235.385C355.431,235.364 355.477,235.344 355.523,235.323C355.202,233.804 354.974,232.152 354.869,230.418C354.394,222.699 356.462,216.29 359.49,216.104C361.774,215.963 363.948,219.404 365.085,224.416C363.393,225.587 361.702,226.757 360.011,227.927C361.96,228.696 363.907,229.466 365.855,230.235C365.92,231.569 365.908,232.859 365.828,234.08C365.855,234.086 365.882,234.09 365.91,234.095C366.866,234.286 367.806,234.56 368.713,234.909C369.157,232.617 369.285,230.028 369.051,227.332ZM361.977,243.506L361.989,243.506C363.342,243.506 364.587,242.898 365.691,241.698C366.894,240.389 367.816,238.504 368.407,236.258C367.515,235.901 366.588,235.624 365.643,235.436C364.413,235.19 363.159,235.094 361.917,235.149C359.857,235.24 357.855,235.736 355.964,236.623C355.536,236.823 355.12,237.044 354.713,237.281C354.991,237.826 355.284,238.35 355.596,238.846C357.489,241.845 359.754,243.5 361.977,243.506ZM369.853,236.063C369.213,238.768 368.137,241.055 366.697,242.623C365.342,244.095 363.716,244.873 361.989,244.873L361.974,244.873C359.266,244.866 356.591,242.984 354.441,239.575C353.99,238.861 353.577,238.094 353.196,237.288C353.193,237.28 353.188,237.272 353.184,237.263C351.814,234.353 350.909,230.901 350.594,227.283C350.037,220.876 351.462,214.972 354.31,211.873C355.665,210.401 357.291,209.623 359.018,209.623L359.033,209.623C361.739,209.63 364.415,211.512 366.566,214.921C368.643,218.216 370.01,222.582 370.413,227.213C370.683,230.33 370.484,233.326 369.881,235.94C369.876,235.981 369.866,236.022 369.853,236.063" style="fill:rgb(39,39,36);fill-rule:nonzero;"/>
            </g>
            <g transform="matrix(6.30497,0,0,6.30497,1974.95,101.612)">
                <path d="M342.018,226C341.634,221.581 340.341,217.433 338.378,214.318C336.485,211.319 334.22,209.664 331.997,209.658L331.985,209.658C330.632,209.658 329.387,210.266 328.285,211.467C325.687,214.292 324.398,219.797 324.923,225.833C325.201,229.03 325.958,232.084 327.098,234.709C327.506,234.474 327.924,234.254 328.352,234.054C328.398,234.032 328.444,234.012 328.49,233.991C328.171,232.473 327.943,230.82 327.836,229.086C327.361,221.368 329.429,214.958 332.457,214.772C334.741,214.632 336.915,218.072 338.052,223.085C336.36,224.255 334.669,225.425 332.978,226.595C334.927,227.364 336.875,228.135 338.822,228.903C338.887,230.237 338.875,231.527 338.795,232.749C338.824,232.754 338.851,232.758 338.878,232.764C339.835,232.955 340.775,233.229 341.68,233.578C342.124,231.285 342.252,228.696 342.018,226ZM334.946,242.174L334.958,242.174C336.309,242.174 337.554,241.566 338.658,240.366C339.861,239.057 340.783,237.172 341.374,234.926C340.482,234.569 339.557,234.293 338.61,234.104C337.38,233.858 336.128,233.762 334.884,233.818C332.824,233.909 330.822,234.404 328.932,235.291C328.505,235.491 328.087,235.712 327.68,235.949C327.959,236.494 328.253,237.018 328.565,237.514C330.456,240.513 332.723,242.169 334.946,242.174ZM342.821,234.731C342.181,237.437 341.104,239.723 339.664,241.291C338.31,242.763 336.683,243.541 334.956,243.541L334.941,243.541C332.235,243.534 329.559,241.652 327.409,238.243C326.958,237.529 326.544,236.762 326.163,235.955C326.16,235.947 326.155,235.94 326.151,235.931C324.781,233.022 323.876,229.569 323.563,225.951C323.006,219.545 324.429,213.64 327.279,210.542C328.632,209.069 330.26,208.291 331.985,208.291L332.001,208.291C334.708,208.298 337.384,210.18 339.533,213.59C341.612,216.884 342.977,221.25 343.38,225.881C343.652,228.998 343.452,231.995 342.849,234.608C342.844,234.65 342.835,234.69 342.821,234.731" style="fill:rgb(39,39,36);fill-rule:nonzero;"/>
            </g>
            <g transform="matrix(6.30497,0,0,6.30497,1974.95,290.594)">
                <path d="M352.356,208.67C352.988,209.459 353.278,210.466 353.157,211.433C352.926,213.254 351.267,214.67 349.412,214.67C349.349,214.67 349.284,214.669 349.221,214.665C347.372,214.569 345.869,213.146 345.65,211.281C345.606,210.906 345.874,210.566 346.248,210.522C346.622,210.48 346.962,210.746 347.007,211.121C347.147,212.303 348.129,213.24 349.292,213.301C350.524,213.363 351.65,212.45 351.8,211.262C351.877,210.659 351.689,210.025 351.29,209.524C350.859,208.986 350.244,208.653 349.557,208.586C349.181,208.55 348.906,208.216 348.942,207.84C348.98,207.464 349.313,207.188 349.689,207.226C350.746,207.328 351.693,207.841 352.356,208.67" style="fill:rgb(39,39,36);fill-rule:nonzero;"/>
            </g>
            <g transform="matrix(6.30497,0,0,6.30497,1974.95,290.089)">
                <path d="M312.654,205.634C313.023,205.556 313.385,205.791 313.463,206.159C313.561,206.608 314.15,208.899 316.378,209.928C316.646,210.053 319.055,211.104 320.888,209.776C321.585,209.27 322.434,208.24 322.509,206.203C322.581,204.299 321.576,202.931 321.141,202.432C320.891,202.147 320.922,201.716 321.206,201.468C321.491,201.22 321.921,201.249 322.169,201.534C322.712,202.156 323.965,203.862 323.876,206.255C323.797,208.339 323.039,209.625 322.253,210.403C324.829,213.324 334.131,222.507 348.761,222.013C363.491,221.518 372.157,211.641 374.55,208.492C374.528,208.474 374.504,208.458 374.482,208.439C373.32,207.476 372.552,205.851 372.427,204.091C372.289,202.174 373.004,200.203 374.339,198.82C374.6,198.548 375.034,198.54 375.306,198.802C375.577,199.065 375.584,199.497 375.323,199.769C374.253,200.878 373.679,202.457 373.79,203.993C373.889,205.389 374.473,206.658 375.353,207.387C376.003,207.925 376.773,208.148 377.641,208.047C379.732,207.806 381.819,206.23 383.225,203.834C383.415,203.508 383.834,203.399 384.16,203.589C384.486,203.78 384.594,204.199 384.404,204.525C382.783,207.29 380.313,209.115 377.798,209.405C377.612,209.426 377.429,209.437 377.246,209.437C376.723,209.437 376.221,209.347 375.748,209.173C374.74,210.51 372.271,213.497 368.397,216.385C362.493,220.787 355.902,223.14 348.807,223.379C348.413,223.392 348.021,223.399 347.634,223.399C332.954,223.399 323.669,214.096 321.151,211.221C320.336,211.662 319.487,211.813 318.71,211.813C317.309,211.813 316.137,211.323 315.804,211.169C312.987,209.866 312.247,207.005 312.127,206.445C312.049,206.076 312.285,205.713 312.654,205.634" style="fill:rgb(39,39,36);fill-rule:nonzero;"/>
            </g>
            <g transform="matrix(6.30497,0,0,6.30497,1974.95,472.606)">
                <path d="M342.437,196.13C345.063,196.818 347.763,197.055 350.468,196.835C353.15,196.615 355.757,195.952 358.217,194.862C358.562,194.709 358.967,194.865 359.119,195.21C359.271,195.555 359.116,195.959 358.77,196.112C356.17,197.263 353.415,197.965 350.579,198.197C349.889,198.253 349.198,198.281 348.508,198.281C346.346,198.281 344.195,198.004 342.09,197.452C341.724,197.356 341.508,196.982 341.603,196.617C341.699,196.253 342.071,196.034 342.437,196.13" style="fill:rgb(39,39,36);fill-rule:nonzero;"/>
            </g>
        </g>
    </g>
</svg>
