<?xml version="1.0" encoding="UTF-8" standalone="no"?>
<!DOCTYPE svg PUBLIC "-//W3C//DTD SVG 1.1//EN" "http://www.w3.org/Graphics/SVG/1.1/DTD/svg11.dtd">
<svg width="100%" height="100%" viewBox="0 0 208 362" version="1.1" xmlns="http://www.w3.org/2000/svg" xmlns:xlink="http://www.w3.org/1999/xlink" xml:space="preserve" xmlns:serif="http://www.serif.com/" style="fill-rule:evenodd;clip-rule:evenodd;stroke-linejoin:round;stroke-miterlimit:2;">
    <g transform="matrix(1,0,0,1,-2300,-1386)">
        <g>
            <g transform="matrix(6.30497,0,0,6.30497,1974.95,82.5194)">
                <path d="M81.065,213.236C81.065,210.466 78.811,208.213 76.041,208.213C75.981,208.213 75.921,208.216 75.86,208.218C76.226,209.619 76.553,211.262 76.734,213.113C76.921,215.015 76.915,216.725 76.823,218.18C76.061,218.921 75.287,219.703 74.506,220.528C73.884,221.184 73.288,221.835 72.718,222.476C74.452,223.559 76.184,224.644 77.918,225.727C78.085,229.287 77.938,232.144 77.756,234.175C77.588,236.048 77.29,238.339 77.09,239.871C76.931,241.092 76.782,242.154 76.659,243.005C79.139,242.699 81.065,240.581 81.065,238.021L81.065,213.236ZM76.041,244.411C74.807,244.411 73.655,244.059 72.678,243.452C72.719,243.531 72.746,243.62 72.753,243.715C72.842,244.846 72.446,245.97 71.669,246.797C70.94,247.572 69.948,248.014 68.94,248.014C68.921,248.014 68.902,248.014 68.884,248.013C66.915,247.981 65.267,246.348 65.132,244.294C65.108,243.917 65.393,243.592 65.769,243.568C66.145,243.544 66.471,243.828 66.496,244.205C66.583,245.531 67.664,246.627 68.906,246.647C69.548,246.661 70.194,246.371 70.673,245.861C71.188,245.313 71.449,244.57 71.391,243.821C71.361,243.445 71.642,243.116 72.019,243.087C72.065,243.083 72.111,243.085 72.156,243.09C70.634,241.921 69.65,240.084 69.65,238.021L69.65,213.236C69.65,211.528 70.315,209.923 71.522,208.718C72.401,207.839 73.505,207.24 74.718,206.984C75.151,206.893 75.596,206.847 76.041,206.847C79.565,206.847 82.432,209.713 82.432,213.236L82.432,238.021C82.432,241.545 79.565,244.411 76.041,244.411" style="fill:rgb(39,39,36);fill-rule:nonzero;"/>
            </g>
            <g transform="matrix(6.30497,0,0,6.30497,1974.95,59.8077)">
                <path d="M63.068,241.623L63.068,216.838C63.068,214.069 60.814,211.816 58.043,211.816C57.983,211.816 57.923,211.818 57.863,211.82C58.229,213.221 58.555,214.864 58.737,216.715C58.924,218.617 58.917,220.327 58.826,221.782C58.064,222.523 57.29,223.306 56.508,224.13C55.886,224.787 55.29,225.437 54.721,226.079C56.455,227.162 58.187,228.246 59.921,229.329C60.087,232.889 59.941,235.746 59.758,237.777C59.591,239.65 59.292,241.942 59.092,243.473C58.933,244.694 58.785,245.756 58.662,246.608C61.141,246.302 63.068,244.184 63.068,241.623ZM53.525,212.32C54.403,211.442 55.508,210.842 56.72,210.587C57.154,210.495 57.599,210.449 58.043,210.449C61.567,210.449 64.434,213.315 64.434,216.838L64.434,241.623C64.434,245.147 61.567,248.014 58.043,248.014C54.519,248.014 51.652,245.147 51.652,241.623L51.652,216.838C51.652,215.13 52.318,213.525 53.525,212.32" style="fill:rgb(39,39,36);fill-rule:nonzero;"/>
            </g>
            <g transform="matrix(6.30497,0,0,6.30497,1974.95,416.65)">
                <path d="M55.079,203.57C57.151,203.422 58.871,201.844 59.169,199.82C59.454,197.886 58.389,195.966 56.58,195.151C56.236,194.996 56.083,194.591 56.238,194.247C56.393,193.903 56.797,193.749 57.142,193.905C58.475,194.506 59.498,195.568 60.07,196.835C61.532,197.778 64.399,199.193 68.177,198.949C71.968,198.704 74.632,196.915 75.923,195.826C76.427,194.951 77.177,194.21 78.113,193.728C78.448,193.555 78.86,193.687 79.033,194.022C79.206,194.358 79.075,194.77 78.739,194.943C77.304,195.683 76.445,197.23 76.603,198.792C76.777,200.519 78.128,201.933 79.888,202.23C80.26,202.293 80.51,202.645 80.448,203.017C80.391,203.351 80.102,203.587 79.775,203.587C79.737,203.587 79.699,203.584 79.66,203.577C78.513,203.384 77.498,202.833 76.727,202.052C75.259,205.781 71.702,208.311 67.769,208.311C67.655,208.311 67.54,208.308 67.425,208.304C63.957,208.174 60.799,206.043 59.217,202.879C58.226,204.044 56.782,204.818 55.177,204.933C55.16,204.934 55.143,204.935 55.127,204.935C54.772,204.935 54.472,204.66 54.446,204.3C54.419,203.924 54.703,203.597 55.079,203.57" style="fill:rgb(39,39,36);fill-rule:nonzero;"/>
            </g>
            <g transform="matrix(6.30497,0,0,6.30497,1974.95,460.595)">
                <path d="M66.098,196.063C66.607,195.671 67.48,195.75 68.234,196.332C68.966,195.725 69.836,195.615 70.359,195.99C70.83,196.328 70.856,196.943 70.857,196.979C70.881,197.877 69.858,198.82 68.29,199.277L68.29,199.281C68.288,199.28 68.286,199.28 68.285,199.279C68.283,199.28 68.281,199.28 68.279,199.281C68.279,199.28 68.279,199.279 68.279,199.277C66.697,198.875 65.641,197.968 65.634,197.069C65.634,197.033 65.638,196.418 66.098,196.063" style="fill:white;fill-rule:nonzero;"/>
            </g>
            <g transform="matrix(6.30497,0,0,6.30497,1974.95,527.138)">
                <path d="M64.048,191.148C64.765,191.578 66.256,192.287 68.192,192.207C69.896,192.134 71.194,191.495 71.983,190.972C72.298,190.763 72.722,190.849 72.93,191.164C73.139,191.478 73.053,191.901 72.738,192.111C71.805,192.73 70.269,193.486 68.25,193.572C68.126,193.577 68.004,193.579 67.884,193.579C65.771,193.579 64.147,192.802 63.344,192.32C63.021,192.125 62.916,191.705 63.11,191.382C63.305,191.058 63.725,190.954 64.048,191.148" style="fill:rgb(39,39,36);fill-rule:nonzero;"/>
            </g>
            <g transform="matrix(-6.30497,0,0,6.30497,2677.16,375.186)">
                <path d="M55.687,203.236C55.143,203.236 54.703,203.677 54.703,204.221C54.703,204.765 55.143,205.206 55.687,205.206C56.231,205.206 56.672,204.765 56.672,204.221C56.672,203.677 56.231,203.236 55.687,203.236" style="fill:rgb(39,39,36);fill-rule:nonzero;"/>
            </g>
            <g transform="matrix(-6.30497,0,0,6.30497,2649.07,396.632)">
                <path d="M53.46,201.536C52.916,201.536 52.475,201.977 52.475,202.52C52.475,203.064 52.916,203.505 53.46,203.505C54.003,203.505 54.444,203.064 54.444,202.52C54.444,201.977 54.003,201.536 53.46,201.536" style="fill:rgb(39,39,36);fill-rule:nonzero;"/>
            </g>
            <g transform="matrix(-6.30497,0,0,6.30497,2679.93,417.823)">
                <path d="M55.906,199.855C55.362,199.855 54.922,200.296 54.922,200.84C54.922,201.384 55.362,201.825 55.906,201.825C56.45,201.825 56.891,201.384 56.891,200.84C56.891,200.296 56.45,199.855 55.906,199.855" style="fill:rgb(39,39,36);fill-rule:nonzero;"/>
            </g>
            <g transform="matrix(6.30497,0,0,6.30497,1974.95,369.543)">
                <path d="M81.254,205.653C80.71,205.653 80.27,205.212 80.27,204.668C80.27,204.125 80.71,203.684 81.254,203.684C81.798,203.684 82.239,204.125 82.239,204.668C82.239,205.212 81.798,205.653 81.254,205.653" style="fill:rgb(39,39,36);fill-rule:nonzero;"/>
            </g>
            <g transform="matrix(-6.30497,0,0,6.30497,3027.65,390.988)">
                <path d="M83.482,201.983C82.938,201.983 82.497,202.424 82.497,202.968C82.497,203.512 82.938,203.952 83.482,203.952C84.025,203.952 84.466,203.512 84.466,202.968C84.466,202.424 84.025,201.983 83.482,201.983" style="fill:rgb(39,39,36);fill-rule:nonzero;"/>
            </g>
            <g transform="matrix(0,6.30497,6.30497,0,1216.76,1170.37)">
                <path d="M81.035,200.303C80.491,200.303 80.05,200.744 80.05,201.287C80.05,201.831 80.491,202.272 81.035,202.272C81.579,202.272 82.02,201.831 82.02,201.287C82.02,200.744 81.579,200.303 81.035,200.303" style="fill:rgb(39,39,36);fill-rule:nonzero;"/>
            </g>
        </g>
    </g>
</svg>
