<?xml version="1.0" encoding="UTF-8" standalone="no"?>
<!DOCTYPE svg PUBLIC "-//W3C//DTD SVG 1.1//EN" "http://www.w3.org/Graphics/SVG/1.1/DTD/svg11.dtd">
<svg width="100%" height="100%" viewBox="0 0 316 328" version="1.1" xmlns="http://www.w3.org/2000/svg" xmlns:xlink="http://www.w3.org/1999/xlink" xml:space="preserve" xmlns:serif="http://www.serif.com/" style="fill-rule:evenodd;clip-rule:evenodd;stroke-linejoin:round;stroke-miterlimit:2;">
    <g transform="matrix(1,0,0,1,-4640,-2372)">
        <g>
            <g transform="matrix(6.30497,0,0,6.30497,1974.95,2032.9)">
                <path d="M424.813,72.701C425.794,77.45 427.782,81.902 430.412,85.235C432.077,87.345 433.859,88.834 435.615,89.613C434.127,84.003 432.638,78.393 431.148,72.783C432.305,72.205 433.459,71.63 434.614,71.054C433.234,69.925 431.854,68.794 430.473,67.665C429.804,63.754 429.134,59.844 428.464,55.933C427.841,56.287 427.268,56.782 426.751,57.423C424.25,60.517 423.508,66.371 424.813,72.701ZM442.584,88.098C445.085,85.004 445.826,79.15 444.521,72.819C443.54,68.069 441.552,63.619 438.921,60.286C437.047,57.91 435.022,56.321 433.055,55.648C435.431,67.07 437.807,78.49 440.183,89.912C441.077,89.572 441.881,88.966 442.584,88.098ZM425.688,56.564C427.077,54.847 428.884,53.931 430.914,53.916L430.967,53.916C433.979,53.916 437.182,55.875 439.994,59.439C442.755,62.936 444.837,67.589 445.859,72.544C447.246,79.264 446.398,85.553 443.646,88.957C442.257,90.674 440.45,91.59 438.419,91.605L438.367,91.605C435.356,91.605 432.153,89.646 429.339,86.082C426.58,82.585 424.497,77.932 423.476,72.978C422.089,66.257 422.936,59.967 425.688,56.564" style="fill:rgb(39,39,36);fill-rule:nonzero;"/>
            </g>
            <g transform="matrix(6.30497,0,0,6.30497,1974.95,2038.92)">
                <path d="M461.867,88.657C460.38,83.046 458.89,77.436 457.4,71.828C458.557,71.25 459.711,70.675 460.866,70.099C459.486,68.97 458.106,67.839 456.725,66.71C456.056,62.799 455.386,58.889 454.716,54.978C454.093,55.332 453.52,55.829 453.003,56.468C450.502,59.562 449.76,65.416 451.066,71.746C452.046,76.495 454.035,80.947 456.664,84.28C458.33,86.39 460.111,87.878 461.867,88.657ZM468.836,87.143C471.337,84.049 472.078,78.195 470.773,71.864C469.792,67.114 467.804,62.664 465.173,59.331C463.299,56.955 461.275,55.366 459.307,54.693C461.683,66.115 464.059,77.535 466.436,88.957C467.331,88.617 468.134,88.011 468.836,87.143ZM446.914,86.723C447.283,86.643 447.647,86.877 447.727,87.246C448.095,88.925 449.53,90.153 451.218,90.234C452.984,90.312 454.622,89.094 455.02,87.386C455.405,85.744 454.609,84.015 453.131,83.277C451.908,82.666 450.427,82.814 449.263,83.667C448.959,83.89 448.532,83.824 448.308,83.52C448.086,83.214 448.151,82.787 448.455,82.565C449.938,81.478 451.814,81.241 453.432,81.912C451.746,78.982 450.461,75.581 449.728,72.023C448.341,65.302 449.188,59.012 451.94,55.609C453.329,53.892 455.137,52.976 457.168,52.961L457.219,52.961C460.231,52.961 463.434,54.92 466.246,58.484C469.007,61.981 471.089,66.634 472.111,71.589C473.498,78.309 472.651,84.598 469.898,88.002C468.51,89.719 466.702,90.635 464.673,90.65L464.62,90.65C461.915,90.65 459.056,89.068 456.462,86.164C456.501,86.67 456.471,87.186 456.351,87.697C455.823,89.96 453.713,91.605 451.388,91.605C451.31,91.605 451.231,91.604 451.153,91.598C448.848,91.489 446.89,89.818 446.391,87.538C446.311,87.169 446.545,86.805 446.914,86.723" style="fill:rgb(39,39,36);fill-rule:nonzero;"/>
            </g>
            <g transform="matrix(0,6.30497,6.30497,0,4551.11,-205.611)">
                <path d="M454.575,33.165C457.584,33.165 460.023,38.904 460.023,45.983C460.023,53.062 457.584,58.802 454.575,58.802C451.567,58.802 449.127,53.062 449.127,45.983C449.127,38.904 451.567,33.165 454.575,33.165" style="fill:rgb(39,39,36);fill-rule:nonzero;"/>
            </g>
            <g transform="matrix(6.30497,0,0,6.30497,1974.95,2336.09)">
                <path d="M464.295,47.897C464.729,49.24 464.063,50.52 463.2,50.805C462.24,51.123 460.757,50.301 460.514,48.702C460.031,49.701 459.064,50.364 458.008,50.402C456.713,50.45 455.494,49.554 455.099,48.21C454.675,49.942 453.158,51.044 451.696,50.895C450.133,50.737 449.337,49.218 449.28,49.105C449.041,50.482 447.881,51.447 446.684,51.432C445.247,51.413 443.942,49.985 444.154,48.277C446.171,47.363 449.83,46.018 454.575,46.001C458.905,45.986 462.305,47.084 464.295,47.897" style="fill:white;fill-rule:nonzero;"/>
            </g>
            <g transform="matrix(6.30497,0,0,6.30497,1974.95,2370.55)">
                <path d="M454.575,41.219C461.726,41.219 466.711,43.731 466.711,45.984C466.711,48.237 461.726,50.748 454.575,50.748C447.423,50.748 442.44,48.237 442.44,45.984C442.44,43.731 447.423,41.219 454.575,41.219ZM454.575,52.115C458.089,52.115 461.403,51.529 463.905,50.465C466.596,49.322 468.077,47.732 468.077,45.984C468.077,44.238 466.596,42.646 463.905,41.503C461.403,40.439 458.089,39.853 454.575,39.853C451.062,39.853 447.748,40.439 445.244,41.503C442.555,42.646 441.073,44.238 441.073,45.984C441.073,47.732 442.555,49.322 445.244,50.465C447.748,51.529 451.062,52.115 454.575,52.115" style="fill:rgb(39,39,36);fill-rule:nonzero;"/>
            </g>
        </g>
    </g>
</svg>
