<?xml version="1.0" encoding="UTF-8" standalone="no"?><!DOCTYPE svg PUBLIC "-//W3C//DTD SVG 1.1//EN" "http://www.w3.org/Graphics/SVG/1.1/DTD/svg11.dtd"><svg width="100%" height="100%" viewBox="0 0 2700 1200" version="1.1" xmlns="http://www.w3.org/2000/svg" xmlns:xlink="http://www.w3.org/1999/xlink" xml:space="preserve" xmlns:serif="http://www.serif.com/" style="fill-rule:evenodd;clip-rule:evenodd;stroke-linejoin:round;stroke-miterlimit:10;"><g id="Layer0"><path d="M295.301,1016.32l0,-10.417" style="fill:none;fill-rule:nonzero;stroke:#000;stroke-width:2.08px;"/><rect x="0" y="0" width="2700" height="1200" style="fill:#fff;"/><path d="M460.231,1016.32l-0,-10.417" style="fill:none;fill-rule:nonzero;stroke:#000;stroke-width:2.08px;"/><path d="M625.161,1016.32l-0,-10.417" style="fill:none;fill-rule:nonzero;stroke:#000;stroke-width:2.08px;"/><path d="M790.09,1016.32l0,-10.417" style="fill:none;fill-rule:nonzero;stroke:#000;stroke-width:2.08px;"/><path d="M955.02,1016.32l0,-10.417" style="fill:none;fill-rule:nonzero;stroke:#000;stroke-width:2.08px;"/><path d="M1119.95,1016.32l-0,-10.417" style="fill:none;fill-rule:nonzero;stroke:#000;stroke-width:2.08px;"/><path d="M1284.88,1016.32l-0,-10.417" style="fill:none;fill-rule:nonzero;stroke:#000;stroke-width:2.08px;"/><path d="M265.614,915.637l10.417,-0" style="fill:none;fill-rule:nonzero;stroke:#000;stroke-width:2.08px;"/><path d="M265.614,720.502l10.417,-0" style="fill:none;fill-rule:nonzero;stroke:#000;stroke-width:2.08px;"/><path d="M265.614,525.367l10.417,-0" style="fill:none;fill-rule:nonzero;stroke:#000;stroke-width:2.08px;"/><path d="M265.614,330.231l10.417,0" style="fill:none;fill-rule:nonzero;stroke:#000;stroke-width:2.08px;"/><path d="M265.614,135.096l10.417,0" style="fill:none;fill-rule:nonzero;stroke:#000;stroke-width:2.08px;"/><path d="M1645.3,1016.32l0,-10.417" style="fill:none;fill-rule:nonzero;stroke:#000;stroke-width:2.08px;"/><path d="M1810.23,1016.32l-0,-10.417" style="fill:none;fill-rule:nonzero;stroke:#000;stroke-width:2.08px;"/><path d="M1975.16,1016.32l-0,-10.417" style="fill:none;fill-rule:nonzero;stroke:#000;stroke-width:2.08px;"/><path d="M2140.09,1016.32l0,-10.417" style="fill:none;fill-rule:nonzero;stroke:#000;stroke-width:2.08px;"/><path d="M2305.02,1016.32l0,-10.417" style="fill:none;fill-rule:nonzero;stroke:#000;stroke-width:2.08px;"/><path d="M2469.95,1016.32l-0,-10.417" style="fill:none;fill-rule:nonzero;stroke:#000;stroke-width:2.08px;"/><path d="M2634.88,1016.32l-0,-10.417" style="fill:none;fill-rule:nonzero;stroke:#000;stroke-width:2.08px;"/><path d="M1615.61,915.637l10.417,-0" style="fill:none;fill-rule:nonzero;stroke:#000;stroke-width:2.08px;"/><path d="M1615.61,720.502l10.417,-0" style="fill:none;fill-rule:nonzero;stroke:#000;stroke-width:2.08px;"/><path d="M1615.61,525.367l10.417,-0" style="fill:none;fill-rule:nonzero;stroke:#000;stroke-width:2.08px;"/><path d="M1615.61,330.231l10.417,0" style="fill:none;fill-rule:nonzero;stroke:#000;stroke-width:2.08px;"/><path d="M1615.61,135.096l10.417,0" style="fill:none;fill-rule:nonzero;stroke:#000;stroke-width:2.08px;"/><text x="278.635px" y="1067.88px" style="font-family:'HelveticaNeue', 'Helvetica Neue';font-size:50px;">1</text><text x="443.564px" y="1068.53px" style="font-family:'HelveticaNeue', 'Helvetica Neue';font-size:50px;">2</text><text x="608.494px" y="1068.53px" style="font-family:'HelveticaNeue', 'Helvetica Neue';font-size:50px;">3</text><text x="773.424px" y="1067.88px" style="font-family:'HelveticaNeue', 'Helvetica Neue';font-size:50px;">4</text><text x="938.353px" y="1067.88px" style="font-family:'HelveticaNeue', 'Helvetica Neue';font-size:50px;">5</text><g transform="matrix(4.16667,0,0,4.16667,0,0)"><text x="259.626px" y="256.291px" style="font-family:'HelveticaNeue', 'Helvetica Neue';font-size:12px;">&gt;</text><text x="272.018px" y="256.291px" style="font-family:'HelveticaNeue', 'Helvetica Neue';font-size:12px;">5</text><text x="295.371px" y="255.666px" style="font-family:'HelveticaNeue', 'Helvetica Neue';font-size:12px;">f<tspan x="299.614px 302.969px 310.332px 317.467px " y="255.666px 255.666px 255.666px 255.666px ">inal</tspan></text><text x="124.606px" y="275.196px" style="font-family:'HelveticaNeue', 'Helvetica Neue';font-size:16px;">F<tspan x="134.84px 139.442px 148.78px 158.421px 164.511px 169.113px 179.347px " y="275.196px 275.196px 275.196px 275.196px 275.196px 275.196px 275.196px ">ixation</tspan></text><text x="193.278px" y="275.196px" style="font-family:'HelveticaNeue', 'Helvetica Neue';font-size:16px;">n<tspan x="203.224px 213.17px 227.868px 238.405px 248.047px " y="275.196px 275.196px 275.196px 275.196px 275.196px ">umber</tspan></text></g><text x="155.197px" y="934.256px" style="font-family:'HelveticaNeue', 'Helvetica Neue';font-size:50px;">3<tspan x="187.009px 218.82px " y="934.256px 934.256px ">00</tspan></text><text x="155.197px" y="739.121px" style="font-family:'HelveticaNeue', 'Helvetica Neue';font-size:50px;">6<tspan x="187.009px 218.82px " y="739.121px 739.121px ">00</tspan></text><text x="155.197px" y="543.986px" style="font-family:'HelveticaNeue', 'Helvetica Neue';font-size:50px;">9<tspan x="187.009px 218.82px " y="543.986px 543.986px ">00</tspan></text><text x="121.864px" y="348.851px" style="font-family:'HelveticaNeue', 'Helvetica Neue';font-size:50px;">1<tspan x="153.675px 185.487px 217.298px " y="348.851px 348.851px 348.851px ">200</tspan></text><text x="121.864px" y="153.716px" style="font-family:'HelveticaNeue', 'Helvetica Neue';font-size:50px;">1<tspan x="153.675px 185.487px 217.298px " y="153.716px 153.716px 153.716px ">500</tspan></text><g transform="matrix(5.38149e-17,-4.16667,4.16667,-6.82002e-17,4.16667,122.799)"><text x="-164.252px" y="21.919px" style="font-family:'HelveticaNeue', 'Helvetica Neue';font-size:16px;">F<tspan x="-154.014px -149.408px -140.065px -130.419px -124.325px -119.719px -109.48px " y="21.919px 21.919px 21.919px 21.919px 21.919px 21.919px 21.919px ">ixation</tspan></text><text x="-95.58px" y="21.919px" style="font-family:'HelveticaNeue', 'Helvetica Neue';font-size:16px;">d<tspan x="-85.038px -75.088px -68.705px -59.059px -52.965px -48.359px -38.12px " y="21.919px 21.919px 21.919px 21.919px 21.919px 21.919px 21.919px ">uration</tspan></text></g><g transform="matrix(5.38149e-17,-4.16667,4.16667,-6.82002e-17,1357.01,122.799)"><text x="-164.252px" y="21.919px" style="font-family:'HelveticaNeue', 'Helvetica Neue';font-size:16px;">F<tspan x="-154.014px -149.408px -140.065px -130.419px -124.325px -119.719px -109.48px " y="21.919px 21.919px 21.919px 21.919px 21.919px 21.919px 21.919px ">ixation</tspan></text><text x="-95.58px" y="21.919px" style="font-family:'HelveticaNeue', 'Helvetica Neue';font-size:16px;">d<tspan x="-85.038px -75.088px -68.705px -59.059px -52.965px -48.359px -38.12px " y="21.919px 21.919px 21.919px 21.919px 21.919px 21.919px 21.919px ">uration</tspan></text></g><text x="1628.63px" y="1067.88px" style="font-family:'HelveticaNeue', 'Helvetica Neue';font-size:50px;">1</text><text x="1793.56px" y="1068.53px" style="font-family:'HelveticaNeue', 'Helvetica Neue';font-size:50px;">2</text><text x="1958.49px" y="1068.53px" style="font-family:'HelveticaNeue', 'Helvetica Neue';font-size:50px;">3</text><text x="2123.42px" y="1067.88px" style="font-family:'HelveticaNeue', 'Helvetica Neue';font-size:50px;">4</text><text x="2288.35px" y="1067.88px" style="font-family:'HelveticaNeue', 'Helvetica Neue';font-size:50px;">5</text><g transform="matrix(4.16667,0,0,4.16667,0,0)"><text x="583.626px" y="256.291px" style="font-family:'HelveticaNeue', 'Helvetica Neue';font-size:12px;">&gt;</text><text x="596.018px" y="256.291px" style="font-family:'HelveticaNeue', 'Helvetica Neue';font-size:12px;">5</text><text x="619.371px" y="255.666px" style="font-family:'HelveticaNeue', 'Helvetica Neue';font-size:12px;">f<tspan x="623.614px 626.969px 634.332px 641.467px " y="255.666px 255.666px 255.666px 255.666px ">inal</tspan></text><text x="448.606px" y="275.196px" style="font-family:'HelveticaNeue', 'Helvetica Neue';font-size:16px;">F<tspan x="458.84px 463.442px 472.78px 482.421px 488.511px 493.113px 503.347px " y="275.196px 275.196px 275.196px 275.196px 275.196px 275.196px 275.196px ">ixation</tspan></text><text x="517.278px" y="275.196px" style="font-family:'HelveticaNeue', 'Helvetica Neue';font-size:16px;">n<tspan x="527.224px 537.17px 551.868px 562.405px 572.047px " y="275.196px 275.196px 275.196px 275.196px 275.196px ">umber</tspan></text></g><text x="1505.2px" y="934.256px" style="font-family:'HelveticaNeue', 'Helvetica Neue';font-size:50px;">3<tspan x="1537.01px 1568.82px " y="934.256px 934.256px ">00</tspan></text><text x="1505.2px" y="739.121px" style="font-family:'HelveticaNeue', 'Helvetica Neue';font-size:50px;">6<tspan x="1537.01px 1568.82px " y="739.121px 739.121px ">00</tspan></text><text x="1505.2px" y="543.986px" style="font-family:'HelveticaNeue', 'Helvetica Neue';font-size:50px;">9<tspan x="1537.01px 1568.82px " y="543.986px 543.986px ">00</tspan></text><text x="1471.86px" y="348.851px" style="font-family:'HelveticaNeue', 'Helvetica Neue';font-size:50px;">1<tspan x="1503.67px 1535.49px 1567.3px " y="348.851px 348.851px 348.851px ">200</tspan></text><text x="1471.86px" y="153.716px" style="font-family:'HelveticaNeue', 'Helvetica Neue';font-size:50px;">1<tspan x="1503.67px 1535.49px 1567.3px " y="153.716px 153.716px 153.716px ">500</tspan></text><path d="M265.614,1016.32l-0,-980.884" style="fill:none;fill-rule:nonzero;stroke:#000;stroke-width:4.17px;stroke-linecap:square;stroke-linejoin:miter;"/><path d="M265.614,1016.32l1048.95,-0" style="fill:none;fill-rule:nonzero;stroke:#000;stroke-width:4.17px;stroke-linecap:square;stroke-linejoin:miter;"/><path d="M1615.61,1016.32l-0,-980.884" style="fill:none;fill-rule:nonzero;stroke:#000;stroke-width:4.17px;stroke-linecap:square;stroke-linejoin:miter;"/><path d="M1615.61,1016.32l1048.95,-0" style="fill:none;fill-rule:nonzero;stroke:#000;stroke-width:4.17px;stroke-linecap:square;stroke-linejoin:miter;"/></g></svg>