<?xml version="1.0" encoding="UTF-8" standalone="no"?><!DOCTYPE svg PUBLIC "-//W3C//DTD SVG 1.1//EN" "http://www.w3.org/Graphics/SVG/1.1/DTD/svg11.dtd"><svg width="100%" height="100%" viewBox="0 0 2709 1209" version="1.1" xmlns="http://www.w3.org/2000/svg" xmlns:xlink="http://www.w3.org/1999/xlink" xml:space="preserve" xmlns:serif="http://www.serif.com/" style="fill-rule:evenodd;clip-rule:evenodd;stroke-linejoin:round;stroke-miterlimit:10;"><g id="Layer1"><path d="M299.468,927.617l164.93,-205.436l164.929,-75.545l164.93,-61.468l164.93,-60.382l164.93,-93.535l164.929,303.292" style="fill:none;fill-rule:nonzero;stroke:#ddb3ff;stroke-opacity:0.18;stroke-width:4.17px;"/><path d="M299.468,932.8l164.93,-206.875l164.929,-97.142l164.93,-92.708l164.93,-101.709l164.93,-158.374l164.929,434.22" style="fill:none;fill-rule:nonzero;stroke:#ddb3ff;stroke-opacity:0.18;stroke-width:4.17px;"/><path d="M299.468,911.121l164.93,-217.461l164.929,-87.422l164.93,-83.294l164.93,-73.69l164.93,-114.969l164.929,369.574" style="fill:none;fill-rule:nonzero;stroke:#ddb3ff;stroke-opacity:0.18;stroke-width:4.17px;"/><path d="M299.468,901.653l164.93,-231.996l164.929,-95.296l164.93,-77.414l164.93,-72.817l164.93,-81.339l164.929,324.299" style="fill:none;fill-rule:nonzero;stroke:#ddb3ff;stroke-opacity:0.18;stroke-width:4.17px;"/><path d="M299.468,909.601l164.93,-207.046l164.929,-71.265l164.93,-71.154l164.93,-71.906l164.93,-122.158l164.929,340.871" style="fill:none;fill-rule:nonzero;stroke:#ddb3ff;stroke-opacity:0.18;stroke-width:4.17px;"/><path d="M299.468,912.247l164.93,-223.831l164.929,-85.832l164.93,-79.811l164.93,-73.4l164.93,-128.449l164.929,363.23" style="fill:none;fill-rule:nonzero;stroke:#ddb3ff;stroke-opacity:0.18;stroke-width:4.17px;"/><path d="M299.468,927.388l164.93,-196.283l164.929,-64.402l164.93,-51.409l164.93,-48.699l164.93,-81.465l164.929,258.083" style="fill:none;fill-rule:nonzero;stroke:#ddb3ff;stroke-opacity:0.18;stroke-width:4.17px;"/><path d="M299.468,924.117l164.93,-205.47l164.929,-86.691l164.93,-86.429l164.93,-72.608l164.93,-123.62l164.929,359.831" style="fill:none;fill-rule:nonzero;stroke:#ddb3ff;stroke-opacity:0.18;stroke-width:4.17px;"/><path d="M299.468,897.932l164.93,-220.514l164.929,-69.154l164.93,-60.255l164.93,-54.115l164.93,-63.767l164.929,276.126" style="fill:none;fill-rule:nonzero;stroke:#ddb3ff;stroke-opacity:0.18;stroke-width:4.17px;"/><path d="M299.468,910.377l164.93,-200.952l164.929,-55.946l164.93,-47.844l164.93,-35.995l164.93,-52.571l164.929,230.769" style="fill:none;fill-rule:nonzero;stroke:#ddb3ff;stroke-opacity:0.18;stroke-width:4.17px;"/><path d="M299.468,896.435l164.93,-215.429l164.929,-53.411l164.93,-52.935l164.93,-39.184l164.93,-68.271l164.929,240.147" style="fill:none;fill-rule:nonzero;stroke:#ddb3ff;stroke-opacity:0.18;stroke-width:4.17px;"/><path d="M299.468,884.642l164.93,-181.741l164.929,-19.593l164.93,-38.202l164.93,-17.399l164.93,-40.992l164.929,179.156" style="fill:none;fill-rule:nonzero;stroke:#ddb3ff;stroke-opacity:0.18;stroke-width:4.17px;"/><path d="M299.468,924.373l164.93,-237.051l164.929,-120.534l164.93,-96.499l164.93,-94.07l164.93,-138.659l164.929,477.086" style="fill:none;fill-rule:nonzero;stroke:#ddb3ff;stroke-opacity:0.18;stroke-width:4.17px;"/><path d="M299.468,918.063l164.93,-214.097l164.929,-77.266l164.93,-73.947l164.93,-57.378l164.93,-84.663l164.929,329.154" style="fill:none;fill-rule:nonzero;stroke:#ddb3ff;stroke-opacity:0.18;stroke-width:4.17px;"/><path d="M299.468,928.605l164.93,-222.266l164.929,-109.069l164.93,-99.694l164.93,-88.508l164.93,-138.364l164.929,430.165" style="fill:none;fill-rule:nonzero;stroke:#ddb3ff;stroke-opacity:0.18;stroke-width:4.17px;"/><path d="M299.468,916.525l164.93,-211.408l164.929,-72.772l164.93,-61.667l164.93,-53.216l164.93,-78.3l164.929,304.798" style="fill:none;fill-rule:nonzero;stroke:#ddb3ff;stroke-opacity:0.18;stroke-width:4.17px;"/><path d="M299.468,893.306l164.93,-204.156l164.929,-46.914l164.93,-50.988l164.93,-46.213l164.93,-76.16l164.929,238.709" style="fill:none;fill-rule:nonzero;stroke:#ddb3ff;stroke-opacity:0.18;stroke-width:4.17px;"/><path d="M299.468,892.361l164.93,-179.376l164.929,-15.491l164.93,-40.077l164.93,-22.015l164.93,-33.538l164.929,170.735" style="fill:none;fill-rule:nonzero;stroke:#ddb3ff;stroke-opacity:0.18;stroke-width:4.17px;"/><path d="M299.468,895.56l164.93,-204.847l164.929,-48.049l164.93,-53.248l164.93,-39.517l164.93,-61.368l164.929,251.282" style="fill:none;fill-rule:nonzero;stroke:#ddb3ff;stroke-opacity:0.18;stroke-width:4.17px;"/><path d="M299.468,926.522l164.93,-205.063l164.929,-91.87l164.93,-81.418l164.93,-75.827l164.93,-119.247l164.929,337.293" style="fill:none;fill-rule:nonzero;stroke:#ddb3ff;stroke-opacity:0.18;stroke-width:4.17px;"/><path d="M299.468,869.66l164.93,-187.097l164.929,-12.831l164.93,-39.703l164.93,-23.549l164.93,-29.425l164.929,182.259" style="fill:none;fill-rule:nonzero;stroke:#ddb3ff;stroke-opacity:0.18;stroke-width:4.17px;"/><path d="M299.468,930.517l164.93,-211.722l164.929,-99.293l164.93,-88.718l164.93,-89.016l164.93,-127.183l164.929,387.557" style="fill:none;fill-rule:nonzero;stroke:#ddb3ff;stroke-opacity:0.18;stroke-width:4.17px;"/><path d="M299.468,877.987l164.93,-216.116l164.929,-48.478l164.93,-55.198l164.93,-40.145l164.93,-66.812l164.929,269.658" style="fill:none;fill-rule:nonzero;stroke:#ddb3ff;stroke-opacity:0.18;stroke-width:4.17px;"/><path d="M299.468,924.367l164.93,-172.53l164.929,-32.431l164.93,-44.058l164.93,-37.477l164.93,-49.872l164.929,192.71" style="fill:none;fill-rule:nonzero;stroke:#ddb3ff;stroke-opacity:0.18;stroke-width:4.17px;"/><path d="M299.468,944.087l164.93,-203.453l164.929,-101.432l164.93,-89.88l164.93,-79.303l164.93,-90.833l164.929,309.419" style="fill:none;fill-rule:nonzero;stroke:#ddb3ff;stroke-opacity:0.18;stroke-width:4.17px;"/><path d="M299.468,925.568l164.93,-236.858l164.929,-128.408l164.93,-126.683l164.93,-133.686l164.93,-215.783l164.929,620.218" style="fill:none;fill-rule:nonzero;stroke:#ddb3ff;stroke-opacity:0.18;stroke-width:4.17px;"/><path d="M299.468,913.788l164.93,-199.278l164.929,-60.692l164.93,-59.49l164.93,-46.595l164.93,-77.298l164.929,277.182" style="fill:none;fill-rule:nonzero;stroke:#ddb3ff;stroke-opacity:0.18;stroke-width:4.17px;"/><path d="M299.468,933.663l164.93,-211.692l164.929,-103.967l164.93,-106.635l164.93,-87.333l164.93,-129.217l164.929,402.306" style="fill:none;fill-rule:nonzero;stroke:#ddb3ff;stroke-opacity:0.18;stroke-width:4.17px;"/><path d="M299.468,906.994l164.93,-196.434l164.929,-51.52l164.93,-58.798l164.93,-43.735l164.93,-58.116l164.929,265.898" style="fill:none;fill-rule:nonzero;stroke:#ddb3ff;stroke-opacity:0.18;stroke-width:4.17px;"/><path d="M299.468,875.424l164.93,-191.041l164.929,-18.157l164.93,-42.156l164.93,-23.483l164.93,-42.678l164.929,168.646" style="fill:none;fill-rule:nonzero;stroke:#ddb3ff;stroke-opacity:0.18;stroke-width:4.17px;"/><path d="M299.468,931.815l-0,1.912l164.93,-205.784l164.929,-96.07l164.93,-90.977l164.93,-99.248l164.93,-156.894l164.929,427.299l0,-3.636l-164.929,-441.604l-164.93,159.803l-164.93,104.431l-164.93,94.407l-164.929,98.479l-164.93,207.882Z" style="fill:#ddb3ff;fill-opacity:0.12;fill-rule:nonzero;"/><path d="M299.468,910.127l-0,1.983l164.93,-216.411l164.929,-86.26l164.93,-81.743l164.93,-70.999l164.93,-114.62l164.929,363.559l0,-3.54l-164.929,-376.188l-164.93,115.865l-164.93,76.308l-164.93,85.052l-164.929,88.474l-164.93,218.52Z" style="fill:#ddb3ff;fill-opacity:0.12;fill-rule:nonzero;"/><path d="M299.468,900.658l-0,1.984l164.93,-230.995l164.929,-94.065l164.93,-75.982l164.93,-69.949l164.93,-81.188l164.929,318.514l0,-3.826l-164.929,-330.474l-164.93,81.962l-164.93,75.534l-164.93,79.025l-164.929,96.456l-164.93,233.004Z" style="fill:#ddb3ff;fill-opacity:0.12;fill-rule:nonzero;"/><path d="M299.468,908.553l-0,2.058l164.93,-206.114l164.929,-70.553l164.93,-69.852l164.93,-70.021l164.93,-121.372l164.929,335.912l0,-3.376l-164.929,-345.871l-164.93,122.788l-164.93,74.038l-164.93,72.323l-164.929,72.136l-164.93,207.904Z" style="fill:#ddb3ff;fill-opacity:0.12;fill-rule:nonzero;"/><path d="M299.468,911.3l-0,1.837l164.93,-222.75l164.929,-84.762l164.93,-78.22l164.93,-71.432l164.93,-127.421l164.929,357.354l0,-3.621l-164.929,-369.258l-164.93,129.25l-164.93,75.705l-164.93,81.471l-164.929,87.041l-164.93,224.806Z" style="fill:#ddb3ff;fill-opacity:0.12;fill-rule:nonzero;"/><path d="M299.468,926.551l-0,1.665l164.93,-195.299l164.929,-63.396l164.93,-50.312l164.93,-46.896l164.93,-80.781l164.929,253.242l0,-3.111l-164.929,-263.414l-164.93,82.466l-164.93,50.554l-164.93,52.56l-164.929,65.478l-164.93,197.244Z" style="fill:#ddb3ff;fill-opacity:0.12;fill-rule:nonzero;"/><path d="M299.468,923.142l-0,1.958l164.93,-204.55l164.929,-85.513l164.93,-84.995l164.93,-70.506l164.93,-122.573l164.929,353.908l0,-3.488l-164.929,-365.556l-164.93,124.364l-164.93,74.691l-164.93,87.991l-164.929,87.734l-164.93,206.535Z" style="fill:#ddb3ff;fill-opacity:0.12;fill-rule:nonzero;"/><path d="M299.468,896.92l-0,1.982l164.93,-219.335l164.929,-68.038l164.93,-58.621l164.93,-51.768l164.93,-63.721l164.929,270.53l0,-3.409l-164.929,-282.307l-164.93,64.555l-164.93,56.187l-164.93,61.885l-164.929,70.395l-164.93,221.665Z" style="fill:#ddb3ff;fill-opacity:0.12;fill-rule:nonzero;"/><path d="M299.468,909.479l-0,1.768l164.93,-199.979l164.929,-54.914l164.93,-46.515l164.93,-33.94l164.93,-52.421l164.929,225.798l0,-2.951l-164.929,-235.758l-164.93,52.551l-164.93,38.139l-164.93,49.21l-164.929,57.045l-164.93,201.967Z" style="fill:#ddb3ff;fill-opacity:0.12;fill-rule:nonzero;"/><path d="M299.468,895.553l-0,1.767l164.93,-214.478l164.929,-52.484l164.93,-51.732l164.93,-37.462l164.93,-68.226l164.929,236.057l0,-3.308l-164.929,-243.999l-164.93,68.006l-164.93,40.804l-164.93,54.347l-164.929,54.341l-164.93,216.367Z" style="fill:#ddb3ff;fill-opacity:0.12;fill-rule:nonzero;"/><path d="M299.468,883.69l-0,1.915l164.93,-180.865l164.929,-18.695l164.93,-37.049l164.93,-15.781l164.93,-41.012l164.929,175.055l0,-2.794l-164.929,-183.365l-164.93,41.018l-164.93,19.073l-164.93,39.475l-164.929,20.364l-164.93,182.661Z" style="fill:#ddb3ff;fill-opacity:0.12;fill-rule:nonzero;"/><path d="M299.468,923.605l-0,1.532l164.93,-235.771l164.929,-118.815l164.93,-93.741l164.93,-89.479l164.93,-134.596l164.929,463.57l0,-3.369l-164.929,-491.35l-164.93,142.946l-164.93,99.246l-164.93,99.119l-164.929,122.298l-164.93,238.41Z" style="fill:#ddb3ff;fill-opacity:0.12;fill-rule:nonzero;"/><path d="M299.468,917.191l-0,1.722l164.93,-212.975l164.929,-75.945l164.93,-72.12l164.93,-54.485l164.93,-82.899l164.929,320.967l0,-3.192l-164.929,-336.956l-164.93,85.895l-164.93,60.12l-164.93,76.074l-164.929,78.623l-164.93,215.171Z" style="fill:#ddb3ff;fill-opacity:0.12;fill-rule:nonzero;"/><path d="M299.468,927.657l-0,1.84l164.93,-221.098l164.929,-107.716l164.93,-97.598l164.93,-85.426l164.93,-136.657l164.929,421.784l0,-3.803l-164.929,-438.925l-164.93,140.059l-164.93,91.822l-164.93,101.85l-164.929,110.516l-164.93,223.352Z" style="fill:#ddb3ff;fill-opacity:0.12;fill-rule:nonzero;"/><path d="M299.468,915.648l-0,1.765l164.93,-210.268l164.929,-71.564l164.93,-59.849l164.93,-50.684l164.93,-76.785l164.929,297.223l0,-3.101l-164.929,-312.674l-164.93,79.941l-164.93,55.89l-164.93,63.566l-164.929,74.009l-164.93,212.531Z" style="fill:#ddb3ff;fill-opacity:0.12;fill-rule:nonzero;"/><path d="M299.468,892.267l-0,2.113l164.93,-203.177l164.929,-46.188l164.93,-49.595l164.93,-44.888l164.93,-76.216l164.929,234.902l0,-3.276l-164.929,-242.974l-164.93,76.297l-164.93,47.942l-164.93,52.217l-164.929,47.635l-164.93,205.208Z" style="fill:#ddb3ff;fill-opacity:0.12;fill-rule:nonzero;"/><path d="M299.468,891.425l-0,1.849l164.93,-178.443l164.929,-14.737l164.93,-38.757l164.93,-20.39l164.93,-33.755l164.929,166.769l0,-2.709l-164.929,-174.814l-164.93,33.274l-164.93,23.768l-164.93,41.307l-164.929,16.38l-164.93,180.258Z" style="fill:#ddb3ff;fill-opacity:0.12;fill-rule:nonzero;"/><path d="M299.468,894.598l-0,1.906l164.93,-203.832l164.929,-47.162l164.93,-51.724l164.93,-37.641l164.93,-61.322l164.929,246.582l0,-3.171l-164.929,-256.361l-164.93,61.681l-164.93,41.3l-164.93,54.911l-164.929,48.969l-164.93,205.864Z" style="fill:#ddb3ff;fill-opacity:0.12;fill-rule:nonzero;"/><path d="M299.468,925.347l-0,2.299l164.93,-204.209l164.929,-90.764l164.93,-80.123l164.93,-73.696l164.93,-119.017l164.929,332.389l0,-3.764l-164.929,-342.504l-164.93,119.544l-164.93,78.391l-164.93,82.663l-164.929,92.867l-164.93,205.924Z" style="fill:#ddb3ff;fill-opacity:0.12;fill-rule:nonzero;"/><path d="M299.468,868.578l-0,2.12l164.93,-186.102l164.929,-11.973l164.93,-38.376l164.93,-21.764l164.93,-29.262l164.929,177.442l0,-2.771l-164.929,-187.292l-164.93,29.53l-164.93,25.546l-164.93,41.152l-164.929,13.671l-164.93,188.079Z" style="fill:#ddb3ff;fill-opacity:0.12;fill-rule:nonzero;"/><path d="M299.468,929.513l-0,1.969l164.93,-210.578l164.929,-98.072l164.93,-86.909l164.93,-86.48l164.93,-125.72l164.929,380.332l0,-3.836l-164.929,-394.82l-164.93,128.353l-164.93,91.894l-164.93,90.44l-164.929,100.557l-164.93,212.87Z" style="fill:#ddb3ff;fill-opacity:0.12;fill-rule:nonzero;"/><path d="M299.468,876.934l-0,2.088l164.93,-215.143l164.929,-47.459l164.93,-53.632l164.93,-38.405l164.93,-66.115l164.929,264.233l0,-3.25l-164.929,-275.485l-164.93,67.609l-164.93,42.117l-164.93,56.85l-164.929,49.362l-164.93,217.23Z" style="fill:#ddb3ff;fill-opacity:0.12;fill-rule:nonzero;"/><path d="M299.468,923.575l-0,1.573l164.93,-171.788l164.929,-31.868l164.93,-43.106l164.93,-36.247l164.93,-49.982l164.929,189.861l0,-2.638l-164.929,-195.799l-164.93,49.96l-164.93,38.683l-164.93,45.052l-164.929,33.093l-164.93,173.206Z" style="fill:#ddb3ff;fill-opacity:0.12;fill-rule:nonzero;"/><path d="M299.468,943.197l-0,1.75l164.93,-202.444l164.929,-100.23l164.93,-88.224l164.93,-77.046l164.93,-90.073l164.929,303.534l0,-3.781l-164.929,-315.233l-164.93,91.313l-164.93,81.694l-164.93,91.731l-164.929,102.551l-164.93,204.458Z" style="fill:#ddb3ff;fill-opacity:0.12;fill-rule:nonzero;"/><path d="M299.468,924.726l-0,1.683l164.93,-235.545l164.929,-126.829l164.93,-124.025l164.93,-129.335l164.93,-208.874l164.929,604.376l0,-3.567l-164.929,-636.641l-164.93,222.681l-164.93,138.381l-164.93,129.383l-164.929,130.043l-164.93,238.269Z" style="fill:#ddb3ff;fill-opacity:0.12;fill-rule:nonzero;"/><path d="M299.468,912.928l-0,1.715l164.93,-198.312l164.929,-59.833l164.93,-58.031l164.93,-44.868l164.93,-76.345l164.929,271.801l0,-2.943l-164.929,-282.369l-164.93,77.9l-164.93,48.597l-164.93,60.841l-164.929,61.606l-164.93,200.241Z" style="fill:#ddb3ff;fill-opacity:0.12;fill-rule:nonzero;"/><path d="M299.468,932.699l-0,1.899l164.93,-210.676l164.929,-102.649l164.93,-104.332l164.93,-84.73l164.93,-128.408l164.929,395.201l0,-3.837l-164.929,-409.484l-164.93,130.019l-164.93,90.218l-164.93,108.625l-164.929,105.404l-164.93,212.75Z" style="fill:#ddb3ff;fill-opacity:0.12;fill-rule:nonzero;"/><path d="M299.468,906.042l-0,1.87l164.93,-195.408l164.929,-50.449l164.93,-57.172l164.93,-41.36l164.93,-56.791l164.929,258.96l0,-2.861l-164.929,-272.951l-164.93,59.295l-164.93,46.362l-164.93,60.401l-164.929,52.599l-164.93,197.505Z" style="fill:#ddb3ff;fill-opacity:0.12;fill-rule:nonzero;"/><path d="M299.468,874.377l-0,2.138l164.93,-190.195l164.929,-17.296l164.93,-41.129l164.93,-22.142l164.93,-43.477l164.929,165.816l0,-3.075l-164.929,-171.708l-164.93,41.993l-164.93,24.893l-164.93,43.382l-164.929,18.836l-164.93,191.964Z" style="fill:#ddb3ff;fill-opacity:0.12;fill-rule:nonzero;"/><path d="M299.468,911.274l164.93,-206.962l164.929,-69.325l164.93,-66.997l164.93,-56.039l164.93,-78.565l164.929,289.541" style="fill:none;fill-rule:nonzero;stroke:#8d58d7;stroke-opacity:0.78;stroke-width:12.5px;"/><path d="M299.468,926.796l-0,1.64l164.93,-204.495l164.929,-74.324l164.93,-60.088l164.93,-58.173l164.93,-91.942l164.929,296.674l0,-3.153l-164.929,-309.377l-164.93,94.229l-164.93,62.954l-164.93,62.846l-164.929,76.737l-164.93,206.472Z" style="fill:#ddb3ff;fill-opacity:0.12;fill-rule:nonzero;"/><text x="321.835px" y="101.411px" style="font-family:'HelveticaNeue-Bold', 'Helvetica Neue';font-weight:700;font-size:66.667px;fill:#a06fe0;">model</text><rect x="4.167" y="4.167" width="2700" height="1200" style="fill:none;stroke:#fff;stroke-width:4.17px;stroke-miterlimit:2;"/></g></svg>