<?xml version="1.0" encoding="utf-8"?>
<svg xmlns="http://www.w3.org/2000/svg" xmlns:xlink="http://www.w3.org/1999/xlink" width="450" height="150" viewBox="0 0 1800 600">
<defs>
  <clipPath id="clip230">
    <rect x="0" y="0" width="1800" height="600"/>
  </clipPath>
</defs>
<path clip-path="url(#clip230)" d="M0 600 L1800 600 L1800 3.33067e-14 L0 3.33067e-14  Z" fill="#ffffff" fill-rule="evenodd" fill-opacity="1"/>
<defs>
  <clipPath id="clip231">
    <rect x="360" y="0" width="1261" height="600"/>
  </clipPath>
</defs>
<path clip-path="url(#clip230)" d="M70.8661 529.134 L529.134 529.134 L529.134 70.8661 L70.8661 70.8661  Z" fill="#ffffff" fill-rule="evenodd" fill-opacity="1"/>
<defs>
  <clipPath id="clip232">
    <rect x="70" y="70" width="459" height="459"/>
  </clipPath>
</defs>
<polyline clip-path="url(#clip230)" style="stroke:#000000; stroke-linecap:round; stroke-linejoin:round; stroke-width:6; stroke-opacity:1; fill:none" points="70.8661,529.134 529.134,529.134 "/>
<polyline clip-path="url(#clip230)" style="stroke:#000000; stroke-linecap:round; stroke-linejoin:round; stroke-width:6; stroke-opacity:1; fill:none" points="300,529.134 300,70.8661 "/>
<path clip-path="url(#clip232)" d="M96.0717 529.123 L96.0717 529.134 L118.118 529.134 L118.118 529.123 L96.0717 529.123 L96.0717 529.123  Z" fill="#83d89e" fill-rule="evenodd" fill-opacity="1"/>
<polyline clip-path="url(#clip232)" style="stroke:#000000; stroke-linecap:round; stroke-linejoin:round; stroke-width:4.2; stroke-opacity:1; fill:none" points="96.0717,529.123 96.0717,529.134 118.118,529.134 118.118,529.123 96.0717,529.123 "/>
<path clip-path="url(#clip232)" d="M123.63 529.099 L123.63 529.134 L145.676 529.134 L145.676 529.099 L123.63 529.099 L123.63 529.099  Z" fill="#83d89e" fill-rule="evenodd" fill-opacity="1"/>
<polyline clip-path="url(#clip232)" style="stroke:#000000; stroke-linecap:round; stroke-linejoin:round; stroke-width:4.2; stroke-opacity:1; fill:none" points="123.63,529.099 123.63,529.134 145.676,529.134 145.676,529.099 123.63,529.099 "/>
<path clip-path="url(#clip232)" d="M151.187 529.031 L151.187 529.134 L173.234 529.134 L173.234 529.031 L151.187 529.031 L151.187 529.031  Z" fill="#83d89e" fill-rule="evenodd" fill-opacity="1"/>
<polyline clip-path="url(#clip232)" style="stroke:#000000; stroke-linecap:round; stroke-linejoin:round; stroke-width:4.2; stroke-opacity:1; fill:none" points="151.187,529.031 151.187,529.134 173.234,529.134 173.234,529.031 151.187,529.031 "/>
<path clip-path="url(#clip232)" d="M178.745 528.834 L178.745 529.134 L200.792 529.134 L200.792 528.834 L178.745 528.834 L178.745 528.834  Z" fill="#83d89e" fill-rule="evenodd" fill-opacity="1"/>
<polyline clip-path="url(#clip232)" style="stroke:#000000; stroke-linecap:round; stroke-linejoin:round; stroke-width:4.2; stroke-opacity:1; fill:none" points="178.745,528.834 178.745,529.134 200.792,529.134 200.792,528.834 178.745,528.834 "/>
<path clip-path="url(#clip232)" d="M206.303 528.303 L206.303 529.134 L228.35 529.134 L228.35 528.303 L206.303 528.303 L206.303 528.303  Z" fill="#83d89e" fill-rule="evenodd" fill-opacity="1"/>
<polyline clip-path="url(#clip232)" style="stroke:#000000; stroke-linecap:round; stroke-linejoin:round; stroke-width:4.2; stroke-opacity:1; fill:none" points="206.303,528.303 206.303,529.134 228.35,529.134 228.35,528.303 206.303,528.303 "/>
<path clip-path="url(#clip232)" d="M233.861 527.042 L233.861 529.134 L255.907 529.134 L255.907 527.042 L233.861 527.042 L233.861 527.042  Z" fill="#83d89e" fill-rule="evenodd" fill-opacity="1"/>
<polyline clip-path="url(#clip232)" style="stroke:#000000; stroke-linecap:round; stroke-linejoin:round; stroke-width:4.2; stroke-opacity:1; fill:none" points="233.861,527.042 233.861,529.134 255.907,529.134 255.907,527.042 233.861,527.042 "/>
<path clip-path="url(#clip232)" d="M261.419 525.032 L261.419 529.134 L283.465 529.134 L283.465 525.032 L261.419 525.032 L261.419 525.032  Z" fill="#83d89e" fill-rule="evenodd" fill-opacity="1"/>
<polyline clip-path="url(#clip232)" style="stroke:#000000; stroke-linecap:round; stroke-linejoin:round; stroke-width:4.2; stroke-opacity:1; fill:none" points="261.419,525.032 261.419,529.134 283.465,529.134 283.465,525.032 261.419,525.032 "/>
<path clip-path="url(#clip232)" d="M288.977 524.554 L288.977 529.134 L311.023 529.134 L311.023 524.554 L288.977 524.554 L288.977 524.554  Z" fill="#83d89e" fill-rule="evenodd" fill-opacity="1"/>
<polyline clip-path="url(#clip232)" style="stroke:#000000; stroke-linecap:round; stroke-linejoin:round; stroke-width:4.2; stroke-opacity:1; fill:none" points="288.977,524.554 288.977,529.134 311.023,529.134 311.023,524.554 288.977,524.554 "/>
<path clip-path="url(#clip232)" d="M316.535 518.753 L316.535 529.134 L338.581 529.134 L338.581 518.753 L316.535 518.753 L316.535 518.753  Z" fill="#83d89e" fill-rule="evenodd" fill-opacity="1"/>
<polyline clip-path="url(#clip232)" style="stroke:#000000; stroke-linecap:round; stroke-linejoin:round; stroke-width:4.2; stroke-opacity:1; fill:none" points="316.535,518.753 316.535,529.134 338.581,529.134 338.581,518.753 316.535,518.753 "/>
<path clip-path="url(#clip232)" d="M344.093 507.041 L344.093 529.134 L366.139 529.134 L366.139 507.041 L344.093 507.041 L344.093 507.041  Z" fill="#83d89e" fill-rule="evenodd" fill-opacity="1"/>
<polyline clip-path="url(#clip232)" style="stroke:#000000; stroke-linecap:round; stroke-linejoin:round; stroke-width:4.2; stroke-opacity:1; fill:none" points="344.093,507.041 344.093,529.134 366.139,529.134 366.139,507.041 344.093,507.041 "/>
<path clip-path="url(#clip232)" d="M371.65 488.166 L371.65 529.134 L393.697 529.134 L393.697 488.166 L371.65 488.166 L371.65 488.166  Z" fill="#83d89e" fill-rule="evenodd" fill-opacity="1"/>
<polyline clip-path="url(#clip232)" style="stroke:#000000; stroke-linecap:round; stroke-linejoin:round; stroke-width:4.2; stroke-opacity:1; fill:none" points="371.65,488.166 371.65,529.134 393.697,529.134 393.697,488.166 371.65,488.166 "/>
<path clip-path="url(#clip232)" d="M399.208 455.946 L399.208 529.134 L421.255 529.134 L421.255 455.946 L399.208 455.946 L399.208 455.946  Z" fill="#83d89e" fill-rule="evenodd" fill-opacity="1"/>
<polyline clip-path="url(#clip232)" style="stroke:#000000; stroke-linecap:round; stroke-linejoin:round; stroke-width:4.2; stroke-opacity:1; fill:none" points="399.208,455.946 399.208,529.134 421.255,529.134 421.255,455.946 399.208,455.946 "/>
<path clip-path="url(#clip232)" d="M426.766 399.918 L426.766 529.134 L448.813 529.134 L448.813 399.918 L426.766 399.918 L426.766 399.918  Z" fill="#83d89e" fill-rule="evenodd" fill-opacity="1"/>
<polyline clip-path="url(#clip232)" style="stroke:#000000; stroke-linecap:round; stroke-linejoin:round; stroke-width:4.2; stroke-opacity:1; fill:none" points="426.766,399.918 426.766,529.134 448.813,529.134 448.813,399.918 426.766,399.918 "/>
<path clip-path="url(#clip232)" d="M454.324 301.606 L454.324 529.134 L476.37 529.134 L476.37 301.606 L454.324 301.606 L454.324 301.606  Z" fill="#83d89e" fill-rule="evenodd" fill-opacity="1"/>
<polyline clip-path="url(#clip232)" style="stroke:#000000; stroke-linecap:round; stroke-linejoin:round; stroke-width:4.2; stroke-opacity:1; fill:none" points="454.324,301.606 454.324,529.134 476.37,529.134 476.37,301.606 454.324,301.606 "/>
<path clip-path="url(#clip232)" d="M481.882 128.027 L481.882 529.134 L503.928 529.134 L503.928 128.027 L481.882 128.027 L481.882 128.027  Z" fill="#83d89e" fill-rule="evenodd" fill-opacity="1"/>
<polyline clip-path="url(#clip232)" style="stroke:#000000; stroke-linecap:round; stroke-linejoin:round; stroke-width:4.2; stroke-opacity:1; fill:none" points="481.882,128.027 481.882,529.134 503.928,529.134 503.928,128.027 481.882,128.027 "/>
<circle clip-path="url(#clip232)" style="fill:#83d89e; stroke:none; fill-opacity:0" cx="107.095" cy="529.123" r="2"/>
<circle clip-path="url(#clip232)" style="fill:#83d89e; stroke:none; fill-opacity:0" cx="134.653" cy="529.099" r="2"/>
<circle clip-path="url(#clip232)" style="fill:#83d89e; stroke:none; fill-opacity:0" cx="162.211" cy="529.031" r="2"/>
<circle clip-path="url(#clip232)" style="fill:#83d89e; stroke:none; fill-opacity:0" cx="189.768" cy="528.834" r="2"/>
<circle clip-path="url(#clip232)" style="fill:#83d89e; stroke:none; fill-opacity:0" cx="217.326" cy="528.303" r="2"/>
<circle clip-path="url(#clip232)" style="fill:#83d89e; stroke:none; fill-opacity:0" cx="244.884" cy="527.042" r="2"/>
<circle clip-path="url(#clip232)" style="fill:#83d89e; stroke:none; fill-opacity:0" cx="272.442" cy="525.032" r="2"/>
<circle clip-path="url(#clip232)" style="fill:#83d89e; stroke:none; fill-opacity:0" cx="300" cy="524.554" r="2"/>
<circle clip-path="url(#clip232)" style="fill:#83d89e; stroke:none; fill-opacity:0" cx="327.558" cy="518.753" r="2"/>
<circle clip-path="url(#clip232)" style="fill:#83d89e; stroke:none; fill-opacity:0" cx="355.116" cy="507.041" r="2"/>
<circle clip-path="url(#clip232)" style="fill:#83d89e; stroke:none; fill-opacity:0" cx="382.674" cy="488.166" r="2"/>
<circle clip-path="url(#clip232)" style="fill:#83d89e; stroke:none; fill-opacity:0" cx="410.232" cy="455.946" r="2"/>
<circle clip-path="url(#clip232)" style="fill:#83d89e; stroke:none; fill-opacity:0" cx="437.789" cy="399.918" r="2"/>
<circle clip-path="url(#clip232)" style="fill:#83d89e; stroke:none; fill-opacity:0" cx="465.347" cy="301.606" r="2"/>
<circle clip-path="url(#clip232)" style="fill:#83d89e; stroke:none; fill-opacity:0" cx="492.905" cy="128.027" r="2"/>
<path clip-path="url(#clip230)" d="M100.247 99.3925 Q100.247 100.078 99.9568 101.395 Q99.0346 105.111 95.5827 107.666 Q95.003 108.141 93.9753 108.747 Q95.2138 109.564 96.2941 111.066 Q97.9015 113.543 97.9015 116.889 Q97.9015 118.444 97.4799 120.341 Q96.2941 124.741 92.1308 127.903 Q87.9411 130.986 82.9609 130.986 Q80.2732 130.986 78.4287 129.564 Q76.6105 128.114 75.899 125.69 L72.2364 140.473 Q72.1573 140.841 71.683 140.841 L71.4195 140.841 Q70.8661 140.841 70.8661 140.209 L79.1928 107.008 Q79.7462 104.768 80.6421 102.66 Q81.538 100.552 82.7765 98.6547 Q84.0413 96.7575 85.4905 95.3609 Q86.9398 93.938 88.7316 93.1212 Q90.5234 92.278 92.4206 92.278 Q96.3995 92.278 98.6657 94.992 Q100.247 96.9156 100.247 99.3925 M97.2164 98.4439 Q97.2164 96.8102 96.5576 95.6771 Q95.2138 93.5164 92.3679 93.5164 Q90.6552 93.5164 89.0215 94.3069 Q87.4141 95.0711 86.1229 96.3886 Q84.8318 97.7061 83.7251 99.4979 Q82.6184 101.29 81.8015 103.24 Q81.011 105.163 80.484 107.271 L77.2429 120.341 Q76.9267 121.738 76.9267 122.976 Q76.9267 125.927 78.5604 127.851 Q80.1941 129.774 83.0136 129.774 Q86.7553 129.774 89.9701 126.981 Q92.7632 124.478 93.9226 120.077 Q94.5814 117.311 94.5814 115.387 Q94.5814 113.279 93.8172 111.645 Q93.2639 110.328 92.1835 109.537 Q90.1809 110.249 88.1519 110.249 Q87.1769 110.249 86.6499 110.222 Q86.1493 110.196 85.4115 110.091 Q84.7 109.985 84.3575 109.695 Q84.0413 109.406 84.0413 108.958 Q84.0413 108.694 84.094 108.589 Q84.1994 108.167 84.5419 107.877 Q84.8845 107.587 85.2797 107.456 Q85.675 107.298 86.3337 107.219 Q87.0188 107.139 87.4668 107.139 Q87.9148 107.113 88.6789 107.113 Q90.4707 107.113 92.2889 107.825 Q92.974 107.456 93.7118 106.797 Q96.057 104.61 96.8475 101.132 Q97.2164 99.8405 97.2164 98.4439 M90.5761 108.641 Q89.4694 108.352 88.6262 108.352 Q85.5432 108.352 85.3851 108.852 Q85.3851 108.905 85.4905 108.958 Q85.5959 108.984 85.8331 109.01 Q86.0966 109.01 86.3074 109.037 Q86.5445 109.063 86.9398 109.063 Q87.335 109.063 87.5459 109.063 Q87.783 109.063 88.2046 109.063 Q89.2586 109.063 90.5761 108.641 Z" fill="#83d89e" fill-rule="nonzero" fill-opacity="1" /><path clip-path="url(#clip230)" d="M116.085 122.185 Q116.138 121.527 117.166 121.527 L150.235 121.527 Q151.79 121.527 151.816 122.133 Q151.816 122.792 150.341 122.765 L117.534 122.765 Q116.085 122.792 116.085 122.185 M116.085 111.645 Q116.085 110.987 117.218 111.013 L150.182 111.013 Q151.79 111.013 151.816 111.645 Q151.816 112.251 150.446 112.251 L117.166 112.251 Q116.085 112.251 116.085 111.645 Z" fill="#83d89e" fill-rule="nonzero" fill-opacity="1" /><path clip-path="url(#clip230)" d="M172.631 99.577 L172.631 97.8906 Q179.113 97.8906 182.46 94.4387 Q183.382 94.4387 183.54 94.6495 Q183.698 94.8603 183.698 95.8352 L183.698 126.112 Q183.698 127.719 184.489 128.22 Q185.279 128.72 188.731 128.72 L190.444 128.72 L190.444 130.38 Q188.546 130.222 181.695 130.222 Q174.844 130.222 172.973 130.38 L172.973 128.72 L174.686 128.72 Q178.085 128.72 178.902 128.246 Q179.719 127.745 179.719 126.112 L179.719 98.1541 Q176.9 99.577 172.631 99.577 Z" fill="#83d89e" fill-rule="nonzero" fill-opacity="1" /><path clip-path="url(#clip230)" d="M194.735 129.511 Q193.918 128.641 193.918 127.508 Q193.918 126.375 194.735 125.558 Q195.552 124.715 196.79 124.715 Q197.976 124.715 198.766 125.506 Q199.583 126.27 199.583 127.535 Q199.583 128.773 198.714 129.59 Q197.871 130.38 196.79 130.38 Q195.552 130.38 194.735 129.511 Z" fill="#83d89e" fill-rule="nonzero" fill-opacity="1" /><path clip-path="url(#clip230)" d="M208.768 113.121 Q208.768 105.19 210.771 100.868 Q213.564 94.4387 220.151 94.4387 Q221.548 94.4387 222.997 94.8339 Q224.473 95.2028 226.317 96.6521 Q228.188 98.1014 229.321 100.473 Q231.482 105.058 231.482 113.121 Q231.482 121 229.479 125.295 Q226.554 131.566 220.099 131.566 Q217.674 131.566 215.197 130.328 Q212.747 129.089 211.192 126.112 Q208.768 121.658 208.768 113.121 M213.247 112.462 Q213.247 120.604 213.827 123.846 Q214.486 127.35 216.278 128.878 Q218.096 130.38 220.099 130.38 Q222.259 130.38 224.051 128.773 Q225.869 127.139 226.423 123.635 Q227.029 120.183 227.002 112.462 Q227.002 104.952 226.475 101.948 Q225.764 98.4439 223.867 97.0473 Q221.996 95.6244 220.099 95.6244 Q219.387 95.6244 218.623 95.8352 Q217.885 96.046 216.805 96.6521 Q215.724 97.2581 214.881 98.7601 Q214.064 100.262 213.669 102.528 Q213.247 105.453 213.247 112.462 Z" fill="#83d89e" fill-rule="nonzero" fill-opacity="1" /><path clip-path="url(#clip230)" d="M670.866 529.134 L1129.13 529.134 L1129.13 70.8661 L670.866 70.8661  Z" fill="#ffffff" fill-rule="evenodd" fill-opacity="1"/>
<defs>
  <clipPath id="clip233">
    <rect x="670" y="70" width="459" height="459"/>
  </clipPath>
</defs>
<polyline clip-path="url(#clip230)" style="stroke:#000000; stroke-linecap:round; stroke-linejoin:round; stroke-width:6; stroke-opacity:1; fill:none" points="670.866,529.134 1129.13,529.134 "/>
<polyline clip-path="url(#clip230)" style="stroke:#000000; stroke-linecap:round; stroke-linejoin:round; stroke-width:6; stroke-opacity:1; fill:none" points="900,529.134 900,70.8661 "/>
<path clip-path="url(#clip233)" d="M696.072 502.3 L696.072 529.134 L718.118 529.134 L718.118 502.3 L696.072 502.3 L696.072 502.3  Z" fill="#5fa3b4" fill-rule="evenodd" fill-opacity="0.2"/>
<polyline clip-path="url(#clip233)" style="stroke:#000000; stroke-linecap:round; stroke-linejoin:round; stroke-width:4.2; stroke-opacity:0.2; fill:none" points="696.072,502.3 696.072,529.134 718.118,529.134 718.118,502.3 696.072,502.3 "/>
<path clip-path="url(#clip233)" d="M723.63 494.055 L723.63 529.134 L745.676 529.134 L745.676 494.055 L723.63 494.055 L723.63 494.055  Z" fill="#5fa3b4" fill-rule="evenodd" fill-opacity="0.2"/>
<polyline clip-path="url(#clip233)" style="stroke:#000000; stroke-linecap:round; stroke-linejoin:round; stroke-width:4.2; stroke-opacity:0.2; fill:none" points="723.63,494.055 723.63,529.134 745.676,529.134 745.676,494.055 723.63,494.055 "/>
<path clip-path="url(#clip233)" d="M751.187 482.821 L751.187 529.134 L773.234 529.134 L773.234 482.821 L751.187 482.821 L751.187 482.821  Z" fill="#5fa3b4" fill-rule="evenodd" fill-opacity="0.2"/>
<polyline clip-path="url(#clip233)" style="stroke:#000000; stroke-linecap:round; stroke-linejoin:round; stroke-width:4.2; stroke-opacity:0.2; fill:none" points="751.187,482.821 751.187,529.134 773.234,529.134 773.234,482.821 751.187,482.821 "/>
<path clip-path="url(#clip233)" d="M778.745 467.237 L778.745 529.134 L800.792 529.134 L800.792 467.237 L778.745 467.237 L778.745 467.237  Z" fill="#5fa3b4" fill-rule="evenodd" fill-opacity="0.2"/>
<polyline clip-path="url(#clip233)" style="stroke:#000000; stroke-linecap:round; stroke-linejoin:round; stroke-width:4.2; stroke-opacity:0.2; fill:none" points="778.745,467.237 778.745,529.134 800.792,529.134 800.792,467.237 778.745,467.237 "/>
<path clip-path="url(#clip233)" d="M806.303 445.077 L806.303 529.134 L828.35 529.134 L828.35 445.077 L806.303 445.077 L806.303 445.077  Z" fill="#5fa3b4" fill-rule="evenodd" fill-opacity="0.2"/>
<polyline clip-path="url(#clip233)" style="stroke:#000000; stroke-linecap:round; stroke-linejoin:round; stroke-width:4.2; stroke-opacity:0.2; fill:none" points="806.303,445.077 806.303,529.134 828.35,529.134 828.35,445.077 806.303,445.077 "/>
<path clip-path="url(#clip233)" d="M833.861 412.373 L833.861 529.134 L855.907 529.134 L855.907 412.373 L833.861 412.373 L833.861 412.373  Z" fill="#5fa3b4" fill-rule="evenodd" fill-opacity="0.2"/>
<polyline clip-path="url(#clip233)" style="stroke:#000000; stroke-linecap:round; stroke-linejoin:round; stroke-width:4.2; stroke-opacity:0.2; fill:none" points="833.861,412.373 833.861,529.134 855.907,529.134 855.907,412.373 833.861,412.373 "/>
<path clip-path="url(#clip233)" d="M861.419 360.707 L861.419 529.134 L883.465 529.134 L883.465 360.707 L861.419 360.707 L861.419 360.707  Z" fill="#5fa3b4" fill-rule="evenodd" fill-opacity="0.2"/>
<polyline clip-path="url(#clip233)" style="stroke:#000000; stroke-linecap:round; stroke-linejoin:round; stroke-width:4.2; stroke-opacity:0.2; fill:none" points="861.419,360.707 861.419,529.134 883.465,529.134 883.465,360.707 861.419,360.707 "/>
<path clip-path="url(#clip233)" d="M888.977 252.4 L888.977 529.134 L911.023 529.134 L911.023 252.4 L888.977 252.4 L888.977 252.4  Z" fill="#5fa3b4" fill-rule="evenodd" fill-opacity="0.2"/>
<polyline clip-path="url(#clip233)" style="stroke:#000000; stroke-linecap:round; stroke-linejoin:round; stroke-width:4.2; stroke-opacity:0.2; fill:none" points="888.977,252.4 888.977,529.134 911.023,529.134 911.023,252.4 888.977,252.4 "/>
<path clip-path="url(#clip233)" d="M916.535 471.451 L916.535 529.134 L938.581 529.134 L938.581 471.451 L916.535 471.451 L916.535 471.451  Z" fill="#5fa3b4" fill-rule="evenodd" fill-opacity="0.2"/>
<polyline clip-path="url(#clip233)" style="stroke:#000000; stroke-linecap:round; stroke-linejoin:round; stroke-width:4.2; stroke-opacity:0.2; fill:none" points="916.535,471.451 916.535,529.134 938.581,529.134 938.581,471.451 916.535,471.451 "/>
<path clip-path="url(#clip233)" d="M944.093 506.552 L944.093 529.134 L966.139 529.134 L966.139 506.552 L944.093 506.552 L944.093 506.552  Z" fill="#5fa3b4" fill-rule="evenodd" fill-opacity="0.2"/>
<polyline clip-path="url(#clip233)" style="stroke:#000000; stroke-linecap:round; stroke-linejoin:round; stroke-width:4.2; stroke-opacity:0.2; fill:none" points="944.093,506.552 944.093,529.134 966.139,529.134 966.139,506.552 944.093,506.552 "/>
<path clip-path="url(#clip233)" d="M971.65 518.864 L971.65 529.134 L993.697 529.134 L993.697 518.864 L971.65 518.864 L971.65 518.864  Z" fill="#5fa3b4" fill-rule="evenodd" fill-opacity="0.2"/>
<polyline clip-path="url(#clip233)" style="stroke:#000000; stroke-linecap:round; stroke-linejoin:round; stroke-width:4.2; stroke-opacity:0.2; fill:none" points="971.65,518.864 971.65,529.134 993.697,529.134 993.697,518.864 971.65,518.864 "/>
<path clip-path="url(#clip233)" d="M999.208 524.072 L999.208 529.134 L1021.25 529.134 L1021.25 524.072 L999.208 524.072 L999.208 524.072  Z" fill="#5fa3b4" fill-rule="evenodd" fill-opacity="0.2"/>
<polyline clip-path="url(#clip233)" style="stroke:#000000; stroke-linecap:round; stroke-linejoin:round; stroke-width:4.2; stroke-opacity:0.2; fill:none" points="999.208,524.072 999.208,529.134 1021.25,529.134 1021.25,524.072 999.208,524.072 "/>
<path clip-path="url(#clip233)" d="M1026.77 526.504 L1026.77 529.134 L1048.81 529.134 L1048.81 526.504 L1026.77 526.504 L1026.77 526.504  Z" fill="#5fa3b4" fill-rule="evenodd" fill-opacity="0.2"/>
<polyline clip-path="url(#clip233)" style="stroke:#000000; stroke-linecap:round; stroke-linejoin:round; stroke-width:4.2; stroke-opacity:0.2; fill:none" points="1026.77,526.504 1026.77,529.134 1048.81,529.134 1048.81,526.504 1026.77,526.504 "/>
<path clip-path="url(#clip233)" d="M1054.32 527.714 L1054.32 529.134 L1076.37 529.134 L1076.37 527.714 L1054.32 527.714 L1054.32 527.714  Z" fill="#5fa3b4" fill-rule="evenodd" fill-opacity="0.2"/>
<polyline clip-path="url(#clip233)" style="stroke:#000000; stroke-linecap:round; stroke-linejoin:round; stroke-width:4.2; stroke-opacity:0.2; fill:none" points="1054.32,527.714 1054.32,529.134 1076.37,529.134 1076.37,527.714 1054.32,527.714 "/>
<path clip-path="url(#clip233)" d="M1081.88 528.345 L1081.88 529.134 L1103.93 529.134 L1103.93 528.345 L1081.88 528.345 L1081.88 528.345  Z" fill="#5fa3b4" fill-rule="evenodd" fill-opacity="0.2"/>
<polyline clip-path="url(#clip233)" style="stroke:#000000; stroke-linecap:round; stroke-linejoin:round; stroke-width:4.2; stroke-opacity:0.2; fill:none" points="1081.88,528.345 1081.88,529.134 1103.93,529.134 1103.93,528.345 1081.88,528.345 "/>
<circle clip-path="url(#clip233)" style="fill:#5fa3b4; stroke:none; fill-opacity:0" cx="707.095" cy="502.3" r="2"/>
<circle clip-path="url(#clip233)" style="fill:#5fa3b4; stroke:none; fill-opacity:0" cx="734.653" cy="494.055" r="2"/>
<circle clip-path="url(#clip233)" style="fill:#5fa3b4; stroke:none; fill-opacity:0" cx="762.211" cy="482.821" r="2"/>
<circle clip-path="url(#clip233)" style="fill:#5fa3b4; stroke:none; fill-opacity:0" cx="789.768" cy="467.237" r="2"/>
<circle clip-path="url(#clip233)" style="fill:#5fa3b4; stroke:none; fill-opacity:0" cx="817.326" cy="445.077" r="2"/>
<circle clip-path="url(#clip233)" style="fill:#5fa3b4; stroke:none; fill-opacity:0" cx="844.884" cy="412.373" r="2"/>
<circle clip-path="url(#clip233)" style="fill:#5fa3b4; stroke:none; fill-opacity:0" cx="872.442" cy="360.707" r="2"/>
<circle clip-path="url(#clip233)" style="fill:#5fa3b4; stroke:none; fill-opacity:0" cx="900" cy="252.4" r="2"/>
<circle clip-path="url(#clip233)" style="fill:#5fa3b4; stroke:none; fill-opacity:0" cx="927.558" cy="471.451" r="2"/>
<circle clip-path="url(#clip233)" style="fill:#5fa3b4; stroke:none; fill-opacity:0" cx="955.116" cy="506.552" r="2"/>
<circle clip-path="url(#clip233)" style="fill:#5fa3b4; stroke:none; fill-opacity:0" cx="982.674" cy="518.864" r="2"/>
<circle clip-path="url(#clip233)" style="fill:#5fa3b4; stroke:none; fill-opacity:0" cx="1010.23" cy="524.072" r="2"/>
<circle clip-path="url(#clip233)" style="fill:#5fa3b4; stroke:none; fill-opacity:0" cx="1037.79" cy="526.504" r="2"/>
<circle clip-path="url(#clip233)" style="fill:#5fa3b4; stroke:none; fill-opacity:0" cx="1065.35" cy="527.714" r="2"/>
<circle clip-path="url(#clip233)" style="fill:#5fa3b4; stroke:none; fill-opacity:0" cx="1092.91" cy="528.345" r="2"/>
<path clip-path="url(#clip233)" d="M696.072 520.306 L696.072 529.134 L718.118 529.134 L718.118 520.306 L696.072 520.306 L696.072 520.306  Z" fill="#4ab467" fill-rule="evenodd" fill-opacity="1"/>
<polyline clip-path="url(#clip233)" style="stroke:#000000; stroke-linecap:round; stroke-linejoin:round; stroke-width:4.2; stroke-opacity:1; fill:none" points="696.072,520.306 696.072,529.134 718.118,529.134 718.118,520.306 696.072,520.306 "/>
<path clip-path="url(#clip233)" d="M723.63 516.579 L723.63 529.134 L745.676 529.134 L745.676 516.579 L723.63 516.579 L723.63 516.579  Z" fill="#4ab467" fill-rule="evenodd" fill-opacity="1"/>
<polyline clip-path="url(#clip233)" style="stroke:#000000; stroke-linecap:round; stroke-linejoin:round; stroke-width:4.2; stroke-opacity:1; fill:none" points="723.63,516.579 723.63,529.134 745.676,529.134 745.676,516.579 723.63,516.579 "/>
<path clip-path="url(#clip233)" d="M751.187 510.855 L751.187 529.134 L773.234 529.134 L773.234 510.855 L751.187 510.855 L751.187 510.855  Z" fill="#4ab467" fill-rule="evenodd" fill-opacity="1"/>
<polyline clip-path="url(#clip233)" style="stroke:#000000; stroke-linecap:round; stroke-linejoin:round; stroke-width:4.2; stroke-opacity:1; fill:none" points="751.187,510.855 751.187,529.134 773.234,529.134 773.234,510.855 751.187,510.855 "/>
<path clip-path="url(#clip233)" d="M778.745 501.9 L778.745 529.134 L800.792 529.134 L800.792 501.9 L778.745 501.9 L778.745 501.9  Z" fill="#4ab467" fill-rule="evenodd" fill-opacity="1"/>
<polyline clip-path="url(#clip233)" style="stroke:#000000; stroke-linecap:round; stroke-linejoin:round; stroke-width:4.2; stroke-opacity:1; fill:none" points="778.745,501.9 778.745,529.134 800.792,529.134 800.792,501.9 778.745,501.9 "/>
<path clip-path="url(#clip233)" d="M806.303 487.091 L806.303 529.134 L828.35 529.134 L828.35 487.091 L806.303 487.091 L806.303 487.091  Z" fill="#4ab467" fill-rule="evenodd" fill-opacity="1"/>
<polyline clip-path="url(#clip233)" style="stroke:#000000; stroke-linecap:round; stroke-linejoin:round; stroke-width:4.2; stroke-opacity:1; fill:none" points="806.303,487.091 806.303,529.134 828.35,529.134 828.35,487.091 806.303,487.091 "/>
<path clip-path="url(#clip233)" d="M833.861 461.105 L833.861 529.134 L855.907 529.134 L855.907 461.105 L833.861 461.105 L833.861 461.105  Z" fill="#4ab467" fill-rule="evenodd" fill-opacity="1"/>
<polyline clip-path="url(#clip233)" style="stroke:#000000; stroke-linecap:round; stroke-linejoin:round; stroke-width:4.2; stroke-opacity:1; fill:none" points="833.861,461.105 833.861,529.134 855.907,529.134 855.907,461.105 833.861,461.105 "/>
<path clip-path="url(#clip233)" d="M861.419 410.829 L861.419 529.134 L883.465 529.134 L883.465 410.829 L861.419 410.829 L861.419 410.829  Z" fill="#4ab467" fill-rule="evenodd" fill-opacity="1"/>
<polyline clip-path="url(#clip233)" style="stroke:#000000; stroke-linecap:round; stroke-linejoin:round; stroke-width:4.2; stroke-opacity:1; fill:none" points="861.419,410.829 861.419,529.134 883.465,529.134 883.465,410.829 861.419,410.829 "/>
<path clip-path="url(#clip233)" d="M888.977 277.035 L888.977 529.134 L911.023 529.134 L911.023 277.035 L888.977 277.035 L888.977 277.035  Z" fill="#4ab467" fill-rule="evenodd" fill-opacity="1"/>
<polyline clip-path="url(#clip233)" style="stroke:#000000; stroke-linecap:round; stroke-linejoin:round; stroke-width:4.2; stroke-opacity:1; fill:none" points="888.977,277.035 888.977,529.134 911.023,529.134 911.023,277.035 888.977,277.035 "/>
<path clip-path="url(#clip233)" d="M916.535 448.704 L916.535 529.134 L938.581 529.134 L938.581 448.704 L916.535 448.704 L916.535 448.704  Z" fill="#4ab467" fill-rule="evenodd" fill-opacity="1"/>
<polyline clip-path="url(#clip233)" style="stroke:#000000; stroke-linecap:round; stroke-linejoin:round; stroke-width:4.2; stroke-opacity:1; fill:none" points="916.535,448.704 916.535,529.134 938.581,529.134 938.581,448.704 916.535,448.704 "/>
<path clip-path="url(#clip233)" d="M944.093 491.322 L944.093 529.134 L966.139 529.134 L966.139 491.322 L944.093 491.322 L944.093 491.322  Z" fill="#4ab467" fill-rule="evenodd" fill-opacity="1"/>
<polyline clip-path="url(#clip233)" style="stroke:#000000; stroke-linecap:round; stroke-linejoin:round; stroke-width:4.2; stroke-opacity:1; fill:none" points="944.093,491.322 944.093,529.134 966.139,529.134 966.139,491.322 944.093,491.322 "/>
<path clip-path="url(#clip233)" d="M971.65 509.347 L971.65 529.134 L993.697 529.134 L993.697 509.347 L971.65 509.347 L971.65 509.347  Z" fill="#4ab467" fill-rule="evenodd" fill-opacity="1"/>
<polyline clip-path="url(#clip233)" style="stroke:#000000; stroke-linecap:round; stroke-linejoin:round; stroke-width:4.2; stroke-opacity:1; fill:none" points="971.65,509.347 971.65,529.134 993.697,529.134 993.697,509.347 971.65,509.347 "/>
<path clip-path="url(#clip233)" d="M999.208 518.139 L999.208 529.134 L1021.25 529.134 L1021.25 518.139 L999.208 518.139 L999.208 518.139  Z" fill="#4ab467" fill-rule="evenodd" fill-opacity="1"/>
<polyline clip-path="url(#clip233)" style="stroke:#000000; stroke-linecap:round; stroke-linejoin:round; stroke-width:4.2; stroke-opacity:1; fill:none" points="999.208,518.139 999.208,529.134 1021.25,529.134 1021.25,518.139 999.208,518.139 "/>
<path clip-path="url(#clip233)" d="M1026.77 522.836 L1026.77 529.134 L1048.81 529.134 L1048.81 522.836 L1026.77 522.836 L1026.77 522.836  Z" fill="#4ab467" fill-rule="evenodd" fill-opacity="1"/>
<polyline clip-path="url(#clip233)" style="stroke:#000000; stroke-linecap:round; stroke-linejoin:round; stroke-width:4.2; stroke-opacity:1; fill:none" points="1026.77,522.836 1026.77,529.134 1048.81,529.134 1048.81,522.836 1026.77,522.836 "/>
<path clip-path="url(#clip233)" d="M1054.32 525.441 L1054.32 529.134 L1076.37 529.134 L1076.37 525.441 L1054.32 525.441 L1054.32 525.441  Z" fill="#4ab467" fill-rule="evenodd" fill-opacity="1"/>
<polyline clip-path="url(#clip233)" style="stroke:#000000; stroke-linecap:round; stroke-linejoin:round; stroke-width:4.2; stroke-opacity:1; fill:none" points="1054.32,525.441 1054.32,529.134 1076.37,529.134 1076.37,525.441 1054.32,525.441 "/>
<path clip-path="url(#clip233)" d="M1081.88 526.902 L1081.88 529.134 L1103.93 529.134 L1103.93 526.902 L1081.88 526.902 L1081.88 526.902  Z" fill="#4ab467" fill-rule="evenodd" fill-opacity="1"/>
<polyline clip-path="url(#clip233)" style="stroke:#000000; stroke-linecap:round; stroke-linejoin:round; stroke-width:4.2; stroke-opacity:1; fill:none" points="1081.88,526.902 1081.88,529.134 1103.93,529.134 1103.93,526.902 1081.88,526.902 "/>
<circle clip-path="url(#clip233)" style="fill:#4ab467; stroke:none; fill-opacity:0" cx="707.095" cy="520.306" r="2"/>
<circle clip-path="url(#clip233)" style="fill:#4ab467; stroke:none; fill-opacity:0" cx="734.653" cy="516.579" r="2"/>
<circle clip-path="url(#clip233)" style="fill:#4ab467; stroke:none; fill-opacity:0" cx="762.211" cy="510.855" r="2"/>
<circle clip-path="url(#clip233)" style="fill:#4ab467; stroke:none; fill-opacity:0" cx="789.768" cy="501.9" r="2"/>
<circle clip-path="url(#clip233)" style="fill:#4ab467; stroke:none; fill-opacity:0" cx="817.326" cy="487.091" r="2"/>
<circle clip-path="url(#clip233)" style="fill:#4ab467; stroke:none; fill-opacity:0" cx="844.884" cy="461.105" r="2"/>
<circle clip-path="url(#clip233)" style="fill:#4ab467; stroke:none; fill-opacity:0" cx="872.442" cy="410.829" r="2"/>
<circle clip-path="url(#clip233)" style="fill:#4ab467; stroke:none; fill-opacity:0" cx="900" cy="277.035" r="2"/>
<circle clip-path="url(#clip233)" style="fill:#4ab467; stroke:none; fill-opacity:0" cx="927.558" cy="448.704" r="2"/>
<circle clip-path="url(#clip233)" style="fill:#4ab467; stroke:none; fill-opacity:0" cx="955.116" cy="491.322" r="2"/>
<circle clip-path="url(#clip233)" style="fill:#4ab467; stroke:none; fill-opacity:0" cx="982.674" cy="509.347" r="2"/>
<circle clip-path="url(#clip233)" style="fill:#4ab467; stroke:none; fill-opacity:0" cx="1010.23" cy="518.139" r="2"/>
<circle clip-path="url(#clip233)" style="fill:#4ab467; stroke:none; fill-opacity:0" cx="1037.79" cy="522.836" r="2"/>
<circle clip-path="url(#clip233)" style="fill:#4ab467; stroke:none; fill-opacity:0" cx="1065.35" cy="525.441" r="2"/>
<circle clip-path="url(#clip233)" style="fill:#4ab467; stroke:none; fill-opacity:0" cx="1092.91" cy="526.902" r="2"/>
<path clip-path="url(#clip230)" d="M701.143 113.249 Q701.09 113.513 700.984 113.987 Q700.879 114.435 700.405 115.858 Q699.93 117.281 699.298 118.73 Q698.692 120.153 697.506 122.156 Q696.347 124.132 694.924 125.924 Q694.529 126.398 694.45 126.688 Q694.397 126.951 694.397 127.821 Q694.397 133.302 696.057 133.302 Q696.136 133.302 696.268 133.302 Q696.426 133.275 696.821 133.144 Q697.243 132.985 697.612 132.748 Q697.981 132.485 698.402 131.958 Q698.824 131.404 699.087 130.667 Q699.324 130.14 699.799 130.14 Q700.431 130.14 700.431 130.667 Q700.431 131.615 699.114 133.065 Q697.796 134.514 695.899 134.514 Q694.081 134.514 692.79 133.328 Q691.525 132.116 690.998 129.955 Q685.306 134.514 679.614 134.514 Q675.609 134.514 673.238 131.905 Q670.866 129.27 670.866 125.37 Q670.866 121.629 672.921 118.071 Q675.003 114.514 678.376 112.301 Q681.775 110.061 685.385 110.061 Q686.65 110.061 687.862 110.403 Q689.074 110.72 690.286 111.536 Q691.498 112.353 692.394 113.592 Q693.29 114.83 693.844 116.78 Q694.397 118.73 694.397 121.181 L694.397 124.527 Q697.875 120.127 699.693 113.829 Q699.957 112.88 700.115 112.775 Q700.22 112.696 700.484 112.696 Q700.747 112.696 700.905 112.854 Q701.09 112.986 701.116 113.117 L701.143 113.249 M690.787 128.559 Q690.682 127.636 690.682 122.524 Q690.682 121.549 690.682 121.022 Q690.682 120.469 690.629 119.415 Q690.576 118.361 690.471 117.702 Q690.392 117.044 690.207 116.095 Q690.023 115.146 689.759 114.54 Q689.496 113.934 689.074 113.249 Q688.679 112.564 688.152 112.169 Q687.651 111.774 686.913 111.51 Q686.202 111.247 685.332 111.247 Q684.252 111.247 683.119 111.642 Q682.012 112.011 680.589 113.196 Q679.166 114.356 677.981 116.2 Q676.742 118.15 675.794 121.734 Q674.871 125.291 674.871 127.426 Q674.871 130.113 676.11 131.721 Q677.348 133.302 679.72 133.302 Q685.385 133.302 690.787 128.559 Z" fill="#4ab467" fill-rule="nonzero" fill-opacity="1" /><path clip-path="url(#clip230)" d="M720.026 125.713 Q720.079 125.054 721.106 125.054 L754.176 125.054 Q755.731 125.054 755.757 125.66 Q755.757 126.319 754.281 126.293 L721.475 126.293 Q720.026 126.319 720.026 125.713 M720.026 115.173 Q720.026 114.514 721.159 114.54 L754.123 114.54 Q755.731 114.54 755.757 115.173 Q755.757 115.779 754.387 115.779 L721.106 115.779 Q720.026 115.779 720.026 115.173 Z" fill="#4ab467" fill-rule="nonzero" fill-opacity="1" /><path clip-path="url(#clip230)" d="M776.572 116.648 Q776.572 108.717 778.574 104.395 Q781.368 97.966 787.955 97.966 Q789.352 97.966 790.801 98.3613 Q792.277 98.7302 794.121 100.179 Q795.992 101.629 797.125 104 Q799.286 108.585 799.286 116.648 Q799.286 124.527 797.283 128.822 Q794.358 135.094 787.902 135.094 Q785.478 135.094 783.001 133.855 Q780.551 132.617 778.996 129.639 Q776.572 125.186 776.572 116.648 M781.051 115.99 Q781.051 124.132 781.631 127.373 Q782.29 130.877 784.082 132.406 Q785.9 133.908 787.902 133.908 Q790.063 133.908 791.855 132.3 Q793.673 130.667 794.226 127.162 Q794.832 123.71 794.806 115.99 Q794.806 108.48 794.279 105.476 Q793.568 101.971 791.67 100.575 Q789.8 99.1518 787.902 99.1518 Q787.191 99.1518 786.427 99.3626 Q785.689 99.5734 784.609 100.179 Q783.528 100.785 782.685 102.287 Q781.868 103.789 781.473 106.056 Q781.051 108.98 781.051 115.99 Z" fill="#4ab467" fill-rule="nonzero" fill-opacity="1" /><path clip-path="url(#clip230)" d="M804.113 133.038 Q803.296 132.169 803.296 131.036 Q803.296 129.903 804.113 129.086 Q804.93 128.242 806.169 128.242 Q807.354 128.242 808.145 129.033 Q808.962 129.797 808.962 131.062 Q808.962 132.3 808.092 133.117 Q807.249 133.908 806.169 133.908 Q804.93 133.908 804.113 133.038 Z" fill="#4ab467" fill-rule="nonzero" fill-opacity="1" /><path clip-path="url(#clip230)" d="M818.146 116.859 Q818.146 108.374 822.468 103.183 Q826.789 97.966 832.349 97.966 Q835.59 97.966 837.382 99.6261 Q839.2 101.26 839.2 103.789 Q839.2 105.186 838.383 105.792 Q837.566 106.398 836.723 106.398 Q835.748 106.398 834.984 105.739 Q834.22 105.081 834.22 103.895 Q834.22 101.471 837.197 101.471 Q835.801 99.3099 832.454 99.3099 Q831.427 99.3099 830.373 99.6261 Q829.319 99.9159 827.949 100.917 Q826.578 101.919 825.524 103.5 Q824.47 105.081 823.733 108.058 Q822.995 111.036 822.995 114.909 L822.995 116.2 Q825.208 110.851 829.74 110.878 Q834.273 110.878 837.408 114.33 Q840.544 117.781 840.544 122.893 Q840.544 128.137 837.277 131.615 Q834.009 135.094 829.424 135.094 Q827.369 135.094 825.498 134.224 Q823.653 133.381 821.914 131.431 Q820.202 129.481 819.174 125.739 Q818.146 121.997 818.146 116.859 M823.1 121.708 Q823.1 127.004 824.075 129.534 Q824.233 129.955 824.576 130.535 Q824.945 131.115 825.551 131.879 Q826.183 132.617 827.211 133.117 Q828.238 133.592 829.424 133.592 Q833.034 133.592 834.773 130.087 Q835.696 128.137 835.696 122.841 Q835.696 117.439 834.721 115.463 Q833.061 112.116 829.688 112.116 Q827.422 112.116 825.841 113.671 Q824.286 115.225 823.68 117.307 Q823.1 119.389 823.1 121.708 Z" fill="#4ab467" fill-rule="nonzero" fill-opacity="1" /><path clip-path="url(#clip230)" d="M1270.87 529.134 L1729.13 529.134 L1729.13 70.8661 L1270.87 70.8661  Z" fill="#ffffff" fill-rule="evenodd" fill-opacity="1"/>
<defs>
  <clipPath id="clip234">
    <rect x="1270" y="70" width="459" height="459"/>
  </clipPath>
</defs>
<polyline clip-path="url(#clip230)" style="stroke:#000000; stroke-linecap:round; stroke-linejoin:round; stroke-width:6; stroke-opacity:1; fill:none" points="1270.87,104.725 1729.13,104.725 "/>
<polyline clip-path="url(#clip230)" style="stroke:#000000; stroke-linecap:round; stroke-linejoin:round; stroke-width:6; stroke-opacity:1; fill:none" points="1312.34,529.134 1312.34,70.8661 "/>
<path clip-path="url(#clip234)" d="M1350.74 69.5731 L1345.1 85.7971 L1327.91 86.1571 L1341.62 96.5491 L1336.62 112.989 L1350.74 103.173 L1364.85 112.989 L1359.86 96.5491 L1373.56 86.1571 L1356.38 85.7971 L1350.74 69.5731 Z" fill="#000000" fill-rule="evenodd" fill-opacity="1" stroke="none"/>
<polyline clip-path="url(#clip234)" style="stroke:#4ab467; stroke-linecap:round; stroke-linejoin:round; stroke-width:4.2; stroke-opacity:1; fill:none" points="1318.29,104.266 1320.94,104.235 1324.44,104.363 1328.96,104.662 1334.59,105.272 1341.33,106.336 1349.47,107.891 1358.35,110.433 1368.51,113.557 1378.98,117.855 1390.53,123.024 1401.98,129.473 1413.54,136.794 1425.16,145.259 1436.04,153.688 1446.78,163.225 1457.16,173.694 1466.7,184.251 1475.79,194.593 1484.34,205.49 1492.19,216.09 1499.6,226.493 1506.64,237.166 1513.12,247.268 1519.29,257.068 1524.96,267.228 1530.09,276.04 1535.13,285.142 1539.58,293.457 1543.97,301.77 1548.47,310.287 1552.44,318.351 1556.15,325.938 1559.77,333.222 1563.26,340.732 1566.32,347.398 1569.54,353.879 1572.63,360.734 1575.34,367.081 1578.05,373.204 1580.7,379.21 1583.32,384.925 1585.96,390.828 1588.07,396.027 1590.34,401.213 1592.6,406.65 1594.56,411.483 1596.71,416.637 1598.69,421.018 1600.58,425.457 1602.52,430.064 1604.17,434.616 1605.92,438.691 1607.5,442.699 1609.13,446.933 1610.7,450.34 1612.08,454.072 1613.84,458.082 1615.13,462.105 1616.52,464.909 1617.72,468.752 1619.04,471.777 1620.19,474.472 1621.7,478.307 1622.54,480.468 1623.76,484.04 1624.65,486.448 1625.51,487.848 1626.72,491.037 1627.64,493.611 1628.42,495.367 1629.47,498.444 1630.31,500.234 1631.01,502.529 1631.86,504.531 1632.54,506.427 "/>
<circle clip-path="url(#clip234)" cx="1602.52" cy="430.064" r="16.2" fill="#4ab467" fill-rule="evenodd" fill-opacity="1" stroke="none"/>
</svg>
