<?xml version="1.0" encoding="UTF-8" standalone="no"?>
<!DOCTYPE svg PUBLIC "-//W3C//DTD SVG 1.1//EN" "http://www.w3.org/Graphics/SVG/1.1/DTD/svg11.dtd">
<svg xmlns="http://www.w3.org/2000/svg" version="1.1" xmlns:xl="http://www.w3.org/1999/xlink" xmlns:dc="http://purl.org/dc/elements/1.1/" viewBox="0 0 1600 900" width="1600" height="900">
  <defs>
    <marker orient="auto" overflow="visible" markerUnits="strokeWidth" id="FilledArrow_Marker" stroke-linejoin="miter" stroke-miterlimit="10" viewBox="-1 -3 5 6" markerWidth="5" markerHeight="6" color="black">
      <g>
        <path d="M 2.88 0 L 0 -1.08 L 0 1.08 Z" fill="currentColor" stroke="currentColor" stroke-width="1"/>
      </g>
    </marker>
  </defs>
  <g id="Canvas_6" stroke-opacity="1" fill-opacity="1" stroke-dasharray="none" stroke="none" fill="none">
    <title>Canvas 6</title>
    <g id="Canvas_6_Layer_1">
      <title>Layer 1</title>
      <g id="Line_27">
        <line x1="1050" y1="500" x2="1014.02" y2="456.82405" marker-end="url(#FilledArrow_Marker)" stroke="black" stroke-linecap="round" stroke-linejoin="round" stroke-width="5"/>
      </g>
      <g id="Line_28">
        <line x1="1150" y1="500" x2="1185.98" y2="456.82405" marker-end="url(#FilledArrow_Marker)" stroke="black" stroke-linecap="round" stroke-linejoin="round" stroke-width="5"/>
      </g>
      <g id="Graphic_37">
        <rect x="1150" y="325" width="200" height="100" fill="white"/>
        <rect x="1150" y="325" width="200" height="100" stroke="black" stroke-linecap="round" stroke-linejoin="round" stroke-width="5"/>
        <text transform="translate(1155 359.136)" fill="black">
          <tspan font-family="Helvetica Neue" font-size="26" fill="black" x="6.392" y="25" xml:space="preserve">approach jesse</tspan>
        </text>
      </g>
      <g id="Graphic_38">
        <rect x="850" y="325" width="200" height="100" fill="white"/>
        <rect x="850" y="325" width="200" height="100" stroke="black" stroke-linecap="round" stroke-linejoin="round" stroke-width="5"/>
        <text transform="translate(855 359.136)" fill="black">
          <tspan font-family="Helvetica Neue" font-size="26" fill="black" x="7.601" y="25" xml:space="preserve">stand in corner</tspan>
        </text>
      </g>
      <g id="Graphic_39">
        <rect x="1300" y="125" width="200" height="100" fill="white"/>
        <rect x="1300" y="125" width="200" height="100" stroke="black" stroke-linecap="round" stroke-linejoin="round" stroke-width="5"/>
        <text transform="translate(1305 159.136)" fill="black">
          <tspan font-family="Helvetica Neue" font-size="26" fill="black" x="26.594" y="25" xml:space="preserve">compliment</tspan>
        </text>
      </g>
      <g id="Graphic_40">
        <rect x="1e3" y="125" width="200" height="100" fill="white"/>
        <rect x="1e3" y="125" width="200" height="100" stroke="black" stroke-linecap="round" stroke-linejoin="round" stroke-width="5"/>
        <text transform="translate(1005 159.136)" fill="black">
          <tspan font-family="Helvetica Neue" font-size="26" fill="black" x="13.373" y="25" xml:space="preserve">talk about self</tspan>
        </text>
      </g>
      <g id="Line_42">
        <line x1="1300" y1="300" x2="1335.98" y2="256.82405" marker-end="url(#FilledArrow_Marker)" stroke="black" stroke-linecap="round" stroke-linejoin="round" stroke-width="5"/>
      </g>
      <g id="Line_43">
        <line x1="1200" y1="300" x2="1164.02" y2="256.82405" marker-end="url(#FilledArrow_Marker)" stroke="black" stroke-linecap="round" stroke-linejoin="round" stroke-width="5"/>
      </g>
      <g id="Line_44">
        <line x1="1450" y1="100" x2="1485.98" y2="56.824046" marker-end="url(#FilledArrow_Marker)" stroke="black" stroke-linecap="round" stroke-linejoin="round" stroke-width="5"/>
      </g>
      <g id="Line_45">
        <line x1="1350" y1="100" x2="1314.02" y2="56.824046" marker-end="url(#FilledArrow_Marker)" stroke="black" stroke-linecap="round" stroke-linejoin="round" stroke-width="5"/>
      </g>
      <g id="Graphic_175">
        <rect x="950" y="525" width="300" height="100" fill="white"/>
        <rect x="950" y="525" width="300" height="100" stroke="black" stroke-linecap="round" stroke-linejoin="round" stroke-width="5"/>
        <text transform="translate(955 547.356)" fill="black">
          <tspan font-family="Helvetica Neue" font-size="46" fill="black" x="32.967" y="44" xml:space="preserve">go to party</tspan>
        </text>
      </g>
      <g id="Graphic_174">
        <rect x="350" y="525" width="300" height="100" fill="white"/>
        <rect x="350" y="525" width="300" height="100" stroke="black" stroke-linecap="round" stroke-linejoin="round" stroke-width="5"/>
        <text transform="translate(355 547.356)" fill="black">
          <tspan font-family="Helvetica Neue" font-size="46" fill="black" x="38.05" y="44" xml:space="preserve">stay home</tspan>
        </text>
      </g>
      <g id="Line_173">
        <line x1="875" y1="750" x2="982.899" y2="663.6808" marker-end="url(#FilledArrow_Marker)" stroke="black" stroke-linecap="round" stroke-linejoin="round" stroke-width="5"/>
      </g>
      <g id="Line_172">
        <line x1="725" y1="750" x2="617.101" y2="663.6808" marker-end="url(#FilledArrow_Marker)" stroke="black" stroke-linecap="round" stroke-linejoin="round" stroke-width="5"/>
      </g>
      <g id="Line_169">
        <line x1="1050" y1="500" x2="1014.02" y2="456.82405" marker-end="url(#FilledArrow_Marker)" stroke="black" stroke-linecap="round" stroke-linejoin="round" stroke-width="5"/>
      </g>
      <g id="Line_168">
        <line x1="1150" y1="500" x2="1185.98" y2="456.82405" marker-end="url(#FilledArrow_Marker)" stroke="black" stroke-linecap="round" stroke-linejoin="round" stroke-width="5"/>
      </g>
      <g id="Group_144">
        <g id="Group_145">
          <g id="Group_166">
            <g id="Graphic_167">
              <path d="M 788.6361 811.738 C 788.6361 812.825 787.65365 813.7071 786.4403 813.7071 C 785.2269 813.7071 784.2445 812.825 784.2445 811.738 C 784.2445 810.6509 785.2269 809.7708 786.4403 809.7708 C 787.65365 809.7708 788.6361 810.6509 788.6361 811.738" fill="#272724"/>
            </g>
          </g>
          <g id="Group_164">
            <g id="Graphic_165">
              <path d="M 783.1199 819.6126 C 783.1199 820.6996 782.1352 821.5798 780.92185 821.5798 C 779.7085 821.5798 778.726 820.6996 778.726 819.6126 C 778.726 818.5256 779.7085 817.6454 780.92185 817.6454 C 782.1352 817.6454 783.1199 818.5256 783.1199 819.6126" fill="#272724"/>
            </g>
          </g>
          <g id="Group_162">
            <g id="Graphic_163">
              <path d="M 793.02895 819.6122 C 793.02895 820.6992 792.0465 821.5794 790.8353 821.5794 C 789.6219 821.5794 788.6351 820.6992 788.6351 819.6122 C 788.6351 818.5252 789.6219 817.643 790.8353 817.643 C 792.0465 817.643 793.02895 818.5252 793.02895 819.6122" fill="#272724"/>
            </g>
          </g>
          <g id="Group_160">
            <g id="Graphic_161">
              <path d="M 839.7364 811.7393 C 839.7364 812.8263 838.7539 813.7065 837.5405 813.7065 C 836.3272 813.7065 835.3447 812.8263 835.3447 811.7393 C 835.3447 810.6523 836.3272 809.7721 837.5405 809.7721 C 838.7539 809.7721 839.7364 810.6523 839.7364 811.7393" fill="#272724"/>
            </g>
          </g>
          <g id="Group_158">
            <g id="Graphic_159">
              <path d="M 834.2166 819.6139 C 834.2166 820.701 833.2342 821.5811 832.023 821.5811 C 830.8053 821.5811 829.8228 820.701 829.8228 819.6139 C 829.8228 818.5269 830.8053 817.6448 832.023 817.6448 C 833.2342 817.6448 834.2166 818.5269 834.2166 819.6139" fill="#272724"/>
            </g>
          </g>
          <g id="Group_156">
            <g id="Graphic_157">
              <path d="M 844.1292 819.6116 C 844.1292 820.6986 843.1467 821.5807 841.9355 821.5807 C 840.7222 821.5807 839.7354 820.6986 839.7354 819.6116 C 839.7354 818.5265 840.7222 817.6444 841.9355 817.6444 C 843.1467 817.6444 844.1292 818.5265 844.1292 819.6116" fill="#272724"/>
            </g>
          </g>
          <g id="Group_154">
            <g id="Graphic_155">
              <path d="M 807.829 860.8257 C 808.1906 861.1867 811.5061 864.3405 816.4446 863.837 C 820.1762 863.4545 823.3414 861.1906 824.6985 857.9256 C 824.9882 857.2348 825.8444 856.8835 826.6155 857.143 C 827.3867 857.4007 827.7766 858.1676 827.4891 858.8585 C 825.7376 863.0661 821.6313 865.9876 816.7844 866.4872 C 816.303 866.538 815.8346 866.5614 815.3793 866.5614 C 809.7351 866.5614 806.0427 863.0368 805.6114 862.6036 C 805.0646 862.0571 805.1169 861.2141 805.7268 860.7223 C 806.3411 860.2305 807.2822 860.2773 807.829 860.8257" fill="#272724"/>
            </g>
          </g>
          <g id="Group_152">
            <g id="Graphic_153">
              <path d="M 789.8594 801.2803 C 789.0947 797.5118 788.5414 793.6828 788.2168 789.8577 C 787.8008 784.9768 787.8966 781.8972 787.9707 779.4206 C 788.0622 776.5791 788.1232 774.526 787.4435 771.1537 C 786.5656 766.8212 784.5179 756.6788 776.8042 753.6519 C 771.6871 751.6456 765.37195 752.9883 762.0325 755.2678 C 759.20925 757.1979 757.3772 760.58975 756.6453 765.1135 C 759.804 761.26695 765.4634 758.25565 769.3279 759.774 C 770.6851 760.3087 771.8026 761.2806 772.6543 762.6623 C 773.3231 763.7552 773.737 764.9945 773.87425 766.345 L 774.7565 774.8656 C 774.7979 775.254 774.6454 775.6404 774.3404 775.9195 C 774.03545 776.1985 773.6107 776.3449 773.175 776.3195 C 768.7659 776.058 765.6617 778.5795 765.4634 780.4315 C 765.3632 781.3761 765.9514 782.5685 766.997 783.5424 C 768.6287 785.05485 771.0271 785.8394 773.5802 785.7028 C 774.347 785.654 775.0179 786.1438 775.1399 786.821 C 775.6344 789.5767 776.1681 792.3694 776.7171 795.1231 C 777.0373 796.7214 777.3684 798.3354 777.7104 799.9416 C 782.065 799.4693 786.2606 799.9474 789.8594 801.2803 M 839.9822 789.8675 C 839.5073 784.8109 839.6097 781.661 839.6968 779.1318 C 839.7861 776.4698 839.8558 774.368 839.2088 771.1537 C 838.331 766.8212 836.2833 756.6788 828.5695 753.6519 C 823.4525 751.6456 817.1395 752.9883 813.7978 755.2678 C 810.9746 757.1979 809.1426 760.58975 808.4106 765.1135 C 811.5693 761.26695 817.231 758.25565 821.0933 759.774 C 822.4482 760.3087 823.5679 761.2806 824.4153 762.6623 C 825.0906 763.7552 825.50235 764.9945 825.6396 766.345 L 826.5218 774.8656 C 826.5632 775.254 826.4107 775.6404 826.1058 775.9195 C 825.8008 776.1985 825.376 776.3449 824.9403 776.3195 C 820.5334 776.058 817.427 778.5795 817.231 780.4315 C 817.1264 781.3761 817.7167 782.5685 818.7624 783.5424 C 820.394 785.05485 822.7946 785.8394 825.3455 785.7028 C 826.1101 785.654 826.7832 786.1438 826.9052 786.821 C 827.3997 789.5767 827.9334 792.3694 828.4824 795.1231 C 828.7961 796.698 829.1272 798.2886 829.4627 799.8713 C 833.9284 799.4829 838.2002 800.1035 841.8055 801.616 C 840.969 797.7577 840.3503 793.8116 839.9822 789.8675 M 760.22875 753.14835 C 764.3437 750.3361 771.7677 748.767 777.9936 751.2085 C 787.169 754.80525 789.4128 765.9293 790.3713 770.6795 C 791.1098 774.3231 791.0379 776.6064 790.9486 779.4948 C 790.8701 782.0338 790.7808 784.9124 791.1838 789.6547 C 791.5629 794.0946 792.2512 798.5403 793.2337 802.8826 C 793.8284 803.2397 794.4013 803.6242 794.9416 804.0379 C 799.78415 807.7479 802.3176 813.6749 802.1869 819.6877 C 803.9253 819.91995 805.6789 820.0409 807.4238 820.0566 C 807.9488 819.7463 808.537 819.5648 809.1578 819.5648 C 809.7133 819.5648 810.2383 819.7053 810.7132 819.9531 C 810.8112 819.9473 810.9071 819.9434 811.0007 819.9356 C 816.5905 819.5023 821.9363 817.9723 826.9009 815.3884 C 827.4389 815.1093 828.1121 815.1561 828.5913 815.5074 C 829.0706 815.8587 829.2579 816.4383 829.0597 816.9652 C 826.5218 823.7451 824.997 830.7337 824.5242 837.7594 C 833.7672 839.5529 843.4328 835.6771 847.8571 828.261 C 852.2945 820.8255 850.6455 811.0754 844.1059 806.0637 C 840.2697 803.1226 834.6233 801.8775 828.6175 802.6465 C 828.2602 802.6933 827.9029 802.7538 827.5457 802.8123 C 826.3105 803.0251 825.0863 803.3119 823.8947 803.6749 C 823.7357 803.7237 823.5745 803.7764 823.4176 803.8272 C 823.1497 803.913 822.8861 804.0028 822.6269 804.0965 C 822.4068 804.1745 822.1868 804.2565 821.9712 804.3404 C 821.7707 804.4185 821.5682 804.4966 821.3721 804.5766 C 821.0475 804.7112 820.7251 804.8498 820.4071 804.9962 C 820.333 805.0274 820.2589 805.0586 820.1892 805.0937 C 815.8085 807.1312 811.9527 810.2576 809.0685 814.2155 C 808.6176 814.8322 807.6961 815.0078 807.0077 814.6038 C 806.31935 814.19985 806.1255 813.3743 806.5764 812.7576 C 808.9051 809.5629 811.8155 806.8599 815.1114 804.7581 C 813.2968 801.2296 811.6782 797.586 810.308 793.9092 C 810.3036 793.9014 810.3036 793.8955 810.2993 793.8877 C 807.8137 787.4338 806.1799 781.3312 805.4741 775.8063 C 805.4698 775.779 805.4632 775.7536 805.4589 775.7263 C 805.4545 775.71065 805.4545 775.695 805.4523 775.6775 C 805.4436 775.6267 805.4393 775.5701 805.4371 775.5174 C 805.3478 774.7934 805.265 774.0752 805.2084 773.37265 C 804.4285 763.7064 806.7768 756.71195 811.9941 753.14835 C 816.1091 750.3361 823.5331 748.767 829.7589 751.2085 C 838.93 754.80525 841.1781 765.9293 842.1366 770.6795 C 842.8402 774.1689 842.7662 776.3937 842.6725 779.2118 C 842.5875 781.80155 842.4873 784.7387 842.9492 789.645 C 843.3347 793.7745 843.9948 797.908 844.9075 801.9341 C 845.0034 802.344 844.8683 802.746 844.5895 803.0446 C 845.0927 803.3568 845.5807 803.6847 846.0447 804.0379 C 853.5994 809.8302 855.549 821.0226 850.4821 829.5198 C 846.2582 836.6041 837.8473 840.8624 829.0423 840.8624 C 827.5021 840.8624 825.9424 840.7297 824.3979 840.4585 C 824.3347 842.5447 824.3609 844.6466 824.4829 846.727 C 824.5569 847.9486 824.4567 849.1781 824.1888 850.3784 C 823.4786 853.5673 821.8034 857.6812 817.8627 859.1761 C 817.0175 859.4962 816.1287 859.6406 815.205 859.6406 C 809.3473 859.6406 802.2501 853.7761 798.6862 849.4514 C 795.6125 845.7238 793.5801 841.2684 792.7283 836.446 C 788.5153 839.2816 783.3045 840.8624 777.9435 840.8624 C 775.7912 840.8624 773.6172 840.6087 771.47365 840.0779 C 770.6807 839.8827 770.2167 839.1489 770.4367 838.4386 C 770.6524 837.7282 771.4715 837.3105 772.2666 837.5077 C 780.0413 839.428 788.2887 837.2305 793.5844 832.2091 C 793.6106 832.1837 793.6367 832.1584 793.6607 832.133 C 793.8175 831.9827 793.97 831.8285 794.1225 831.6724 C 794.19 831.6041 794.2532 831.5358 794.3164 831.4694 C 794.4275 831.3523 794.5364 831.2333 794.6431 831.1143 C 794.7303 831.0206 794.8109 830.9269 794.8936 830.8313 C 794.9786 830.7337 795.0657 830.6322 795.1463 830.5327 C 795.23565 830.4234 795.3293 830.3122 795.4143 830.2009 C 795.4883 830.1092 795.5602 830.0155 795.6299 829.9218 C 795.7193 829.8028 795.8086 829.6857 795.8979 829.5647 C 795.9698 829.4652 796.0395 829.3637 796.107 829.2622 C 796.1854 829.149 796.266 829.0358 796.3401 828.9207 C 796.48605 828.704 796.6233 828.4855 796.75835 828.261 C 796.7649 828.2493 796.7692 828.2357 796.7758 828.224 C 796.9217 827.9859 797.0546 827.7439 797.1831 827.4999 C 797.2725 827.334 797.3574 827.1642 797.4402 826.9945 C 797.4772 826.9203 797.5143 826.8461 797.5513 826.772 C 798.2201 825.3512 798.6906 823.868 798.9607 822.3653 C 798.9607 822.3575 798.9651 822.3497 798.9651 822.3419 C 799.0086 822.0979 799.04785 821.854 799.0805 821.6081 C 799.1219 821.3134 799.1546 821.0167 799.1764 820.71815 L 799.1764 820.7084 C 799.6534 815.1151 797.4729 809.4848 793.0071 806.0637 C 789.171 803.1226 783.5202 801.8775 777.5187 802.6465 C 769.7244 803.6476 762.59885 807.863 757.9697 814.2155 C 757.5188 814.8322 756.5952 815.0078 755.9068 814.6038 C 755.2184 814.19985 755.02455 813.3743 755.4755 812.7576 C 757.68655 809.7249 760.4226 807.1332 763.5138 805.0801 C 761.6273 801.4501 759.95645 797.6972 758.5427 793.9092 C 758.5383 793.8994 758.53395 793.8897 758.5318 793.8799 C 756.0484 787.428 754.4146 781.3273 753.7088 775.8024 C 753.7044 775.777 753.6979 775.7516 753.6935 775.7263 C 753.6892 775.71065 753.6892 775.695 753.687 775.6775 C 753.6783 775.6287 753.6739 775.574 753.6718 775.5233 C 753.5824 774.7973 753.504 774.0772 753.443 773.37265 C 752.6632 763.7064 755.0115 756.71195 760.22875 753.14835" fill="#272724"/>
            </g>
          </g>
          <g id="Group_150">
            <g id="Graphic_151">
              <path d="M 806.159 821.4406 C 806.159 823.9309 807.4965 825.9488 809.1477 825.9488 C 810.7968 825.9488 812.13215 823.9309 812.13215 821.4406 C 812.13215 818.9524 810.7968 816.9325 809.1477 816.9325 C 807.4965 816.9325 806.159 818.9524 806.159 821.4406" fill="white"/>
            </g>
          </g>
          <g id="Group_148">
            <g id="Graphic_149">
              <path d="M 812.9305 820.4094 C 812.9305 822.8879 814.2703 824.8981 815.9193 824.8981 C 817.5662 824.8981 818.9059 822.8879 818.9059 820.4094 C 818.9059 817.9309 817.5662 815.9208 815.9193 815.9208 C 814.2703 815.9208 812.9305 817.9309 812.9305 820.4094" fill="white"/>
            </g>
          </g>
          <g id="Group_146">
            <g id="Graphic_147">
              <path d="M 809.1593 801.5228 C 809.1593 803.1055 806.9635 804.3858 804.2557 804.3858 C 801.5458 804.3858 799.35 803.1055 799.35 801.5228 C 799.35 799.942 801.5458 798.6618 804.2557 798.6618 C 806.9635 798.6618 809.1593 799.942 809.1593 801.5228" fill="#272724"/>
            </g>
          </g>
        </g>
      </g>
    </g>
  </g>
</svg>
